# Blender v2.75 (sub 0) OBJ File: ''
# www.blender.org
mtllib roadTile_141.mtl
o Mesh1_Group1_Model.233
v 0.750000 0.630000 0.000000
v 0.750000 0.630000 -0.750000
v 0.000000 0.630000 -0.750000
v 0.000000 0.630000 -0.375000
v 0.375000 0.630000 -0.375000
v 0.375000 0.630000 0.000000
v 0.750000 0.600000 0.000000
v 0.750000 0.600000 -0.750000
v 2.250000 0.600000 0.000000
v 2.250000 0.600000 -0.750000
v 3.000000 0.600000 -0.750000
v 3.000000 0.600000 -2.250000
v 2.250000 0.600000 -2.250000
v 2.250000 0.600000 -3.000000
v 0.750000 0.600000 -3.000000
v 0.750000 0.600000 -2.250000
v 0.000000 0.600000 -2.250000
v 0.000000 0.600000 -0.750000
v 2.250000 0.630000 0.000000
v 2.250000 0.630000 -0.750000
v 0.375000 0.000000 -0.000000
v 2.625000 0.000000 -0.000000
v 2.625000 0.550000 0.000000
v 2.625000 0.630000 0.000000
v 2.250000 0.300000 0.000000
v 0.750000 0.300000 0.000000
v 0.375000 0.550000 0.000000
v 0.000000 0.000000 -0.000000
v 0.000000 0.000000 -0.375000
v 0.000000 0.000000 -2.625000
v 0.000000 0.000000 -3.000000
v 0.375000 0.000000 -3.000000
v 2.625000 0.000000 -3.000000
v 3.000000 0.000000 -3.000000
v 3.000000 0.000000 -2.625000
v 3.000000 0.000000 -0.375000
v 3.000000 0.000000 -0.000000
v 0.000000 0.550000 0.000000
v 0.375000 0.550000 -0.375000
v 0.000000 0.550000 -0.375000
v 0.000000 0.300000 -0.750000
v 0.000000 0.300000 -2.250000
v 0.000000 0.630000 -2.250000
v 0.000000 0.630000 -2.625000
v 0.000000 0.550000 -2.625000
v 0.750000 0.630000 -2.250000
v 0.750000 0.630000 -3.000000
v 2.625000 0.630000 -3.000000
v 2.625000 0.550000 -3.000000
v 0.375000 0.550000 -3.000000
v 0.375000 0.630000 -3.000000
v 0.750000 0.300000 -3.000000
v 2.250000 0.300000 -3.000000
v 2.250000 0.630000 -3.000000
v 2.625000 0.630000 -2.625000
v 2.625000 0.550000 -2.625000
v 2.250000 0.630000 -2.250000
v 3.000000 0.630000 -2.250000
v 3.000000 0.630000 -2.625000
v 3.000000 0.550000 -2.625000
v 3.000000 0.300000 -2.250000
v 3.000000 0.300000 -0.750000
v 3.000000 0.630000 -0.750000
v 3.000000 0.630000 -0.375000
v 3.000000 0.550000 -0.375000
v 3.000000 0.550000 -3.000000
v 2.625000 0.630000 -0.375000
v 2.625000 0.550000 -0.375000
v 3.000000 0.550000 0.000000
v 0.000000 0.550000 -3.000000
v 0.375000 0.550000 -2.625000
v 0.375000 0.630000 -2.625000
vt 0.750000 0.750000
vt 0.000000 0.750000
vt 0.375000 0.375000
vt 0.750000 0.300000
vt 0.750000 0.600000
vt 0.375000 0.550000
vt 0.375000 0.000000
vt 2.625000 0.000000
vt 2.250000 0.300000
vt -0.000000 0.630000
vt -0.375000 0.630000
vt -0.375000 0.550000
vt -0.000000 0.550000
vt 0.375000 0.630000
vt -2.250000 0.300000
vt -2.250000 0.600000
vt -2.625000 0.550000
vt -2.625000 0.000000
vt -0.375000 0.000000
vt -0.750000 0.300000
vt -0.750000 0.600000
vt 0.000000 0.600000
vt -0.750000 0.630000
vt 0.750000 0.630000
vt 2.250000 0.600000
vt 3.000000 0.600000
vt 3.000000 0.630000
vt 2.250000 0.630000
vt -2.250000 0.630000
vt -2.625000 0.630000
vt 2.250000 2.250000
vt 3.000000 2.250000
vt 2.625000 2.625000
vt -3.000000 0.630000
vt -3.000000 0.550000
vt -3.000000 0.600000
vt 2.625000 0.375000
vt 3.000000 0.375000
vt 3.000000 0.750000
vt 2.625000 0.630000
vt 2.625000 0.550000
vt 3.000000 0.550000
vt 0.000000 2.250000
vt 0.750000 2.250000
vt 0.375000 2.625000
vt 0.750000 0.000000
vt 0.000000 0.375000
vt 2.250000 3.000000
vt 3.000000 2.625000
vt 2.625000 3.000000
vt 2.250000 0.000000
vt 2.250000 0.750000
vt 0.000000 2.625000
vt 0.750000 3.000000
vt 0.375000 3.000000
vt 0.000000 0.000000
vt 3.000000 3.000000
vt -3.000000 0.000000
vt 3.000000 0.000000
vt 0.000000 3.000000
vt -0.375000 3.000000
vt -3.000000 2.625000
vt -3.000000 0.375000
vt -2.625000 3.000000
vt -3.000000 3.000000
vn -0.000000 1.000000 0.000000
vn -0.000000 -0.000000 1.000000
vn -1.000000 0.000000 0.000000
vn 0.000000 0.000000 -1.000000
vn 1.000000 0.000000 0.000000
vn -0.000000 -1.000000 -0.000000
usemtl Stone.201
s 1
f 2/1/1 3/2/1 5/3/1
f 26/4/2 7/5/2 27/6/2 21/7/2
f 21/7/2 22/8/2 25/9/2
f 6/10/3 5/11/3 39/12/3 27/13/3
f 5/14/2 4/10/2 40/13/2 39/6/2
f 42/15/3 17/16/3 45/17/3 30/18/3
f 30/18/3 29/19/3 41/20/3
f 8/21/4 18/22/4 3/10/4 2/23/4
f 17/22/2 16/5/2 46/24/2 43/10/2
f 16/25/5 15/26/5 47/27/5 46/28/5
f 49/17/4 14/16/4 54/29/4 48/30/4
f 33/18/4 32/19/4 52/20/4
f 13/25/2 12/26/2 58/27/2 57/28/2
f 57/31/1 58/32/1 55/33/1
f 62/4/5 11/5/5 65/6/5 36/7/5
f 36/7/5 35/8/5 61/9/5
f 55/30/4 59/34/4 60/35/4 56/17/4
f 11/36/4 10/16/4 20/29/4 63/34/4
f 67/14/5 24/10/5 23/13/5 68/6/5
f 67/37/1 64/38/1 63/39/1
f 64/27/2 67/40/2 68/41/2 65/42/2
f 14/36/3 13/16/3 57/29/3 54/34/3
f 44/10/4 72/11/4 71/12/4 45/13/4
f 72/30/3 51/34/3 50/35/3 71/17/3
f 43/43/1 46/44/1 72/45/1
f 5/3/1 6/7/1 1/46/1
f 3/2/1 4/47/1 5/3/1
f 5/3/1 1/46/1 2/1/1
f 10/21/3 9/22/3 19/10/3 20/23/3
f 27/6/2 7/5/2 1/24/2 6/14/2
f 22/8/2 23/41/2 9/25/2 25/9/2
f 24/40/2 19/28/2 9/25/2 23/41/2
f 25/9/2 26/4/2 21/7/2
f 45/17/3 17/16/3 43/29/3 44/30/3
f 29/19/3 40/12/3 18/21/3 41/20/3
f 4/11/3 3/23/3 18/21/3 40/12/3
f 41/20/3 42/15/3 30/18/3
f 32/19/4 50/12/4 15/21/4 52/20/4
f 51/11/4 47/23/4 15/21/4 50/12/4
f 49/17/4 33/18/4 53/15/4 14/16/4
f 48/27/5 55/40/5 56/41/5 49/42/5
f 52/20/4 53/15/4 33/18/4
f 55/33/1 54/48/1 57/31/1
f 58/32/1 59/49/1 55/33/1
f 55/33/1 48/50/1 54/48/1
f 65/6/5 11/5/5 63/24/5 64/14/5
f 35/8/5 60/41/5 12/25/5 61/9/5
f 59/40/5 58/28/5 12/25/5 60/41/5
f 61/9/5 62/4/5 36/7/5
f 67/37/1 19/51/1 24/8/1
f 67/37/1 63/39/1 20/52/1
f 20/52/1 19/51/1 67/37/1
f 72/45/1 44/53/1 43/43/1
f 47/54/1 51/55/1 72/45/1
f 72/45/1 46/44/1 47/54/1
f 7/22/5 8/5/5 2/24/5 1/10/5
usemtl Grass.098
f 38/56/1 27/7/1 39/3/1 40/47/1
f 66/57/1 49/50/1 56/33/1 60/49/1
f 34/58/4 33/18/4 49/17/4 66/35/4
f 69/59/1 65/38/1 68/37/1 23/8/1
f 37/56/5 36/7/5 65/6/5 69/13/5
f 69/42/2 23/41/2 22/8/2 37/59/2
f 70/13/4 50/12/4 32/19/4 31/56/4
f 45/53/1 71/45/1 50/55/1 70/60/1
f 31/58/3 30/18/3 45/17/3 70/35/3
f 21/19/6 32/61/6 35/62/6 36/63/6
f 36/63/6 37/58/6 22/18/6
f 29/47/6 21/19/6 28/56/6
f 21/19/6 29/47/6 30/53/6
f 30/53/6 31/60/6 32/61/6
f 35/62/6 33/64/6 34/65/6
f 28/56/2 21/7/2 27/6/2 38/13/2
f 36/63/6 22/18/6 21/19/6
f 21/19/6 30/53/6 32/61/6
f 32/61/6 33/64/6 35/62/6
f 38/13/3 40/12/3 29/19/3 28/56/3
f 66/42/5 60/41/5 35/8/5 34/59/5
usemtl Asphalt.168
f 9/51/1 10/52/1 8/1/1 7/46/1
f 17/16/3 42/15/3 41/20/3 18/21/3
f 11/5/5 62/4/5 61/9/5 12/25/5
f 14/16/4 53/15/4 52/20/4 15/21/4
f 7/5/2 26/4/2 25/9/2 9/25/2
f 16/44/1 17/43/1 18/2/1 8/1/1
f 13/31/1 14/48/1 15/54/1 16/44/1
f 12/32/1 13/31/1 10/52/1 11/39/1
f 10/52/1 13/31/1 16/44/1 8/1/1
