# Blender v2.75 (sub 0) OBJ File: ''
# www.blender.org
mtllib roadTile_064.mtl
o Mesh1_Group1_Model.025
v 0.000000 0.000000 -0.000000
v 0.000000 0.630000 0.000000
v 0.000000 0.630000 -3.000000
v 0.000000 0.000000 -3.000000
v 3.000000 0.000000 0.000000
v 3.000000 0.630000 0.000000
v 3.000000 0.000000 -3.000000
v 3.000000 0.630000 -3.000000
v 3.000000 0.630000 -1.875000
v 3.000000 0.600000 -1.875000
v 3.000000 0.300000 -1.875000
v 3.000000 0.300000 -1.125000
v 3.000000 0.600000 -1.125000
v 3.000000 0.630000 -1.125000
v 1.125000 0.630000 -1.125000
v 1.125000 0.630000 -1.875000
v 1.125000 0.600000 -1.125000
v 1.125000 0.600000 -1.875000
vt -0.000000 0.630000
vt -0.000000 0.000000
vt 3.000000 0.000000
vt 3.000000 0.630000
vt -0.000000 3.000000
vt -3.000000 3.000000
vt -3.000000 0.000000
vt -3.000000 0.630000
vt 1.125000 0.300000
vt 1.125000 0.600000
vt 1.875000 0.300000
vt 1.125000 1.875000
vt 1.125000 1.125000
vt 1.125000 0.630000
vt 3.000000 0.600000
vt 1.875000 0.600000
vt -3.000000 0.600000
vt -1.125000 0.600000
vt -1.125000 0.630000
vt 1.875000 0.630000
vt 3.000000 3.000000
vt 3.000000 1.125000
vt 3.000000 1.875000
vt -73.818901 24.803101
vt -73.818901 23.622000
vt -44.291302 23.622000
vt -44.291302 24.803101
vn -0.000000 -0.000000 1.000000
vn 0.000000 -1.000000 -0.000000
vn 0.000000 0.000000 -1.000000
vn 1.000000 0.000000 0.000000
vn -0.000000 1.000000 0.000000
vn -1.000000 0.000000 -0.000000
usemtl Stone
s 1
f 2/1/1 1/2/1 5/3/1 6/4/1
f 4/5/2 7/6/2 5/7/2 1/2/2
f 8/8/3 7/7/3 4/2/3 3/1/3
f 12/9/4 13/10/4 6/1/4 5/2/4
f 5/2/4 7/3/4 11/11/4
f 16/12/5 2/2/5 15/13/5
f 9/4/1 16/14/1 18/10/1 10/15/1
f 7/3/4 8/4/4 10/16/4 11/11/4
f 6/1/4 13/10/4 14/14/4
f 13/17/3 17/18/3 15/19/3 14/8/3
f 8/4/4 9/20/4 10/16/4
f 11/11/4 12/9/4 5/2/4
f 16/12/5 8/21/5 3/5/5
f 6/3/5 14/22/5 15/13/5
f 16/12/5 9/23/5 8/21/5
f 2/2/5 6/3/5 15/13/5
f 2/2/5 16/12/5 3/5/5
f 1/2/6 2/1/6 3/8/6 4/7/6
usemtl FrontColor
f 16/24/6 18/25/6 17/26/6 15/27/6
usemtl Asphalt
f 10/23/5 18/12/5 17/13/5 13/22/5
f 13/10/4 12/9/4 11/11/4 10/16/4
