# Blender v2.75 (sub 0) OBJ File: ''
# www.blender.org
mtllib roadTile_114.mtl
o Mesh1_Group1_Model.266
v 2.576880 0.000000 -2.265790
v 2.625000 0.000000 -3.000000
v 2.625000 0.630000 -3.000000
v 2.576880 0.630000 -2.265790
v 0.000000 0.000000 -3.000000
v 2.433330 0.000000 -1.544140
v 2.196820 0.000000 -0.847406
v 1.871390 0.000000 -0.187500
v 1.746110 0.000000 -0.000000
v 0.000000 0.000000 0.000000
v 0.000000 0.300000 -3.000000
v 2.250000 0.300000 -3.000000
v 2.250000 0.600000 -3.000000
v 2.250000 0.630000 -3.000000
v 0.000000 0.600000 -3.000000
v 0.000000 0.300000 0.000000
v 0.000000 0.600000 0.000000
v 1.296070 0.600000 0.000000
v 1.296070 0.300000 0.000000
v 1.746110 0.630000 0.000000
v 1.296070 0.630000 0.000000
v 1.546630 0.600000 -0.375000
v 1.850370 0.600000 -0.990912
v 2.071110 0.600000 -1.641200
v 2.205090 0.600000 -2.314740
v 1.546630 0.630000 -0.375000
v 1.871390 0.630000 -0.187500
v 2.196820 0.630000 -0.847406
v 2.433330 0.630000 -1.544140
v 2.205090 0.630000 -2.314740
v 2.071110 0.630000 -1.641200
v 1.850370 0.630000 -0.990912
vt 0.000000 3.000000
vt -2.433330 1.544140
vt -2.196820 0.847406
vt -0.000000 -0.000000
vt -2.576880 2.265790
vt 0.000000 0.300000
vt -3.000000 0.300000
vt -3.000000 0.000000
vt 1.296070 0.300000
vt 1.746110 0.000000
vt 1.746110 0.630000
vt 1.296070 0.600000
vt -1.171060 0.600000
vt -0.720056 0.600000
vt -0.720056 0.630000
vt -1.171060 0.630000
vt 2.205090 2.314740
vt 2.576880 2.265790
vt 2.625000 3.000000
vt 2.250000 3.000000
vt 0.995860 0.000000
vt 1.731640 0.000000
vt 1.731640 0.630000
vt 0.995860 0.630000
vt 1.508580 0.000000
vt 2.244360 0.000000
vt 2.244360 0.630000
vt 1.508580 0.630000
vt 1.989190 0.000000
vt 2.724980 0.000000
vt 2.724980 0.630000
vt 1.989190 0.630000
vt -3.140730 0.600000
vt -2.454000 0.600000
vt -2.454000 0.630000
vt -3.140730 0.630000
vt -2.700450 0.600000
vt -2.013720 0.600000
vt -2.013720 0.630000
vt -2.700450 0.630000
vt -2.219840 0.600000
vt -1.533110 0.600000
vt -1.533110 0.630000
vt -2.219840 0.630000
vt -1.707120 0.600000
vt -1.020390 0.600000
vt -1.020390 0.630000
vt -1.707120 0.630000
vt -2.250000 0.300000
vt -2.250000 0.600000
vt -2.625000 0.630000
vt -2.625000 -0.000000
vt -1.871390 0.187500
vt -1.746110 0.000000
vt -2.625000 3.000000
vt -2.250000 0.630000
vt 1.296070 0.630000
vt 1.871390 0.187500
vt 1.546630 0.375000
vt 1.296070 0.000000
vt 2.433330 1.544140
vt 2.071110 1.641200
vt 1.850370 0.990912
vt 2.196820 0.847406
vt 0.970086 0.000000
vt 1.195590 0.000000
vt 1.195590 0.630000
vt 0.970086 0.630000
vt 2.429470 0.000000
vt 3.165260 0.000000
vt 3.165260 0.630000
vt 2.429470 0.630000
vt -3.000000 0.600000
vt 0.000000 0.600000
vn 0.000000 -1.000000 -0.000000
vn -1.000000 0.000000 0.000000
vn 0.000000 -0.000000 1.000000
vn -0.866000 0.000000 -0.500000
vn -0.831500 0.000000 -0.555600
vn -0.000000 1.000000 0.000000
vn 0.866000 0.000000 0.500000
vn 0.923900 0.000000 0.382700
vn 0.965900 0.000000 0.258800
vn 0.991400 0.000000 0.130500
vn -0.997900 0.000000 -0.065400
vn -0.991400 0.000000 -0.130500
vn -0.965900 0.000000 -0.258800
vn -0.923900 0.000000 -0.382700
vn 0.000000 0.000000 -1.000000
vn 0.831500 0.000000 0.555600
vn 0.997900 0.000000 0.065400
usemtl Stone.230
s 1
f 5/1/1 6/2/1 7/3/1 10/4/1
f 5/1/1 1/5/1 6/2/1
f 10/4/2 16/6/2 11/7/2 5/8/2
f 19/9/3 9/10/3 20/11/3 18/12/3
f 22/13/4 18/14/5 21/15/5 26/16/4
f 30/17/6 4/18/6 3/19/6 14/20/6
f 8/21/7 7/22/8 28/23/8 27/24/7
f 7/25/8 6/26/9 29/27/9 28/28/8
f 6/29/9 1/30/10 4/31/10 29/32/9
f 13/33/11 25/34/12 30/35/12 14/36/11
f 25/37/12 24/38/13 31/39/13 30/40/12
f 24/41/13 23/42/14 32/43/14 31/44/13
f 23/45/14 22/46/4 26/47/4 32/48/14
f 12/49/15 13/50/15 3/51/15 2/52/15
f 10/4/1 8/53/1 9/54/1
f 5/1/1 2/55/1 1/5/1
f 7/3/1 8/53/1 10/4/1
f 12/49/15 5/4/15 11/6/15
f 3/51/15 13/50/15 14/56/15
f 2/52/15 5/4/15 12/49/15
f 20/11/3 21/57/3 18/12/3
f 19/9/3 10/4/3 9/10/3
f 19/9/3 16/6/3 10/4/3
f 27/58/6 26/59/6 21/60/6 20/10/6
f 29/61/6 4/18/6 30/17/6 31/62/6
f 32/63/6 28/64/6 29/61/6 31/62/6
f 27/58/6 28/64/6 32/63/6 26/59/6
f 9/65/16 8/66/7 27/67/7 20/68/16
f 1/69/10 2/70/17 3/71/17 4/72/10
usemtl Asphalt.190
f 15/73/2 11/7/2 16/6/2 17/74/2
f 17/4/6 22/59/6 23/63/6
f 13/50/15 12/49/15 11/6/15 15/74/15
f 17/74/3 16/6/3 19/9/3 18/12/3
f 23/63/6 15/1/6 17/4/6
f 15/1/6 25/17/6 13/20/6
f 15/1/6 23/63/6 24/62/6
f 17/4/6 18/60/6 22/59/6
f 24/62/6 25/17/6 15/1/6
