# Blender v2.75 (sub 0) OBJ File: ''
# www.blender.org
mtllib roadTile_015.mtl
o Mesh1_Group1_Model.048
v 0.000000 0.550000 -3.000000
v 0.000000 0.000000 -3.000000
v 0.000000 0.000000 0.000000
v 0.000000 0.550000 0.000000
v 0.000000 0.550000 -0.750000
v 0.000000 0.455000 -0.750000
v 0.000000 0.300000 -0.750000
v 0.000000 0.300000 -2.250000
v 0.000000 0.455000 -2.250000
v 0.000000 0.550000 -2.250000
v 3.000000 0.000000 -3.000000
v 3.000000 0.550000 -3.000000
v 3.000000 0.000000 -0.000000
v 3.000000 0.550000 0.000000
v 3.000000 0.550000 -2.250000
v 3.000000 0.455000 -2.250000
v 3.000000 0.300000 -2.250000
v 3.000000 0.300000 -0.750000
v 3.000000 0.455000 -0.750000
v 3.000000 0.550000 -0.750000
v 2.250000 0.205000 -0.750000
v 0.750000 0.205000 -0.750000
v 2.250000 0.205000 -2.250000
v 0.750000 0.205000 -2.250000
vt 0.750000 0.750000
vt 2.250000 0.750000
vt 2.250000 2.250000
vt 0.750000 2.250000
vt -2.250000 0.205000
vt -0.750000 0.205000
vt -0.000000 0.550000
vt -0.750000 2.199360
vt -0.750000 2.989930
vt -2.250000 2.989930
vt -2.250000 2.199360
vt 0.750000 0.455000
vt 0.750000 0.300000
vt 2.250000 0.300000
vt 2.250000 0.455000
vt 0.750000 0.205000
vt 2.250000 0.205000
vt 3.000000 0.550000
vt 0.750000 0.143884
vt 0.750000 -0.646686
vt 2.250000 -0.646686
vt 2.250000 0.143884
vt -2.250000 0.455000
vt -2.250000 0.300000
vt -0.750000 0.300000
vt -0.750000 0.455000
vt -3.000000 0.550000
vt -3.000000 0.455000
vt -0.000000 0.455000
vt 3.000000 0.455000
vt -3.000000 0.000000
vt 0.000000 0.000000
vt -0.000000 3.000000
vt -3.000000 3.000000
vt 3.000000 0.000000
vt 3.000000 0.750000
vt 0.000000 0.750000
vt 3.000000 2.250000
vt 3.000000 3.000000
vt 0.000000 2.250000
vt -2.250000 0.550000
vt -0.750000 0.550000
vt 0.750000 0.550000
vt 2.250000 0.550000
vn 0.160200 0.987100 0.000000
vn -0.160200 0.987100 0.000000
vn 0.000000 0.000000 -1.000000
vn -0.316200 0.948700 0.000000
vn 1.000000 0.000000 0.000000
vn 0.000000 0.000000 1.000000
vn 0.316200 0.948700 0.000000
vn -1.000000 0.000000 -0.000000
vn 0.000000 -1.000000 -0.000000
vn 0.000000 1.000000 0.000000
usemtl Alternate_Dirt.004
s 1
f 22/1/1 21/2/2 23/3/2 24/4/1
f 21/5/3 22/6/3 5/7/3
f 21/8/2 19/9/4 16/10/4 23/11/2
f 19/12/5 18/13/5 17/14/5 16/15/5
f 24/16/6 23/17/6 15/18/6
f 6/19/7 22/20/1 24/21/1 9/22/7
f 9/23/8 8/24/8 7/25/8 6/26/8
f 20/27/3 19/28/3 21/5/3
f 21/5/3 5/7/3 20/27/3
f 5/7/3 22/6/3 6/29/3
f 10/7/6 9/29/6 24/16/6
f 24/16/6 15/18/6 10/7/6
f 15/18/6 23/17/6 16/30/6
usemtl Grass.025
f 2/31/8 3/32/8 7/25/8
f 3/32/9 2/33/9 11/34/9 13/31/9
f 11/35/5 12/18/5 16/15/5 17/14/5
f 13/32/5 11/35/5 17/14/5
f 14/35/10 20/36/10 5/37/10 4/32/10
f 15/38/10 12/39/10 1/33/10 10/40/10
f 9/23/8 10/41/8 1/27/8
f 1/27/8 2/31/8 8/24/8 9/23/8
f 11/31/3 2/32/3 1/7/3 12/27/3
f 4/7/8 5/42/8 6/26/8
f 7/25/8 8/24/8 2/31/8
f 19/12/5 20/43/5 14/7/5
f 14/7/5 13/32/5 18/13/5 19/12/5
f 3/32/6 13/35/6 14/18/6 4/7/6
f 12/18/5 15/44/5 16/15/5
f 17/14/5 18/13/5 13/32/5
f 3/32/8 4/7/8 6/26/8 7/25/8
