# Blender v2.75 (sub 0) OBJ File: ''
# www.blender.org
mtllib roadTile_297.mtl
o Mesh1_Group1_Model.280
v 1.884150 0.600000 -2.528140
v 1.875000 0.600000 -2.625000
v 0.375000 0.600000 -2.625000
v 0.381827 0.600000 -2.326910
v 0.429783 0.600000 -2.032630
v 0.517946 0.600000 -1.747790
v 0.644626 0.600000 -1.477870
v 0.807391 0.600000 -1.228050
v 1.003120 0.600000 -1.003120
v 1.228050 0.600000 -0.807391
v 1.477870 0.600000 -0.644626
v 1.747790 0.600000 -0.517946
v 2.032630 0.600000 -0.429783
v 2.326910 0.600000 -0.381827
v 2.625000 0.600000 -0.375000
v 2.625000 0.600000 -1.875000
v 2.528140 0.600000 -1.884150
v 2.433190 0.600000 -1.905370
v 2.341650 0.600000 -1.938320
v 2.254960 0.600000 -1.982480
v 2.174490 0.600000 -2.037170
v 2.101510 0.600000 -2.101510
v 2.037170 0.600000 -2.174490
v 1.982480 0.600000 -2.254960
v 1.938320 0.600000 -2.341650
v 1.905370 0.600000 -2.433190
v 1.884150 0.630000 -2.528140
v 1.875000 0.630000 -2.625000
v 1.905370 0.630000 -2.433190
v 1.938320 0.630000 -2.341650
v 1.982480 0.630000 -2.254960
v 2.037170 0.630000 -2.174490
v 2.101510 0.630000 -2.101510
v 2.174490 0.630000 -2.037170
v 2.254960 0.630000 -1.982480
v 2.341650 0.630000 -1.938320
v 2.433190 0.630000 -1.905370
v 2.528140 0.630000 -1.884150
v 2.625000 0.630000 -1.875000
v 2.625000 0.000000 0.000000
v 2.625000 0.000000 -2.250000
v 2.625000 0.630000 -2.250000
v 2.625000 0.300000 -1.875000
v 2.625000 0.300000 -0.375000
v 2.625000 0.630000 -0.375000
v 2.625000 0.630000 0.000000
v 0.000000 0.000000 -2.625000
v 2.250000 0.000000 -2.625000
v 2.253210 0.000000 -2.576050
v 2.262780 0.000000 -2.527940
v 2.278550 0.000000 -2.481490
v 2.300240 0.000000 -2.437500
v 2.327490 0.000000 -2.396710
v 2.359830 0.000000 -2.359830
v 2.396710 0.000000 -2.327490
v 2.437500 0.000000 -2.300240
v 2.481490 0.000000 -2.278550
v 2.527940 0.000000 -2.262780
v 2.576050 0.000000 -2.253210
v 2.282370 0.000000 -0.022457
v 1.945600 0.000000 -0.089445
v 1.620460 0.000000 -0.199816
v 1.312500 0.000000 -0.351683
v 1.027000 0.000000 -0.542447
v 0.768845 0.000000 -0.768845
v 0.542447 0.000000 -1.027000
v 0.351683 0.000000 -1.312500
v 0.199816 0.000000 -1.620460
v 0.089445 0.000000 -1.945600
v 0.022457 0.000000 -2.282370
v 0.000000 0.630000 -2.625000
v 0.375000 0.630000 -2.625000
v 0.375000 0.300000 -2.625000
v 1.875000 0.300000 -2.625000
v 2.250000 0.630000 -2.625000
v 0.022457 0.630000 -2.282370
v 0.089445 0.630000 -1.945600
v 0.199816 0.630000 -1.620460
v 0.351683 0.630000 -1.312500
v 0.542447 0.630000 -1.027000
v 0.768845 0.630000 -0.768845
v 1.027000 0.630000 -0.542447
v 1.312500 0.630000 -0.351683
v 1.620460 0.630000 -0.199816
v 1.945600 0.630000 -0.089445
v 2.282370 0.630000 -0.022457
v 2.326910 0.630000 -0.381827
v 2.032630 0.630000 -0.429783
v 1.747790 0.630000 -0.517946
v 1.477870 0.630000 -0.644626
v 1.228050 0.630000 -0.807391
v 1.003120 0.630000 -1.003120
v 0.807391 0.630000 -1.228050
v 0.644626 0.630000 -1.477870
v 0.517946 0.630000 -1.747790
v 0.429783 0.630000 -2.032630
v 0.381827 0.630000 -2.326910
v 2.576050 0.630000 -2.253210
v 2.527940 0.630000 -2.262780
v 2.481490 0.630000 -2.278550
v 2.437500 0.630000 -2.300240
v 2.396710 0.630000 -2.327490
v 2.359830 0.630000 -2.359830
v 2.327490 0.630000 -2.396710
v 2.300240 0.630000 -2.437500
v 2.278550 0.630000 -2.481490
v 2.262780 0.630000 -2.527940
v 2.253210 0.630000 -2.576050
vt -2.056400 0.600000
vt -1.959110 0.600000
vt -1.959110 0.630000
vt -2.056400 0.630000
vt -1.644060 0.600000
vt -1.546770 0.600000
vt -1.546770 0.630000
vt -1.644060 0.630000
vt -1.206550 0.600000
vt -1.109260 0.600000
vt -1.109260 0.630000
vt -1.206550 0.630000
vt -0.750776 0.600000
vt -0.653484 0.600000
vt -0.653484 0.630000
vt -0.750776 0.630000
vt -0.283926 0.600000
vt -0.186634 0.600000
vt -0.186634 0.630000
vt -0.283926 0.630000
vt 0.186634 0.600000
vt 0.283926 0.600000
vt 0.283926 0.630000
vt 0.186634 0.630000
vt 0.653484 0.600000
vt 0.750776 0.600000
vt 0.750776 0.630000
vt 0.653484 0.630000
vt 1.109260 0.600000
vt 1.206550 0.600000
vt 1.206550 0.630000
vt 1.109260 0.630000
vt 1.546770 0.600000
vt 1.644060 0.600000
vt 1.644060 0.630000
vt 1.546770 0.630000
vt 1.959110 0.600000
vt 2.056400 0.600000
vt 2.056400 0.630000
vt 1.959110 0.630000
vt 2.339780 0.600000
vt 2.437070 0.600000
vt 2.437070 0.630000
vt 2.339780 0.630000
vt 0.375000 0.300000
vt 0.375000 0.600000
vt 0.000000 0.630000
vt 0.000000 0.000000
vt 2.250000 0.000000
vt 1.875000 0.300000
vt -2.250000 0.000000
vt -0.375000 0.300000
vt 2.282370 0.022457
vt 2.625000 0.000000
vt 2.625000 0.375000
vt 2.326910 0.381827
vt -1.470230 0.630000
vt -1.813600 0.630000
vt -1.813600 0.000000
vt -1.470230 0.000000
vt -1.021600 0.630000
vt -1.364970 0.630000
vt -1.364970 0.000000
vt -1.021600 0.000000
vt -0.552553 0.630000
vt -0.895919 0.630000
vt -0.895919 0.000000
vt -0.552553 0.000000
vt -0.071113 0.630000
vt -0.414480 0.630000
vt -0.414480 0.000000
vt -0.071113 0.000000
vt 0.414480 0.630000
vt 0.071113 0.630000
vt 0.071113 0.000000
vt 0.414480 0.000000
vt 0.895919 0.630000
vt 0.552553 0.630000
vt 0.552553 0.000000
vt 0.895919 0.000000
vt 1.364970 0.630000
vt 1.021600 0.630000
vt 1.021600 0.000000
vt 1.364970 0.000000
vt 1.813600 0.630000
vt 1.470230 0.630000
vt 1.470230 0.000000
vt 1.813600 0.000000
vt 2.234130 0.630000
vt 1.890770 0.630000
vt 1.890770 -0.000000
vt 2.234130 -0.000000
vt 2.619380 0.630000
vt 2.276010 0.630000
vt 2.276010 0.000000
vt 2.619380 0.000000
vt -2.615720 0.600000
vt -2.317560 0.600000
vt -2.317560 0.630000
vt -2.615720 0.630000
vt -2.235210 0.600000
vt -1.937040 0.600000
vt -1.937040 0.630000
vt -2.235210 0.630000
vt -1.814660 0.600000
vt -1.516490 0.600000
vt -1.516490 0.630000
vt -1.814660 0.630000
vt -1.362150 0.600000
vt -1.063980 0.600000
vt -1.063980 0.630000
vt -1.362150 0.630000
vt -0.886360 0.600000
vt -0.588193 0.600000
vt -0.588193 0.630000
vt -0.886360 0.630000
vt -0.396424 0.600000
vt -0.098257 0.600000
vt -0.098257 0.630000
vt -0.396424 0.630000
vt 0.098257 0.600000
vt 0.396424 0.600000
vt 0.396424 0.630000
vt 0.098257 0.630000
vt 0.588193 0.600000
vt 0.886360 0.600000
vt 0.886360 0.630000
vt 0.588193 0.630000
vt 1.063980 0.600000
vt 1.362150 0.600000
vt 1.362150 0.630000
vt 1.063980 0.630000
vt 1.516490 0.600000
vt 1.814660 0.600000
vt 1.814660 0.630000
vt 1.516490 0.630000
vt 1.937040 0.600000
vt 2.235210 0.600000
vt 2.235210 0.630000
vt 1.937040 0.630000
vt 2.317560 0.600000
vt 2.615720 0.600000
vt 2.615720 0.630000
vt 2.317560 0.630000
vt 2.625000 2.250000
vt 2.576050 2.253210
vt 2.528140 1.884150
vt 2.625000 1.875000
vt -2.037920 0.630000
vt -2.086980 0.630000
vt -2.086980 0.000000
vt -2.037920 0.000000
vt -1.617390 0.630000
vt -1.666440 0.630000
vt -1.666440 0.000000
vt -1.617390 0.000000
vt -1.168760 0.630000
vt -1.217810 0.630000
vt -1.217810 0.000000
vt -1.168760 0.000000
vt -0.699710 0.630000
vt -0.748762 0.630000
vt -0.748762 0.000000
vt -0.699710 0.000000
vt -0.218271 0.630000
vt -0.267323 0.630000
vt -0.267323 0.000000
vt -0.218271 0.000000
vt 0.267323 0.630000
vt 0.218271 0.630000
vt 0.218271 0.000000
vt 0.267323 0.000000
vt 0.748762 0.630000
vt 0.699710 0.630000
vt 0.699710 0.000000
vt 0.748762 0.000000
vt 1.217810 0.630000
vt 1.168760 0.630000
vt 1.168760 0.000000
vt 1.217810 0.000000
vt 1.666440 0.630000
vt 1.617390 0.630000
vt 1.617390 0.000000
vt 1.666440 0.000000
vt 2.086980 0.630000
vt 2.037920 0.630000
vt 2.037920 0.000000
vt 2.086980 0.000000
vt 2.472220 0.630000
vt 2.423170 0.630000
vt 2.423170 0.000000
vt 2.472220 0.000000
vt -2.437070 0.600000
vt -2.339780 0.600000
vt -2.339780 0.630000
vt -2.437070 0.630000
vt 2.250000 0.630000
vt 1.875000 0.600000
vt 0.375000 0.630000
vt -0.000000 2.625000
vt -2.250000 2.625000
vt -2.253210 2.576050
vt -0.022457 2.282370
vt 1.875000 0.630000
vt -2.262780 2.527940
vt -2.278550 2.481490
vt -0.199816 1.620460
vt -0.089445 1.945600
vt -0.351683 1.312500
vt -2.300240 2.437500
vt -2.327490 2.396710
vt -0.542447 1.027000
vt -2.359830 2.359830
vt -2.396710 2.327490
vt -1.027000 0.542447
vt -0.768845 0.768845
vt -2.437500 2.300240
vt -1.312500 0.351683
vt -2.481490 2.278550
vt -1.620460 0.199816
vt -2.282370 0.022457
vt -2.576050 2.253210
vt -2.625000 2.250000
vt -2.625000 0.000000
vt -1.945600 0.089445
vt -2.527940 2.262780
vt -1.875000 0.300000
vt -1.875000 0.600000
vt -2.250000 0.630000
vt -0.375000 0.600000
vt -1.875000 0.630000
vt -2.276010 0.630000
vt -2.619380 0.630000
vt -2.619380 0.000000
vt -2.276010 0.000000
vt -0.375000 0.630000
vt 0.022457 2.282370
vt 0.381827 2.326910
vt 0.375000 2.625000
vt 1.945600 0.089445
vt 2.032630 0.429783
vt 1.747790 0.517946
vt 1.620460 0.199816
vt 0.089445 1.945600
vt 0.429783 2.032630
vt 1.312500 0.351683
vt 1.477870 0.644626
vt 0.199816 1.620460
vt 0.517946 1.747790
vt 1.027000 0.542447
vt 1.228050 0.807391
vt 0.644626 1.477870
vt 0.351683 1.312500
vt 0.768845 0.768845
vt 1.003120 1.003120
vt 0.542447 1.027000
vt 0.807391 1.228050
vt -1.890770 0.630000
vt -2.234130 0.630000
vt -2.234130 0.000000
vt -1.890770 0.000000
vt 2.527940 2.262780
vt 2.481490 2.278550
vt 2.341650 1.938320
vt 2.433190 1.905370
vt 2.437500 2.300240
vt 2.396710 2.327490
vt 2.174490 2.037170
vt 2.254960 1.982480
vt 2.037170 2.174490
vt 2.101510 2.101510
vt 2.359830 2.359830
vt 2.327490 2.396710
vt 2.300240 2.437500
vt 1.982480 2.254960
vt 1.938320 2.341650
vt 2.278550 2.481490
vt 2.262780 2.527940
vt 1.905370 2.433190
vt 1.884150 2.528140
vt 2.253210 2.576050
vt 2.250000 2.625000
vt 1.875000 2.625000
vt -2.423170 0.630000
vt -2.472220 0.630000
vt -2.472220 0.000000
vt -2.423170 0.000000
vn -0.987700 0.000000 0.156400
vn -0.960300 0.000000 0.278900
vn -0.917800 0.000000 0.397100
vn -0.860800 0.000000 0.509000
vn -0.790100 0.000000 0.612900
vn -0.707100 0.000000 0.707100
vn -0.612900 0.000000 0.790100
vn -0.509000 0.000000 0.860800
vn -0.397100 0.000000 0.917800
vn -0.278900 0.000000 0.960300
vn -0.156400 0.000000 0.987700
vn -0.094000 0.000000 0.995600
vn 1.000000 0.000000 0.000000
vn 0.000000 0.000000 -1.000000
vn 0.000000 1.000000 0.000000
vn -0.923900 0.000000 0.382700
vn -0.965900 0.000000 0.258800
vn -0.866000 0.000000 0.500000
vn -0.793400 0.000000 0.608800
vn -0.608800 0.000000 0.793400
vn -0.500000 0.000000 0.866000
vn -0.382700 -0.000000 0.923900
vn -0.258800 -0.000000 0.965900
vn -0.130500 -0.000000 0.991400
vn -0.065400 -0.000000 0.997900
vn 0.022900 0.000000 -0.999700
vn 0.092100 0.000000 -0.995800
vn 0.228800 0.000000 -0.973500
vn 0.361100 0.000000 -0.932500
vn 0.486500 0.000000 -0.873700
vn 0.602600 0.000000 -0.798000
vn 0.707100 0.000000 -0.707100
vn 0.798000 0.000000 -0.602600
vn 0.873700 0.000000 -0.486500
vn 0.932500 0.000000 -0.361100
vn 0.973500 0.000000 -0.228800
vn 0.995800 0.000000 -0.092100
vn 0.999700 0.000000 -0.022900
vn 0.258800 0.000000 -0.965900
vn 0.130500 0.000000 -0.991400
vn 0.382700 0.000000 -0.923900
vn 0.499900 0.000000 -0.866100
vn 0.608700 0.000000 -0.793400
vn 0.793400 0.000000 -0.608700
vn 0.866100 0.000000 -0.499900
vn 0.923900 0.000000 -0.382700
vn 0.965900 0.000000 -0.258800
vn 0.991400 0.000000 -0.130500
vn 0.997900 0.000000 -0.065400
vn -0.995600 0.000000 0.094000
vn 0.000000 -1.000000 -0.000000
vn -0.991400 0.000000 0.130500
vn -0.997900 0.000000 0.065400
vn 0.065400 0.000000 -0.997900
usemtl Stone.243
s 1
f 1/1/1 26/2/2 29/3/2 27/4/1
f 26/5/2 25/6/3 30/7/3 29/8/2
f 25/9/3 24/10/4 31/11/4 30/12/3
f 24/13/4 23/14/5 32/15/5 31/16/4
f 23/17/5 22/18/6 33/19/6 32/20/5
f 22/21/6 21/22/7 34/23/7 33/24/6
f 21/25/7 20/26/8 35/27/8 34/28/7
f 20/29/8 19/30/9 36/31/9 35/32/8
f 19/33/9 18/34/10 37/35/10 36/36/9
f 18/37/10 17/38/11 38/39/11 37/40/10
f 17/41/11 16/42/12 39/43/12 38/44/11
f 44/45/13 15/46/13 46/47/13 40/48/13
f 40/48/13 41/49/13 43/50/13
f 48/51/14 47/48/14 73/52/14
f 86/53/15 46/54/15 45/55/15 87/56/15
f 78/57/16 77/58/17 69/59/17 68/60/16
f 79/61/18 78/62/16 68/63/16 67/64/18
f 80/65/19 79/66/18 67/67/18 66/68/19
f 81/69/6 80/70/19 66/71/19 65/72/6
f 82/73/20 81/74/6 65/75/6 64/76/20
f 83/77/21 82/78/20 64/79/20 63/80/21
f 84/81/22 83/82/21 63/83/21 62/84/22
f 85/85/23 84/86/22 62/87/22 61/88/23
f 86/89/24 85/90/23 61/91/23 60/92/24
f 46/93/25 86/94/24 60/95/24 40/96/25
f 15/97/26 14/98/27 87/99/27 45/100/26
f 14/101/27 13/102/28 88/103/28 87/104/27
f 13/105/28 12/106/29 89/107/29 88/108/28
f 12/109/29 11/110/30 90/111/30 89/112/29
f 11/113/30 10/114/31 91/115/31 90/116/30
f 10/117/31 9/118/32 92/119/32 91/120/31
f 9/121/32 8/122/33 93/123/33 92/124/32
f 8/125/33 7/126/34 94/127/34 93/128/33
f 7/129/34 6/130/35 95/131/35 94/132/34
f 6/133/35 5/134/36 96/135/36 95/136/35
f 5/137/36 4/138/37 97/139/37 96/140/36
f 4/141/37 3/142/38 72/143/38 97/144/37
f 42/145/15 98/146/15 38/147/15 39/148/15
f 99/149/39 98/150/40 59/151/40 58/152/39
f 100/153/41 99/154/39 58/155/39 57/156/41
f 101/157/42 100/158/41 57/159/41 56/160/42
f 102/161/43 101/162/42 56/163/42 55/164/43
f 103/165/32 102/166/43 55/167/43 54/168/32
f 104/169/44 103/170/32 54/171/32 53/172/44
f 105/173/45 104/174/44 53/175/44 52/176/45
f 106/177/46 105/178/45 52/179/45 51/180/46
f 107/181/47 106/182/46 51/183/46 50/184/47
f 108/185/48 107/186/47 50/187/47 49/188/48
f 75/189/49 108/190/48 49/191/48 48/192/49
f 2/193/50 1/194/1 27/195/1 28/196/50
f 41/49/13 42/197/13 16/198/13 43/50/13
f 46/47/13 15/46/13 45/199/13
f 47/200/51 48/201/51 49/202/51 70/203/51
f 42/197/13 39/204/13 16/198/13
f 43/50/13 44/45/13 40/48/13
f 50/205/51 51/206/51 68/207/51 69/208/51
f 67/209/51 52/210/51 53/211/51 66/212/51
f 54/213/51 55/214/51 64/215/51 65/216/51
f 55/214/51 56/217/51 63/218/51 64/215/51
f 56/217/51 57/219/51 62/220/51 63/218/51
f 60/221/51 59/222/51 41/223/51 40/224/51
f 50/205/51 69/208/51 70/203/51 49/202/51
f 60/221/51 61/225/51 58/226/51 59/222/51
f 52/210/51 67/209/51 68/207/51 51/206/51
f 57/219/51 58/226/51 61/225/51 62/220/51
f 54/213/51 65/216/51 66/212/51 53/211/51
f 74/227/14 2/228/14 75/229/14 48/51/14
f 47/48/14 71/47/14 3/230/14 73/52/14
f 75/229/14 2/228/14 28/231/14
f 76/232/52 71/233/53 47/234/53 70/235/52
f 71/47/14 72/236/14 3/230/14
f 73/52/14 74/227/14 48/51/14
f 76/237/15 97/238/15 72/239/15 71/200/15
f 85/240/15 86/53/15 87/56/15 88/241/15
f 89/242/15 84/243/15 85/240/15 88/241/15
f 76/237/15 77/244/15 96/245/15 97/238/15
f 83/246/15 84/243/15 89/242/15 90/247/15
f 77/244/15 78/248/15 95/249/15 96/245/15
f 82/250/15 83/246/15 90/247/15 91/251/15
f 94/252/15 95/249/15 78/248/15 79/253/15
f 81/254/15 82/250/15 91/251/15 92/255/15
f 80/256/15 93/257/15 94/252/15 79/253/15
f 93/257/15 80/256/15 81/254/15 92/255/15
f 77/258/17 76/259/52 70/260/52 69/261/17
f 99/262/15 100/263/15 36/264/15 37/265/15
f 101/266/15 102/267/15 34/268/15 35/269/15
f 32/270/15 33/271/15 103/272/15 104/273/15
f 32/270/15 104/273/15 105/274/15 31/275/15
f 30/276/15 106/277/15 107/278/15 29/279/15
f 27/280/15 108/281/15 75/282/15 28/283/15
f 37/265/15 38/147/15 98/146/15 99/262/15
f 29/279/15 107/278/15 108/281/15 27/280/15
f 35/269/15 36/264/15 100/263/15 101/266/15
f 105/274/15 106/277/15 30/276/15 31/275/15
f 33/271/15 34/268/15 102/267/15 103/272/15
f 98/284/40 42/285/54 41/286/54 59/287/40
usemtl Asphalt.199
f 2/228/14 74/227/14 73/52/14 3/230/14
f 15/46/13 44/45/13 43/50/13 16/198/13
f 4/238/15 1/280/15 2/283/15 3/239/15
f 18/265/15 13/241/15 14/56/15 17/147/15
f 19/264/15 12/242/15 13/241/15 18/265/15
f 4/238/15 5/245/15 26/279/15 1/280/15
f 20/269/15 11/247/15 12/242/15 19/264/15
f 21/268/15 10/251/15 11/247/15 20/269/15
f 5/245/15 6/249/15 25/276/15 26/279/15
f 22/271/15 9/255/15 10/251/15 21/268/15
f 24/275/15 25/276/15 6/249/15 7/252/15
f 23/270/15 24/275/15 7/252/15 8/257/15
f 22/271/15 23/270/15 8/257/15 9/255/15
f 17/147/15 14/56/15 15/55/15 16/148/15
