# Blender v2.75 (sub 0) OBJ File: ''
# www.blender.org
mtllib roadTile_169.mtl
o Mesh1_Group1_Model.056
v 3.000000 0.000000 -0.000000
v 3.000000 0.000000 -0.750000
v 3.000000 1.650000 -0.750000
v 3.000000 1.650000 0.000000
v 0.000000 0.000000 0.000000
v 0.000000 0.000000 -3.000000
v 3.000000 0.000000 -3.000000
v 3.000000 0.000000 -2.250000
v 0.000000 1.650000 0.000000
v 0.000000 1.650000 -3.000000
v 3.000000 1.650000 -2.250000
v 3.000000 1.650000 -3.000000
vt 0.750000 0.000000
vt 2.250000 0.000000
vt 2.250000 1.650000
vt 0.750000 1.650000
vt 0.000000 3.000000
vt -3.000000 2.250000
vt -3.000000 0.750000
vt -0.000000 -0.000000
vt -3.000000 0.000000
vt 0.000000 1.650000
vt -3.000000 1.650000
vt 3.000000 0.750000
vt 3.000000 2.250000
vt 3.000000 1.650000
vt 3.000000 0.000000
vt -3.000000 3.000000
vt 3.000000 3.000000
vn 1.000000 0.000000 0.000000
vn 0.000000 -1.000000 -0.000000
vn -1.000000 -0.000000 0.000000
vn 0.000000 1.000000 0.000000
vn 0.000000 0.000000 -1.000000
vn 0.000000 -0.000000 1.000000
usemtl Water
s 1
f 2/1/1 8/2/1 11/3/1 3/4/1
usemtl Grass
f 6/5/2 8/6/2 2/7/2 5/8/2
f 6/9/3 5/8/3 9/10/3 10/11/3
f 10/5/4 9/8/4 3/12/4 11/13/4
f 12/14/1 11/3/1 8/2/1 7/15/1
f 12/11/5 7/9/5 6/8/5 10/10/5
f 5/8/2 2/7/2 1/9/2
f 6/5/2 7/16/2 8/6/2
f 9/10/6 5/8/6 1/15/6 4/14/6
f 11/13/4 12/17/4 10/5/4
f 3/12/4 9/8/4 4/15/4
f 1/8/1 2/1/1 3/4/1 4/10/1
