# Blender v2.75 (sub 0) OBJ File: ''
# www.blender.org
mtllib roadTile_056.mtl
o Mesh1_Group1_Model.114
v 0.000000 0.600000 0.000000
v 0.000000 0.600000 -2.250000
v 0.000000 0.300000 -2.250000
v 0.000000 0.300000 0.000000
v 3.000000 0.600000 -3.000000
v 0.750000 0.600000 -3.000000
v 0.750000 0.600000 -2.250000
v 3.000000 0.600000 0.000000
v 3.000000 0.300000 -3.000000
v 0.750000 0.300000 -3.000000
v 3.000000 0.000000 -3.000000
v 0.375000 0.000000 -3.000000
v 0.375000 0.550000 -3.000000
v 0.375000 0.630000 -3.000000
v 0.750000 0.630000 -3.000000
v 3.000000 0.000000 0.000000
v 0.000000 0.000000 -0.000000
v 0.000000 0.000000 -2.625000
v 0.000000 0.000000 -3.000000
v 3.000000 0.300000 0.000000
v 0.000000 0.630000 -2.625000
v 0.000000 0.550000 -2.625000
v 0.000000 0.630000 -2.250000
v 0.375000 0.630000 -2.625000
v 0.375000 0.550000 -2.625000
v 0.750000 0.630000 -2.250000
v 0.000000 0.550000 -3.000000
vt -0.375000 0.000000
vt -0.375000 0.550000
vt -0.750000 0.600000
vt -0.750000 0.300000
vt 3.000000 0.300000
vt 0.000000 0.300000
vt -0.000000 0.000000
vt 3.000000 0.000000
vt -2.625000 0.550000
vt -2.250000 0.600000
vt -2.250000 0.630000
vt -2.625000 0.630000
vt -0.000000 0.600000
vt 0.750000 0.600000
vt 0.750000 0.630000
vt -0.000000 0.630000
vt 0.000000 2.250000
vt 0.750000 2.250000
vt 0.375000 2.625000
vt 2.250000 0.600000
vt 3.000000 0.600000
vt 3.000000 0.630000
vt 2.250000 0.630000
vt -3.000000 0.630000
vt -3.000000 0.550000
vt -3.000000 0.300000
vt -3.000000 0.000000
vt -0.375000 0.630000
vt -0.750000 0.630000
vt -2.625000 0.000000
vt -2.250000 0.300000
vt 0.000000 0.550000
vt 0.000000 2.625000
vt 0.750000 3.000000
vt 0.375000 3.000000
vt -0.375000 3.000000
vt 0.000000 3.000000
vt -3.000000 3.000000
vt 3.000000 3.000000
vt -3.000000 0.600000
vn 0.000000 0.000000 -1.000000
vn -0.000000 -0.000000 1.000000
vn -1.000000 0.000000 -0.000000
vn 0.000000 1.000000 0.000000
vn 1.000000 0.000000 0.000000
vn -0.000000 -1.000000 -0.000000
usemtl Stone
s 1
f 12/1/1 13/2/1 6/3/1 10/4/1
f 20/5/2 4/6/2 17/7/2 16/8/2
f 22/9/3 2/10/3 23/11/3 21/12/3
f 2/13/2 7/14/2 26/15/2 23/16/2
f 23/17/4 26/18/4 24/19/4
f 7/20/5 6/21/5 15/22/5 26/23/5
f 24/12/3 14/24/3 13/25/3 25/9/3
f 10/4/1 9/26/1 11/27/1
f 6/3/1 13/2/1 14/28/1 15/29/1
f 11/8/5 9/5/5 20/6/5 16/7/5
f 10/4/1 11/27/1 12/1/1
f 2/10/3 22/9/3 18/30/3 3/31/3
f 17/7/3 4/6/3 3/31/3
f 21/16/1 24/28/1 25/2/1 22/32/1
f 18/30/3 17/7/3 3/31/3
f 24/19/4 21/33/4 23/17/4
f 15/34/4 14/35/4 24/19/4
f 24/19/4 26/18/4 15/34/4
usemtl Grass
f 12/36/6 16/27/6 18/33/6
f 27/37/4 22/33/4 25/19/4 13/35/4
f 19/27/3 18/30/3 22/9/3 27/25/3
f 27/32/1 13/2/1 12/1/1 19/7/1
f 16/27/6 12/36/6 11/38/6
f 16/27/6 17/7/6 18/33/6
f 18/33/6 19/37/6 12/36/6
usemtl Asphalt
f 7/18/4 1/7/4 8/8/4 5/39/4
f 8/13/5 20/6/5 9/5/5 5/21/5
f 1/13/2 4/6/2 20/5/2 8/21/2
f 9/26/1 10/4/1 6/3/1 5/40/1
f 7/18/4 2/17/4 1/7/4
f 5/39/4 6/34/4 7/18/4
f 1/13/3 2/10/3 3/31/3 4/6/3
