# Blender v2.75 (sub 0) OBJ File: ''
# www.blender.org
mtllib roadTile_269.mtl
o Mesh1_Group1_Model.289
v 3.000000 0.630000 0.000000
v 3.000000 0.000000 -0.000000
v 3.000000 0.000000 -3.000000
v 3.000000 0.630000 -3.000000
v 3.000000 0.630000 -2.250000
v 3.000000 0.600000 -2.250000
v 3.000000 0.300000 -2.250000
v 3.000000 0.300000 -0.750000
v 3.000000 0.600000 -0.750000
v 3.000000 0.630000 -0.750000
v 0.000000 0.000000 0.000000
v 0.000000 0.630000 0.000000
v 0.000000 0.000000 -3.000000
v 0.000000 0.630000 -3.000000
v 0.000000 0.630000 -0.750000
v 0.000000 0.600000 -0.750000
v 0.000000 0.300000 -0.750000
v 0.000000 0.300000 -2.250000
v 0.000000 0.600000 -2.250000
v 0.000000 0.630000 -2.250000
vt 0.000000 0.000000
vt 3.000000 0.000000
vt 2.250000 0.300000
vt -0.000000 3.000000
vt -3.000000 3.000000
vt -3.000000 0.000000
vt 0.000000 0.630000
vt -0.750000 0.600000
vt -0.750000 0.300000
vt 3.000000 2.250000
vt 3.000000 3.000000
vt 0.000000 2.250000
vt 0.000000 0.600000
vt 3.000000 0.600000
vt 3.000000 0.630000
vt -3.000000 0.600000
vt -3.000000 0.630000
vt 0.000000 0.750000
vt 3.000000 0.750000
vt 0.750000 0.600000
vt 0.750000 0.630000
vt 0.750000 0.300000
vt 2.250000 0.630000
vt 2.250000 0.600000
vt -2.250000 0.600000
vt -2.250000 0.630000
vt -2.250000 0.300000
vt -0.750000 0.630000
vn 1.000000 0.000000 0.000000
vn 0.000000 -1.000000 -0.000000
vn -1.000000 0.000000 -0.000000
vn 0.000000 1.000000 0.000000
vn 0.000000 0.000000 1.000000
vn 0.000000 0.000000 -1.000000
usemtl Stone
s 1
f 2/1/1 3/2/1 7/3/1
f 11/1/2 13/4/2 3/5/2 2/6/2
f 11/1/3 12/7/3 16/8/3 17/9/3
f 13/6/3 11/1/3 17/9/3
f 5/10/4 4/11/4 14/4/4 20/12/4
f 19/13/5 6/14/5 5/15/5 20/7/5
f 9/16/6 16/13/6 15/7/6 10/17/6
f 15/18/4 12/1/4 1/2/4 10/19/4
f 9/20/1 10/21/1 1/7/1
f 1/7/1 2/1/1 8/22/1 9/20/1
f 11/1/5 2/2/5 1/15/5 12/7/5
f 4/15/1 5/23/1 6/24/1
f 7/3/1 8/22/1 2/1/1
f 19/25/3 20/26/3 14/17/3
f 14/17/3 13/6/3 18/27/3 19/25/3
f 3/6/6 13/1/6 14/7/6 4/17/6
f 12/7/3 15/28/3 16/8/3
f 17/9/3 18/27/3 13/6/3
f 3/2/1 4/15/1 6/24/1 7/3/1
usemtl Asphalt
f 6/10/4 19/12/4 16/18/4 9/19/4
f 19/25/3 18/27/3 17/9/3 16/8/3
f 9/20/1 8/22/1 7/3/1 6/24/1
