# Blender v2.75 (sub 0) OBJ File: ''
# www.blender.org
mtllib roadTile_205.mtl
o Mesh1_Group1_Model.244
v 0.000000 0.000000 -2.250000
v 0.000000 0.000000 -0.750000
v 0.000000 0.455000 -0.750000
v 0.000000 0.455000 -2.250000
v 3.000000 0.000000 -0.000000
v 0.000000 0.000000 0.000000
v 0.000000 0.000000 -0.375000
v 0.000000 0.000000 -2.625000
v 0.000000 0.000000 -3.000000
v 3.000000 0.000000 -3.000000
v 3.000000 0.000000 -2.625000
v 3.000000 0.000000 -2.250000
v 3.000000 0.000000 -0.750000
v 3.000000 0.000000 -0.375000
v 0.000000 1.650000 0.000000
v 3.000000 1.650000 0.000000
v 0.000000 1.650000 -0.375000
v 3.000000 1.650000 -0.375000
v 3.000000 0.455000 -0.750000
v 3.000000 1.730000 -0.750000
v 3.000000 1.730000 -0.375000
v 0.000000 1.730000 -0.750000
v 0.000000 1.730000 -0.375000
v 3.000000 0.455000 -2.250000
v 3.000000 1.650000 -2.625000
v 3.000000 1.730000 -2.625000
v 3.000000 1.730000 -2.250000
v 3.000000 1.650000 -3.000000
v 0.000000 1.650000 -3.000000
v 0.000000 1.650000 -2.625000
v 0.000000 1.730000 -2.250000
v 0.000000 1.730000 -2.625000
vt 0.000000 2.250000
vt 0.000000 0.750000
vt 3.000000 0.750000
vt 3.000000 2.250000
vt 0.750000 0.000000
vt 2.250000 0.000000
vt 2.250000 0.455000
vt 0.750000 0.455000
vt -2.250000 -0.000000
vt -0.750000 -0.000000
vt -0.750000 0.455000
vt -2.250000 0.455000
vt -0.000000 0.455000
vt -0.000000 1.730000
vt -3.000000 1.730000
vt -3.000000 0.455000
vt 0.750000 1.730000
vt 0.375000 1.650000
vt 0.000000 1.650000
vt 3.000000 1.650000
vt 3.000000 1.730000
vt -0.375000 1.650000
vt -0.750000 1.730000
vt 0.000000 0.375000
vt 3.000000 0.375000
vt 2.625000 1.650000
vt 2.250000 1.730000
vt 3.000000 0.455000
vt -2.250000 1.730000
vt -2.625000 1.650000
vt 3.000000 2.625000
vt 0.000000 2.625000
vt -3.000000 1.650000
vt 0.375000 0.000000
vt 0.375000 1.730000
vt -0.375000 0.000000
vt -0.375000 1.730000
vt 2.625000 0.000000
vt 2.625000 1.730000
vt -2.625000 0.000000
vt -2.625000 1.730000
vt -3.000000 0.375000
vt -3.000000 0.000000
vt -0.000000 0.000000
vt 3.000000 0.000000
vt 0.000000 3.000000
vt 3.000000 3.000000
vt -3.000000 0.750000
vt -3.000000 2.250000
vt -3.000000 2.625000
vt -3.000000 3.000000
vn 0.000000 1.000000 0.000000
vn 1.000000 0.000000 0.000000
vn -1.000000 0.000000 0.000000
vn 0.000000 0.000000 -1.000000
vn 0.000000 -0.000000 1.000000
vn -0.000000 -1.000000 -0.000000
usemtl Water
s 1
f 4/1/1 3/2/1 19/3/1 24/4/1
f 13/5/2 12/6/2 24/7/2 19/8/2
f 1/9/3 2/10/3 3/11/3 4/12/3
usemtl Stone
f 3/13/4 22/14/4 20/15/4 19/16/4
f 19/8/2 20/17/2 18/18/2
f 17/19/5 18/20/5 21/21/5 23/14/5
f 3/11/3 17/22/3 22/23/3
f 22/2/1 23/24/1 21/25/1 20/3/1
f 24/7/2 25/26/2 27/27/2
f 24/28/5 27/21/5 31/14/5 4/13/5
f 4/12/3 31/29/3 30/30/3
f 27/4/1 26/31/1 32/32/1 31/1/1
f 25/33/4 30/19/4 32/14/4 26/15/4
f 14/34/2 13/5/2 19/8/2
f 19/8/2 18/18/2 14/34/2
f 18/18/2 20/17/2 21/35/2
f 7/36/3 3/11/3 2/10/3
f 17/22/3 23/37/3 22/23/3
f 3/11/3 7/36/3 17/22/3
f 11/38/2 24/7/2 12/6/2
f 25/26/2 26/39/2 27/27/2
f 24/7/2 11/38/2 25/26/2
f 8/40/3 1/9/3 4/12/3
f 4/12/3 30/30/3 8/40/3
f 30/30/3 31/29/3 32/41/3
usemtl Grass
f 7/24/6 14/42/6 5/43/6 6/44/6
f 15/19/3 17/22/3 7/36/3 6/44/3
f 16/45/1 18/25/1 17/24/1 15/44/1
f 5/44/2 14/34/2 18/18/2 16/19/2
f 28/20/2 25/26/2 11/38/2 10/45/2
f 29/46/1 30/32/1 25/31/1 28/47/1
f 9/43/3 8/40/3 30/30/3 29/33/3
f 28/33/4 10/43/4 9/44/4 29/19/4
f 13/48/6 2/2/6 1/1/6 12/49/6
f 11/50/6 8/32/6 9/46/6 10/51/6
f 14/42/6 7/24/6 2/2/6 13/48/6
f 11/50/6 12/49/6 1/1/6 8/32/6
f 15/19/5 6/44/5 5/45/5 16/20/5
