# Blender v2.75 (sub 0) OBJ File: ''
# www.blender.org
mtllib roadTile_103.mtl
o Mesh1_Group1_Model.094
v 3.000000 0.570000 -1.875000
v 0.000000 1.670000 -1.875000
v 0.000000 1.730000 -1.875000
v 3.000000 0.630000 -1.875000
v 3.000000 0.570000 -2.062500
v 0.000000 1.670000 -2.062500
v 3.000000 0.630000 -3.000000
v 3.000000 0.630000 -2.062500
v 3.000000 0.630000 -1.125000
v 3.000000 0.570000 -1.125000
v 3.000000 0.570000 -0.937500
v 3.000000 0.630000 -0.937500
v 3.000000 0.630000 0.000000
v 3.000000 0.000000 -0.000000
v 3.000000 0.000000 -3.000000
v 0.000000 1.730000 -3.000000
v 0.000000 1.730000 -2.062500
v 0.000000 1.730000 0.000000
v 0.000000 1.730000 -0.937500
v 0.000000 1.670000 -0.937500
v 0.000000 1.670000 -1.125000
v 0.000000 1.730000 -1.125000
v 0.000000 0.000000 -3.000000
v 0.000000 0.000000 0.000000
vt 3.000000 0.630000
vt 2.062500 0.630000
vt 2.062500 0.570000
vt 3.000000 -0.000000
vt 1.875000 0.570000
vt 0.000000 -0.000000
vt -1.125000 1.670000
vt -1.125000 1.730000
vt -1.875000 1.730000
vt -1.875000 1.670000
vt 1.125000 -2.599750
vt 1.875000 -2.599750
vt 1.875000 0.595561
vt 1.125000 0.595561
vt 0.000000 1.730000
vt -3.000000 0.000000
vt 0.000000 3.000000
vt -3.000000 3.000000
vt -3.000000 0.630000
vt 0.937500 0.570000
vt 0.937500 0.630000
vt 0.000000 0.630000
vt 1.875000 0.630000
vt 1.125000 0.630000
vt 1.125000 0.570000
vt 3.000000 0.595561
vt 2.062500 0.595561
vt 2.062500 -2.599750
vt 3.000000 -2.599750
vt -0.937500 1.670000
vt -2.062500 1.670000
vt -3.000000 1.730000
vt -2.062500 1.730000
vt -0.937500 1.730000
vt 0.000000 -2.599750
vt 0.937500 -2.599750
vt 0.937500 0.595561
vt -0.000000 0.595561
vt 1.875000 0.574905
vt 1.875000 -2.620400
vt 2.062500 -2.620400
vt 2.062500 0.574905
vt -3.000000 0.570000
vt -0.000000 1.670000
vt 0.937500 0.574905
vt 0.937500 -2.620400
vt 1.125000 -2.620400
vt 1.125000 0.574905
vt 3.000000 0.570000
vn 1.000000 0.000000 0.000000
vn -1.000000 -0.000000 0.000000
vn 0.344300 0.938900 -0.000000
vn 0.000000 -0.000000 1.000000
vn 0.000000 -1.000000 -0.000000
vn -0.000000 0.000000 -1.000000
usemtl Stone.081
s 1
f 7/1/1 8/2/1 5/3/1 15/4/1
f 15/4/1 1/5/1 14/6/1
f 21/7/2 22/8/2 3/9/2 2/10/2
f 9/11/3 4/12/3 3/13/3 22/14/3
f 18/15/4 24/6/4 14/4/4 13/1/4
f 14/16/5 24/6/5 23/17/5 15/18/5
f 16/15/6 7/19/6 15/16/6 23/6/6
f 11/20/1 12/21/1 13/22/1 14/6/1
f 1/5/1 4/23/1 9/24/1 10/25/1
f 16/26/3 17/27/3 8/28/3 7/29/3
f 10/25/1 11/20/1 14/6/1
f 1/5/1 10/25/1 14/6/1
f 1/5/1 15/4/1 5/3/1
f 20/30/2 24/6/2 18/15/2
f 6/31/2 16/32/2 23/16/2
f 24/6/2 21/7/2 2/10/2 23/16/2
f 6/31/2 17/33/2 16/32/2
f 2/10/2 6/31/2 23/16/2
f 18/15/2 19/34/2 20/30/2
f 13/35/3 12/36/3 19/37/3 18/38/3
f 21/7/2 24/6/2 20/30/2
usemtl Grey_Asphalt.006
f 2/39/3 1/40/3 5/41/3 6/42/3
f 11/43/6 20/44/6 19/15/6 12/19/6
f 20/45/3 11/46/3 10/47/3 21/48/3
f 22/15/4 21/44/4 10/49/4 9/1/4
f 17/15/4 6/44/4 5/49/4 8/1/4
f 1/43/6 2/44/6 3/15/6 4/19/6
