# Blender v2.75 (sub 0) OBJ File: ''
# www.blender.org
mtllib roadTile_173.mtl
o Mesh1_Group1_Model.294
v 2.250000 0.550000 0.000000
v 2.250000 0.455000 0.000000
v 2.250000 0.000000 -0.000000
v 3.000000 0.000000 -0.000000
v 3.000000 0.550000 0.000000
v 2.256420 0.550000 -0.097895
v 2.256420 0.455000 -0.097895
v 3.000000 0.550000 -0.750000
v 2.902110 0.550000 -0.743584
v 2.805890 0.550000 -0.724444
v 2.712990 0.550000 -0.692910
v 2.625000 0.550000 -0.649519
v 2.543430 0.550000 -0.595015
v 2.469670 0.550000 -0.530330
v 2.404980 0.550000 -0.456571
v 2.350480 0.550000 -0.375000
v 2.307090 0.550000 -0.287013
v 2.275560 0.550000 -0.194114
v 3.000000 0.000000 -0.750000
v 3.000000 0.455000 -0.750000
v 0.750000 0.000000 0.000000
v 0.000000 0.000000 -0.000000
v 0.000000 0.000000 -0.750000
v 0.000000 0.000000 -2.250000
v 0.000000 0.000000 -3.000000
v 0.750000 0.000000 -3.000000
v 2.250000 0.000000 -3.000000
v 3.000000 0.000000 -3.000000
v 3.000000 0.000000 -2.250000
v 0.750000 0.455000 0.000000
v 0.750000 0.550000 0.000000
v 0.000000 0.550000 0.000000
v 0.097895 0.455000 -2.256420
v 0.000000 0.455000 -2.250000
v 0.000000 0.455000 -0.750000
v 0.097895 0.455000 -0.743584
v 0.194114 0.455000 -0.724444
v 0.287013 0.455000 -0.692910
v 0.375000 0.455000 -0.649519
v 0.456571 0.455000 -0.595015
v 0.530330 0.455000 -0.530330
v 0.595015 0.455000 -0.456571
v 0.649519 0.455000 -0.375000
v 0.692910 0.455000 -0.287013
v 0.724444 0.455000 -0.194114
v 0.743584 0.455000 -0.097895
v 2.275560 0.455000 -0.194114
v 2.307090 0.455000 -0.287013
v 2.350480 0.455000 -0.375000
v 2.404980 0.455000 -0.456571
v 2.469670 0.455000 -0.530330
v 2.543430 0.455000 -0.595015
v 2.625000 0.455000 -0.649519
v 2.712990 0.455000 -0.692910
v 2.805890 0.455000 -0.724444
v 2.902110 0.455000 -0.743584
v 3.000000 0.455000 -2.250000
v 2.902110 0.455000 -2.256420
v 2.805890 0.455000 -2.275560
v 2.712990 0.455000 -2.307090
v 2.625000 0.455000 -2.350480
v 2.543430 0.455000 -2.404980
v 2.469670 0.455000 -2.469670
v 2.404980 0.455000 -2.543430
v 2.350480 0.455000 -2.625000
v 2.307090 0.455000 -2.712990
v 2.275560 0.455000 -2.805890
v 2.256420 0.455000 -2.902110
v 2.250000 0.455000 -3.000000
v 0.750000 0.455000 -3.000000
v 0.743584 0.455000 -2.902110
v 0.724444 0.455000 -2.805890
v 0.692910 0.455000 -2.712990
v 0.649519 0.455000 -2.625000
v 0.595015 0.455000 -2.543430
v 0.530330 0.455000 -2.469670
v 0.456571 0.455000 -2.404980
v 0.375000 0.455000 -2.350480
v 0.287013 0.455000 -2.307090
v 0.194114 0.455000 -2.275560
v 0.097895 0.550000 -2.256420
v 0.000000 0.550000 -2.250000
v 0.000000 0.550000 -3.000000
v 0.194114 0.550000 -2.275560
v 0.287013 0.550000 -2.307090
v 0.375000 0.550000 -2.350480
v 0.456571 0.550000 -2.404980
v 0.530330 0.550000 -2.469670
v 0.595015 0.550000 -2.543430
v 0.649519 0.550000 -2.625000
v 0.692910 0.550000 -2.712990
v 0.724444 0.550000 -2.805890
v 0.743584 0.550000 -2.902110
v 0.750000 0.550000 -3.000000
v 0.000000 0.550000 -0.750000
v 0.097895 0.550000 -0.743584
v 0.743584 0.550000 -0.097895
v 0.724444 0.550000 -0.194114
v 0.692910 0.550000 -0.287013
v 0.649519 0.550000 -0.375000
v 0.595015 0.550000 -0.456571
v 0.530330 0.550000 -0.530330
v 0.456571 0.550000 -0.595015
v 0.375000 0.550000 -0.649519
v 0.287013 0.550000 -0.692910
v 0.194114 0.550000 -0.724444
v 2.250000 0.550000 -3.000000
v 3.000000 0.550000 -3.000000
v 2.256420 0.550000 -2.902110
v 2.275560 0.550000 -2.805890
v 2.307090 0.550000 -2.712990
v 2.350480 0.550000 -2.625000
v 2.404980 0.550000 -2.543430
v 2.469670 0.550000 -2.469670
v 2.543430 0.550000 -2.404980
v 2.625000 0.550000 -2.350480
v 2.712990 0.550000 -2.307090
v 2.805890 0.550000 -2.275560
v 2.902110 0.550000 -2.256420
v 3.000000 0.550000 -2.250000
vt 2.256420 2.902110
vt 2.250000 3.000000
vt 0.750000 3.000000
vt 0.743584 2.902110
vt -2.250000 0.000000
vt -0.750000 0.000000
vt -0.750000 0.455000
vt -2.250000 0.455000
vt 0.750000 0.000000
vt 2.250000 0.000000
vt 2.250000 0.455000
vt 0.750000 0.455000
vt 0.097895 0.743584
vt 0.097895 2.256420
vt 0.000000 2.250000
vt 0.000000 0.750000
vt 2.275560 2.805890
vt 0.724444 2.805890
vt 2.307090 2.712990
vt 0.692910 2.712990
vt 0.194114 0.724444
vt 0.194114 2.275560
vt 2.350480 2.625000
vt 0.649519 2.625000
vt 2.404980 2.543430
vt 0.595015 2.543430
vt 0.287013 0.692910
vt 0.287013 2.307090
vt 2.256420 0.097895
vt 0.743584 0.097895
vt 0.530330 2.469670
vt 0.375000 0.649519
vt 0.375000 2.350480
vt 2.275560 0.194114
vt 0.724444 0.194114
vt 0.456571 0.595015
vt 0.456571 2.404980
vt 2.307090 0.287013
vt 0.692910 0.287013
vt 2.902110 0.743584
vt 3.000000 0.750000
vt 3.000000 2.250000
vt 2.902110 2.256420
vt 0.530330 0.530330
vt 2.805890 0.724444
vt 2.805890 2.275560
vt 2.712990 0.692910
vt 2.712990 2.307090
vt 2.625000 0.649519
vt 2.625000 2.350480
vt 2.543430 0.595015
vt 2.543430 2.404980
vt 2.350480 0.375000
vt 0.649519 0.375000
vt 2.469670 2.469670
vt 2.404980 0.456571
vt 0.595015 0.456571
vt 2.469670 0.530330
vt 0.000000 -0.000000
vt 0.000000 0.550000
vt 3.000000 0.000000
vt -2.250000 3.000000
vt -3.000000 2.250000
vt -3.000000 0.000000
vt -3.000000 0.550000
vt 0.000000 3.000000
vt 0.049052 0.550000
vt -0.049052 0.550000
vt -0.049052 0.455000
vt 0.049052 0.455000
vt 2.991410 0.550000
vt 2.893300 0.550000
vt 2.893300 0.455000
vt 2.991410 0.455000
vt 2.889840 0.550000
vt 2.791740 0.550000
vt 2.791740 0.455000
vt 2.889840 0.455000
vt 2.739670 0.550000
vt 2.641570 0.550000
vt 2.641570 0.455000
vt 2.739670 0.455000
vt 2.543460 0.550000
vt 2.445360 0.550000
vt 2.445360 0.455000
vt 2.543460 0.455000
vt 2.304570 0.550000
vt 2.206470 0.550000
vt 2.206470 0.455000
vt 2.304570 0.455000
vt 2.027090 0.550000
vt 1.928990 0.550000
vt 1.928990 0.455000
vt 2.027090 0.455000
vt 1.715760 0.550000
vt 1.617660 0.550000
vt 1.617660 0.455000
vt 1.715760 0.455000
vt 1.375920 0.550000
vt 1.277810 0.550000
vt 1.277810 0.455000
vt 1.375920 0.455000
vt 1.013370 0.550000
vt 0.915266 0.550000
vt 0.915266 0.455000
vt 1.013370 0.455000
vt 0.634323 0.550000
vt 0.536219 0.550000
vt 0.536219 0.455000
vt 0.634323 0.455000
vt -2.308030 0.550000
vt -2.406140 0.550000
vt -2.406140 0.455000
vt -2.308030 0.455000
vt 3.000000 3.000000
vt -1.827420 0.550000
vt -1.925520 0.550000
vt -1.925520 0.455000
vt -1.827420 0.455000
vt -1.314700 0.550000
vt -1.412800 0.550000
vt -1.412800 0.455000
vt -1.314700 0.455000
vt -0.778646 0.550000
vt -0.876750 0.550000
vt -0.876750 0.455000
vt -0.778646 0.455000
vt -0.228430 0.550000
vt -0.326534 0.550000
vt -0.326534 0.455000
vt -0.228430 0.455000
vt 0.326534 0.550000
vt 0.228430 0.550000
vt 0.228430 0.455000
vt 0.326534 0.455000
vt 0.876750 0.550000
vt 0.778646 0.550000
vt 0.778646 0.455000
vt 0.876750 0.455000
vt 1.412800 0.550000
vt 1.314700 0.550000
vt 1.314700 0.455000
vt 1.412800 0.455000
vt 1.925520 0.550000
vt 1.827420 0.550000
vt 1.827420 0.455000
vt 1.925520 0.455000
vt 2.406140 0.550000
vt 2.308030 0.550000
vt 2.308030 0.455000
vt 2.406140 0.455000
vt 2.846420 0.550000
vt 2.748320 0.550000
vt 2.748320 0.455000
vt 2.846420 0.455000
vt 3.000000 0.550000
vt -0.536219 0.550000
vt -0.634323 0.550000
vt -0.634323 0.455000
vt -0.536219 0.455000
vt -0.915266 0.550000
vt -1.013370 0.550000
vt -1.013370 0.455000
vt -0.915266 0.455000
vt -1.277810 0.550000
vt -1.375920 0.550000
vt -1.375920 0.455000
vt -1.277810 0.455000
vt -1.617660 0.550000
vt -1.715760 0.550000
vt -1.715760 0.455000
vt -1.617660 0.455000
vt -1.928990 0.550000
vt -2.027090 0.550000
vt -2.027090 0.455000
vt -1.928990 0.455000
vt -2.206470 0.550000
vt -2.304570 0.550000
vt -2.304570 0.455000
vt -2.206470 0.455000
vt -2.445360 0.550000
vt -2.543460 0.550000
vt -2.543460 0.455000
vt -2.445360 0.455000
vt -2.641570 0.550000
vt -2.739670 0.550000
vt -2.739670 0.455000
vt -2.641570 0.455000
vt -2.791740 0.550000
vt -2.889840 0.550000
vt -2.889840 0.455000
vt -2.791740 0.455000
vt -2.893300 0.550000
vt -2.991410 0.550000
vt -2.991410 0.455000
vt -2.893300 0.455000
vt -2.944520 0.550000
vt -3.042630 0.550000
vt -3.042630 0.455000
vt -2.944520 0.455000
vt 2.250000 0.550000
vt -0.147157 0.550000
vt -0.245262 0.550000
vt -0.245262 0.455000
vt -0.147157 0.455000
vt 0.750000 0.550000
vt -3.000000 0.750000
vt -3.000000 3.000000
vt -0.750000 3.000000
vt 0.245262 0.550000
vt 0.147157 0.550000
vt 0.147157 0.455000
vt 0.245262 0.455000
vt -2.250000 0.550000
vt -0.750000 0.550000
vt 3.042630 0.550000
vt 2.944520 0.550000
vt 2.944520 0.455000
vt 3.042630 0.455000
vt -2.748320 0.550000
vt -2.846420 0.550000
vt -2.846420 0.455000
vt -2.748320 0.455000
vn 0.000000 1.000000 -0.000000
vn -0.000000 0.000000 -1.000000
vn -0.000000 -0.000000 1.000000
vn -1.000000 -0.000000 -0.000000
vn 1.000000 0.000000 0.000000
vn -0.000000 -1.000000 -0.000000
vn 0.991400 0.000000 -0.130500
vn 0.997900 0.000000 -0.065400
vn 0.965900 0.000000 -0.258800
vn 0.923900 0.000000 -0.382700
vn 0.866000 0.000000 -0.500000
vn 0.793400 0.000000 -0.608800
vn 0.707100 0.000000 -0.707100
vn 0.608800 0.000000 -0.793400
vn 0.500000 0.000000 -0.866000
vn 0.382700 0.000000 -0.923900
vn 0.258800 0.000000 -0.965900
vn 0.130500 0.000000 -0.991400
vn 0.991400 0.000000 0.130500
vn 0.965900 0.000000 0.258800
vn 0.923900 0.000000 0.382700
vn 0.866000 0.000000 0.500000
vn 0.793400 0.000000 0.608800
vn 0.707100 0.000000 0.707100
vn 0.608800 0.000000 0.793400
vn 0.500000 0.000000 0.866000
vn 0.382700 0.000000 0.923900
vn 0.258800 0.000000 0.965900
vn 0.130500 0.000000 0.991400
vn -0.965900 0.000000 0.258800
vn -0.991400 0.000000 0.130500
vn -0.923900 0.000000 0.382700
vn -0.866000 0.000000 0.500000
vn -0.793400 0.000000 0.608800
vn -0.707100 0.000000 0.707100
vn -0.608800 0.000000 0.793400
vn -0.500000 0.000000 0.866000
vn -0.382700 0.000000 0.923900
vn -0.258800 0.000000 0.965900
vn -0.130500 0.000000 0.991400
vn -0.065400 0.000000 0.997900
vn -0.991400 -0.000000 -0.130500
vn -0.965900 -0.000000 -0.258800
vn -0.923900 0.000000 -0.382700
vn -0.866000 0.000000 -0.500000
vn -0.793400 0.000000 -0.608800
vn -0.707100 0.000000 -0.707100
vn -0.608800 0.000000 -0.793400
vn -0.500000 0.000000 -0.866000
vn -0.382700 0.000000 -0.923900
vn -0.258800 0.000000 -0.965900
vn -0.130500 0.000000 -0.991400
vn -0.065400 0.000000 -0.997900
vn -0.997900 -0.000000 -0.065400
vn 0.065400 0.000000 0.997900
vn 0.065400 0.000000 -0.997900
vn 0.997900 0.000000 0.065400
vn -0.997900 0.000000 0.065400
usemtl Water
s 1
f 68/1/1 69/2/1 70/3/1 71/4/1
f 27/5/2 26/6/2 70/7/2 69/8/2
f 21/9/3 3/10/3 2/11/3 30/12/3
f 36/13/1 33/14/1 34/15/1 35/16/1
f 67/17/1 68/1/1 71/4/1 72/18/1
f 66/19/1 67/17/1 72/18/1 73/20/1
f 36/13/1 37/21/1 80/22/1 33/14/1
f 65/23/1 66/19/1 73/20/1 74/24/1
f 64/25/1 65/23/1 74/24/1 75/26/1
f 37/21/1 38/27/1 79/28/1 80/22/1
f 7/29/1 46/30/1 30/9/1 2/10/1
f 64/25/1 75/26/1 76/31/1
f 38/27/1 39/32/1 78/33/1 79/28/1
f 7/29/1 47/34/1 45/35/1 46/30/1
f 40/36/1 77/37/1 78/33/1 39/32/1
f 47/34/1 48/38/1 44/39/1 45/35/1
f 56/40/1 20/41/1 57/42/1 58/43/1
f 76/31/1 77/37/1 40/36/1
f 76/31/1 40/36/1 41/44/1
f 55/45/1 56/40/1 58/43/1 59/46/1
f 54/47/1 55/45/1 59/46/1 60/48/1
f 53/49/1 54/47/1 60/48/1 61/50/1
f 52/51/1 53/49/1 61/50/1 62/52/1
f 48/38/1 49/53/1 43/54/1 44/39/1
f 63/55/1 64/25/1 76/31/1
f 52/51/1 62/52/1 63/55/1
f 50/56/1 42/57/1 43/54/1 49/53/1
f 41/44/1 51/58/1 63/55/1 76/31/1
f 41/44/1 42/57/1 50/56/1
f 41/44/1 50/56/1 51/58/1
f 51/58/1 52/51/1 63/55/1
f 24/5/4 23/6/4 35/7/4 34/8/4
f 19/9/5 29/10/5 57/11/5 20/12/5
usemtl Grass
f 4/59/5 19/9/5 20/12/5 5/60/5
f 5/61/1 13/51/1 14/58/1
f 3/5/6 27/62/6 29/63/6
f 25/64/4 24/5/4 34/8/4 83/65/4
f 83/66/1 87/37/1 88/31/1
f 32/60/4 35/7/4 23/6/4 22/59/4
f 97/67/7 31/68/8 30/69/8 46/70/7
f 32/59/1 101/57/1 102/44/1
f 98/67/9 97/68/7 46/69/7 45/70/9
f 99/67/10 98/68/9 45/69/9 44/70/10
f 100/67/11 99/68/10 44/69/10 43/70/11
f 101/67/12 100/68/11 43/69/11 42/70/12
f 102/67/13 101/68/12 42/69/12 41/70/13
f 103/67/14 102/68/13 41/69/13 40/70/14
f 104/67/15 103/68/14 40/69/14 39/70/15
f 105/67/16 104/68/15 39/69/15 38/70/16
f 106/67/17 105/68/16 38/69/16 37/70/17
f 96/67/18 106/68/17 37/69/17 36/70/18
f 83/60/2 70/7/2 26/6/2 25/59/2
f 93/71/19 92/72/20 72/73/20 71/74/19
f 92/75/20 91/76/21 73/77/21 72/78/20
f 91/79/21 90/80/22 74/81/22 73/82/21
f 90/83/22 89/84/23 75/85/23 74/86/22
f 89/87/23 88/88/24 76/89/24 75/90/23
f 88/91/24 87/92/25 77/93/25 76/94/24
f 87/95/25 86/96/26 78/97/26 77/98/25
f 86/99/26 85/100/27 79/101/27 78/102/26
f 85/103/27 84/104/28 80/105/28 79/106/27
f 84/107/28 81/108/29 33/109/29 80/110/28
f 28/64/2 27/5/2 69/8/2 108/65/2
f 110/111/30 109/112/31 68/113/31 67/114/30
f 108/115/1 113/25/1 114/55/1
f 111/116/32 110/117/30 67/118/30 66/119/32
f 112/120/33 111/121/32 66/122/32 65/123/33
f 113/124/34 112/125/33 65/126/33 64/127/34
f 114/128/35 113/129/34 64/130/34 63/131/35
f 115/132/36 114/133/35 63/134/35 62/135/36
f 116/136/37 115/137/36 62/138/36 61/139/37
f 117/140/38 116/141/37 61/142/37 60/143/38
f 118/144/39 117/145/38 60/146/38 59/147/39
f 119/148/40 118/149/39 59/150/39 58/151/40
f 120/152/41 119/153/40 58/154/40 57/155/41
f 108/156/5 57/11/5 29/10/5 28/61/5
f 6/157/42 18/158/43 47/159/43 7/160/42
f 18/161/43 17/162/44 48/163/44 47/164/43
f 17/165/44 16/166/45 49/167/45 48/168/44
f 16/169/45 15/170/46 50/171/46 49/172/45
f 15/173/46 14/174/47 51/175/47 50/176/46
f 14/177/47 13/178/48 52/179/48 51/180/47
f 13/181/48 12/182/49 53/183/49 52/184/48
f 12/185/49 11/186/50 54/187/50 53/188/49
f 11/189/50 10/190/51 55/191/51 54/192/50
f 10/193/51 9/194/52 56/195/52 55/196/51
f 9/197/52 8/198/53 20/199/53 56/200/52
f 2/11/3 5/156/3 1/201/3
f 1/202/54 6/203/42 7/204/42 2/205/54
f 6/29/1 1/10/1 5/61/1
f 5/61/1 18/34/1 6/29/1
f 5/61/1 16/53/1 17/38/1
f 5/61/1 14/58/1 15/56/1
f 5/61/1 12/49/1 13/51/1
f 5/61/1 10/45/1 11/47/1
f 5/61/1 8/41/1 9/40/1
f 17/38/1 18/34/1 5/61/1
f 5/61/1 15/56/1 16/53/1
f 5/61/1 11/47/1 12/49/1
f 10/45/1 5/61/1 9/40/1
f 21/6/6 24/15/6 27/62/6 3/5/6
f 5/60/5 20/12/5 8/206/5
f 22/59/3 21/9/3 30/12/3 32/60/3
f 3/5/6 19/207/6 4/64/6
f 27/62/6 28/208/6 29/63/6
f 24/15/6 26/209/6 27/62/6
f 21/6/6 23/16/6 24/15/6
f 24/15/6 25/66/6 26/209/6
f 3/5/6 29/63/6 19/207/6
f 23/16/6 21/6/6 22/59/6
f 32/60/3 30/12/3 31/206/3
f 81/210/29 82/211/55 34/212/55 33/213/29
f 93/4/1 94/3/1 83/66/1
f 83/66/1 92/18/1 93/4/1
f 83/66/1 90/24/1 91/20/1
f 83/66/1 88/31/1 89/26/1
f 83/66/1 86/33/1 87/37/1
f 83/66/1 84/22/1 85/28/1
f 83/66/1 82/15/1 81/14/1
f 91/20/1 92/18/1 83/66/1
f 83/66/1 89/26/1 90/24/1
f 83/66/1 85/28/1 86/33/1
f 84/22/1 83/66/1 81/14/1
f 83/65/4 34/8/4 82/214/4
f 35/7/4 32/60/4 95/215/4
f 95/67/56 96/68/18 36/69/18 35/70/56
f 96/13/1 95/16/1 32/59/1
f 32/59/1 106/21/1 96/13/1
f 32/59/1 104/32/1 105/27/1
f 32/59/1 102/44/1 103/36/1
f 32/59/1 100/54/1 101/57/1
f 32/59/1 98/35/1 99/39/1
f 32/59/1 31/9/1 97/30/1
f 105/27/1 106/21/1 32/59/1
f 32/59/1 103/36/1 104/32/1
f 32/59/1 99/39/1 100/54/1
f 98/35/1 32/59/1 97/30/1
f 70/7/2 83/60/2 94/215/2
f 94/216/57 93/217/19 71/218/19 70/219/57
f 109/220/31 107/221/58 69/222/58 68/223/31
f 108/65/2 69/8/2 107/214/2
f 119/43/1 120/42/1 108/115/1
f 108/115/1 118/46/1 119/43/1
f 108/115/1 116/50/1 117/48/1
f 108/115/1 114/55/1 115/52/1
f 108/115/1 112/23/1 113/25/1
f 108/115/1 110/17/1 111/19/1
f 108/115/1 107/2/1 109/1/1
f 117/48/1 118/46/1 108/115/1
f 108/115/1 115/52/1 116/50/1
f 108/115/1 111/19/1 112/23/1
f 110/17/1 108/115/1 109/1/1
f 57/11/5 108/156/5 120/201/5
f 5/156/3 2/11/3 3/10/3 4/61/3
