# Blender v2.75 (sub 0) OBJ File: ''
# www.blender.org
mtllib roadTile_042.mtl
o Mesh1_Group1_Model.149
v 3.000000 0.455000 0.000000
v 1.875000 0.455000 0.000000
v 1.875000 0.000000 -0.000000
v 3.000000 0.000000 -0.000000
v 0.000000 0.455000 -3.000000
v 0.000000 0.455000 -1.875000
v 0.244737 0.455000 -1.858960
v 0.485286 0.455000 -1.811110
v 0.717531 0.455000 -1.732270
v 0.937500 0.455000 -1.623800
v 1.141430 0.455000 -1.487540
v 1.325830 0.455000 -1.325830
v 1.487540 0.455000 -1.141430
v 1.623800 0.455000 -0.937500
v 1.732270 0.455000 -0.717531
v 1.811110 0.455000 -0.485286
v 1.858960 0.455000 -0.244737
v 3.000000 0.455000 -3.000000
v 0.000000 0.000000 -3.000000
v 0.000000 0.000000 -1.875000
v 0.750000 0.000000 -0.000000
v 0.000000 0.000000 0.000000
v 0.000000 0.000000 -0.750000
v 3.000000 0.000000 -3.000000
v 0.750000 0.455000 0.000000
v 0.750000 0.550000 0.000000
v 0.000000 0.550000 0.000000
v 0.000000 0.455000 -0.750000
v 0.097895 0.455000 -0.743584
v 0.194114 0.455000 -0.724444
v 0.287013 0.455000 -0.692910
v 0.375000 0.455000 -0.649519
v 0.456571 0.455000 -0.595015
v 0.530330 0.455000 -0.530330
v 0.595015 0.455000 -0.456571
v 0.649519 0.455000 -0.375000
v 0.692910 0.455000 -0.287013
v 0.724444 0.455000 -0.194114
v 0.743584 0.455000 -0.097895
v 0.000000 0.550000 -0.750000
v 0.743584 0.550000 -0.097895
v 0.724444 0.550000 -0.194114
v 0.692910 0.550000 -0.287013
v 0.649519 0.550000 -0.375000
v 0.595015 0.550000 -0.456571
v 0.530330 0.550000 -0.530330
v 0.456571 0.550000 -0.595015
v 0.375000 0.550000 -0.649519
v 0.287013 0.550000 -0.692910
v 0.194114 0.550000 -0.724444
v 0.097895 0.550000 -0.743584
vt -3.000000 0.000000
vt -1.875000 0.000000
vt -1.875000 0.455000
vt -3.000000 0.455000
vt 3.000000 3.000000
vt 1.325830 1.325830
vt 1.487540 1.141430
vt -0.000000 -0.000000
vt -0.000000 0.455000
vt 3.000000 0.000000
vt 3.000000 0.455000
vt 0.937500 1.623800
vt 0.000000 3.000000
vt 1.858960 0.244737
vt 1.875000 0.000000
vt 0.000000 1.875000
vt 0.244737 1.858960
vt 1.811110 0.485286
vt 0.485286 1.811110
vt 1.732270 0.717531
vt 0.717531 1.732270
vt 1.623800 0.937500
vt 1.141430 1.487540
vt 1.875000 0.455000
vt 0.097895 0.743584
vt 0.000000 0.750000
vt 0.750000 0.000000
vt 0.750000 0.455000
vt 0.743584 0.097895
vt 0.194114 0.724444
vt 0.287013 0.692910
vt 0.724444 0.194114
vt 0.375000 0.649519
vt 0.456571 0.595015
vt 0.692910 0.287013
vt 0.530330 0.530330
vt 0.649519 0.375000
vt 0.595015 0.456571
vt -0.750000 0.455000
vt -0.750000 0.000000
vt 0.000000 0.550000
vt -0.049052 0.455000
vt 0.049052 0.455000
vt 0.049052 0.550000
vt -0.049052 0.550000
vt -3.000000 3.000000
vt 0.750000 0.550000
vt -0.750000 0.550000
vn -1.000000 -0.000000 -0.000000
vn -0.000000 1.000000 0.000000
vn 0.000000 0.000000 -1.000000
vn 1.000000 0.000000 0.000000
vn -0.000000 -0.000000 1.000000
vn -0.000000 -1.000000 -0.000000
vn 0.991400 0.000000 -0.130500
vn 0.965900 0.000000 -0.258800
vn 0.923900 0.000000 -0.382700
vn 0.866000 0.000000 -0.500000
vn 0.793400 0.000000 -0.608800
vn 0.707100 0.000000 -0.707100
vn 0.608800 0.000000 -0.793400
vn 0.500000 0.000000 -0.866000
vn 0.382700 0.000000 -0.923900
vn 0.258800 0.000000 -0.965900
vn 0.130500 0.000000 -0.991400
vn 0.065400 0.000000 -0.997900
vn 0.997900 0.000000 -0.065400
usemtl Water.017
s 1
f 19/1/1 20/2/1 6/3/1 5/4/1
f 18/5/2 12/6/2 13/7/2
f 19/8/3 5/9/3 18/4/3 24/1/3
f 1/9/4 4/8/4 24/10/4 18/11/4
f 10/12/2 18/5/2 5/13/2
f 17/14/2 2/15/2 1/10/2
f 5/13/2 6/16/2 7/17/2
f 16/18/2 17/14/2 1/10/2
f 5/13/2 7/17/2 8/19/2
f 15/20/2 16/18/2 1/10/2
f 5/13/2 8/19/2 9/21/2
f 14/22/2 15/20/2 1/10/2
f 5/13/2 9/21/2 10/12/2
f 18/5/2 14/22/2 1/10/2
f 18/5/2 10/12/2 11/23/2
f 18/5/2 13/7/2 14/22/2
f 18/5/2 11/23/2 12/6/2
f 1/11/5 2/24/5 3/15/5 4/10/5
usemtl Sand.001
f 29/25/2 7/17/2 6/16/2 28/26/2
f 21/27/5 3/15/5 2/24/5 25/28/5
f 17/14/2 39/29/2 25/27/2 2/15/2
f 30/30/2 8/19/2 7/17/2 29/25/2
f 31/31/2 9/21/2 8/19/2 30/30/2
f 17/14/2 16/18/2 38/32/2 39/29/2
f 32/33/2 10/12/2 9/21/2 31/31/2
f 33/34/2 11/23/2 10/12/2 32/33/2
f 15/20/2 37/35/2 38/32/2 16/18/2
f 34/36/2 12/6/2 11/23/2 33/34/2
f 15/20/2 14/22/2 36/37/2 37/35/2
f 35/38/2 36/37/2 14/22/2 13/7/2
f 34/36/2 35/38/2 13/7/2 12/6/2
f 28/39/1 6/3/1 20/2/1 23/40/1
usemtl Grass.058
f 22/8/5 21/27/5 25/28/5 27/41/5
f 21/40/6 23/26/6 20/16/6
f 28/39/1 23/40/1 22/8/1 27/41/1
f 27/8/2 45/38/2 46/36/2
f 39/42/7 38/43/8 42/44/8 41/45/7
f 38/42/8 37/43/9 43/44/9 42/45/8
f 37/42/9 36/43/10 44/44/10 43/45/9
f 36/42/10 35/43/11 45/44/11 44/45/10
f 35/42/11 34/43/12 46/44/12 45/45/11
f 34/42/12 33/43/13 47/44/13 46/45/12
f 33/42/13 32/43/14 48/44/14 47/45/13
f 32/42/14 31/43/15 49/44/15 48/45/14
f 31/42/15 30/43/16 50/44/16 49/45/15
f 30/42/16 29/43/17 51/44/17 50/45/16
f 29/42/17 28/43/18 40/44/18 51/45/17
f 20/16/6 3/2/6 21/40/6
f 3/2/6 24/46/6 4/1/6
f 24/46/6 20/16/6 19/13/6
f 21/40/6 22/8/6 23/26/6
f 20/16/6 24/46/6 3/2/6
f 27/41/5 25/28/5 26/47/5
f 27/41/1 40/48/1 28/39/1
f 25/42/19 39/43/7 41/44/7 26/45/19
f 51/25/2 40/26/2 27/8/2
f 27/8/2 50/30/2 51/25/2
f 27/8/2 48/33/2 49/31/2
f 27/8/2 46/36/2 47/34/2
f 27/8/2 44/37/2 45/38/2
f 27/8/2 42/32/2 43/35/2
f 27/8/2 26/27/2 41/29/2
f 49/31/2 50/30/2 27/8/2
f 27/8/2 47/34/2 48/33/2
f 27/8/2 43/35/2 44/37/2
f 42/32/2 27/8/2 41/29/2
