# Blender v2.75 (sub 0) OBJ File: ''
# www.blender.org
mtllib roadTile_096.mtl
o Mesh1_Group1_Model.128
v 3.000000 0.000000 -0.000000
v 0.000000 0.000000 0.000000
v 0.000000 0.000000 -3.000000
v 3.000000 0.000000 -3.000000
v 0.000000 0.630000 0.000000
v 3.000000 0.630000 0.000000
v 2.160720 0.630000 0.000000
v 2.160720 0.570000 0.000000
v 1.928960 0.570000 0.000000
v 1.928960 0.630000 0.000000
v 0.000000 0.630000 -3.000000
v 1.615750 0.630000 -0.468750
v 1.322860 0.630000 -1.062670
v 1.110000 0.630000 -1.689730
v 0.980810 0.630000 -2.339210
v 0.937500 0.630000 -3.000000
v 1.615750 0.570000 -0.468750
v 1.125000 0.570000 -3.000000
v 0.937500 0.570000 -3.000000
v 0.980810 0.570000 -2.339210
v 1.110000 0.570000 -1.689730
v 1.322860 0.570000 -1.062670
v 2.132400 0.570000 -0.032288
v 1.778130 0.570000 -0.562500
v 1.496090 0.570000 -1.134420
v 1.291110 0.570000 -1.738260
v 1.166710 0.570000 -2.363680
v 3.000000 0.630000 -3.000000
v 1.125000 0.630000 -3.000000
v 1.875000 0.630000 -3.000000
v 1.875000 0.570000 -3.000000
v 2.062500 0.570000 -3.000000
v 2.062500 0.630000 -3.000000
v 3.000000 0.630000 -0.461802
v 3.000000 0.570000 -0.461802
v 3.000000 0.570000 -0.178038
v 3.000000 0.630000 -0.178038
v 2.096190 0.630000 -2.486050
v 2.196670 0.630000 -1.980900
v 2.362220 0.630000 -1.493180
v 2.590020 0.630000 -1.031250
v 2.876170 0.630000 -0.603002
v 2.096190 0.570000 -2.486050
v 1.910290 0.570000 -2.461580
v 2.015560 0.570000 -1.932370
v 2.189000 0.570000 -1.421430
v 2.427650 0.570000 -0.937500
v 2.727420 0.570000 -0.488859
v 2.876170 0.570000 -0.603002
v 2.590020 0.570000 -1.031250
v 2.362220 0.570000 -1.493180
v 2.196670 0.570000 -1.980900
v 1.910290 0.630000 -2.461580
v 1.166710 0.630000 -2.363680
v 1.291110 0.630000 -1.738260
v 1.496090 0.630000 -1.134420
v 1.778130 0.630000 -0.562500
v 2.132400 0.630000 -0.032288
v 2.727420 0.630000 -0.488859
v 2.427650 0.630000 -0.937500
v 2.189000 0.630000 -1.421430
v 2.015560 0.630000 -1.932370
vt 0.000000 0.630000
vt 0.000000 0.000000
vt 1.928960 0.570000
vt 1.928960 0.630000
vt 3.000000 0.000000
vt 2.160720 0.570000
vt 1.322860 1.062670
vt 1.110000 1.689730
vt -3.000000 -0.000000
vt -1.875000 0.570000
vt 0.461802 0.570000
vt 3.000000 3.000000
vt 2.096190 2.486050
vt 2.196670 1.980900
vt 1.166710 2.363680
vt 1.910290 2.461580
vt 1.875000 3.000000
vt 1.125000 3.000000
vt 3.000000 0.630000
vt 2.160720 0.630000
vt -3.000000 0.630000
vt -0.000000 3.000000
vt 1.928960 0.000000
vt 1.615750 0.468750
vt 0.980810 2.339210
vt 0.937500 3.000000
vt -2.062500 0.570000
vt -2.062500 0.630000
vt -1.125000 0.570000
vt -1.125000 0.630000
vt -1.875000 0.630000
vt -0.937500 0.630000
vt -0.937500 0.570000
vt 0.461802 0.630000
vt 0.178038 0.570000
vt 0.178038 0.630000
vt 2.876170 0.603002
vt 3.000000 0.461802
vt 2.590020 1.031250
vt 2.362220 1.493180
vt 2.062500 3.000000
vt 3.000000 0.178038
vt 2.727420 0.488859
vt 1.778130 0.562500
vt 2.132400 0.032288
vt 2.427650 0.937500
vt 1.291110 1.738260
vt 2.015560 1.932370
vt 2.160720 0.000000
vt 2.189000 1.421430
vt 1.496090 1.134420
vt -3.000000 3.000000
vt -0.507909 0.630000
vt -1.071670 0.630000
vt -1.071670 0.570000
vt -0.507909 0.570000
vt -1.452970 0.630000
vt -2.090650 0.630000
vt -2.090650 0.570000
vt -1.452970 0.570000
vt -0.593313 0.630000
vt -1.230990 0.630000
vt -1.230990 0.570000
vt -0.593313 0.570000
vt 0.281954 0.630000
vt -0.355726 0.630000
vt -0.355726 0.570000
vt 0.281954 0.570000
vt 1.157850 0.630000
vt 0.520172 0.630000
vt 0.520172 0.570000
vt 1.157850 0.570000
vt 1.424660 0.630000
vt 1.381720 0.630000
vt 1.381720 0.570000
vt 1.424660 0.570000
vt -1.430770 0.630000
vt -1.844180 0.630000
vt -1.844180 0.570000
vt -1.430770 0.570000
vt -0.569225 0.630000
vt -1.108800 0.630000
vt -1.108800 0.570000
vt -0.569225 0.570000
vt 0.306674 0.630000
vt -0.232902 0.630000
vt -0.232902 0.570000
vt 0.306674 0.570000
vt 1.181940 0.630000
vt 0.642366 0.630000
vt 0.642366 0.570000
vt 1.181940 0.570000
vt 2.041600 0.630000
vt 1.502030 0.630000
vt 1.502030 0.570000
vt 2.041600 0.570000
vt 1.630840 0.630000
vt 1.443030 0.630000
vt 1.443030 0.570000
vt 1.630840 0.570000
vt 1.096540 0.630000
vt 0.581488 0.630000
vt 0.581488 0.570000
vt 1.096540 0.570000
vt 0.220639 0.630000
vt -0.294411 0.630000
vt -0.294411 0.570000
vt 0.220639 0.570000
vt -0.654629 0.630000
vt -1.169680 0.630000
vt -1.169680 0.570000
vt -0.654629 0.570000
vt -1.514290 0.630000
vt -2.029340 0.630000
vt -2.029340 0.570000
vt -1.514290 0.570000
vt 2.932260 0.630000
vt 2.270050 0.630000
vt 2.270050 0.570000
vt 2.932260 0.570000
vt 2.102920 0.630000
vt 1.440710 0.630000
vt 1.440710 0.570000
vt 2.102920 0.570000
vt 1.243260 0.630000
vt 0.581050 0.630000
vt 0.581050 0.570000
vt 1.243260 0.570000
vt 0.367989 0.630000
vt -0.294217 0.630000
vt -0.294217 0.570000
vt 0.367989 0.570000
vt -2.343630 0.630000
vt -2.858680 0.630000
vt -2.858680 0.570000
vt -2.343630 0.570000
vt 2.870950 0.630000
vt 2.331370 0.630000
vt 2.331370 0.570000
vt 2.870950 0.570000
vt -2.282320 0.630000
vt -2.920000 0.630000
vt -2.920000 0.570000
vt -2.282320 0.570000
vn 0.000000 -0.000000 1.000000
vn 0.000000 1.000000 0.000000
vn 0.000000 0.000000 -1.000000
vn 1.000000 -0.000000 0.000000
vn -1.000000 0.000000 0.000000
vn 0.000000 -1.000000 -0.000000
vn 0.866000 0.000000 -0.500000
vn 0.831500 0.000000 -0.555600
vn -0.965900 0.000000 0.258800
vn -0.991400 0.000000 0.130500
vn -0.923900 0.000000 0.382700
vn -0.866000 0.000000 0.500000
vn -0.793300 -0.000000 0.608800
vn -0.751800 -0.000000 0.659400
vn 0.793400 0.000000 -0.608800
vn 0.751800 0.000000 -0.659300
vn 0.923900 0.000000 -0.382700
vn 0.965900 0.000000 -0.258800
vn 0.991400 0.000000 -0.130500
vn -0.751800 0.000000 0.659300
vn -0.793400 0.000000 0.608800
vn 0.997900 0.000000 -0.065400
vn -0.997900 0.000000 0.065400
usemtl Stone
s 1
f 5/1/1 2/2/1 9/3/1 10/4/1
f 9/3/1 1/5/1 8/6/1
f 5/2/2 13/7/2 14/8/2
f 4/9/3 3/2/3 31/10/3
f 1/2/4 4/5/4 35/11/4
f 28/12/2 38/13/2 39/14/2
f 54/15/2 53/16/2 30/17/2 29/18/2
f 1/5/1 6/19/1 7/20/1 8/6/1
f 3/9/5 2/2/5 5/1/5 11/21/5
f 1/5/1 9/3/1 2/2/1
f 14/8/2 11/22/2 5/2/2
f 5/2/2 10/23/2 12/24/2
f 15/25/2 16/26/2 11/22/2
f 5/2/2 12/24/2 13/7/2
f 14/8/2 15/25/2 11/22/2
f 28/21/3 4/9/3 32/27/3 33/28/3
f 18/29/3 29/30/3 30/31/3 31/10/3
f 11/1/3 16/32/3 19/33/3 3/2/3
f 31/10/3 32/27/3 4/9/3
f 4/5/4 28/19/4 34/34/4 35/11/4
f 3/2/3 18/29/3 31/10/3
f 18/29/3 3/2/3 19/33/3
f 36/35/4 6/1/4 1/2/4
f 36/35/4 37/36/4 6/1/4
f 35/11/4 36/35/4 1/2/4
f 42/37/2 34/38/2 28/12/2
f 28/12/2 41/39/2 42/37/2
f 28/12/2 39/14/2 40/40/2
f 28/12/2 33/41/2 38/13/2
f 40/40/2 41/39/2 28/12/2
f 6/5/2 37/42/2 59/43/2
f 57/44/2 58/45/2 59/43/2 60/46/2
f 54/15/2 55/47/2 62/48/2 53/16/2
f 7/49/2 6/5/2 59/43/2
f 61/50/2 56/51/2 57/44/2 60/46/2
f 61/50/2 62/48/2 55/47/2 56/51/2
f 59/43/2 58/45/2 7/49/2
f 1/9/6 2/2/6 3/22/6 4/52/6
usemtl Grey_Asphalt
f 12/53/7 10/54/8 9/55/8 17/56/7
f 20/25/2 27/15/2 18/18/2 19/26/2
f 44/16/2 43/13/2 32/41/2 31/17/2
f 55/57/9 54/58/10 27/59/10 26/60/9
f 56/61/11 55/62/9 26/63/9 25/64/11
f 57/65/12 56/66/11 25/67/11 24/68/12
f 58/69/13 57/70/12 24/71/12 23/72/13
f 7/73/14 58/74/13 23/75/13 8/76/14
f 59/77/15 37/78/16 36/79/16 48/80/15
f 60/81/7 59/82/15 48/83/15 47/84/7
f 61/85/17 60/86/7 47/87/7 46/88/17
f 62/89/18 61/90/17 46/91/17 45/92/18
f 53/93/19 62/94/18 45/95/18 44/96/19
f 34/97/20 42/98/21 49/99/21 35/100/20
f 42/101/21 41/102/12 50/103/12 49/104/21
f 41/105/12 40/106/11 51/107/11 50/108/12
f 40/109/11 39/110/9 52/111/9 51/112/11
f 39/113/9 38/114/10 43/115/10 52/116/9
f 16/117/22 15/118/19 20/119/19 19/120/22
f 15/121/19 14/122/18 21/123/18 20/124/19
f 14/125/18 13/126/17 22/127/17 21/128/18
f 13/129/17 12/130/7 17/131/7 22/132/17
f 9/23/2 8/49/2 23/45/2
f 17/24/2 9/23/2 23/45/2 24/44/2
f 22/7/2 17/24/2 24/44/2 25/51/2
f 21/8/2 26/47/2 27/15/2 20/25/2
f 26/47/2 21/8/2 22/7/2 25/51/2
f 38/133/10 33/134/23 32/135/23 43/136/10
f 48/43/2 35/38/2 49/37/2
f 47/46/2 48/43/2 49/37/2 50/39/2
f 46/50/2 47/46/2 50/39/2 51/40/2
f 45/48/2 52/14/2 43/13/2 44/16/2
f 51/40/2 52/14/2 45/48/2 46/50/2
f 48/43/2 36/42/2 35/38/2
f 30/137/22 53/138/19 44/139/19 31/140/22
f 54/141/10 29/142/23 18/143/23 27/144/10
