# Blender v2.75 (sub 0) OBJ File: ''
# www.blender.org
mtllib roadTile_142.mtl
o Mesh1_Group1_Model.090
v 3.000000 0.600000 -2.250000
v 3.000000 0.630000 -2.250000
v 2.250000 0.630000 -2.250000
v 2.250000 0.600000 -2.250000
v 3.000000 0.630000 -0.375000
v 3.000000 0.550000 -0.375000
v 3.000000 0.000000 -0.375000
v 3.000000 0.000000 -2.625000
v 3.000000 0.550000 -2.625000
v 3.000000 0.630000 -2.625000
v 3.000000 0.300000 -2.250000
v 3.000000 0.300000 -0.750000
v 3.000000 0.600000 -0.750000
v 3.000000 0.630000 -0.750000
v 2.625000 0.630000 -0.375000
v 2.625000 0.550000 -0.375000
v 2.625000 0.630000 0.000000
v 2.250000 0.630000 -0.750000
v 2.250000 0.630000 0.000000
v 2.625000 0.550000 0.000000
v 0.375000 0.630000 0.000000
v 0.375000 0.550000 0.000000
v 0.375000 0.000000 -0.000000
v 2.625000 0.000000 -0.000000
v 0.750000 0.630000 0.000000
v 0.375000 0.630000 -0.375000
v 0.375000 0.550000 -0.375000
v 0.000000 0.630000 -0.375000
v 0.750000 0.630000 -0.750000
v 0.000000 0.630000 -0.750000
v 0.000000 0.550000 -0.375000
v 0.000000 0.000000 -2.625000
v 0.000000 0.000000 -0.375000
v 0.000000 0.600000 -0.750000
v 0.000000 0.300000 -0.750000
v 0.000000 0.300000 -2.250000
v 0.000000 0.600000 -2.250000
v 0.000000 0.630000 -2.250000
v 0.000000 0.630000 -2.625000
v 0.000000 0.550000 -2.625000
v 0.000000 0.000000 0.000000
v 0.000000 0.000000 -3.000000
v 0.375000 0.000000 -3.000000
v 2.625000 0.000000 -3.000000
v 3.000000 0.000000 -3.000000
v 3.000000 0.000000 -0.000000
v 0.000000 0.550000 0.000000
v 0.000000 0.550000 -3.000000
v 0.375000 0.550000 -2.625000
v 0.375000 0.550000 -3.000000
v 0.375000 0.630000 -2.625000
v 0.375000 0.630000 -3.000000
v 0.750000 0.630000 -2.250000
v 0.750000 0.630000 -3.000000
v 2.625000 0.630000 -3.000000
v 2.625000 0.550000 -3.000000
v 2.250000 0.630000 -3.000000
v 2.625000 0.630000 -2.625000
v 2.625000 0.550000 -2.625000
v 3.000000 0.550000 -3.000000
v 0.750000 0.600000 -2.250000
v 0.750000 0.600000 -0.750000
v 2.250000 0.600000 -0.750000
v 3.000000 0.550000 0.000000
vt 0.375000 0.550000
vt 0.750000 0.600000
vt 0.750000 0.630000
vt 0.375000 0.630000
vt 0.375000 -0.000000
vt 2.625000 -0.000000
vt 2.250000 0.300000
vt 0.000000 0.630000
vt 0.000000 0.550000
vt 2.625000 0.375000
vt 3.000000 0.375000
vt 3.000000 0.750000
vt 2.250000 0.630000
vt 0.375000 0.375000
vt 0.750000 0.000000
vt -2.250000 0.300000
vt -2.250000 0.600000
vt -2.625000 0.550000
vt -2.625000 -0.000000
vt -0.375000 -0.000000
vt -0.750000 0.300000
vt -0.375000 0.630000
vt -0.375000 0.550000
vt -2.625000 0.630000
vt -3.000000 0.630000
vt -3.000000 0.550000
vt 0.375000 2.625000
vt 0.000000 2.625000
vt 0.000000 2.250000
vt -2.250000 0.630000
vt -0.750000 0.630000
vt 2.625000 2.625000
vt 2.625000 3.000000
vt 2.250000 3.000000
vt 2.250000 2.272180
vt 2.250000 3.022780
vt 0.750000 3.022780
vt 0.750000 2.272180
vt 0.000000 0.600000
vt 2.250000 0.600000
vt 3.000000 0.630000
vt -0.750000 0.600000
vt -2.250000 0.025180
vt -2.250000 -0.725420
vt -0.750000 -0.725420
vt -0.750000 0.025180
vt -3.000000 0.600000
vt 2.625000 0.550000
vt 2.625000 0.630000
vt 0.750000 0.300000
vt 3.000000 0.550000
vt 2.250000 0.000000
vt 2.250000 0.750000
vt 0.000000 0.750000
vt 0.000000 0.375000
vt 0.750000 0.750000
vt 0.750000 3.000000
vt 0.375000 3.000000
vt 0.750000 2.250000
vt 3.000000 2.250000
vt 3.000000 2.625000
vt 2.250000 2.250000
vt 3.000000 0.600000
vt -3.000000 2.625000
vt -0.375000 3.000000
vt 0.000000 0.000000
vt -3.000000 -0.000000
vt 0.000000 3.000000
vt 3.000000 3.000000
vt 3.000000 -0.000000
vt -3.000000 0.375000
vt -2.625000 3.000000
vt -3.000000 3.000000
vn 1.000000 0.000000 0.000000
vn 0.000000 1.000000 0.000000
vn 0.000000 -0.000000 1.000000
vn -1.000000 -0.000000 0.000000
vn 0.000000 0.000000 -1.000000
vn 0.000000 0.999800 0.020000
vn 0.000000 0.999200 0.040000
vn 0.000000 0.999200 -0.040000
vn 0.000000 0.999800 -0.020000
vn -0.000000 -1.000000 -0.000000
usemtl Stone.077
s 1
f 6/1/1 13/2/1 14/3/1 5/4/1
f 7/5/1 8/6/1 11/7/1
f 15/4/1 17/8/1 20/9/1 16/1/1
f 15/10/2 5/11/2 14/12/2
f 23/5/3 24/6/3 19/13/3 25/3/3
f 26/4/3 28/8/3 31/9/3 27/1/3
f 26/14/2 21/5/2 25/15/2
f 36/16/4 37/17/4 40/18/4 32/19/4
f 32/19/4 33/20/4 35/21/4
f 39/8/5 51/22/5 49/23/5 40/9/5
f 51/24/4 52/25/4 50/26/4 49/18/4
f 51/27/2 39/28/2 38/29/2
f 57/30/5 44/19/5 43/20/5 54/31/5
f 58/24/5 10/25/5 9/26/5 59/18/5
f 58/32/2 55/33/2 57/34/2
f 4/35/6 57/36/7 54/37/7 61/38/6
f 57/25/4 4/17/4 3/30/4
f 37/39/3 61/2/3 53/3/3 38/8/3
f 61/40/1 54/41/1 53/13/1
f 30/8/5 29/31/5 62/42/5 34/39/5
f 19/43/8 63/44/9 62/45/9 25/46/8
f 25/8/1 62/2/1 29/3/1
f 13/47/5 63/17/5 18/30/5 14/25/5
f 63/42/4 19/8/4 18/31/4
f 8/6/1 9/48/1 1/40/1 11/7/1
f 10/49/1 2/13/1 1/40/1 9/48/1
f 6/1/1 7/5/1 12/50/1 13/2/1
f 5/41/3 15/49/3 16/48/3 6/51/3
f 11/7/1 12/50/1 7/5/1
f 15/10/2 19/52/2 17/6/2
f 15/10/2 14/12/2 18/53/2
f 18/53/2 19/52/2 15/10/2
f 22/1/3 25/3/3 21/4/3
f 20/48/3 17/49/3 19/13/3
f 19/13/3 24/6/3 20/48/3
f 25/3/3 22/1/3 23/5/3
f 21/8/4 26/22/4 27/23/4 22/9/4
f 26/14/2 30/54/2 28/55/2
f 26/14/2 25/15/2 29/56/2
f 29/56/2 30/54/2 26/14/2
f 40/18/4 37/17/4 38/30/4 39/24/4
f 33/20/4 31/23/4 34/42/4 35/21/4
f 28/22/4 30/31/4 34/42/4 31/23/4
f 35/21/4 36/16/4 32/19/4
f 51/27/2 54/57/2 52/58/2
f 51/27/2 38/29/2 53/59/2
f 53/59/2 54/57/2 51/27/2
f 56/18/5 57/30/5 55/24/5
f 50/23/5 52/22/5 54/31/5
f 54/31/5 43/20/5 50/23/5
f 44/19/5 57/30/5 56/18/5
f 55/41/1 58/49/1 59/48/1 56/51/1
f 58/32/2 2/60/2 10/61/2
f 58/32/2 57/34/2 3/62/2
f 3/62/2 2/60/2 58/32/2
f 1/63/3 2/41/3 3/13/3 4/40/3
usemtl Grass.041
f 8/64/10 32/28/10 43/65/10
f 47/66/2 22/5/2 27/14/2 31/55/2
f 47/9/4 31/23/4 33/20/4 41/66/4
f 42/67/4 32/19/4 40/18/4 48/26/4
f 48/68/2 40/28/2 49/27/2 50/58/2
f 56/33/2 59/32/2 9/61/2 60/69/2
f 60/51/1 9/48/1 8/6/1 45/70/1
f 45/67/5 44/19/5 56/18/5 60/26/5
f 48/9/5 50/23/5 43/20/5 42/66/5
f 46/66/1 7/5/1 6/1/1 64/9/1
f 64/70/2 6/11/2 16/10/2 20/6/2
f 64/51/3 20/48/3 24/6/3 46/70/3
f 32/28/10 8/64/10 7/71/10 23/20/10
f 7/71/10 46/67/10 24/19/10
f 23/20/10 41/66/10 33/55/10
f 7/71/10 24/19/10 23/20/10
f 41/66/3 23/5/3 22/1/3 47/9/3
f 8/64/10 44/72/10 45/73/10
f 32/28/10 42/68/10 43/65/10
f 23/20/10 33/55/10 32/28/10
f 8/64/10 43/65/10 44/72/10
usemtl Asphalt.066
f 4/62/6 63/53/9 13/12/2 1/60/2
f 13/2/1 12/50/1 11/7/1 1/40/1
f 62/56/9 61/59/6 37/29/2 34/54/2
f 4/62/6 61/59/6 62/56/9 63/53/9
f 37/17/4 36/16/4 35/21/4 34/42/4
