# Blender v2.75 (sub 0) OBJ File: ''
# www.blender.org
mtllib roadTile_057.mtl
o Mesh1_Group1_Model.011
v 2.071110 0.600000 -1.641200
v 1.850370 0.600000 -0.990912
v 1.850370 0.630000 -0.990912
v 2.071110 0.630000 -1.641200
v 0.000000 0.600000 0.000000
v 1.296070 0.600000 0.000000
v 1.546630 0.600000 -0.375000
v 2.205090 0.600000 -2.314740
v 2.250000 0.600000 -3.000000
v 0.000000 0.600000 -3.000000
v 0.000000 0.300000 0.000000
v 1.296070 0.300000 0.000000
v 0.000000 0.300000 -3.000000
v 2.250000 0.300000 -3.000000
v 2.250000 0.630000 -3.000000
v 2.625000 0.630000 -3.000000
v 2.625000 0.550000 -3.000000
v 2.625000 0.000000 -3.000000
v 0.000000 0.000000 -3.000000
v 2.205090 0.630000 -2.314740
v 1.296070 0.630000 0.000000
v 1.746110 0.630000 0.000000
v 1.871390 0.630000 -0.187500
v 2.196820 0.630000 -0.847406
v 2.433330 0.630000 -1.544140
v 2.576880 0.630000 -2.265790
v 1.546630 0.630000 -0.375000
v 0.000000 0.000000 0.000000
v 1.746110 0.000000 -0.000000
v 1.746110 0.550000 0.000000
v 3.000000 0.000000 -3.000000
v 3.000000 0.000000 -0.000000
v 3.000000 0.550000 -3.000000
v 2.576880 0.550000 -2.265790
v 2.433330 0.550000 -1.544140
v 2.196820 0.550000 -0.847406
v 1.871390 0.550000 -0.187500
v 3.000000 0.550000 0.000000
vt -2.250000 0.600000
vt -2.250000 0.630000
vt -2.625000 0.630000
vt -2.625000 0.550000
vt -2.700450 0.600000
vt -2.013720 0.600000
vt -2.013720 0.630000
vt -2.700450 0.630000
vt 2.205090 2.314740
vt 2.576880 2.265790
vt 2.625000 3.000000
vt 2.250000 3.000000
vt 2.429470 0.550000
vt 3.165260 0.550000
vt 3.165260 0.630000
vt 2.429470 0.630000
vt 1.989190 0.550000
vt 2.724980 0.550000
vt 2.724980 0.630000
vt 1.989190 0.630000
vt 1.508580 0.550000
vt 2.244360 0.550000
vt 2.244360 0.630000
vt 1.508580 0.630000
vt 0.995860 0.550000
vt 1.731640 0.550000
vt 1.731640 0.630000
vt 0.995860 0.630000
vt 0.970086 0.550000
vt 1.195590 0.550000
vt 1.195590 0.630000
vt 0.970086 0.630000
vt -1.171060 0.600000
vt -0.720056 0.600000
vt -0.720056 0.630000
vt -1.171060 0.630000
vt -1.707120 0.600000
vt -1.020390 0.600000
vt -1.020390 0.630000
vt -1.707120 0.630000
vt -2.250000 0.300000
vt 0.000000 -0.000000
vt 0.000000 0.300000
vt -2.625000 -0.000000
vt -3.140730 0.600000
vt -2.454000 0.600000
vt -2.454000 0.630000
vt -3.140730 0.630000
vt 1.871390 0.187500
vt 1.546630 0.375000
vt 1.296070 0.000000
vt 1.746110 0.000000
vt 2.433330 1.544140
vt 2.071110 1.641200
vt 1.850370 0.990912
vt 2.196820 0.847406
vt 1.746110 0.550000
vt 1.746110 0.630000
vt 1.296070 0.630000
vt 1.296070 0.600000
vt 1.296070 0.300000
vt -3.000000 0.300000
vt -3.000000 0.000000
vt -2.219840 0.600000
vt -1.533110 0.600000
vt -1.533110 0.630000
vt -2.219840 0.630000
vt -1.746110 0.000000
vt 0.000000 3.000000
vt -2.625000 3.000000
vt 3.000000 0.000000
vt 3.000000 0.550000
vt 0.000000 0.550000
vt -3.000000 3.000000
vt -3.000000 0.550000
vt 3.000000 3.000000
vt 0.000000 0.600000
vt -3.000000 0.600000
vn 0.000000 0.000000 -1.000000
vn -0.991400 0.000000 -0.130500
vn -0.965900 0.000000 -0.258800
vn -0.000000 1.000000 0.000000
vn 0.991400 0.000000 0.130500
vn 0.997900 0.000000 0.065400
vn 0.965900 0.000000 0.258800
vn 0.923900 0.000000 0.382700
vn 0.866000 0.000000 0.500000
vn 0.831500 0.000000 0.555600
vn -0.866000 0.000000 -0.500000
vn -0.831500 0.000000 -0.555600
vn -0.923900 0.000000 -0.382700
vn -0.997900 0.000000 -0.065400
vn 0.000000 -0.000000 1.000000
vn -1.000000 0.000000 0.000000
vn 0.000000 -1.000000 -0.000000
vn 1.000000 0.000000 0.000000
usemtl Stone
s 1
f 9/1/1 15/2/1 16/3/1 17/4/1
f 8/5/2 1/6/3 4/7/3 20/8/2
f 20/9/4 26/10/4 16/11/4 15/12/4
f 34/13/5 17/14/6 16/15/6 26/16/5
f 35/17/7 34/18/5 26/19/5 25/20/7
f 36/21/8 35/22/7 25/23/7 24/24/8
f 37/25/9 36/26/8 24/27/8 23/28/9
f 30/29/10 37/30/9 23/31/9 22/32/10
f 7/33/11 6/34/12 21/35/12 27/36/11
f 2/37/13 7/38/11 27/39/11 3/40/13
f 14/41/1 19/42/1 13/43/1
f 14/41/1 9/1/1 17/4/1 18/44/1
f 18/44/1 19/42/1 14/41/1
f 9/45/14 8/46/2 20/47/2 15/48/14
f 23/49/4 27/50/4 21/51/4 22/52/4
f 25/53/4 26/10/4 20/9/4 4/54/4
f 3/55/4 24/56/4 25/53/4 4/54/4
f 23/49/4 24/56/4 3/55/4 27/50/4
f 30/57/15 22/58/15 21/59/15 6/60/15
f 12/61/15 29/52/15 30/57/15 6/60/15
f 12/61/15 28/42/15 29/52/15
f 12/61/15 11/43/15 28/42/15
f 28/42/16 11/43/16 13/62/16 19/63/16
f 1/64/3 2/65/13 3/66/13 4/67/3
usemtl Grass
f 29/68/17 28/42/17 19/69/17 18/70/17
f 34/10/4 35/53/4 38/71/4
f 38/72/15 30/57/15 29/52/15 32/71/15
f 32/42/18 31/71/18 33/72/18 38/73/18
f 18/70/17 31/74/17 32/63/17 29/68/17
f 31/63/1 18/44/1 17/4/1 33/75/1
f 37/49/4 30/52/4 38/71/4
f 34/10/4 33/76/4 17/11/4
f 36/56/4 37/49/4 38/71/4
f 38/71/4 33/76/4 34/10/4
f 35/53/4 36/56/4 38/71/4
usemtl Asphalt
f 5/77/15 11/43/15 12/61/15 6/60/15
f 5/42/4 7/50/4 2/55/4
f 10/78/16 13/62/16 11/43/16 5/77/16
f 9/1/1 14/41/1 13/43/1 10/77/1
f 2/55/4 10/69/4 5/42/4
f 10/69/4 8/9/4 9/12/4
f 10/69/4 2/55/4 1/54/4
f 5/42/4 6/51/4 7/50/4
f 1/54/4 8/9/4 10/69/4
