# Blender v2.75 (sub 0) OBJ File: ''
# www.blender.org
mtllib roadTile_229.mtl
o Mesh1_Group1_Model.005
v 0.000000 1.150000 -1.875000
v 0.000000 0.850000 -1.875000
v 0.000000 0.850000 -0.375000
v 0.000000 1.150000 -0.375000
v 0.000000 0.550000 -2.250000
v 0.000000 0.550000 0.000000
v 0.000000 1.180000 0.000000
v 0.000000 1.180000 -0.375000
v 0.000000 1.180000 -1.875000
v 0.000000 1.180000 -2.250000
v 3.000000 0.000000 -0.000000
v 3.000000 0.000000 -2.250000
v 3.000000 0.630000 0.000000
v 3.000000 0.630000 -2.250000
v 3.000000 0.630000 -1.875000
v 3.000000 0.600000 -1.875000
v 3.000000 0.300000 -1.875000
v 3.000000 0.300000 -0.375000
v 3.000000 0.600000 -0.375000
v 3.000000 0.630000 -0.375000
vt -1.875000 0.850000
vt -1.875000 1.150000
vt -2.250000 1.180000
vt -2.250000 0.550000
vt 0.000000 0.550000
vt -0.375000 0.850000
vt 0.000000 1.180000
vt 3.000000 -0.000000
vt 3.000000 0.630000
vt 0.375000 0.300000
vt 0.375000 0.600000
vt 0.000000 0.630000
vt 0.000000 0.000000
vt 2.250000 0.000000
vt 1.875000 0.300000
vt 1.875000 -2.837210
vt 2.250000 -2.837210
vt 2.250000 0.212787
vt 1.875000 0.212787
vt 0.000000 1.150000
vt 3.000000 0.600000
vt -3.000000 0.600000
vt -3.000000 0.630000
vt 0.375000 0.212787
vt 0.000000 0.212787
vt 0.000000 -2.837210
vt 0.375000 -2.837210
vt -0.375000 1.150000
vt -1.875000 1.180000
vt -0.000000 -2.950820
vt 0.000000 0.099180
vt -2.250000 0.099180
vt -2.250000 -2.950820
vt -0.375000 1.180000
vt 2.250000 0.630000
vt 1.875000 0.600000
vt 0.375000 0.630000
vt -3.000000 0.000000
vt 1.875000 0.630000
vt 1.875000 -2.842620
vt 1.875000 0.207377
vt 0.375000 0.207377
vt 0.375000 -2.842620
vn -1.000000 -0.000000 -0.000000
vn 0.000000 -0.000000 1.000000
vn 1.000000 -0.000000 0.000000
vn 0.180300 0.983600 0.000000
vn 0.000000 0.000000 -1.000000
vn -0.180300 -0.983600 -0.000000
usemtl Stone
s 1
f 2/1/1 1/2/1 10/3/1 5/4/1
f 5/4/1 6/5/1 3/6/1
f 7/7/2 6/5/2 11/8/2 13/9/2
f 18/10/3 19/11/3 13/12/3 11/13/3
f 11/13/3 12/14/3 17/15/3
f 15/16/4 14/17/4 10/18/4 9/19/4
f 9/7/2 1/20/2 16/21/2 15/9/2
f 19/22/5 4/20/5 8/7/5 20/23/5
f 8/24/4 7/25/4 13/26/4 20/27/4
f 6/5/1 7/7/1 4/28/1 3/6/1
f 10/3/1 1/2/1 9/29/1
f 11/30/6 6/31/6 5/32/6 12/33/6
f 7/7/1 8/34/1 4/28/1
f 3/6/1 2/1/1 5/4/1
f 12/14/3 14/35/3 16/36/3 17/15/3
f 13/12/3 19/11/3 20/37/3
f 10/7/5 14/23/5 12/38/5 5/5/5
f 14/35/3 15/39/3 16/36/3
f 17/15/3 18/10/3 11/13/3
usemtl Asphalt
f 16/40/4 1/41/4 4/42/4 19/43/4
f 16/36/3 19/11/3 18/10/3 17/15/3
f 1/2/1 2/1/1 3/6/1 4/28/1
