# Blender v2.75 (sub 0) OBJ File: ''
# www.blender.org
mtllib roadTile_081.mtl
o Mesh1_Group1_Model.276
v 3.000000 0.455000 0.000000
v 1.875000 0.455000 0.000000
v 1.875000 0.000000 -0.000000
v 3.000000 0.000000 -0.000000
v 0.000000 0.455000 -3.000000
v 0.000000 0.455000 -1.875000
v 0.244737 0.455000 -1.858960
v 0.485286 0.455000 -1.811110
v 0.717531 0.455000 -1.732270
v 0.937500 0.455000 -1.623800
v 1.141430 0.455000 -1.487540
v 1.325830 0.455000 -1.325830
v 1.487540 0.455000 -1.141430
v 1.623800 0.455000 -0.937500
v 1.732270 0.455000 -0.717531
v 1.811110 0.455000 -0.485286
v 1.858960 0.455000 -0.244737
v 3.000000 0.455000 -3.000000
v 0.000000 0.000000 -3.000000
v 0.000000 0.000000 -1.875000
v 0.375000 0.000000 -0.000000
v 0.000000 0.000000 0.000000
v 0.000000 0.000000 -0.375000
v 0.000000 0.000000 -0.750000
v 3.000000 0.000000 -3.000000
v 0.750000 0.000000 -0.000000
v 0.375000 0.550000 0.000000
v 0.000000 0.550000 0.000000
v 0.375000 0.630000 0.000000
v 0.750000 0.455000 0.000000
v 0.750000 0.630000 0.000000
v 0.371792 0.550000 -0.048947
v 0.371792 0.630000 -0.048947
v 0.362222 0.550000 -0.097057
v 0.346455 0.550000 -0.143506
v 0.324760 0.550000 -0.187500
v 0.297508 0.550000 -0.228286
v 0.265165 0.550000 -0.265165
v 0.228286 0.550000 -0.297508
v 0.187500 0.550000 -0.324760
v 0.143506 0.550000 -0.346455
v 0.097057 0.550000 -0.362222
v 0.048947 0.550000 -0.371792
v 0.000000 0.550000 -0.375000
v 0.362222 0.630000 -0.097057
v 0.000000 0.630000 -0.750000
v 0.000000 0.630000 -0.375000
v 0.048947 0.630000 -0.371792
v 0.097057 0.630000 -0.362222
v 0.143506 0.630000 -0.346455
v 0.187500 0.630000 -0.324760
v 0.228286 0.630000 -0.297508
v 0.265165 0.630000 -0.265165
v 0.297508 0.630000 -0.228286
v 0.324760 0.630000 -0.187500
v 0.346455 0.630000 -0.143506
v 0.743584 0.630000 -0.097895
v 0.724444 0.630000 -0.194114
v 0.692910 0.630000 -0.287013
v 0.649519 0.630000 -0.375000
v 0.595015 0.630000 -0.456571
v 0.530330 0.630000 -0.530330
v 0.456571 0.630000 -0.595015
v 0.375000 0.630000 -0.649519
v 0.287013 0.630000 -0.692910
v 0.194114 0.630000 -0.724444
v 0.097895 0.630000 -0.743584
v 0.000000 0.455000 -0.750000
v 0.097895 0.455000 -0.743584
v 0.194114 0.455000 -0.724444
v 0.287013 0.455000 -0.692910
v 0.375000 0.455000 -0.649519
v 0.456571 0.455000 -0.595015
v 0.530330 0.455000 -0.530330
v 0.595015 0.455000 -0.456571
v 0.649519 0.455000 -0.375000
v 0.692910 0.455000 -0.287013
v 0.724444 0.455000 -0.194114
v 0.743584 0.455000 -0.097895
vt -3.000000 0.000000
vt -1.875000 0.000000
vt -1.875000 0.455000
vt -3.000000 0.455000
vt 3.000000 3.000000
vt 1.325830 1.325830
vt 1.487540 1.141430
vt -0.000000 -0.000000
vt -0.000000 0.455000
vt 3.000000 0.000000
vt 3.000000 0.455000
vt 0.937500 1.623800
vt 0.000000 3.000000
vt 1.858960 0.244737
vt 1.875000 0.000000
vt 0.000000 1.875000
vt 0.244737 1.858960
vt 1.811110 0.485286
vt 0.485286 1.811110
vt 1.732270 0.717531
vt 0.717531 1.732270
vt 1.623800 0.937500
vt 1.141430 1.487540
vt 1.875000 0.455000
vt 0.375000 0.550000
vt 0.750000 0.455000
vt 0.750000 0.630000
vt 0.375000 0.630000
vt -0.024526 0.550000
vt 0.024526 0.550000
vt 0.024526 0.630000
vt -0.024526 0.630000
vt 0.000000 0.750000
vt 0.000000 0.375000
vt 0.048947 0.371792
vt 0.097895 0.743584
vt -0.049052 0.455000
vt 0.049052 0.455000
vt 0.049052 0.630000
vt -0.049052 0.630000
vt 0.375000 0.000000
vt 0.750000 0.000000
vt 0.194114 0.724444
vt 0.097057 0.362222
vt 0.143506 0.346455
vt 0.287013 0.692910
vt 0.375000 0.649519
vt 0.187500 0.324760
vt 0.228286 0.297508
vt 0.456571 0.595015
vt 0.265165 0.265165
vt 0.297508 0.228286
vt 0.595015 0.456571
vt 0.530330 0.530330
vt 0.324760 0.187500
vt 0.649519 0.375000
vt 0.724444 0.194114
vt 0.692910 0.287013
vt 0.346455 0.143506
vt 0.362222 0.097057
vt 0.743584 0.097895
vt 0.371792 0.048947
vt -0.375000 0.000000
vt -0.375000 0.550000
vt -0.750000 0.455000
vt -0.750000 0.000000
vt -0.375000 0.630000
vt -0.750000 0.630000
vt 0.000000 0.550000
vt -3.000000 3.000000
vn -1.000000 -0.000000 -0.000000
vn -0.000000 1.000000 0.000000
vn 0.000000 0.000000 -1.000000
vn 1.000000 0.000000 0.000000
vn -0.000000 -0.000000 1.000000
vn -0.965900 -0.000000 0.258800
vn -0.991400 -0.000000 0.130500
vn -0.065400 0.000000 0.997900
vn -0.130500 0.000000 0.991400
vn -0.258800 0.000000 0.965900
vn -0.382700 0.000000 0.923900
vn -0.500000 0.000000 0.866000
vn -0.608800 0.000000 0.793400
vn -0.707100 0.000000 0.707100
vn -0.793400 0.000000 0.608800
vn -0.866000 0.000000 0.500000
vn -0.923900 0.000000 0.382700
vn 0.130500 0.000000 -0.991400
vn 0.065400 0.000000 -0.997900
vn 0.258800 0.000000 -0.965900
vn 0.382700 0.000000 -0.923900
vn 0.500000 0.000000 -0.866000
vn 0.608800 0.000000 -0.793400
vn 0.707100 0.000000 -0.707100
vn 0.793400 0.000000 -0.608800
vn 0.866000 0.000000 -0.500000
vn 0.923900 0.000000 -0.382700
vn 0.965900 0.000000 -0.258800
vn 0.991400 0.000000 -0.130500
vn 0.997900 0.000000 -0.065400
vn -0.997900 0.000000 0.065400
vn -0.000000 -1.000000 -0.000000
usemtl Water.042
s 1
f 19/1/1 20/2/1 6/3/1 5/4/1
f 18/5/2 12/6/2 13/7/2
f 19/8/3 5/9/3 18/4/3 25/1/3
f 1/9/4 4/8/4 25/10/4 18/11/4
f 10/12/2 18/5/2 5/13/2
f 17/14/2 2/15/2 1/10/2
f 5/13/2 6/16/2 7/17/2
f 16/18/2 17/14/2 1/10/2
f 5/13/2 7/17/2 8/19/2
f 15/20/2 16/18/2 1/10/2
f 5/13/2 8/19/2 9/21/2
f 14/22/2 15/20/2 1/10/2
f 5/13/2 9/21/2 10/12/2
f 18/5/2 14/22/2 1/10/2
f 18/5/2 10/12/2 11/23/2
f 18/5/2 13/7/2 14/22/2
f 18/5/2 11/23/2 12/6/2
f 1/11/5 2/24/5 3/15/5 4/10/5
usemtl Stone.240
f 27/25/5 30/26/5 31/27/5 29/28/5
f 34/29/6 32/30/7 33/31/7 45/32/6
f 46/33/2 47/34/2 48/35/2 67/36/2
f 44/29/8 43/30/9 48/31/9 47/32/8
f 43/29/9 42/30/10 49/31/10 48/32/9
f 42/29/10 41/30/11 50/31/11 49/32/10
f 41/29/11 40/30/12 51/31/12 50/32/11
f 40/29/12 39/30/13 52/31/13 51/32/12
f 39/29/13 38/30/14 53/31/14 52/32/13
f 38/29/14 37/30/15 54/31/15 53/32/14
f 37/29/15 36/30/16 55/31/16 54/32/15
f 36/29/16 35/30/17 56/31/17 55/32/16
f 35/29/17 34/30/6 45/31/6 56/32/17
f 69/37/18 68/38/19 46/39/19 67/40/18
f 70/37/20 69/38/18 67/39/18 66/40/20
f 71/37/21 70/38/20 66/39/20 65/40/21
f 72/37/22 71/38/21 65/39/21 64/40/22
f 73/37/23 72/38/22 64/39/22 63/40/23
f 74/37/24 73/38/23 63/39/23 62/40/24
f 75/37/25 74/38/24 62/39/24 61/40/25
f 76/37/26 75/38/25 61/39/25 60/40/26
f 77/37/27 76/38/26 60/39/26 59/40/27
f 78/37/28 77/38/27 59/39/27 58/40/28
f 79/37/29 78/38/28 58/39/28 57/40/29
f 30/37/30 79/38/29 57/39/29 31/40/30
f 30/26/5 27/25/5 21/41/5 26/42/5
f 32/29/7 27/30/31 29/31/31 33/32/7
f 66/43/2 49/44/2 50/45/2 65/46/2
f 64/47/2 51/48/2 52/49/2 63/50/2
f 53/51/2 54/52/2 61/53/2 62/54/2
f 61/53/2 54/52/2 55/55/2 60/56/2
f 58/57/2 59/58/2 56/59/2 45/60/2
f 57/61/2 33/62/2 29/41/2 31/42/2
f 49/44/2 66/43/2 67/36/2 48/35/2
f 57/61/2 58/57/2 45/60/2 33/62/2
f 51/48/2 64/47/2 65/46/2 50/45/2
f 59/58/2 60/56/2 55/55/2 56/59/2
f 53/51/2 62/54/2 63/50/2 52/49/2
f 23/63/1 44/64/1 68/65/1 24/66/1
f 68/65/1 44/64/1 47/67/1 46/68/1
usemtl Grass.114
f 22/8/5 21/41/5 27/25/5 28/69/5
f 3/2/32 20/16/32 25/70/32
f 28/8/2 37/52/2 38/51/2
f 20/16/32 3/2/32 26/66/32
f 21/63/32 22/8/32 23/34/32
f 25/70/32 4/1/32 3/2/32
f 26/66/32 21/63/32 23/34/32
f 26/66/32 24/33/32 20/16/32
f 20/16/32 19/13/32 25/70/32
f 24/33/32 26/66/32 23/34/32
f 43/35/2 44/34/2 28/8/2
f 28/8/2 42/44/2 43/35/2
f 28/8/2 40/48/2 41/45/2
f 28/8/2 38/51/2 39/49/2
f 28/8/2 36/55/2 37/52/2
f 28/8/2 34/60/2 35/59/2
f 28/8/2 27/41/2 32/62/2
f 41/45/2 42/44/2 28/8/2
f 28/8/2 39/49/2 40/48/2
f 28/8/2 35/59/2 36/55/2
f 34/60/2 28/8/2 32/62/2
f 28/69/1 44/64/1 23/63/1 22/8/1
usemtl Sand.005
f 69/36/2 7/17/2 6/16/2 68/33/2
f 68/65/1 6/3/1 20/2/1 24/66/1
f 17/14/2 79/61/2 30/42/2 2/15/2
f 70/43/2 8/19/2 7/17/2 69/36/2
f 71/46/2 9/21/2 8/19/2 70/43/2
f 17/14/2 16/18/2 78/57/2 79/61/2
f 72/47/2 10/12/2 9/21/2 71/46/2
f 73/50/2 11/23/2 10/12/2 72/47/2
f 15/20/2 77/58/2 78/57/2 16/18/2
f 74/54/2 12/6/2 11/23/2 73/50/2
f 15/20/2 14/22/2 76/56/2 77/58/2
f 75/53/2 76/56/2 14/22/2 13/7/2
f 74/54/2 75/53/2 13/7/2 12/6/2
f 26/42/5 3/15/5 2/24/5 30/26/5
