# Blender v2.75 (sub 0) OBJ File: ''
# www.blender.org
mtllib roadTile_098.mtl
o Mesh1_Group1_Model.147
v 3.000000 0.630000 -3.000000
v 3.000000 0.000000 -3.000000
v 0.000000 0.000000 -3.000000
v 0.000000 0.630000 -3.000000
v 3.000000 0.000000 0.000000
v 3.000000 0.630000 -2.250000
v 3.000000 0.600000 -2.250000
v 3.000000 0.300000 -2.250000
v 3.000000 0.300000 -0.750000
v 3.000000 0.600000 -0.750000
v 3.000000 0.630000 -0.750000
v 3.000000 0.630000 0.000000
v 0.000000 0.000000 -0.000000
v 0.000000 0.630000 0.000000
v 0.000000 0.630000 -0.750000
v 0.000000 0.600000 -0.750000
v 0.000000 0.300000 -0.750000
v 0.000000 0.300000 -2.250000
v 0.000000 0.600000 -2.250000
v 0.000000 0.630000 -2.250000
v 0.000000 0.600000 -0.937500
v 3.000000 0.600000 -0.937500
v 0.000000 0.570000 -0.937500
v 0.000000 0.570000 -1.125000
v 0.000000 0.600000 -1.125000
v 0.000000 0.600000 -1.875000
v 0.000000 0.570000 -1.875000
v 0.000000 0.570000 -2.062500
v 0.000000 0.600000 -2.062500
v 3.000000 0.570000 -0.937500
v 3.000000 0.600000 -2.062500
v 3.000000 0.570000 -2.062500
v 3.000000 0.570000 -1.875000
v 3.000000 0.600000 -1.875000
v 3.000000 0.600000 -1.125000
v 3.000000 0.570000 -1.125000
vt 0.750000 0.300000
vt 0.750000 0.600000
vt 0.000000 0.630000
vt 0.000000 -0.000000
vt 3.000000 -0.000000
vt 2.250000 0.300000
vt 3.000000 0.630000
vt -0.750000 0.600000
vt -0.750000 0.300000
vt -3.000000 0.000000
vt -3.000000 0.600000
vt -0.000000 0.600000
vt -3.000000 0.630000
vt 3.000000 0.600000
vt -0.000000 3.000000
vt 0.000000 2.250000
vt 3.000000 2.250000
vt 3.000000 3.000000
vt 2.250000 0.600000
vt 0.750000 0.630000
vt -3.000000 3.000000
vt 2.250000 0.630000
vt -2.250000 0.600000
vt -2.250000 0.630000
vt -2.250000 0.300000
vt 3.000000 0.750000
vt 0.000000 0.750000
vt -0.750000 0.630000
vt 3.000000 0.570000
vt 0.000000 0.570000
vt 0.000000 1.875000
vt 3.000000 1.875000
vt 3.000000 2.062500
vt 0.000000 2.062500
vt -3.000000 0.570000
vt 0.000000 1.125000
vt 0.000000 0.937500
vt 3.000000 0.937500
vt 3.000000 1.125000
vt -1.125000 0.570000
vt -1.125000 0.600000
vt -1.875000 0.600000
vt -1.875000 0.570000
vt 1.875000 0.570000
vt 1.875000 0.600000
vt 1.125000 0.600000
vt 1.125000 0.570000
vt -2.062500 0.570000
vt -2.062500 0.600000
vt -0.937500 0.570000
vt -0.937500 0.600000
vt 0.937500 0.570000
vt 0.937500 0.600000
vt 2.062500 0.570000
vt 2.062500 0.600000
vn 1.000000 0.000000 0.000000
vn -0.000000 -0.000000 1.000000
vn -1.000000 0.000000 0.000000
vn 0.000000 0.000000 -1.000000
vn 0.000000 1.000000 0.000000
vn -0.000000 -1.000000 -0.000000
usemtl Stone.129
s 1
f 9/1/1 10/2/1 12/3/1 5/4/1
f 5/4/1 2/5/1 8/6/1
f 14/3/2 13/4/2 5/5/2 12/7/2
f 13/4/3 14/3/3 16/8/3 17/9/3
f 3/10/3 13/4/3 17/9/3
f 10/11/4 16/12/4 15/3/4 11/13/4
f 19/12/2 7/14/2 6/7/2 20/3/2
f 4/15/5 20/16/5 6/17/5 1/18/5
f 2/5/1 1/7/1 7/19/1 8/6/1
f 12/3/1 10/2/1 11/20/1
f 3/15/6 2/21/6 5/10/6 13/4/6
f 1/7/1 6/22/1 7/19/1
f 8/6/1 9/1/1 5/4/1
f 19/23/3 20/24/3 4/13/3
f 4/13/3 3/10/3 18/25/3 19/23/3
f 12/5/5 11/26/5 15/27/5 14/4/5
f 14/3/3 15/28/3 16/8/3
f 17/9/3 18/25/3 3/10/3
f 1/13/4 2/10/4 3/4/4 4/3/4
usemtl Grey_Asphalt.012
f 32/29/2 31/14/2 29/12/2 28/30/2
f 27/31/5 33/32/5 32/33/5 28/34/5
f 26/12/4 34/11/4 33/35/4 27/30/4
f 35/14/2 25/12/2 24/30/2 36/29/2
f 24/36/5 23/37/5 30/38/5 36/39/5
f 21/12/4 22/11/4 30/35/4 23/30/4
usemtl Asphalt.109
f 21/37/5 16/27/5 10/26/5 22/38/5
f 24/40/3 25/41/3 26/42/3 27/43/3
f 18/25/3 17/9/3 27/43/3
f 33/44/1 34/45/1 35/46/1 36/47/1
f 9/1/1 8/6/1 36/47/1
f 26/31/5 25/36/5 35/39/5 34/32/5
f 28/48/3 19/23/3 18/25/3
f 28/48/3 29/49/3 19/23/3
f 27/43/3 28/48/3 18/25/3
f 23/50/3 17/9/3 16/8/3
f 16/8/3 21/51/3 23/50/3
f 17/9/3 24/40/3 27/43/3
f 24/40/3 17/9/3 23/50/3
f 30/52/1 10/2/1 9/1/1
f 31/33/5 7/17/5 19/16/5 29/34/5
f 30/52/1 22/53/1 10/2/1
f 36/47/1 30/52/1 9/1/1
f 32/54/1 8/6/1 7/19/1
f 7/19/1 31/55/1 32/54/1
f 8/6/1 33/44/1 36/47/1
f 33/44/1 8/6/1 32/54/1
