# Blender v2.75 (sub 0) OBJ File: ''
# www.blender.org
mtllib roadTile_293.mtl
o Mesh1_Group1_Model.265
v 3.000000 1.230000 -0.375000
v 3.000000 0.930000 -0.375000
v 3.000000 0.930000 -1.875000
v 3.000000 1.230000 -1.875000
v 3.000000 0.630000 0.000000
v 3.000000 0.630000 -2.250000
v 3.000000 1.260000 -2.250000
v 3.000000 1.260000 -1.875000
v 3.000000 1.260000 -0.375000
v 3.000000 1.260000 0.000000
v 1.875000 0.630000 -1.406250
v 1.875000 0.630000 -0.843750
v 1.125000 0.630000 -0.843750
v 0.000000 0.630000 0.000000
v 0.000000 1.260000 0.000000
v 0.000000 1.260000 -0.375000
v 0.000000 0.630000 -2.250000
v 0.000000 1.230000 -0.375000
v 0.000000 0.930000 -0.375000
v 0.000000 0.930000 -1.875000
v 0.000000 1.230000 -1.875000
v 0.000000 1.260000 -1.875000
v 0.000000 1.260000 -2.250000
v 1.125000 0.630000 -1.406250
v 1.875000 0.000000 -1.406250
v 1.125000 0.000000 -1.406250
v 1.125000 0.000000 -0.843750
v 1.875000 0.000000 -0.843750
vt 0.375000 0.930000
vt 0.375000 1.230000
vt -0.000000 1.260000
vt -0.000000 0.630000
vt 2.250000 0.630000
vt 1.875000 0.930000
vt -3.000000 0.000000
vt -1.125000 0.843750
vt -1.875000 0.843750
vt -0.000000 -0.000000
vt 0.000000 0.375000
vt 3.000000 0.000000
vt 3.000000 0.375000
vt -1.875000 0.930000
vt -1.875000 1.230000
vt -2.250000 1.260000
vt -2.250000 0.630000
vt -0.375000 0.930000
vt -1.875000 1.406250
vt -3.000000 2.250000
vt -1.125000 1.406250
vt -0.000000 2.250000
vt 3.000000 1.875000
vt 3.000000 2.250000
vt 0.000000 1.875000
vt 0.000000 1.230000
vt 3.000000 1.230000
vt 3.000000 1.260000
vt -3.000000 1.230000
vt -3.000000 1.260000
vt -1.875000 -0.000000
vt -1.125000 -0.000000
vt -1.125000 0.630000
vt -1.875000 0.630000
vt -1.406250 0.630000
vt -1.406250 0.000000
vt -0.843750 0.000000
vt -0.843750 0.630000
vt 1.125000 0.000000
vt 1.875000 0.000000
vt 1.875000 0.630000
vt 1.125000 0.630000
vt 0.843750 0.630000
vt 0.843750 0.000000
vt 1.406250 0.000000
vt 1.406250 0.630000
vt 2.250000 1.260000
vt 1.875000 1.230000
vt 0.375000 1.260000
vt 3.000000 0.630000
vt 1.875000 1.260000
vt -0.375000 1.230000
vt -1.875000 1.260000
vt -3.000000 0.630000
vt -0.375000 1.260000
vn 1.000000 -0.000000 0.000000
vn 0.000000 -1.000000 -0.000000
vn 0.000000 1.000000 0.000000
vn -1.000000 -0.000000 0.000000
vn 0.000000 0.000000 1.000000
vn 0.000000 0.000000 -1.000000
usemtl Stone
s 1
f 2/1/1 1/2/1 10/3/1 5/4/1
f 5/4/1 6/5/1 3/6/1
f 5/7/2 13/8/2 12/9/2
f 13/8/2 5/7/2 14/10/2
f 16/11/3 15/10/3 10/12/3 9/13/3
f 20/14/4 21/15/4 23/16/4 17/17/4
f 17/17/4 14/4/4 19/18/4
f 5/7/2 12/9/2 11/19/2 6/20/2
f 24/21/2 17/22/2 6/20/2
f 8/23/3 7/24/3 23/22/3 22/25/3
f 21/26/5 4/27/5 8/28/5 22/3/5
f 1/29/6 18/26/6 16/3/6 9/30/6
f 24/21/2 11/19/2 12/9/2 13/8/2
f 24/21/2 6/20/2 11/19/2
f 25/31/6 26/32/6 24/33/6 11/34/6
f 27/8/2 26/21/2 25/19/2 28/9/2
f 24/35/4 26/36/4 27/37/4 13/38/4
f 27/39/5 28/40/5 12/41/5 13/42/5
f 12/43/1 28/44/1 25/45/1 11/46/1
f 6/5/1 7/47/1 4/48/1 3/6/1
f 10/3/1 1/2/1 9/49/1
f 10/28/5 15/3/5 14/4/5 5/50/5
f 7/47/1 8/51/1 4/48/1
f 3/6/1 2/1/1 5/4/1
f 14/4/4 15/3/4 18/52/4 19/18/4
f 23/16/4 21/15/4 22/53/4
f 7/30/6 6/54/6 17/4/6 23/3/6
f 15/3/4 16/55/4 18/52/4
f 19/18/4 20/14/4 17/17/4
f 24/21/2 13/8/2 14/10/2 17/22/2
usemtl Asphalt
f 1/2/1 2/1/1 3/6/1 4/48/1
f 18/11/3 1/13/3 4/23/3 21/25/3
f 20/14/4 19/18/4 18/52/4 21/15/4
