# Blender v2.75 (sub 0) OBJ File: ''
# www.blender.org
mtllib roadTile_079.mtl
o Mesh1_Group1_Model.272
v 2.437500 0.630000 -0.974279
v 2.569480 0.630000 -1.039360
v 2.569480 0.600000 -1.039360
v 2.437500 0.600000 -0.974279
v 3.000000 0.630000 0.000000
v 3.000000 0.630000 -1.125000
v 2.853160 0.630000 -1.115380
v 2.708830 0.630000 -1.086670
v 2.315140 0.630000 -0.892522
v 2.204500 0.630000 -0.795495
v 2.107480 0.630000 -0.684857
v 2.025720 0.630000 -0.562500
v 1.960640 0.630000 -0.430519
v 1.913330 0.630000 -0.291171
v 1.884620 0.630000 -0.146842
v 1.875000 0.630000 0.000000
v 3.000000 0.600000 -1.875000
v 3.000000 0.300000 -1.875000
v 3.000000 0.300000 -1.125000
v 3.000000 0.600000 -1.125000
v 3.000000 0.000000 0.000000
v 3.000000 0.000000 -3.000000
v 3.000000 0.630000 -3.000000
v 3.000000 0.630000 -1.875000
v 0.000000 0.600000 -1.875000
v 0.000000 0.600000 -1.125000
v 1.501490 0.600000 -1.125000
v 1.376200 0.600000 -0.937500
v 1.267730 0.600000 -0.717531
v 1.188890 0.600000 -0.485286
v 1.141040 0.600000 -0.244737
v 1.125000 0.600000 0.000000
v 1.875000 0.600000 0.000000
v 1.884620 0.600000 -0.146842
v 1.913330 0.600000 -0.291171
v 1.960640 0.600000 -0.430519
v 2.025720 0.600000 -0.562500
v 2.107480 0.600000 -0.684857
v 2.204500 0.600000 -0.795495
v 2.315140 0.600000 -0.892522
v 2.708830 0.600000 -1.086670
v 2.853160 0.600000 -1.115380
v 0.000000 0.630000 -1.875000
v 0.000000 0.630000 -3.000000
v 0.000000 0.300000 -1.125000
v 0.000000 0.300000 -1.875000
v 0.000000 0.000000 -3.000000
v 0.000000 0.000000 0.000000
v 0.000000 0.630000 0.000000
v 0.000000 0.630000 -1.125000
v 1.875000 0.300000 0.000000
v 1.125000 0.300000 0.000000
v 1.125000 0.630000 0.000000
v 1.141040 0.630000 -0.244737
v 1.376200 0.630000 -0.937500
v 1.501490 0.630000 -1.125000
v 1.188890 0.630000 -0.485286
v 1.267730 0.630000 -0.717531
vt 1.125000 0.300000
vt 1.125000 0.600000
vt 0.000000 0.630000
vt 0.000000 0.000000
vt 3.000000 -0.000000
vt 2.315140 0.892522
vt 2.204500 0.795495
vt 1.875000 0.300000
vt 0.000000 3.000000
vt 0.000000 1.875000
vt 3.000000 1.875000
vt 3.000000 3.000000
vt -1.125000 0.600000
vt -1.125000 0.300000
vt -1.875000 0.300000
vt -3.000000 0.000000
vt -3.000000 0.630000
vt -3.000000 3.000000
vt -0.511692 0.630000
vt -0.658849 0.630000
vt -0.658849 0.600000
vt -0.511692 0.600000
vt -0.890740 0.630000
vt -1.037900 0.630000
vt -1.037900 0.600000
vt -0.890740 0.600000
vt -1.253290 0.630000
vt -1.400440 0.630000
vt -1.400440 0.600000
vt -1.253290 0.600000
vt -1.593130 0.630000
vt -1.740290 0.630000
vt -1.740290 0.600000
vt -1.593130 0.600000
vt -1.904460 0.630000
vt -2.051620 0.630000
vt -2.051620 0.600000
vt -1.904460 0.600000
vt -2.181940 0.630000
vt -2.329100 0.630000
vt -2.329100 0.600000
vt -2.181940 0.600000
vt -2.420830 0.630000
vt -2.567990 0.630000
vt -2.567990 0.600000
vt -2.420830 0.600000
vt 0.318840 0.630000
vt 0.073578 0.630000
vt 0.073578 0.600000
vt 0.318840 0.600000
vt -0.000000 1.125000
vt 1.141040 0.244737
vt 1.188890 0.485286
vt -1.501490 0.630000
vt -1.501490 0.600000
vt 0.000000 0.600000
vt 1.449500 0.630000
vt 1.204240 0.630000
vt 1.204240 0.600000
vt 1.449500 0.600000
vt 1.086950 0.630000
vt 0.841688 0.630000
vt 0.841688 0.600000
vt 1.086950 0.600000
vt 0.707902 0.630000
vt 0.462640 0.630000
vt 0.462640 0.600000
vt 0.707902 0.600000
vt -2.767210 0.630000
vt -2.914370 0.630000
vt -2.914370 0.600000
vt -2.767210 0.600000
vt -2.868780 0.630000
vt -3.015930 0.630000
vt -3.015930 0.600000
vt -2.868780 0.600000
vt -2.920000 0.630000
vt -3.067160 0.630000
vt -3.067160 0.600000
vt -2.920000 0.600000
vt 1.884620 0.146842
vt 1.875000 -0.000000
vt 1.913330 0.291171
vt 2.025720 0.562500
vt 1.960640 0.430519
vt 2.107480 0.684857
vt 2.437500 0.974279
vt 2.708830 1.086670
vt 2.569480 1.039360
vt 3.000000 1.125000
vt 2.853160 1.115380
vt 3.000000 0.630000
vt 1.875000 0.630000
vt 1.875000 0.600000
vt 1.125000 0.630000
vt 3.000000 0.600000
vt -1.875000 0.600000
vt -1.125000 0.630000
vt -1.875000 0.630000
vt -0.122631 0.630000
vt -0.269788 0.630000
vt -0.269788 0.600000
vt -0.122631 0.600000
vt 1.125000 0.000000
vt 1.376200 0.937500
vt 1.501490 1.125000
vt 1.544080 0.600000
vt 1.769580 0.600000
vt 1.769580 0.630000
vt 1.544080 0.630000
vt 1.267730 0.717531
vt -2.617040 0.630000
vt -2.764200 0.630000
vt -2.764200 0.600000
vt -2.617040 0.600000
vn 1.000000 0.000000 0.000000
vn -0.000000 1.000000 0.000000
vn -1.000000 0.000000 0.000000
vn 0.000000 0.000000 -1.000000
vn 0.000000 -1.000000 -0.000000
vn 0.000000 -0.000000 1.000000
vn -0.991400 0.000000 -0.130500
vn -0.965900 0.000000 -0.258800
vn -0.923900 0.000000 -0.382700
vn -0.866000 0.000000 -0.500000
vn -0.793400 0.000000 -0.608800
vn -0.707100 0.000000 -0.707100
vn -0.608800 0.000000 -0.793400
vn -0.500000 0.000000 -0.866000
vn 0.991400 0.000000 0.130500
vn 0.997900 0.000000 0.065400
vn 0.866000 0.000000 0.500000
vn 0.923900 0.000000 0.382700
vn 0.965900 0.000000 0.258800
vn -0.382700 0.000000 -0.923900
vn -0.258800 0.000000 -0.965900
vn -0.130500 0.000000 -0.991400
vn -0.065400 0.000000 -0.997900
vn -0.997900 0.000000 -0.065400
vn 0.831500 0.000000 0.555600
usemtl Stone.236
s 1
f 19/1/1 20/2/1 5/3/1 21/4/1
f 5/5/2 9/6/2 10/7/2
f 18/8/1 19/1/1 21/4/1
f 44/9/2 43/10/2 24/11/2 23/12/2
f 48/4/3 49/3/3 26/13/3 45/14/3
f 45/14/3 46/15/3 47/16/3
f 23/17/4 22/16/4 47/4/4 44/3/4
f 22/18/5 21/16/5 48/4/5 47/9/5
f 52/1/6 32/2/6 49/3/6 48/4/6
f 52/1/6 21/5/6 51/8/6
f 15/19/7 14/20/8 35/21/8 34/22/7
f 14/23/8 13/24/9 36/25/9 35/26/8
f 13/27/9 12/28/10 37/29/10 36/30/9
f 12/31/10 11/32/11 38/33/11 37/34/10
f 11/35/11 10/36/12 39/37/12 38/38/11
f 10/39/12 9/40/13 40/41/13 39/42/12
f 9/43/13 1/44/14 4/45/14 40/46/13
f 54/47/15 53/48/16 32/49/16 31/50/15
f 50/51/2 49/4/2 54/52/2 57/53/2
f 50/3/4 56/54/4 27/55/4 26/56/4
f 55/57/17 58/58/18 29/59/18 28/60/17
f 58/61/18 57/62/19 30/63/19 29/64/18
f 57/65/19 54/66/15 31/67/15 30/68/19
f 2/69/20 8/70/21 41/71/21 3/72/20
f 8/73/21 7/74/22 42/75/22 41/76/21
f 7/77/22 6/78/23 20/79/23 42/80/22
f 15/81/2 16/82/2 5/5/2
f 5/5/2 14/83/2 15/81/2
f 5/5/2 12/84/2 13/85/2
f 5/5/2 10/7/2 11/86/2
f 5/5/2 1/87/2 9/6/2
f 5/5/2 8/88/2 2/89/2
f 5/5/2 6/90/2 7/91/2
f 13/85/2 14/83/2 5/5/2
f 5/5/2 11/86/2 12/84/2
f 5/5/2 2/89/2 1/87/2
f 8/88/2 5/5/2 7/91/2
f 23/92/1 24/93/1 17/94/1
f 22/5/1 23/92/1 17/94/1 18/8/1
f 20/2/1 6/95/1 5/3/1
f 21/4/1 22/5/1 18/8/1
f 24/92/6 43/3/6 25/56/6 17/96/6
f 46/15/3 25/97/3 44/17/3 47/16/3
f 26/13/3 49/3/3 50/98/3
f 25/97/3 43/99/3 44/17/3
f 47/16/3 48/4/3 45/14/3
f 21/5/6 5/92/6 33/94/6 51/8/6
f 49/3/6 32/2/6 53/95/6
f 5/92/6 16/93/6 33/94/6
f 16/100/24 15/101/7 34/102/7 33/103/24
f 21/5/6 52/1/6 48/4/6
f 49/4/2 53/104/2 54/52/2
f 55/105/2 56/106/2 50/51/2
f 28/107/17 27/108/25 56/109/25 55/110/17
f 58/111/2 55/105/2 50/51/2
f 50/51/2 57/53/2 58/111/2
f 1/112/14 2/113/20 3/114/20 4/115/14
usemtl Asphalt.194
f 34/81/2 31/52/2 32/104/2 33/82/2
f 32/2/6 52/1/6 51/8/6 33/94/6
f 20/2/1 19/1/1 18/8/1 17/94/1
f 30/53/2 31/52/2 34/81/2 35/83/2
f 42/91/2 20/90/2 17/11/2
f 29/111/2 30/53/2 35/83/2 36/85/2
f 41/88/2 42/91/2 17/11/2
f 37/84/2 28/105/2 29/111/2 36/85/2
f 3/89/2 41/88/2 17/11/2
f 28/105/2 37/84/2 38/86/2 27/106/2
f 4/87/2 3/89/2 17/11/2
f 27/106/2 4/87/2 17/11/2
f 27/106/2 38/86/2 39/7/2
f 27/106/2 40/6/2 4/87/2
f 27/106/2 25/10/2 26/51/2
f 17/11/2 25/10/2 27/106/2
f 27/106/2 39/7/2 40/6/2
f 25/97/3 46/15/3 45/14/3 26/13/3
