# Blender v2.75 (sub 0) OBJ File: ''
# www.blender.org
mtllib roadTile_264.mtl
o Mesh1_Group1_Model.190
v 0.750000 0.455000 -0.750001
v 0.750000 0.455000 -2.250000
v 0.750000 0.630000 -2.250000
v 0.750000 0.630000 -0.750001
v 3.000000 0.455000 -2.250000
v 3.000000 0.455000 -0.750001
v 3.000000 0.630000 -2.250000
v 3.000000 0.000000 -2.250000
v 3.000000 0.000000 -2.625000
v 3.000000 0.550000 -2.625000
v 3.000000 0.630000 -2.625000
v 3.000000 0.000000 -0.375000
v 3.000000 0.000000 0.000000
v 0.000000 0.000000 -0.000000
v 0.000000 0.000000 -3.000000
v 3.000000 0.000000 -3.000000
v 3.000000 0.000000 -0.750001
v 3.000000 0.550000 -0.375000
v 3.000000 0.550000 0.000000
v 3.000000 0.630000 -0.750001
v 3.000000 0.630000 -0.375000
v 0.375000 0.630000 -2.625000
v 0.375000 0.630000 -0.375000
v 0.375000 0.550000 -2.625000
v 0.375000 0.550000 -0.375000
v 3.000000 0.550000 -3.000000
v 0.000000 0.550000 -3.000000
v 0.000000 0.550000 -0.000000
vt 3.000000 0.455000
vt 3.000000 0.630000
vt 0.750000 0.630000
vt 0.750000 0.455000
vt 2.625000 0.000000
vt 2.625000 0.550000
vt 2.250000 0.455000
vt 2.250000 0.000000
vt 0.375000 0.550000
vt 0.375000 -0.000000
vt 0.750001 -0.000000
vt -3.000000 0.550000
vt -0.375000 0.550000
vt -0.375000 0.630000
vt -3.000000 0.630000
vt 0.750000 0.750001
vt 0.750000 2.250000
vt 0.375000 2.625000
vt -2.625000 0.550000
vt -2.625000 0.630000
vt 3.000000 0.550000
vt 0.375000 0.630000
vt 2.625000 0.630000
vt 2.250000 0.630000
vt -0.750000 0.455000
vt -0.750000 0.630000
vt -3.000000 0.455000
vt 3.000000 0.375000
vt 3.000000 0.750001
vt 3.000000 2.625000
vt 0.375000 0.375000
vt 3.000000 2.250000
vt 0.000000 3.000000
vt 3.000000 0.000000
vt -3.000000 0.000000
vt 0.000000 0.000000
vt 0.000000 0.550000
vt -3.000000 2.250000
vt -3.000000 0.750001
vt -3.000000 0.375000
vt -3.000000 2.625000
vt -3.000000 3.000000
vt 3.000000 3.000000
vn 0.000000 0.000000 1.000000
vn 1.000000 0.000000 0.000000
vn 0.000000 0.000000 -1.000000
vn -0.000000 1.000000 0.000000
vn -1.000000 0.000000 0.000000
vn 0.000000 -1.000000 -0.000000
usemtl Stone
s 1
f 5/1/1 7/2/1 3/3/1 2/4/1
f 9/5/2 10/6/2 5/7/2 8/8/2
f 6/4/2 18/9/2 12/10/2 17/11/2
f 10/12/3 24/13/3 22/14/3 11/15/3
f 4/16/4 3/17/4 22/18/4
f 24/19/5 25/13/5 23/14/5 22/20/5
f 25/9/1 18/21/1 21/2/1 23/22/1
f 5/7/2 10/6/2 11/23/2 7/24/2
f 6/4/2 20/3/2 21/22/2 18/9/2
f 1/25/3 4/26/3 20/15/3 6/27/3
f 21/28/4 20/29/4 4/16/4
f 3/17/4 11/30/4 22/18/4
f 23/31/4 21/28/4 4/16/4
f 3/17/4 7/32/4 11/30/4
f 22/18/4 23/31/4 4/16/4
f 1/4/2 2/7/2 3/24/2 4/3/2
usemtl Water
f 5/32/4 2/17/4 1/16/4 6/29/4
f 17/11/2 8/8/2 5/7/2 6/4/2
usemtl Grass
f 25/31/4 24/18/4 27/33/4
f 26/21/2 10/6/2 9/5/2 16/34/2
f 16/35/3 15/36/3 27/37/3 26/12/3
f 15/35/5 14/36/5 28/37/5 27/12/5
f 14/36/1 13/34/1 19/21/1 28/37/1
f 8/38/6 17/39/6 14/36/6 15/33/6
f 14/36/6 17/39/6 12/40/6
f 15/33/6 9/41/6 8/38/6
f 9/41/6 15/33/6 16/42/6
f 12/40/6 13/35/6 14/36/6
f 13/36/2 12/10/2 18/9/2 19/37/2
f 19/34/4 18/28/4 25/31/4
f 24/18/4 26/43/4 27/33/4
f 28/36/4 19/34/4 25/31/4
f 24/18/4 10/30/4 26/43/4
f 27/33/4 28/36/4 25/31/4
