# Blender v2.75 (sub 0) OBJ File: ''
# www.blender.org
mtllib roadTile_168.mtl
o Mesh1_Group1_Model.120
v 0.000000 0.000000 -0.000000
v 3.000000 0.000000 0.000000
v 3.000000 0.550000 0.000000
v 0.000000 0.550000 -0.000000
v 3.000000 0.000000 -0.750001
v 0.000000 0.000000 -3.000000
v 3.000000 0.000000 -3.000000
v 3.000000 0.000000 -2.250000
v 3.000000 0.455000 -0.750001
v 3.000000 0.550000 -0.750001
v 3.000000 0.455000 -2.250000
v 3.000000 0.550000 -3.000000
v 3.000000 0.550000 -2.250000
v 0.000000 0.550000 -3.000000
v 0.750000 0.550000 -0.750001
v 0.750000 0.550000 -2.250000
v 0.750000 0.455000 -0.750001
v 0.750000 0.455000 -2.250000
vt 3.000000 2.250000
vt 0.750000 2.250000
vt 0.750000 0.750001
vt 3.000000 0.750001
vt 0.750001 -0.000000
vt 2.250000 -0.000000
vt 2.250000 0.455000
vt 0.750001 0.455000
vt -3.000000 2.250000
vt -3.000000 0.750001
vt -0.000000 0.000000
vt -0.000000 3.000000
vt 3.000000 0.000000
vt 3.000000 0.550000
vt -3.000000 0.000000
vt -0.000000 0.550000
vt -3.000000 0.550000
vt -0.750000 0.455000
vt -0.750000 0.550000
vt -3.000000 0.455000
vt 2.250000 0.550000
vt 0.750001 0.550000
vt 3.000000 0.455000
vt -3.000000 3.000000
vt 3.000000 3.000000
vn 0.000000 1.000000 0.000000
vn 1.000000 0.000000 0.000000
vn 0.000000 -1.000000 -0.000000
vn -1.000000 0.000000 -0.000000
vn 0.000000 0.000000 -1.000000
vn 0.000000 0.000000 1.000000
usemtl Water.016
s 1
f 11/1/1 18/2/1 17/3/1 9/4/1
f 5/5/2 8/6/2 11/7/2 9/8/2
usemtl Grass.051
f 8/9/3 5/10/3 1/11/3 6/12/3
f 11/7/2 8/6/2 7/13/2 12/14/2
f 6/15/4 1/11/4 4/16/4 14/17/4
f 17/18/5 15/19/5 10/17/5 9/20/5
f 15/3/1 16/2/1 14/12/1
f 17/8/2 18/7/2 16/21/2 15/22/2
f 13/14/6 16/22/6 18/8/6 11/23/6
f 2/11/2 5/5/2 9/8/2 3/16/2
f 8/9/3 6/12/3 7/24/3
f 5/10/3 2/15/3 1/11/3
f 3/16/2 9/8/2 10/22/2
f 12/14/2 13/21/2 11/7/2
f 7/15/5 6/11/5 14/16/5 12/17/5
f 15/3/1 3/13/1 10/4/1
f 16/2/1 12/25/1 14/12/1
f 4/11/1 3/13/1 15/3/1
f 16/2/1 13/1/1 12/25/1
f 14/12/1 4/11/1 15/3/1
f 1/11/6 2/13/6 3/14/6 4/16/6
