# Blender v2.75 (sub 0) OBJ File: ''
# www.blender.org
mtllib roadTile_026.mtl
o Mesh1_Group1_Model.242
v 1.500000 0.600000 -2.250000
v 3.000000 0.600000 -2.250000
v 3.000000 0.630000 -2.250000
v 1.500000 0.630000 -2.250000
v 1.305890 0.600000 -0.775556
v 1.500000 0.600000 -0.750001
v 3.000000 0.600000 -0.750001
v 1.305890 0.600000 -2.224440
v 1.125000 0.600000 -2.149520
v 0.969670 0.600000 -2.030330
v 0.850481 0.600000 -1.875000
v 0.775556 0.600000 -1.694110
v 0.750000 0.600000 -1.500000
v 0.775556 0.600000 -1.305890
v 0.850481 0.600000 -1.125000
v 0.969670 0.600000 -0.969670
v 1.125000 0.600000 -0.850481
v 1.305890 0.630000 -0.775556
v 1.500000 0.630000 -0.750001
v 1.125000 0.630000 -0.850481
v 0.969670 0.630000 -0.969670
v 0.850481 0.630000 -1.125000
v 0.775556 0.630000 -1.305890
v 0.750000 0.630000 -1.500000
v 0.775556 0.630000 -1.694110
v 0.850481 0.630000 -1.875000
v 0.969670 0.630000 -2.030330
v 1.125000 0.630000 -2.149520
v 1.305890 0.630000 -2.224440
v 3.000000 0.630000 -2.625000
v 1.500000 0.630000 -2.625160
v 1.208810 0.630000 -2.586830
v 0.937459 0.630000 -2.474430
v 0.704447 0.630000 -2.295640
v 0.525650 0.630000 -2.062620
v 0.413254 0.630000 -1.791280
v 0.374918 0.630000 -1.500080
v 0.413254 0.630000 -1.208890
v 0.525650 0.630000 -0.937541
v 0.704447 0.630000 -0.704529
v 0.937459 0.630000 -0.525733
v 1.208810 0.630000 -0.413337
v 1.500000 0.630000 -0.375000
v 3.000000 0.630000 -0.375000
v 3.000000 0.630000 -0.750001
v 3.000000 0.000000 -0.375000
v 3.000000 0.000000 -2.625000
v 3.000000 0.550000 -2.625000
v 3.000000 0.300000 -2.250000
v 3.000000 0.300000 -0.750001
v 3.000000 0.550000 -0.375000
v 3.000000 0.000000 0.000000
v 0.000000 0.000000 -0.000000
v 0.000000 0.000000 -3.000000
v 3.000000 0.000000 -3.000000
v 3.000000 0.550000 0.000000
v 1.208810 0.550000 -2.586830
v 1.500000 0.550000 -2.625160
v 3.000000 0.550000 -3.000000
v 0.000000 0.550000 -3.000000
v 0.000000 0.550000 -0.000000
v 1.500000 0.550000 -0.375000
v 1.208810 0.550000 -0.413337
v 0.937459 0.550000 -0.525733
v 0.704447 0.550000 -0.704529
v 0.525650 0.550000 -0.937541
v 0.413254 0.550000 -1.208890
v 0.374918 0.550000 -1.500080
v 0.413254 0.550000 -1.791280
v 0.525650 0.550000 -2.062620
v 0.704447 0.550000 -2.295640
v 0.937459 0.550000 -2.474430
vt -0.909689 0.600000
vt -0.713899 0.600000
vt -0.713899 0.630000
vt -0.909689 0.630000
vt -0.374782 0.600000
vt -0.178993 0.600000
vt -0.178993 0.630000
vt -0.374782 0.630000
vt 0.178994 0.600000
vt 0.374783 0.600000
vt 0.374783 0.630000
vt 0.178994 0.630000
vt 0.713900 0.600000
vt 0.909689 0.600000
vt 0.909689 0.630000
vt 0.713900 0.630000
vt 1.193480 0.600000
vt 1.389270 0.600000
vt 1.389270 0.630000
vt 1.193480 0.630000
vt 1.585060 0.600000
vt 1.780850 0.600000
vt 1.780850 0.630000
vt 1.585060 0.630000
vt 1.861950 0.600000
vt 2.057740 0.600000
vt 2.057740 0.630000
vt 1.861950 0.630000
vt 2.005280 0.600000
vt 2.201070 0.600000
vt 2.201070 0.630000
vt 2.005280 0.630000
vt 1.500000 0.375000
vt 3.000000 0.375000
vt 3.000000 0.750001
vt 1.500000 0.750001
vt 0.750001 0.300000
vt 2.625000 -0.000000
vt 2.250000 0.300000
vt -1.536110 0.630000
vt -1.829820 0.630000
vt -1.829820 0.550000
vt -1.536110 0.550000
vt -1.499710 0.630000
vt -2.999710 0.630000
vt -2.999710 0.550000
vt -1.499710 0.550000
vt -1.813020 0.630000
vt -2.106730 0.630000
vt -2.106730 0.550000
vt -1.813020 0.550000
vt -1.956370 0.630000
vt -2.250080 0.630000
vt -2.250080 0.550000
vt -1.956370 0.550000
vt -1.813070 0.630000
vt -2.106770 0.630000
vt -2.106770 0.550000
vt -1.813070 0.550000
vt -1.536190 0.630000
vt -1.829890 0.630000
vt -1.829890 0.550000
vt -1.536190 0.550000
vt -1.144610 0.630000
vt -1.438310 0.630000
vt -1.438310 0.550000
vt -1.144610 0.550000
vt -0.665018 0.630000
vt -0.958723 0.630000
vt -0.958723 0.550000
vt -0.665018 0.550000
vt -0.130101 0.630000
vt -0.423806 0.630000
vt -0.423806 0.550000
vt -0.130101 0.550000
vt 0.423690 0.630000
vt 0.129985 0.630000
vt 0.129985 0.550000
vt 0.423690 0.550000
vt 0.958615 0.630000
vt 0.664910 0.630000
vt 0.664910 0.550000
vt 0.958615 0.550000
vt 1.438220 0.630000
vt 1.144510 0.630000
vt 1.144510 0.550000
vt 1.438220 0.550000
vt 3.000000 0.630000
vt 1.500000 0.630000
vt 1.500000 0.550000
vt 3.000000 0.550000
vt -3.000000 0.600000
vt -1.500000 0.600000
vt -1.500000 0.630000
vt -3.000000 0.630000
vt -1.389270 0.600000
vt -1.193480 0.600000
vt -1.193480 0.630000
vt -1.389270 0.630000
vt 1.500000 2.625160
vt 1.500000 2.250000
vt 3.000000 2.250000
vt 3.000000 2.625000
vt 1.208810 0.413337
vt 1.305890 0.775556
vt 1.208810 2.586830
vt 1.305890 2.224440
vt 0.937459 0.525733
vt 1.125000 0.850481
vt 0.704447 0.704529
vt 0.969670 0.969670
vt 0.937459 2.474430
vt 1.125000 2.149520
vt 0.850481 1.125000
vt 0.525650 0.937541
vt 0.704447 2.295640
vt 0.969670 2.030330
vt 0.775556 1.305890
vt 0.413254 1.208890
vt 0.525650 2.062620
vt 0.850481 1.875000
vt 0.750000 1.500000
vt 0.374918 1.500080
vt 0.775556 1.694110
vt 0.413254 1.791280
vt 0.750001 0.600000
vt 0.375000 0.550000
vt 0.375000 -0.000000
vt 0.750001 0.630000
vt 0.375000 0.630000
vt 2.625000 0.550000
vt 2.250000 0.600000
vt 2.625000 0.630000
vt 2.250000 0.630000
vt 1.500000 0.600000
vt 3.000000 0.600000
vt 0.000000 3.000000
vt -0.000000 0.000000
vt 3.000000 0.000000
vt -3.000000 0.000000
vt 0.000000 0.550000
vt -3.000000 0.550000
vt -3.000000 2.625000
vt -3.000000 0.375000
vt -3.000000 3.000000
vt 3.000000 3.000000
vn 0.258800 0.000000 -0.965900
vn 0.500000 0.000000 -0.866000
vn 0.707100 0.000000 -0.707100
vn 0.866000 0.000000 -0.500000
vn 0.965900 0.000000 -0.258800
vn 1.000000 0.000000 0.000000
vn 0.965900 0.000000 0.258800
vn 0.866000 0.000000 0.500000
vn 0.707100 0.000000 0.707100
vn 0.500000 0.000000 0.866000
vn 0.258800 0.000000 0.965900
vn 0.065400 0.000000 0.997900
vn -0.000000 1.000000 0.000000
vn -0.258800 0.000000 -0.965900
vn -0.065300 0.000000 -0.997900
vn 0.000100 0.000000 -1.000000
vn -0.500000 0.000000 -0.866000
vn -0.707100 0.000000 -0.707100
vn -0.866000 0.000000 -0.500000
vn -0.965900 0.000000 -0.258800
vn -1.000000 0.000000 0.000000
vn -0.965900 0.000000 0.258800
vn -0.866000 0.000000 0.500000
vn -0.707100 0.000000 0.707100
vn -0.500000 0.000000 0.866000
vn -0.258800 0.000000 0.965900
vn -0.065400 0.000000 0.997900
vn 0.000000 0.000000 1.000000
vn 0.000000 0.000000 -1.000000
vn 0.065400 0.000000 -0.997900
vn -0.000000 -1.000000 -0.000000
usemtl Stone.210
s 1
f 5/1/1 17/2/2 20/3/2 18/4/1
f 17/5/2 16/6/3 21/7/3 20/8/2
f 16/9/3 15/10/4 22/11/4 21/12/3
f 15/13/4 14/14/5 23/15/5 22/16/4
f 14/17/5 13/18/6 24/19/6 23/20/5
f 13/21/6 12/22/7 25/23/7 24/24/6
f 12/25/7 11/26/8 26/27/8 25/28/7
f 11/29/8 10/30/9 27/31/9 26/32/8
f 10/29/9 9/30/10 28/31/10 27/32/9
f 9/25/10 8/26/11 29/27/11 28/28/10
f 8/21/11 1/22/12 4/23/12 29/24/11
f 43/33/13 44/34/13 45/35/13 19/36/13
f 50/37/6 47/38/6 49/39/6
f 32/40/14 31/41/15 58/42/15 57/43/14
f 31/44/15 30/45/16 48/46/16 58/47/15
f 33/48/17 32/49/14 57/50/14 72/51/17
f 34/52/18 33/53/17 72/54/17 71/55/18
f 35/52/19 34/53/18 71/54/18 70/55/19
f 36/56/20 35/57/19 70/58/19 69/59/20
f 37/60/21 36/61/20 69/62/20 68/63/21
f 38/64/22 37/65/21 68/66/21 67/67/22
f 39/68/23 38/69/22 67/70/22 66/71/23
f 40/72/24 39/73/23 66/74/23 65/75/24
f 41/76/25 40/77/24 65/78/24 64/79/25
f 42/80/26 41/81/25 64/82/25 63/83/26
f 43/84/27 42/85/26 63/86/26 62/87/27
f 44/88/28 43/89/27 62/90/27 51/91/28
f 7/92/29 6/93/30 19/94/30 45/95/29
f 6/96/30 5/97/1 18/98/1 19/99/30
f 31/100/13 4/101/13 3/102/13 30/103/13
f 42/104/13 43/33/13 19/36/13 18/105/13
f 32/106/13 29/107/13 4/101/13 31/100/13
f 41/108/13 42/104/13 18/105/13 20/109/13
f 40/110/13 41/108/13 20/109/13 21/111/13
f 33/112/13 28/113/13 29/107/13 32/106/13
f 22/114/13 39/115/13 40/110/13 21/111/13
f 34/116/13 27/117/13 28/113/13 33/112/13
f 23/118/13 38/119/13 39/115/13 22/114/13
f 35/120/13 26/121/13 27/117/13 34/116/13
f 24/122/13 37/123/13 38/119/13 23/118/13
f 25/124/13 26/121/13 35/120/13 36/125/13
f 24/122/13 25/124/13 36/125/13 37/123/13
f 50/37/6 7/126/6 51/127/6 46/128/6
f 51/127/6 7/126/6 45/129/6 44/130/6
f 47/38/6 48/131/6 2/132/6 49/39/6
f 30/133/6 3/134/6 2/132/6 48/131/6
f 47/38/6 50/37/6 46/128/6
f 1/135/12 2/136/28 3/88/28 4/89/12
usemtl Grass.100
f 60/137/13 61/138/13 68/123/13
f 59/91/6 48/131/6 47/38/6 55/139/6
f 55/140/29 54/138/29 60/141/29 59/142/29
f 54/140/21 53/138/21 61/141/21 60/142/21
f 53/138/28 52/139/28 56/91/28 61/141/28
f 53/138/31 54/137/31 47/143/31 46/144/31
f 52/138/6 46/128/6 51/127/6 56/141/6
f 47/143/31 54/137/31 55/145/31
f 46/144/31 52/140/31 53/138/31
f 56/139/13 51/34/13 62/33/13
f 58/100/13 48/103/13 59/146/13
f 61/138/13 62/33/13 63/104/13
f 60/137/13 58/100/13 59/146/13
f 61/138/13 56/139/13 62/33/13
f 57/106/13 58/100/13 60/137/13
f 61/138/13 63/104/13 64/108/13
f 72/112/13 57/106/13 60/137/13
f 61/138/13 64/108/13 65/110/13
f 71/116/13 72/112/13 60/137/13
f 61/138/13 65/110/13 66/115/13
f 70/120/13 71/116/13 60/137/13
f 61/138/13 66/115/13 67/119/13
f 69/125/13 70/120/13 60/137/13
f 61/138/13 67/119/13 68/123/13
f 68/123/13 69/125/13 60/137/13
usemtl Asphalt.177
f 8/107/13 5/105/13 6/36/13 1/101/13
f 14/118/13 8/107/13 12/124/13
f 7/126/6 50/37/6 49/39/6 2/132/6
f 16/111/13 17/109/13 5/105/13
f 14/118/13 15/114/13 16/111/13
f 12/124/13 13/122/13 14/118/13
f 8/107/13 11/121/13 12/124/13
f 8/107/13 9/113/13 10/117/13
f 2/102/13 1/101/13 6/36/13 7/35/13
f 5/105/13 14/118/13 16/111/13
f 8/107/13 10/117/13 11/121/13
f 8/107/13 14/118/13 5/105/13
