# Blender v2.75 (sub 0) OBJ File: ''
# www.blender.org
mtllib roadTile_128.mtl
o Mesh1_Group1_Model.093
v 2.315140 0.630000 -0.892522
v 2.437500 0.630000 -0.974279
v 2.437500 0.600000 -0.974279
v 2.315140 0.600000 -0.892522
v 2.107480 0.630000 -0.684857
v 2.025720 0.630000 -0.562500
v 1.960640 0.630000 -0.430519
v 1.913330 0.630000 -0.291171
v 1.884620 0.630000 -0.146842
v 1.875000 0.630000 0.000000
v 2.437500 0.630000 0.000000
v 2.442310 0.630000 -0.073421
v 2.456670 0.630000 -0.145586
v 2.480320 0.630000 -0.215259
v 2.512860 0.630000 -0.281250
v 2.553740 0.630000 -0.342428
v 2.602250 0.630000 -0.397748
v 2.657570 0.630000 -0.446261
v 2.718750 0.630000 -0.487139
v 2.784740 0.630000 -0.519682
v 2.854410 0.630000 -0.543333
v 2.926580 0.630000 -0.557688
v 3.000000 0.630000 -0.562500
v 3.000000 0.630000 -1.125000
v 2.853160 0.630000 -1.115380
v 2.708830 0.630000 -1.086670
v 2.569480 0.630000 -1.039360
v 2.204500 0.630000 -0.795495
v 2.107480 0.600000 -0.684857
v 2.025720 0.600000 -0.562500
v 2.204500 0.600000 -0.795495
v 3.000000 0.600000 -1.125000
v 3.000000 0.600000 -1.875000
v 0.000000 0.600000 -1.875000
v 0.000000 0.600000 -1.125000
v 1.501490 0.600000 -1.125000
v 1.376200 0.600000 -0.937500
v 1.267730 0.600000 -0.717531
v 1.188890 0.600000 -0.485286
v 1.141040 0.600000 -0.244737
v 1.125000 0.600000 0.000000
v 1.875000 0.600000 0.000000
v 1.884620 0.600000 -0.146842
v 1.913330 0.600000 -0.291171
v 1.960640 0.600000 -0.430519
v 2.569480 0.600000 -1.039360
v 2.708830 0.600000 -1.086670
v 2.853160 0.600000 -1.115380
v 3.000000 0.300000 -1.125000
v 3.000000 0.300000 -1.875000
v 3.000000 0.000000 -0.562500
v 3.000000 0.000000 -2.437500
v 3.000000 0.630000 -2.437500
v 3.000000 0.630000 -1.875000
v 2.926580 0.000000 -0.557688
v 2.854410 0.000000 -0.543333
v 2.784740 0.000000 -0.519682
v 2.718750 0.000000 -0.487139
v 2.657570 0.000000 -0.446261
v 2.602250 0.000000 -0.397748
v 2.553740 0.000000 -0.342428
v 2.512860 0.000000 -0.281250
v 2.480320 0.000000 -0.215259
v 2.456670 0.000000 -0.145586
v 2.442310 0.000000 -0.073421
v 2.437500 0.000000 0.000000
v 0.562500 0.000000 0.000000
v 0.583353 0.000000 -0.318158
v 0.631956 0.000000 -0.562500
v 0.000000 0.000000 -0.562500
v 0.000000 0.000000 -2.437500
v 0.562500 0.630000 0.000000
v 1.875000 0.300000 0.000000
v 1.125000 0.300000 0.000000
v 1.125000 0.630000 0.000000
v 0.583353 0.630000 -0.318158
v 0.000000 0.630000 -0.562500
v 0.631956 0.630000 -0.562500
v 1.141040 0.630000 -0.244737
v 1.188890 0.630000 -0.485286
v 1.215100 0.630000 -0.562500
v 1.267730 0.630000 -0.717531
v 1.376200 0.630000 -0.937500
v 1.501490 0.630000 -1.125000
v 0.000000 0.630000 -1.125000
v 0.000000 0.630000 -2.437500
v 0.000000 0.300000 -1.125000
v 0.000000 0.300000 -1.875000
v 0.000000 0.630000 -1.875000
vt 2.107480 0.684857
vt 2.553740 0.342428
vt 2.602250 0.397748
vt 2.204500 0.795495
vt -1.904460 0.630000
vt -2.051620 0.630000
vt -2.051620 0.600000
vt -1.904460 0.600000
vt -2.181940 0.630000
vt -2.329100 0.630000
vt -2.329100 0.600000
vt -2.181940 0.600000
vt 1.125000 0.300000
vt 1.125000 0.600000
vt 0.562500 0.630000
vt 0.562500 0.000000
vt 2.437500 0.000000
vt 1.875000 0.300000
vt -2.512860 0.281250
vt -0.631956 0.562500
vt -2.553740 0.342428
vt 2.979150 0.630000
vt 2.905570 0.630000
vt 2.905570 0.000000
vt 2.979150 0.000000
vt 2.877580 0.630000
vt 2.804000 0.630000
vt 2.804000 0.000000
vt 2.877580 0.000000
vt 2.727410 0.630000
vt 2.653830 0.630000
vt 2.653830 0.000000
vt 2.727410 0.000000
vt 2.531200 0.630000
vt 2.457620 0.630000
vt 2.457620 0.000000
vt 2.531200 0.000000
vt 2.292310 0.630000
vt 2.218730 0.630000
vt 2.218730 0.000000
vt 2.292310 0.000000
vt 2.014830 0.630000
vt 1.941250 0.630000
vt 1.941250 0.000000
vt 2.014830 0.000000
vt 1.703500 0.630000
vt 1.629920 0.630000
vt 1.629920 -0.000000
vt 1.703500 -0.000000
vt 1.363660 0.630000
vt 1.290080 0.630000
vt 1.290080 -0.000000
vt 1.363660 -0.000000
vt 1.001110 0.630000
vt 0.927529 0.630000
vt 0.927529 -0.000000
vt 1.001110 -0.000000
vt 0.622060 0.630000
vt 0.548482 0.630000
vt 0.548482 -0.000000
vt 0.622060 -0.000000
vt 0.232999 0.630000
vt 0.159420 0.630000
vt 0.159420 0.000000
vt 0.232999 -0.000000
vt 1.141040 0.244737
vt 0.583353 0.318158
vt 1.125000 0.000000
vt -0.562500 0.000000
vt -0.562500 0.630000
vt -1.125000 0.600000
vt -1.125000 0.300000
vt -2.437500 0.000000
vt 3.000000 1.875000
vt 3.000000 2.437500
vt 0.000000 2.437500
vt 0.000000 1.875000
vt 3.000000 0.630000
vt 0.000000 0.630000
vt 0.000000 0.600000
vt 3.000000 0.600000
vt -1.501490 0.630000
vt -1.501490 0.600000
vt 1.544080 0.600000
vt 1.769580 0.600000
vt 1.769580 0.630000
vt 1.544080 0.630000
vt 1.449500 0.630000
vt 1.204240 0.630000
vt 1.204240 0.600000
vt 1.449500 0.600000
vt 0.707902 0.630000
vt 0.462640 0.630000
vt 0.462640 0.600000
vt 0.707902 0.600000
vt 0.923229 0.630000
vt 0.841688 0.630000
vt 0.841688 0.600000
vt 0.318840 0.630000
vt 0.073578 0.630000
vt 0.073578 0.600000
vt 0.318840 0.600000
vt -0.425851 0.630000
vt -0.674980 0.630000
vt -0.674980 0.000000
vt -0.425851 0.000000
vt -0.122631 0.630000
vt -0.269788 0.630000
vt -0.269788 0.600000
vt -0.122631 0.600000
vt -0.511692 0.630000
vt -0.658849 0.630000
vt -0.658849 0.600000
vt -0.511692 0.600000
vt -0.890740 0.630000
vt -1.037900 0.630000
vt -1.037900 0.600000
vt -0.890740 0.600000
vt -1.253290 0.630000
vt -1.400440 0.630000
vt -1.400440 0.600000
vt -1.253290 0.600000
vt -2.920000 0.630000
vt -3.067160 0.630000
vt -3.067160 0.600000
vt -2.920000 0.600000
vt -2.868780 0.630000
vt -3.015930 0.630000
vt -3.015930 0.600000
vt -2.868780 0.600000
vt -2.767210 0.630000
vt -2.914370 0.630000
vt -2.914370 0.600000
vt -2.767210 0.600000
vt -2.617040 0.630000
vt -2.764200 0.630000
vt -2.764200 0.600000
vt -2.617040 0.600000
vt 2.315140 0.892522
vt 2.657570 0.446261
vt 2.569480 1.039360
vt 2.437500 0.974279
vt 2.718750 0.487139
vt 2.784740 0.519682
vt 2.926580 0.557688
vt 3.000000 0.562500
vt 3.000000 1.125000
vt 2.853160 1.115380
vt 2.442310 0.073421
vt 1.884620 0.146842
vt 1.875000 0.000000
vt 1.913330 0.291171
vt 2.456670 0.145586
vt 2.708830 1.086670
vt 2.854410 0.543333
vt 1.960640 0.430519
vt 2.480320 0.215259
vt 2.025720 0.562500
vt 2.512860 0.281250
vt -1.593130 0.630000
vt -1.740290 0.630000
vt -1.740290 0.600000
vt -1.593130 0.600000
vt 2.437500 0.630000
vt 1.875000 0.600000
vt 1.125000 0.630000
vt -2.657570 0.446261
vt -3.000000 2.437500
vt 1.875000 0.630000
vt -0.583353 0.318158
vt -2.442310 0.073421
vt -2.602250 0.397748
vt 0.000000 0.562500
vt -3.000000 0.562500
vt -2.926580 0.557688
vt -2.456670 0.145586
vt -2.854410 0.543333
vt -2.784740 0.519682
vt 3.030370 0.630000
vt 2.956790 0.630000
vt 2.956790 -0.000000
vt 3.030370 0.000000
vt -2.718750 0.487139
vt -2.480320 0.215259
vt -0.036789 0.630000
vt -0.355630 0.630000
vt -0.355630 0.000000
vt -0.036789 0.000000
vt 0.631956 0.562500
vt 0.000000 1.125000
vt 1.188890 0.485286
vt 1.376200 0.937500
vt 1.501490 1.125000
vt 0.631956 0.630000
vt 0.000000 0.000000
vt 0.631956 0.000000
vt 1.215100 0.562500
vt 1.267730 0.717531
vt -1.875000 0.600000
vt -1.875000 0.630000
vt -2.437500 0.630000
vt -1.875000 0.300000
vt -3.000000 0.630000
vt -3.000000 0.000000
vt -1.125000 0.630000
vt 1.086950 0.600000
vt 1.086950 0.630000
vt -2.420830 0.630000
vt -2.567990 0.630000
vt -2.567990 0.600000
vt -2.420830 0.600000
vn -0.000000 1.000000 0.000000
vn -0.793400 0.000000 -0.608800
vn -0.707100 0.000000 -0.707100
vn -0.608800 0.000000 -0.793400
vn 1.000000 0.000000 0.000000
vn 0.000000 -1.000000 -0.000000
vn 0.130500 0.000000 0.991400
vn 0.258800 0.000000 0.965900
vn 0.382700 0.000000 0.923900
vn 0.500000 0.000000 0.866000
vn 0.608800 0.000000 0.793400
vn 0.707100 0.000000 0.707100
vn 0.793400 0.000000 0.608800
vn 0.866000 0.000000 0.500000
vn 0.923900 0.000000 0.382700
vn 0.965900 0.000000 0.258800
vn 0.991400 0.000000 0.130500
vn 0.997900 0.000000 0.065400
vn 0.000000 -0.000000 1.000000
vn -1.000000 0.000000 0.000000
vn 0.000000 0.000000 -1.000000
vn 0.831500 0.000000 0.555600
vn 0.946900 0.000000 0.321500
vn -0.991400 0.000000 -0.130500
vn -0.980800 0.000000 -0.195100
vn -0.997900 0.000000 -0.065400
vn -0.965900 0.000000 -0.258800
vn -0.923900 0.000000 -0.382700
vn -0.866000 0.000000 -0.500000
vn -0.130500 0.000000 -0.991400
vn -0.065400 0.000000 -0.997900
vn -0.258800 0.000000 -0.965900
vn -0.382700 0.000000 -0.923900
vn -0.500000 0.000000 -0.866000
vn 0.065400 0.000000 0.997900
usemtl Stone
s 1
f 5/1/1 16/2/1 17/3/1 28/4/1
f 5/5/2 28/6/3 31/7/3 29/8/2
f 28/9/3 1/10/4 4/11/4 31/12/3
f 49/13/5 32/14/5 23/15/5 51/16/5
f 51/16/5 52/17/5 50/18/5
f 62/19/6 69/20/6 61/21/6
f 22/22/7 21/23/8 56/24/8 55/25/7
f 21/26/8 20/27/9 57/28/9 56/29/8
f 20/30/9 19/31/10 58/32/10 57/33/9
f 19/34/10 18/35/11 59/36/11 58/37/10
f 18/38/11 17/39/12 60/40/12 59/41/11
f 17/42/12 16/43/13 61/44/13 60/45/12
f 16/46/13 15/47/14 62/48/14 61/49/13
f 15/50/14 14/51/15 63/52/15 62/53/14
f 14/54/15 13/55/16 64/56/16 63/57/15
f 13/58/16 12/59/17 65/60/17 64/61/16
f 12/62/17 11/63/18 66/64/18 65/65/17
f 72/15/19 67/16/19 74/13/19 41/14/19
f 67/16/19 66/17/19 73/18/19
f 79/66/1 76/67/1 72/16/1 75/68/1
f 70/69/20 77/70/20 35/71/20 87/72/20
f 71/73/20 70/69/20 87/72/20
f 54/74/1 53/75/1 86/76/1 89/77/1
f 54/78/19 89/79/19 34/80/19 33/81/19
f 85/79/21 84/82/21 36/83/21 35/80/21
f 37/84/14 36/85/22 84/86/22 83/87/14
f 83/88/14 82/89/15 38/90/15 37/91/14
f 80/92/16 79/93/17 40/94/17 39/95/16
f 81/96/23 80/97/16 39/98/16
f 79/99/17 75/100/18 41/101/18 40/102/17
f 76/103/24 78/104/25 69/105/25 68/106/24
f 10/107/26 9/108/24 43/109/24 42/110/26
f 9/111/24 8/112/27 44/113/27 43/114/24
f 8/115/27 7/116/28 45/117/28 44/118/27
f 7/119/28 6/120/29 30/121/29 45/122/28
f 25/123/30 24/124/31 32/125/31 48/126/30
f 26/127/32 25/128/30 48/129/30 47/130/32
f 27/131/33 26/132/32 47/133/32 46/134/33
f 2/135/34 27/136/33 46/137/33 3/138/34
f 1/139/1 28/4/1 17/3/1 18/140/1
f 27/141/1 2/142/1 19/143/1 20/144/1
f 22/145/1 23/146/1 24/147/1 25/148/1
f 12/149/1 9/150/1 10/151/1 11/17/1
f 8/152/1 9/150/1 12/149/1 13/153/1
f 26/154/1 21/155/1 22/145/1 25/148/1
f 7/156/1 8/152/1 13/153/1 14/157/1
f 6/158/1 7/156/1 14/157/1 15/159/1
f 27/141/1 20/144/1 21/155/1 26/154/1
f 5/1/1 6/158/1 15/159/1 16/2/1
f 19/143/1 2/142/1 1/139/1 18/140/1
f 6/160/29 5/161/2 29/162/2 30/163/29
f 52/17/5 53/164/5 33/165/5 50/18/5
f 23/15/5 32/14/5 24/166/5
f 59/167/6 69/20/6 71/76/6 52/168/6
f 53/164/5 54/169/5 33/165/5
f 50/18/5 49/13/5 51/16/5
f 68/170/6 65/171/6 66/73/6 67/69/6
f 60/172/6 61/21/6 69/20/6
f 69/20/6 70/173/6 71/76/6
f 52/168/6 51/174/6 55/175/6
f 69/20/6 64/176/6 65/171/6 68/170/6
f 52/168/6 55/175/6 56/177/6
f 52/168/6 56/177/6 57/178/6
f 23/179/35 22/180/7 55/181/7 51/182/35
f 52/168/6 57/178/6 58/183/6
f 52/168/6 58/183/6 59/167/6
f 64/176/6 69/20/6 63/184/6
f 69/20/6 59/167/6 60/172/6
f 63/184/6 69/20/6 62/19/6
f 41/14/19 75/166/19 72/15/19
f 11/164/19 10/169/19 42/165/19
f 66/17/19 11/164/19 42/165/19 73/18/19
f 72/185/26 76/186/24 68/187/24 67/188/26
f 73/18/19 74/13/19 67/16/19
f 78/189/1 85/190/1 77/173/1
f 78/189/1 76/67/1 79/66/1 80/191/1
f 83/192/1 84/193/1 85/190/1
f 78/194/19 77/79/19 70/195/19 69/196/19
f 78/189/1 83/192/1 85/190/1
f 78/189/1 80/191/1 81/197/1
f 82/198/1 83/192/1 78/189/1
f 78/189/1 81/197/1 82/198/1
f 34/199/20 89/200/20 86/201/20
f 86/201/20 71/73/20 88/202/20 34/199/20
f 86/79/21 53/203/21 52/204/21 71/195/21
f 77/70/20 85/205/20 35/71/20
f 87/72/20 88/202/20 71/73/20
f 38/206/15 82/207/15 81/96/23
f 81/96/23 39/98/16 38/206/15
f 1/208/4 2/209/34 3/210/34 4/211/4
usemtl Asphalt
f 43/150/1 40/66/1 41/68/1 42/151/1
f 34/199/20 88/202/20 87/72/20 35/71/20
f 41/14/19 74/13/19 73/18/19 42/165/19
f 39/191/1 40/66/1 43/150/1 44/152/1
f 48/148/1 32/147/1 33/74/1
f 38/198/1 39/191/1 44/152/1 45/156/1
f 47/154/1 48/148/1 33/74/1
f 30/158/1 37/192/1 38/198/1 45/156/1
f 46/141/1 47/154/1 33/74/1
f 37/192/1 30/158/1 29/1/1 36/193/1
f 3/142/1 46/141/1 33/74/1
f 32/14/5 49/13/5 50/18/5 33/165/5
f 36/193/1 3/142/1 33/74/1
f 36/193/1 29/1/1 31/4/1
f 36/193/1 4/139/1 3/142/1
f 36/193/1 34/77/1 35/190/1
f 33/74/1 34/77/1 36/193/1
f 36/193/1 31/4/1 4/139/1
