# Blender v2.75 (sub 0) OBJ File: ''
# www.blender.org
mtllib roadTile_302.mtl
o Mesh1_Group1_Model.122
v 1.991240 0.630000 -0.342428
v 1.950360 0.630000 -0.281250
v 1.950360 0.000000 -0.281250
v 1.991240 0.000000 -0.342428
v 2.364080 0.630000 -0.557688
v 2.437500 0.630000 -0.562500
v 2.437500 0.630000 -1.125000
v 2.290660 0.630000 -1.115380
v 2.146330 0.630000 -1.086670
v 2.006980 0.630000 -1.039360
v 1.875000 0.630000 -0.974279
v 1.752640 0.630000 -0.892522
v 1.642000 0.630000 -0.795495
v 1.578440 0.630000 -0.723015
v 1.544980 0.630000 -0.684857
v 1.463220 0.630000 -0.562500
v 1.398140 0.630000 -0.430519
v 1.350830 0.630000 -0.291171
v 1.322120 0.630000 -0.146842
v 1.312500 0.630000 0.000000
v 1.875000 0.630000 0.000000
v 1.879810 0.630000 -0.073421
v 1.894170 0.630000 -0.145586
v 1.917820 0.630000 -0.215259
v 2.039750 0.630000 -0.397748
v 2.095070 0.630000 -0.446261
v 2.156250 0.630000 -0.487139
v 2.222240 0.630000 -0.519682
v 2.291910 0.630000 -0.543333
v 2.364080 0.000000 -0.557688
v 2.437500 0.000000 -0.562500
v 2.291910 0.000000 -0.543333
v 2.222240 0.000000 -0.519682
v 2.156250 0.000000 -0.487139
v 2.095070 0.000000 -0.446261
v 2.039750 0.000000 -0.397748
v 2.437500 0.000000 -2.437500
v 1.917820 0.000000 -0.215259
v 1.894170 0.000000 -0.145586
v 1.879810 0.000000 -0.073421
v 1.875000 0.000000 0.000000
v 0.000000 0.000000 0.000000
v 0.020853 0.000000 -0.318158
v 0.083056 0.000000 -0.630871
v 0.185544 0.000000 -0.932791
v 0.326563 0.000000 -1.218750
v 0.503701 0.000000 -1.483860
v 0.517859 0.000000 -1.500000
v 0.503701 0.000000 -1.516140
v 0.326563 0.000000 -1.781250
v 0.185544 0.000000 -2.067210
v 0.083056 0.000000 -2.369130
v 0.020853 0.000000 -2.681840
v 0.000000 0.000000 -3.000000
v 1.875000 0.000000 -3.000000
v 1.879810 0.000000 -2.926580
v 1.894170 0.000000 -2.854410
v 1.917820 0.000000 -2.784740
v 1.950360 0.000000 -2.718750
v 1.991240 0.000000 -2.657570
v 2.039750 0.000000 -2.602250
v 2.095070 0.000000 -2.553740
v 2.156250 0.000000 -2.512860
v 2.222240 0.000000 -2.480320
v 2.291910 0.000000 -2.456670
v 2.364080 0.000000 -2.442310
v 2.437500 0.630000 -2.437500
v 2.437500 0.630000 -1.875000
v 2.437500 0.600000 -1.875000
v 2.437500 0.300000 -1.875000
v 2.437500 0.300000 -1.125000
v 2.437500 0.600000 -1.125000
v 2.364080 0.630000 -2.442310
v 2.291910 0.630000 -2.456670
v 2.222240 0.630000 -2.480320
v 2.156250 0.630000 -2.512860
v 2.095070 0.630000 -2.553740
v 2.039750 0.630000 -2.602250
v 1.991240 0.630000 -2.657570
v 1.950360 0.630000 -2.718750
v 1.917820 0.630000 -2.784740
v 1.894170 0.630000 -2.854410
v 1.879810 0.630000 -2.926580
v 1.875000 0.630000 -3.000000
v 1.312500 0.630000 -3.000000
v 1.322120 0.630000 -2.853160
v 1.350830 0.630000 -2.708830
v 1.398140 0.630000 -2.569480
v 1.463220 0.630000 -2.437500
v 1.544980 0.630000 -2.315140
v 1.578440 0.630000 -2.276990
v 1.642000 0.630000 -2.204500
v 1.752640 0.630000 -2.107480
v 1.875000 0.630000 -2.025720
v 2.006980 0.630000 -1.960640
v 2.146330 0.630000 -1.913330
v 2.290660 0.630000 -1.884620
v 0.000000 0.630000 -3.000000
v 0.562500 0.630000 -3.000000
v 0.562500 0.600000 -3.000000
v 0.562500 0.315000 -3.000000
v 1.312500 0.315000 -3.000000
v 1.312500 0.600000 -3.000000
v 0.020853 0.630000 -2.681840
v 0.813702 0.630000 -0.937500
v 0.919630 0.630000 -1.096030
v 0.949963 0.630000 -1.141430
v 1.111670 0.630000 -1.325830
v 1.296070 0.630000 -1.487540
v 1.314720 0.630000 -1.500000
v 1.296070 0.630000 -1.512460
v 1.111670 0.630000 -1.674170
v 0.949963 0.630000 -1.858570
v 0.919630 0.630000 -1.903970
v 0.813702 0.630000 -2.062500
v 0.705226 0.630000 -2.282470
v 0.626389 0.630000 -2.514710
v 0.578541 0.630000 -2.755260
v 0.083056 0.630000 -2.369130
v 0.185544 0.630000 -2.067210
v 0.326563 0.630000 -1.781250
v 0.503701 0.630000 -1.516140
v 0.517859 0.630000 -1.500000
v 0.503701 0.630000 -1.483860
v 0.326563 0.630000 -1.218750
v 0.185544 0.630000 -0.932791
v 0.083056 0.630000 -0.630871
v 0.020853 0.630000 -0.318158
v 0.000000 0.630000 0.000000
v 0.562500 0.630000 0.000000
v 0.578541 0.630000 -0.244737
v 0.626389 0.630000 -0.485286
v 0.705226 0.630000 -0.717531
v 0.813702 0.600000 -0.937500
v 0.949963 0.600000 -1.141430
v 0.705226 0.600000 -0.717531
v 0.626389 0.600000 -0.485286
v 0.578541 0.600000 -0.244737
v 0.562500 0.600000 0.000000
v 1.312500 0.600000 0.000000
v 1.312500 0.300000 0.000000
v 0.562500 0.300000 0.000000
v 1.322120 0.600000 -0.146842
v 1.350830 0.600000 -0.291171
v 1.398140 0.600000 -0.430519
v 1.463220 0.600000 -0.562500
v 1.544980 0.600000 -0.684857
v 1.642000 0.600000 -0.795495
v 1.752640 0.600000 -0.892522
v 1.875000 0.600000 -0.974279
v 2.006980 0.600000 -1.039360
v 2.146330 0.600000 -1.086670
v 2.290660 0.600000 -1.115380
v 1.296070 0.600000 -1.512460
v 1.314720 0.600000 -1.500000
v 1.296070 0.600000 -1.487540
v 1.111670 0.600000 -1.325830
v 2.290660 0.600000 -1.884620
v 2.146330 0.600000 -1.913330
v 2.006980 0.600000 -1.960640
v 1.875000 0.600000 -2.025720
v 1.752640 0.600000 -2.107480
v 1.642000 0.600000 -2.204500
v 1.544980 0.600000 -2.315140
v 1.463220 0.600000 -2.437500
v 1.398140 0.600000 -2.569480
v 1.350830 0.600000 -2.708830
v 1.322120 0.600000 -2.853160
v 0.578541 0.600000 -2.755260
v 0.626389 0.600000 -2.514710
v 0.705226 0.600000 -2.282470
v 0.813702 0.600000 -2.062500
v 0.949963 0.600000 -1.858570
v 1.111670 0.600000 -1.674170
vt 1.322120 0.146842
vt 1.312500 -0.000000
vt 1.875000 -0.000000
vt 1.879810 0.073421
vt 2.427450 0.630000
vt 2.353870 0.630000
vt 2.353870 0.000000
vt 2.427450 0.000000
vt 2.344930 0.630000
vt 2.271350 0.630000
vt 2.271350 0.000000
vt 2.344930 0.000000
vt 2.222920 0.630000
vt 2.149340 0.630000
vt 2.149340 0.000000
vt 2.222920 0.000000
vt 2.063500 0.630000
vt 1.989920 0.630000
vt 1.989920 0.000000
vt 2.063500 0.000000
vt 1.869400 0.630000
vt 1.795820 0.630000
vt 1.795820 0.000000
vt 1.869400 0.000000
vt 1.643940 0.630000
vt 1.570370 0.630000
vt 1.570370 0.000000
vt 1.643940 0.000000
vt -0.020853 2.681840
vt 0.000000 3.000000
vt -1.875000 3.000000
vt -1.879810 2.926580
vt -2.095070 2.553740
vt -0.517859 1.500000
vt -2.039750 2.602250
vt 0.562500 0.000000
vt 2.437500 0.000000
vt 1.875000 0.300000
vt 2.437500 1.875000
vt 2.437500 2.437500
vt 2.364080 2.442310
vt 2.290660 1.884620
vt -1.307030 0.630000
vt -1.380610 0.630000
vt -1.380610 0.000000
vt -1.307030 0.000000
vt -0.822472 0.630000
vt -0.896051 0.630000
vt -0.896051 0.000000
vt -0.822472 0.000000
vt -0.323207 0.630000
vt -0.396786 0.630000
vt -0.396786 0.000000
vt -0.323207 0.000000
vt 0.182217 0.630000
vt 0.108638 0.630000
vt 0.108638 0.000000
vt 0.182217 0.000000
vt 0.685153 0.630000
vt 0.611574 0.630000
vt 0.611574 0.000000
vt 0.685153 0.000000
vt 1.177000 0.630000
vt 1.103420 0.630000
vt 1.103420 0.000000
vt 1.177000 0.000000
vt 1.649330 0.630000
vt 1.575750 0.630000
vt 1.575750 0.000000
vt 1.649330 0.000000
vt 2.094070 0.630000
vt 2.020490 0.630000
vt 2.020490 0.000000
vt 2.094070 0.000000
vt 2.503610 0.630000
vt 2.430030 0.630000
vt 2.430030 0.000000
vt 2.503610 0.000000
vt 2.870950 0.630000
vt 2.797370 0.630000
vt 2.797370 -0.000000
vt 2.870950 -0.000000
vt -1.312500 0.315000
vt -1.312500 0.600000
vt -1.875000 0.630000
vt -1.875000 -0.000000
vt 0.000000 -0.000000
vt -0.562500 0.315000
vt 0.020853 0.318158
vt 0.578541 0.244737
vt 1.422240 0.630000
vt 1.231570 0.630000
vt 1.231570 0.600000
vt 0.906140 0.630000
vt 0.660878 0.630000
vt 0.660878 0.600000
vt 0.906140 0.600000
vt 0.598164 0.630000
vt 0.352902 0.630000
vt 0.352902 0.600000
vt 0.598164 0.600000
vt 0.282051 0.630000
vt 0.036789 0.630000
vt 0.036789 0.600000
vt 0.282051 0.600000
vt 0.562500 0.300000
vt 0.562500 0.600000
vt 0.000000 0.630000
vt 1.312500 0.300000
vt 0.512322 0.630000
vt 0.438743 0.630000
vt 0.438743 0.000000
vt 0.512322 0.000000
vt 0.820298 0.630000
vt 0.746719 0.630000
vt 0.746719 0.000000
vt 0.820298 0.000000
vt 1.114870 0.630000
vt 1.041290 0.630000
vt 1.041290 0.000000
vt 1.114870 0.000000
vt -0.085842 0.630000
vt -0.232999 0.630000
vt -0.232999 0.600000
vt -0.085842 0.600000
vt -0.401954 0.630000
vt -0.549111 0.630000
vt -0.549111 0.600000
vt -0.401954 0.600000
vt -0.709930 0.630000
vt -0.857087 0.630000
vt -0.857087 0.600000
vt -0.709930 0.600000
vt -1.004500 0.630000
vt -1.151660 0.630000
vt -1.151660 0.600000
vt -1.004500 0.600000
vt -1.280620 0.630000
vt -1.427780 0.630000
vt -1.427780 0.600000
vt -1.280620 0.600000
vt -1.759030 0.630000
vt -1.906190 0.630000
vt -1.906190 0.600000
vt -1.759030 0.600000
vt -1.533580 0.600000
vt -1.584330 0.630000
vt -1.680730 0.600000
vt -1.953130 0.630000
vt -2.100290 0.630000
vt -2.100290 0.600000
vt -1.953130 0.600000
vt -2.112550 0.630000
vt -2.259710 0.630000
vt -2.259710 0.600000
vt -2.112550 0.600000
vt -2.234560 0.630000
vt -2.381720 0.630000
vt -2.381720 0.600000
vt -2.234560 0.600000
vt -2.317090 0.630000
vt -2.464240 0.630000
vt -2.464240 0.600000
vt -2.317090 0.600000
vt -2.358700 0.630000
vt -2.505860 0.630000
vt -2.505860 0.600000
vt -2.358700 0.600000
vt 1.926510 0.630000
vt 1.904080 0.630000
vt 1.904080 0.600000
vt 1.926510 0.600000
vt 1.955240 0.630000
vt 1.709980 0.630000
vt 1.709980 0.600000
vt 1.955240 0.600000
vt 1.729790 0.630000
vt 1.484520 0.630000
vt 1.484520 0.600000
vt 1.729790 0.600000
vt 0.268059 0.630000
vt 0.022797 0.630000
vt 0.022797 0.600000
vt 0.268059 0.600000
vt 0.770995 0.630000
vt 0.525733 0.630000
vt 0.525733 0.600000
vt 0.770995 0.600000
vt 1.735170 0.630000
vt 1.489910 0.630000
vt 1.489910 0.600000
vt 1.735170 0.600000
vt 1.262840 0.600000
vt 1.072170 0.630000
vt 1.017580 0.600000
vt 2.179910 0.630000
vt 1.934650 0.630000
vt 1.934650 0.600000
vt 2.179910 0.600000
vt 2.589450 0.630000
vt 2.344190 0.630000
vt 2.344190 0.600000
vt 2.589450 0.600000
vt 2.956790 0.630000
vt 2.711530 0.630000
vt 2.711530 0.600000
vt 2.956790 0.600000
vt 2.309650 0.630000
vt 2.162490 0.630000
vt 2.162490 0.600000
vt 2.309650 0.600000
vt 1.878970 0.630000
vt 1.731810 0.630000
vt 1.731810 0.600000
vt 1.878970 0.600000
vt 1.417400 0.630000
vt 1.270250 0.630000
vt 1.270250 0.600000
vt 1.417400 0.600000
vt 0.932840 0.630000
vt 0.785683 0.630000
vt 0.785683 0.600000
vt 0.932840 0.600000
vt 0.433575 0.630000
vt 0.286418 0.630000
vt 0.286418 0.600000
vt 0.433575 0.600000
vt -0.071849 0.630000
vt -0.219006 0.630000
vt -0.219006 0.600000
vt -0.071849 0.600000
vt -1.066630 0.630000
vt -1.213780 0.630000
vt -1.213780 0.600000
vt -1.066630 0.600000
vt -0.671189 0.630000
vt -0.721942 0.630000
vt -0.721942 0.600000
vt -1.538960 0.630000
vt -1.686120 0.630000
vt -1.686120 0.600000
vt -1.538960 0.600000
vt -1.983700 0.630000
vt -2.130860 0.630000
vt -2.130860 0.600000
vt -1.983700 0.600000
vt -2.393240 0.630000
vt -2.540400 0.630000
vt -2.540400 0.600000
vt -2.393240 0.600000
vt -2.760580 0.630000
vt -2.907740 0.630000
vt -2.907740 0.600000
vt -2.760580 0.600000
vt -0.318840 0.630000
vt -0.318840 0.000000
vt -0.316113 0.630000
vt -0.634953 0.630000
vt -0.634953 0.000000
vt -0.316113 0.000000
vt -0.624089 0.630000
vt -0.942929 0.630000
vt -0.942929 0.000000
vt -0.624089 0.000000
vt -0.918659 0.630000
vt -1.237500 0.630000
vt -1.237500 0.000000
vt -0.918659 0.000000
vt -1.194780 0.630000
vt -1.513620 0.630000
vt -1.513620 0.000000
vt -1.194780 0.000000
vt -1.447740 0.630000
vt -1.469210 0.630000
vt -1.469210 0.000000
vt -1.447740 0.000000
vt -0.786311 0.630000
vt -0.807784 0.630000
vt -0.807784 0.000000
vt -0.786311 0.000000
vt -0.980786 0.630000
vt -1.299630 0.630000
vt -1.299630 0.000000
vt -0.980786 0.000000
vt -1.453120 0.630000
vt -1.771960 0.630000
vt -1.771960 0.000000
vt -1.453120 0.000000
vt -1.897860 0.630000
vt -2.216700 0.630000
vt -2.216700 0.000000
vt -1.897860 0.000000
vt -2.307400 0.630000
vt -2.626240 0.630000
vt -2.626240 0.000000
vt -2.307400 0.000000
vt 2.290660 1.115380
vt 2.364080 0.557688
vt 2.437500 0.562500
vt 2.437500 1.125000
vt 1.350830 0.291171
vt 1.894170 0.145586
vt 1.398140 0.430519
vt 1.917820 0.215259
vt 2.146330 1.086670
vt 2.291910 0.543333
vt 1.950360 0.281250
vt 1.463220 0.562500
vt 1.544980 0.684857
vt 1.991240 0.342428
vt 2.006980 1.039360
vt 2.222240 0.519682
vt 1.642000 0.795495
vt 1.578440 0.723015
vt 2.039750 0.397748
vt 1.875000 0.974279
vt 2.156250 0.487139
vt 1.752640 0.892522
vt 2.095070 0.446261
vt 2.469070 0.630000
vt 2.395490 0.630000
vt 2.395490 0.000000
vt 2.469070 0.000000
vt -2.364080 0.557688
vt -2.364080 2.442310
vt -2.437500 2.437500
vt -2.437500 0.562500
vt -0.083056 2.369130
vt -1.894170 2.854410
vt -0.185544 2.067210
vt -1.917820 2.784740
vt -2.291910 0.543333
vt -2.291910 2.456670
vt -1.950360 2.718750
vt -0.326563 1.781250
vt -1.991240 2.657570
vt -0.503701 1.516140
vt -2.222240 0.519682
vt -2.222240 2.480320
vt -0.020853 0.318158
vt -1.879810 0.073421
vt -2.156250 0.487139
vt -2.156250 2.512860
vt -0.083056 0.630871
vt -1.894170 0.145586
vt -0.185544 0.932791
vt -1.917820 0.215259
vt -2.039750 0.397748
vt -1.991240 0.342428
vt -0.503701 1.483860
vt -2.095070 0.446261
vt -0.326563 1.218750
vt -1.950360 0.281250
vt 2.437500 0.630000
vt 1.875000 0.600000
vt 1.125000 0.600000
vt 1.125000 0.630000
vt 0.562500 0.630000
vt 1.125000 0.300000
vt -2.199280 0.630000
vt -2.272860 0.630000
vt -2.272860 0.000000
vt -2.199280 0.000000
vt 1.875000 0.630000
vt 2.291910 2.456670
vt 2.222240 2.480320
vt 2.006980 1.960640
vt 2.146330 1.913330
vt 2.156250 2.512860
vt 2.095070 2.553740
vt 1.752640 2.107480
vt 1.875000 2.025720
vt 1.578440 2.276990
vt 1.642000 2.204500
vt 2.039750 2.602250
vt 1.991240 2.657570
vt 1.322120 2.853160
vt 1.879810 2.926580
vt 1.875000 3.000000
vt 1.312500 3.000000
vt 1.350830 2.708830
vt 1.894170 2.854410
vt 1.398140 2.569480
vt 1.917820 2.784740
vt 1.463220 2.437500
vt 1.950360 2.718750
vt 1.544980 2.315140
vt -1.768600 0.630000
vt -1.842180 0.630000
vt -1.842180 0.000000
vt -1.768600 0.000000
vt -0.562500 0.600000
vt -1.312500 0.630000
vt -2.674740 0.630000
vt -2.993580 0.630000
vt -2.993580 0.000000
vt -2.674740 0.000000
vt -0.562500 0.630000
vt 0.503701 1.483860
vt 0.919630 1.096030
vt 0.949963 1.141430
vt 0.517859 1.500000
vt 0.626389 0.485286
vt 0.083056 0.630871
vt 0.185544 0.932791
vt 0.705226 0.717531
vt 1.296070 1.487540
vt 1.314720 1.500000
vt 1.296070 1.512460
vt 0.813702 0.937500
vt 0.326563 1.218750
vt 1.111670 1.325830
vt 0.326563 1.781250
vt 0.503701 1.516140
vt 0.919630 1.903970
vt 0.813702 2.062500
vt 1.111670 1.674170
vt 0.949963 1.858570
vt 0.020853 2.681840
vt 0.578541 2.755260
vt 0.562500 3.000000
vt 0.185544 2.067210
vt 0.705226 2.282470
vt 0.626389 2.514710
vt 0.083056 2.369130
vt 1.200710 0.630000
vt 0.955448 0.630000
vt 0.955448 0.600000
vt 1.200710 0.600000
vt 1.476830 0.600000
vt 1.476830 0.630000
vt 1.312500 0.600000
vt 1.312500 0.630000
vt 0.196209 0.630000
vt 0.122631 0.630000
vt 0.122631 0.000000
vt 0.196209 0.000000
vt -1.533580 0.630000
vt -1.680730 0.630000
vt -0.237366 0.630000
vt -0.259798 0.630000
vt -0.259798 0.600000
vt -0.237366 0.600000
vt 1.262840 0.630000
vt 1.017580 0.630000
vt -0.574785 0.600000
vt -0.574785 0.630000
vt 1.390990 0.630000
vt 1.317410 0.630000
vt 1.317410 0.000000
vt 1.390990 0.000000
vn 0.000000 1.000000 -0.000000
vn 0.130500 0.000000 0.991400
vn 0.258800 0.000000 0.965900
vn 0.382700 0.000000 0.923900
vn 0.500000 -0.000000 0.866000
vn 0.608800 -0.000000 0.793400
vn 0.707100 0.000000 0.707100
vn 0.793400 0.000000 0.608800
vn 0.000000 -1.000000 -0.000000
vn 1.000000 0.000000 0.000000
vn 0.382700 0.000000 -0.923900
vn 0.258800 0.000000 -0.965900
vn 0.500000 0.000000 -0.866000
vn 0.608700 0.000000 -0.793400
vn 0.707100 0.000000 -0.707100
vn 0.793400 0.000000 -0.608700
vn 0.866000 0.000000 -0.500000
vn 0.923900 0.000000 -0.382700
vn 0.965900 0.000000 -0.258800
vn 0.991400 0.000000 -0.130500
vn 0.997900 0.000000 -0.065400
vn 0.000000 0.000000 -1.000000
vn 0.831500 -0.000000 0.555600
vn 0.866000 0.000000 0.500000
vn 0.923900 0.000000 0.382700
vn 0.965900 0.000000 0.258800
vn 0.991400 0.000000 0.130500
vn 0.997900 0.000000 0.065400
vn 0.000000 -0.000000 1.000000
vn -0.997900 0.000000 -0.065400
vn -0.991400 0.000000 -0.130500
vn -0.965900 0.000000 -0.258800
vn -0.923900 0.000000 -0.382700
vn -0.866000 0.000000 -0.500000
vn -0.793400 0.000000 -0.608700
vn -0.793400 -0.000000 -0.608800
vn -0.707100 0.000000 -0.707100
vn -0.608800 0.000000 -0.793400
vn -0.751900 -0.000000 -0.659300
vn -0.500000 0.000000 -0.866000
vn -0.382700 0.000000 -0.923900
vn -0.258800 0.000000 -0.965900
vn -0.130500 0.000000 -0.991400
vn -0.065400 0.000000 -0.997900
vn 0.555500 0.000000 0.831500
vn 0.608700 0.000000 0.793400
vn 0.793400 0.000000 0.608700
vn 0.831500 -0.000000 -0.555600
vn -0.065400 0.000000 0.997900
vn -0.130500 0.000000 0.991400
vn -0.258800 0.000000 0.965900
vn -0.382700 0.000000 0.923900
vn -0.500000 0.000000 0.866000
vn -0.608700 0.000000 0.793400
vn -0.707100 0.000000 0.707100
vn -0.793300 0.000000 0.608800
vn -0.866000 0.000000 0.500000
vn -0.751900 0.000100 0.659300
vn -0.923900 0.000000 0.382700
vn -0.965900 0.000000 0.258800
vn -0.991400 0.000000 0.130500
vn -0.997900 0.000000 0.065400
vn -0.793300 0.000000 -0.608800
vn -0.751800 0.000000 -0.659400
vn -0.751800 0.000000 0.659400
vn 0.065400 0.000000 0.997900
vn 0.130500 0.000000 -0.991400
vn 0.065400 0.000000 -0.997900
vn 0.555500 0.000000 -0.831500
usemtl Stone
s 1
f 19/1/1 20/2/1 21/3/1 22/4/1
f 5/5/2 29/6/3 32/7/3 30/8/2
f 29/9/3 28/10/4 33/11/4 32/12/3
f 28/13/4 27/14/5 34/15/5 33/16/4
f 27/17/5 26/18/6 35/19/6 34/20/5
f 26/21/6 25/22/7 36/23/7 35/24/6
f 25/25/7 1/26/8 4/27/8 36/28/7
f 53/29/9 54/30/9 55/31/9 56/32/9
f 62/33/9 48/34/9 61/35/9
f 31/36/10 37/37/10 70/38/10
f 68/39/1 67/40/1 73/41/1 97/42/1
f 75/43/11 74/44/12 65/45/12 64/46/11
f 76/47/13 75/48/11 64/49/11 63/50/13
f 77/51/14 76/52/13 63/53/13 62/54/14
f 78/55/15 77/56/14 62/57/14 61/58/15
f 79/59/16 78/60/15 61/61/15 60/62/16
f 80/63/17 79/64/16 60/65/16 59/66/17
f 81/67/18 80/68/17 59/69/17 58/70/18
f 82/71/19 81/72/18 58/73/18 57/74/19
f 83/75/20 82/76/19 57/77/19 56/78/20
f 84/79/21 83/80/20 56/81/20 55/82/21
f 102/83/22 103/84/22 84/85/22 55/86/22
f 55/86/22 54/87/22 101/88/22
f 128/89/1 129/87/1 130/36/1 131/90/1
f 106/91/23 105/92/24 134/93/24
f 133/94/25 132/95/26 137/96/26 136/97/25
f 132/98/26 131/99/27 138/100/27 137/101/26
f 131/102/27 130/103/28 139/104/28 138/105/27
f 142/106/29 139/107/29 129/108/29 42/87/29
f 42/87/29 41/3/29 141/109/29
f 23/110/26 22/111/27 40/112/27 39/113/26
f 24/114/25 23/115/26 39/116/26 38/117/25
f 2/118/24 24/119/25 38/120/25 3/121/24
f 20/122/30 19/123/31 143/124/31 140/125/30
f 19/126/31 18/127/32 144/128/32 143/129/31
f 18/130/32 17/131/33 145/132/33 144/133/32
f 17/134/33 16/135/34 146/136/34 145/137/33
f 16/138/34 15/139/35 147/140/36 146/141/34
f 13/142/37 12/143/38 149/144/38 148/145/37
f 147/146/36 14/147/39 148/148/37
f 12/149/38 11/150/40 150/151/40 149/152/38
f 11/153/40 10/154/41 151/155/41 150/156/40
f 10/157/41 9/158/42 152/159/42 151/160/41
f 9/161/42 8/162/43 153/163/43 152/164/42
f 8/165/43 7/166/44 72/167/44 153/168/43
f 110/169/45 109/170/46 156/171/46 155/172/45
f 109/173/46 108/174/7 157/175/7 156/176/46
f 108/177/7 107/178/47 135/179/47 157/180/7
f 112/181/15 111/182/14 154/183/14 174/184/15
f 113/185/16 112/186/15 174/187/15 173/188/16
f 116/189/18 115/190/17 172/191/17 171/192/18
f 172/193/17 114/194/48 173/195/16
f 117/196/19 116/197/18 171/198/18 170/199/19
f 118/200/20 117/201/19 170/202/19 169/203/20
f 99/204/21 118/205/20 169/206/20 100/207/21
f 68/208/49 97/209/50 158/210/50 69/211/49
f 97/212/50 96/213/51 159/214/51 158/215/50
f 96/216/51 95/217/52 160/218/52 159/219/51
f 95/220/52 94/221/53 161/222/53 160/223/52
f 94/224/53 93/225/54 162/226/54 161/227/53
f 93/228/54 92/229/55 163/230/55 162/231/54
f 90/232/56 89/233/57 165/234/57 164/235/56
f 91/236/58 90/237/56 164/238/56
f 89/239/57 88/240/59 166/241/59 165/242/57
f 88/243/59 87/244/60 167/245/60 166/246/59
f 87/247/60 86/248/61 168/249/61 167/250/60
f 86/251/61 85/252/62 103/253/62 168/254/61
f 129/108/30 128/255/31 43/256/31 42/87/30
f 128/257/31 127/258/32 44/259/32 43/260/31
f 127/261/32 126/262/33 45/263/33 44/264/32
f 126/265/33 125/266/34 46/267/34 45/268/33
f 125/269/34 124/270/63 47/271/63 46/272/34
f 124/273/63 123/274/64 48/275/64 47/276/63
f 123/277/65 122/278/56 49/279/56 48/280/65
f 122/281/56 121/282/57 50/283/57 49/284/56
f 121/285/57 120/286/59 51/287/59 50/288/57
f 120/289/59 119/290/60 52/291/60 51/292/59
f 119/293/60 104/294/61 53/295/61 52/296/60
f 8/297/1 5/298/1 6/299/1 7/300/1
f 18/301/1 19/1/1 22/4/1 23/302/1
f 17/303/1 18/301/1 23/302/1 24/304/1
f 8/297/1 9/305/1 29/306/1 5/298/1
f 2/307/1 16/308/1 17/303/1 24/304/1
f 15/309/1 16/308/1 2/307/1 1/310/1
f 29/306/1 9/305/1 10/311/1 28/312/1
f 13/313/1 14/314/1 1/310/1 25/315/1
f 10/311/1 11/316/1 27/317/1 28/312/1
f 12/318/1 26/319/1 27/317/1 11/316/1
f 25/315/1 26/319/1 12/318/1 13/313/1
f 6/320/66 5/321/2 30/322/2 31/323/66
f 1/310/1 14/314/1 15/309/1
f 30/324/9 66/325/9 37/326/9 31/327/9
f 52/328/9 53/29/9 56/32/9 57/329/9
f 51/330/9 52/328/9 57/329/9 58/331/9
f 30/324/9 32/332/9 65/333/9 66/325/9
f 59/334/9 50/335/9 51/330/9 58/331/9
f 60/336/9 49/337/9 50/335/9 59/334/9
f 32/332/9 33/338/9 64/339/9 65/333/9
f 48/34/9 49/337/9 60/336/9 61/35/9
f 43/340/9 40/341/9 41/86/9 42/87/9
f 33/338/9 34/342/9 63/343/9 64/339/9
f 44/344/9 39/345/9 40/341/9 43/340/9
f 48/34/9 62/33/9 63/343/9 34/342/9
f 44/344/9 45/346/9 38/347/9 39/345/9
f 36/348/9 4/349/9 47/350/9 48/34/9
f 48/34/9 34/342/9 35/351/9
f 48/34/9 35/351/9 36/348/9
f 45/346/9 46/352/9 3/353/9 38/347/9
f 3/353/9 46/352/9 47/350/9 4/349/9
f 37/37/10 67/354/10 69/355/10 70/38/10
f 72/356/10 7/357/10 6/358/10
f 6/358/10 31/36/10 71/359/10 72/356/10
f 73/360/67 67/361/68 37/362/68 66/363/67
f 67/354/10 68/364/10 69/355/10
f 70/38/10 71/359/10 31/36/10
f 74/365/1 75/366/1 95/367/1 96/368/1
f 76/369/1 77/370/1 93/371/1 94/372/1
f 91/373/1 92/374/1 78/375/1 79/376/1
f 93/371/1 77/370/1 78/375/1 92/374/1
f 73/41/1 74/365/1 96/368/1 97/42/1
f 86/377/1 83/378/1 84/379/1 85/380/1
f 87/381/1 82/382/1 83/378/1 86/377/1
f 94/372/1 95/367/1 75/366/1 76/369/1
f 82/382/1 87/381/1 88/383/1 81/384/1
f 88/383/1 89/385/1 80/386/1 81/384/1
f 90/387/1 79/376/1 80/386/1 89/385/1
f 74/388/12 73/389/67 66/390/67 65/391/12
f 91/373/1 79/376/1 90/387/1
f 54/87/22 98/108/22 100/392/22 101/88/22
f 84/85/22 103/84/22 85/393/22
f 104/394/61 98/395/62 54/396/62 53/397/61
f 98/108/22 99/398/22 100/392/22
f 101/88/22 102/83/22 55/86/22
f 124/399/1 106/400/1 107/401/1 123/402/1
f 132/403/1 127/404/1 128/89/1 131/90/1
f 126/405/1 127/404/1 132/403/1 133/406/1
f 109/407/1 110/408/1 111/409/1
f 105/410/1 125/411/1 126/405/1 133/406/1
f 108/412/1 109/407/1 111/409/1
f 121/413/1 122/414/1 114/415/1 115/416/1
f 108/412/1 111/409/1 112/417/1
f 123/402/1 108/412/1 112/417/1
f 113/418/1 114/415/1 122/414/1 123/402/1
f 123/402/1 112/417/1 113/418/1
f 106/400/1 124/399/1 125/411/1 105/410/1
f 104/419/1 118/420/1 99/421/1 98/30/1
f 120/422/1 121/413/1 115/416/1 116/423/1
f 117/424/1 119/425/1 120/422/1 116/423/1
f 117/424/1 118/420/1 104/419/1 119/425/1
f 105/426/24 133/427/25 136/428/25 134/429/24
f 123/402/1 107/401/1 108/412/1
f 135/430/47 107/431/47 106/91/23
f 106/91/23 134/93/24 135/430/47
f 41/3/29 21/364/29 140/432/29 141/109/29
f 129/108/29 139/107/29 130/358/29
f 21/364/29 20/433/29 140/432/29
f 22/434/27 21/435/28 41/436/28 40/437/27
f 141/109/29 142/106/29 42/87/29
f 14/147/39 147/146/36 15/438/35
f 14/147/39 13/439/37 148/148/37
f 111/440/14 110/441/69 155/442/69 154/443/14
f 114/194/48 172/193/17 115/444/17
f 114/194/48 113/445/16 173/195/16
f 163/446/55 92/447/55 91/236/58
f 91/236/58 164/238/56 163/446/55
f 1/448/8 2/449/24 3/450/24 4/451/8
usemtl Asphalt
f 154/409/1 162/371/1 163/374/1 174/417/1
f 140/432/29 139/107/29 142/106/29 141/109/29
f 69/355/10 72/356/10 71/359/10 70/38/10
f 100/392/22 103/84/22 102/83/22 101/88/22
f 172/416/1 173/418/1 164/387/1 165/385/1
f 170/424/1 171/423/1 166/383/1 167/381/1
f 168/377/1 103/380/1 100/421/1 169/420/1
f 153/297/1 72/300/1 69/39/1 158/42/1
f 152/305/1 153/297/1 158/42/1 159/368/1
f 170/424/1 167/381/1 168/377/1 169/420/1
f 151/311/1 152/305/1 159/368/1 160/367/1
f 162/371/1 154/409/1 155/408/1 161/372/1
f 155/408/1 160/367/1 161/372/1
f 171/423/1 172/416/1 165/385/1 166/383/1
f 173/418/1 174/417/1 163/374/1 164/387/1
f 149/318/1 156/407/1 157/412/1 148/313/1
f 146/308/1 147/309/1 135/401/1 134/410/1
f 144/301/1 145/303/1 136/406/1 137/403/1
f 139/36/1 140/2/1 143/1/1 138/90/1
f 137/403/1 138/90/1 143/1/1 144/301/1
f 146/308/1 134/410/1 136/406/1 145/303/1
f 155/408/1 150/316/1 151/311/1 160/367/1
f 148/313/1 157/412/1 135/401/1 147/309/1
f 156/407/1 149/318/1 150/316/1 155/408/1
