# Blender v2.75 (sub 0) OBJ File: ''
# www.blender.org
mtllib roadTile_276.mtl
o Mesh1_Group1_Model.071
v 0.000000 1.730000 -2.250000
v 0.000000 1.100000 -2.250000
v 0.000000 1.100000 0.000000
v 0.000000 1.730000 0.000000
v 0.000000 1.730000 -0.375000
v 0.000000 1.700000 -0.375000
v 0.000000 1.400000 -0.375000
v 0.000000 1.400000 -1.875000
v 0.000000 1.700000 -1.875000
v 0.000000 1.730000 -1.875000
v 3.000000 0.630000 -2.250000
v 3.000000 0.000000 -2.250000
v 3.000000 0.630000 -1.875000
v 3.000000 0.630000 0.000000
v 3.000000 0.000000 -0.000000
v 3.000000 0.600000 -1.875000
v 3.000000 0.300000 -1.875000
v 3.000000 0.300000 -0.375000
v 3.000000 0.600000 -0.375000
v 3.000000 0.630000 -0.375000
vt -1.875000 1.400000
vt -0.000000 1.100000
vt -0.375000 1.400000
vt 1.875000 -2.599750
vt 2.250000 -2.599750
vt 2.250000 0.595561
vt 1.875000 0.595561
vt 2.250000 0.000000
vt 2.250000 0.630000
vt 1.875000 0.600000
vt 1.875000 0.300000
vt 0.000000 -0.000000
vt -0.000000 -2.816630
vt -0.000000 0.378680
vt -2.250000 0.378680
vt -2.250000 -2.816630
vt 0.375000 0.595561
vt 0.000000 0.595561
vt 0.000000 -2.599750
vt 0.375000 -2.599750
vt -3.000000 0.600000
vt -0.000000 1.700000
vt -0.000000 1.730000
vt -3.000000 0.630000
vt 3.000000 0.600000
vt 3.000000 0.630000
vt -1.875000 1.700000
vt -1.875000 1.730000
vt -2.250000 1.730000
vt -2.250000 1.100000
vt -3.000000 0.000000
vt -0.375000 1.730000
vt -0.375000 1.700000
vt 0.375000 0.600000
vt 0.375000 0.630000
vt 0.000000 0.630000
vt 0.375000 0.300000
vt 3.000000 -0.000000
vt 1.875000 0.630000
vt 1.875000 -2.610080
vt 1.875000 0.585233
vt 0.375000 0.585233
vt 0.375000 -2.610080
vn -1.000000 -0.000000 -0.000000
vn 0.344300 0.938900 0.000000
vn 1.000000 0.000000 0.000000
vn -0.344300 -0.938900 -0.000000
vn 0.000000 0.000000 -1.000000
vn 0.000000 0.000000 1.000000
usemtl Stone
s 1
f 8/1/1 3/2/1 7/3/1
f 13/4/2 11/5/2 1/6/2 10/7/2
f 12/8/3 11/9/3 16/10/3 17/11/3
f 15/12/3 12/8/3 17/11/3
f 15/13/4 3/14/4 2/15/4 12/16/4
f 5/17/2 4/18/2 14/19/2 20/20/2
f 19/21/5 6/22/5 5/23/5 20/24/5
f 10/23/6 9/22/6 16/25/6 13/26/6
f 9/27/1 10/28/1 1/29/1
f 1/29/1 2/30/1 8/1/1 9/27/1
f 1/23/5 11/24/5 12/31/5 2/2/5
f 4/23/1 5/32/1 6/33/1
f 3/2/1 8/1/1 2/30/1
f 19/34/3 20/35/3 14/36/3
f 14/36/3 15/12/3 18/37/3 19/34/3
f 4/23/6 3/2/6 15/38/6 14/26/6
f 11/9/3 13/39/3 16/10/3
f 17/11/3 18/37/3 15/12/3
f 3/2/1 4/23/1 6/33/1 7/3/1
usemtl Asphalt
f 16/40/2 9/41/2 6/42/2 19/43/2
f 6/33/1 9/27/1 8/1/1 7/3/1
f 16/10/3 19/34/3 18/37/3 17/11/3
