# Blender v2.75 (sub 0) OBJ File: ''
# www.blender.org
mtllib roadTile_091.mtl
o Mesh1_Group1_Model.009
v 0.750000 1.730000 -3.000000
v 0.000000 1.730000 -3.000000
v 0.000000 1.730000 0.000000
v 3.000000 1.730000 0.000000
v 3.000000 1.730000 -0.750000
v 0.750000 1.730000 -0.750000
v 3.000000 0.000000 -3.000000
v 0.000000 0.000000 -3.000000
v 0.750000 0.600000 -3.000000
v 0.750000 0.300000 -3.000000
v 3.000000 0.300000 -3.000000
v 3.000000 0.000000 0.000000
v 0.000000 0.000000 -0.000000
v 3.000000 0.300000 -0.750000
v 3.000000 0.600000 -0.750000
v 3.000000 0.600000 -3.000000
v 0.750000 0.600000 -0.750000
vt 0.000000 3.000000
vt -0.000000 0.000000
vt 0.750000 0.750000
vt 0.750000 0.600000
vt 0.750000 1.730000
vt 0.000000 1.730000
vt 0.750000 0.300000
vt 3.000000 0.600000
vt 3.000000 1.730000
vt -3.000000 0.600000
vt -0.750000 0.600000
vt -0.750000 1.730000
vt -3.000000 1.730000
vt 3.000000 0.000000
vt -3.000000 0.000000
vt 3.000000 0.750000
vt 0.750000 3.000000
vt -0.750000 0.300000
vt -3.000000 0.300000
vt -3.000000 3.000000
vt 3.000000 0.300000
vt 3.000000 3.000000
vn 0.000000 1.000000 0.000000
vn 1.000000 -0.000000 0.000000
vn 0.000000 0.000000 -1.000000
vn -0.000000 -0.000000 1.000000
vn -1.000000 0.000000 -0.000000
vn 0.000000 -1.000000 -0.000000
usemtl Stone.008
s 1
f 2/1/1 3/2/1 6/3/1
f 15/4/2 5/5/2 4/6/2 12/2/2
f 14/7/2 15/4/2 12/2/2
f 6/5/2 17/4/2 9/8/2 1/9/2
f 15/10/3 17/11/3 6/12/3 5/13/3
f 3/6/4 13/2/4 12/14/4 4/9/4
f 3/6/5 2/13/5 8/15/5 13/2/5
f 4/14/1 5/16/1 6/3/1
f 6/3/1 1/17/1 2/1/1
f 3/2/1 4/14/1 6/3/1
f 10/18/3 11/19/3 7/15/3
f 8/2/3 9/11/3 10/18/3
f 7/20/6 12/15/6 13/2/6 8/1/6
f 10/18/3 7/15/3 8/2/3
f 14/7/2 7/14/2 11/21/2
f 12/2/2 7/14/2 14/7/2
f 8/2/3 2/6/3 1/12/3 9/11/3
usemtl Asphalt.007
f 16/10/3 11/19/3 10/18/3 9/11/3
f 16/22/1 9/17/1 17/3/1 15/16/1
f 15/4/2 14/7/2 11/21/2 16/8/2
