# Blender v2.75 (sub 0) OBJ File: ''
# www.blender.org
mtllib roadTile_126.mtl
o Mesh1_Group1_Model.236
v 2.625000 0.000000 -2.625000
v 2.625000 0.000000 0.000000
v 2.282370 0.000000 -0.022457
v 1.945600 0.000000 -0.089445
v 1.620460 0.000000 -0.199816
v 1.312500 0.000000 -0.351683
v 1.027000 0.000000 -0.542447
v 0.768845 0.000000 -0.768845
v 0.542447 0.000000 -1.027000
v 0.351683 0.000000 -1.312500
v 0.199816 0.000000 -1.620460
v 0.089445 0.000000 -1.945600
v 0.022457 0.000000 -2.282370
v 0.000000 0.000000 -2.625000
v 2.625000 1.730000 0.000000
v 2.625000 0.300000 -2.625000
v 2.625000 0.300000 -0.375000
v 2.625000 0.600000 -0.375000
v 2.625000 1.730000 -0.375000
v 2.282370 1.730000 -0.022457
v 0.375000 1.730000 -2.625000
v 0.000000 1.730000 -2.625000
v 0.022457 1.730000 -2.282370
v 0.089445 1.730000 -1.945600
v 0.199816 1.730000 -1.620460
v 0.351683 1.730000 -1.312500
v 0.542447 1.730000 -1.027000
v 0.768845 1.730000 -0.768845
v 1.027000 1.730000 -0.542447
v 1.312500 1.730000 -0.351683
v 1.620460 1.730000 -0.199816
v 1.945600 1.730000 -0.089445
v 2.331320 1.730000 -0.394249
v 2.042660 1.730000 -0.451667
v 1.763960 1.730000 -0.546271
v 1.500000 1.730000 -0.676443
v 1.255290 1.730000 -0.839955
v 1.034010 1.730000 -1.034010
v 0.839955 1.730000 -1.255290
v 0.676443 1.730000 -1.500000
v 0.546271 1.730000 -1.763960
v 0.451667 1.730000 -2.042660
v 0.394249 1.730000 -2.331320
v 0.375000 0.600000 -2.625000
v 0.375000 0.300000 -2.625000
v 0.394249 0.600000 -2.331320
v 2.625000 0.600000 -2.625000
v 0.451667 0.600000 -2.042660
v 0.546271 0.600000 -1.763960
v 0.676443 0.600000 -1.500000
v 0.839955 0.600000 -1.255290
v 1.034010 0.600000 -1.034010
v 1.255290 0.600000 -0.839955
v 1.500000 0.600000 -0.676443
v 1.763960 0.600000 -0.546271
v 2.042660 0.600000 -0.451667
v 2.331320 0.600000 -0.394249
vt -2.625000 2.625000
vt -1.027000 0.542447
vt -0.768845 0.768845
vt 0.375000 0.600000
vt -0.000000 0.000000
vt 0.375000 0.300000
vt 2.282370 0.022457
vt 2.625000 0.000000
vt 2.625000 0.375000
vt 2.331320 0.394249
vt 0.000000 1.730000
vt -0.375000 0.600000
vt -1.890770 0.000000
vt -1.890770 1.730000
vt -2.234130 1.730000
vt -2.234130 0.000000
vt -1.470230 0.000000
vt -1.470230 1.730000
vt -1.813600 1.730000
vt -1.813600 0.000000
vt -1.021600 0.000000
vt -1.021600 1.730000
vt -1.364970 1.730000
vt -1.364970 0.000000
vt -0.552553 0.000000
vt -0.552553 1.730000
vt -0.895919 1.730000
vt -0.895919 0.000000
vt -0.071113 0.000000
vt -0.071113 1.730000
vt -0.414480 1.730000
vt -0.414480 0.000000
vt 0.414480 0.000000
vt 0.414480 1.730000
vt 0.071113 1.730000
vt 0.071113 0.000000
vt 0.895919 0.000000
vt 0.895919 1.730000
vt 0.552553 1.730000
vt 0.552553 0.000000
vt 1.364970 0.000000
vt 1.364970 1.730000
vt 1.021600 1.730000
vt 1.021600 0.000000
vt 1.813600 0.000000
vt 1.813600 1.730000
vt 1.470230 1.730000
vt 1.470230 0.000000
vt 2.234130 0.000000
vt 2.234130 1.730000
vt 1.890770 1.730000
vt 1.890770 0.000000
vt 2.300540 0.600000
vt 2.594850 0.600000
vt 2.594850 1.730000
vt 2.300540 1.730000
vt 1.915290 0.600000
vt 2.209610 0.600000
vt 2.209610 1.730000
vt 1.915290 1.730000
vt 1.494760 0.600000
vt 1.789070 0.600000
vt 1.789070 1.730000
vt 1.494760 1.730000
vt 1.046130 0.600000
vt 1.340440 0.600000
vt 1.340440 1.730000
vt 1.046130 1.730000
vt 0.577079 0.600000
vt 0.871393 0.600000
vt 0.871393 1.730000
vt 0.577079 1.730000
vt 0.095640 0.600000
vt 0.389954 0.600000
vt 0.389954 1.730000
vt 0.095640 1.730000
vt -0.389954 0.600000
vt -0.095640 0.600000
vt -0.095640 1.730000
vt -0.389954 1.730000
vt -0.871393 0.600000
vt -0.577079 0.600000
vt -0.577079 1.730000
vt -0.871393 1.730000
vt -1.340440 0.600000
vt -1.046130 0.600000
vt -1.046130 1.730000
vt -1.340440 1.730000
vt -1.789070 0.600000
vt -1.494760 0.600000
vt -1.494760 1.730000
vt -1.789070 1.730000
vt -2.209610 0.600000
vt -1.915290 0.600000
vt -1.915290 1.730000
vt -2.209610 1.730000
vt -2.594850 0.600000
vt -2.300540 0.600000
vt -2.300540 1.730000
vt -2.594850 1.730000
vt -0.022457 2.282370
vt 0.000000 2.625000
vt -0.089445 1.945600
vt -0.351683 1.312500
vt -0.199816 1.620460
vt -0.542447 1.027000
vt -1.312500 0.351683
vt -1.945600 0.089445
vt -1.620460 0.199816
vt -2.625000 0.000000
vt -2.282370 0.022457
vt 0.375000 1.730000
vt 2.625000 0.300000
vt 0.022457 2.282370
vt 0.394249 2.331320
vt 0.375000 2.625000
vt 1.945600 0.089445
vt 2.042660 0.451667
vt 1.620460 0.199816
vt 1.763960 0.546271
vt 0.089445 1.945600
vt 0.451667 2.042660
vt 1.312500 0.351683
vt 1.500000 0.676443
vt 0.199816 1.620460
vt 0.546271 1.763960
vt 1.255290 0.839955
vt 1.027000 0.542447
vt 0.676443 1.500000
vt 0.351683 1.312500
vt 1.034010 1.034010
vt 0.768845 0.768845
vt 0.542447 1.027000
vt 0.839955 1.255290
vt -2.276010 0.000000
vt -2.276010 1.730000
vt -2.619380 1.730000
vt -2.619380 -0.000000
vt -0.375000 0.300000
vt -2.625000 0.300000
vt -0.375000 1.730000
vt 2.619380 0.000000
vt 2.619380 1.730000
vt 2.276010 1.730000
vt 2.276010 0.000000
vt -2.625000 0.600000
vt 2.625000 2.625000
vt 2.625000 0.600000
vn -0.000000 -1.000000 -0.000000
vn 1.000000 -0.000000 0.000000
vn 0.000000 1.000000 -0.000000
vn 0.000000 0.000000 -1.000000
vn -0.965900 -0.000000 0.258800
vn -0.991400 -0.000000 0.130500
vn -0.923900 -0.000000 0.382700
vn -0.866000 -0.000000 0.500000
vn -0.793400 -0.000000 0.608800
vn -0.707100 -0.000000 0.707100
vn -0.608800 -0.000000 0.793400
vn -0.500000 -0.000000 0.866000
vn -0.382700 -0.000000 0.923900
vn -0.258800 -0.000000 0.965900
vn -0.130500 -0.000000 0.991400
vn 0.991400 0.000000 -0.130500
vn 0.997900 0.000000 -0.065400
vn 0.965900 0.000000 -0.258800
vn 0.923900 0.000000 -0.382700
vn 0.866000 0.000000 -0.500000
vn 0.793400 0.000000 -0.608800
vn 0.707100 0.000000 -0.707100
vn 0.608800 0.000000 -0.793400
vn 0.500000 0.000000 -0.866000
vn 0.382700 0.000000 -0.923900
vn 0.258800 0.000000 -0.965900
vn 0.130500 0.000000 -0.991400
vn 0.065400 0.000000 -0.997900
vn -0.997900 0.000000 0.065400
vn -0.065400 -0.000000 0.997900
usemtl Stone.204
s 1
f 1/1/1 7/2/1 8/3/1
f 18/4/2 2/5/2 17/6/2
f 20/7/3 15/8/3 19/9/3 33/10/3
f 14/5/4 22/11/4 44/12/4
f 12/13/5 24/14/5 23/15/6 13/16/6
f 11/17/7 25/18/7 24/19/5 12/20/5
f 10/21/8 26/22/8 25/23/7 11/24/7
f 9/25/9 27/26/9 26/27/8 10/28/8
f 8/29/10 28/30/10 27/31/9 9/32/9
f 7/33/11 29/34/11 28/35/10 8/36/10
f 6/37/12 30/38/12 29/39/11 7/40/11
f 5/41/13 31/42/13 30/43/12 6/44/12
f 4/45/14 32/46/14 31/47/13 5/48/13
f 3/49/15 20/50/15 32/51/14 4/52/14
f 46/53/16 44/54/17 21/55/17 43/56/16
f 48/57/18 46/58/16 43/59/16 42/60/18
f 49/61/19 48/62/18 42/63/18 41/64/19
f 50/65/20 49/66/19 41/67/19 40/68/20
f 51/69/21 50/70/20 40/71/20 39/72/21
f 52/73/22 51/74/21 39/75/21 38/76/22
f 53/77/23 52/78/22 38/79/22 37/80/23
f 54/81/24 53/82/23 37/83/23 36/84/24
f 55/85/25 54/86/24 36/87/24 35/88/25
f 56/89/26 55/90/25 35/91/25 34/92/26
f 57/93/27 56/94/26 34/95/26 33/96/27
f 18/97/28 57/98/27 33/99/27 19/100/28
f 13/101/1 14/102/1 1/1/1
f 1/1/1 12/103/1 13/101/1
f 1/1/1 10/104/1 11/105/1
f 1/1/1 8/3/1 9/106/1
f 1/1/1 6/107/1 7/2/1
f 1/1/1 4/108/1 5/109/1
f 1/1/1 2/110/1 3/111/1
f 11/105/1 12/103/1 1/1/1
f 1/1/1 9/106/1 10/104/1
f 1/1/1 5/109/1 6/107/1
f 4/108/1 1/1/1 3/111/1
f 18/4/2 19/112/2 15/11/2
f 1/8/2 16/113/2 17/6/2
f 2/5/2 18/4/2 15/11/2
f 2/5/2 1/8/2 17/6/2
f 23/114/3 43/115/3 21/116/3 22/102/3
f 32/117/3 20/7/3 33/10/3 34/118/3
f 31/119/3 32/117/3 34/118/3 35/120/3
f 23/114/3 24/121/3 42/122/3 43/115/3
f 30/123/3 31/119/3 35/120/3 36/124/3
f 25/125/3 41/126/3 42/122/3 24/121/3
f 37/127/3 29/128/3 30/123/3 36/124/3
f 40/129/3 41/126/3 25/125/3 26/130/3
f 38/131/3 28/132/3 29/128/3 37/127/3
f 26/130/3 27/133/3 39/134/3 40/129/3
f 38/131/3 39/134/3 27/133/3 28/132/3
f 13/135/6 23/136/6 22/137/29 14/138/29
f 45/139/4 16/140/4 1/110/4
f 14/5/4 44/12/4 45/139/4
f 44/12/4 22/11/4 21/141/4
f 45/139/4 1/110/4 14/5/4
f 2/142/30 15/143/30 20/144/15 3/145/15
usemtl Asphalt.171
f 47/146/4 16/140/4 45/139/4 44/12/4
f 47/147/3 51/134/3 52/131/3
f 18/4/2 17/6/2 16/113/2 47/148/2
f 57/10/3 18/9/3 47/147/3
f 47/147/3 56/118/3 57/10/3
f 47/147/3 54/124/3 55/120/3
f 47/147/3 52/131/3 53/127/3
f 47/147/3 50/129/3 51/134/3
f 47/147/3 48/122/3 49/126/3
f 47/147/3 44/116/3 46/115/3
f 55/120/3 56/118/3 47/147/3
f 47/147/3 53/127/3 54/124/3
f 47/147/3 49/126/3 50/129/3
f 48/122/3 47/147/3 46/115/3
