# Blender v2.75 (sub 0) OBJ File: ''
# www.blender.org
mtllib roadTile_107.mtl
o Mesh1_Group1_Model.037
v 2.625000 0.000000 -3.000000
v 2.625000 0.300000 -3.000000
v 2.625000 0.300000 0.000000
v 2.625000 0.000000 0.000000
v 0.000000 0.000000 -3.000000
v 0.000000 0.630000 -3.000000
v 0.375000 0.630000 -3.000000
v 0.375000 0.600000 -3.000000
v 0.375000 0.300000 -3.000000
v 0.000000 0.000000 -0.000000
v 0.000000 0.630000 0.000000
v 0.375000 0.300000 0.000000
v 0.375000 0.600000 0.000000
v 0.375000 0.630000 0.000000
v 2.625000 0.600000 0.000000
v 2.625000 0.600000 -3.000000
vt 0.000000 0.000000
vt 0.000000 0.630000
vt -0.375000 0.600000
vt -0.375000 0.300000
vt 0.375000 0.300000
vt 0.375000 0.600000
vt 0.375000 3.000000
vt 0.000000 3.000000
vt 0.375000 0.000000
vt 3.000000 0.630000
vt 0.000000 0.600000
vt 3.000000 0.600000
vt -2.625000 0.300000
vt -2.625000 0.000000
vt -2.625000 3.000000
vt -0.375000 0.630000
vt 0.375000 0.630000
vt 2.625000 0.000000
vt 2.625000 0.300000
vt -3.000000 0.630000
vt -3.000000 0.000000
vt 3.000000 0.000000
vt 3.000000 0.300000
vt 0.000000 0.300000
vt 2.625000 3.000000
vt 2.625000 0.600000
vt -2.625000 0.600000
vn 0.000000 0.000000 -1.000000
vn -0.000000 -0.000000 1.000000
vn 0.000000 1.000000 0.000000
vn 1.000000 0.000000 0.000000
vn -0.000000 -1.000000 -0.000000
vn -1.000000 0.000000 -0.000000
usemtl Stone.032
s 1
f 5/1/1 6/2/1 8/3/1 9/4/1
f 11/2/2 10/1/2 12/5/2 13/6/2
f 7/7/3 6/8/3 11/1/3 14/9/3
f 7/10/4 14/2/4 13/11/4 8/12/4
f 9/4/1 2/13/1 1/14/1
f 1/15/5 4/14/5 10/1/5 5/8/5
f 8/3/1 6/2/1 7/16/1
f 9/4/1 1/14/1 5/1/1
f 13/6/2 14/17/2 11/2/2
f 4/18/2 3/19/2 12/5/2
f 11/2/6 6/20/6 5/21/6 10/1/6
f 10/1/2 4/18/2 12/5/2
f 1/22/4 2/23/4 3/24/4 4/1/4
usemtl Asphalt.027
f 15/18/3 16/25/3 8/7/3 13/9/3
f 15/11/4 3/24/4 2/23/4 16/12/4
f 13/6/2 12/5/2 3/19/2 15/26/2
f 16/27/1 2/13/1 9/4/1 8/3/1
