# Blender v2.75 (sub 0) OBJ File: ''
# www.blender.org
mtllib roadTile_206.mtl
o Mesh1_Group1_Model.031
v 3.000000 0.000000 -2.625000
v 3.000000 0.550000 -2.625000
v 3.000000 0.630000 -2.625000
v 3.000000 0.630000 -2.250000
v 3.000000 0.455000 -2.250000
v 3.000000 0.000000 -2.250000
v 3.000000 0.550000 -3.000000
v 3.000000 0.000000 -3.000000
v 0.000000 1.650000 -3.000000
v 0.000000 1.650000 -2.625000
v 0.000000 0.000000 -3.000000
v 0.000000 0.000000 -2.625000
v 3.000000 0.000000 -0.750000
v 3.000000 0.000000 -0.375000
v 3.000000 0.000000 -0.000000
v 0.000000 0.000000 -0.000000
v 0.000000 0.000000 -0.375000
v 0.000000 0.000000 -0.750000
v 0.000000 0.000000 -2.250000
v 3.000000 0.455000 -0.750000
v 0.000000 0.455000 -2.250000
v 0.000000 0.455000 -0.750000
v 0.000000 1.730000 -2.250000
v 0.000000 1.730000 -2.625000
v 0.000000 1.650000 -0.375000
v 0.000000 1.730000 -0.375000
v 0.000000 1.730000 -0.750000
v 0.000000 1.650000 0.000000
v 3.000000 0.550000 -0.000000
v 3.000000 0.550000 -0.375000
v 3.000000 0.630000 -0.750000
v 3.000000 0.630000 -0.375000
vt 3.000000 0.455000
vt 3.000000 0.630000
vt 0.000000 1.730000
vt 0.000000 0.455000
vt 2.625000 -2.599750
vt 2.625000 0.595560
vt 2.250000 0.595560
vt 2.250000 -2.599750
vt -3.000000 0.630000
vt -3.000000 0.550000
vt -0.000000 1.650000
vt -2.250000 0.455000
vt -2.250000 1.730000
vt -2.625000 1.650000
vt -0.375000 0.000000
vt -0.375000 1.650000
vt -0.750000 0.455000
vt 0.750000 0.455000
vt 0.375000 0.550000
vt 0.375000 -0.000000
vt 0.750000 -0.000000
vt 0.750000 -2.599750
vt 0.750000 0.595560
vt 0.375000 0.595560
vt 0.375000 -2.599750
vt 3.000000 0.550000
vt 2.625000 0.550000
vt 2.625000 0.630000
vt 2.250000 0.630000
vt 2.250000 0.455000
vt -2.625000 0.000000
vt -2.250000 0.000000
vt -2.625000 1.730000
vt -0.750000 0.000000
vt -0.750000 1.730000
vt -0.375000 1.730000
vt 0.750000 0.630000
vt 0.375000 0.630000
vt -3.000000 0.455000
vt 2.625000 0.000000
vt 2.250000 0.000000
vt 3.000000 2.250000
vt 0.000000 2.250000
vt 0.000000 0.750000
vt 3.000000 0.750000
vt 3.000000 0.568020
vt 2.625000 0.568020
vt 2.625000 -2.627290
vt 3.000000 -2.627290
vt -3.000000 0.000000
vt -3.000000 1.650000
vt -3.000000 2.250000
vt -3.000000 0.750000
vt -0.000000 0.000000
vt -0.000000 -2.627290
vt 0.375000 -2.627290
vt 0.375000 0.568020
vt -0.000000 0.568020
vt -0.000000 0.550000
vt 3.000000 -0.000000
vt -3.000000 3.000000
vt -3.000000 2.625000
vt -0.000000 2.625000
vt 0.000000 3.000000
vt -0.000000 0.375000
vt -3.000000 0.375000
vn 0.000000 0.000000 1.000000
vn 0.344300 0.938900 0.000000
vn -0.000000 0.000000 -1.000000
vn -1.000000 0.000000 0.000000
vn 1.000000 0.000000 0.000000
vn 0.000000 1.000000 0.000000
vn 0.000000 -1.000000 -0.000000
usemtl Stone
s 1
f 5/1/1 4/2/1 23/3/1 21/4/1
f 3/5/2 24/6/2 23/7/2 4/8/2
f 24/3/3 3/9/3 2/10/3 10/11/3
f 21/12/4 23/13/4 10/14/4
f 17/15/4 25/16/4 22/17/4
f 20/18/5 30/19/5 14/20/5 13/21/5
f 31/22/2 27/23/2 26/24/2 32/25/2
f 30/26/1 32/2/1 26/3/1 25/11/1
f 2/27/5 3/28/5 4/29/5 5/30/5
f 12/31/4 19/32/4 21/12/4
f 21/12/4 10/14/4 12/31/4
f 10/14/4 23/13/4 24/33/4
f 22/17/4 18/34/4 17/15/4
f 25/16/4 27/35/4 22/17/4
f 27/35/4 25/16/4 26/36/4
f 20/18/5 31/37/5 32/38/5 30/19/5
f 20/39/3 22/4/3 27/3/3 31/9/3
f 1/40/5 2/27/5 5/30/5 6/41/5
usemtl Water
f 13/21/5 6/41/5 5/30/5 20/18/5
f 5/42/6 21/43/6 22/44/6 20/45/6
f 19/32/4 18/34/4 22/17/4 21/12/4
usemtl Grass
f 9/46/2 10/47/2 2/48/2 7/49/2
f 11/50/4 12/31/4 10/14/4 9/51/4
f 19/43/7 6/52/7 13/53/7 18/44/7
f 28/11/4 25/16/4 17/15/4 16/54/4
f 29/55/2 30/56/2 25/57/2 28/58/2
f 15/54/5 14/20/5 30/19/5 29/59/5
f 28/11/1 16/54/1 15/60/1 29/26/1
f 7/26/5 2/27/5 1/40/5 8/60/5
f 8/61/7 1/62/7 12/63/7 11/64/7
f 12/63/7 1/62/7 6/52/7 19/43/7
f 17/65/7 14/66/7 15/50/7 16/54/7
f 13/53/7 14/66/7 17/65/7 18/44/7
f 8/50/3 11/54/3 9/11/3 7/10/3
