# Blender v2.75 (sub 0) OBJ File: ''
# www.blender.org
mtllib roadTile_059.mtl
o Mesh1_Group1_Model.138
v 0.750000 0.600000 0.000000
v 0.750000 0.300000 0.000000
v 3.000000 0.300000 0.000000
v 3.000000 0.600000 0.000000
v 0.750000 0.630000 0.000000
v 0.000000 0.630000 0.000000
v 0.000000 0.000000 -0.000000
v 3.000000 0.000000 0.000000
v 0.750000 0.630000 -3.000000
v 0.750000 0.600000 -3.000000
v 0.000000 0.630000 -3.000000
v 0.750000 0.300000 -3.000000
v 3.000000 0.300000 -3.000000
v 3.000000 0.000000 -3.000000
v 0.000000 0.000000 -3.000000
v 3.000000 0.600000 -3.000000
vt 0.750000 0.300000
vt 0.750000 0.600000
vt 0.000000 0.630000
vt -0.000000 0.000000
vt 0.750000 0.000000
vt 0.750000 3.000000
vt 0.000000 3.000000
vt -0.750000 0.300000
vt -0.750000 0.600000
vt 3.000000 0.000000
vt 3.000000 0.300000
vt 0.000000 0.300000
vt -3.000000 3.000000
vt -3.000000 0.000000
vt -3.000000 0.630000
vt 3.000000 0.630000
vt 0.000000 0.600000
vt 3.000000 0.600000
vt 0.750000 0.630000
vt -0.750000 0.630000
vt -3.000000 0.300000
vt 3.000000 3.000000
vt -3.000000 0.600000
vn -0.000000 -0.000000 1.000000
vn 0.000000 1.000000 0.000000
vn 0.000000 0.000000 -1.000000
vn 1.000000 0.000000 0.000000
vn -0.000000 -1.000000 -0.000000
vn -1.000000 0.000000 -0.000000
usemtl Stone
s 1
f 2/1/1 1/2/1 6/3/1 7/4/1
f 6/4/2 5/5/2 9/6/2 11/7/2
f 12/8/3 15/4/3 11/3/3 10/9/3
f 14/10/4 13/11/4 3/12/4 8/4/4
f 14/13/5 8/14/5 7/4/5 15/7/5
f 15/14/6 7/4/6 6/3/6 11/15/6
f 2/1/1 8/10/1 3/11/1
f 9/16/4 5/3/4 1/17/4 10/18/4
f 6/3/1 1/2/1 5/19/1
f 7/4/1 8/10/1 2/1/1
f 11/3/3 9/20/3 10/9/3
f 12/8/3 14/14/3 15/4/3
f 12/8/3 13/21/3 14/14/3
usemtl Asphalt
f 4/17/4 3/12/4 13/11/4 16/18/4
f 4/10/2 16/22/2 10/6/2 1/5/2
f 16/23/3 13/21/3 12/8/3 10/9/3
f 1/2/1 2/1/1 3/11/1 4/18/1
