# Blender v2.75 (sub 0) OBJ File: ''
# www.blender.org
mtllib roadTile_094.mtl
o Mesh1_Group1_Model.184
v 3.000000 0.630000 -0.937500
v 1.500000 0.630000 -0.937500
v 1.500000 0.630000 -1.125000
v 3.000000 0.630000 -1.125000
v 3.000000 0.630000 -1.875000
v 1.500000 0.630000 -1.875000
v 1.500000 0.630000 -2.062500
v 3.000000 0.630000 -2.062500
v 3.000000 0.630000 -3.000000
v 0.000000 0.630000 -3.000000
v 0.000000 0.630000 0.000000
v 3.000000 0.630000 0.000000
v 3.000000 0.570000 -0.937500
v 1.500000 0.570000 -0.937500
v 3.000000 0.000000 0.000000
v 3.000000 0.000000 -3.000000
v 3.000000 0.570000 -2.062500
v 3.000000 0.570000 -1.875000
v 3.000000 0.570000 -1.125000
v 0.000000 0.000000 -0.000000
v 0.000000 0.000000 -3.000000
v 1.500000 0.570000 -2.062500
v 1.500000 0.570000 -1.875000
v 1.500000 0.570000 -1.125000
vt 0.937500 0.570000
vt 0.937500 0.630000
vt 0.000000 0.630000
vt -0.000000 -0.000000
vt 3.000000 -0.000000
vt 1.125000 0.570000
vt 3.000000 0.630000
vt -3.000000 0.630000
vt -3.000000 -0.000000
vt 1.500000 0.937500
vt 3.000000 0.937500
vt 1.500000 2.062500
vt 3.000000 3.000000
vt 0.000000 3.000000
vt 3.000000 2.062500
vt 1.500000 1.125000
vt 1.500000 1.875000
vt 1.875000 0.570000
vt 1.875000 0.630000
vt 1.125000 0.630000
vt 2.062500 0.630000
vt 2.062500 0.570000
vt -3.000000 3.000000
vt 3.000000 1.875000
vt 3.000000 1.125000
vt 1.500000 0.630000
vt 1.500000 0.570000
vt 3.000000 0.570000
vt -1.500000 0.630000
vt -3.000000 0.570000
vt -1.500000 0.570000
vn 1.000000 0.000000 0.000000
vn -0.000000 -0.000000 1.000000
vn -1.000000 0.000000 0.000000
vn 0.000000 0.000000 -1.000000
vn -0.000000 1.000000 0.000000
vn 0.000000 -1.000000 -0.000000
usemtl Stone.156
s 1
f 13/1/1 1/2/1 12/3/1 15/4/1
f 15/4/1 16/5/1 19/6/1
f 11/3/2 20/4/2 15/5/2 12/7/2
f 11/3/3 10/8/3 21/9/3 20/4/3
f 9/8/4 16/9/4 21/4/4 10/3/4
f 2/10/5 12/5/5 1/11/5
f 7/12/5 9/13/5 10/14/5
f 11/4/5 12/5/5 2/10/5
f 7/12/5 8/15/5 9/13/5
f 3/16/5 11/4/5 2/10/5
f 3/16/5 6/17/5 10/14/5 11/4/5
f 6/17/5 7/12/5 10/14/5
f 18/18/1 5/19/1 4/20/1 19/6/1
f 9/7/1 8/21/1 17/22/1 16/5/1
f 19/6/1 13/1/1 15/4/1
f 15/9/6 20/4/6 21/14/6 16/23/6
f 16/5/1 18/18/1 19/6/1
f 18/18/1 16/5/1 17/22/1
f 5/24/5 6/17/5 3/16/5 4/25/5
usemtl Grey_Asphalt.015
f 8/7/2 7/26/2 22/27/2 17/28/2
f 7/21/1 6/19/1 23/18/1 22/22/1
f 6/29/4 5/8/4 18/30/4 23/31/4
f 18/24/5 17/15/5 22/12/5 23/17/5
f 4/7/2 3/26/2 24/27/2 19/28/2
f 3/20/1 2/2/1 14/1/1 24/6/1
f 19/25/5 24/16/5 14/10/5 13/11/5
f 2/29/4 1/8/4 13/30/4 14/31/4
