# Blender v2.75 (sub 0) OBJ File: ''
# www.blender.org
mtllib roadTile_193.mtl
o Mesh1_Group1_Model.204
v 0.000000 0.600000 -2.250000
v 3.000000 0.600000 -2.250000
v 2.340000 1.260000 -2.250000
v 0.000000 1.260000 -2.250000
v 0.000000 0.600000 -0.750000
v 3.000000 0.600000 -0.750000
v 0.000000 0.300000 -2.250000
v 0.000000 0.300000 -0.750000
v 0.000000 1.260000 -2.625000
v 0.000000 0.550000 -2.625000
v 0.000000 0.000000 -2.625000
v 0.000000 0.000000 -0.375000
v 0.000000 0.550000 -0.375000
v 0.000000 1.260000 -0.375000
v 0.000000 1.260000 -0.750000
v 2.340000 1.260000 -2.625000
v 3.000000 0.600000 -2.625000
v 3.000000 0.550000 -2.625000
v 3.000000 0.000000 -0.375000
v 3.000000 0.000000 -2.625000
v 3.000000 0.300000 -2.250000
v 3.000000 0.300000 -0.750000
v 3.000000 0.600000 -0.375000
v 3.000000 0.550000 -0.375000
v 0.000000 0.000000 0.000000
v 0.000000 0.000000 -3.000000
v 3.000000 0.000000 -3.000000
v 3.000000 0.000000 -0.000000
v 0.000000 0.550000 0.000000
v 3.000000 0.550000 0.000000
v 2.340000 1.260000 -0.375000
v 2.340000 1.260000 -0.750000
v 0.000000 0.550000 -3.000000
v 3.000000 0.550000 -3.000000
vt 0.000000 0.600000
vt 3.000000 0.600000
vt 2.340000 1.260000
vt -2.625000 0.550000
vt -2.250000 0.600000
vt -2.250000 1.260000
vt -2.625000 1.260000
vt -2.625000 0.000000
vt -0.375000 0.000000
vt -0.750000 0.300000
vt -2.340000 1.260000
vt -3.000000 0.600000
vt -3.000000 0.550000
vt 0.750000 0.300000
vt 0.750000 0.600000
vt 0.375000 0.600000
vt 0.375000 0.550000
vt 0.375000 0.000000
vt 2.625000 0.000000
vt 2.250000 0.300000
vt 0.750000 -1.697060
vt 0.750000 -0.763675
vt 0.375000 -0.763675
vt 0.375000 -1.697060
vt 0.000000 0.550000
vt 3.000000 0.550000
vt 0.000000 0.750000
vt 0.000000 0.375000
vt 2.340000 0.375000
vt 2.340000 0.750000
vt 2.340000 2.250000
vt 2.340000 2.625000
vt 0.000000 2.625000
vt 0.000000 2.250000
vt 0.000000 1.260000
vt -0.375000 0.550000
vt -0.750000 0.600000
vt -0.375000 1.260000
vt -0.750000 1.260000
vt -2.250000 0.300000
vt 2.250000 -0.763675
vt 2.250000 -1.697060
vt 2.625000 -1.697060
vt 2.625000 -0.763675
vt 2.625000 0.550000
vt 2.625000 0.600000
vt 2.250000 0.600000
vt 3.000000 0.000000
vt 0.000000 0.000000
vt 3.000000 0.375000
vt -3.000000 0.000000
vt 3.000000 3.000000
vt 0.000000 3.000000
vt 3.000000 2.625000
vt -3.000000 0.375000
vt -3.000000 2.625000
vt -3.000000 3.000000
vt 3.000000 2.250000
vt 3.000000 0.750000
vn 0.000000 0.000000 1.000000
vn -1.000000 0.000000 -0.000000
vn 0.000000 0.000000 -1.000000
vn 1.000000 -0.000000 0.000000
vn 0.707100 0.707100 0.000000
vn 0.000000 1.000000 0.000000
vn -0.000000 -1.000000 -0.000000
usemtl Stone
s 1
f 1/1/1 2/2/1 3/3/1
f 10/4/2 1/5/2 4/6/2 9/7/2
f 11/8/2 12/9/2 8/10/2
f 16/11/3 17/12/3 18/13/3
f 22/14/4 6/15/4 23/16/4 24/17/4
f 19/18/4 20/19/4 21/20/4
f 6/21/5 32/22/5 31/23/5 23/24/5
f 31/3/1 13/25/1 24/26/1
f 15/27/6 14/28/6 31/29/6 32/30/6
f 32/11/3 6/12/3 5/1/3
f 3/31/6 16/32/6 9/33/6 4/34/6
f 4/35/1 1/1/1 3/3/1
f 12/9/2 13/36/2 5/37/2 8/10/2
f 13/36/2 14/38/2 15/39/2 5/37/2
f 10/4/2 11/8/2 7/40/2 1/5/2
f 3/41/5 2/42/5 17/43/5 16/44/5
f 8/10/2 7/40/2 11/8/2
f 10/25/3 9/35/3 16/11/3
f 16/11/3 18/13/3 10/25/3
f 22/14/4 24/17/4 19/18/4
f 18/45/4 17/46/4 2/47/4 21/20/4
f 21/20/4 22/14/4 19/18/4
f 20/19/4 18/45/4 21/20/4
f 13/25/1 31/3/1 14/35/1
f 31/3/1 24/26/1 23/2/1
f 15/35/3 32/11/3 5/1/3
usemtl Grass
f 28/48/1 30/26/1 29/25/1 25/49/1
f 28/49/4 19/18/4 24/17/4 30/25/4
f 29/49/6 30/48/6 24/50/6 13/28/6
f 26/51/2 11/8/2 10/4/2 33/13/2
f 34/52/6 33/53/6 10/33/6 18/54/6
f 26/49/3 33/25/3 34/13/3 27/51/3
f 27/48/4 34/26/4 18/45/4 20/19/4
f 25/49/7 12/28/7 19/55/7 28/51/7
f 12/28/7 11/33/7 20/56/7 19/55/7
f 20/56/7 11/33/7 26/53/7 27/57/7
f 25/49/2 29/25/2 13/36/2 12/9/2
usemtl Asphalt
f 1/5/2 7/40/2 8/10/2 5/37/2
f 6/15/4 22/14/4 21/20/4 2/47/4
f 2/58/6 1/34/6 5/27/6 6/59/6
