# Blender v2.75 (sub 0) OBJ File: ''
# www.blender.org
mtllib roadTile_172.mtl
o Mesh1_Group1_Model.283
v 2.412170 0.600000 -2.549490
v 2.476510 0.600000 -2.476510
v 2.476510 1.730000 -2.476510
v 2.412170 1.730000 -2.549490
v 2.259150 0.600000 -2.903140
v 2.250000 0.600000 -3.000000
v 0.750000 0.600000 -3.000000
v 0.756827 0.600000 -2.701910
v 0.804783 0.600000 -2.407630
v 0.892946 0.600000 -2.122790
v 1.019630 0.600000 -1.852870
v 1.182390 0.600000 -1.603050
v 1.378120 0.600000 -1.378120
v 1.603050 0.600000 -1.182390
v 1.852870 0.600000 -1.019630
v 2.122790 0.600000 -0.892946
v 2.407630 0.600000 -0.804783
v 2.701910 0.600000 -0.756827
v 3.000000 0.600000 -0.750000
v 3.000000 0.600000 -2.250000
v 2.903140 0.600000 -2.259150
v 2.808190 0.600000 -2.280370
v 2.716650 0.600000 -2.313320
v 2.629960 0.600000 -2.357480
v 2.549490 0.600000 -2.412170
v 2.357480 0.600000 -2.629960
v 2.313320 0.600000 -2.716650
v 2.280370 0.600000 -2.808190
v 2.259150 1.730000 -2.903140
v 2.250000 1.730000 -3.000000
v 2.280370 1.730000 -2.808190
v 2.313320 1.730000 -2.716650
v 2.357480 1.730000 -2.629960
v 3.000000 1.730000 -2.250000
v 3.000000 1.730000 -2.625000
v 2.951050 1.730000 -2.628210
v 2.902940 1.730000 -2.637780
v 2.856490 1.730000 -2.653550
v 2.812500 1.730000 -2.675240
v 2.771710 1.730000 -2.702490
v 2.734830 1.730000 -2.734830
v 2.702490 1.730000 -2.771710
v 2.675240 1.730000 -2.812500
v 2.653550 1.730000 -2.856490
v 2.637780 1.730000 -2.902940
v 2.628210 1.730000 -2.951050
v 2.625000 1.730000 -3.000000
v 2.549490 1.730000 -2.412170
v 2.629960 1.730000 -2.357480
v 2.716650 1.730000 -2.313320
v 2.808190 1.730000 -2.280370
v 2.903140 1.730000 -2.259150
v 3.000000 0.000000 -0.375000
v 3.000000 0.000000 -2.625000
v 3.000000 1.650000 -2.625000
v 3.000000 0.300000 -2.250000
v 3.000000 0.300000 -0.750000
v 3.000000 1.730000 -0.750000
v 3.000000 1.730000 -0.375000
v 3.000000 1.650000 -0.375000
v 2.625000 0.000000 -3.000000
v 3.000000 0.000000 -3.000000
v 3.000000 0.000000 0.000000
v 0.000000 0.000000 0.000000
v 0.000000 0.000000 -3.000000
v 0.375000 0.000000 -3.000000
v 2.625000 1.650000 -3.000000
v 3.000000 1.650000 -3.000000
v 0.375000 1.650000 -3.000000
v 0.375000 1.730000 -3.000000
v 0.750000 1.730000 -3.000000
v 0.750000 0.300000 -3.000000
v 2.250000 0.300000 -3.000000
v 0.000000 1.650000 -3.000000
v 3.000000 1.650000 0.000000
v 2.657370 1.650000 -0.397457
v 2.320600 1.650000 -0.464445
v 1.995460 1.650000 -0.574816
v 1.687500 1.650000 -0.726683
v 1.402000 1.650000 -0.917447
v 1.143840 1.650000 -1.143840
v 0.917447 1.650000 -1.402000
v 0.726683 1.650000 -1.687500
v 0.574816 1.650000 -1.995460
v 0.464445 1.650000 -2.320600
v 0.397457 1.650000 -2.657370
v 0.000000 1.650000 0.000000
v 2.657370 1.730000 -0.397457
v 0.397457 1.730000 -2.657370
v 0.464445 1.730000 -2.320600
v 0.574816 1.730000 -1.995460
v 0.726683 1.730000 -1.687500
v 0.917447 1.730000 -1.402000
v 1.143840 1.730000 -1.143840
v 1.402000 1.730000 -0.917447
v 1.687500 1.730000 -0.726683
v 1.995460 1.730000 -0.574816
v 2.320600 1.730000 -0.464445
v 2.701910 1.730000 -0.756827
v 2.407630 1.730000 -0.804783
v 2.122790 1.730000 -0.892946
v 1.852870 1.730000 -1.019630
v 1.603050 1.730000 -1.182390
v 1.378120 1.730000 -1.378120
v 1.182390 1.730000 -1.603050
v 1.019630 1.730000 -1.852870
v 0.892946 1.730000 -2.122790
v 0.804783 1.730000 -2.407630
v 0.756827 1.730000 -2.701910
v 2.628210 1.650000 -2.951050
v 2.637780 1.650000 -2.902940
v 2.653550 1.650000 -2.856490
v 2.675240 1.650000 -2.812500
v 2.702490 1.650000 -2.771710
v 2.734830 1.650000 -2.734830
v 2.771710 1.650000 -2.702490
v 2.812500 1.650000 -2.675240
v 2.856490 1.650000 -2.653550
v 2.902940 1.650000 -2.637780
v 2.951050 1.650000 -2.628210
vt -2.340590 0.600000
vt -2.243300 0.600000
vt -2.243300 1.730000
vt -2.340590 1.730000
vt -1.869890 0.600000
vt -1.772590 0.600000
vt -1.772590 1.730000
vt -1.869890 1.730000
vt -1.370450 0.600000
vt -1.273160 0.600000
vt -1.273160 1.730000
vt -1.370450 1.730000
vt -0.850161 0.600000
vt -0.752869 0.600000
vt -0.752869 1.730000
vt -0.850161 1.730000
vt 3.000000 2.625000
vt 2.951050 2.628210
vt 2.903140 2.259150
vt 3.000000 2.250000
vt 0.375000 0.000000
vt 2.625000 0.000000
vt 2.250000 0.300000
vt -2.625000 0.000000
vt -0.375000 0.000000
vt -0.750000 0.300000
vt 2.969050 1.730000
vt 2.625680 1.730000
vt 2.625680 1.650000
vt 2.969050 1.650000
vt 2.657370 0.397457
vt 3.000000 0.375000
vt 3.000000 0.750000
vt 2.701910 0.756827
vt -2.185400 1.730000
vt -2.528770 1.730000
vt -2.528770 1.650000
vt -2.185400 1.650000
vt -1.704790 1.730000
vt -2.048160 1.730000
vt -2.048160 1.650000
vt -1.704790 1.650000
vt -1.192070 1.730000
vt -1.535440 1.730000
vt -1.535440 1.650000
vt -1.192070 1.650000
vt -0.656015 1.730000
vt -0.999381 1.730000
vt -0.999381 1.650000
vt -0.656015 1.650000
vt -0.105799 1.730000
vt -0.449165 1.730000
vt -0.449165 1.650000
vt -0.105799 1.650000
vt 0.449165 1.730000
vt 0.105799 1.730000
vt 0.105799 1.650000
vt 0.449165 1.650000
vt 0.999381 1.730000
vt 0.656015 1.730000
vt 0.656015 1.650000
vt 0.999381 1.650000
vt 1.535440 1.730000
vt 1.192070 1.730000
vt 1.192070 1.650000
vt 1.535440 1.650000
vt 2.048160 1.730000
vt 1.704790 1.730000
vt 1.704790 1.650000
vt 2.048160 1.650000
vt 2.528770 1.730000
vt 2.185400 1.730000
vt 2.185400 1.650000
vt 2.528770 1.650000
vt -2.982040 0.600000
vt -2.683870 0.600000
vt -2.683870 1.730000
vt -2.982040 1.730000
vt -2.545010 0.600000
vt -2.246840 0.600000
vt -2.246840 1.730000
vt -2.545010 1.730000
vt -2.062010 0.600000
vt -1.763840 0.600000
vt -1.763840 1.730000
vt -2.062010 1.730000
vt -1.542300 0.600000
vt -1.244130 0.600000
vt -1.244130 1.730000
vt -1.542300 1.730000
vt -0.995851 0.600000
vt -0.697684 0.600000
vt -0.697684 1.730000
vt -0.995851 1.730000
vt -0.433156 0.600000
vt -0.134989 0.600000
vt -0.134989 1.730000
vt -0.433156 1.730000
vt 0.134989 0.600000
vt 0.433156 0.600000
vt 0.433156 1.730000
vt 0.134989 1.730000
vt 0.697684 0.600000
vt 0.995851 0.600000
vt 0.995851 1.730000
vt 0.697684 1.730000
vt 1.244130 0.600000
vt 1.542300 0.600000
vt 1.542300 1.730000
vt 1.244130 1.730000
vt 1.763840 0.600000
vt 2.062010 0.600000
vt 2.062010 1.730000
vt 1.763840 1.730000
vt 2.246840 0.600000
vt 2.545010 0.600000
vt 2.545010 1.730000
vt 2.246840 1.730000
vt 2.683870 0.600000
vt 2.982040 0.600000
vt 2.982040 1.730000
vt 2.683870 1.730000
vt 2.821890 1.730000
vt 2.772840 1.730000
vt 2.772840 1.650000
vt 2.821890 1.650000
vt 2.381610 1.730000
vt 2.332560 1.730000
vt 2.332560 1.650000
vt 2.381610 1.650000
vt 1.901000 1.730000
vt 1.851950 1.730000
vt 1.851950 1.650000
vt 1.901000 1.650000
vt 1.388280 1.730000
vt 1.339230 1.730000
vt 1.339230 1.650000
vt 1.388280 1.650000
vt 0.852224 1.730000
vt 0.803172 1.730000
vt 0.803172 1.650000
vt 0.852224 1.650000
vt 0.302008 1.730000
vt 0.252956 1.730000
vt 0.252956 1.650000
vt 0.302008 1.650000
vt -0.252956 1.730000
vt -0.302008 1.730000
vt -0.302008 1.650000
vt -0.252956 1.650000
vt -0.803172 1.730000
vt -0.852224 1.730000
vt -0.852224 1.650000
vt -0.803172 1.650000
vt -1.339230 1.730000
vt -1.388280 1.730000
vt -1.388280 1.650000
vt -1.339230 1.650000
vt -1.851950 1.730000
vt -1.901000 1.730000
vt -1.901000 1.650000
vt -1.851950 1.650000
vt -2.332560 1.730000
vt -2.381610 1.730000
vt -2.381610 1.650000
vt -2.332560 1.650000
vt -2.772840 1.730000
vt -2.821890 1.730000
vt -2.821890 1.650000
vt -2.772840 1.650000
vt 2.677860 0.600000
vt 2.775150 0.600000
vt 2.775150 1.730000
vt 2.677860 1.730000
vt 2.243300 0.600000
vt 2.340590 0.600000
vt 2.340590 1.730000
vt 2.243300 1.730000
vt 1.772590 0.600000
vt 1.869890 0.600000
vt 1.869890 1.730000
vt 1.772590 1.730000
vt 1.273160 0.600000
vt 1.370450 0.600000
vt 1.370450 1.730000
vt 1.273160 1.730000
vt 0.752869 0.600000
vt 0.850161 0.600000
vt 0.850161 1.730000
vt 0.752869 1.730000
vt 0.219938 0.600000
vt 0.317230 0.600000
vt 0.317230 1.730000
vt 0.219938 1.730000
vt -2.775150 0.600000
vt -2.677860 0.600000
vt -2.677860 1.730000
vt -2.775150 1.730000
vt 2.902940 2.637780
vt 2.856490 2.653550
vt 2.716650 2.313320
vt 2.808190 2.280370
vt 2.812500 2.675240
vt 2.771710 2.702490
vt 2.549490 2.412170
vt 2.629960 2.357480
vt 2.412170 2.549490
vt 2.476510 2.476510
vt 2.734830 2.734830
vt 2.702490 2.771710
vt 2.675240 2.812500
vt 2.357480 2.629960
vt 2.313320 2.716650
vt 2.653550 2.856490
vt 2.637780 2.902940
vt 2.280370 2.808190
vt 2.259150 2.903140
vt 2.628210 2.951050
vt 2.625000 3.000000
vt 2.250000 3.000000
vt 0.750000 0.600000
vt 0.375000 1.650000
vt 0.750000 1.730000
vt 0.375000 1.730000
vt 2.250000 0.600000
vt 2.625000 1.650000
vt 2.250000 1.730000
vt 0.750000 0.300000
vt 2.625000 1.730000
vt -2.250000 0.600000
vt -2.625000 1.650000
vt -2.250000 1.730000
vt -2.625000 1.730000
vt -0.750000 0.600000
vt -0.375000 1.650000
vt -0.750000 1.730000
vt -2.250000 0.300000
vt -0.375000 1.730000
vt 0.397457 2.657370
vt 0.756827 2.701910
vt 0.750000 3.000000
vt 0.375000 3.000000
vt 2.320600 0.464445
vt 2.407630 0.804783
vt 2.122790 0.892946
vt 1.995460 0.574816
vt 0.464445 2.320600
vt 0.804783 2.407630
vt 1.687500 0.726683
vt 1.852870 1.019630
vt 0.574816 1.995460
vt 0.892946 2.122790
vt 1.402000 0.917447
vt 1.603050 1.182390
vt 1.019630 1.852870
vt 0.726683 1.687500
vt 1.143840 1.143840
vt 1.378120 1.378120
vt 0.917447 1.402000
vt 1.182390 1.603050
vt -2.625680 1.730000
vt -2.969050 1.730000
vt -2.969050 1.650000
vt -2.625680 1.650000
vt -0.317230 0.600000
vt -0.219938 0.600000
vt -0.219938 1.730000
vt -0.317230 1.730000
vt -2.625000 3.000000
vt -3.000000 2.625000
vt -3.000000 0.375000
vt -0.000000 1.650000
vt -0.000000 0.000000
vt 3.000000 0.000000
vt 3.000000 1.650000
vt -3.000000 -0.000000
vt -3.000000 1.650000
vt 3.000000 3.000000
vt -0.375000 3.000000
vt 0.000000 3.000000
vt -3.000000 3.000000
vn -0.987700 0.000000 0.156400
vn -0.960300 0.000000 0.278900
vn -0.917800 0.000000 0.397100
vn -0.860800 0.000000 0.509000
vn -0.790100 0.000000 0.612900
vn 0.000000 1.000000 0.000000
vn 1.000000 -0.000000 0.000000
vn 0.000000 0.000000 -1.000000
vn -0.065400 -0.000000 0.997900
vn -0.130500 -0.000000 0.991400
vn -0.965900 0.000000 0.258800
vn -0.991400 0.000000 0.130500
vn -0.923900 0.000000 0.382700
vn -0.866000 0.000000 0.500000
vn -0.793400 0.000000 0.608800
vn -0.707100 0.000000 0.707100
vn -0.608800 0.000000 0.793400
vn -0.500000 0.000000 0.866000
vn -0.382700 0.000000 0.923900
vn -0.258800 0.000000 0.965900
vn 0.022900 0.000000 -0.999700
vn 0.092100 0.000000 -0.995800
vn 0.228800 0.000000 -0.973500
vn 0.361100 0.000000 -0.932500
vn 0.486500 0.000000 -0.873700
vn 0.602600 0.000000 -0.798000
vn 0.707100 0.000000 -0.707100
vn 0.798000 0.000000 -0.602600
vn 0.873700 0.000000 -0.486500
vn 0.932500 0.000000 -0.361100
vn 0.973500 0.000000 -0.228800
vn 0.995800 0.000000 -0.092100
vn 0.999700 0.000000 -0.022900
vn 0.997900 0.000000 -0.065400
vn 0.991400 0.000000 -0.130500
vn 0.965900 0.000000 -0.258800
vn 0.923900 0.000000 -0.382700
vn 0.866100 0.000000 -0.499900
vn 0.793400 0.000000 -0.608700
vn 0.608700 0.000000 -0.793400
vn 0.499900 0.000000 -0.866100
vn 0.382700 0.000000 -0.923900
vn 0.258800 0.000000 -0.965900
vn 0.130500 0.000000 -0.991400
vn 0.065400 0.000000 -0.997900
vn -0.156400 0.000000 0.987700
vn -0.094000 0.000000 0.995600
vn -0.278900 0.000000 0.960300
vn -0.397100 0.000000 0.917800
vn -0.509000 0.000000 0.860800
vn -0.612900 0.000000 0.790100
vn -0.995600 0.000000 0.094000
vn -0.997900 0.000000 0.065400
vn 0.000000 -1.000000 -0.000000
vn 0.000000 -0.000000 1.000000
vn -1.000000 -0.000000 0.000000
usemtl Stone
s 1
f 5/1/1 28/2/2 31/3/2 29/4/1
f 28/5/2 27/6/3 32/7/3 31/8/2
f 27/9/3 26/10/4 33/11/4 32/12/3
f 26/13/4 1/14/5 4/15/5 33/16/4
f 35/17/6 36/18/6 52/19/6 34/20/6
f 53/21/7 54/22/7 56/23/7
f 61/24/8 66/25/8 72/26/8
f 59/27/9 88/28/10 76/29/10 60/30/9
f 88/31/6 59/32/6 58/33/6 99/34/6
f 90/35/11 89/36/12 86/37/12 85/38/11
f 91/39/13 90/40/11 85/41/11 84/42/13
f 92/43/14 91/44/13 84/45/13 83/46/14
f 93/47/15 92/48/14 83/49/14 82/50/15
f 94/51/16 93/52/15 82/53/15 81/54/16
f 95/55/17 94/56/16 81/57/16 80/58/17
f 96/59/18 95/60/17 80/61/17 79/62/18
f 97/63/19 96/64/18 79/65/18 78/66/19
f 98/67/20 97/68/19 78/69/19 77/70/20
f 88/71/10 98/72/20 77/73/20 76/74/10
f 19/75/21 18/76/22 99/77/22 58/78/21
f 18/79/22 17/80/23 100/81/23 99/82/22
f 17/83/23 16/84/24 101/85/24 100/86/23
f 16/87/24 15/88/25 102/89/25 101/90/24
f 15/91/25 14/92/26 103/93/26 102/94/25
f 14/95/26 13/96/27 104/97/27 103/98/26
f 13/99/27 12/100/28 105/101/28 104/102/27
f 12/103/28 11/104/29 106/105/29 105/106/28
f 11/107/29 10/108/30 107/109/30 106/110/29
f 10/111/30 9/112/31 108/113/31 107/114/30
f 9/115/31 8/116/32 109/117/32 108/118/31
f 8/119/32 7/120/33 71/121/33 109/122/32
f 47/123/34 46/124/35 110/125/35 67/126/34
f 46/127/35 45/128/36 111/129/36 110/130/35
f 45/131/36 44/132/37 112/133/37 111/134/36
f 44/135/37 43/136/38 113/137/38 112/138/37
f 43/139/38 42/140/39 114/141/39 113/142/38
f 42/143/39 41/144/27 115/145/27 114/146/39
f 41/147/27 40/148/40 116/149/40 115/150/27
f 40/151/40 39/152/41 117/153/41 116/154/40
f 39/155/41 38/156/42 118/157/42 117/158/41
f 38/159/42 37/160/43 119/161/43 118/162/42
f 37/163/43 36/164/44 120/165/44 119/166/43
f 36/167/44 35/168/45 55/169/45 120/170/44
f 21/171/46 20/172/47 34/173/47 52/174/46
f 22/175/48 21/176/46 52/177/46 51/178/48
f 23/179/49 22/180/48 51/181/48 50/182/49
f 24/183/50 23/184/49 50/185/49 49/186/50
f 25/187/51 24/188/50 49/189/50 48/190/51
f 2/191/16 25/192/51 48/193/51 3/194/16
f 6/195/52 5/196/1 29/197/1 30/198/52
f 37/199/6 38/200/6 50/201/6 51/202/6
f 39/203/6 40/204/6 48/205/6 49/206/6
f 4/207/6 3/208/6 41/209/6 42/210/6
f 4/207/6 42/210/6 43/211/6 33/212/6
f 32/213/6 44/214/6 45/215/6 31/216/6
f 29/217/6 46/218/6 47/219/6 30/220/6
f 51/202/6 52/19/6 36/18/6 37/199/6
f 31/216/6 45/215/6 46/218/6 29/217/6
f 49/206/6 50/201/6 38/200/6 39/203/6
f 43/211/6 44/214/6 32/213/6 33/212/6
f 3/208/6 48/205/6 40/204/6 41/209/6
f 19/221/7 60/222/7 53/21/7
f 60/222/7 58/223/7 59/224/7
f 54/22/7 20/225/7 56/23/7
f 60/222/7 19/221/7 58/223/7
f 55/226/7 34/227/7 20/225/7
f 57/228/7 19/221/7 53/21/7
f 55/226/7 35/229/7 34/227/7
f 56/23/7 57/228/7 53/21/7
f 54/22/7 55/226/7 20/225/7
f 6/230/8 67/231/8 61/24/8
f 67/231/8 30/232/8 47/233/8
f 66/25/8 7/234/8 72/26/8
f 67/231/8 6/230/8 30/232/8
f 69/235/8 71/236/8 7/234/8
f 73/237/8 6/230/8 61/24/8
f 69/235/8 70/238/8 71/236/8
f 72/26/8 73/237/8 61/24/8
f 66/25/8 69/235/8 7/234/8
f 89/239/6 109/240/6 71/241/6 70/242/6
f 98/243/6 88/31/6 99/34/6 100/244/6
f 101/245/6 97/246/6 98/243/6 100/244/6
f 89/239/6 90/247/6 108/248/6 109/240/6
f 96/249/6 97/246/6 101/245/6 102/250/6
f 90/247/6 91/251/6 107/252/6 108/248/6
f 95/253/6 96/249/6 102/250/6 103/254/6
f 106/255/6 107/252/6 91/251/6 92/256/6
f 94/257/6 95/253/6 103/254/6 104/258/6
f 93/259/6 105/260/6 106/255/6 92/256/6
f 105/260/6 93/259/6 94/257/6 104/258/6
f 89/261/12 70/262/53 69/263/53 86/264/12
f 1/265/5 2/266/16 3/267/16 4/268/5
usemtl Grass
f 61/269/54 54/270/54 53/271/54
f 74/272/8 69/235/8 66/25/8 65/273/8
f 63/273/7 53/21/7 60/222/7 75/272/7
f 80/253/6 81/257/6 87/273/6
f 64/273/55 63/274/55 75/275/55 87/272/55
f 65/276/56 64/273/56 87/272/56 74/277/56
f 68/275/7 55/226/7 54/22/7 62/274/7
f 68/278/6 114/210/6 115/209/6
f 53/271/54 64/273/54 66/279/54 61/269/54
f 62/276/8 61/24/8 67/231/8 68/277/8
f 66/279/54 64/273/54 65/280/54
f 64/273/54 53/271/54 63/276/54
f 61/269/54 62/281/54 54/270/54
f 85/247/6 74/280/6 87/273/6
f 76/31/6 75/274/6 60/32/6
f 86/239/6 69/242/6 74/280/6
f 77/243/6 75/274/6 76/31/6
f 85/247/6 86/239/6 74/280/6
f 87/273/6 75/274/6 77/243/6
f 84/251/6 85/247/6 87/273/6
f 87/273/6 77/243/6 78/246/6
f 83/256/6 84/251/6 87/273/6
f 87/273/6 78/246/6 79/249/6
f 82/259/6 83/256/6 87/273/6
f 87/273/6 79/249/6 80/253/6
f 81/257/6 82/259/6 87/273/6
f 120/18/6 55/17/6 68/278/6
f 68/278/6 119/199/6 120/18/6
f 68/278/6 117/203/6 118/200/6
f 68/278/6 115/209/6 116/204/6
f 68/278/6 113/211/6 114/210/6
f 68/278/6 111/215/6 112/214/6
f 68/278/6 67/219/6 110/218/6
f 118/200/6 119/199/6 68/278/6
f 68/278/6 116/204/6 117/203/6
f 68/278/6 112/214/6 113/211/6
f 111/215/6 68/278/6 110/218/6
usemtl Asphalt
f 21/19/6 18/34/6 19/33/6 20/20/6
f 6/230/8 73/237/8 72/26/8 7/234/8
f 19/221/7 57/228/7 56/23/7 20/225/7
f 8/240/6 5/217/6 6/220/6 7/241/6
f 22/202/6 17/244/6 18/34/6 21/19/6
f 23/201/6 16/245/6 17/244/6 22/202/6
f 8/240/6 9/248/6 28/216/6 5/217/6
f 24/206/6 15/250/6 16/245/6 23/201/6
f 25/205/6 14/254/6 15/250/6 24/206/6
f 9/248/6 10/252/6 27/213/6 28/216/6
f 2/208/6 13/258/6 14/254/6 25/205/6
f 26/212/6 27/213/6 10/252/6 11/255/6
f 1/207/6 26/212/6 11/255/6 12/260/6
f 2/208/6 1/207/6 12/260/6 13/258/6
