# Blender v2.75 (sub 0) OBJ File: ''
# www.blender.org
mtllib roadTile_292.mtl
o Mesh1_Group1_Model.049
v 0.000000 0.630000 0.000000
v 0.000000 0.000000 0.000000
v 3.000000 0.000000 -0.000000
v 3.000000 0.630000 0.000000
v 0.000000 0.000000 -3.000000
v 0.000000 0.630000 -0.750000
v 0.000000 0.600000 -0.750000
v 0.000000 0.300000 -0.750000
v 0.000000 0.300000 -2.250000
v 0.000000 0.600000 -2.250000
v 0.000000 0.630000 -2.250000
v 0.000000 0.630000 -3.000000
v 3.000000 0.000000 -3.000000
v 3.000000 0.630000 -3.000000
v 0.750000 0.630000 -3.000000
v 2.250000 0.630000 -3.000000
v 3.000000 0.600000 -2.250000
v 3.000000 0.300000 -2.250000
v 3.000000 0.300000 -0.750000
v 3.000000 0.600000 -0.750000
v 3.000000 0.630000 -0.750000
v 3.000000 0.630000 -2.250000
v 2.250000 0.600000 -2.250000
v 0.750000 0.600000 -2.250000
v 2.250000 0.630000 -2.250000
v 0.750000 0.630000 -2.250000
vt -2.250000 0.300000
vt -2.250000 0.600000
vt -3.000000 0.630000
vt -3.000000 -0.000000
vt 0.000000 -0.000000
vt -0.750000 0.300000
vt 0.750000 0.300000
vt 0.750000 0.600000
vt 0.000000 0.630000
vt -2.250000 0.630000
vt -0.750000 0.630000
vt 3.000000 -0.000000
vt 3.000000 0.750000
vt 0.000000 0.750000
vt 3.000000 0.600000
vt 3.000000 0.630000
vt 2.250000 0.630000
vt 2.250000 0.600000
vt 3.000000 3.000000
vt 2.250000 3.000000
vt 2.250000 2.250000
vt 3.000000 2.250000
vt 2.250000 2.272180
vt 2.250000 3.022780
vt 0.750000 3.022780
vt 0.750000 2.272180
vt 0.000000 2.250000
vt 0.750000 2.250000
vt 0.750000 3.000000
vt -0.000000 3.000000
vt 0.000000 0.600000
vt 0.750000 0.630000
vt -0.750000 0.600000
vt -3.000000 3.000000
vt 2.250000 0.300000
vt -3.000000 0.600000
vn -1.000000 -0.000000 0.000000
vn 1.000000 0.000000 0.000000
vn 0.000000 0.000000 -1.000000
vn 0.000000 1.000000 0.000000
vn 0.000000 0.000000 1.000000
vn 0.000000 0.999800 0.020000
vn 0.000000 0.999200 0.040000
vn 0.000000 -1.000000 -0.000000
usemtl Stone.042
s 1
f 9/1/1 10/2/1 12/3/1 5/4/1
f 5/4/1 2/5/1 8/6/1
f 19/7/2 20/8/2 4/9/2 3/5/2
f 16/10/3 13/4/3 15/11/3
f 13/12/2 19/7/2 3/5/2
f 21/13/4 6/14/4 1/5/4 4/12/4
f 17/15/5 22/16/5 25/17/5 23/18/5
f 14/19/4 16/20/4 25/21/4 22/22/4
f 23/23/6 16/24/7 15/25/7 24/26/6
f 16/3/1 23/2/1 25/10/1
f 11/27/4 26/28/4 15/29/4 12/30/4
f 24/18/2 15/16/2 26/17/2
f 10/31/5 24/8/5 26/32/5 11/9/5
f 2/5/1 1/9/1 7/33/1 8/6/1
f 12/3/1 10/2/1 11/10/1
f 3/4/8 2/5/8 5/30/8 13/34/8
f 1/9/1 6/11/1 7/33/1
f 8/6/1 9/1/1 5/4/1
f 13/4/3 16/10/3 14/3/3
f 5/5/3 12/9/3 15/11/3
f 15/11/3 13/4/3 5/5/3
f 14/16/2 22/17/2 17/18/2
f 13/12/2 14/16/2 17/18/2 18/35/2
f 20/8/2 21/32/2 4/9/2
f 19/7/2 13/12/2 18/35/2
f 20/36/3 7/31/3 6/9/3 21/3/3
f 1/9/5 2/5/5 3/12/5 4/16/5
usemtl Asphalt.036
f 7/14/4 20/13/4 23/21/6 24/28/6
f 10/2/1 9/1/1 8/6/1 7/33/1
f 20/8/2 19/7/2 18/35/2 17/18/2
f 24/28/6 10/27/4 7/14/4
f 23/21/6 20/13/4 17/22/4
