# Blender v2.75 (sub 0) OBJ File: ''
# www.blender.org
mtllib roadTile_050.mtl
o Mesh1_Group1_Model.033
v 3.000000 0.000000 -3.000000
v 0.375000 0.000000 -3.000000
v 0.375000 1.650000 -3.000000
v 0.375000 1.730000 -3.000000
v 0.750000 1.730000 -3.000000
v 0.750000 0.600000 -3.000000
v 0.750000 0.300000 -3.000000
v 3.000000 0.300000 -3.000000
v 3.000000 0.000000 0.000000
v 0.375000 0.000000 -0.000000
v 0.000000 0.000000 -0.000000
v 0.000000 0.000000 -3.000000
v 3.000000 0.300000 0.000000
v 3.000000 0.600000 0.000000
v 3.000000 0.600000 -3.000000
v 0.750000 0.600000 0.000000
v 0.750000 0.300000 0.000000
v 0.375000 1.730000 0.000000
v 0.375000 1.650000 0.000000
v 0.750000 1.730000 0.000000
v 0.000000 1.650000 0.000000
v 0.000000 1.650000 -3.000000
vt -0.375000 0.000000
vt -0.375000 1.650000
vt -0.750000 0.600000
vt -0.000000 1.730000
vt -3.000000 1.730000
vt -3.000000 1.650000
vt -0.000000 1.650000
vt 0.750000 0.600000
vt 0.375000 0.000000
vt 0.750000 0.300000
vt 0.750000 3.000000
vt 0.375000 3.000000
vt 0.750000 0.000000
vt 3.000000 1.730000
vt 0.000000 0.600000
vt 3.000000 0.600000
vt -0.750000 0.300000
vt -3.000000 0.300000
vt -3.000000 0.000000
vt -0.375000 1.730000
vt -0.750000 1.730000
vt 3.000000 0.000000
vt 3.000000 0.300000
vt 0.000000 0.300000
vt 0.000000 0.000000
vt 0.375000 1.650000
vt 0.750000 1.730000
vt 0.375000 1.730000
vt 0.000000 3.000000
vt -0.375000 3.000000
vt -3.000000 3.000000
vt 3.000000 3.000000
vt -3.000000 0.600000
vn -0.000000 0.000000 -1.000000
vn -1.000000 0.000000 0.000000
vn -0.000000 -0.000000 1.000000
vn 0.000000 1.000000 0.000000
vn 1.000000 0.000000 0.000000
vn -0.000000 -1.000000 -0.000000
usemtl Stone
s 1
f 2/1/1 3/2/1 6/3/1
f 18/4/2 4/5/2 3/6/2 19/7/2
f 16/8/3 10/9/3 17/10/3
f 5/11/4 4/12/4 18/9/4 20/13/4
f 5/14/5 20/4/5 16/15/5 6/16/5
f 7/17/1 8/18/1 1/19/1
f 2/1/1 6/3/1 7/17/1
f 3/2/1 4/20/1 5/21/1
f 7/17/1 1/19/1 2/1/1
f 6/3/1 3/2/1 5/21/1
f 1/22/5 8/23/5 13/24/5 9/25/5
f 19/26/3 20/27/3 18/28/3
f 9/22/3 13/23/3 17/10/3
f 19/26/3 16/8/3 20/27/3
f 10/9/3 9/22/3 17/10/3
f 10/9/3 16/8/3 19/26/3
usemtl Grass
f 21/25/4 19/9/4 3/12/4 22/29/4
f 11/25/3 10/9/3 19/26/3 21/7/3
f 12/19/2 11/25/2 21/7/2 22/6/2
f 22/7/1 3/2/1 2/1/1 12/25/1
f 2/30/6 10/1/6 11/25/6 12/29/6
f 1/31/6 9/19/6 10/1/6 2/30/6
usemtl Asphalt
f 14/15/5 13/24/5 8/23/5 15/16/5
f 16/8/3 17/10/3 13/23/3 14/16/3
f 14/22/4 15/32/4 6/11/4 16/13/4
f 15/33/1 8/18/1 7/17/1 6/3/1
