# Blender v2.75 (sub 0) OBJ File: ''
# www.blender.org
mtllib roadTile_200.mtl
o Mesh1_Group1_Model.139
v 3.000000 1.700000 -2.250000
v 0.000000 1.700000 -2.250000
v 0.000000 1.700000 -0.750000
v 3.000000 1.700000 -0.750000
v 3.000000 1.730000 -2.250000
v 0.000000 1.730000 -2.250000
v 3.000000 1.730000 0.000000
v 3.000000 0.000000 -0.000000
v 3.000000 0.000000 -3.000000
v 3.000000 1.730000 -3.000000
v 3.000000 1.400000 -2.250000
v 3.000000 1.400000 -0.750000
v 3.000000 1.730000 -0.750000
v 0.000000 1.730000 0.000000
v 0.000000 1.100000 0.000000
v 2.370000 1.100000 0.000000
v 2.370000 0.000000 -0.000000
v 0.000000 1.730000 -3.000000
v 0.000000 1.100000 -3.000000
v 0.000000 1.730000 -0.750000
v 0.000000 1.400000 -0.750000
v 0.000000 1.400000 -2.250000
v 2.370000 0.000000 -3.000000
v 2.370000 1.100000 -3.000000
vt 0.000000 1.700000
vt 3.000000 1.700000
vt 3.000000 1.730000
vt 0.000000 1.730000
vt 0.000000 0.000000
vt 3.000000 0.000000
vt 2.250000 1.400000
vt 0.750000 1.400000
vt 2.370000 1.100000
vt -3.000000 1.100000
vt 0.000000 1.100000
vt -0.750000 1.400000
vt -2.370000 1.100000
vt -3.000000 0.000000
vt -2.370000 0.000000
vt -2.370000 3.000000
vt -3.000000 3.000000
vt -0.000000 3.000000
vt 3.000000 2.250000
vt 3.000000 3.000000
vt 0.000000 2.250000
vt 0.000000 0.750000
vt 3.000000 0.750000
vt -3.000000 1.700000
vt -3.000000 1.730000
vt 0.750000 1.700000
vt 0.750000 1.730000
vt 2.250000 1.700000
vt 2.250000 1.730000
vt -0.750000 1.700000
vt 2.370000 -0.000000
vt -2.250000 1.700000
vt -2.250000 1.730000
vt -2.250000 1.400000
vt -0.750000 1.730000
vn 0.000000 0.000000 1.000000
vn 1.000000 -0.000000 0.000000
vn -1.000000 -0.000000 -0.000000
vn 0.000000 0.000000 -1.000000
vn 0.000000 -1.000000 -0.000000
vn 0.000000 1.000000 0.000000
usemtl Stone
s 1
f 2/1/1 1/2/1 5/3/1 6/4/1
f 8/5/2 9/6/2 11/7/2 12/8/2
f 14/4/1 16/9/1 7/3/1
f 19/10/3 15/11/3 21/12/3
f 24/13/4 19/11/4 18/4/4
f 8/14/5 17/15/5 23/16/5 9/17/5
f 19/18/5 24/16/5 16/15/5 15/5/5
f 5/19/6 10/20/6 18/18/6 6/21/6
f 20/22/6 14/5/6 7/6/6 13/23/6
f 4/24/4 3/1/4 20/4/4 13/25/4
f 4/26/2 13/27/2 7/4/2
f 10/3/2 1/28/2 11/7/2
f 12/8/2 4/26/2 7/4/2
f 10/3/2 5/29/2 1/28/2
f 12/8/2 7/4/2 8/5/2
f 9/6/2 10/3/2 11/7/2
f 15/11/3 14/4/3 3/30/3 21/12/3
f 16/9/1 8/6/1 7/3/1
f 16/9/1 14/4/1 15/11/1
f 16/9/1 17/31/1 8/6/1
f 2/32/3 6/33/3 18/25/3
f 18/25/3 19/10/3 22/34/3 2/32/3
f 24/10/3 23/14/3 17/5/3 16/11/3
f 14/4/3 20/35/3 3/30/3
f 21/12/3 22/34/3 19/10/3
f 24/13/4 9/14/4 23/15/4
f 24/13/4 18/4/4 10/25/4
f 10/25/4 9/14/4 24/13/4
usemtl Asphalt
f 2/32/3 22/34/3 21/12/3 3/30/3
f 4/26/2 12/8/2 11/7/2 1/28/2
f 1/19/6 2/21/6 3/22/6 4/23/6
