# Blender v2.75 (sub 0) OBJ File: ''
# www.blender.org
mtllib roadTile_186.mtl
o Mesh1_Group1_Model.054
v 2.903140 0.455000 -2.259150
v 3.000000 0.455000 -2.250000
v 3.000000 1.650000 -2.250000
v 2.903140 1.650000 -2.259150
v 2.259150 0.455000 -2.903140
v 2.250000 0.455000 -3.000000
v 0.750000 0.455000 -3.000000
v 0.756827 0.455000 -2.701910
v 0.804783 0.455000 -2.407630
v 0.892946 0.455000 -2.122790
v 1.019630 0.455000 -1.852870
v 1.182390 0.455000 -1.603050
v 1.378120 0.455000 -1.378120
v 1.603050 0.455000 -1.182390
v 1.852870 0.455000 -1.019630
v 2.122790 0.455000 -0.892946
v 2.407630 0.455000 -0.804783
v 2.701910 0.455000 -0.756827
v 3.000000 0.455000 -0.750000
v 2.808190 0.455000 -2.280370
v 2.716650 0.455000 -2.313320
v 2.629960 0.455000 -2.357480
v 2.549490 0.455000 -2.412170
v 2.476510 0.455000 -2.476510
v 2.412170 0.455000 -2.549490
v 2.357480 0.455000 -2.629960
v 2.313320 0.455000 -2.716650
v 2.280370 0.455000 -2.808190
v 2.259150 1.650000 -2.903140
v 2.250000 1.650000 -3.000000
v 2.280370 1.650000 -2.808190
v 2.313320 1.650000 -2.716650
v 2.357480 1.650000 -2.629960
v 2.412170 1.650000 -2.549490
v 2.476510 1.650000 -2.476510
v 2.549490 1.650000 -2.412170
v 2.629960 1.650000 -2.357480
v 2.716650 1.650000 -2.313320
v 2.808190 1.650000 -2.280370
v 3.000000 1.650000 -3.000000
v 3.000000 0.000000 -2.250000
v 3.000000 0.000000 -3.000000
v 3.000000 0.000000 -0.750000
v 2.250000 0.000000 -3.000000
v 3.000000 0.000000 -0.000000
v 0.000000 0.000000 0.000000
v 0.000000 0.000000 -3.000000
v 0.750000 0.000000 -3.000000
v 0.750000 1.650000 -3.000000
v 0.000000 1.650000 -3.000000
v 0.756827 1.650000 -2.701910
v 0.000000 1.650000 0.000000
v 3.000000 1.650000 0.000000
v 3.000000 1.650000 -0.750000
v 2.701910 1.650000 -0.756827
v 2.407630 1.650000 -0.804783
v 2.122790 1.650000 -0.892946
v 1.852870 1.650000 -1.019630
v 1.603050 1.650000 -1.182390
v 1.378120 1.650000 -1.378120
v 1.182390 1.650000 -1.603050
v 1.019630 1.650000 -1.852870
v 0.892946 1.650000 -2.122790
v 0.804783 1.650000 -2.407630
vt 2.903140 2.259150
vt 2.701910 0.756827
vt 3.000000 0.750000
vt 3.000000 2.250000
vt 0.756827 2.701910
vt 2.259150 2.903140
vt 2.250000 3.000000
vt 0.750000 3.000000
vt 2.808190 2.280370
vt 2.407630 0.804783
vt 2.716650 2.313320
vt 2.122790 0.892946
vt 0.804783 2.407630
vt 2.280370 2.808190
vt 2.629960 2.357480
vt 1.852870 1.019630
vt 2.549490 2.412170
vt 1.603050 1.182390
vt 0.892946 2.122790
vt 2.313320 2.716650
vt 2.476510 2.476510
vt 1.378120 1.378120
vt 2.357480 2.629960
vt 1.019630 1.852870
vt 2.412170 2.549490
vt 1.182390 1.603050
vt 0.750000 0.000000
vt 2.250000 0.000000
vt 2.250000 0.455000
vt 0.750000 0.455000
vt -2.250000 0.000000
vt -0.750000 0.000000
vt -0.750000 0.455000
vt -2.250000 0.455000
vt -2.340590 0.455000
vt -2.243300 0.455000
vt -2.243300 1.650000
vt -2.340590 1.650000
vt -1.869890 0.455000
vt -1.772590 0.455000
vt -1.772590 1.650000
vt -1.869890 1.650000
vt -1.370450 0.455000
vt -1.273160 0.455000
vt -1.273160 1.650000
vt -1.370450 1.650000
vt -0.850161 0.455000
vt -0.752869 0.455000
vt -0.752869 1.650000
vt -0.850161 1.650000
vt -0.317230 0.455000
vt -0.219938 0.455000
vt -0.219938 1.650000
vt -0.317230 1.650000
vt 0.219938 0.455000
vt 0.317230 0.455000
vt 0.317230 1.650000
vt 0.219938 1.650000
vt 0.752869 0.455000
vt 0.850161 0.455000
vt 0.850161 1.650000
vt 0.752869 1.650000
vt 1.273160 0.455000
vt 1.370450 0.455000
vt 1.370450 1.650000
vt 1.273160 1.650000
vt 1.772590 0.455000
vt 1.869890 0.455000
vt 1.869890 1.650000
vt 1.772590 1.650000
vt 2.243300 0.455000
vt 2.340590 0.455000
vt 2.340590 1.650000
vt 2.243300 1.650000
vt 3.000000 0.000000
vt 3.000000 1.650000
vt 2.250000 1.650000
vt 3.000000 3.000000
vt -3.000000 0.750000
vt -0.000000 -0.000000
vt -0.750000 3.000000
vt -2.250000 3.000000
vt -3.000000 2.250000
vt -3.000000 0.000000
vt -0.000000 1.650000
vt -0.750000 1.650000
vt 0.750000 1.650000
vt -2.545010 0.455000
vt -2.246840 0.455000
vt -2.246840 1.650000
vt -2.545010 1.650000
vt -2.062010 0.455000
vt -1.763840 0.455000
vt -1.763840 1.650000
vt -2.062010 1.650000
vt -1.542300 0.455000
vt -1.244130 0.455000
vt -1.244130 1.650000
vt -1.542300 1.650000
vt -0.995851 0.455000
vt -0.697684 0.455000
vt -0.697684 1.650000
vt -0.995851 1.650000
vt -0.433156 0.455000
vt -0.134989 0.455000
vt -0.134989 1.650000
vt -0.433156 1.650000
vt 0.134989 0.455000
vt 0.433156 0.455000
vt 0.433156 1.650000
vt 0.134989 1.650000
vt 0.697684 0.455000
vt 0.995851 0.455000
vt 0.995851 1.650000
vt 0.697684 1.650000
vt 1.244130 0.455000
vt 1.542300 0.455000
vt 1.542300 1.650000
vt 1.244130 1.650000
vt 1.763840 0.455000
vt 2.062010 0.455000
vt 2.062010 1.650000
vt 1.763840 1.650000
vt 2.246840 0.455000
vt 2.545010 0.455000
vt 2.545010 1.650000
vt 2.246840 1.650000
vt -3.000000 1.650000
vt -2.775150 0.455000
vt -2.677860 0.455000
vt -2.677860 1.650000
vt -2.775150 1.650000
vt -2.250000 1.650000
vt -0.000000 3.000000
vt -3.000000 3.000000
vt 2.683870 0.455000
vt 2.982040 0.455000
vt 2.982040 1.650000
vt 2.683870 1.650000
vt -2.982040 0.455000
vt -2.683870 0.455000
vt -2.683870 1.650000
vt -2.982040 1.650000
vt 2.677860 0.455000
vt 2.775150 0.455000
vt 2.775150 1.650000
vt 2.677860 1.650000
vn -0.000000 1.000000 0.000000
vn 1.000000 0.000000 0.000000
vn 0.000000 0.000000 -1.000000
vn -0.987700 0.000000 0.156400
vn -0.960300 0.000000 0.278900
vn -0.917800 0.000000 0.397100
vn -0.860800 0.000000 0.509000
vn -0.790100 0.000000 0.612900
vn -0.707100 0.000000 0.707100
vn -0.612900 0.000000 0.790100
vn -0.509000 0.000000 0.860800
vn -0.397100 0.000000 0.917800
vn -0.278900 0.000000 0.960300
vn -0.156400 0.000000 0.987700
vn 0.000000 -1.000000 -0.000000
vn 0.000000 -0.000000 1.000000
vn 0.092100 0.000000 -0.995800
vn 0.228800 0.000000 -0.973500
vn 0.361100 0.000000 -0.932500
vn 0.486500 0.000000 -0.873700
vn 0.602600 0.000000 -0.798000
vn 0.707100 0.000000 -0.707100
vn 0.798000 0.000000 -0.602600
vn 0.873700 0.000000 -0.486500
vn 0.932500 0.000000 -0.361100
vn 0.973500 0.000000 -0.228800
vn 0.995800 0.000000 -0.092100
vn -1.000000 0.000000 0.000000
vn -0.995600 0.000000 0.094000
vn 0.999700 0.000000 -0.022900
vn 0.022900 0.000000 -0.999700
vn -0.094000 0.000000 0.995600
usemtl Water.007
s 1
f 1/1/1 18/2/1 19/3/1 2/4/1
f 8/5/1 5/6/1 6/7/1 7/8/1
f 20/9/1 17/10/1 18/2/1 1/1/1
f 21/11/1 16/12/1 17/10/1 20/9/1
f 8/5/1 9/13/1 28/14/1 5/6/1
f 22/15/1 15/16/1 16/12/1 21/11/1
f 23/17/1 14/18/1 15/16/1 22/15/1
f 9/13/1 10/19/1 27/20/1 28/14/1
f 24/21/1 13/22/1 14/18/1 23/17/1
f 26/23/1 27/20/1 10/19/1 11/24/1
f 25/25/1 26/23/1 11/24/1 12/26/1
f 24/21/1 25/25/1 12/26/1 13/22/1
f 43/27/2 41/28/2 2/29/2 19/30/2
f 44/31/3 48/32/3 7/33/3 6/34/3
usemtl Grass.028
f 5/35/4 28/36/5 31/37/5 29/38/4
f 28/39/5 27/40/6 32/41/6 31/42/5
f 27/43/6 26/44/7 33/45/7 32/46/6
f 26/47/7 25/48/8 34/49/8 33/50/7
f 25/51/8 24/52/9 35/53/9 34/54/8
f 24/55/9 23/56/10 36/57/10 35/58/9
f 23/59/10 22/60/11 37/61/11 36/62/10
f 22/63/11 21/64/12 38/65/12 37/66/11
f 21/67/12 20/68/13 39/69/13 38/70/12
f 20/71/13 1/72/14 4/73/14 39/74/13
f 2/29/2 42/75/2 40/76/2 3/77/2
f 40/78/1 33/23/1 34/25/1
f 43/79/15 46/80/15 48/81/15 44/82/15
f 44/82/15 41/83/15 43/79/15
f 42/84/3 44/31/3 6/34/3
f 7/33/3 47/80/3 50/85/3 49/86/3
f 46/80/16 45/75/16 53/76/16 52/85/16
f 52/80/1 59/18/1 60/22/1
f 19/30/2 54/87/2 53/85/2 45/80/2
f 45/80/2 43/27/2 19/30/2
f 18/88/17 17/89/18 56/90/18 55/91/17
f 17/92/18 16/93/19 57/94/19 56/95/18
f 16/96/19 15/97/20 58/98/20 57/99/19
f 15/100/20 14/101/21 59/102/21 58/103/20
f 14/104/21 13/105/22 60/106/22 59/107/21
f 13/108/22 12/109/23 61/110/23 60/111/22
f 12/112/23 11/113/24 62/114/24 61/115/23
f 11/116/24 10/117/25 63/118/25 62/119/24
f 10/120/25 9/121/26 64/122/26 63/123/25
f 9/124/26 8/125/27 51/126/27 64/127/26
f 47/84/28 46/80/28 52/85/28 50/128/28
f 6/129/29 5/130/4 29/131/4 30/132/29
f 40/78/1 4/1/1 3/4/1
f 40/78/1 38/11/1 39/9/1
f 40/78/1 36/17/1 37/15/1
f 40/78/1 34/25/1 35/21/1
f 40/78/1 32/20/1 33/23/1
f 40/78/1 29/6/1 31/14/1
f 29/6/1 40/78/1 30/7/1
f 40/78/1 39/9/1 4/1/1
f 40/78/1 35/21/1 36/17/1
f 40/78/1 31/14/1 32/20/1
f 37/15/1 38/11/1 40/78/1
f 2/29/2 41/28/2 42/75/2
f 6/34/3 30/133/3 40/128/3 42/84/3
f 48/81/15 46/80/15 47/134/15
f 46/80/15 43/79/15 45/84/15
f 44/82/15 42/135/15 41/83/15
f 8/136/27 7/137/30 49/138/30 51/139/27
f 7/33/3 48/32/3 47/80/3
f 63/19/1 50/134/1 52/80/1
f 53/75/1 54/3/1 55/2/1
f 51/5/1 49/8/1 50/134/1
f 53/75/1 55/2/1 56/10/1
f 64/13/1 51/5/1 50/134/1
f 53/75/1 56/10/1 57/12/1
f 63/19/1 64/13/1 50/134/1
f 52/80/1 57/12/1 58/16/1
f 62/24/1 63/19/1 52/80/1
f 52/80/1 58/16/1 59/18/1
f 61/26/1 62/24/1 52/80/1
f 52/80/1 53/75/1 57/12/1
f 60/22/1 61/26/1 52/80/1
f 19/140/31 18/141/17 55/142/17 54/143/31
f 1/144/14 2/145/32 3/146/32 4/147/14
