# Blender v2.75 (sub 0) OBJ File: ''
# www.blender.org
mtllib roadTile_275.mtl
o Mesh1_Group1_Model.099
v 3.000000 0.000000 -0.000000
v 3.000000 0.000000 -2.250000
v 3.000000 0.630000 -2.250000
v 3.000000 0.630000 -1.875000
v 3.000000 0.600000 -1.875000
v 3.000000 0.300000 -1.875000
v 3.000000 0.300000 -0.375000
v 3.000000 0.600000 -0.375000
v 3.000000 0.630000 -0.375000
v 3.000000 0.630000 0.000000
v 0.000000 0.000000 0.000000
v 0.000000 0.000000 -2.250000
v 0.000000 0.630000 0.000000
v 0.000000 0.630000 -0.375000
v 0.000000 0.600000 -0.375000
v 0.000000 0.300000 -0.375000
v 0.000000 0.300000 -1.875000
v 0.000000 0.600000 -1.875000
v 0.000000 0.630000 -1.875000
v 0.000000 0.630000 -2.250000
vt 0.000000 0.000000
vt 2.250000 0.000000
vt 1.875000 0.300000
vt 3.000000 0.630000
vt 0.000000 0.630000
vt 3.000000 0.000000
vt 0.000000 0.375000
vt 3.000000 0.375000
vt -1.875000 0.300000
vt -1.875000 0.600000
vt -2.250000 0.630000
vt -2.250000 0.000000
vt -0.375000 0.300000
vt 0.000000 0.600000
vt 3.000000 0.600000
vt 3.000000 1.875000
vt 3.000000 2.250000
vt 0.000000 2.250000
vt 0.000000 1.875000
vt -3.000000 0.630000
vt -3.000000 0.000000
vt 2.250000 0.630000
vt 1.875000 0.600000
vt 0.375000 0.600000
vt 0.375000 0.630000
vt -3.000000 2.250000
vt 1.875000 0.630000
vt 0.375000 0.300000
vt -0.375000 0.600000
vt -1.875000 0.630000
vt -3.000000 0.600000
vt -0.375000 0.630000
vn 1.000000 -0.000000 0.000000
vn 0.000000 -0.000000 1.000000
vn 0.000000 1.000000 0.000000
vn -1.000000 -0.000000 0.000000
vn 0.000000 0.000000 -1.000000
vn 0.000000 -1.000000 -0.000000
usemtl Stone.086
s 1
f 1/1/1 2/2/1 6/3/1
f 10/4/2 13/5/2 11/1/2 1/6/2
f 14/7/3 13/1/3 10/6/3 9/8/3
f 17/9/4 18/10/4 20/11/4 12/12/4
f 12/12/4 11/1/4 16/13/4
f 18/14/2 5/15/2 4/4/2 19/5/2
f 4/16/3 3/17/3 20/18/3 19/19/3
f 20/5/5 3/20/5 2/21/5 12/1/5
f 2/2/1 3/22/1 5/23/1 6/3/1
f 10/5/1 8/24/1 9/25/1
f 2/26/6 1/21/6 11/1/6 12/18/6
f 3/22/1 4/27/1 5/23/1
f 6/3/1 7/28/1 1/1/1
f 11/1/4 13/5/4 15/29/4 16/13/4
f 20/11/4 18/10/4 19/30/4
f 8/31/5 15/14/5 14/5/5 9/20/5
f 13/5/4 14/32/4 15/29/4
f 16/13/4 17/9/4 12/12/4
f 7/28/1 8/24/1 10/5/1 1/1/1
usemtl Asphalt.072
f 5/16/3 18/19/3 15/7/3 8/8/3
f 18/10/4 17/9/4 16/13/4 15/29/4
f 8/24/1 7/28/1 6/3/1 5/23/1
