# Blender v2.75 (sub 0) OBJ File: ''
# www.blender.org
mtllib roadTile_163.mtl
o Mesh1_Group1_Model.205
v 3.000000 0.550000 -3.000000
v 3.000000 0.000000 -3.000000
v 0.000000 0.000000 -3.000000
v 0.000000 0.550000 -3.000000
v 3.000000 0.000000 -0.000000
v 3.000000 0.550000 0.000000
v 0.000000 0.000000 0.000000
v 0.000000 0.550000 0.000000
vt 0.000000 -0.000000
vt 3.000000 -0.000000
vt 3.000000 0.550000
vt 0.000000 0.550000
vt -3.000000 0.000000
vt 0.000000 3.000000
vt -3.000000 3.000000
vt -3.000000 0.550000
vt 3.000000 3.000000
vn 1.000000 0.000000 0.000000
vn 0.000000 -1.000000 -0.000000
vn 0.000000 -0.000000 1.000000
vn -1.000000 0.000000 0.000000
vn 0.000000 1.000000 0.000000
vn 0.000000 0.000000 -1.000000
usemtl Grass
s 1
f 5/1/1 2/2/1 1/3/1 6/4/1
f 5/5/2 7/1/2 3/6/2 2/7/2
f 8/4/3 7/1/3 5/2/3 6/3/3
f 3/5/4 7/1/4 8/4/4 4/8/4
f 4/6/5 8/1/5 6/2/5 1/9/5
f 1/8/6 2/5/6 3/1/6 4/4/6
