# Blender v2.75 (sub 0) OBJ File: ''
# www.blender.org
mtllib roadTile_136.mtl
o Mesh1_Group1_Model.013
v 0.031944 0.630000 -0.694857
v 0.000000 0.630000 -0.937500
v 0.000000 0.000000 -0.937500
v 0.031944 0.000000 -0.694857
v 2.437500 0.630000 -0.562500
v 0.937500 0.630000 -0.562500
v 0.840443 0.630000 -0.575278
v 0.750000 0.630000 -0.612741
v 0.672335 0.630000 -0.672335
v 0.612740 0.630000 -0.750000
v 0.575278 0.630000 -0.840443
v 0.562500 0.630000 -0.937500
v 0.575278 0.630000 -1.034560
v 0.612740 0.630000 -1.125000
v 0.672335 0.630000 -1.202670
v 0.750000 0.630000 -1.262260
v 0.840443 0.630000 -1.299720
v 0.937500 0.630000 -1.312500
v 2.437500 0.630000 -1.312500
v 2.437500 0.630000 -1.875000
v 0.937500 0.630000 -1.875000
v 0.694857 0.630000 -1.843060
v 0.468750 0.630000 -1.749400
v 0.274587 0.630000 -1.600410
v 0.125601 0.630000 -1.406250
v 0.031944 0.630000 -1.180140
v 0.125601 0.630000 -0.468750
v 0.274587 0.630000 -0.274587
v 0.468750 0.630000 -0.125601
v 0.694857 0.630000 -0.031944
v 0.937500 0.630000 0.000000
v 2.437500 0.630000 0.000000
v 2.437500 0.600000 -0.562500
v 0.937500 0.600000 -0.562500
v 2.437500 0.000000 0.000000
v 2.437500 0.000000 -1.875000
v 2.437500 0.600000 -1.312500
v 2.437500 0.300000 -1.312500
v 2.437500 0.300000 -0.562500
v 0.937500 0.000000 -0.000000
v 0.694857 0.000000 -0.031944
v 0.468750 0.000000 -0.125601
v 0.274587 0.000000 -0.274587
v 0.125601 0.000000 -0.468750
v 0.031944 0.000000 -1.180140
v 0.125601 0.000000 -1.406250
v 0.274587 0.000000 -1.600410
v 0.468750 0.000000 -1.749400
v 0.694857 0.000000 -1.843060
v 0.937500 0.000000 -1.875000
v 0.937500 0.600000 -1.312500
v 0.840443 0.600000 -1.299720
v 0.750000 0.600000 -1.262260
v 0.672335 0.600000 -1.202670
v 0.612740 0.600000 -1.125000
v 0.575278 0.600000 -1.034560
v 0.562500 0.600000 -0.937500
v 0.575278 0.600000 -0.840443
v 0.612740 0.600000 -0.750000
v 0.672335 0.600000 -0.672335
v 0.750000 0.600000 -0.612741
v 0.840443 0.600000 -0.575278
vt 2.437500 0.562500
vt 0.937500 0.562500
vt 0.937500 0.000000
vt 2.437500 -0.000000
vt 0.562500 0.300000
vt 0.562500 0.600000
vt 0.000000 0.630000
vt 0.000000 -0.000000
vt 1.875000 -0.000000
vt 1.312500 0.300000
vt -0.274587 1.600410
vt -0.274587 0.274587
vt -0.031944 1.180140
vt 0.929480 0.630000
vt 0.684743 0.630000
vt 0.684743 0.000000
vt 0.929480 0.000000
vt 0.629740 0.630000
vt 0.385003 0.630000
vt 0.385003 0.000000
vt 0.629740 0.000000
vt 0.295423 0.630000
vt 0.050687 0.630000
vt 0.050687 0.000000
vt 0.295423 0.000000
vt -0.050687 0.630000
vt -0.295423 0.630000
vt -0.295423 0.000000
vt -0.050687 0.000000
vt -0.385003 0.630000
vt -0.629740 0.630000
vt -0.629740 0.000000
vt -0.385003 0.000000
vt -0.929480 0.630000
vt -1.174220 0.630000
vt -1.174220 0.000000
vt -0.929480 0.000000
vt -1.102530 0.630000
vt -1.347270 0.630000
vt -1.347270 0.000000
vt -1.102530 0.000000
vt -1.192110 0.630000
vt -1.436850 0.630000
vt -1.436850 0.000000
vt -1.192110 0.000000
vt -0.937500 0.630000
vt -2.437500 0.630000
vt -2.437500 -0.000000
vt -0.937500 -0.000000
vt 2.437500 0.630000
vt 0.937500 0.630000
vt 0.937500 0.600000
vt 2.437500 0.600000
vt 1.100800 0.630000
vt 1.002900 0.630000
vt 1.002900 0.600000
vt 1.100800 0.600000
vt 1.273850 0.630000
vt 1.175960 0.630000
vt 1.175960 0.600000
vt 1.273850 0.600000
vt 1.363430 0.630000
vt 1.265540 0.630000
vt 1.265540 0.600000
vt 1.363430 0.600000
vt 0.856059 0.630000
vt 0.758164 0.630000
vt 0.758164 0.600000
vt 0.856059 0.600000
vt 0.556319 0.630000
vt 0.458424 0.630000
vt 0.458424 0.600000
vt 0.556319 0.600000
vt 0.222002 0.630000
vt 0.124108 0.630000
vt 0.124108 0.600000
vt 0.222002 0.600000
vt -0.124108 0.630000
vt -0.222002 0.630000
vt -0.222002 0.600000
vt -0.124108 0.600000
vt -0.458424 0.630000
vt -0.556319 0.630000
vt -0.556319 0.600000
vt -0.458424 0.600000
vt -0.758164 0.630000
vt -0.856059 0.630000
vt -0.856059 0.600000
vt -0.758164 0.600000
vt 0.840443 0.575278
vt 0.694857 0.031944
vt 0.468750 0.125601
vt 0.750000 0.612741
vt 0.672335 0.672335
vt 0.274587 0.274587
vt 0.125601 0.468750
vt 0.612740 0.750000
vt 0.575278 0.840443
vt 0.031944 0.694857
vt 0.562500 0.937500
vt 0.575278 1.034560
vt 0.031944 1.180140
vt -0.000000 0.937500
vt 0.125601 1.406250
vt 0.612740 1.125000
vt 0.274587 1.600410
vt 0.672335 1.202670
vt 0.750000 1.262260
vt 0.468750 1.749400
vt 0.937500 1.312500
vt 2.437500 1.312500
vt 2.437500 1.875000
vt 0.937500 1.875000
vt 0.694857 1.843060
vt 0.840443 1.299720
vt -2.437500 0.600000
vt -0.937500 0.600000
vt 1.875000 0.630000
vt 1.312500 0.600000
vt 0.562500 0.630000
vt -0.937500 1.875000
vt -2.437500 1.875000
vt 1.312500 0.630000
vt -0.694857 0.031944
vt -0.468750 1.749400
vt -0.694857 1.843060
vt -0.125601 1.406250
vt -0.031944 0.694857
vt -0.125601 0.468750
vt -0.468750 0.125601
vt -0.684743 0.630000
vt -0.684743 0.000000
vn 0.000000 1.000000 0.000000
vn 1.000000 0.000000 0.000000
vn 0.000000 -1.000000 -0.000000
vn -0.065400 -0.000000 0.997900
vn -0.258800 -0.000000 0.965900
vn -0.500000 -0.000000 0.866000
vn -0.707100 -0.000000 0.707100
vn -0.866000 -0.000000 0.500000
vn -0.965900 -0.000000 0.258800
vn -1.000000 0.000000 -0.000000
vn -0.965900 0.000000 -0.258800
vn -0.866000 0.000000 -0.500000
vn -0.707100 0.000000 -0.707100
vn -0.500000 0.000000 -0.866000
vn -0.258800 0.000000 -0.965900
vn -0.065400 0.000000 -0.997900
vn 0.000000 0.000000 -1.000000
vn 0.000000 0.000000 1.000000
vn 0.065400 0.000000 0.997900
vn 0.258800 0.000000 0.965900
vn 0.500000 0.000000 0.866000
vn 0.707100 0.000000 0.707100
vn 0.866000 0.000000 0.500000
vn 0.965900 0.000000 0.258800
vn 0.965900 0.000000 -0.258800
vn 0.866000 0.000000 -0.500000
vn 0.707100 0.000000 -0.707100
vn 0.500000 0.000000 -0.866000
vn 0.258800 0.000000 -0.965900
vn 0.065400 0.000000 -0.997900
usemtl Stone
s 1
f 5/1/1 6/2/1 31/3/1 32/4/1
f 39/5/2 33/6/2 32/7/2 35/8/2
f 35/8/2 36/9/2 38/10/2
f 47/11/3 43/12/3 45/13/3
f 31/14/4 30/15/5 41/16/5 40/17/4
f 30/18/5 29/19/6 42/20/6 41/21/5
f 29/22/6 28/23/7 43/24/7 42/25/6
f 28/26/7 27/27/8 44/28/8 43/29/7
f 27/30/8 1/31/9 4/32/9 44/33/8
f 2/34/10 26/35/11 45/36/11 3/37/10
f 26/38/11 25/39/12 46/40/12 45/41/11
f 25/42/12 24/43/13 47/44/13 46/45/12
f 24/42/13 23/43/14 48/44/14 47/45/13
f 23/38/14 22/39/15 49/40/15 48/41/14
f 22/34/15 21/35/16 50/36/16 49/37/15
f 21/46/16 20/47/17 36/48/17 50/49/16
f 19/50/18 18/51/19 51/52/19 37/53/18
f 18/54/19 17/55/20 52/56/20 51/57/19
f 17/58/20 16/59/21 53/60/21 52/61/20
f 16/62/21 15/63/22 54/64/22 53/65/21
f 15/62/22 14/63/23 55/64/23 54/65/22
f 14/58/23 13/59/24 56/60/24 55/61/23
f 13/54/24 12/55/2 57/56/2 56/57/24
f 12/66/2 11/67/25 58/68/25 57/69/2
f 11/70/25 10/71/26 59/72/26 58/73/25
f 10/74/26 9/75/27 60/76/27 59/77/26
f 9/78/27 8/79/28 61/80/28 60/81/27
f 8/82/28 7/83/29 62/84/29 61/85/28
f 7/86/29 6/87/30 34/88/30 62/89/29
f 31/3/1 6/2/1 7/90/1 30/91/1
f 29/92/1 8/93/1 9/94/1 28/95/1
f 27/96/1 10/97/1 11/98/1 1/99/1
f 12/100/1 13/101/1 26/102/1 2/103/1
f 25/104/1 26/102/1 13/101/1 14/105/1
f 24/106/1 15/107/1 16/108/1 23/109/1
f 18/110/1 19/111/1 20/112/1 21/113/1
f 22/114/1 17/115/1 18/110/1 21/113/1
f 29/92/1 30/91/1 7/90/1 8/93/1
f 22/114/1 23/109/1 16/108/1 17/115/1
f 10/97/1 27/96/1 28/95/1 9/94/1
f 25/104/1 14/105/1 15/107/1 24/106/1
f 12/100/1 2/103/1 1/99/1 11/98/1
f 6/46/30 5/47/17 33/116/17 34/117/30
f 36/9/2 20/118/2 37/119/2 38/10/2
f 32/7/2 33/6/2 5/120/2
f 40/49/3 50/121/3 36/122/3 35/48/3
f 20/118/2 19/123/2 37/119/2
f 38/10/2 39/5/2 35/8/2
f 47/11/3 50/121/3 40/49/3 41/124/3
f 50/121/3 48/125/3 49/126/3
f 45/13/3 46/127/3 47/11/3
f 4/128/3 3/103/3 45/13/3
f 45/13/3 44/129/3 4/128/3
f 41/124/3 42/130/3 43/12/3
f 32/50/18 31/51/4 40/3/4 35/4/18
f 50/121/3 47/11/3 48/125/3
f 43/12/3 44/129/3 45/13/3
f 47/11/3 41/124/3 43/12/3
f 1/131/9 2/34/10 3/37/10 4/132/9
usemtl Asphalt
f 52/115/1 61/93/1 34/2/1 51/110/1
f 57/100/1 52/115/1 56/101/1
f 34/2/1 61/93/1 62/90/1
f 58/98/1 59/97/1 60/94/1
f 52/115/1 57/100/1 58/98/1
f 52/115/1 55/105/1 56/101/1
f 55/105/1 53/108/1 54/107/1
f 37/111/1 51/110/1 34/2/1 33/1/1
f 37/119/2 33/6/2 39/5/2 38/10/2
f 52/115/1 58/98/1 60/94/1
f 52/115/1 53/108/1 55/105/1
f 52/115/1 60/94/1 61/93/1
