# Blender v2.75 (sub 0) OBJ File: ''
# www.blender.org
mtllib roadTile_244.mtl
o Mesh1_Group1_Model.206
v 3.000000 0.000000 -0.750000
v 3.000000 0.000000 -2.250000
v 3.000000 0.455000 -2.250000
v 3.000000 0.455000 -0.750000
v 0.375000 0.000000 -0.000000
v 0.000000 0.000000 0.000000
v 0.000000 0.000000 -3.000000
v 0.375000 0.000000 -3.000000
v 0.750000 0.000000 -3.000000
v 2.250000 0.000000 -3.000000
v 2.625000 0.000000 -3.000000
v 3.000000 0.000000 -3.000000
v 3.000000 0.000000 -2.625000
v 3.000000 0.000000 -0.375000
v 3.000000 0.000000 -0.000000
v 2.625000 0.000000 -0.000000
v 2.250000 0.000000 -0.000000
v 0.750000 0.000000 -0.000000
v 0.375000 0.550000 0.000000
v 0.000000 0.550000 0.000000
v 0.375000 0.630000 0.000000
v 0.750000 0.455000 0.000000
v 0.750000 0.630000 0.000000
v 0.375000 0.550000 -3.000000
v 0.375000 0.630000 -3.000000
v 0.000000 0.550000 -3.000000
v 0.750000 0.630000 -3.000000
v 0.750000 0.455000 -3.000000
v 2.902110 0.455000 -0.743584
v 2.902110 0.455000 -2.256420
v 2.805890 0.455000 -2.275560
v 2.712990 0.455000 -2.307090
v 2.625000 0.455000 -2.350480
v 2.543430 0.455000 -2.404980
v 2.469670 0.455000 -2.469670
v 2.404980 0.455000 -2.543430
v 2.350480 0.455000 -2.625000
v 2.307090 0.455000 -2.712990
v 2.275560 0.455000 -2.805890
v 2.256420 0.455000 -2.902110
v 2.250000 0.455000 -3.000000
v 2.250000 0.455000 0.000000
v 2.256420 0.455000 -0.097895
v 2.275560 0.455000 -0.194114
v 2.307090 0.455000 -0.287013
v 2.350480 0.455000 -0.375000
v 2.404980 0.455000 -0.456571
v 2.469670 0.455000 -0.530330
v 2.543430 0.455000 -0.595015
v 2.625000 0.455000 -0.649519
v 2.712990 0.455000 -0.692910
v 2.805890 0.455000 -0.724444
v 2.902110 0.630000 -0.743584
v 3.000000 0.630000 -0.750000
v 2.805890 0.630000 -0.724444
v 2.712990 0.630000 -0.692910
v 2.625000 0.630000 -0.649519
v 2.543430 0.630000 -0.595015
v 2.469670 0.630000 -0.530330
v 2.404980 0.630000 -0.456571
v 2.350480 0.630000 -0.375000
v 2.307090 0.630000 -0.287013
v 2.275560 0.630000 -0.194114
v 2.256420 0.630000 -0.097895
v 2.250000 0.630000 0.000000
v 2.625000 0.550000 0.000000
v 2.625000 0.630000 0.000000
v 3.000000 0.550000 0.000000
v 3.000000 0.550000 -0.375000
v 2.951050 0.550000 -0.371792
v 2.902940 0.550000 -0.362222
v 2.856490 0.550000 -0.346455
v 2.812500 0.550000 -0.324760
v 2.771710 0.550000 -0.297508
v 2.734830 0.550000 -0.265165
v 2.702490 0.550000 -0.228286
v 2.675240 0.550000 -0.187500
v 2.653550 0.550000 -0.143506
v 2.637780 0.550000 -0.097057
v 2.628210 0.550000 -0.048947
v 3.000000 0.630000 -0.375000
v 2.951050 0.630000 -0.371792
v 2.628210 0.630000 -0.048947
v 2.637780 0.630000 -0.097057
v 2.653550 0.630000 -0.143506
v 2.675240 0.630000 -0.187500
v 2.702490 0.630000 -0.228286
v 2.734830 0.630000 -0.265165
v 2.771710 0.630000 -0.297508
v 2.812500 0.630000 -0.324760
v 2.856490 0.630000 -0.346455
v 2.902940 0.630000 -0.362222
v 3.000000 0.630000 -2.250000
v 2.902110 0.630000 -2.256420
v 3.000000 0.550000 -2.625000
v 3.000000 0.630000 -2.625000
v 3.000000 0.550000 -3.000000
v 2.625000 0.550000 -3.000000
v 2.628210 0.550000 -2.951050
v 2.637780 0.550000 -2.902940
v 2.653550 0.550000 -2.856490
v 2.675240 0.550000 -2.812500
v 2.702490 0.550000 -2.771710
v 2.734830 0.550000 -2.734830
v 2.771710 0.550000 -2.702490
v 2.812500 0.550000 -2.675240
v 2.856490 0.550000 -2.653550
v 2.902940 0.550000 -2.637780
v 2.951050 0.550000 -2.628210
v 2.625000 0.630000 -3.000000
v 2.250000 0.630000 -3.000000
v 2.628210 0.630000 -2.951050
v 2.951050 0.630000 -2.628210
v 2.902940 0.630000 -2.637780
v 2.856490 0.630000 -2.653550
v 2.812500 0.630000 -2.675240
v 2.771710 0.630000 -2.702490
v 2.734830 0.630000 -2.734830
v 2.702490 0.630000 -2.771710
v 2.675240 0.630000 -2.812500
v 2.653550 0.630000 -2.856490
v 2.637780 0.630000 -2.902940
v 2.256420 0.630000 -2.902110
v 2.275560 0.630000 -2.805890
v 2.307090 0.630000 -2.712990
v 2.350480 0.630000 -2.625000
v 2.404980 0.630000 -2.543430
v 2.469670 0.630000 -2.469670
v 2.543430 0.630000 -2.404980
v 2.625000 0.630000 -2.350480
v 2.712990 0.630000 -2.307090
v 2.805890 0.630000 -2.275560
vt 2.902110 2.256420
vt 2.902110 0.743584
vt 3.000000 0.750000
vt 3.000000 2.250000
vt 2.469670 2.469670
vt 2.404980 2.543430
vt 2.469670 0.530330
vt 0.750000 0.000000
vt 2.250000 0.000000
vt 2.250000 0.455000
vt 0.750000 0.455000
vt -2.250000 0.000000
vt -0.750000 0.000000
vt -0.750000 0.455000
vt -2.250000 0.455000
vt 2.256420 0.097895
vt 2.805890 2.275560
vt 2.805890 0.724444
vt 2.275560 0.194114
vt 2.307090 0.287013
vt 2.712990 2.307090
vt 2.712990 0.692910
vt 2.350480 0.375000
vt 2.404980 0.456571
vt 2.625000 2.350480
vt 2.625000 0.649519
vt 2.256420 2.902110
vt 2.250000 3.000000
vt 0.750000 3.000000
vt 2.543430 2.404980
vt 2.543430 0.595015
vt 2.275560 2.805890
vt 2.307090 2.712990
vt 2.350480 2.625000
vt 0.375000 0.550000
vt 0.750000 0.630000
vt 0.375000 0.630000
vt -0.375000 0.000000
vt -0.375000 0.550000
vt 3.000000 0.455000
vt 3.000000 0.630000
vt 0.000000 0.630000
vt 0.000000 0.455000
vt -2.893300 0.455000
vt -2.893300 0.630000
vt -2.991410 0.630000
vt -2.991410 0.455000
vt -2.791740 0.455000
vt -2.791740 0.630000
vt -2.889840 0.630000
vt -2.889840 0.455000
vt -2.641570 0.455000
vt -2.641570 0.630000
vt -2.739670 0.630000
vt -2.739670 0.455000
vt -2.445360 0.455000
vt -2.445360 0.630000
vt -2.543460 0.630000
vt -2.543460 0.455000
vt -2.206470 0.455000
vt -2.206470 0.630000
vt -2.304570 0.630000
vt -2.304570 0.455000
vt -1.928990 0.455000
vt -1.928990 0.630000
vt -2.027090 0.630000
vt -2.027090 0.455000
vt -1.617660 0.455000
vt -1.617660 0.630000
vt -1.715760 0.630000
vt -1.715760 0.455000
vt -1.277810 0.455000
vt -1.277810 0.630000
vt -1.375920 0.630000
vt -1.375920 0.455000
vt -0.915266 0.455000
vt -0.915266 0.630000
vt -1.013370 0.630000
vt -1.013370 0.455000
vt -0.536219 0.455000
vt -0.536219 0.630000
vt -0.634323 0.630000
vt -0.634323 0.455000
vt -0.147157 0.455000
vt -0.147157 0.630000
vt -0.245262 0.630000
vt -0.245262 0.455000
vt 2.625000 0.000000
vt 2.625000 0.550000
vt 2.628210 0.048947
vt 0.560745 0.550000
vt 0.609797 0.550000
vt 0.609797 0.630000
vt 0.560745 0.630000
vt 0.939792 0.550000
vt 0.988845 0.550000
vt 0.988845 0.630000
vt 0.939792 0.630000
vt 1.302340 0.550000
vt 1.351390 0.550000
vt 1.351390 0.630000
vt 1.302340 0.630000
vt 1.642180 0.550000
vt 1.691240 0.550000
vt 1.691240 0.630000
vt 1.642180 0.630000
vt 1.953510 0.550000
vt 2.002560 0.550000
vt 2.002560 0.630000
vt 1.953510 0.630000
vt 2.230990 0.550000
vt 2.280050 0.550000
vt 2.280050 0.630000
vt 2.230990 0.630000
vt 2.469880 0.550000
vt 2.518940 0.550000
vt 2.518940 0.630000
vt 2.469880 0.630000
vt 2.666090 0.550000
vt 2.715140 0.550000
vt 2.715140 0.630000
vt 2.666090 0.630000
vt 2.816260 0.550000
vt 2.865320 0.550000
vt 2.865320 0.630000
vt 2.816260 0.630000
vt 2.917830 0.550000
vt 2.966880 0.550000
vt 2.966880 0.630000
vt 2.917830 0.630000
vt 2.846420 0.455000
vt 2.846420 0.630000
vt 2.748320 0.630000
vt 2.748320 0.455000
vt -2.250000 0.630000
vt -2.625000 0.630000
vt -2.625000 0.550000
vt 3.000000 2.625000
vt 2.951050 2.628210
vt -2.381610 0.550000
vt -2.332560 0.550000
vt -2.332560 0.630000
vt -2.381610 0.630000
vt -1.901000 0.550000
vt -1.851950 0.550000
vt -1.851950 0.630000
vt -1.901000 0.630000
vt -1.388280 0.550000
vt -1.339230 0.550000
vt -1.339230 0.630000
vt -1.388280 0.630000
vt -0.852224 0.550000
vt -0.803172 0.550000
vt -0.803172 0.630000
vt -0.852224 0.630000
vt -0.302008 0.550000
vt -0.252956 0.550000
vt -0.252956 0.630000
vt -0.302008 0.630000
vt 0.252956 0.550000
vt 0.302008 0.550000
vt 0.302008 0.630000
vt 0.252956 0.630000
vt 0.803172 0.550000
vt 0.852224 0.550000
vt 0.852224 0.630000
vt 0.803172 0.630000
vt 1.339230 0.550000
vt 1.388280 0.550000
vt 1.388280 0.630000
vt 1.339230 0.630000
vt 1.851950 0.550000
vt 1.901000 0.550000
vt 1.901000 0.630000
vt 1.851950 0.630000
vt 2.332560 0.550000
vt 2.381610 0.550000
vt 2.381610 0.630000
vt 2.332560 0.630000
vt -2.748320 0.455000
vt -2.748320 0.630000
vt -2.846420 0.630000
vt -2.846420 0.455000
vt -2.308030 0.455000
vt -2.308030 0.630000
vt -2.406140 0.630000
vt -2.406140 0.455000
vt -1.827420 0.455000
vt -1.827420 0.630000
vt -1.925520 0.630000
vt -1.925520 0.455000
vt -1.314700 0.455000
vt -1.314700 0.630000
vt -1.412800 0.630000
vt -1.412800 0.455000
vt -0.778646 0.455000
vt -0.778646 0.630000
vt -0.876750 0.630000
vt -0.876750 0.455000
vt -0.228430 0.455000
vt -0.228430 0.630000
vt -0.326534 0.630000
vt -0.326534 0.455000
vt 0.326534 0.455000
vt 0.326534 0.630000
vt 0.228430 0.630000
vt 0.228430 0.455000
vt 0.876750 0.455000
vt 0.876750 0.630000
vt 0.778646 0.630000
vt 0.778646 0.455000
vt 1.412800 0.455000
vt 1.412800 0.630000
vt 1.314700 0.630000
vt 1.314700 0.455000
vt 1.925520 0.455000
vt 1.925520 0.630000
vt 1.827420 0.630000
vt 1.827420 0.455000
vt 2.406140 0.455000
vt 2.406140 0.630000
vt 2.308030 0.630000
vt 2.308030 0.455000
vt 0.375000 0.000000
vt -3.000000 0.550000
vt -0.000000 0.550000
vt -3.000000 0.630000
vt -0.375000 0.630000
vt -0.750000 0.630000
vt 0.375000 3.000000
vt -2.944520 0.455000
vt -2.944520 0.630000
vt -3.042630 0.630000
vt -3.042630 0.455000
vt 2.625000 0.630000
vt 2.250000 0.630000
vt 2.969050 0.550000
vt 3.018100 0.550000
vt 3.018100 0.630000
vt 2.969050 0.630000
vt 2.637780 0.097057
vt 2.653550 0.143506
vt 2.675240 0.187500
vt 2.702490 0.228286
vt 2.734830 0.265165
vt 2.771710 0.297508
vt 2.812500 0.324760
vt 2.856490 0.346455
vt 2.902940 0.362222
vt 2.951050 0.371792
vt 3.000000 0.375000
vt 0.171683 0.550000
vt 0.220736 0.550000
vt 0.220736 0.630000
vt 0.171683 0.630000
vt -2.625000 0.000000
vt 2.772840 0.550000
vt 2.821890 0.550000
vt 2.821890 0.630000
vt 2.772840 0.630000
vt 2.902940 2.637780
vt 2.856490 2.653550
vt 2.812500 2.675240
vt 2.771710 2.702490
vt 2.734830 2.734830
vt 2.702490 2.771710
vt 2.675240 2.812500
vt 2.653550 2.856490
vt 2.637780 2.902940
vt 2.628210 2.951050
vt 2.625000 3.000000
vt -2.821890 0.550000
vt -2.772840 0.550000
vt -2.772840 0.630000
vt -2.821890 0.630000
vt -0.375000 3.000000
vt 0.000000 0.000000
vt -0.000000 3.000000
vt -2.250000 3.000000
vt -3.000000 2.250000
vt 3.000000 0.000000
vt -3.000000 0.000000
vt 3.000000 3.000000
vt -3.000000 0.375000
vt -0.750000 3.000000
vt -3.000000 0.750000
vt -3.000000 2.625000
vt -2.625000 3.000000
vt -3.000000 3.000000
vt 3.000000 0.550000
vn -0.000000 1.000000 0.000000
vn 0.000000 -0.000000 1.000000
vn -0.000000 0.000000 -1.000000
vn 1.000000 0.000000 0.000000
vn -0.258800 0.000000 -0.965900
vn -0.130500 0.000000 -0.991400
vn -0.382700 0.000000 -0.923900
vn -0.500000 0.000000 -0.866000
vn -0.608800 0.000000 -0.793400
vn -0.707100 0.000000 -0.707100
vn -0.793400 0.000000 -0.608800
vn -0.866000 0.000000 -0.500000
vn -0.923900 0.000000 -0.382700
vn -0.965900 -0.000000 -0.258800
vn -0.991400 -0.000000 -0.130500
vn -0.997900 0.000000 -0.065400
vn 0.991400 0.000000 0.130500
vn 0.965900 0.000000 0.258800
vn 0.923900 0.000000 0.382700
vn 0.866100 0.000000 0.499900
vn 0.793400 0.000000 0.608700
vn 0.707100 0.000000 0.707100
vn 0.608700 0.000000 0.793400
vn 0.500000 0.000000 0.866000
vn 0.382700 0.000000 0.923900
vn 0.258800 0.000000 0.965900
vn 0.130500 0.000000 0.991400
vn -0.065400 0.000000 0.997900
vn -0.130500 0.000000 0.991400
vn 0.130500 0.000000 -0.991400
vn 0.258800 0.000000 -0.965900
vn 0.382700 0.000000 -0.923900
vn 0.499900 0.000000 -0.866100
vn 0.608700 0.000000 -0.793400
vn 0.707100 0.000000 -0.707100
vn 0.793400 0.000000 -0.608700
vn 0.866100 0.000000 -0.499900
vn 0.923900 0.000000 -0.382700
vn 0.965900 0.000000 -0.258800
vn 0.991400 0.000000 -0.130500
vn -0.991400 0.000000 0.130500
vn -0.997900 0.000000 0.065400
vn -0.965900 0.000000 0.258800
vn -0.923900 0.000000 0.382700
vn -0.866000 0.000000 0.500000
vn -0.793400 0.000000 0.608800
vn -0.707100 0.000000 0.707100
vn -0.608800 0.000000 0.793400
vn -0.500000 0.000000 0.866000
vn -0.382700 0.000000 0.923900
vn -0.258800 0.000000 0.965900
vn -1.000000 0.000000 0.000000
vn -0.065400 0.000000 -0.997900
vn 0.065400 0.000000 0.997900
vn 0.997900 0.000000 0.065400
vn 0.997900 0.000000 -0.065400
vn 0.065400 0.000000 -0.997900
vn -0.000000 -1.000000 -0.000000
usemtl Water
s 1
f 30/1/1 29/2/1 4/3/1 3/4/1
f 35/5/1 36/6/1 48/7/1
f 18/8/2 17/9/2 42/10/2 22/11/2
f 10/12/3 9/13/3 28/14/3 41/15/3
f 22/8/1 42/9/1 43/16/1
f 30/1/1 31/17/1 52/18/1 29/2/1
f 22/8/1 43/16/1 44/19/1
f 22/8/1 44/19/1 45/20/1
f 31/17/1 32/21/1 51/22/1 52/18/1
f 22/8/1 45/20/1 46/23/1
f 22/8/1 46/23/1 47/24/1
f 32/21/1 33/25/1 50/26/1 51/22/1
f 36/6/1 47/24/1 48/7/1
f 40/27/1 41/28/1 28/29/1
f 34/30/1 49/31/1 50/26/1 33/25/1
f 39/32/1 40/27/1 28/29/1
f 38/33/1 39/32/1 28/29/1
f 28/29/1 22/8/1 47/24/1 36/6/1
f 37/34/1 38/33/1 28/29/1
f 36/6/1 37/34/1 28/29/1
f 48/7/1 49/31/1 34/30/1
f 48/7/1 34/30/1 35/5/1
f 1/8/4 2/9/4 3/10/4 4/11/4
usemtl Stone
f 19/35/2 22/11/2 23/36/2 21/37/2
f 8/38/3 24/39/3 28/14/3 9/13/3
f 28/40/4 27/41/4 23/42/4 22/43/4
f 52/44/5 55/45/5 53/46/6 29/47/6
f 51/48/7 56/49/7 55/50/5 52/51/5
f 50/52/8 57/53/8 56/54/7 51/55/7
f 49/56/9 58/57/9 57/58/8 50/59/8
f 48/60/10 59/61/10 58/62/9 49/63/9
f 47/64/11 60/65/11 59/66/10 48/67/10
f 46/68/12 61/69/12 60/70/11 47/71/11
f 45/72/13 62/73/13 61/74/12 46/75/12
f 44/76/14 63/77/14 62/78/13 45/79/13
f 43/80/15 64/81/15 63/82/14 44/83/14
f 42/84/16 65/85/16 64/86/15 43/87/15
f 16/88/2 66/89/2 42/10/2 17/9/2
f 69/35/4 4/11/4 54/36/4 81/37/4
f 67/88/1 83/90/1 64/16/1 65/9/1
f 80/91/17 79/92/18 84/93/18 83/94/17
f 79/95/18 78/96/19 85/97/19 84/98/18
f 78/99/19 77/100/20 86/101/20 85/102/19
f 77/103/20 76/104/21 87/105/21 86/106/20
f 76/107/21 75/108/22 88/109/22 87/110/21
f 75/111/22 74/112/23 89/113/23 88/114/22
f 74/115/23 73/116/24 90/117/24 89/118/23
f 73/119/24 72/120/25 91/121/25 90/122/24
f 72/123/25 71/124/26 92/125/26 91/126/25
f 71/127/26 70/128/27 82/129/27 92/130/26
f 3/131/28 93/132/28 94/133/29 30/134/29
f 13/88/4 95/89/4 3/10/4 2/9/4
f 41/15/3 111/135/3 110/136/3 98/137/3
f 96/138/1 113/139/1 94/1/1 93/4/1
f 109/140/30 108/141/31 114/142/31 113/143/30
f 108/144/31 107/145/32 115/146/32 114/147/31
f 107/148/32 106/149/33 116/150/33 115/151/32
f 106/152/33 105/153/34 117/154/34 116/155/33
f 105/156/34 104/157/35 118/158/35 117/159/34
f 104/160/35 103/161/36 119/162/36 118/163/35
f 103/164/36 102/165/37 120/166/37 119/167/36
f 102/168/37 101/169/38 121/170/38 120/171/37
f 101/172/38 100/173/39 122/174/39 121/175/38
f 100/176/39 99/177/40 112/178/40 122/179/39
f 40/180/41 123/181/41 111/182/42 41/183/42
f 39/184/43 124/185/43 123/186/41 40/187/41
f 38/188/44 125/189/44 124/190/43 39/191/43
f 37/192/45 126/193/45 125/194/44 38/195/44
f 36/196/46 127/197/46 126/198/45 37/199/45
f 35/200/47 128/201/47 127/202/46 36/203/46
f 34/204/48 129/205/48 128/206/47 35/207/47
f 33/208/49 130/209/49 129/210/48 34/211/48
f 32/212/50 131/213/50 130/214/49 33/215/49
f 31/216/51 132/217/51 131/218/50 32/219/50
f 30/220/29 94/221/29 132/222/51 31/223/51
f 22/11/2 19/35/2 5/224/2 18/8/2
f 24/225/52 19/226/52 21/42/52 25/227/52
f 28/14/3 24/39/3 25/228/3 27/229/3
f 27/29/1 25/230/1 21/224/1 23/8/1
f 29/231/6 53/232/6 54/233/53 4/234/53
f 42/10/2 66/89/2 67/235/2 65/236/2
f 4/11/4 69/35/4 14/224/4 1/8/4
f 70/237/27 69/238/54 81/239/54 82/240/27
f 63/19/1 84/241/1 85/242/1 62/20/1
f 61/23/1 86/243/1 87/244/1 60/24/1
f 88/245/1 89/246/1 58/31/1 59/7/1
f 58/31/1 89/246/1 90/247/1 57/26/1
f 55/18/1 56/22/1 91/248/1 92/249/1
f 53/2/1 82/250/1 81/251/1 54/3/1
f 84/241/1 63/19/1 64/16/1 83/90/1
f 55/18/1 92/249/1 82/250/1 53/2/1
f 86/243/1 61/23/1 62/20/1 85/242/1
f 90/247/1 91/248/1 56/22/1 57/26/1
f 88/245/1 59/7/1 60/24/1 87/244/1
f 66/252/55 80/253/17 83/254/17 67/255/55
f 3/10/4 95/89/4 96/235/4 93/236/4
f 98/137/3 11/256/3 10/12/3 41/15/3
f 99/257/40 98/258/56 110/259/56 112/260/40
f 114/261/1 115/262/1 131/21/1 132/17/1
f 130/25/1 116/263/1 117/264/1 129/30/1
f 118/265/1 119/266/1 127/6/1 128/5/1
f 127/6/1 119/266/1 120/267/1 126/34/1
f 125/33/1 121/268/1 122/269/1 124/32/1
f 123/27/1 112/270/1 110/271/1 111/28/1
f 132/17/1 94/1/1 113/139/1 114/261/1
f 124/32/1 122/269/1 112/270/1 123/27/1
f 116/263/1 130/25/1 131/21/1 115/262/1
f 125/33/1 126/34/1 120/267/1 121/268/1
f 118/265/1 128/5/1 129/30/1 117/264/1
f 95/272/57 109/273/30 113/274/30 96/275/57
usemtl Grass
f 8/276/58 5/38/58 6/277/58 7/278/58
f 10/279/58 2/280/58 18/13/58
f 20/277/1 19/224/1 24/230/1 26/278/1
f 26/226/3 24/39/3 8/38/3 7/277/3
f 15/277/4 14/224/4 69/35/4 68/226/4
f 68/281/1 74/246/1 75/245/1
f 12/282/3 11/256/3 98/137/3 97/225/3
f 97/283/1 103/266/1 104/265/1
f 7/282/52 6/277/52 20/226/52 26/225/52
f 14/284/58 16/256/58 17/12/58
f 8/276/58 9/285/58 18/13/58 5/38/58
f 14/284/58 15/282/58 16/256/58
f 1/286/58 17/12/58 18/13/58
f 17/12/58 1/286/58 14/284/58
f 10/279/58 13/287/58 2/280/58
f 13/287/58 11/288/58 12/289/58
f 18/13/58 9/285/58 10/279/58
f 6/277/2 5/224/2 19/35/2 20/226/2
f 2/280/58 1/286/58 18/13/58
f 10/279/58 11/288/58 13/287/58
f 68/290/2 66/89/2 16/88/2 15/281/2
f 80/90/1 66/88/1 68/281/1
f 68/281/1 79/241/1 80/90/1
f 68/281/1 77/243/1 78/242/1
f 68/281/1 75/245/1 76/244/1
f 68/281/1 73/247/1 74/246/1
f 68/281/1 71/249/1 72/248/1
f 68/281/1 69/251/1 70/250/1
f 78/242/1 79/241/1 68/281/1
f 68/281/1 76/244/1 77/243/1
f 68/281/1 72/248/1 73/247/1
f 71/249/1 68/281/1 70/250/1
f 97/290/4 95/89/4 13/88/4 12/281/4
f 109/139/1 95/138/1 97/283/1
f 97/283/1 108/261/1 109/139/1
f 97/283/1 106/263/1 107/262/1
f 97/283/1 104/265/1 105/264/1
f 97/283/1 102/267/1 103/266/1
f 97/283/1 100/269/1 101/268/1
f 97/283/1 98/271/1 99/270/1
f 107/262/1 108/261/1 97/283/1
f 97/283/1 105/264/1 106/263/1
f 97/283/1 101/268/1 102/267/1
f 100/269/1 97/283/1 99/270/1
