# Blender v2.75 (sub 0) OBJ File: ''
# www.blender.org
mtllib roadTile_296.mtl
o Mesh1_Group1_Model.218
v 0.000000 0.000000 -2.250000
v 3.000000 0.000000 -2.250000
v 3.000000 0.000000 -0.000000
v 0.000000 0.000000 -0.000000
v 0.000000 1.650000 -2.250000
v 3.000000 0.550000 -2.250000
v 0.000000 1.730000 0.000000
v 0.000000 1.730000 -0.375000
v 0.000000 1.700000 -0.375000
v 0.000000 1.400000 -0.375000
v 0.000000 1.400000 -1.875000
v 0.000000 1.700000 -1.875000
v 0.000000 1.730000 -1.875000
v 0.000000 1.730000 -2.250000
v 3.000000 0.630000 0.000000
v 3.000000 0.630000 -0.375000
v 3.000000 0.630000 -2.250000
v 3.000000 0.630000 -1.875000
v 3.000000 0.600000 -1.875000
v 3.000000 0.300000 -1.875000
v 3.000000 0.300000 -0.375000
v 3.000000 0.600000 -0.375000
vt -3.000000 0.000000
vt -0.000000 0.000000
vt -0.000000 1.650000
vt -3.000000 0.550000
vt -1.875000 1.700000
vt -1.875000 1.730000
vt -2.250000 1.730000
vt -2.250000 1.650000
vt 0.375000 0.595561
vt 0.000000 0.595561
vt 0.000000 -2.599750
vt 0.375000 -2.599750
vt 0.375000 0.300000
vt 0.375000 0.600000
vt 0.000000 0.630000
vt 1.875000 -2.599750
vt 2.250000 -2.599750
vt 2.250000 0.595561
vt 1.875000 0.595561
vt 0.000000 1.730000
vt 0.000000 1.700000
vt 3.000000 0.600000
vt 3.000000 0.630000
vt -3.000000 0.600000
vt -3.000000 0.630000
vt -2.250000 0.000000
vt -0.375000 1.400000
vt -1.875000 1.400000
vt -0.375000 1.700000
vt -0.375000 1.730000
vt 3.000000 0.000000
vt 2.250000 0.000000
vt 2.250000 0.550000
vt 1.875000 0.600000
vt 1.875000 0.300000
vt 0.375000 0.630000
vt 1.875000 0.630000
vt 2.250000 0.630000
vt -0.000000 2.250000
vt -3.000000 2.250000
vt 1.875000 -2.610080
vt 1.875000 0.585233
vt 0.375000 0.585233
vt 0.375000 -2.610080
vn 0.000000 0.000000 -1.000000
vn -1.000000 -0.000000 0.000000
vn 0.344300 0.938900 0.000000
vn 1.000000 -0.000000 0.000000
vn 0.000000 0.000000 1.000000
vn -0.000000 -1.000000 -0.000000
usemtl Stone.188
s 1
f 2/1/1 1/2/1 5/3/1 6/4/1
f 12/5/2 13/6/2 14/7/2 5/8/2
f 8/9/3 7/10/3 15/11/3 16/12/3
f 21/13/4 22/14/4 15/15/4 3/2/4
f 18/16/3 17/17/3 14/18/3 13/19/3
f 13/20/5 12/21/5 19/22/5 18/23/5
f 22/24/1 9/21/1 8/20/1 16/25/1
f 1/26/2 4/2/2 10/27/2 11/28/2
f 7/20/2 9/29/2 10/27/2
f 11/28/2 12/5/2 5/8/2
f 7/20/2 8/30/2 9/29/2
f 11/28/2 5/8/2 1/26/2
f 4/2/2 7/20/2 10/27/2
f 3/31/5 15/23/5 7/20/5 4/2/5
f 2/32/4 6/33/4 19/34/4 20/35/4
f 15/15/4 22/14/4 16/36/4
f 18/37/4 19/34/4 6/33/4 17/38/4
f 6/4/1 5/3/1 14/20/1 17/25/1
f 20/35/4 21/13/4 3/2/4
f 20/35/4 3/2/4 2/32/4
f 1/39/6 2/40/6 3/1/6 4/2/6
usemtl Asphalt.157
f 19/41/3 12/42/3 9/43/3 22/44/3
f 9/29/2 12/5/2 11/28/2 10/27/2
f 19/34/4 22/14/4 21/13/4 20/35/4
