# Blender v2.75 (sub 0) OBJ File: ''
# www.blender.org
mtllib roadTile_058.mtl
o Mesh1_Group1_Model.260
v 3.000000 0.300000 0.000000
v 0.000000 0.300000 0.000000
v 0.000000 0.000000 -0.000000
v 3.000000 0.000000 0.000000
v 0.000000 0.300000 -3.000000
v 3.000000 0.300000 -3.000000
v 0.000000 0.000000 -3.000000
v 0.000000 0.600000 -3.000000
v 0.000000 0.600000 0.000000
v 3.000000 0.600000 -3.000000
v 3.000000 0.600000 0.000000
v 3.000000 0.000000 -3.000000
vt -0.000000 0.000000
vt -0.000000 0.300000
vt -3.000000 0.300000
vt -3.000000 0.000000
vt 3.000000 0.000000
vt 3.000000 0.300000
vt -3.000000 3.000000
vt -0.000000 3.000000
vt 0.000000 118.110001
vt 118.110001 0.000000
vt 118.110001 118.110001
vt -3.000000 0.600000
vt -0.000000 0.600000
vt 3.000000 3.000000
vt 3.000000 0.600000
vn -1.000000 0.000000 -0.000000
vn 1.000000 0.000000 0.000000
vn 0.000000 0.000000 -1.000000
vn -0.000000 -1.000000 -0.000000
vn -0.000000 -0.000000 1.000000
vn 0.000000 1.000000 0.000000
usemtl Stone.224
s 1
f 3/1/1 2/2/1 5/3/1 7/4/1
f 12/5/2 6/6/2 1/2/2 4/1/2
f 7/1/3 5/2/3 6/3/3 12/4/3
f 12/7/4 4/4/4 3/1/4 7/8/4
f 1/6/5 2/2/5 3/1/5 4/5/5
usemtl FrontColor.009
f 5/9/6 2/1/6 1/10/6 6/11/6
usemtl Asphalt.185
f 8/12/1 5/3/1 2/2/1 9/13/1
f 5/2/3 8/13/3 10/12/3 6/3/3
f 8/8/6 9/1/6 11/5/6 10/14/6
f 9/13/5 2/2/5 1/6/5 11/15/5
f 11/13/2 1/2/2 6/6/2 10/15/2
