# Blender v2.75 (sub 0) OBJ File: ''
# www.blender.org
mtllib roadTile_082.mtl
o Mesh1_Group1_Model.259
v 3.000000 0.600000 -3.000000
v 3.000000 0.300000 -3.000000
v 0.750000 0.300000 -3.000000
v 0.750000 0.600000 -3.000000
v 3.000000 0.600000 -0.750000
v 3.000000 0.300000 -0.750000
v 3.000000 1.730000 -0.750000
v 3.000000 1.730000 0.000000
v 3.000000 0.000000 -0.000000
v 3.000000 0.000000 -3.000000
v 2.706320 0.600000 -0.769249
v 2.706320 1.730000 -0.769249
v 0.769249 0.600000 -2.706320
v 0.826667 0.600000 -2.417660
v 0.921271 0.600000 -2.138960
v 1.051440 0.600000 -1.875000
v 1.214950 0.600000 -1.630290
v 1.409010 0.600000 -1.409010
v 1.630290 0.600000 -1.214950
v 1.875000 0.600000 -1.051440
v 2.138960 0.600000 -0.921271
v 2.417660 0.600000 -0.826667
v 0.750000 1.730000 -3.000000
v 0.769249 1.730000 -2.706320
v 0.000000 0.000000 -3.000000
v 0.000000 1.730000 -3.000000
v 0.000000 0.000000 0.000000
v 0.000000 1.730000 0.000000
v 2.417660 1.730000 -0.826667
v 2.138960 1.730000 -0.921271
v 1.875000 1.730000 -1.051440
v 1.630290 1.730000 -1.214950
v 1.409010 1.730000 -1.409010
v 1.214950 1.730000 -1.630290
v 1.051440 1.730000 -1.875000
v 0.921271 1.730000 -2.138960
v 0.826667 1.730000 -2.417660
vt 0.750000 0.600000
vt 0.750000 1.730000
vt -0.000000 1.730000
vt -0.000000 0.000000
vt 0.750000 0.300000
vt 2.650210 0.600000
vt 2.944520 0.600000
vt 2.944520 1.730000
vt 2.650210 1.730000
vt -0.750000 1.730000
vt -0.750000 0.600000
vt -0.750000 0.300000
vt -3.000000 1.730000
vt -3.000000 0.000000
vt 3.000000 -0.000000
vt 3.000000 1.730000
vt -2.504240 0.600000
vt -2.209930 0.600000
vt -2.209930 1.730000
vt -2.504240 1.730000
vt 1.630290 1.214950
vt 1.409010 1.409010
vt -2.023630 0.600000
vt -1.729310 0.600000
vt -1.729310 1.730000
vt -2.023630 1.730000
vt -1.510910 0.600000
vt -1.216600 0.600000
vt -1.216600 1.730000
vt -1.510910 1.730000
vt -0.974855 0.600000
vt -0.680541 0.600000
vt -0.680541 1.730000
vt -0.974855 1.730000
vt -0.424639 0.600000
vt -0.130325 0.600000
vt -0.130325 1.730000
vt -0.424639 1.730000
vt 0.130325 0.600000
vt 0.424639 0.600000
vt 0.424639 1.730000
vt 0.130325 1.730000
vt 0.680541 0.600000
vt 0.974855 0.600000
vt 0.974855 1.730000
vt 0.680541 1.730000
vt 1.216600 0.600000
vt 1.510910 0.600000
vt 1.510910 1.730000
vt 1.216600 1.730000
vt 1.729310 0.600000
vt 2.023630 0.600000
vt 2.023630 1.730000
vt 1.729310 1.730000
vt 2.209930 0.600000
vt 2.504240 0.600000
vt 2.504240 1.730000
vt 2.209930 1.730000
vt 3.000000 0.300000
vt -2.944520 0.600000
vt -2.650210 0.600000
vt -2.650210 1.730000
vt -2.944520 1.730000
vt 0.000000 3.000000
vt -3.000000 3.000000
vt -3.000000 0.300000
vt 0.921271 2.138960
vt 2.706320 0.769249
vt 3.000000 0.750000
vt 0.769249 2.706320
vt 0.750000 3.000000
vt 2.417660 0.826667
vt 0.826667 2.417660
vt 2.138960 0.921271
vt 1.051440 1.875000
vt 1.875000 1.051440
vt 1.214950 1.630290
vt 3.000000 0.600000
vt 3.000000 3.000000
vt -3.000000 0.600000
vn 1.000000 -0.000000 0.000000
vn 0.991400 0.000000 -0.130500
vn 0.997900 0.000000 -0.065400
vn 0.000000 0.000000 -1.000000
vn -1.000000 -0.000000 0.000000
vn 0.000000 -0.000000 1.000000
vn 0.130500 0.000000 -0.991400
vn 0.258800 0.000000 -0.965900
vn 0.000000 1.000000 -0.000000
vn 0.382700 0.000000 -0.923900
vn 0.500000 0.000000 -0.866000
vn 0.608800 0.000000 -0.793400
vn 0.707100 0.000000 -0.707100
vn 0.793400 0.000000 -0.608800
vn 0.866000 0.000000 -0.500000
vn 0.923900 0.000000 -0.382700
vn 0.965900 0.000000 -0.258800
vn 0.065400 0.000000 -0.997900
vn 0.000000 -1.000000 -0.000000
usemtl Stone.223
s 1
f 5/1/1 7/2/1 8/3/1 9/4/1
f 6/5/1 5/1/1 9/4/1
f 13/6/2 4/7/3 23/8/3 24/9/2
f 25/4/4 26/3/4 23/10/4 4/11/4
f 4/11/4 3/12/4 25/4/4
f 26/13/5 25/14/5 27/4/5 28/3/5
f 27/4/6 9/15/6 8/16/6 28/3/6
f 11/17/7 22/18/8 29/19/8 12/20/7
f 32/21/9 33/22/9 28/4/9
f 22/23/8 21/24/10 30/25/10 29/26/8
f 21/27/10 20/28/11 31/29/11 30/30/10
f 20/31/11 19/32/12 32/33/12 31/34/11
f 19/35/12 18/36/13 33/37/13 32/38/12
f 18/39/13 17/40/14 34/41/14 33/42/13
f 17/43/14 16/44/15 35/45/15 34/46/14
f 16/47/15 15/48/16 36/49/16 35/50/15
f 15/51/16 14/52/17 37/53/17 36/54/16
f 14/55/17 13/56/2 24/57/2 37/58/17
f 6/5/1 10/15/1 2/59/1
f 5/60/18 11/61/7 12/62/7 7/63/18
f 9/4/1 10/15/1 6/5/1
f 27/4/19 25/64/19 10/65/19 9/14/19
f 3/12/4 10/14/4 25/4/4
f 3/12/4 2/66/4 10/14/4
f 36/67/9 26/64/9 28/4/9
f 12/68/9 8/15/9 7/69/9
f 24/70/9 23/71/9 26/64/9
f 29/72/9 8/15/9 12/68/9
f 37/73/9 24/70/9 26/64/9
f 30/74/9 8/15/9 29/72/9
f 36/67/9 37/73/9 26/64/9
f 28/4/9 8/15/9 30/74/9
f 35/75/9 36/67/9 28/4/9
f 28/4/9 30/74/9 31/76/9
f 34/77/9 35/75/9 28/4/9
f 28/4/9 31/76/9 32/21/9
f 33/22/9 34/77/9 28/4/9
usemtl Asphalt.184
f 5/1/1 6/5/1 2/59/1 1/78/1
f 1/79/9 17/77/9 18/22/9
f 11/68/9 5/69/9 1/79/9
f 1/79/9 22/72/9 11/68/9
f 1/79/9 20/76/9 21/74/9
f 1/79/9 18/22/9 19/21/9
f 1/79/9 16/75/9 17/77/9
f 1/79/9 14/73/9 15/67/9
f 1/79/9 4/71/9 13/70/9
f 21/74/9 22/72/9 1/79/9
f 1/79/9 19/21/9 20/76/9
f 1/79/9 15/67/9 16/75/9
f 14/73/9 1/79/9 13/70/9
f 1/80/4 2/66/4 3/12/4 4/11/4
