# Blender v2.75 (sub 0) OBJ File: ''
# www.blender.org
mtllib roadTile_242.mtl
o Mesh1_Group1_Model.201
v 2.625000 0.000000 -0.000000
v 0.000000 0.000000 0.000000
v 0.000000 0.000000 -0.375000
v 0.000000 0.000000 -0.750000
v 0.000000 0.000000 -2.250000
v 0.000000 0.000000 -2.625000
v 0.000000 0.000000 -3.000000
v 2.625000 0.000000 -3.000000
v 3.000000 0.000000 -3.000000
v 3.000000 0.000000 -0.000000
v 2.625000 0.550000 0.000000
v 0.000000 0.550000 0.000000
v 2.625000 0.630000 0.000000
v 3.000000 0.455000 0.000000
v 3.000000 0.630000 0.000000
v 2.621790 0.550000 -0.048947
v 2.621790 0.630000 -0.048947
v 2.298950 0.550000 -0.371792
v 2.250000 0.550000 -0.375000
v 0.000000 0.550000 -0.375000
v 2.612220 0.550000 -0.097057
v 2.596450 0.550000 -0.143506
v 2.574760 0.550000 -0.187500
v 2.547510 0.550000 -0.228286
v 2.515170 0.550000 -0.265165
v 2.478290 0.550000 -0.297508
v 2.437500 0.550000 -0.324760
v 2.393510 0.550000 -0.346455
v 2.347060 0.550000 -0.362222
v 2.298950 0.630000 -0.371792
v 2.250000 0.630000 -0.375000
v 2.347060 0.630000 -0.362222
v 2.393510 0.630000 -0.346455
v 2.437500 0.630000 -0.324760
v 2.478290 0.630000 -0.297508
v 2.515170 0.630000 -0.265165
v 2.547510 0.630000 -0.228286
v 2.574760 0.630000 -0.187500
v 2.596450 0.630000 -0.143506
v 2.612220 0.630000 -0.097057
v 2.347890 0.630000 -0.743584
v 2.250000 0.630000 -0.750000
v 0.000000 0.630000 -0.750000
v 0.000000 0.630000 -0.375000
v 2.993580 0.630000 -0.097895
v 2.974440 0.630000 -0.194114
v 2.942910 0.630000 -0.287013
v 2.899520 0.630000 -0.375000
v 2.845020 0.630000 -0.456571
v 2.780330 0.630000 -0.530330
v 2.706570 0.630000 -0.595015
v 2.625000 0.630000 -0.649519
v 2.537010 0.630000 -0.692910
v 2.444110 0.630000 -0.724444
v 2.250000 0.455000 -0.750000
v 2.347890 0.455000 -0.743584
v 0.000000 0.455000 -0.750000
v 3.000000 0.455000 -3.000000
v 2.993580 0.455000 -2.902110
v 2.974440 0.455000 -2.805890
v 2.942910 0.455000 -2.712990
v 2.899520 0.455000 -2.625000
v 2.845020 0.455000 -2.543430
v 2.780330 0.455000 -2.469670
v 2.706570 0.455000 -2.404980
v 2.625000 0.455000 -2.350480
v 2.537010 0.455000 -2.307090
v 2.444110 0.455000 -2.275560
v 2.347890 0.455000 -2.256420
v 2.250000 0.455000 -2.250000
v 0.000000 0.455000 -2.250000
v 2.444110 0.455000 -0.724444
v 2.537010 0.455000 -0.692910
v 2.625000 0.455000 -0.649519
v 2.706570 0.455000 -0.595015
v 2.780330 0.455000 -0.530330
v 2.845020 0.455000 -0.456571
v 2.899520 0.455000 -0.375000
v 2.942910 0.455000 -0.287013
v 2.974440 0.455000 -0.194114
v 2.993580 0.455000 -0.097895
v 2.625000 0.550000 -3.000000
v 2.625000 0.630000 -3.000000
v 3.000000 0.630000 -3.000000
v 0.000000 0.550000 -3.000000
v 0.000000 0.550000 -2.625000
v 2.250000 0.550000 -2.625000
v 2.298950 0.550000 -2.628210
v 2.347060 0.550000 -2.637780
v 2.393510 0.550000 -2.653550
v 2.437500 0.550000 -2.675240
v 2.478290 0.550000 -2.702490
v 2.515170 0.550000 -2.734830
v 2.547510 0.550000 -2.771710
v 2.574760 0.550000 -2.812500
v 2.596450 0.550000 -2.856490
v 2.612220 0.550000 -2.902940
v 2.621790 0.550000 -2.951050
v 0.000000 0.630000 -2.625000
v 2.250000 0.630000 -2.625000
v 0.000000 0.630000 -2.250000
v 2.250000 0.630000 -2.250000
v 2.347890 0.630000 -2.256420
v 2.444110 0.630000 -2.275560
v 2.537010 0.630000 -2.307090
v 2.625000 0.630000 -2.350480
v 2.706570 0.630000 -2.404980
v 2.780330 0.630000 -2.469670
v 2.845020 0.630000 -2.543430
v 2.899520 0.630000 -2.625000
v 2.942910 0.630000 -2.712990
v 2.974440 0.630000 -2.805890
v 2.993580 0.630000 -2.902110
v 2.298950 0.630000 -2.628210
v 2.621790 0.630000 -2.951050
v 2.612220 0.630000 -2.902940
v 2.596450 0.630000 -2.856490
v 2.574760 0.630000 -2.812500
v 2.547510 0.630000 -2.771710
v 2.515170 0.630000 -2.734830
v 2.478290 0.630000 -2.702490
v 2.437500 0.630000 -2.675240
v 2.393510 0.630000 -2.653550
v 2.347060 0.630000 -2.637780
vt 2.625000 0.550000
vt 3.000000 0.455000
vt 3.000000 0.630000
vt 2.625000 0.630000
vt 2.220660 0.550000
vt 2.269710 0.550000
vt 2.269710 0.630000
vt 2.220660 0.630000
vt 2.182240 0.550000
vt 2.231290 0.550000
vt 2.231290 0.630000
vt 2.182240 0.630000
vt 2.106070 0.550000
vt 2.155120 0.550000
vt 2.155120 0.630000
vt 2.106070 0.630000
vt 1.993440 0.550000
vt 2.042490 0.550000
vt 2.042490 0.630000
vt 1.993440 0.630000
vt 1.846280 0.550000
vt 1.895330 0.550000
vt 1.895330 0.630000
vt 1.846280 0.630000
vt 1.667110 0.550000
vt 1.716170 0.550000
vt 1.716170 0.630000
vt 1.667110 0.630000
vt 1.459000 0.550000
vt 1.508050 0.550000
vt 1.508050 0.630000
vt 1.459000 0.630000
vt 1.225510 0.550000
vt 1.274560 0.550000
vt 1.274560 0.630000
vt 1.225510 0.630000
vt 0.970623 0.550000
vt 1.019680 0.550000
vt 1.019680 0.630000
vt 0.970623 0.630000
vt 0.698713 0.550000
vt 0.747765 0.550000
vt 0.747765 0.630000
vt 0.698713 0.630000
vt 0.414427 0.550000
vt 0.463479 0.550000
vt 0.463479 0.630000
vt 0.414427 0.630000
vt 2.298950 0.371792
vt 2.347060 0.362222
vt 2.444110 0.724444
vt 2.347890 0.743584
vt -2.250000 0.630000
vt -2.250000 0.455000
vt -0.000000 0.455000
vt -0.000000 0.630000
vt -2.625000 -0.000000
vt -2.625000 0.550000
vt -3.000000 0.455000
vt -3.000000 -0.000000
vt -2.250000 0.550000
vt -0.000000 0.550000
vt -2.625000 0.630000
vt -0.375000 0.000000
vt -0.375000 0.550000
vt -0.750000 0.455000
vt -0.750000 0.000000
vt 2.250000 0.550000
vt 2.250000 0.630000
vt 2.250000 0.455000
vt 2.490440 0.455000
vt 2.490440 0.630000
vt 2.392340 0.630000
vt 2.392340 0.455000
vt 2.841090 0.455000
vt 2.841090 0.630000
vt 2.742990 0.630000
vt 2.742990 0.455000
vt 3.143960 0.455000
vt 3.143960 0.630000
vt 3.045860 0.630000
vt 3.045860 0.455000
vt 3.393880 0.455000
vt 3.393880 0.630000
vt 3.295780 0.630000
vt 3.295780 0.455000
vt 3.586570 0.455000
vt 3.586570 0.630000
vt 3.488460 0.630000
vt 3.488460 0.455000
vt 3.718730 0.455000
vt 3.718730 0.630000
vt 3.620620 0.630000
vt 3.620620 0.455000
vt 3.788100 0.455000
vt 3.788100 0.630000
vt 3.690000 0.630000
vt 3.690000 0.455000
vt 3.793490 0.455000
vt 3.793490 0.630000
vt 3.695390 0.630000
vt 3.695390 0.455000
vt 3.734820 0.455000
vt 3.734820 0.630000
vt 3.636720 0.630000
vt 3.636720 0.455000
vt 3.613080 0.455000
vt 3.613080 0.630000
vt 3.514980 0.630000
vt 3.514980 0.455000
vt 3.430360 0.455000
vt 3.430360 0.630000
vt 3.332260 0.630000
vt 3.332260 0.455000
vt 3.189790 0.455000
vt 3.189790 0.630000
vt 3.091680 0.630000
vt 3.091680 0.455000
vt 2.993580 2.902110
vt 3.000000 3.000000
vt 2.625000 3.000000
vt 2.621790 2.951050
vt -2.816560 0.550000
vt -2.767510 0.550000
vt -2.767510 0.630000
vt -2.816560 0.630000
vt -3.119440 0.550000
vt -3.070390 0.550000
vt -3.070390 0.630000
vt -3.119440 0.630000
vt -3.369360 0.550000
vt -3.320300 0.550000
vt -3.320300 0.630000
vt -3.369360 0.630000
vt -3.562040 0.550000
vt -3.512990 0.550000
vt -3.512990 0.630000
vt -3.562040 0.630000
vt -3.694200 0.550000
vt -3.645150 0.550000
vt -3.645150 0.630000
vt -3.694200 0.630000
vt -3.763570 0.550000
vt -3.714520 0.550000
vt -3.714520 0.630000
vt -3.763570 0.630000
vt -3.768970 0.550000
vt -3.719920 0.550000
vt -3.719920 0.630000
vt -3.768970 0.630000
vt -3.710290 0.550000
vt -3.661240 0.550000
vt -3.661240 0.630000
vt -3.710290 0.630000
vt -3.588560 0.550000
vt -3.539500 0.550000
vt -3.539500 0.630000
vt -3.588560 0.630000
vt -3.405840 0.550000
vt -3.356780 0.550000
vt -3.356780 0.630000
vt -3.405840 0.630000
vt -3.165260 0.550000
vt -3.116210 0.550000
vt -3.116210 0.630000
vt -3.165260 0.630000
vt -2.157710 0.455000
vt -2.157710 0.630000
vt -2.255820 0.630000
vt -2.255820 0.455000
vt -2.081540 0.455000
vt -2.081540 0.630000
vt -2.179650 0.630000
vt -2.179650 0.455000
vt -1.968910 0.455000
vt -1.968910 0.630000
vt -2.067020 0.630000
vt -2.067020 0.455000
vt -1.821750 0.455000
vt -1.821750 0.630000
vt -1.919860 0.630000
vt -1.919860 0.455000
vt -1.642590 0.455000
vt -1.642590 0.630000
vt -1.740690 0.630000
vt -1.740690 0.455000
vt -1.434480 0.455000
vt -1.434480 0.630000
vt -1.532580 0.630000
vt -1.532580 0.455000
vt -1.200980 0.455000
vt -1.200980 0.630000
vt -1.299090 0.630000
vt -1.299090 0.455000
vt -0.946097 0.455000
vt -0.946097 0.630000
vt -1.044200 0.630000
vt -1.044200 0.455000
vt -0.674186 0.455000
vt -0.674186 0.630000
vt -0.772291 0.630000
vt -0.772291 0.455000
vt -0.389901 0.455000
vt -0.389901 0.630000
vt -0.488006 0.630000
vt -0.488006 0.455000
vt -0.098105 0.455000
vt -0.098105 0.630000
vt -0.196209 0.630000
vt -0.196209 0.455000
vt 2.625000 0.000000
vt 3.000000 0.000000
vt 0.122631 0.550000
vt 0.171683 0.550000
vt 0.171683 0.630000
vt 0.122631 0.630000
vt 2.393510 0.346455
vt 2.437500 0.324760
vt 2.625000 0.649519
vt 2.537010 0.692910
vt 2.478290 0.297508
vt 2.515170 0.265165
vt 2.780330 0.530330
vt 2.706570 0.595015
vt 2.547510 0.228286
vt 2.845020 0.456571
vt 2.942910 0.287013
vt 2.899520 0.375000
vt 2.574760 0.187500
vt 2.596450 0.143506
vt 2.621790 0.048947
vt 2.993580 0.097895
vt 2.250000 0.750000
vt 0.000000 0.750000
vt 0.000000 0.375000
vt 2.250000 0.375000
vt 2.974440 0.194114
vt 2.612220 0.097057
vt -2.196130 0.455000
vt -2.196130 0.630000
vt -2.294230 0.630000
vt -2.294230 0.455000
vt -3.000000 0.630000
vt -2.250000 0.000000
vt -0.375000 0.630000
vt -0.750000 0.630000
vt 2.250000 2.250000
vt 2.250000 2.625000
vt 0.000000 2.625000
vt 0.000000 2.250000
vt 2.974440 2.805890
vt 2.612220 2.902940
vt 2.942910 2.712990
vt 2.596450 2.856490
vt 2.347890 2.256420
vt 2.298950 2.628210
vt 2.574760 2.812500
vt 2.899520 2.625000
vt 2.547510 2.771710
vt 2.845020 2.543430
vt 2.444110 2.275560
vt 2.347060 2.637780
vt 2.515170 2.734830
vt 2.780330 2.469670
vt 2.478290 2.702490
vt 2.706570 2.404980
vt 2.537010 2.307090
vt 2.393510 2.653550
vt 2.437500 2.675240
vt 2.625000 2.350480
vt -2.465920 0.550000
vt -2.416870 0.550000
vt -2.416870 0.630000
vt -2.465920 0.630000
vt -0.000000 0.000000
vt -2.625000 3.000000
vt -0.000000 3.000000
vt -3.000000 0.550000
vt -3.000000 3.000000
vn -0.000000 -0.000000 1.000000
vn -0.032700 0.000000 0.999500
vn -0.130500 0.000000 0.991400
vn -0.258800 0.000000 0.965900
vn -0.382700 0.000000 0.923900
vn -0.500000 0.000000 0.866000
vn -0.608700 0.000000 0.793400
vn -0.707100 0.000000 0.707100
vn -0.793400 0.000000 0.608700
vn -0.866100 0.000000 0.499900
vn -0.923900 -0.000000 0.382700
vn -0.965900 -0.000000 0.258800
vn -0.991400 -0.000000 0.130500
vn -0.000000 1.000000 0.000000
vn 0.032700 0.000000 -0.999500
vn 0.000000 0.000000 -1.000000
vn -0.032700 0.000000 -0.999500
vn -1.000000 0.000000 0.000000
vn 0.032700 0.000000 0.999500
vn 0.130500 0.000000 0.991400
vn 0.258800 0.000000 0.965900
vn 0.382700 0.000000 0.923900
vn 0.500000 0.000000 0.866000
vn 0.608800 0.000000 0.793400
vn 0.707100 0.000000 0.707100
vn 0.793400 0.000000 0.608800
vn 0.866000 0.000000 0.500000
vn 0.923900 0.000000 0.382700
vn 0.965900 0.000000 0.258800
vn 0.991400 0.000000 0.130500
vn 0.997900 0.000000 0.065400
vn -0.258800 0.000000 -0.965900
vn -0.130500 0.000000 -0.991400
vn -0.382700 0.000000 -0.923900
vn -0.499900 0.000000 -0.866100
vn -0.608700 0.000000 -0.793400
vn -0.707100 0.000000 -0.707100
vn -0.793400 0.000000 -0.608700
vn -0.866100 0.000000 -0.499900
vn -0.923900 0.000000 -0.382700
vn -0.965900 0.000000 -0.258800
vn -0.991400 0.000000 -0.130500
vn -0.997900 0.000000 -0.065400
vn 0.130500 0.000000 -0.991400
vn 0.258800 0.000000 -0.965900
vn 0.382700 0.000000 -0.923900
vn 0.500000 0.000000 -0.866000
vn 0.608800 0.000000 -0.793400
vn 0.707100 0.000000 -0.707100
vn 0.793400 0.000000 -0.608800
vn 0.866000 0.000000 -0.500000
vn 0.923900 -0.000000 -0.382700
vn 0.965900 0.000000 -0.258800
vn 0.991400 0.000000 -0.130500
vn 0.997900 -0.000000 -0.065400
vn -0.997900 0.000000 0.065400
vn 1.000000 0.000000 0.000000
vn -0.000000 -1.000000 -0.000000
usemtl Stone.172
s 1
f 11/1/1 14/2/1 15/3/1 13/4/1
f 19/5/2 18/6/3 30/7/3 31/8/2
f 18/9/3 29/10/4 32/11/4 30/12/3
f 29/13/4 28/14/5 33/15/5 32/16/4
f 28/17/5 27/18/6 34/19/6 33/20/5
f 27/21/6 26/22/7 35/23/7 34/24/6
f 26/25/7 25/26/8 36/27/8 35/28/7
f 25/29/8 24/30/9 37/31/9 36/32/8
f 24/33/9 23/34/10 38/35/10 37/36/9
f 23/37/10 22/38/11 39/39/11 38/40/10
f 22/41/11 21/42/12 40/43/12 39/44/11
f 21/45/12 16/46/13 17/47/13 40/48/12
f 30/49/14 32/50/14 54/51/14 41/52/14
f 42/53/15 55/54/15 57/55/16 43/56/16
f 8/57/16 82/58/16 58/59/16 9/60/16
f 87/61/17 86/62/16 99/56/16 100/53/17
f 86/58/18 71/54/18 101/53/18 99/63/18
f 3/64/18 20/65/18 57/66/18 4/67/18
f 20/62/1 19/68/2 31/69/2 44/56/1
f 71/55/1 70/70/19 102/69/19 101/56/1
f 69/71/20 103/72/20 102/73/19 70/74/19
f 68/75/21 104/76/21 103/77/20 69/78/20
f 67/79/22 105/80/22 104/81/21 68/82/21
f 66/83/23 106/84/23 105/85/22 67/86/22
f 65/87/24 107/88/24 106/89/23 66/90/23
f 64/91/25 108/92/25 107/93/24 65/94/24
f 63/95/26 109/96/26 108/97/25 64/98/25
f 62/99/27 110/100/27 109/101/26 63/102/26
f 61/103/28 111/104/28 110/105/27 62/106/27
f 60/107/29 112/108/29 111/109/28 61/110/28
f 59/111/30 113/112/30 112/113/29 60/114/29
f 58/115/31 84/116/31 113/117/30 59/118/30
f 113/119/14 84/120/14 83/121/14 115/122/14
f 89/123/32 88/124/33 114/125/33 124/126/32
f 90/127/34 89/128/32 124/129/32 123/130/34
f 91/131/35 90/132/34 123/133/34 122/134/35
f 92/135/36 91/136/35 122/137/35 121/138/36
f 93/139/37 92/140/36 121/141/36 120/142/37
f 94/143/38 93/144/37 120/145/37 119/146/38
f 95/147/39 94/148/38 119/149/38 118/150/39
f 96/151/40 95/152/39 118/153/39 117/154/40
f 97/155/41 96/156/40 117/157/40 116/158/41
f 98/159/42 97/160/41 116/161/41 115/162/42
f 82/163/43 98/164/42 115/165/42 83/166/43
f 56/167/44 41/168/44 54/169/45 72/170/45
f 72/171/45 54/172/45 53/173/46 73/174/46
f 73/175/46 53/176/46 52/177/47 74/178/47
f 74/179/47 52/180/47 51/181/48 75/182/48
f 75/183/48 51/184/48 50/185/49 76/186/49
f 76/187/49 50/188/49 49/189/50 77/190/50
f 77/191/50 49/192/50 48/193/51 78/194/51
f 78/195/51 48/196/51 47/197/52 79/198/52
f 79/199/52 47/200/52 46/201/53 80/202/53
f 80/203/53 46/204/53 45/205/54 81/206/54
f 81/207/54 45/208/54 15/209/55 14/210/55
f 14/2/1 11/1/1 1/211/1 10/212/1
f 16/213/13 11/214/56 13/215/56 17/216/13
f 33/217/14 34/218/14 52/219/14 53/220/14
f 35/221/14 36/222/14 50/223/14 51/224/14
f 50/223/14 36/222/14 37/225/14 49/226/14
f 47/227/14 48/228/14 38/229/14 39/230/14
f 17/231/14 13/211/14 15/212/14 45/232/14
f 42/233/14 43/234/14 44/235/14 31/236/14
f 30/49/14 41/52/14 42/233/14 31/236/14
f 46/237/14 40/238/14 17/231/14 45/232/14
f 46/237/14 47/227/14 39/230/14 40/238/14
f 33/217/14 53/220/14 54/51/14 32/50/14
f 35/221/14 51/224/14 52/219/14 34/218/14
f 48/228/14 49/226/14 37/225/14 38/229/14
f 55/239/15 42/240/15 41/241/44 56/242/44
f 58/59/16 82/58/16 83/63/16 84/243/16
f 71/54/18 86/58/18 6/57/18 5/244/18
f 57/66/18 20/65/18 44/245/18 43/246/18
f 102/247/14 100/248/14 99/249/14 101/250/14
f 112/251/14 113/119/14 115/122/14 116/252/14
f 111/253/14 112/251/14 116/252/14 117/254/14
f 103/255/14 114/256/14 100/248/14 102/247/14
f 118/257/14 110/258/14 111/253/14 117/254/14
f 119/259/14 109/260/14 110/258/14 118/257/14
f 104/261/14 124/262/14 114/256/14 103/255/14
f 120/263/14 108/264/14 109/260/14 119/259/14
f 121/265/14 107/266/14 108/264/14 120/263/14
f 124/262/14 104/261/14 105/267/14 123/268/14
f 107/266/14 121/265/14 122/269/14 106/270/14
f 106/270/14 122/269/14 123/268/14 105/267/14
f 88/271/33 87/272/17 100/273/17 114/274/33
usemtl Water.031
f 70/247/14 71/250/14 57/234/14 55/233/14
f 64/264/14 65/266/14 76/223/14
f 5/244/18 4/67/18 57/66/18 71/54/18
f 69/255/14 70/247/14 55/233/14 56/52/14
f 81/232/14 14/212/14 58/120/14
f 68/261/14 69/255/14 56/52/14 72/51/14
f 59/119/14 81/232/14 58/120/14
f 67/267/14 68/261/14 72/51/14 73/220/14
f 59/119/14 80/237/14 81/232/14
f 66/270/14 67/267/14 73/220/14 74/219/14
f 59/119/14 60/251/14 80/237/14
f 65/266/14 66/270/14 74/219/14 75/224/14
f 80/237/14 60/251/14 79/227/14
f 60/251/14 61/253/14 79/227/14
f 10/275/57 9/212/57 58/2/57 14/55/57
f 79/227/14 61/253/14 78/228/14
f 65/266/14 75/224/14 76/223/14
f 61/253/14 62/258/14 78/228/14
f 62/258/14 77/226/14 78/228/14
f 63/260/14 77/226/14 62/258/14
f 76/223/14 77/226/14 63/260/14
f 76/223/14 63/260/14 64/264/14
usemtl Grass.084
f 19/236/14 16/231/14 22/230/14
f 96/254/14 90/268/14 95/257/14
f 5/250/58 8/276/58 1/57/58 4/234/58
f 1/57/58 3/235/58 4/234/58
f 6/249/58 7/277/58 8/276/58
f 2/275/1 1/211/1 11/1/1 12/62/1
f 5/250/58 6/249/58 8/276/58
f 3/235/58 1/57/58 2/275/58
f 27/218/14 29/50/14 18/49/14
f 29/50/14 27/218/14 28/217/14
f 24/225/14 25/222/14 26/221/14
f 22/230/14 23/229/14 24/225/14
f 16/231/14 21/238/14 22/230/14
f 19/236/14 11/211/14 16/231/14
f 19/236/14 20/235/14 12/275/14
f 27/218/14 18/49/14 19/236/14
f 24/225/14 26/221/14 27/218/14
f 27/218/14 22/230/14 24/225/14
f 19/236/14 12/275/14 11/211/14
f 22/230/14 27/218/14 19/236/14
f 85/62/16 82/58/16 8/57/16 7/275/16
f 87/248/14 85/277/14 86/249/14
f 90/268/14 98/122/14 82/121/14
f 98/122/14 96/254/14 97/252/14
f 92/265/14 94/259/14 95/257/14
f 94/259/14 92/265/14 93/263/14
f 95/257/14 90/268/14 91/269/14
f 90/268/14 88/256/14 89/262/14
f 82/121/14 85/277/14 87/248/14
f 90/268/14 96/254/14 98/122/14
f 91/269/14 92/265/14 95/257/14
f 82/121/14 88/256/14 90/268/14
f 88/256/14 82/121/14 87/248/14
f 7/60/18 6/57/18 86/58/18 85/278/18
f 12/62/18 20/65/18 3/64/18 2/275/18
f 1/57/58 8/276/58 9/279/58 10/60/58
