# Blender v2.75 (sub 0) OBJ File: ''
# www.blender.org
mtllib roadTile_124.mtl
o Mesh1_Group1_Model.030
v 3.000000 0.000000 -3.000000
v 3.000000 0.000000 0.000000
v 0.000000 0.000000 -0.000000
v 0.000000 0.000000 -2.625000
v 0.375000 0.000000 -2.625000
v 0.375000 0.000000 -3.000000
v 3.000000 0.300000 -3.000000
v 3.000000 0.300000 0.000000
v 0.375000 1.730000 -3.000000
v 0.750000 1.730000 -3.000000
v 0.750000 0.600000 -3.000000
v 0.750000 0.300000 -3.000000
v 0.375000 1.730000 -2.625000
v 0.000000 1.730000 -2.250000
v 0.750000 1.730000 -2.250000
v 0.000000 1.730000 -2.625000
v 0.000000 0.600000 -2.250000
v 0.750000 0.600000 -2.250000
v 3.000000 0.600000 -3.000000
v 0.000000 0.600000 0.000000
v 3.000000 0.600000 0.000000
v 0.000000 0.300000 0.000000
v 0.000000 0.300000 -2.250000
vt -2.625000 1.730000
vt -3.000000 1.730000
vt -3.000000 0.000000
vt -2.625000 0.000000
vt -0.375000 0.000000
vt -0.375000 1.730000
vt -0.750000 0.600000
vt -0.000000 0.600000
vt 0.750000 0.600000
vt 0.750000 1.730000
vt -0.000000 1.730000
vt 0.000000 2.250000
vt 0.750000 2.250000
vt 0.375000 2.625000
vt 0.000000 0.000000
vt -2.250000 0.600000
vt -2.250000 0.300000
vt 3.000000 0.300000
vt 0.000000 0.300000
vt 3.000000 0.000000
vt 2.250000 0.600000
vt 3.000000 0.600000
vt 3.000000 1.730000
vt 2.250000 1.730000
vt -0.375000 2.625000
vt -0.375000 3.000000
vt -3.000000 3.000000
vt -0.000000 2.625000
vt -0.750000 0.300000
vt -3.000000 0.300000
vt -0.750000 1.730000
vt 0.750000 3.000000
vt 0.375000 3.000000
vt -2.250000 1.730000
vt 3.000000 3.000000
vt -3.000000 0.600000
vn -1.000000 0.000000 0.000000
vn 0.000000 0.000000 -1.000000
vn 0.000000 0.000000 1.000000
vn 0.000000 1.000000 0.000000
vn 1.000000 0.000000 0.000000
vn 0.000000 -1.000000 -0.000000
usemtl Stone
s 1
f 13/1/1 9/2/1 6/3/1 5/4/1
f 6/5/2 9/6/2 11/7/2
f 17/8/3 18/9/3 15/10/3 14/11/3
f 14/12/4 15/13/4 13/14/4
f 16/11/2 13/6/2 5/5/2 4/15/2
f 17/16/1 4/4/1 23/17/1
f 8/18/3 22/19/3 3/15/3 2/20/3
f 18/21/5 11/22/5 10/23/5 15/24/5
f 5/25/6 6/26/6 1/27/6
f 3/15/6 4/28/6 5/25/6
f 1/20/5 7/18/5 8/19/5 2/15/5
f 12/29/2 7/30/2 1/3/2
f 6/5/2 11/7/2 12/29/2
f 11/7/2 9/6/2 10/31/2
f 12/29/2 1/3/2 6/5/2
f 13/14/4 16/28/4 14/12/4
f 10/32/4 9/33/4 13/14/4
f 13/14/4 15/13/4 10/32/4
f 17/16/1 14/34/1 16/1/1
f 3/15/1 22/19/1 23/17/1
f 4/4/1 17/16/1 16/1/1
f 4/4/1 3/15/1 23/17/1
f 1/27/6 2/3/6 3/15/6 5/25/6
usemtl Asphalt
f 18/13/4 20/15/4 21/20/4 19/35/4
f 21/8/5 8/19/5 7/18/5 19/22/5
f 20/8/3 22/19/3 8/18/3 21/22/3
f 20/8/1 17/16/1 23/17/1 22/19/1
f 7/30/2 12/29/2 11/7/2 19/36/2
f 18/13/4 17/12/4 20/15/4
f 19/35/4 11/32/4 18/13/4
