# Blender v2.75 (sub 0) OBJ File: ''
# www.blender.org
mtllib roadTile_020.mtl
o Mesh1_Group1_Model.020
v 1.017620 0.000000 -0.588471
v 0.960343 0.553783 -0.645746
v 0.761057 0.553783 -0.645746
v 0.703783 0.000000 -0.588471
v 1.017620 0.000000 -0.902305
v 0.960343 0.553783 -0.845031
v 0.703783 0.000000 -0.902305
v 0.761057 0.553783 -0.845031
v 0.525027 0.553783 -0.163985
v 1.196370 0.553783 -0.163985
v 1.196370 0.553783 -1.326790
v 0.525027 0.553783 -1.326790
v 0.189354 0.553783 -0.745388
v 0.430350 0.907183 0.000000
v 0.000000 0.907183 -0.745388
v 1.291050 0.907183 0.000000
v 1.721400 0.907183 -0.745388
v 1.532050 0.553783 -0.745388
v 1.523440 2.149780 -0.745388
v 1.192070 2.149780 -0.171439
v 1.291050 0.907183 -1.490780
v 1.192070 2.149780 -1.319340
v 0.430350 0.907183 -1.490780
v 0.197961 2.149780 -0.745388
v 0.529331 2.149780 -1.319340
v 0.860700 2.622880 -0.745388
v 0.529331 2.149780 -0.171439
v 0.860700 2.149780 -0.745388
vt 0.588471 -0.104688
vt 0.902305 -0.104688
vt 0.845031 0.452049
vt 0.645746 0.452049
vt -0.703783 0.588471
vt -0.703783 0.902305
vt -1.017620 0.902305
vt -1.017620 0.588471
vt -0.588471 0.072402
vt -0.645746 0.629140
vt -0.845031 0.629140
vt -0.902305 0.072402
vt 1.017620 0.060539
vt 0.960343 0.617277
vt 0.761057 0.617277
vt 0.703783 0.060539
vt -1.017620 -0.092825
vt -0.703783 -0.092825
vt -0.761057 0.463912
vt -0.960343 0.463912
vt 0.960343 0.645746
vt 0.960343 0.845031
vt 0.761057 0.845031
vt 0.761057 0.645746
vt -0.761057 0.645746
vt -0.525027 0.163985
vt -0.761057 0.845031
vt -0.645525 0.666034
vt -0.550848 0.276441
vt 0.120498 0.276441
vt 0.215175 0.666034
vt -0.960343 0.845031
vt -1.196370 1.326790
vt -0.960343 0.645746
vt -1.196370 0.163985
vt -0.525027 1.326790
vt -0.189354 0.745388
vt 1.291050 0.822906
vt 0.430350 0.822906
vt 0.525027 0.433313
vt 1.196370 0.433313
vt 1.506230 1.293520
vt 0.645525 1.293520
vt 0.740202 0.903930
vt 1.411550 0.903930
vt 0.645525 0.745858
vt 1.506230 0.745858
vt 1.407240 2.000230
vt 0.744506 2.000230
vt -0.116195 1.898350
vt -0.215175 0.643984
vt 0.645525 0.643984
vt 0.546545 1.898350
vt 0.645525 1.607270
vt -0.215175 1.607270
vt -0.120498 1.217670
vt 0.550848 1.217670
vt -1.291050 1.450400
vt -1.196370 1.060800
vt -0.525027 1.060800
vt -0.430350 1.450400
vt -1.532050 0.745388
vt -1.506230 0.979779
vt -1.411550 0.590186
vt -0.740202 0.590186
vt -0.645525 0.979779
vt -0.744506 2.102100
vt -1.407240 2.102100
vt -1.506230 0.847733
vt -0.645525 0.847733
vt 0.860700 0.745388
vt 1.192070 1.319340
vt 0.529331 1.319340
vt 0.197961 0.745388
vt 0.116195 1.787260
vt -0.215175 2.531060
vt -0.546545 1.787260
vt 1.075880 2.622880
vt 0.413136 2.149780
vt 1.075880 2.149780
vt -0.860700 1.093130
vt -1.192070 0.349328
vt -1.407240 1.212090
vt -0.744506 1.212090
vt 0.546545 0.061742
vt 0.215175 0.805543
vt -0.116195 0.061742
vt 1.738610 2.149780
vt 0.529331 0.171439
vt 0.430350 0.898671
vt 1.291050 0.898671
vt 1.192070 2.153040
vt 0.529331 2.153040
vt 1.192070 0.171439
vt 1.523440 0.745388
vt 0.116195 2.203980
vt -0.546545 2.203980
vt -0.645525 0.949608
vt 0.215175 0.949608
vt -0.430350 0.694921
vt -0.529331 1.949290
vt -1.192070 1.949290
vt -1.291050 0.694921
vt 1.407240 0.636915
vt 0.860700 2.243480
vt 0.529331 1.499670
vt 0.744506 0.636915
vn 0.994700 0.102900 0.000000
vn 0.000000 -1.000000 -0.000000
vn -0.994700 0.102900 0.000000
vn 0.000000 0.102900 0.994700
vn 0.000000 0.102900 -0.994700
vn 0.000000 1.000000 0.000000
vn -0.785600 -0.420900 0.453600
vn 0.000000 -0.420900 0.907100
vn 0.785600 -0.420900 0.453600
vn 0.857900 0.136700 0.495300
vn 0.857900 0.136700 -0.495300
vn 0.785600 -0.420900 -0.453600
vn 0.000000 -0.420900 -0.907100
vn -0.785600 -0.420900 -0.453500
vn -0.857900 0.136700 -0.495300
vn -0.550800 0.771600 0.318000
vn 0.866000 0.000000 0.500000
vn -0.290500 0.813900 -0.503200
vn 0.550800 0.771600 -0.318000
vn 0.000000 0.136700 0.990600
vn -0.857900 0.136700 0.495300
vn 0.000000 0.136700 -0.990600
vn 0.290500 0.813900 0.503200
usemtl Alternate_Dirt.001
s 1
f 1/1/1 5/2/1 6/3/1 2/4/1
f 4/5/2 7/6/2 5/7/2 1/8/2
f 4/9/3 3/10/3 8/11/3 7/12/3
f 1/13/4 2/14/4 3/15/4 4/16/4
f 5/17/5 7/18/5 8/19/5 6/20/5
usemtl Grass.011
f 2/21/6 6/22/6 8/23/6 3/24/6
f 3/25/2 9/26/2 8/27/2
f 15/28/7 13/29/7 9/30/7 14/31/7
f 6/32/2 11/33/2 2/34/2
f 3/25/2 2/34/2 10/35/2 9/26/2
f 9/26/2 12/36/2 8/27/2
f 12/36/2 9/26/2 13/37/2
f 16/38/8 14/39/8 9/40/8 10/41/8
f 17/42/9 16/43/9 10/44/9 18/45/9
f 16/46/10 17/47/10 19/48/10 20/49/10
f 19/50/11 17/51/11 21/52/11 22/53/11
f 21/54/12 17/55/12 18/56/12 11/57/12
f 21/58/13 11/59/13 12/60/13 23/61/13
f 10/35/2 11/33/2 18/62/2
f 10/35/2 2/34/2 11/33/2
f 23/63/14 12/64/14 13/65/14 15/66/14
f 24/67/15 25/68/15 23/69/15 15/70/15
f 28/71/6 22/72/6 25/73/6 24/74/6
f 8/27/2 12/36/2 11/33/2 6/32/2
f 27/75/16 26/76/16 24/77/16
f 26/78/17 27/79/17 28/80/17
f 26/81/18 22/82/18 25/83/18 24/84/18
f 22/85/19 26/86/19 19/87/19
f 22/88/17 26/78/17 28/80/17
f 24/74/6 27/89/6 28/71/6
f 14/90/20 16/91/20 20/92/20 27/93/20
f 28/71/6 27/89/6 20/94/6 19/95/6
f 27/96/21 24/97/21 15/98/21 14/99/21
f 23/100/22 25/101/22 22/102/22 21/103/22
f 19/95/6 22/72/6 28/71/6
f 19/104/23 26/105/23 27/106/23 20/107/23
