# Blender v2.75 (sub 0) OBJ File: ''
# www.blender.org
mtllib roadTile_127.mtl
o Mesh1_Group1_Model.162
v 1.097070 0.315000 -3.000000
v 1.097070 0.600000 -3.000000
v 2.839190 0.600000 -3.000000
v 2.839190 0.315000 -3.000000
v 3.000000 0.000000 -3.000000
v 0.747630 0.000000 -3.000000
v 0.747630 0.630000 -3.000000
v 1.097070 0.630000 -3.000000
v 2.839190 0.630000 -3.000000
v 3.000000 0.630000 -3.000000
v 3.000000 0.000000 0.000000
v 0.747630 0.000000 -0.000000
v 0.592300 0.000000 -0.375000
v 0.000000 0.000000 -0.375000
v 0.000000 0.000000 -2.625000
v 0.592300 0.000000 -2.625000
v 3.000000 0.000000 -2.598840
v 2.876200 0.000000 -2.437500
v 2.688890 0.000000 -1.985290
v 2.625000 0.000000 -1.500000
v 2.688890 0.000000 -1.014710
v 2.876200 0.000000 -0.562500
v 3.000000 0.000000 -0.401164
v 0.747630 0.630000 0.000000
v 3.000000 0.630000 0.000000
v 2.839190 0.630000 0.000000
v 2.839190 0.600000 0.000000
v 2.839190 0.315000 0.000000
v 1.097070 0.315000 0.000000
v 1.097070 0.600000 0.000000
v 1.097070 0.630000 0.000000
v 0.592300 0.630000 -0.375000
v 0.877778 0.630000 -0.529429
v 0.848739 0.630000 -0.750000
v 0.000000 0.630000 -0.750000
v 0.000000 0.630000 -0.375000
v 0.877778 0.600000 -0.529429
v 0.848739 0.600000 -0.750000
v 0.877778 0.600000 -2.470570
v 0.848739 0.600000 -2.250000
v 0.000000 0.600000 -2.250000
v 0.000000 0.600000 -0.750000
v 2.551440 0.600000 -0.375000
v 2.326670 0.600000 -0.917657
v 2.250000 0.600000 -1.500000
v 2.326670 0.600000 -2.082340
v 2.551440 0.600000 -2.625000
v 0.848739 0.630000 -2.250000
v 0.877778 0.630000 -2.470570
v 0.000000 0.630000 -2.250000
v 0.592300 0.630000 -2.625000
v 0.000000 0.630000 -2.625000
v 0.000000 0.275000 -0.750000
v 0.000000 0.275000 -2.250000
v 2.551440 0.630000 -0.375000
v 3.000000 0.630000 -0.401164
v 2.876200 0.630000 -0.562500
v 2.688890 0.630000 -1.014710
v 2.625000 0.630000 -1.500000
v 2.688890 0.630000 -1.985290
v 2.876200 0.630000 -2.437500
v 3.000000 0.630000 -2.598840
v 2.551440 0.630000 -2.625000
v 2.326670 0.630000 -2.082340
v 2.250000 0.630000 -1.500000
v 2.326670 0.630000 -0.917657
vt -0.592300 2.625000
vt -0.747630 3.000000
vt -2.876200 2.437500
vt -2.688890 1.985290
vt -3.000000 0.000000
vt -0.747630 0.000000
vt -1.097070 0.315000
vt 1.097070 0.315000
vt 3.000000 0.000000
vt 2.839190 0.315000
vt 0.592300 0.375000
vt 0.747630 0.000000
vt 1.097070 0.000000
vt 0.877778 0.529429
vt 0.848739 0.750000
vt 0.000000 0.600000
vt 0.848739 0.600000
vt 0.848739 0.630000
vt 0.000000 0.630000
vt 0.747630 3.000000
vt 0.592300 2.625000
vt 0.877778 2.470570
vt 1.097070 3.000000
vt -0.592300 0.000000
vt -0.000000 0.000000
vt -0.592300 0.630000
vt -2.250000 0.275000
vt -2.250000 0.600000
vt -2.625000 0.630000
vt -2.625000 0.000000
vt -0.750000 0.275000
vt 0.592300 0.000000
vt 0.592300 0.630000
vt -0.848739 0.630000
vt -0.848739 0.600000
vt 3.191470 0.630000
vt 2.618420 0.630000
vt 2.618420 0.600000
vt 3.191470 0.600000
vt 0.153217 0.630000
vt -0.419832 0.630000
vt -0.419832 0.600000
vt 0.153217 0.600000
vt 1.728390 0.630000
vt 1.255710 0.630000
vt 1.255710 0.600000
vt 1.728390 0.600000
vt 2.551440 0.375000
vt 2.839190 0.000000
vt 3.000000 0.401164
vt -1.304660 0.630000
vt -1.508020 0.630000
vt -1.508020 0.000000
vt -1.304660 0.000000
vt -0.091519 0.630000
vt -0.580993 0.630000
vt -0.580993 0.000000
vt -0.091519 0.000000
vt 1.144540 0.630000
vt 0.655063 0.630000
vt 0.655063 0.000000
vt 1.144540 0.000000
vt 2.319270 0.630000
vt 1.829800 0.630000
vt 1.829800 0.000000
vt 2.319270 0.000000
vt 3.352630 0.630000
vt 2.863160 0.630000
vt 2.863160 0.000000
vt 3.352630 0.000000
vt 3.888080 0.630000
vt 3.684720 0.630000
vt 3.684720 0.000000
vt 3.888080 0.000000
vt 2.598840 0.000000
vt 3.000000 0.630000
vt 2.598840 0.630000
vt -3.635770 0.630000
vt -4.108450 0.630000
vt -4.108450 0.600000
vt -3.635770 0.600000
vt -2.814210 0.630000
vt -3.401580 0.630000
vt -3.401580 0.600000
vt -2.814210 0.600000
vt -1.780850 0.630000
vt -2.368220 0.630000
vt -2.368220 0.600000
vt -1.780850 0.600000
vt -0.606115 0.630000
vt -1.193480 0.630000
vt -1.193480 0.600000
vt -0.606115 0.600000
vt 0.629940 0.630000
vt 0.042572 0.630000
vt 0.042572 0.600000
vt 0.629940 0.600000
vt -2.839190 0.315000
vt -3.000000 0.630000
vt -2.839190 0.600000
vt -2.839190 0.630000
vt -0.747630 0.630000
vt -1.097070 0.630000
vt -1.097070 0.600000
vt -2.876200 0.562500
vt -3.000000 0.401164
vt -3.000000 3.000000
vt -3.000000 2.598840
vt -0.592300 0.375000
vt -2.688890 1.014710
vt -2.625000 1.500000
vt 0.000000 0.375000
vt -0.000000 2.625000
vt 0.286106 0.630000
vt -0.119791 0.630000
vt -0.119791 0.000000
vt 0.286106 0.000000
vt 1.097070 0.600000
vt 1.097070 0.630000
vt 0.747630 0.630000
vt 2.839190 0.630000
vt 2.839190 0.600000
vt 0.000000 0.750000
vt 0.410326 0.600000
vt 0.632801 0.600000
vt 0.632801 0.630000
vt 0.410326 0.630000
vt 2.341530 0.630000
vt 2.341530 0.600000
vt 2.564010 0.600000
vt 2.564010 0.630000
vt 0.000000 2.250000
vt 0.848739 2.250000
vt -2.651850 0.000000
vt -2.651850 0.630000
vt -3.057740 0.630000
vt -3.057740 0.000000
vt -0.375000 0.630000
vt -0.750000 0.630000
vt -0.750000 0.600000
vt -0.375000 0.000000
vt -2.250000 0.630000
vt 2.876200 0.562500
vt 2.688890 1.014710
vt 2.326670 0.917657
vt 2.625000 1.500000
vt 2.688890 1.985290
vt 2.326670 2.082340
vt 2.250000 1.500000
vt 3.000000 2.598840
vt 3.000000 3.000000
vt 2.839190 3.000000
vt 2.551440 2.625000
vt 2.876200 2.437500
vt 0.401164 0.630000
vt 0.401164 0.000000
vn -0.000000 -1.000000 -0.000000
vn 0.000000 0.000000 -1.000000
vn -0.000000 -0.000000 1.000000
vn 0.000000 1.000000 0.000000
vn -1.000000 0.000000 -0.000000
vn 0.923900 0.000000 0.382700
vn 0.965900 0.000000 0.258800
vn 0.965900 0.000000 -0.258800
vn 0.923900 0.000000 -0.382700
vn -0.793400 0.000000 0.608800
vn -0.866000 0.000000 0.500000
vn 0.866000 0.000000 -0.500000
vn 0.793300 0.000000 -0.608800
vn 1.000000 0.000000 -0.000000
vn 0.866000 0.000000 0.500000
vn 0.793400 0.000000 0.608800
vn -0.866000 0.000000 -0.500000
vn -0.793400 0.000000 -0.608800
vn -0.965900 0.000000 -0.258800
vn -0.965900 0.000000 0.258800
vn -0.923900 0.000000 0.382700
vn 0.991400 0.000000 -0.130500
vn 0.991400 0.000000 0.130500
vn -0.923900 0.000000 -0.382700
usemtl Stone
s 1
f 16/1/1 6/2/1 18/3/1 19/4/1
f 5/5/2 6/6/2 1/7/2
f 29/8/3 11/9/3 28/10/3
f 32/11/4 24/12/4 31/13/4 33/14/4
f 33/14/4 34/15/4 32/11/4
f 41/16/3 40/17/3 48/18/3 50/19/3
f 7/20/4 51/21/4 49/22/4 8/23/4
f 16/24/2 15/25/2 52/19/2 51/26/2
f 54/27/5 41/28/5 52/29/5 15/30/5
f 53/31/5 54/27/5 15/30/5
f 14/25/3 13/32/3 32/33/3 36/19/3
f 35/19/2 34/34/2 38/35/2 42/16/2
f 8/36/6 49/37/7 39/38/7 2/39/6
f 33/40/8 31/41/9 30/42/9 37/43/8
f 26/44/10 55/45/11 43/46/11 27/47/10
f 55/48/4 26/49/4 25/9/4 56/50/4
f 57/51/12 56/52/13 23/53/13 22/54/12
f 58/55/8 57/56/12 22/57/12 21/58/8
f 59/59/14 58/60/8 21/61/8 20/62/14
f 60/63/7 59/64/14 20/65/14 19/66/7
f 61/67/15 60/68/7 19/69/7 18/70/15
f 62/71/16 61/72/15 18/73/15 17/74/16
f 17/75/14 5/9/14 10/76/14 62/77/14
f 63/78/17 9/79/18 3/80/18 47/81/17
f 64/82/19 63/83/17 47/84/17 46/85/19
f 65/86/5 64/87/19 46/88/19 45/89/5
f 66/90/20 65/91/5 45/92/5 44/93/20
f 55/94/11 66/95/20 44/96/20 43/97/11
f 4/98/2 10/99/2 5/5/2
f 10/99/2 3/100/2 9/101/2
f 7/102/2 8/103/2 2/104/2
f 4/98/2 3/100/2 10/99/2
f 7/102/2 2/104/2 1/7/2
f 1/7/2 4/98/2 5/5/2
f 6/6/2 7/102/2 1/7/2
f 22/105/1 23/106/1 11/5/1
f 5/107/1 17/108/1 18/3/1
f 12/6/1 22/105/1 11/5/1
f 13/109/1 21/110/1 22/105/1 12/6/1
f 13/109/1 16/1/1 19/4/1 20/111/1
f 6/2/1 5/107/1 18/3/1
f 13/109/1 14/112/1 15/113/1 16/1/1
f 24/114/21 32/115/21 13/116/21 12/117/21
f 20/111/1 21/110/1 13/109/1
f 30/118/3 31/119/3 24/120/3
f 25/76/3 26/121/3 27/122/3
f 29/8/3 30/118/3 24/120/3
f 25/76/3 27/122/3 28/10/3
f 29/8/3 24/120/3 12/12/3
f 11/9/3 25/76/3 28/10/3
f 11/9/3 29/8/3 12/12/3
f 32/11/4 34/15/4 35/123/4 36/112/4
f 37/124/8 38/125/22 34/126/22 33/127/8
f 48/128/23 40/129/23 39/130/7 49/131/7
f 50/132/4 48/133/4 51/21/4 52/113/4
f 51/21/4 48/133/4 49/22/4
f 16/134/24 51/135/24 7/136/24 6/137/24
f 36/138/5 35/139/5 42/140/5
f 14/141/5 36/138/5 42/140/5 53/31/5
f 41/28/5 50/142/5 52/29/5
f 15/30/5 14/141/5 53/31/5
f 55/48/4 57/143/4 58/144/4 66/145/4
f 59/146/4 60/147/4 64/148/4 65/149/4
f 62/150/4 10/151/4 9/152/4 63/153/4
f 64/148/4 60/147/4 61/154/4 63/153/4
f 55/48/4 56/50/4 57/143/4
f 63/153/4 61/154/4 62/150/4
f 59/146/4 65/149/4 66/145/4 58/144/4
f 56/155/14 25/19/14 11/25/14 23/156/14
usemtl Asphalt
f 46/148/4 47/153/4 2/23/4 39/22/4
f 40/133/4 38/15/4 45/149/4
f 28/10/3 27/122/3 30/118/3 29/8/3
f 37/14/4 30/13/4 43/48/4 44/145/4
f 30/13/4 27/49/4 43/48/4
f 47/153/4 3/152/4 2/23/4
f 38/15/4 37/14/4 44/145/4 45/149/4
f 45/149/4 46/148/4 39/22/4 40/133/4
f 42/123/4 38/15/4 40/133/4 41/132/4
f 54/27/5 53/31/5 42/140/5 41/28/5
f 1/7/2 2/104/2 3/100/2 4/98/2
