# Blender v2.75 (sub 0) OBJ File: ''
# www.blender.org
mtllib roadTile_277.mtl
o Mesh1_Group1_Model.237
v 0.000000 0.630000 -0.562500
v 0.000000 0.630000 0.000000
v 3.000000 0.630000 0.000000
v 3.000000 0.630000 -0.562500
v 0.000000 0.000000 -1.875000
v 0.000000 0.000000 0.000000
v 0.000000 0.600000 -0.562500
v 0.000000 0.300000 -0.562500
v 0.000000 0.300000 -1.312500
v 0.000000 0.600000 -1.312500
v 0.000000 0.630000 -1.312500
v 0.000000 0.630000 -1.875000
v 3.000000 0.000000 -1.875000
v 3.000000 0.000000 0.000000
v 3.000000 0.630000 -1.875000
v 3.000000 0.630000 -1.312500
v 3.000000 0.600000 -1.312500
v 3.000000 0.300000 -1.312500
v 3.000000 0.300000 -0.562500
v 3.000000 0.600000 -0.562500
vt -1.312500 0.300000
vt -1.312500 0.600000
vt -1.875000 0.630000
vt -1.875000 0.000000
vt 0.000000 0.000000
vt -0.562500 0.300000
vt 0.000000 0.630000
vt -3.000000 0.630000
vt -3.000000 0.000000
vt 3.000000 1.312500
vt 3.000000 1.875000
vt 0.000000 1.875000
vt 0.000000 1.312500
vt 0.562500 0.300000
vt 0.562500 0.600000
vt 1.875000 0.000000
vt 1.312500 0.300000
vt -3.000000 0.600000
vt 0.000000 0.600000
vt 3.000000 0.630000
vt 3.000000 0.000000
vt -0.562500 0.600000
vt -1.312500 0.630000
vt -3.000000 1.875000
vt -0.562500 0.630000
vt 1.875000 0.630000
vt 1.312500 0.600000
vt 0.562500 0.630000
vt 3.000000 0.600000
vt 1.312500 0.630000
vt -0.000000 0.562500
vt 3.000000 0.562500
vn -1.000000 0.000000 0.000000
vn 0.000000 0.000000 -1.000000
vn 0.000000 1.000000 0.000000
vn 1.000000 0.000000 0.000000
vn -0.000000 -0.000000 1.000000
vn 0.000000 -1.000000 -0.000000
usemtl Stone.205
s 1
f 9/1/1 10/2/1 12/3/1 5/4/1
f 5/4/1 6/5/1 8/6/1
f 12/7/2 15/8/2 13/9/2 5/5/2
f 16/10/3 15/11/3 12/12/3 11/13/3
f 19/14/4 20/15/4 3/7/4 14/5/4
f 14/5/4 13/16/4 18/17/4
f 20/18/2 7/19/2 1/7/2 4/8/2
f 3/20/5 2/7/5 6/5/5 14/21/5
f 6/5/1 2/7/1 7/22/1 8/6/1
f 12/3/1 10/2/1 11/23/1
f 6/5/6 5/12/6 13/24/6 14/9/6
f 2/7/1 1/25/1 7/22/1
f 8/6/1 9/1/1 5/4/1
f 13/16/4 15/26/4 17/27/4 18/17/4
f 3/7/4 20/15/4 4/28/4
f 10/19/5 17/29/5 16/20/5 11/7/5
f 15/26/4 16/30/4 17/27/4
f 18/17/4 19/14/4 14/5/4
f 1/31/3 2/5/3 3/21/3 4/32/3
usemtl Asphalt.172
f 7/31/3 20/32/3 17/10/3 10/13/3
f 20/15/4 19/14/4 18/17/4 17/27/4
f 10/2/1 9/1/1 8/6/1 7/22/1
