# Blender v2.75 (sub 0) OBJ File: ''
# www.blender.org
mtllib roadTile_221.mtl
o Mesh1_Group1_Model.195
v 0.000000 0.000000 -3.000000
v 0.000000 1.650000 -3.000000
v 3.000000 1.650000 -3.000000
v 3.000000 0.000000 -3.000000
v 0.000000 0.300000 -2.250000
v 0.000000 0.300000 -0.750000
v 0.000000 0.000000 -0.000000
v 0.000000 1.275000 -0.750000
v 0.000000 1.650000 0.000000
v 3.000000 1.650000 0.000000
v 3.000000 1.275000 -0.750000
v 3.000000 0.000000 -0.000000
v 3.000000 0.300000 -0.750000
v 3.000000 0.300000 -2.250000
v 3.000000 0.600000 -2.250000
v 3.000000 1.275000 -2.250000
v 0.000000 1.275000 -2.250000
v 3.000000 0.600000 -0.750000
v 0.000000 0.600000 -0.750000
v 0.000000 0.600000 -2.250000
vt 3.000000 0.000000
vt 3.000000 3.000000
vt -0.000000 3.000000
vt 0.000000 0.000000
vt -3.000000 0.000000
vt -2.250000 0.300000
vt -3.000000 1.650000
vt -0.750000 0.300000
vt 0.750000 0.600000
vt 0.750000 1.275000
vt 0.000000 1.650000
vt -0.750000 1.275000
vt 3.000000 1.650000
vt -3.000000 3.000000
vt -3.000000 2.250000
vt -3.000000 0.750000
vt -0.000000 0.750000
vt -0.000000 2.250000
vt 0.750000 0.300000
vt 2.250000 0.300000
vt 2.250000 0.600000
vt 2.250000 1.275000
vt -3.000000 1.275000
vt -3.000000 0.600000
vt -0.000000 0.600000
vt -0.000000 1.275000
vt 3.000000 0.600000
vt 3.000000 1.275000
vt -2.250000 1.275000
vt -2.250000 0.600000
vt -0.750000 0.600000
vt 3.000000 0.750000
vt 3.000000 2.250000
vn 0.000000 1.000000 0.000000
vn -1.000000 -0.000000 0.000000
vn -1.000000 0.000000 0.000100
vn 1.000000 0.000000 0.000000
vn 0.000000 -0.000000 1.000000
vn 0.000000 0.000000 -1.000000
vn 0.000000 -1.000000 -0.000000
usemtl Stone
s 1
f 10/1/1 3/2/1 2/3/1 9/4/1
f 1/5/2 5/6/2 2/7/2
f 1/5/2 6/8/3 5/6/2
f 7/4/2 6/8/3 1/5/2
f 12/4/4 18/9/4 11/10/4 10/11/4
f 8/12/3 9/11/2 2/7/2
f 9/11/5 7/4/5 12/1/5 10/13/5
f 10/11/4 11/10/4 3/13/4
f 1/4/6 2/11/6 3/7/6 4/5/6
f 7/4/7 1/3/7 4/14/7 12/5/7
f 16/15/7 11/16/7 8/17/7 17/18/7
f 4/1/4 13/19/4 12/4/4
f 13/19/4 4/1/4 14/20/4
f 14/20/4 4/1/4 15/21/4
f 9/11/2 8/12/3 6/8/3 7/4/2
f 3/13/4 11/10/4 16/22/4
f 11/23/6 18/24/6 19/25/6 8/26/6
f 18/9/4 12/4/4 13/19/4
f 15/27/5 16/28/5 17/26/5 20/25/5
f 17/29/2 2/7/2 20/30/2
f 8/12/3 2/7/2 17/29/2
f 20/30/2 2/7/2 5/6/2
f 6/8/3 8/12/3 19/31/2
f 3/13/4 16/22/4 15/21/4 4/1/4
usemtl Asphalt
f 15/21/4 18/9/4 13/19/4 14/20/4
f 18/32/1 15/33/1 20/18/1 19/17/1
f 19/31/2 20/30/2 5/6/2 6/8/3
