# Blender v2.75 (sub 0) OBJ File: ''
# www.blender.org
mtllib roadTile_066.mtl
o Mesh1_Group1_Model.075
v 0.877778 0.630000 -2.470570
v 0.848739 0.630000 -2.250000
v 0.848739 0.600000 -2.250000
v 0.877778 0.600000 -2.470570
v 1.097070 0.630000 -3.000000
v 0.000000 0.630000 -3.000000
v 0.000000 0.630000 -2.250000
v 1.097070 0.600000 -3.000000
v 0.877778 0.600000 -0.529429
v 1.097070 0.600000 0.000000
v 2.839190 0.600000 0.000000
v 2.551440 0.600000 -0.375000
v 2.326670 0.600000 -0.917657
v 2.250000 0.600000 -1.500000
v 2.326670 0.600000 -2.082340
v 2.551440 0.600000 -2.625000
v 2.839190 0.600000 -3.000000
v 0.000000 0.600000 -2.250000
v 0.000000 0.600000 -0.750000
v 0.848739 0.600000 -0.750000
v 0.877778 0.630000 -0.529429
v 1.097070 0.630000 0.000000
v 0.000000 0.630000 -0.750000
v 0.000000 0.630000 0.000000
v 0.848739 0.630000 -0.750000
v 0.000000 0.315000 -0.750000
v 0.000000 0.315000 -2.250000
v 0.000000 0.000000 -3.000000
v 0.000000 0.000000 0.000000
v 1.097070 0.315000 -3.000000
v 2.839190 0.315000 -3.000000
v 2.839190 0.630000 -3.000000
v 3.000000 0.630000 -3.000000
v 3.000000 0.000000 -3.000000
v 2.551440 0.630000 -2.625000
v 2.839190 0.630000 0.000000
v 3.000000 0.630000 0.000000
v 2.326670 0.630000 -2.082340
v 2.250000 0.630000 -1.500000
v 2.326670 0.630000 -0.917657
v 2.551440 0.630000 -0.375000
v 2.839190 0.315000 0.000000
v 1.097070 0.315000 0.000000
v 3.000000 0.000000 -0.000000
vt 0.877778 2.470570
vt 0.000000 3.000000
vt 0.000000 2.250000
vt 0.848739 2.250000
vt 1.097070 3.000000
vt 0.000000 0.750000
vt 0.000000 0.000000
vt 0.877778 0.529429
vt 0.848739 0.750000
vt -0.750000 0.315000
vt -2.250000 0.315000
vt 0.632801 0.630000
vt 0.410326 0.630000
vt 0.410326 0.600000
vt 0.632801 0.600000
vt 0.848739 0.630000
vt 0.000000 0.630000
vt 0.000000 0.600000
vt 0.848739 0.600000
vt -1.097070 0.600000
vt -1.097070 0.315000
vt -2.839190 0.315000
vt -3.000000 0.000000
vt -3.635770 0.630000
vt -4.108450 0.630000
vt -4.108450 0.600000
vt -3.635770 0.600000
vt 1.097070 0.315000
vt 1.097070 0.600000
vt 3.000000 0.000000
vt 3.000000 3.000000
vt 2.250000 1.500000
vt 2.839190 0.315000
vt 0.629940 0.630000
vt 0.042572 0.630000
vt 0.042572 0.600000
vt 0.629940 0.600000
vt -0.606115 0.630000
vt -1.193480 0.630000
vt -1.193480 0.600000
vt -0.606115 0.600000
vt -1.780850 0.630000
vt -2.368220 0.630000
vt -2.368220 0.600000
vt -1.780850 0.600000
vt -2.814210 0.630000
vt -3.401580 0.630000
vt -3.401580 0.600000
vt -2.814210 0.600000
vt -3.000000 3.000000
vt 3.000000 0.630000
vt 3.191470 0.630000
vt 2.618420 0.630000
vt 2.618420 0.600000
vt 3.191470 0.600000
vt 0.153217 0.630000
vt -0.419832 0.630000
vt -0.419832 0.600000
vt 0.153217 0.600000
vt -2.250000 0.600000
vt -3.000000 0.630000
vt 1.097070 0.000000
vt -0.750000 0.600000
vt -0.750000 0.630000
vt -2.250000 0.630000
vt -0.848739 0.630000
vt -0.848739 0.600000
vt -1.097070 0.630000
vt -2.839190 0.600000
vt -2.839190 0.630000
vt 2.551440 0.375000
vt 2.839190 0.000000
vt 2.326670 0.917657
vt 2.551440 2.625000
vt 2.326670 2.082340
vt 2.839190 3.000000
vt 1.728390 0.630000
vt 1.255710 0.630000
vt 1.255710 0.600000
vt 1.728390 0.600000
vt 2.839190 0.600000
vt 2.839190 0.630000
vt 1.097070 0.630000
vt 2.564010 0.630000
vt 2.341530 0.630000
vt 2.341530 0.600000
vt 2.564010 0.600000
vn 0.000000 1.000000 0.000000
vn -1.000000 0.000000 -0.000000
vn 0.991400 0.000000 -0.130500
vn 0.965900 0.000000 -0.258800
vn 0.000000 0.000000 1.000000
vn -0.000000 0.000000 -1.000000
vn -0.866000 0.000000 -0.500000
vn -0.793400 0.000000 -0.608800
vn -0.866000 0.000000 0.500000
vn -0.965900 0.000000 0.258800
vn -0.965900 0.000000 -0.258800
vn 0.000000 -1.000000 -0.000000
vn 1.000000 0.000000 0.000000
vn 0.923900 0.000000 0.382700
vn 0.965900 0.000000 0.258800
vn 0.923900 0.000000 -0.382700
vn -0.793400 0.000000 0.608800
vn 0.991400 0.000000 0.130500
usemtl Stone
s 1
f 1/1/1 6/2/1 7/3/1 2/4/1
f 1/1/1 5/5/1 6/2/1
f 23/6/1 24/7/1 21/8/1 25/9/1
f 26/10/2 27/11/2 29/7/2
f 25/12/3 21/13/4 9/14/4 20/15/3
f 2/16/5 7/17/5 18/18/5 3/19/5
f 28/7/6 6/17/6 8/20/6 30/21/6
f 30/21/6 31/22/6 34/23/6
f 35/24/7 32/25/8 17/26/8 16/27/7
f 43/28/5 10/29/5 24/17/5 29/7/5
f 37/30/1 33/31/1 39/32/1
f 42/33/5 43/28/5 44/30/5
f 41/34/9 40/35/10 13/36/10 12/37/9
f 40/38/10 39/39/2 14/40/2 13/41/10
f 39/42/2 38/43/11 15/44/11 14/45/2
f 38/46/11 35/47/7 16/48/7 15/49/11
f 28/2/12 34/50/12 44/23/12 29/7/12
f 33/51/13 37/17/13 44/7/13 34/30/13
f 5/52/14 1/53/15 4/54/15 8/55/14
f 21/56/4 22/57/16 10/58/16 9/59/4
f 27/11/2 18/60/2 6/61/2 28/23/2
f 24/7/1 22/62/1 21/8/1
f 29/7/2 24/17/2 19/63/2 26/10/2
f 19/63/2 24/17/2 23/64/2
f 18/60/2 7/65/2 6/61/2
f 23/17/6 25/66/6 20/67/6 19/18/6
f 27/11/2 28/23/2 29/7/2
f 31/22/6 33/61/6 34/23/6
f 8/20/6 6/17/6 5/68/6
f 17/69/6 32/70/6 33/61/6
f 31/22/6 17/69/6 33/61/6
f 30/21/6 34/23/6 28/7/6
f 37/30/1 41/71/1 36/72/1
f 37/30/1 39/32/1 40/73/1
f 33/31/1 35/74/1 38/75/1
f 35/74/1 33/31/1 32/76/1
f 40/73/1 41/71/1 37/30/1
f 33/31/1 38/75/1 39/32/1
f 36/77/17 41/78/9 12/79/9 11/80/17
f 11/81/5 37/51/5 36/82/5
f 10/29/5 22/83/5 24/17/5
f 42/33/5 37/51/5 11/81/5
f 44/30/5 37/51/5 42/33/5
f 43/28/5 29/7/5 44/30/5
f 1/84/15 2/85/18 3/86/18 4/87/15
usemtl Asphalt
f 3/4/1 18/3/1 19/6/1 20/9/1
f 14/32/1 3/4/1 20/9/1
f 26/10/2 19/63/2 18/60/2 27/11/2
f 42/33/5 11/81/5 10/29/5 43/28/5
f 10/62/1 12/71/1 13/73/1 9/8/1
f 4/1/1 15/75/1 16/74/1 8/5/1
f 10/62/1 11/72/1 12/71/1
f 16/74/1 17/76/1 8/5/1
f 20/9/1 9/8/1 13/73/1 14/32/1
f 14/32/1 15/75/1 4/1/1 3/4/1
f 30/21/6 8/20/6 17/69/6 31/22/6
