# Blender v2.75 (sub 0) OBJ File: ''
# www.blender.org
mtllib roadTile_080.mtl
o Mesh1_Group1_Model.041
v 0.000000 0.600000 -0.750000
v 0.375000 0.600000 -0.750000
v 0.750000 0.600000 -0.187500
v 2.250000 0.600000 -0.187500
v 2.625000 0.600000 -0.750000
v 3.000000 0.600000 -0.750000
v 3.000000 0.600000 -2.250000
v 2.625000 0.600000 -2.250000
v 2.250000 0.600000 -2.812500
v 0.750000 0.600000 -2.812500
v 0.375000 0.600000 -2.250000
v 0.000000 0.600000 -2.250000
v 0.375000 0.630000 -0.750000
v 0.000000 0.630000 -0.750000
v 0.750000 0.630000 -0.187500
v 3.000000 0.630000 -0.750000
v 2.625000 0.630000 -0.750000
v 2.250000 0.630000 -0.187500
v 0.000000 0.630000 0.000000
v 3.000000 0.630000 -0.000000
v 3.000000 0.300000 -2.250000
v 3.000000 0.300000 -0.750000
v 3.000000 0.000000 -0.000000
v 3.000000 0.000000 -3.000000
v 3.000000 0.630000 -3.000000
v 3.000000 0.630000 -2.250000
v 0.000000 0.000000 0.000000
v 0.000000 0.000000 -3.000000
v 0.000000 0.300000 -0.750000
v 0.000000 0.300000 -2.250000
v 0.000000 0.630000 -2.250000
v 0.000000 0.630000 -3.000000
v 2.250000 0.630000 -2.812500
v 2.625000 0.630000 -2.250000
v 0.375000 0.630000 -2.250000
v 0.750000 0.630000 -2.812500
vt 0.416025 0.630000
vt -0.260016 0.630000
vt -0.260016 0.600000
vt 0.416025 0.600000
vt 0.750000 0.187500
vt 0.375000 0.750000
vt 0.000000 0.750000
vt 0.000000 -0.000000
vt 2.250000 0.187500
vt 3.000000 0.000000
vt -1.404080 0.630000
vt -2.080130 0.630000
vt -2.080130 0.600000
vt -1.404080 0.600000
vt -0.750000 0.630000
vt -2.250000 0.630000
vt -2.250000 0.600000
vt -0.750000 0.600000
vt 0.750000 0.300000
vt 0.750000 0.600000
vt -0.000000 0.630000
vt 2.250000 0.300000
vt 3.000000 0.630000
vt -2.250000 0.300000
vt -3.000000 0.630000
vt -3.000000 -0.000000
vt -0.750000 0.300000
vt 0.000000 3.000000
vt 0.000000 2.250000
vt 0.375000 2.250000
vt 0.750000 2.812500
vt 2.250000 2.812500
vt 3.000000 3.000000
vt 2.250000 0.630000
vt 0.750000 0.630000
vt 2.250000 0.600000
vt 2.756170 0.630000
vt 2.080130 0.630000
vt 2.080130 0.600000
vt 2.756170 0.600000
vt 0.000000 0.600000
vt 0.375000 0.600000
vt 0.375000 0.630000
vt 2.625000 0.630000
vt 2.625000 0.600000
vt 3.000000 0.600000
vt -0.375000 0.630000
vt -0.375000 0.600000
vt 2.625000 0.750000
vt 3.000000 0.750000
vt -3.000000 0.600000
vt -2.625000 0.600000
vt -2.625000 0.630000
vt -3.000000 3.000000
vt 2.625000 2.250000
vt 3.000000 2.250000
vt -0.416025 0.630000
vt -1.092070 0.630000
vt -1.092070 0.600000
vt -0.416025 0.600000
vn 0.832100 0.000000 -0.554700
vn 0.000000 1.000000 0.000000
vn -0.832100 0.000000 -0.554700
vn 0.000000 0.000000 -1.000000
vn 1.000000 0.000000 0.000000
vn 0.000000 -0.000000 1.000000
vn -1.000000 0.000000 0.000000
vn 0.832100 0.000000 0.554700
vn 0.000000 -1.000000 -0.000000
vn -0.832100 0.000000 0.554700
usemtl Stone.036
s 1
f 13/1/1 15/2/1 3/3/1 2/4/1
f 15/5/2 13/6/2 14/7/2 19/8/2
f 18/9/2 15/5/2 20/10/2
f 18/11/3 17/12/3 5/13/3 4/14/3
f 15/15/4 18/16/4 4/17/4 3/18/4
f 22/19/5 6/20/5 20/21/5 23/8/5
f 21/22/5 22/19/5 23/8/5
f 19/21/6 27/8/6 23/10/6 20/23/6
f 30/24/7 12/17/7 32/25/7 28/26/7
f 28/26/7 27/8/7 29/27/7
f 25/25/4 24/26/4 28/8/4 32/21/4
f 32/28/2 31/29/2 35/30/2 36/31/2
f 33/32/2 25/33/2 32/28/2
f 33/34/6 36/35/6 10/20/6 9/36/6
f 36/37/8 35/38/8 11/39/8 10/40/8
f 12/41/6 11/42/6 35/43/6 31/21/6
f 34/44/6 8/45/6 7/46/6 26/23/6
f 13/47/4 2/48/4 1/41/4 14/21/4
f 17/49/2 18/9/2 20/10/2 16/50/2
f 6/51/4 5/52/4 17/53/4 16/25/4
f 15/5/2 19/8/2 20/10/2
f 25/23/5 26/34/5 7/36/5
f 24/10/5 25/23/5 7/36/5 21/22/5
f 6/20/5 16/35/5 20/21/5
f 23/8/5 24/10/5 21/22/5
f 27/8/7 19/21/7 1/18/7 29/27/7
f 32/25/7 12/17/7 31/16/7
f 23/26/9 27/8/9 28/28/9 24/54/9
f 19/21/7 14/15/7 1/18/7
f 29/27/7 30/24/7 28/26/7
f 33/32/2 34/55/2 26/56/2 25/33/2
f 34/57/10 33/58/10 9/59/10 8/60/10
f 32/28/2 36/31/2 33/32/2
usemtl Asphalt.030
f 12/17/7 30/24/7 29/27/7 1/18/7
f 8/55/2 9/32/2 10/31/2 11/30/2
f 5/49/2 6/50/2 7/56/2 8/55/2
f 4/9/2 5/49/2 2/6/2 3/5/2
f 2/6/2 5/49/2 8/55/2 11/30/2
f 6/20/5 22/19/5 21/22/5 7/36/5
f 1/7/2 2/6/2 11/30/2 12/29/2
