# Blender v2.75 (sub 0) OBJ File: ''
# www.blender.org
mtllib roadTile_137.mtl
o Mesh1_Group1_Model.156
v 3.000000 0.600000 -0.750000
v 2.250000 0.600000 -0.750000
v 2.250000 0.630000 -0.750000
v 3.000000 0.630000 -0.750000
v 2.250000 0.600000 -2.250000
v 0.750000 0.600000 -2.250000
v 0.000000 0.600000 -2.250000
v 0.000000 0.600000 -0.750000
v 0.750000 0.600000 -0.750000
v 3.000000 0.600000 -2.250000
v 2.250000 0.630000 -3.000000
v 0.750000 0.630000 -3.000000
v 2.250000 0.630000 -2.250000
v 3.000000 0.630000 -2.250000
v 3.000000 0.630000 -0.375000
v 3.000000 0.000000 -0.375000
v 3.000000 0.000000 -2.625000
v 3.000000 0.630000 -2.625000
v 3.000000 0.300000 -2.250000
v 3.000000 0.300000 -0.750000
v 2.625000 0.630000 -0.375000
v 2.625000 0.000000 -0.375000
v 2.625000 0.630000 0.000000
v 2.250000 0.630000 0.000000
v 2.625000 0.000000 -0.000000
v 0.375000 0.630000 0.000000
v 0.375000 0.000000 -0.000000
v 0.750000 0.630000 0.000000
v 0.375000 0.630000 -0.375000
v 0.375000 0.000000 -0.375000
v 0.000000 0.630000 -0.375000
v 0.750000 0.630000 -0.750000
v 0.000000 0.630000 -0.750000
v 0.000000 0.000000 -0.375000
v 0.000000 0.000000 -2.625000
v 0.000000 0.300000 -0.750000
v 0.000000 0.300000 -2.250000
v 0.000000 0.630000 -2.250000
v 0.000000 0.630000 -2.625000
v 0.375000 0.000000 -2.625000
v 0.375000 0.000000 -3.000000
v 2.625000 0.000000 -3.000000
v 2.625000 0.000000 -2.625000
v 0.375000 0.630000 -2.625000
v 0.375000 0.630000 -3.000000
v 0.750000 0.630000 -2.250000
v 2.625000 0.630000 -3.000000
v 2.625000 0.630000 -2.625000
vt 3.000000 0.600000
vt 3.000000 0.630000
vt 2.250000 0.630000
vt 2.250000 0.600000
vt -3.000000 0.630000
vt -2.250000 0.600000
vt -2.250000 0.630000
vt 2.625000 -0.000000
vt 2.625000 0.630000
vt 2.250000 0.300000
vt 0.375000 -0.000000
vt 0.375000 0.630000
vt 0.000000 0.630000
vt 0.000000 0.000000
vt 2.625000 0.375000
vt 3.000000 0.375000
vt 3.000000 0.750000
vt 0.750000 0.630000
vt 0.375000 0.375000
vt 0.750000 0.000000
vt -2.250000 0.300000
vt -2.625000 0.630000
vt -2.625000 -0.000000
vt -0.375000 -0.000000
vt -0.750000 0.300000
vt -3.000000 -0.000000
vt 0.375000 2.625000
vt 0.000000 2.625000
vt 0.000000 2.250000
vt -0.750000 0.630000
vt 2.625000 2.625000
vt 2.625000 3.000000
vt 2.250000 3.000000
vt 0.000000 0.600000
vt 0.750000 0.600000
vt -0.750000 0.600000
vt -2.250000 0.025180
vt -2.250000 -0.725420
vt -0.750000 -0.725420
vt -0.750000 0.025180
vt 2.250000 2.272180
vt 2.250000 3.022780
vt 0.750000 3.022780
vt 0.750000 2.272180
vt 0.750000 0.300000
vt 3.000000 0.000000
vt 2.250000 0.000000
vt 2.250000 0.750000
vt -0.375000 0.630000
vt 0.000000 0.750000
vt 0.000000 0.375000
vt 0.750000 0.750000
vt -2.625000 2.625000
vt -3.000000 2.625000
vt -3.000000 0.375000
vt -2.625000 0.375000
vt -0.375000 0.375000
vt -0.375000 2.625000
vt -0.375000 3.000000
vt -2.625000 3.000000
vt 0.750000 3.000000
vt 0.375000 3.000000
vt 0.750000 2.250000
vt 3.000000 2.250000
vt 3.000000 2.625000
vt 2.250000 2.250000
vt -3.000000 0.600000
vn 0.000000 0.000000 1.000000
vn -1.000000 0.000000 0.000000
vn 1.000000 0.000000 0.000000
vn 0.000000 1.000000 0.000000
vn 0.000000 0.000000 -1.000000
vn 0.000000 0.999200 -0.040000
vn 0.000000 0.999800 -0.020000
vn 0.000000 0.999800 0.020000
vn 0.000000 0.999200 0.040000
vn -0.000000 -1.000000 -0.000000
usemtl Stone.137
s 1
f 10/1/1 14/2/1 13/3/1 5/4/1
f 11/5/2 5/6/2 13/7/2
f 17/8/3 18/9/3 10/4/3 19/10/3
f 16/11/3 17/8/3 19/10/3
f 21/12/3 23/13/3 25/14/3 22/11/3
f 21/15/4 15/16/4 4/17/4
f 28/18/1 27/11/1 25/8/1 24/3/1
f 29/12/1 31/13/1 34/14/1 30/11/1
f 29/19/4 26/11/4 28/20/4
f 37/21/2 7/6/2 39/22/2 35/23/2
f 35/23/2 34/24/2 36/25/2
f 44/22/2 45/5/2 41/26/2 40/23/2
f 44/27/4 39/28/4 38/29/4
f 11/7/5 42/23/5 41/24/5 12/30/5
f 48/22/5 18/5/5 17/26/5 43/23/5
f 48/31/4 47/32/4 11/33/4
f 7/34/1 6/35/1 46/18/1 38/13/1
f 33/13/5 32/30/5 9/36/5 8/34/5
f 6/4/3 12/2/3 46/3/3
f 24/37/6 2/38/7 9/39/7 28/40/6
f 28/13/3 9/35/3 32/18/3
f 2/36/2 24/13/2 3/30/2
f 5/41/8 11/42/9 12/43/9 6/44/8
f 1/35/3 4/18/3 15/12/3
f 15/12/3 16/11/3 20/45/3 1/35/3
f 15/2/1 21/9/1 22/8/1 16/46/1
f 18/9/3 14/3/3 10/4/3
f 19/10/3 20/45/3 16/11/3
f 21/15/4 24/47/4 23/8/4
f 21/15/4 4/17/4 3/48/4
f 3/48/4 24/47/4 21/15/4
f 27/11/1 28/18/1 26/12/1
f 25/8/1 23/9/1 24/3/1
f 26/13/2 29/49/2 30/24/2 27/14/2
f 29/19/4 33/50/4 31/51/4
f 29/19/4 28/20/4 32/52/4
f 32/52/4 33/50/4 29/19/4
f 34/24/2 31/49/2 8/36/2 36/25/2
f 39/22/2 7/6/2 38/7/2
f 43/53/10 17/54/10 16/55/10 22/56/10
f 31/49/2 33/30/2 8/36/2
f 36/25/2 37/21/2 35/23/2
f 27/24/10 30/57/10 22/56/10 25/23/10
f 35/28/10 40/58/10 30/57/10 34/51/10
f 40/58/10 41/59/10 42/60/10 43/53/10
f 30/57/10 40/58/10 43/53/10 22/56/10
f 39/13/5 44/49/5 40/24/5 35/14/5
f 44/27/4 12/61/4 45/62/4
f 44/27/4 38/29/4 46/63/4
f 46/63/4 12/61/4 44/27/4
f 42/23/5 11/7/5 47/22/5
f 41/24/5 45/49/5 12/30/5
f 47/2/3 48/9/3 43/8/3 42/46/3
f 48/31/4 14/64/4 18/65/4
f 48/31/4 11/33/4 13/66/4
f 13/66/4 14/64/4 48/31/4
f 1/67/5 2/6/5 3/7/5 4/5/5
usemtl Asphalt.117
f 5/66/8 2/48/7 1/17/4 10/64/4
f 7/6/2 37/21/2 36/25/2 8/36/2
f 1/35/3 20/45/3 19/10/3 10/4/3
f 9/52/7 6/63/8 7/29/4 8/50/4
f 5/66/8 6/63/8 9/52/7 2/48/7
