# Blender v2.75 (sub 0) OBJ File: ''
# www.blender.org
mtllib roadTile_273.mtl
o Mesh1_Group1_Model.038
v 1.208830 0.550000 -0.413334
v 1.500000 0.550000 -0.375000
v 1.500000 0.630000 -0.375000
v 1.208830 0.630000 -0.413334
v 1.208830 0.550000 -2.586670
v 1.500000 0.550000 -2.625000
v 3.000000 0.550000 -2.625000
v 3.000000 0.550000 -3.000000
v 0.000000 0.550000 -3.000000
v 0.000000 0.550000 -0.000000
v 3.000000 0.550000 0.000000
v 3.000000 0.550000 -0.375000
v 0.937500 0.550000 -0.525722
v 0.704505 0.550000 -0.704505
v 0.525721 0.550000 -0.937500
v 0.413333 0.550000 -1.208830
v 0.375000 0.550000 -1.500000
v 0.413333 0.550000 -1.791170
v 0.525721 0.550000 -2.062500
v 0.704505 0.550000 -2.295500
v 0.937500 0.550000 -2.474280
v 1.208830 0.630000 -2.586670
v 1.500000 0.630000 -2.625000
v 0.937500 0.630000 -2.474280
v 0.704505 0.630000 -2.295500
v 0.525721 0.630000 -2.062500
v 0.413333 0.630000 -1.791170
v 0.375000 0.630000 -1.500000
v 0.413333 0.630000 -1.208830
v 0.525721 0.630000 -0.937500
v 0.704505 0.630000 -0.704505
v 0.937500 0.630000 -0.525722
v 1.305890 0.630000 -2.224440
v 1.500000 0.630000 -2.250000
v 3.000000 0.630000 -2.250000
v 3.000000 0.630000 -2.625000
v 3.000000 0.630000 -0.375000
v 3.000000 0.630000 -0.750001
v 1.500000 0.630000 -0.750001
v 1.305890 0.630000 -0.775556
v 1.125000 0.630000 -0.850481
v 0.969670 0.630000 -0.969670
v 0.850481 0.630000 -1.125000
v 0.775556 0.630000 -1.305890
v 0.750000 0.630000 -1.500000
v 0.775556 0.630000 -1.694110
v 0.850481 0.630000 -1.875000
v 0.969670 0.630000 -2.030330
v 1.125000 0.630000 -2.149520
v 1.305890 0.455000 -2.224440
v 1.500000 0.455000 -2.250000
v 1.305890 0.455000 -0.775556
v 1.500000 0.455000 -0.750001
v 3.000000 0.455000 -0.750001
v 3.000000 0.455000 -2.250000
v 1.125000 0.455000 -2.149520
v 0.969670 0.455000 -2.030330
v 0.850481 0.455000 -1.875000
v 0.775556 0.455000 -1.694110
v 0.750000 0.455000 -1.500000
v 0.775556 0.455000 -1.305890
v 0.850481 0.455000 -1.125000
v 0.969670 0.455000 -0.969670
v 1.125000 0.455000 -0.850481
v 3.000000 0.000000 -0.375000
v 3.000000 0.000000 -0.750001
v 3.000000 0.000000 0.000000
v 0.000000 0.000000 -0.000000
v 0.000000 0.000000 -3.000000
v 3.000000 0.000000 -3.000000
v 3.000000 0.000000 -2.625000
v 3.000000 0.000000 -2.250000
vt -1.829800 0.550000
vt -1.536110 0.550000
vt -1.536110 0.630000
vt -1.829800 0.630000
vt -2.106690 0.550000
vt -1.813000 0.550000
vt -1.813000 0.630000
vt -2.106690 0.630000
vt -2.250010 0.550000
vt -1.956330 0.550000
vt -1.956330 0.630000
vt -2.250010 0.630000
vt -1.438220 0.550000
vt -1.144540 0.550000
vt -1.144540 0.630000
vt -1.438220 0.630000
vt -0.958636 0.550000
vt -0.664952 0.550000
vt -0.664952 0.630000
vt -0.958636 0.630000
vt -0.423730 0.550000
vt -0.130046 0.550000
vt -0.130046 0.630000
vt -0.423730 0.630000
vt 0.130046 0.550000
vt 0.423730 0.550000
vt 0.423730 0.630000
vt 0.130046 0.630000
vt 0.664952 0.550000
vt 0.958636 0.550000
vt 0.958636 0.630000
vt 0.664952 0.630000
vt 1.500000 0.375000
vt 3.000000 0.375000
vt 3.000000 0.750001
vt 1.500000 0.750001
vt -0.909689 0.455000
vt -0.713899 0.455000
vt -0.713899 0.630000
vt -0.909689 0.630000
vt -0.374782 0.455000
vt -0.178993 0.455000
vt -0.178993 0.630000
vt -0.374782 0.630000
vt 0.178994 0.455000
vt 0.374783 0.455000
vt 0.374783 0.630000
vt 0.178994 0.630000
vt 0.713900 0.455000
vt 0.909689 0.455000
vt 0.909689 0.630000
vt 0.713900 0.630000
vt 1.193480 0.455000
vt 1.389270 0.455000
vt 1.389270 0.630000
vt 1.193480 0.630000
vt 1.585060 0.455000
vt 1.780850 0.455000
vt 1.780850 0.630000
vt 1.585060 0.630000
vt 1.861950 0.455000
vt 2.057740 0.455000
vt 2.057740 0.630000
vt 1.861950 0.630000
vt 2.005280 0.455000
vt 2.201070 0.455000
vt 2.201070 0.630000
vt 2.005280 0.630000
vt -3.000000 0.455000
vt -1.500000 0.455000
vt -1.500000 0.630000
vt -3.000000 0.630000
vt 0.375000 0.550000
vt 0.750001 0.455000
vt 0.750001 0.630000
vt 0.375000 0.630000
vt 2.625000 0.000000
vt 2.625000 0.550000
vt 2.250000 0.455000
vt 2.250000 0.000000
vt 1.500000 0.455000
vt 3.000000 0.455000
vt 3.000000 0.630000
vt 1.500000 0.630000
vt 1.500000 2.625000
vt 1.500000 2.250000
vt 3.000000 2.250000
vt 3.000000 2.625000
vt 1.208830 0.413334
vt 1.305890 0.775556
vt 1.208830 2.586670
vt 1.305890 2.224440
vt 0.937500 0.525722
vt 1.125000 0.850481
vt 0.704505 0.704505
vt 0.969670 0.969670
vt 0.937500 2.474280
vt 1.125000 2.149520
vt 0.850481 1.125000
vt 0.525721 0.937500
vt 0.704505 2.295500
vt 0.969670 2.030330
vt 0.413333 1.208830
vt 0.775556 1.305890
vt 0.525721 2.062500
vt 0.850481 1.875000
vt 0.750000 1.500000
vt 0.375000 1.500000
vt 0.775556 1.694110
vt 0.413333 1.791170
vt -1.389270 0.455000
vt -1.193480 0.455000
vt -1.193480 0.630000
vt -1.389270 0.630000
vt 0.375000 -0.000000
vt 0.750001 -0.000000
vt 1.500000 0.550000
vt 3.000000 0.550000
vt 2.625000 0.630000
vt 2.250000 0.630000
vt -3.000000 0.550000
vt -1.500000 0.550000
vt 1.144540 0.550000
vt 1.438220 0.550000
vt 1.438220 0.630000
vt 1.144540 0.630000
vt 0.000000 3.000000
vt -0.000000 0.000000
vt 0.000000 0.550000
vt -3.000000 2.250000
vt -3.000000 0.750001
vt -3.000000 0.000000
vt 3.000000 0.000000
vt 3.000000 3.000000
vt -3.000000 0.375000
vt -3.000000 2.625000
vt -3.000000 3.000000
vn -0.065400 0.000000 -0.997900
vn -0.258800 0.000000 -0.965900
vn -0.500000 0.000000 -0.866000
vn -0.707100 0.000000 -0.707100
vn -0.866000 0.000000 -0.500000
vn -0.965900 0.000000 -0.258800
vn -1.000000 0.000000 0.000000
vn -0.965900 0.000000 0.258800
vn -0.866000 0.000000 0.500000
vn -0.707100 0.000000 0.707100
vn -0.500000 0.000000 0.866000
vn -0.258800 0.000000 0.965900
vn -0.000000 1.000000 0.000000
vn 0.258800 0.000000 -0.965900
vn 0.500000 0.000000 -0.866000
vn 0.707100 0.000000 -0.707100
vn 0.866000 0.000000 -0.500000
vn 0.965900 0.000000 -0.258800
vn 1.000000 0.000000 0.000000
vn 0.965900 0.000000 0.258800
vn 0.866000 0.000000 0.500000
vn 0.707100 0.000000 0.707100
vn 0.500000 0.000000 0.866000
vn 0.258800 0.000000 0.965900
vn 0.000000 0.000000 -1.000000
vn 0.065400 0.000000 -0.997900
vn 0.065400 0.000000 0.997900
vn 0.000000 0.000000 1.000000
vn -0.065400 0.000000 0.997900
vn 0.000000 -1.000000 -0.000000
usemtl Stone.033
s 1
f 6/1/1 5/2/2 22/3/2 23/4/1
f 5/5/2 21/6/3 24/7/3 22/8/2
f 21/9/3 20/10/4 25/11/4 24/12/3
f 20/9/4 19/10/5 26/11/5 25/12/4
f 19/5/5 18/6/6 27/7/6 26/8/5
f 18/1/6 17/2/7 28/3/7 27/4/6
f 17/13/7 16/14/8 29/15/8 28/16/7
f 16/17/8 15/18/9 30/19/9 29/20/8
f 15/21/9 14/22/10 31/23/10 30/24/9
f 14/25/10 13/26/11 32/27/11 31/28/10
f 13/29/11 1/30/12 4/31/12 32/32/11
f 3/33/13 37/34/13 38/35/13 39/36/13
f 52/37/14 64/38/15 41/39/15 40/40/14
f 64/41/15 63/42/16 42/43/16 41/44/15
f 63/45/16 62/46/17 43/47/17 42/48/16
f 62/49/17 61/50/18 44/51/18 43/52/17
f 61/53/18 60/54/19 45/55/19 44/56/18
f 60/57/19 59/58/20 46/59/20 45/60/19
f 59/61/20 58/62/21 47/63/21 46/64/20
f 58/65/21 57/66/22 48/67/22 47/68/21
f 57/65/22 56/66/23 49/67/23 48/68/22
f 56/61/23 50/62/24 33/63/24 49/64/23
f 54/69/25 53/70/26 39/71/26 38/72/25
f 12/73/19 54/74/19 38/75/19 37/76/19
f 71/77/19 7/78/19 55/79/19 72/80/19
f 51/81/27 55/82/28 35/83/28 34/84/27
f 23/85/13 34/86/13 35/87/13 36/88/13
f 4/89/13 3/33/13 39/36/13 40/90/13
f 22/91/13 33/92/13 34/86/13 23/85/13
f 32/93/13 4/89/13 40/90/13 41/94/13
f 31/95/13 32/93/13 41/94/13 42/96/13
f 24/97/13 49/98/13 33/92/13 22/91/13
f 43/99/13 30/100/13 31/95/13 42/96/13
f 25/101/13 48/102/13 49/98/13 24/97/13
f 29/103/13 30/100/13 43/99/13 44/104/13
f 26/105/13 47/106/13 48/102/13 25/101/13
f 45/107/13 28/108/13 29/103/13 44/104/13
f 46/109/13 47/106/13 26/105/13 27/110/13
f 27/110/13 28/108/13 45/107/13 46/109/13
f 50/57/24 51/58/27 34/59/27 33/60/24
f 53/111/26 52/112/14 40/113/14 39/114/26
f 54/74/19 12/73/19 65/115/19 66/116/19
f 2/117/29 12/118/28 37/83/28 3/84/29
f 55/79/19 7/78/19 36/119/19 35/120/19
f 7/121/25 6/122/1 23/71/1 36/72/25
f 1/123/12 2/124/29 3/125/29 4/126/12
usemtl Water.004
f 50/92/13 52/90/13 53/36/13 51/86/13
f 61/104/13 50/92/13 59/109/13
f 66/116/19 72/80/19 55/79/19 54/74/19
f 63/96/13 64/94/13 52/90/13
f 61/104/13 62/99/13 63/96/13
f 59/109/13 60/107/13 61/104/13
f 50/92/13 58/106/13 59/109/13
f 50/92/13 56/98/13 57/102/13
f 55/87/13 51/86/13 53/36/13 54/35/13
f 52/90/13 61/104/13 63/96/13
f 50/92/13 57/102/13 58/106/13
f 50/92/13 61/104/13 52/90/13
usemtl Grass.020
f 9/127/13 10/128/13 17/108/13
f 67/128/19 65/115/19 12/73/19 11/129/19
f 72/130/30 66/131/30 68/128/30 69/127/30
f 69/132/7 68/128/7 10/129/7 9/121/7
f 70/132/25 69/128/25 9/129/25 8/121/25
f 8/118/19 7/78/19 71/77/19 70/133/19
f 11/133/13 12/34/13 2/33/13
f 6/85/13 7/88/13 8/134/13
f 10/128/13 2/33/13 1/89/13
f 9/127/13 6/85/13 8/134/13
f 10/128/13 11/133/13 2/33/13
f 5/91/13 6/85/13 9/127/13
f 10/128/13 1/89/13 13/93/13
f 21/97/13 5/91/13 9/127/13
f 10/128/13 13/93/13 14/95/13
f 20/101/13 21/97/13 9/127/13
f 10/128/13 14/95/13 15/100/13
f 19/105/13 20/101/13 9/127/13
f 10/128/13 15/100/13 16/103/13
f 18/110/13 19/105/13 9/127/13
f 10/128/13 16/103/13 17/108/13
f 17/108/13 18/110/13 9/127/13
f 68/128/30 66/131/30 65/135/30
f 69/127/30 71/136/30 72/130/30
f 71/136/30 69/127/30 70/137/30
f 65/135/30 67/132/30 68/128/30
f 68/128/28 67/133/28 11/118/28 10/129/28
