# Blender v2.75 (sub 0) OBJ File: ''
# www.blender.org
mtllib roadTile_132.mtl
o Mesh4_Group1_Model
v 2.825830 0.630000 -0.174175
v 3.000000 0.630000 -0.401164
v 3.000000 0.000000 -0.401164
v 2.825830 0.000000 -0.174175
v 2.598840 0.630000 0.000000
v 3.000000 0.630000 0.000000
v 2.598840 0.000000 0.000000
v 3.000000 0.000000 -0.000000
vt 2.598840 0.630000
vt 2.598840 0.000000
vt 3.000000 0.000000
vt 3.000000 0.630000
vt 3.000000 0.401164
vt 2.825830 0.174175
vt -2.061800 0.630000
vt -2.347910 0.630000
vt -2.347910 0.000000
vt -2.061800 0.000000
vt 0.000000 0.000000
vt 0.401164 0.000000
vt 0.401164 0.630000
vt 0.000000 0.630000
vt -3.000000 0.000000
vt -2.598840 0.000000
vt -2.825830 0.174175
vt -3.000000 0.401164
vt -1.858440 0.630000
vt -2.144550 0.630000
vt -2.144550 0.000000
vt -1.858440 0.000000
vn 0.000000 -0.000000 1.000000
vn 0.000000 1.000000 0.000000
vn -0.608800 0.000000 -0.793400
vn -0.707100 0.000000 -0.707100
vn 1.000000 0.000000 0.000000
vn 0.000000 -1.000000 -0.000000
vn -0.793400 0.000000 -0.608800
usemtl Stone
s 1
f 5/1/1 7/2/1 8/3/1 6/4/1
f 6/3/2 2/5/2 1/6/2
f 5/7/3 1/8/4 4/9/4 7/10/3
f 8/11/5 3/12/5 2/13/5 6/14/5
f 8/15/6 7/16/6 4/17/6
f 5/2/2 6/3/2 1/6/2
f 3/18/6 8/15/6 4/17/6
f 1/19/4 2/20/7 3/21/7 4/22/4
o Mesh1_Group1_Model.301
v 2.598840 0.630000 -3.000000
v 3.000000 0.630000 -3.000000
v 3.000000 0.000000 -3.000000
v 2.598840 0.000000 -3.000000
v 3.000000 0.630000 -2.598840
v 2.825830 0.630000 -2.825830
v 3.000000 0.000000 -2.598840
v 2.825830 0.000000 -2.825830
vt -2.598840 0.630000
vt -3.000000 0.630000
vt -3.000000 0.000000
vt -2.598840 0.000000
vt 3.000000 2.598840
vt 3.000000 3.000000
vt 2.598840 3.000000
vt 2.825830 2.825830
vt 2.598840 0.630000
vt 2.598840 0.000000
vt 3.000000 0.000000
vt 3.000000 0.630000
vt -0.235511 0.630000
vt -0.521624 0.630000
vt -0.521624 0.000000
vt -0.235511 0.000000
vt 0.521624 0.630000
vt 0.235511 0.630000
vt 0.235511 0.000000
vt 0.521624 0.000000
vt -3.000000 3.000000
vt -3.000000 2.598840
vt -2.825830 2.825830
vt -2.598840 3.000000
vn 0.000000 0.000000 -1.000000
vn 0.000000 1.000000 0.000000
vn 1.000000 0.000000 0.000000
vn -0.793400 0.000000 0.608700
vn -0.707100 0.000000 0.707100
vn -0.608700 0.000000 0.793400
vn -0.000000 -1.000000 -0.000000
usemtl Stone
s 1
f 9/23/8 10/24/8 11/25/8 12/26/8
f 13/27/9 10/28/9 9/29/9 14/30/9
f 13/31/10 15/32/10 11/33/10 10/34/10
f 13/35/11 14/36/12 16/37/12 15/38/11
f 14/39/12 9/40/13 12/41/13 16/42/12
f 11/43/14 15/44/14 16/45/14 12/46/14
o Mesh2_Group1_Model
v 0.401164 0.630000 -3.000000
v 0.174175 0.630000 -2.825830
v 0.174175 0.000000 -2.825830
v 0.401164 0.000000 -3.000000
v 0.000000 0.630000 -3.000000
v 0.000000 0.630000 -2.598840
v 0.000000 0.000000 -3.000000
v 0.000000 0.000000 -2.598840
vt 2.144550 0.630000
vt 1.858440 0.630000
vt 1.858440 0.000000
vt 2.144550 0.000000
vt 0.401164 3.000000
vt 0.000000 3.000000
vt 0.000000 2.598840
vt 0.174175 2.825830
vt -0.000000 0.630000
vt -0.401164 0.630000
vt -0.401164 0.000000
vt -0.000000 0.000000
vt -0.401164 3.000000
vt -0.174175 2.825830
vt 2.347910 0.630000
vt 2.061800 0.630000
vt 2.061800 0.000000
vt 2.347910 0.000000
vt -3.000000 0.000000
vt -2.598840 0.000000
vt -2.598840 0.630000
vt -3.000000 0.630000
vn 0.608800 0.000000 0.793400
vn 0.707100 0.000000 0.707100
vn 0.000000 1.000000 -0.000000
vn -0.000000 0.000000 -1.000000
vn 0.000000 -1.000000 -0.000000
vn 0.793400 0.000000 0.608800
vn -1.000000 0.000000 -0.000000
usemtl Stone
s 1
f 17/47/15 18/48/16 19/49/16 20/50/15
f 17/51/17 21/52/17 22/53/17 18/54/17
f 21/55/18 17/56/18 20/57/18 23/58/18
f 23/52/19 20/59/19 19/60/19 24/53/19
f 18/61/16 22/62/20 24/63/20 19/64/16
f 23/65/21 24/66/21 22/67/21 21/68/21
o Mesh3_Group1_Model
v 0.000000 0.630000 -0.401164
v 0.000000 0.000000 -0.401164
v 0.000000 0.000000 -0.000000
v 0.000000 0.630000 0.000000
v 0.174175 0.630000 -0.174175
v 0.174175 0.000000 -0.174175
v 0.401164 0.630000 0.000000
v 0.401164 0.000000 0.000000
vt -0.401164 0.630000
vt -0.401164 0.000000
vt -0.000000 0.000000
vt -0.000000 0.630000
vt 0.318265 0.630000
vt 0.032151 0.630000
vt 0.032151 0.000000
vt 0.318265 0.000000
vt 0.000000 0.401164
vt 0.401164 0.000000
vt 0.174175 0.174175
vt 0.401164 0.630000
vt -0.174175 0.174175
vt -0.032151 0.630000
vt -0.318265 0.630000
vt -0.318265 0.000000
vt -0.032151 -0.000000
vn -1.000000 0.000000 -0.000000
vn 0.793400 0.000000 -0.608800
vn 0.707100 0.000000 -0.707100
vn 0.000000 1.000000 0.000000
vn -0.000000 -0.000000 1.000000
vn -0.000000 -1.000000 -0.000000
vn 0.608800 0.000000 -0.793400
usemtl Stone
s 1
f 25/69/22 26/70/22 27/71/22 28/72/22
f 25/73/23 29/74/24 30/75/24 26/76/23
f 25/77/25 28/71/25 31/78/25 29/79/25
f 27/71/26 32/78/26 31/80/26 28/72/26
f 27/71/27 26/77/27 30/81/27 32/70/27
f 29/82/24 31/83/28 32/84/28 30/85/24
