# Blender v2.75 (sub 0) OBJ File: ''
# www.blender.org
mtllib roadTile_025.mtl
o Mesh1_Group1_Model.247
v 0.000000 0.000000 -3.000000
v 0.000000 0.000000 -2.625000
v 0.000000 0.550000 -2.625000
v 0.000000 0.550000 -3.000000
v 3.000000 0.000000 -0.000000
v 0.000000 0.000000 0.000000
v 0.000000 0.000000 -0.375000
v 3.000000 0.000000 -3.000000
v 3.000000 0.000000 -2.625000
v 3.000000 0.000000 -0.375000
v 0.000000 0.550000 0.000000
v 3.000000 0.550000 0.000000
v 0.000000 0.550000 -0.375000
v 3.000000 0.550000 -0.375000
v 3.000000 0.550000 -2.625000
v 3.000000 0.630000 -2.625000
v 3.000000 0.630000 -2.250000
v 3.000000 0.600000 -2.250000
v 3.000000 0.300000 -2.250000
v 3.000000 0.300000 -0.750000
v 3.000000 0.600000 -0.750000
v 3.000000 0.630000 -0.750000
v 3.000000 0.630000 -0.375000
v 3.000000 0.550000 -3.000000
v 0.000000 0.630000 -2.625000
v 0.000000 0.630000 -2.250000
v 0.000000 0.630000 -0.375000
v 0.000000 0.630000 -0.750000
v 0.000000 0.600000 -0.750000
v 0.000000 0.300000 -0.750000
v 0.000000 0.300000 -2.250000
v 0.000000 0.600000 -2.250000
v 1.875000 0.600000 -0.750000
v 1.125000 0.600000 -0.750000
v 1.875000 0.600000 -0.937500
v 1.875000 0.600000 -1.125000
v 1.875000 0.600000 -1.500000
v 1.875000 0.600000 -1.875000
v 1.875000 0.600000 -2.062500
v 1.125000 0.600000 -2.062500
v 1.125000 0.600000 -1.312500
v 1.125000 0.600000 -0.937500
v 1.125000 0.600000 -1.125000
v 1.875000 0.600000 -1.312500
v 1.125000 0.600000 -1.500000
v 1.125000 0.600000 -1.687500
v 1.875000 0.600000 -1.687500
v 1.125000 0.600000 -1.875000
vt 0.750000 0.300000
vt 0.750000 0.600000
vt 0.375000 0.550000
vt 0.375000 0.000000
vt 2.625000 0.000000
vt 2.250000 0.300000
vt -0.000000 0.630000
vt -3.000000 0.630000
vt -3.000000 0.550000
vt -0.000000 0.550000
vt 3.000000 2.250000
vt 3.000000 2.625000
vt 0.000000 2.625000
vt 0.000000 2.250000
vt -2.250000 0.300000
vt -2.250000 0.600000
vt -2.625000 0.550000
vt -2.625000 0.000000
vt -0.375000 0.000000
vt -0.750000 0.300000
vt 0.000000 0.750000
vt 0.000000 0.375000
vt 3.000000 0.375000
vt 3.000000 0.750000
vt -1.125000 0.600000
vt 0.000000 0.600000
vt 3.000000 0.600000
vt 3.000000 0.630000
vt 0.750000 0.630000
vt 0.375000 0.630000
vt 2.625000 0.550000
vt 2.250000 0.600000
vt 2.625000 0.630000
vt 2.250000 0.630000
vt -2.250000 0.630000
vt -2.625000 0.630000
vt -0.375000 0.550000
vt -0.750000 0.600000
vt -0.375000 0.630000
vt -0.750000 0.630000
vt 3.000000 0.550000
vt -1.875000 0.600000
vt -3.000000 0.600000
vt 1.875000 0.750000
vt 1.875000 0.937500
vt 1.125000 0.937500
vt 1.125000 0.750000
vt 1.875000 1.125000
vt 1.875000 1.312500
vt 1.125000 1.312500
vt 1.125000 1.125000
vt 1.875000 1.500000
vt 1.875000 1.687500
vt 1.125000 1.687500
vt 1.125000 1.500000
vt 1.875000 1.875000
vt 1.875000 2.062500
vt 1.125000 2.062500
vt 1.125000 1.875000
vt -3.000000 0.000000
vt -0.000000 -0.000000
vt -3.000000 0.375000
vt 3.000000 0.000000
vt 0.000000 3.000000
vt 3.000000 3.000000
vt -3.000000 2.625000
vt -3.000000 3.000000
vn 1.000000 -0.000000 0.000000
vn 0.000000 0.000000 -1.000000
vn 0.000000 1.000000 -0.000000
vn -1.000000 0.000000 0.000000
vn 0.000000 0.000000 1.000000
vn 0.708600 0.498900 0.498900
vn 0.000000 0.999800 0.021000
vn 0.000300 1.000000 -0.000000
vn 0.707100 0.500000 0.500000
vn 0.091100 0.995800 0.000100
vn -0.125800 0.992000 -0.014400
vn 0.561200 0.560800 -0.608800
vn 0.000000 -1.000000 -0.000000
usemtl Stone.213
s 1
f 20/1/1 21/2/1 14/3/1 10/4/1
f 10/4/1 9/5/1 19/6/1
f 25/7/2 16/8/2 15/9/2 3/10/2
f 17/11/3 16/12/3 25/13/3 26/14/3
f 31/15/4 32/16/4 3/17/4 2/18/4
f 2/18/4 7/19/4 30/20/4
f 28/21/3 27/22/3 23/23/3 22/24/3
f 22/8/2 34/25/2 28/7/2
f 26/7/5 32/26/5 18/27/5 17/28/5
f 14/3/1 21/2/1 22/29/1 23/30/1
f 9/5/1 15/31/1 18/32/1 19/6/1
f 16/33/1 17/34/1 18/32/1 15/31/1
f 19/6/1 20/1/1 10/4/1
f 3/17/4 32/16/4 26/35/4 25/36/4
f 7/19/4 13/37/4 29/38/4 30/20/4
f 27/39/4 28/40/4 29/38/4 13/37/4
f 23/28/5 27/7/5 13/10/5 14/41/5
f 30/20/4 31/15/4 2/18/4
f 33/42/2 22/8/2 21/43/2
f 34/25/2 29/26/2 28/7/2
f 22/8/2 33/42/2 34/25/2
usemtl White.002
f 33/44/3 35/45/3 42/46/6 34/47/3
f 36/48/3 44/49/7 41/50/3 43/51/8
f 37/52/3 47/53/9 46/54/10 45/55/11
f 38/56/3 39/57/3 40/58/3 48/59/12
usemtl Grass.105
f 5/60/13 6/61/13 7/22/13 10/62/13
f 11/10/4 13/37/4 7/19/4 6/61/4
f 12/63/3 14/23/3 13/22/3 11/61/3
f 5/61/1 10/4/1 14/3/1 12/10/1
f 4/64/3 3/13/3 15/12/3 24/65/3
f 1/60/4 2/18/4 3/17/4 4/9/4
f 24/9/2 8/60/2 1/61/2 4/10/2
f 9/66/13 2/13/13 1/64/13 8/67/13
f 7/22/13 2/13/13 9/66/13 10/62/13
f 11/10/5 6/61/5 5/63/5 12/41/5
f 24/41/1 15/31/1 9/5/1 8/63/1
usemtl Asphalt.179
f 32/16/4 31/15/4 30/20/4 29/38/4
f 18/11/3 33/44/3 21/24/3
f 18/11/3 35/45/3 33/44/3
f 18/11/3 36/48/3 35/45/3
f 18/11/3 37/52/3 36/48/3
f 18/11/3 38/56/3 37/52/3
f 18/11/3 39/57/3 38/56/3
f 18/11/3 40/58/3 39/57/3
f 32/14/3 40/58/3 18/11/3
f 36/48/3 43/51/8 42/46/6 35/45/3
f 41/50/3 29/21/3 34/47/3
f 41/50/3 34/47/3 42/46/6
f 38/56/3 48/59/12 46/54/10 47/53/9
f 37/52/3 44/49/7 36/48/3
f 41/50/3 45/55/11 46/54/10
f 38/56/3 47/53/9 37/52/3
f 45/55/11 41/50/3 44/49/7 37/52/3
f 40/58/3 46/54/10 48/59/12
f 40/58/3 41/50/3 46/54/10
f 41/50/3 42/46/6 43/51/8
f 21/2/1 20/1/1 19/6/1 18/32/1
f 29/21/3 41/50/3 40/58/3 32/14/3
