# Blender v2.75 (sub 0) OBJ File: ''
# www.blender.org
mtllib roadTile_061.mtl
o Mesh1_Group1_Model.282
v 3.000000 0.600000 -0.750000
v 0.750000 0.600000 -0.750000
v 0.750000 0.630000 -0.750000
v 3.000000 0.630000 -0.750000
v 3.000000 0.600000 -3.000000
v 0.750000 0.600000 -3.000000
v 3.000000 0.300000 -3.000000
v 0.750000 0.300000 -3.000000
v 3.000000 0.300000 -0.750000
v 3.000000 0.630000 0.000000
v 3.000000 0.000000 0.000000
v 3.000000 0.000000 -3.000000
v 0.750000 0.630000 -3.000000
v 0.000000 0.630000 -3.000000
v 0.000000 0.630000 0.000000
v 0.000000 0.000000 -3.000000
v 0.000000 0.000000 -0.000000
vt 0.750000 0.300000
vt 0.750000 0.600000
vt 0.000000 0.630000
vt 0.000000 0.000000
vt 0.000000 3.000000
vt 0.750000 0.750000
vt 3.000000 0.000000
vt 3.000000 0.630000
vt -3.000000 0.630000
vt -3.000000 0.000000
vt 0.750000 0.630000
vt 3.000000 0.600000
vt 3.000000 0.300000
vt -0.750000 0.600000
vt -0.750000 0.300000
vt 3.000000 0.750000
vt 0.750000 3.000000
vt -3.000000 0.300000
vt -3.000000 3.000000
vt -0.750000 0.630000
vt -3.000000 0.600000
vt 3.000000 3.000000
vn 1.000000 0.000000 0.000000
vn -0.000000 1.000000 0.000000
vn -0.000000 -0.000000 1.000000
vn -1.000000 0.000000 -0.000000
vn 0.000000 0.000000 -1.000000
vn 0.000000 -1.000000 -0.000000
usemtl Stone
s 1
f 9/1/1 1/2/1 10/3/1 11/4/1
f 14/5/2 15/4/2 3/6/2
f 15/3/3 17/4/3 11/7/3 10/8/3
f 15/3/4 14/9/4 16/10/4 17/4/4
f 3/11/1 2/2/1 6/12/1 13/8/1
f 9/1/1 12/7/1 7/13/1
f 16/4/5 14/3/5 6/14/5 8/15/5
f 10/3/1 1/2/1 4/11/1
f 11/4/1 12/7/1 9/1/1
f 10/7/2 4/16/2 3/6/2
f 3/6/2 13/17/2 14/5/2
f 15/4/2 10/7/2 3/6/2
f 8/15/5 7/18/5 12/10/5
f 12/19/6 11/10/6 17/4/6 16/5/6
f 6/14/5 14/3/5 13/20/5
f 8/15/5 12/10/5 16/4/5
f 1/21/5 2/14/5 3/20/5 4/9/5
usemtl Asphalt
f 5/22/2 6/17/2 2/6/2 1/16/2
f 5/21/5 7/18/5 8/15/5 6/14/5
f 1/2/1 9/1/1 7/13/1 5/12/1
