# Blender v2.75 (sub 0) OBJ File: ''
# www.blender.org
mtllib roadTile_164.mtl
o Mesh1_Group1_Model.157
v 3.000000 1.700000 -2.250000
v 0.000000 1.700000 -2.250000
v 0.000000 1.700000 -0.750000
v 3.000000 1.700000 -0.750000
v 3.000000 1.730000 -2.250000
v 0.000000 1.730000 -2.250000
v 3.000000 1.730000 -0.375000
v 3.000000 1.650000 -0.375000
v 3.000000 0.000000 -0.375000
v 3.000000 0.000000 -2.625000
v 3.000000 1.650000 -2.625000
v 3.000000 1.730000 -2.625000
v 3.000000 1.400000 -2.250000
v 3.000000 1.400000 -0.750000
v 3.000000 1.730000 -0.750000
v 0.000000 1.730000 -0.375000
v 0.000000 1.650000 -0.375000
v 0.000000 1.730000 -0.750000
v 0.000000 1.100000 -2.625000
v 0.000000 1.100000 -0.375000
v 0.000000 1.400000 -0.750000
v 0.000000 1.400000 -2.250000
v 0.000000 1.730000 -2.625000
v 0.000000 1.650000 -2.625000
v 0.000000 1.100000 0.000000
v 0.000000 1.100000 -3.000000
v 3.000000 0.000000 -3.000000
v 3.000000 0.000000 -0.000000
v 0.000000 1.650000 0.000000
v 3.000000 1.650000 0.000000
v 0.000000 1.650000 -3.000000
v 3.000000 1.650000 -3.000000
vt 0.000000 1.700000
vt 3.000000 1.700000
vt 3.000000 1.730000
vt 0.000000 1.730000
vt 0.375000 1.650000
vt 0.750000 1.700000
vt 0.750000 1.730000
vt 0.375000 1.730000
vt 0.000000 0.750000
vt 0.000000 0.375000
vt 3.000000 0.375000
vt 3.000000 0.750000
vt -2.250000 1.400000
vt -2.250000 1.700000
vt -2.625000 1.650000
vt -2.625000 1.100000
vt -0.375000 1.100000
vt -0.750000 1.400000
vt -3.000000 1.730000
vt -3.000000 1.650000
vt -0.000000 1.650000
vt 3.000000 2.250000
vt 3.000000 2.625000
vt 0.000000 2.625000
vt 0.000000 2.250000
vt -3.000000 1.700000
vt 2.625000 1.730000
vt 2.250000 1.730000
vt 2.250000 1.700000
vt 2.625000 1.650000
vt 2.250000 1.400000
vt 0.375000 0.000000
vt 2.625000 0.000000
vt 0.750000 1.400000
vt 3.000000 1.650000
vt -2.250000 1.730000
vt -2.625000 1.730000
vt -0.375000 1.650000
vt -0.750000 1.700000
vt -0.375000 1.730000
vt -0.750000 1.730000
vt 3.000000 0.000000
vt 0.000000 0.000000
vt 0.000000 1.100000
vt -3.000000 1.100000
vt 0.000000 3.000000
vt 3.000000 3.000000
vt -3.000000 -0.000000
vt -0.000000 0.378680
vt -0.375000 0.378680
vt -0.375000 -2.816630
vt -0.000000 -2.816630
vt -2.625000 0.378680
vt -2.625000 -2.816630
vt -3.000000 0.378680
vt -3.000000 -2.816630
vn 0.000000 0.000000 1.000000
vn 1.000000 -0.000000 0.000000
vn 0.000000 1.000000 0.000000
vn -1.000000 0.000000 -0.000000
vn 0.000000 0.000000 -1.000000
vn -0.344300 -0.938900 0.000000
usemtl Stone.138
s 1
f 2/1/1 1/2/1 5/3/1 6/4/1
f 8/5/2 4/6/2 15/7/2 7/8/2
f 18/9/3 16/10/3 7/11/3 15/12/3
f 22/13/4 2/14/4 24/15/4 19/16/4
f 22/13/4 20/17/4 21/18/4
f 23/4/5 12/19/5 11/20/5 24/21/5
f 5/22/3 12/23/3 23/24/3 6/25/3
f 4/26/5 3/1/5 18/4/5 15/19/5
f 12/27/2 5/28/2 1/29/2 11/30/2
f 11/30/2 1/29/2 13/31/2
f 9/32/2 10/33/2 13/31/2 14/34/2
f 14/34/2 4/6/2 8/5/2
f 14/34/2 8/5/2 9/32/2
f 10/33/2 11/30/2 13/31/2
f 7/3/1 16/4/1 17/21/1 8/35/1
f 24/15/4 2/14/4 6/36/4 23/37/4
f 20/17/4 17/38/4 3/39/4 21/18/4
f 16/40/4 18/41/4 3/39/4 17/38/4
f 20/17/4 22/13/4 19/16/4
usemtl Grass.061
f 30/42/3 8/11/3 17/10/3 29/43/3
f 28/43/2 9/32/2 8/5/2 30/21/2
f 29/21/1 25/44/1 28/42/1 30/35/1
f 26/45/4 19/16/4 24/15/4 31/20/4
f 31/46/3 24/24/3 11/23/3 32/47/3
f 32/35/2 11/30/2 10/33/2 27/42/2
f 27/48/5 26/44/5 31/21/5 32/20/5
f 25/49/6 20/50/6 9/51/6 28/52/6
f 20/50/6 19/53/6 10/54/6 9/51/6
f 10/54/6 19/53/6 26/55/6 27/56/6
f 29/21/4 17/38/4 20/17/4 25/44/4
usemtl Asphalt.118
f 2/14/4 22/13/4 21/18/4 3/39/4
f 4/6/2 14/34/2 13/31/2 1/29/2
f 1/22/3 2/25/3 3/9/3 4/12/3
