# Blender v2.75 (sub 0) OBJ File: ''
# www.blender.org
mtllib roadTile_027.mtl
o Mesh1_Group1_Model.228
v 0.750000 0.600000 0.000000
v 0.750000 0.300000 0.000000
v 3.000000 0.300000 0.000000
v 3.000000 0.600000 0.000000
v 0.375000 0.630000 0.000000
v 0.375000 0.550000 0.000000
v 0.375000 0.000000 -0.000000
v 3.000000 0.000000 0.000000
v 0.750000 0.630000 0.000000
v 0.375000 0.630000 -3.000000
v 0.375000 0.550000 -3.000000
v 0.750000 0.630000 -3.000000
v 3.000000 0.000000 -3.000000
v 0.375000 0.000000 -3.000000
v 0.750000 0.600000 -3.000000
v 0.750000 0.300000 -3.000000
v 3.000000 0.300000 -3.000000
v 0.000000 0.000000 -0.000000
v 0.000000 0.000000 -3.000000
v 3.000000 0.600000 -3.000000
v 0.000000 0.550000 0.000000
v 0.000000 0.550000 -3.000000
vt 0.375000 0.550000
vt 0.750000 0.600000
vt 0.750000 0.630000
vt 0.375000 0.630000
vt 0.750000 3.000000
vt 0.375000 3.000000
vt 0.375000 0.000000
vt 0.750000 0.000000
vt -0.375000 0.000000
vt -0.375000 0.550000
vt -0.750000 0.600000
vt -0.750000 0.300000
vt 3.000000 0.630000
vt 0.000000 0.630000
vt 0.000000 0.600000
vt 3.000000 0.600000
vt 0.750000 0.300000
vt 3.000000 0.000000
vt 3.000000 0.300000
vt -3.000000 0.630000
vt -3.000000 0.550000
vt -0.000000 0.550000
vt -3.000000 0.300000
vt -3.000000 0.000000
vt -0.375000 0.630000
vt -0.750000 0.630000
vt 0.000000 0.300000
vt 0.000000 0.000000
vt 0.000000 3.000000
vt -3.000000 3.000000
vt -0.375000 3.000000
vt -3.000000 0.600000
vt 3.000000 3.000000
vn -0.000000 -0.000000 1.000000
vn 0.000000 1.000000 0.000000
vn 0.000000 0.000000 -1.000000
vn 1.000000 0.000000 0.000000
vn -1.000000 0.000000 0.000000
vn -0.000000 -1.000000 -0.000000
usemtl Stone.196
s 1
f 6/1/1 1/2/1 9/3/1 5/4/1
f 12/5/2 10/6/2 5/7/2 9/8/2
f 14/9/3 11/10/3 15/11/3 16/12/3
f 12/13/4 9/14/4 1/15/4 15/16/4
f 1/2/1 6/1/1 7/7/1 2/17/1
f 8/18/1 3/19/1 2/17/1
f 5/14/5 10/20/5 11/21/5 6/22/5
f 7/7/1 8/18/1 2/17/1
f 16/12/3 17/23/3 13/24/3
f 15/11/3 11/10/3 10/25/3 12/26/3
f 16/12/3 13/24/3 14/9/3
f 13/18/4 17/19/4 3/27/4 8/28/4
usemtl Grass.094
f 18/28/1 7/7/1 6/1/1 21/22/1
f 21/28/2 6/7/2 11/6/2 22/29/2
f 22/22/3 11/10/3 14/9/3 19/28/3
f 19/24/5 18/28/5 21/22/5 22/21/5
f 13/30/6 8/24/6 7/9/6 14/31/6
f 14/31/6 7/9/6 18/28/6 19/29/6
usemtl Asphalt.163
f 4/15/4 3/27/4 17/19/4 20/16/4
f 20/32/3 17/23/3 16/12/3 15/11/3
f 4/18/2 20/33/2 15/5/2 1/8/2
f 1/2/1 2/17/1 3/19/1 4/16/1
