# Blender v2.75 (sub 0) OBJ File: ''
# www.blender.org
mtllib roadTile_145.mtl
o Mesh1_Group1_Model.065
v 3.000000 0.455000 0.000000
v 1.875000 0.455000 0.000000
v 1.875000 0.000000 -0.000000
v 3.000000 0.000000 0.000000
v 0.750000 0.455000 -3.000000
v 3.000000 0.455000 -3.000000
v 0.750000 0.455000 0.000000
v 0.750000 0.000000 -0.000000
v 3.000000 0.000000 -3.000000
v 0.000000 0.000000 -0.000000
v 0.000000 0.000000 -3.000000
v 0.750000 0.000000 -3.000000
v 0.000000 0.550000 -3.000000
v 0.750000 0.550000 -3.000000
v 0.000000 0.550000 0.000000
v 0.750000 0.550000 0.000000
vt 1.875000 0.000000
vt 3.000000 -0.000000
vt 3.000000 3.000000
vt -0.750000 0.000000
vt -0.750000 0.455000
vt -3.000000 0.455000
vt -3.000000 0.000000
vt 3.000000 0.455000
vt 1.875000 0.455000
vt 0.000000 0.455000
vt 0.000000 0.000000
vt 0.750000 0.000000
vt 0.750000 0.455000
vt 0.750000 3.000000
vt -1.875000 0.000000
vt -0.750000 3.000000
vt -3.000000 3.000000
vt 0.000000 0.550000
vt 0.000000 3.000000
vt -0.750000 0.550000
vt -3.000000 0.550000
vt 3.000000 0.550000
vt 0.750000 0.550000
vn 0.000000 1.000000 0.000000
vn 0.000000 0.000000 -1.000000
vn -0.000000 -0.000000 1.000000
vn 1.000000 0.000000 0.000000
vn -0.000000 -1.000000 -0.000000
vn -1.000000 0.000000 -0.000000
usemtl Water.010
s 1
f 2/1/1 1/2/1 6/3/1
f 12/4/2 5/5/2 6/6/2 9/7/2
f 1/8/3 2/9/3 3/1/3 4/2/3
f 6/8/4 1/10/4 4/11/4 9/2/4
usemtl Sand
f 8/12/3 3/1/3 2/9/3 7/13/3
f 7/12/1 2/1/1 6/3/1 5/14/1
usemtl Grass.033
f 3/15/5 12/16/5 9/17/5 4/7/5
f 5/5/2 12/4/2 11/11/2 13/18/2
f 10/11/3 8/12/3 7/13/3 15/18/3
f 15/11/1 16/12/1 14/14/1 13/19/1
f 12/16/5 8/4/5 10/11/5 11/19/5
f 12/16/5 3/15/5 8/4/5
f 13/18/2 14/20/2 5/5/2
f 11/7/6 10/11/6 15/18/6 13/21/6
f 14/22/4 16/18/4 7/10/4 5/8/4
f 15/18/3 7/13/3 16/23/3
