# Blender v2.75 (sub 0) OBJ File: ''
# www.blender.org
mtllib roadTile_223.mtl
o Mesh1_Group1_Model.132
v 0.000000 0.600000 -2.250000
v 0.000000 0.300000 -2.250000
v 0.000000 0.300000 -0.750000
v 0.000000 0.600000 -0.750000
v 0.000000 1.736470 -2.250000
v 0.000000 0.000000 -3.000000
v 0.000000 0.000000 -0.000000
v 0.000000 1.736470 -0.750000
v 0.000000 2.200000 0.000000
v 0.000000 2.200000 -3.000000
v 3.000000 2.200000 0.000000
v 3.000000 2.200000 -3.000000
v 3.000000 0.000000 0.000000
v 3.000000 0.300000 -0.750000
v 3.000000 0.000000 -3.000000
v 3.000000 1.736470 -2.250000
v 3.000000 1.736470 -0.750000
v 3.000000 0.600000 -0.750000
v 3.000000 0.300000 -2.250000
v 3.000000 0.600000 -2.250000
vt 0.000000 0.000000
vt 3.000000 -0.000000
vt 3.000000 3.000000
vt -0.000000 3.000000
vt -2.250000 1.736470
vt -2.250000 0.300000
vt -2.250000 0.600000
vt 2.250000 0.600000
vt 3.000000 2.200000
vt 2.250000 1.736470
vt -3.000000 0.000000
vt -0.750000 0.300000
vt -0.750000 0.600000
vt -0.750000 1.736470
vt -0.000000 2.200000
vt -3.000000 2.200000
vt -3.000000 3.000000
vt 0.750000 0.300000
vt 0.750000 1.736470
vt 0.750000 0.600000
vt 3.000000 0.600000
vt 3.000000 1.736470
vt 0.000000 1.736470
vt 0.000000 0.600000
vt 2.250000 0.300000
vt -3.000000 0.750000
vt -0.000000 0.750000
vt -0.000000 2.250000
vt -3.000000 2.250000
vt -3.000000 1.736470
vt -3.000000 0.600000
vt 3.000000 0.750000
vt 3.000000 2.250000
vn 0.000000 1.000000 0.000000
vn -1.000000 0.000000 0.000000
vn 1.000000 0.000000 0.000000
vn -0.000000 -0.000000 1.000000
vn -0.000000 -1.000000 -0.000000
vn 0.000000 0.000000 -1.000000
vn -0.623000 -0.120500 -0.772900
usemtl Stone
s 1
f 9/1/1 11/2/1 12/3/1 10/4/1
f 5/5/2 2/6/2 1/7/2
f 20/8/3 15/2/3 12/9/3 16/10/3
f 6/11/2 3/12/2 2/6/2
f 7/1/2 3/12/2 6/11/2
f 3/12/2 7/1/2 4/13/2
f 8/14/2 9/15/2 10/16/2
f 13/2/4 11/9/4 9/15/4 7/1/4
f 6/4/5 15/17/5 13/11/5 7/1/5
f 9/15/2 8/14/2 4/13/2 7/1/2
f 14/18/3 13/1/3 15/2/3
f 12/16/6 15/11/6 6/1/6 10/15/6
f 17/19/3 11/15/3 13/1/3 14/18/3
f 12/9/3 17/19/3 16/10/3
f 11/15/3 17/19/3 12/9/3
f 17/19/3 14/18/3 18/20/7
f 20/21/4 16/22/4 5/23/4 1/24/4
f 14/18/3 15/2/3 19/25/3
f 19/25/3 15/2/3 20/8/3
f 17/26/5 8/27/5 5/28/5 16/29/5
f 4/24/6 8/23/6 17/30/6 18/31/6
f 8/14/2 10/16/2 5/5/2
f 5/5/2 10/16/2 6/11/2 2/6/2
usemtl Asphalt
f 1/7/2 2/6/2 3/12/2 4/13/2
f 18/20/7 14/18/3 19/25/3 20/8/3
f 18/32/1 20/33/1 1/28/1 4/27/1
