# Blender v2.75 (sub 0) OBJ File: ''
# www.blender.org
mtllib roadTile_113.mtl
o Mesh1_Group1_Model.160
v 0.000000 0.600000 0.000000
v 0.000000 0.300000 0.000000
v 3.000000 0.300000 0.000000
v 3.000000 0.600000 0.000000
v 0.000000 0.600000 -2.250000
v 0.000000 0.300000 -2.250000
v 3.000000 0.600000 -3.000000
v 0.750000 0.600000 -3.000000
v 0.750000 0.600000 -2.250000
v 3.000000 0.300000 -3.000000
v 0.750000 0.300000 -3.000000
v 3.000000 0.000000 -3.000000
v 0.375000 0.000000 -3.000000
v 0.375000 0.630000 -3.000000
v 0.750000 0.630000 -3.000000
v 3.000000 0.000000 0.000000
v 0.000000 0.000000 -0.000000
v 0.000000 0.000000 -2.625000
v 0.375000 0.000000 -2.625000
v 0.000000 0.630000 -2.625000
v 0.000000 0.630000 -2.250000
v 0.375000 0.630000 -2.625000
v 0.750000 0.630000 -2.250000
vt -0.375000 0.000000
vt -0.375000 0.630000
vt -0.750000 0.600000
vt -0.750000 0.300000
vt 3.000000 0.300000
vt 0.000000 0.300000
vt -0.000000 0.000000
vt 3.000000 0.000000
vt -2.625000 0.630000
vt -2.625000 0.000000
vt -2.250000 0.300000
vt -2.250000 0.600000
vt -0.000000 0.600000
vt 0.750000 0.600000
vt 0.750000 0.630000
vt -0.000000 0.630000
vt 0.000000 2.250000
vt 0.750000 2.250000
vt 0.375000 2.625000
vt 2.250000 0.600000
vt 3.000000 0.600000
vt 3.000000 0.630000
vt 2.250000 0.630000
vt -3.000000 0.630000
vt -3.000000 0.000000
vt -3.000000 0.300000
vt -3.000000 3.000000
vt -0.375000 2.625000
vt -0.750000 0.630000
vt -0.375000 3.000000
vt -0.000000 2.625000
vt -2.250000 0.630000
vt 0.750000 3.000000
vt 0.375000 3.000000
vt 3.000000 3.000000
vt -3.000000 0.600000
vn 0.000000 0.000000 -1.000000
vn -0.000000 -0.000000 1.000000
vn -1.000000 0.000000 -0.000000
vn 0.000000 1.000000 0.000000
vn 1.000000 0.000000 0.000000
vn -0.000000 -1.000000 -0.000000
usemtl Stone.141
s 1
f 13/1/1 14/2/1 8/3/1 11/4/1
f 3/5/2 2/6/2 17/7/2 16/8/2
f 20/9/3 18/10/3 6/11/3 5/12/3
f 5/13/2 9/14/2 23/15/2 21/16/2
f 21/17/4 23/18/4 22/19/4
f 9/20/5 8/21/5 15/22/5 23/23/5
f 22/9/3 14/24/3 13/25/3 19/10/3
f 11/4/1 10/26/1 12/25/1
f 12/27/6 16/25/6 17/7/6 19/28/6
f 8/3/1 14/2/1 15/29/1
f 11/4/1 12/25/1 13/1/1
f 19/28/6 13/30/6 12/27/6
f 17/7/6 18/31/6 19/28/6
f 12/8/5 10/5/5 3/6/5 16/7/5
f 5/12/3 21/32/3 20/9/3
f 17/7/3 2/6/3 6/11/3
f 20/16/1 22/2/1 19/1/1 18/7/1
f 18/10/3 17/7/3 6/11/3
f 22/19/4 20/31/4 21/17/4
f 15/33/4 14/34/4 22/19/4
f 22/19/4 23/18/4 15/33/4
usemtl Asphalt.120
f 1/13/3 5/12/3 6/11/3 2/6/3
f 9/18/4 1/7/4 4/8/4 7/35/4
f 4/13/5 3/6/5 10/5/5 7/21/5
f 10/26/1 11/4/1 8/3/1 7/36/1
f 9/18/4 5/17/4 1/7/4
f 7/35/4 8/33/4 9/18/4
f 1/13/2 2/6/2 3/5/2 4/21/2
