# Blender v2.75 (sub 0) OBJ File: ''
# www.blender.org
mtllib roadTile_018.mtl
o Mesh1_Group1_Model.001
v 2.250000 0.730000 -0.937500
v 0.750000 1.280000 -0.562500
v 0.750000 1.375000 -0.562500
v 2.250000 0.825000 -0.937500
v 3.000000 0.455000 -0.750000
v 3.000000 0.455000 -2.250000
v 2.250000 0.730000 -2.437500
v 1.500000 1.005000 -2.250000
v 0.750000 1.280000 -2.062500
v 0.000000 1.555000 -2.250000
v 0.000000 1.555000 -0.750000
v 3.000000 0.550000 -0.750000
v 0.000000 1.650000 -0.750000
v 0.000000 1.650000 0.000000
v 3.000000 0.550000 -0.000000
v 0.000000 1.375000 -0.750000
v 0.000000 1.375000 -2.250000
v 0.000000 1.650000 -2.250000
v 0.000000 1.650000 -3.000000
v 0.000000 0.000000 -3.000000
v 0.000000 0.000000 -0.000000
v 0.750000 1.375000 -2.062500
v 2.250000 0.825000 -2.437500
v 3.000000 0.550000 -2.250000
v 3.000000 0.275000 -2.250000
v 3.000000 0.275000 -0.750000
v 3.000000 0.000000 -0.000000
v 3.000000 0.000000 -3.000000
v 3.000000 0.550000 -3.000000
vt 2.250000 -1.062340
vt 2.062500 -0.263511
vt 0.562500 -0.263511
vt 0.937500 -1.861170
vt -0.750000 1.555000
vt -2.250000 1.555000
vt -2.250000 1.375000
vt -0.750000 1.375000
vt -0.545705 1.650000
vt -0.545705 1.555000
vt 0.227377 1.280000
vt 0.227377 1.375000
vt 1.591640 0.825000
vt 1.591640 0.730000
vt 2.364720 0.455000
vt 2.364720 0.550000
vt 2.000920 1.005000
vt 2.774000 0.730000
vt 2.774000 0.825000
vt 2.250000 0.535316
vt 0.750000 0.535316
vt 2.250000 -2.659990
vt 2.437500 -1.861170
vt 0.750000 -2.659990
vt -2.728530 0.455000
vt -1.955440 0.730000
vt -1.955440 0.825000
vt -2.728530 0.550000
vt -0.591181 1.280000
vt 0.181902 1.555000
vt 0.181902 1.650000
vt -0.591181 1.375000
vt 1.227840 1.375000
vt 1.227840 1.280000
vt 2.250000 0.455000
vt 0.750000 0.455000
vt 0.750000 0.275000
vt 2.250000 0.275000
vt -2.410200 0.730000
vt -0.864033 1.280000
vt -0.864033 1.375000
vt -2.410200 0.825000
vt -88.582703 -41.824402
vt -81.200798 -10.374500
vt -88.582703 21.075399
vt -3.000000 -0.000000
vt -0.000000 -0.000000
vt -0.000000 0.568020
vt -0.000000 -2.627290
vt 0.562500 -0.230807
vt 0.000000 0.550000
vt 0.000000 1.650000
vt 3.000000 -0.000000
vt 3.000000 0.550000
vt 0.000000 3.000000
vt -3.000000 3.000000
vt -3.000000 0.550000
vt 3.000000 -2.627290
vt 3.000000 0.568020
vt 2.437500 -1.828460
vt 0.937500 -1.828460
vt 0.750000 0.568020
vt 0.750000 -2.627290
vt -0.750000 1.650000
vt -2.250000 1.650000
vt -3.000000 1.650000
vt 2.250000 0.550000
vt 0.750000 0.550000
vt 2.062500 -0.230807
vt 2.250000 -2.627290
vt 2.250000 0.568020
vn 0.344300 0.938900 0.000000
vn -1.000000 -0.000000 0.000000
vn -0.242500 0.000000 0.970100
vn 0.242500 0.000000 0.970100
vn 0.242500 0.000000 -0.970100
vn 1.000000 0.000000 0.000000
vn -0.242500 0.000000 -0.970100
vn -0.344300 -0.938900 0.000000
vn 0.000000 -0.000000 1.000000
vn 0.000000 -1.000000 -0.000000
vn 0.000000 0.000000 -1.000000
usemtl Alternate_Dirt

s 1
f 8/1/1 9/2/1 2/3/1 1/4/1
f 11/5/2 10/6/2 17/7/2 16/8/2
f 18/9/3 10/10/3 9/11/3 22/12/3
f 23/13/3 7/14/3 6/15/3 24/16/3
f 8/17/4 7/18/4 23/19/4
f 2/3/1 9/2/1 10/20/1 11/21/1
f 6/22/1 7/23/1 1/4/1 5/24/1
f 1/4/1 7/23/1 8/1/1
f 5/25/5 1/26/5 4/27/5 12/28/5
f 2/29/5 11/30/5 13/31/5 3/32/5
f 22/33/4 9/34/4 8/17/4
f 8/17/4 23/19/4 22/33/4
f 6/35/6 5/36/6 26/37/6 25/38/6
f 1/39/7 2/40/7 3/41/7 4/42/7
usemtl FrontColor

f 8/43/8 9/44/8 10/45/8
usemtl Grass

f 16/8/2 17/7/2 20/46/2 21/47/2
f 14/48/1 15/49/1 3/50/1
f 26/37/6 5/36/6 15/51/6 27/47/6
f 25/38/6 26/37/6 27/47/6
f 14/52/9 21/47/9 27/53/9 15/54/9
f 21/47/10 20/55/10 28/56/10 27/46/10
f 28/46/11 20/47/11 19/52/11 29/57/11
f 29/58/1 19/59/1 23/60/1
f 15/49/1 4/61/1 3/50/1
f 3/50/1 13/62/1 14/48/1
f 4/61/1 15/49/1 12/63/1
f 11/5/2 14/52/2 13/64/2
f 10/6/2 18/65/2 19/66/2
f 14/52/2 11/5/2 16/8/2
f 17/7/2 10/6/2 19/66/2
f 21/47/2 14/52/2 16/8/2
f 17/7/2 19/66/2 20/46/2
f 6/35/6 29/54/6 24/67/6
f 28/53/6 29/54/6 6/35/6 25/38/6
f 5/36/6 12/68/6 15/51/6
f 27/47/6 28/53/6 25/38/6
f 19/59/1 22/69/1 23/60/1
f 23/60/1 24/70/1 29/58/1
f 22/69/1 19/59/1 18/71/1
