# Blender v2.75 (sub 0) OBJ File: ''
# www.blender.org
mtllib roadTile_250.mtl
o Mesh1_Group1_Model.106
v 2.407630 0.600000 -0.804783
v 2.122790 0.600000 -0.892946
v 2.122790 1.730000 -0.892946
v 2.407630 1.730000 -0.804783
v 2.259150 0.600000 -2.903140
v 2.250000 0.600000 -3.000000
v 0.750000 0.600000 -3.000000
v 0.756827 0.600000 -2.701910
v 0.804783 0.600000 -2.407630
v 0.892946 0.600000 -2.122790
v 1.019630 0.600000 -1.852870
v 1.182390 0.600000 -1.603050
v 1.378120 0.600000 -1.378120
v 1.603050 0.600000 -1.182390
v 1.852870 0.600000 -1.019630
v 2.701910 0.600000 -0.756827
v 3.000000 0.600000 -0.750000
v 3.000000 0.600000 -2.250000
v 2.903140 0.600000 -2.259150
v 2.808190 0.600000 -2.280370
v 2.716650 0.600000 -2.313320
v 2.629960 0.600000 -2.357480
v 2.549490 0.600000 -2.412170
v 2.476510 0.600000 -2.476510
v 2.412170 0.600000 -2.549490
v 2.357480 0.600000 -2.629960
v 2.313320 0.600000 -2.716650
v 2.280370 0.600000 -2.808190
v 2.259150 1.730000 -2.903140
v 2.250000 1.730000 -3.000000
v 2.280370 1.730000 -2.808190
v 2.313320 1.730000 -2.716650
v 2.357480 1.730000 -2.629960
v 2.412170 1.730000 -2.549490
v 2.476510 1.730000 -2.476510
v 2.549490 1.730000 -2.412170
v 2.629960 1.730000 -2.357480
v 2.716650 1.730000 -2.313320
v 2.808190 1.730000 -2.280370
v 2.903140 1.730000 -2.259150
v 3.000000 1.730000 -2.250000
v 3.000000 0.000000 -3.000000
v 3.000000 1.730000 -3.000000
v 3.000000 0.300000 -2.250000
v 3.000000 0.300000 -0.750000
v 3.000000 1.730000 -0.750000
v 3.000000 1.730000 0.000000
v 3.000000 0.000000 0.000000
v 0.000000 0.000000 -3.000000
v 0.000000 1.730000 -3.000000
v 0.750000 1.730000 -3.000000
v 0.750000 0.300000 -3.000000
v 2.250000 0.300000 -3.000000
v 0.000000 0.000000 0.000000
v 0.000000 1.730000 0.000000
v 2.701910 1.730000 -0.756827
v 1.852870 1.730000 -1.019630
v 1.603050 1.730000 -1.182390
v 1.378120 1.730000 -1.378120
v 1.182390 1.730000 -1.603050
v 1.019630 1.730000 -1.852870
v 0.892946 1.730000 -2.122790
v 0.804783 1.730000 -2.407630
v 0.756827 1.730000 -2.701910
vt -2.340590 0.600000
vt -2.243300 0.600000
vt -2.243300 1.730000
vt -2.340590 1.730000
vt -1.869890 0.600000
vt -1.772590 0.600000
vt -1.772590 1.730000
vt -1.869890 1.730000
vt -1.370450 0.600000
vt -1.273160 0.600000
vt -1.273160 1.730000
vt -1.370450 1.730000
vt -0.850161 0.600000
vt -0.752869 0.600000
vt -0.752869 1.730000
vt -0.850161 1.730000
vt -0.317230 0.600000
vt -0.219938 0.600000
vt -0.219938 1.730000
vt -0.317230 1.730000
vt 0.219938 0.600000
vt 0.317230 0.600000
vt 0.317230 1.730000
vt 0.219938 1.730000
vt 0.752869 0.600000
vt 0.850161 0.600000
vt 0.850161 1.730000
vt 0.752869 1.730000
vt 1.273160 0.600000
vt 1.370450 0.600000
vt 1.370450 1.730000
vt 1.273160 1.730000
vt 1.772590 0.600000
vt 1.869890 0.600000
vt 1.869890 1.730000
vt 1.772590 1.730000
vt 2.243300 0.600000
vt 2.340590 0.600000
vt 2.340590 1.730000
vt 2.243300 1.730000
vt 2.677860 0.600000
vt 2.775150 0.600000
vt 2.775150 1.730000
vt 2.677860 1.730000
vt 0.750000 0.600000
vt 0.750000 1.730000
vt 0.000000 1.730000
vt 0.000000 0.000000
vt 3.000000 0.000000
vt 2.250000 0.300000
vt 0.750000 0.300000
vt -3.000000 0.000000
vt -0.750000 0.300000
vt 3.000000 1.730000
vt -2.982040 0.600000
vt -2.683870 0.600000
vt -2.683870 1.730000
vt -2.982040 1.730000
vt 1.603050 1.182390
vt 1.378120 1.378120
vt -2.545010 0.600000
vt -2.246840 0.600000
vt -2.246840 1.730000
vt -2.545010 1.730000
vt -1.542300 0.600000
vt -1.244130 0.600000
vt -1.244130 1.730000
vt -1.542300 1.730000
vt -0.995851 0.600000
vt -0.697684 0.600000
vt -0.697684 1.730000
vt -0.995851 1.730000
vt -0.433156 0.600000
vt -0.134989 0.600000
vt -0.134989 1.730000
vt -0.433156 1.730000
vt 0.134989 0.600000
vt 0.433156 0.600000
vt 0.433156 1.730000
vt 0.134989 1.730000
vt 0.697684 0.600000
vt 0.995851 0.600000
vt 0.995851 1.730000
vt 0.697684 1.730000
vt 1.244130 0.600000
vt 1.542300 0.600000
vt 1.542300 1.730000
vt 1.244130 1.730000
vt 1.763840 0.600000
vt 2.062010 0.600000
vt 2.062010 1.730000
vt 1.763840 1.730000
vt 2.246840 0.600000
vt 2.545010 0.600000
vt 2.545010 1.730000
vt 2.246840 1.730000
vt 2.683870 0.600000
vt 2.982040 0.600000
vt 2.982040 1.730000
vt 2.683870 1.730000
vt -3.000000 1.730000
vt 3.000000 3.000000
vt 2.357480 2.629960
vt 2.412170 2.549490
vt -2.775150 0.600000
vt -2.677860 0.600000
vt -2.677860 1.730000
vt -2.775150 1.730000
vt 2.250000 1.730000
vt 2.250000 0.600000
vt -2.250000 0.600000
vt -2.250000 1.730000
vt -0.750000 1.730000
vt -0.750000 0.600000
vt -0.000000 3.000000
vt -3.000000 3.000000
vt -2.250000 0.300000
vt 0.892946 2.122790
vt 3.000000 0.750000
vt 2.701910 0.756827
vt 0.756827 2.701910
vt 0.750000 3.000000
vt 2.407630 0.804783
vt 0.804783 2.407630
vt 2.122790 0.892946
vt 1.852870 1.019630
vt 1.019630 1.852870
vt 1.182390 1.603050
vt 2.903140 2.259150
vt 3.000000 2.250000
vt 2.716650 2.313320
vt 2.808190 2.280370
vt 2.549490 2.412170
vt 2.629960 2.357480
vt 2.476510 2.476510
vt 2.313320 2.716650
vt 2.259150 2.903140
vt 2.280370 2.808190
vt 2.250000 3.000000
vt -2.062010 0.600000
vt -1.763840 0.600000
vt -1.763840 1.730000
vt -2.062010 1.730000
vn -0.987700 0.000000 0.156400
vn -0.960300 0.000000 0.278900
vn -0.917800 0.000000 0.397100
vn -0.860800 0.000000 0.509000
vn -0.790100 0.000000 0.612900
vn -0.707100 0.000000 0.707100
vn -0.612900 0.000000 0.790100
vn -0.509000 0.000000 0.860800
vn -0.397100 0.000000 0.917800
vn -0.278900 0.000000 0.960300
vn -0.156400 0.000000 0.987700
vn -0.094000 0.000000 0.995600
vn 1.000000 -0.000000 0.000000
vn 0.000000 0.000000 -1.000000
vn 0.000000 -0.000000 1.000000
vn 0.022900 0.000000 -0.999700
vn 0.092100 0.000000 -0.995800
vn 0.000000 1.000000 0.000000
vn 0.228800 0.000000 -0.973500
vn 0.361100 0.000000 -0.932500
vn 0.486500 0.000000 -0.873700
vn 0.602600 0.000000 -0.798000
vn 0.707100 0.000000 -0.707100
vn 0.798000 0.000000 -0.602600
vn 0.873700 0.000000 -0.486500
vn 0.932500 0.000000 -0.361100
vn 0.973500 0.000000 -0.228800
vn 0.995800 0.000000 -0.092100
vn 0.999700 0.000000 -0.022900
vn -1.000000 -0.000000 0.000000
vn -0.995600 0.000000 0.094000
vn 0.000000 -1.000000 -0.000000
usemtl Stone.092
s 1
f 5/1/1 28/2/2 31/3/2 29/4/1
f 28/5/2 27/6/3 32/7/3 31/8/2
f 27/9/3 26/10/4 33/11/4 32/12/3
f 26/13/4 25/14/5 34/15/5 33/16/4
f 25/17/5 24/18/6 35/19/6 34/20/5
f 24/21/6 23/22/7 36/23/7 35/24/6
f 23/25/7 22/26/8 37/27/8 36/28/7
f 22/29/8 21/30/9 38/31/9 37/32/8
f 21/33/9 20/34/10 39/35/10 38/36/9
f 20/37/10 19/38/11 40/39/11 39/40/10
f 19/41/11 18/42/12 41/43/12 40/44/11
f 17/45/13 46/46/13 47/47/13 48/48/13
f 42/49/13 44/50/13 45/51/13
f 42/52/14 49/48/14 52/53/14
f 54/48/15 48/49/15 47/54/15 55/47/15
f 17/55/16 16/56/17 56/57/17 46/58/16
f 55/48/18 58/59/18 59/60/18
f 16/61/17 1/62/19 4/63/19 56/64/17
f 2/65/20 15/66/21 57/67/21 3/68/20
f 15/69/21 14/70/22 58/71/22 57/72/21
f 14/73/22 13/74/23 59/75/23 58/76/22
f 13/77/23 12/78/24 60/79/24 59/80/23
f 12/81/24 11/82/25 61/83/25 60/84/24
f 11/85/25 10/86/26 62/87/26 61/88/25
f 10/89/26 9/90/27 63/91/27 62/92/26
f 9/93/27 8/94/28 64/95/28 63/96/27
f 8/97/28 7/98/29 51/99/29 64/100/28
f 49/52/30 54/48/30 55/47/30 50/101/30
f 43/102/18 33/103/18 34/104/18
f 6/105/31 5/106/1 29/107/1 30/108/31
f 42/49/13 43/54/13 41/109/13 18/110/13
f 42/52/14 6/111/14 30/112/14 43/101/14
f 45/51/13 17/45/13 48/48/13
f 42/49/13 18/110/13 44/50/13
f 45/51/13 48/48/13 42/49/13
f 49/48/14 50/47/14 51/113/14 7/114/14
f 49/48/14 7/114/14 52/53/14
f 49/115/32 42/116/32 48/52/32 54/48/32
f 53/117/14 6/111/14 42/52/14
f 52/53/14 53/117/14 42/52/14
f 62/118/18 50/115/18 55/48/18
f 47/49/18 46/119/18 56/120/18
f 64/121/18 51/122/18 50/115/18
f 47/49/18 56/120/18 4/123/18
f 63/124/18 64/121/18 50/115/18
f 47/49/18 4/123/18 3/125/18
f 62/118/18 63/124/18 50/115/18
f 55/48/18 3/125/18 57/126/18
f 61/127/18 62/118/18 55/48/18
f 55/48/18 57/126/18 58/59/18
f 60/128/18 61/127/18 55/48/18
f 55/48/18 47/49/18 3/125/18
f 59/60/18 60/128/18 55/48/18
f 43/102/18 40/129/18 41/130/18
f 43/102/18 38/131/18 39/132/18
f 43/102/18 36/133/18 37/134/18
f 43/102/18 34/104/18 35/135/18
f 43/102/18 32/136/18 33/103/18
f 43/102/18 29/137/18 31/138/18
f 29/137/18 43/102/18 30/139/18
f 43/102/18 39/132/18 40/129/18
f 43/102/18 35/135/18 36/133/18
f 43/102/18 31/138/18 32/136/18
f 37/134/18 38/131/18 43/102/18
f 1/140/19 2/141/20 3/142/20 4/143/19
usemtl Asphalt.078
f 19/129/18 16/120/18 17/119/18 18/130/18
f 6/111/14 53/117/14 52/53/14 7/114/14
f 17/45/13 45/51/13 44/50/13 18/110/13
f 8/121/18 5/137/18 6/139/18 7/122/18
f 20/132/18 1/123/18 16/120/18 19/129/18
f 21/131/18 2/125/18 1/123/18 20/132/18
f 8/121/18 9/124/18 28/138/18 5/137/18
f 22/134/18 15/126/18 2/125/18 21/131/18
f 23/133/18 14/59/18 15/126/18 22/134/18
f 9/124/18 10/118/18 27/136/18 28/138/18
f 24/135/18 13/60/18 14/59/18 23/133/18
f 26/103/18 27/136/18 10/118/18 11/127/18
f 25/104/18 26/103/18 11/127/18 12/128/18
f 24/135/18 25/104/18 12/128/18 13/60/18
