# Blender v2.75 (sub 0) OBJ File: ''
# www.blender.org
mtllib roadTile_237.mtl
o Mesh1_Group1_Model.107
v 0.000000 1.150000 -2.250000
v 3.000000 0.600000 -2.250000
v 3.000000 0.630000 -2.250000
v 0.000000 1.180000 -2.250000
v 0.000000 1.150000 -0.750000
v 3.000000 0.600000 -0.750000
v 0.000000 0.850000 -2.250000
v 0.000000 0.850000 -0.750000
v 0.000000 1.180000 -3.000000
v 0.000000 0.000000 -3.000000
v 0.000000 0.000000 -0.000000
v 0.000000 1.180000 0.000000
v 0.000000 1.180000 -0.750000
v 3.000000 0.000000 -3.000000
v 3.000000 0.630000 -3.000000
v 3.000000 0.000000 -0.000000
v 3.000000 0.300000 -2.250000
v 3.000000 0.300000 -0.750000
v 3.000000 0.630000 -0.750000
v 3.000000 0.630000 0.000000
vt -3.000000 -0.000000
vt -0.000000 -0.000000
vt -0.000000 1.180000
vt -3.000000 0.630000
vt -0.750000 0.850000
vt -0.000000 3.000000
vt -3.000000 3.000000
vt 0.750000 0.300000
vt 0.750000 0.600000
vt 0.000000 0.630000
vt 3.000000 0.000000
vt -3.000000 0.600000
vt -0.000000 1.150000
vt 0.750000 0.212787
vt 0.000000 0.212787
vt 0.000000 -2.837210
vt 0.750000 -2.837210
vt 3.000000 0.630000
vt 2.250000 -2.837210
vt 3.000000 -2.837210
vt 3.000000 0.212787
vt 2.250000 0.212787
vt -2.250000 1.150000
vt -2.250000 1.180000
vt -3.000000 1.180000
vt -0.750000 1.150000
vt -2.250000 0.850000
vt -0.750000 1.180000
vt 2.250000 0.600000
vt 2.250000 0.630000
vt 2.250000 0.300000
vt 0.750000 0.630000
vt 3.000000 0.600000
vt 2.250000 -2.842620
vt 2.250000 0.207377
vt 0.750000 0.207377
vt 0.750000 -2.842620
vn 0.000000 0.000000 -1.000000
vn -1.000000 -0.000000 -0.000000
vn 0.000000 -1.000000 -0.000000
vn 1.000000 0.000000 0.000000
vn 0.180300 0.983600 0.000000
vn 0.000000 -0.000000 1.000000
usemtl Stone.093
s 1
f 14/1/1 10/2/1 9/3/1 15/4/1
f 10/1/2 11/2/2 8/5/2
f 11/2/3 10/6/3 14/7/3 16/1/3
f 18/8/4 6/9/4 20/10/4 16/2/4
f 14/11/4 18/8/4 16/2/4
f 6/12/1 5/13/1 13/3/1 19/4/1
f 13/14/5 12/15/5 20/16/5 19/17/5
f 12/3/6 11/2/6 16/11/6 20/18/6
f 3/19/5 15/20/5 9/21/5 4/22/5
f 1/23/2 4/24/2 9/25/2
f 12/3/2 5/26/2 8/5/2
f 7/27/2 1/23/2 9/25/2
f 12/3/2 13/28/2 5/26/2
f 7/27/2 9/25/2 10/1/2
f 11/2/2 12/3/2 8/5/2
f 8/5/2 7/27/2 10/1/2
f 2/29/4 15/18/4 3/30/4
f 14/11/4 15/18/4 2/29/4 17/31/4
f 6/9/4 19/32/4 20/10/4
f 18/8/4 14/11/4 17/31/4
f 4/3/6 1/13/6 2/33/6 3/18/6
usemtl Asphalt.079
f 2/34/5 1/35/5 5/36/5 6/37/5
f 1/23/2 7/27/2 8/5/2 5/26/2
f 2/29/4 6/9/4 18/8/4 17/31/4
