# Blender v2.75 (sub 0) OBJ File: ''
# www.blender.org
mtllib roadTile_072.mtl
o Mesh1_Group1_Model.002
v 0.595015 0.600000 -2.543430
v 0.649519 0.600000 -2.625000
v 0.649519 0.630000 -2.625000
v 0.595015 0.630000 -2.543430
v 3.000000 0.600000 -3.000000
v 0.750000 0.600000 -3.000000
v 0.743584 0.600000 -2.902110
v 0.724444 0.600000 -2.805890
v 0.692910 0.600000 -2.712990
v 0.530330 0.600000 -2.469670
v 0.456571 0.600000 -2.404980
v 0.375000 0.600000 -2.350480
v 0.287013 0.600000 -2.307090
v 0.194114 0.600000 -2.275560
v 0.097895 0.600000 -2.256420
v 0.000000 0.600000 -2.250000
v 0.000000 0.600000 0.000000
v 3.000000 0.600000 0.000000
v 3.000000 0.300000 -3.000000
v 0.750000 0.300000 -3.000000
v 3.000000 0.300000 0.000000
v 0.000000 0.300000 0.000000
v 0.000000 0.300000 -2.250000
v 0.000000 0.630000 -2.250000
v 0.000000 0.630000 -3.000000
v 0.000000 0.000000 -3.000000
v 0.000000 0.000000 0.000000
v 0.097895 0.630000 -2.256420
v 0.194114 0.630000 -2.275560
v 0.287013 0.630000 -2.307090
v 0.375000 0.630000 -2.350480
v 0.456571 0.630000 -2.404980
v 0.530330 0.630000 -2.469670
v 0.692910 0.630000 -2.712990
v 0.724444 0.630000 -2.805890
v 0.743584 0.630000 -2.902110
v 0.750000 0.630000 -3.000000
v 3.000000 0.000000 -3.000000
v 3.000000 0.000000 -0.000000
vt -2.250000 0.300000
vt -2.250000 0.600000
vt -3.000000 0.630000
vt -3.000000 -0.000000
vt 0.536219 0.600000
vt 0.634323 0.600000
vt 0.634323 0.630000
vt 0.536219 0.630000
vt 0.915266 0.600000
vt 1.013370 0.600000
vt 1.013370 0.630000
vt 0.915266 0.630000
vt 1.277810 0.600000
vt 1.375920 0.600000
vt 1.375920 0.630000
vt 1.277810 0.630000
vt 1.617660 0.600000
vt 1.715760 0.600000
vt 1.715760 0.630000
vt 1.617660 0.630000
vt 1.928990 0.600000
vt 2.027090 0.600000
vt 2.027090 0.630000
vt 1.928990 0.630000
vt 2.206470 0.600000
vt 2.304570 0.600000
vt 2.304570 0.630000
vt 2.206470 0.630000
vt 2.641570 0.600000
vt 2.739670 0.600000
vt 2.739670 0.630000
vt 2.641570 0.630000
vt 0.000000 3.000000
vt 0.456571 2.404980
vt 0.530330 2.469670
vt 2.791740 0.600000
vt 2.889840 0.600000
vt 2.889840 0.630000
vt 2.791740 0.630000
vt 2.893300 0.600000
vt 2.991410 0.600000
vt 2.991410 0.630000
vt 2.893300 0.630000
vt 2.944520 0.600000
vt 3.042630 0.600000
vt 3.042630 0.630000
vt 2.944520 0.630000
vt -0.750000 0.300000
vt -0.000000 -0.000000
vt -0.000000 0.630000
vt -0.750000 0.600000
vt 3.000000 0.000000
vt 3.000000 0.300000
vt 0.000000 0.300000
vt 0.147157 0.600000
vt 0.245262 0.600000
vt 0.245262 0.630000
vt 0.147157 0.630000
vt -2.250000 0.630000
vt 0.743584 2.902110
vt 0.750000 3.000000
vt 0.724444 2.805890
vt 0.649519 2.625000
vt 0.692910 2.712990
vt 0.595015 2.543430
vt 0.375000 2.350480
vt 0.194114 2.275560
vt 0.287013 2.307090
vt -0.000000 2.250000
vt 0.097895 2.256420
vt -0.750000 0.630000
vt -3.000000 0.300000
vt 2.445360 0.600000
vt 2.543460 0.600000
vt 2.543460 0.630000
vt 2.445360 0.630000
vt -3.000000 0.600000
vt 0.000000 0.600000
vt 3.000000 0.600000
vt -3.000000 3.000000
vt 3.000000 3.000000
vn -1.000000 -0.000000 -0.000000
vn 0.130500 0.000000 0.991400
vn 0.258800 0.000000 0.965900
vn 0.382700 0.000000 0.923900
vn 0.500000 0.000000 0.866000
vn 0.608800 0.000000 0.793400
vn 0.707100 0.000000 0.707100
vn 0.793400 0.000000 0.608800
vn 0.866000 0.000000 0.500000
vn 0.923900 0.000000 0.382700
vn 0.000000 1.000000 -0.000000
vn 0.965900 0.000000 0.258800
vn 0.991400 0.000000 0.130500
vn 0.997900 0.000000 0.065400
vn 0.000000 0.000000 -1.000000
vn 0.000000 -0.000000 1.000000
vn 0.065400 0.000000 0.997900
vn 1.000000 0.000000 0.000000
vn 0.000000 -1.000000 -0.000000
usemtl Stone.001
s 1
f 23/1/1 16/2/1 25/3/1 26/4/1
f 15/5/2 14/6/3 29/7/3 28/8/2
f 14/9/3 13/10/4 30/11/4 29/12/3
f 13/13/4 12/14/5 31/15/5 30/16/4
f 12/17/5 11/18/6 32/19/6 31/20/5
f 11/21/6 10/22/7 33/23/7 32/24/6
f 10/25/7 1/26/8 4/27/8 33/28/7
f 2/29/9 9/30/10 34/31/10 3/32/9
f 25/33/11 32/34/11 33/35/11
f 9/36/10 8/37/12 35/38/12 34/39/10
f 8/40/12 7/41/13 36/42/13 35/43/12
f 7/44/13 6/45/14 37/46/14 36/47/13
f 20/48/15 26/49/15 25/50/15 6/51/15
f 39/52/16 21/53/16 22/54/16 27/49/16
f 23/1/1 27/49/1 22/54/1
f 16/55/17 15/56/2 28/57/2 24/58/17
f 25/3/1 16/2/1 24/59/1
f 26/4/1 27/49/1 23/1/1
f 36/60/11 37/61/11 25/33/11
f 25/33/11 35/62/11 36/60/11
f 25/33/11 3/63/11 34/64/11
f 25/33/11 33/35/11 4/65/11
f 25/33/11 31/66/11 32/34/11
f 25/33/11 29/67/11 30/68/11
f 25/33/11 24/69/11 28/70/11
f 34/64/11 35/62/11 25/33/11
f 25/33/11 4/65/11 3/63/11
f 25/33/11 30/68/11 31/66/11
f 29/67/11 25/33/11 28/70/11
f 25/50/15 37/71/15 6/51/15
f 20/48/15 38/4/15 26/49/15
f 38/52/18 19/53/18 21/54/18 39/49/18
f 20/48/15 19/72/15 38/4/15
f 1/73/8 2/74/9 3/75/9 4/76/8
usemtl Asphalt.001
f 5/77/15 19/72/15 20/48/15 6/51/15
f 18/52/11 10/35/11 11/34/11
f 18/78/18 21/54/18 19/53/18 5/79/18
f 17/78/16 22/54/16 21/53/16 18/79/16
f 16/2/1 23/1/1 22/54/1 17/78/1
f 39/4/19 27/49/19 26/33/19 38/80/19
f 1/65/11 18/52/11 5/81/11
f 15/70/11 16/69/11 17/49/11
f 5/81/11 6/61/11 7/60/11
f 14/67/11 15/70/11 17/49/11
f 5/81/11 7/60/11 8/62/11
f 13/68/11 14/67/11 17/49/11
f 5/81/11 8/62/11 9/64/11
f 12/66/11 13/68/11 17/49/11
f 5/81/11 9/64/11 2/63/11
f 11/34/11 12/66/11 17/49/11
f 5/81/11 2/63/11 1/65/11
f 18/52/11 11/34/11 17/49/11
f 18/52/11 1/65/11 10/35/11
