# Blender v2.75 (sub 0) OBJ File: ''
# www.blender.org
mtllib roadTile_261.mtl
o Mesh1_Group1_Model.273
v 3.000000 0.630000 -1.875000
v 3.000000 0.630000 -2.250000
v 0.000000 1.730000 -2.250000
v 0.000000 1.730000 -1.875000
v 3.000000 0.630000 0.000000
v 3.000000 0.000000 -0.000000
v 3.000000 0.000000 -2.250000
v 3.000000 0.600000 -1.875000
v 3.000000 0.300000 -1.875000
v 3.000000 0.300000 -0.375000
v 3.000000 0.600000 -0.375000
v 3.000000 0.630000 -0.375000
v 1.500000 0.000000 -0.000000
v 0.000000 1.730000 0.000000
v 0.000000 1.100000 0.000000
v 1.500000 0.550000 0.000000
v 1.500000 0.000000 -2.250000
v 1.500000 0.550000 -2.250000
v 0.000000 1.100000 -2.250000
v 0.000000 1.730000 -0.375000
v 0.000000 1.700000 -0.375000
v 0.000000 1.400000 -0.375000
v 0.000000 1.400000 -1.875000
v 0.000000 1.700000 -1.875000
vt 2.250000 0.000000
vt 2.250000 0.630000
vt 1.875000 0.600000
vt 1.875000 0.300000
vt 0.000000 -0.000000
vt -0.000000 0.550000
vt -2.250000 0.550000
vt -2.250000 0.000000
vt -0.000000 -1.218970
vt -0.000000 0.378680
vt -2.250000 0.378680
vt -2.250000 -1.218970
vt -0.000000 1.100000
vt -0.000000 1.730000
vt -0.375000 1.700000
vt -0.375000 1.400000
vt -1.875000 1.400000
vt -1.500000 0.550000
vt -3.000000 0.630000
vt -3.000000 0.600000
vt -0.000000 1.700000
vt 3.000000 0.600000
vt 3.000000 0.630000
vt 0.375000 0.600000
vt 0.375000 0.630000
vt 0.000000 0.630000
vt 0.375000 0.300000
vt 3.000000 0.000000
vt 1.500000 0.550000
vt 1.500000 -0.000000
vt 1.875000 0.630000
vt -1.500000 0.000000
vt -1.500000 2.250000
vt -3.000000 2.250000
vt -3.000000 0.000000
vt -1.875000 1.700000
vt -1.875000 1.730000
vt -2.250000 1.730000
vt -2.250000 1.100000
vt -0.375000 1.730000
vt 0.375000 0.595561
vt 0.000000 0.595561
vt 0.000000 -2.599750
vt 0.375000 -2.599750
vt 1.875000 -2.599750
vt 2.250000 -2.599750
vt 2.250000 0.595561
vt 1.875000 0.595561
vt 1.875000 -2.610080
vt 1.875000 0.585233
vt 0.375000 0.585233
vt 0.375000 -2.610080
vn 1.000000 0.000000 0.000000
vn -1.000000 0.000000 0.000000
vn -0.344300 -0.938900 -0.000000
vn -0.000000 0.000000 -1.000000
vn 0.000000 0.000000 1.000000
vn -0.000000 -1.000000 -0.000000
vn 0.344300 0.938900 0.000000
usemtl Stone.237
s 1
f 7/1/1 2/2/1 8/3/1 9/4/1
f 6/5/1 7/1/1 9/4/1
f 13/5/2 16/6/2 18/7/2 17/8/2
f 16/9/3 15/10/3 19/11/3 18/12/3
f 15/13/2 14/14/2 21/15/2 22/16/2
f 23/17/2 15/13/2 22/16/2
f 18/18/4 3/14/4 2/19/4
f 11/20/4 21/21/4 20/14/4 12/19/4
f 4/14/5 24/21/5 8/22/5 1/23/5
f 11/24/1 12/25/1 5/26/1
f 5/26/1 6/5/1 10/27/1 11/24/1
f 6/28/5 5/23/5 16/29/5 13/30/5
f 2/2/1 1/31/1 8/3/1
f 9/4/1 10/27/1 6/5/1
f 14/14/5 15/13/5 16/29/5
f 13/32/6 17/33/6 7/34/6 6/35/6
f 16/29/5 5/23/5 14/14/5
f 24/36/2 4/37/2 3/38/2
f 3/38/2 19/39/2 23/17/2 24/36/2
f 18/18/4 2/19/4 7/35/4 17/32/4
f 14/14/2 20/40/2 21/15/2
f 15/13/2 23/17/2 19/39/2
f 20/41/7 14/42/7 5/43/7 12/44/7
f 18/18/4 19/13/4 3/14/4
f 1/45/7 2/46/7 3/47/7 4/48/7
usemtl Asphalt.195
f 8/49/7 24/50/7 21/51/7 11/52/7
f 21/15/2 24/36/2 23/17/2 22/16/2
f 8/3/1 11/24/1 10/27/1 9/4/1
