# Blender v2.75 (sub 0) OBJ File: ''
# www.blender.org
mtllib roadTile_122.mtl
o Mesh1_Group1_Model.165
v 1.902300 0.630000 -2.082340
v 2.127070 0.630000 -2.625000
v 2.127070 0.600000 -2.625000
v 1.902300 0.600000 -2.082340
v 2.575630 0.630000 0.000000
v 2.575630 0.630000 -0.401164
v 2.451830 0.630000 -0.562500
v 2.264520 0.630000 -1.014710
v 2.200630 0.630000 -1.500000
v 2.264520 0.630000 -1.985290
v 2.451830 0.630000 -2.437500
v 2.575630 0.630000 -2.598840
v 2.575630 0.630000 -3.000000
v 2.414820 0.630000 -3.000000
v 1.825630 0.630000 -1.500000
v 1.902300 0.630000 -0.917657
v 2.127070 0.630000 -0.375000
v 2.414820 0.630000 0.000000
v 2.575630 0.000000 0.000000
v 2.575630 0.000000 -0.401164
v 0.323261 0.630000 0.000000
v 0.323261 0.000000 -0.000000
v 2.414820 0.600000 0.000000
v 2.414820 0.315000 0.000000
v 0.672705 0.315000 0.000000
v 0.672705 0.600000 0.000000
v 0.672705 0.630000 0.000000
v 0.138874 0.630000 -0.445149
v 0.138874 0.000000 -0.445149
v 0.672705 0.630000 -3.000000
v 0.323261 0.630000 -3.000000
v 0.138874 0.630000 -2.554850
v 0.000000 0.630000 -1.500000
v 0.453408 0.630000 -0.529429
v 0.325630 0.630000 -1.500000
v 0.453408 0.630000 -2.470570
v 2.575630 0.000000 -3.000000
v 0.323261 0.000000 -3.000000
v 0.672705 0.600000 -3.000000
v 0.672705 0.315000 -3.000000
v 2.414820 0.315000 -3.000000
v 2.414820 0.600000 -3.000000
v 0.000000 0.000000 -1.500000
v 0.138874 0.000000 -2.554850
v 2.575630 0.000000 -2.598840
v 2.451830 0.000000 -2.437500
v 2.264520 0.000000 -1.985290
v 2.200630 0.000000 -1.500000
v 2.264520 0.000000 -1.014710
v 2.451830 0.000000 -0.562500
v 0.453408 0.600000 -2.470570
v 0.325630 0.600000 -1.500000
v 0.453408 0.600000 -0.529429
v 2.127070 0.600000 -0.375000
v 1.902300 0.600000 -0.917657
v 1.825630 0.600000 -1.500000
vt 2.127070 0.375000
vt 2.414820 0.000000
vt 2.575630 -0.000000
vt 2.575630 0.401164
vt 0.123706 0.630000
vt -0.358120 0.630000
vt -0.358120 -0.000000
vt 0.123706 0.000000
vt 0.672705 0.315000
vt 2.414820 0.315000
vt 0.453408 0.529429
vt 0.138874 0.445149
vt 0.323261 0.000000
vt 0.672705 0.000000
vt -2.575630 0.000000
vt -0.323261 0.000000
vt -0.672705 0.315000
vt -1.487170 0.630000
vt -2.551120 0.630000
vt -2.551120 0.000000
vt -1.487170 0.000000
vt -2.413520 0.630000
vt -2.895350 0.630000
vt -2.895350 0.000000
vt -2.413520 0.000000
vt 2.598840 0.000000
vt 3.000000 0.000000
vt 3.000000 0.630000
vt 2.598840 0.630000
vt 3.629740 0.630000
vt 3.426380 0.630000
vt 3.426380 -0.000000
vt 3.629740 0.000000
vt 3.190230 0.630000
vt 2.700760 0.630000
vt 2.700760 -0.000000
vt 3.190230 -0.000000
vt 2.263880 0.630000
vt 1.774410 0.630000
vt 1.774410 -0.000000
vt 2.263880 -0.000000
vt 1.199930 0.630000
vt 0.710454 0.630000
vt 0.710454 -0.000000
vt 1.199930 -0.000000
vt 0.070880 0.630000
vt -0.418594 0.630000
vt -0.418594 -0.000000
vt 0.070880 -0.000000
vt -1.046320 0.630000
vt -1.249680 0.630000
vt -1.249680 -0.000000
vt -1.046320 -0.000000
vt 3.029070 0.630000
vt 2.456020 0.630000
vt 2.456020 0.600000
vt 3.029070 0.600000
vt 2.508620 0.630000
vt 1.529670 0.630000
vt 1.529670 0.600000
vt 2.508620 0.600000
vt 1.444660 0.630000
vt 0.465718 0.630000
vt 0.465718 0.600000
vt 1.444660 0.600000
vt 0.315616 0.630000
vt -0.257433 0.630000
vt -0.257433 0.600000
vt 0.315616 0.600000
vt 1.470050 0.630000
vt 0.997373 0.630000
vt 0.997373 0.600000
vt 1.470050 0.600000
vt 0.467541 0.630000
vt -0.119827 0.630000
vt -0.119827 0.600000
vt 0.467541 0.600000
vt -0.661507 0.630000
vt -1.248870 0.630000
vt -1.248870 0.600000
vt -0.661507 0.600000
vt -1.725460 0.630000
vt -2.312830 0.630000
vt -2.312830 0.600000
vt -1.725460 0.600000
vt 2.451830 0.562500
vt 2.264520 1.014710
vt 1.902300 0.917657
vt 2.200630 1.500000
vt 2.264520 1.985290
vt 1.902300 2.082340
vt 1.825630 1.500000
vt 2.575630 2.598840
vt 2.575630 3.000000
vt 2.414820 3.000000
vt 2.127070 2.625000
vt 2.451830 2.437500
vt 0.401164 0.630000
vt -0.000000 0.630000
vt -0.000000 0.000000
vt 0.401164 -0.000000
vt 0.672705 0.600000
vt 0.672705 0.630000
vt 0.323261 0.630000
vt 2.575630 0.630000
vt 2.414820 0.600000
vt 2.414820 0.630000
vt 0.138874 2.554850
vt 0.453408 2.470570
vt 0.672705 3.000000
vt 0.323261 3.000000
vt 0.325630 1.500000
vt -0.000000 1.500000
vt -2.264520 1.985290
vt -0.138874 2.554850
vt -0.323261 3.000000
vt -2.451830 2.437500
vt -2.414820 0.315000
vt -2.575630 0.630000
vt -2.414820 0.600000
vt -2.414820 0.630000
vt -0.323261 0.630000
vt -0.672705 0.630000
vt -0.672705 0.600000
vt -2.451830 0.562500
vt -2.575630 0.401164
vt -2.575630 3.000000
vt -2.575630 2.598840
vt -0.138874 0.445149
vt -2.264520 1.014710
vt -2.200630 1.500000
vt -0.423214 0.630000
vt -0.423214 -0.000000
vt -3.377430 0.630000
vt -3.850110 0.630000
vt -3.850110 0.600000
vt -3.377430 0.600000
vt -2.651810 0.630000
vt -3.239180 0.630000
vt -3.239180 0.600000
vt -2.651810 0.600000
vn 0.000000 1.000000 0.000000
vn -0.923900 0.000000 0.382700
vn -0.965900 -0.000000 0.258800
vn -0.000000 -0.000000 1.000000
vn 0.000000 0.000000 -1.000000
vn -1.000000 -0.000000 -0.000000
vn -0.965900 0.000000 -0.258800
vn -0.923900 0.000000 -0.382700
vn 1.000000 0.000000 0.000000
vn 0.793400 0.000000 0.608800
vn 0.866000 0.000000 0.500000
vn 0.965900 0.000000 0.258800
vn 0.965900 0.000000 -0.258800
vn 0.866000 0.000000 -0.500000
vn 0.793300 0.000000 -0.608800
vn 0.923900 0.000000 0.382700
vn 0.923900 0.000000 -0.382700
vn -0.793400 0.000000 0.608800
vn -0.866000 0.000000 0.500000
vn -0.000000 -1.000000 -0.000000
vn -0.866000 0.000000 -0.500000
vn -0.793400 0.000000 -0.608800
usemtl Stone.145
s 1
f 17/1/1 18/2/1 5/3/1 6/4/1
f 21/5/2 28/6/3 29/7/3 22/8/2
f 25/9/4 19/3/4 24/10/4
f 34/11/1 28/12/1 21/13/1 27/14/1
f 37/15/5 38/16/5 40/17/5
f 33/18/6 32/19/7 44/20/7 43/21/6
f 32/22/7 31/23/8 38/24/8 44/25/7
f 45/26/9 37/27/9 13/28/9 12/29/9
f 12/30/10 11/31/11 46/32/11 45/33/10
f 11/34/11 10/35/12 47/36/12 46/37/11
f 10/38/12 9/39/9 48/40/9 47/41/12
f 9/42/9 8/43/13 49/44/13 48/45/9
f 8/46/13 7/47/14 50/48/14 49/49/13
f 7/50/14 6/51/15 20/52/15 50/53/14
f 30/54/16 36/55/12 51/56/12 39/57/16
f 36/58/12 35/59/9 52/60/9 51/61/12
f 35/62/9 34/63/13 53/64/13 52/65/9
f 34/66/13 27/67/17 26/68/17 53/69/13
f 18/70/18 17/71/19 54/72/19 23/73/18
f 17/74/19 16/75/3 55/76/3 54/77/19
f 16/78/3 15/79/6 56/80/6 55/81/3
f 15/82/6 1/83/7 4/84/7 56/85/6
f 17/1/1 7/86/1 8/87/1 16/88/1
f 9/89/1 10/90/1 1/91/1 15/92/1
f 12/93/1 13/94/1 14/95/1 2/96/1
f 1/91/1 10/90/1 11/97/1 2/96/1
f 17/1/1 6/4/1 7/86/1
f 2/96/1 11/97/1 12/93/1
f 9/89/1 15/92/1 16/88/1 8/87/1
f 6/98/9 5/99/9 19/100/9 20/101/9
f 26/102/4 27/103/4 21/104/4
f 5/105/4 23/106/4 24/10/4
f 25/9/4 26/102/4 21/104/4
f 5/105/4 18/107/4 23/106/4
f 25/9/4 21/104/4 22/13/4
f 19/3/4 5/105/4 24/10/4
f 19/3/4 25/9/4 22/13/4
f 32/108/1 36/109/1 30/110/1 31/111/1
f 35/112/1 33/113/1 28/12/1 34/11/1
f 35/112/1 36/109/1 32/108/1 33/113/1
f 47/114/20 44/115/20 38/116/20 46/117/20
f 41/118/5 13/119/5 37/15/5
f 13/119/5 42/120/5 14/121/5
f 31/122/5 30/123/5 39/124/5
f 41/118/5 42/120/5 13/119/5
f 31/122/5 39/124/5 40/17/5
f 40/17/5 41/118/5 37/15/5
f 38/16/5 31/122/5 40/17/5
f 50/125/20 20/126/20 19/15/20
f 37/127/20 45/128/20 46/117/20
f 22/16/20 50/125/20 19/15/20
f 29/129/20 49/130/20 50/125/20 22/16/20
f 48/131/20 43/113/20 44/115/20 47/114/20
f 38/116/20 37/127/20 46/117/20
f 48/131/20 49/130/20 29/129/20 43/113/20
f 28/132/3 33/18/6 43/21/6 29/133/3
f 2/134/21 14/135/22 42/136/22 3/137/21
f 1/138/7 2/139/21 3/140/21 4/141/7
usemtl Asphalt.124
f 55/88/1 53/11/1 26/14/1 54/1/1
f 40/17/5 39/124/5 42/120/5 41/118/5
f 24/10/4 23/106/4 26/102/4 25/9/4
f 26/14/1 23/2/1 54/1/1
f 3/96/1 42/95/1 39/110/1
f 51/109/1 4/91/1 3/96/1 39/110/1
f 56/92/1 52/112/1 53/11/1 55/88/1
f 56/92/1 4/91/1 51/109/1 52/112/1
