# Blender v2.75 (sub 0) OBJ File: ''
# www.blender.org
mtllib roadTile_195.mtl
o Mesh1_Group1_Model.295
v 3.000000 0.000000 -0.000000
v 0.000000 0.000000 0.000000
v 0.000000 0.000000 -0.750000
v 0.000000 0.000000 -2.250000
v 0.000000 0.000000 -3.000000
v 3.000000 0.000000 -3.000000
v 3.000000 0.000000 -2.250000
v 3.000000 0.000000 -0.750000
v 0.000000 1.650000 0.000000
v 3.000000 1.650000 0.000000
v 0.000000 1.650000 -0.750000
v 0.000000 0.455000 -0.750000
v 3.000000 1.650000 -0.750000
v 3.000000 0.455000 -0.750000
v 3.000000 0.455000 -2.250000
v 3.000000 1.650000 -2.250000
v 3.000000 1.650000 -3.000000
v 0.000000 1.650000 -2.250000
v 0.000000 0.455000 -2.250000
v 0.000000 1.650000 -3.000000
vt 0.000000 2.250000
vt 0.000000 0.750000
vt 3.000000 0.750000
vt 3.000000 2.250000
vt 0.750000 0.000000
vt 2.250000 0.000000
vt 2.250000 0.455000
vt 0.750000 0.455000
vt -2.250000 -0.000000
vt -0.750000 -0.000000
vt -0.750000 0.455000
vt -2.250000 0.455000
vt 0.000000 0.000000
vt 0.000000 1.650000
vt -0.750000 1.650000
vt 3.000000 0.000000
vt 0.750000 1.650000
vt 3.000000 1.650000
vt 2.250000 1.650000
vt -0.000000 3.000000
vt 3.000000 3.000000
vt -2.250000 1.650000
vt -3.000000 1.650000
vt -3.000000 0.000000
vt -3.000000 3.000000
vt -3.000000 2.250000
vt -3.000000 0.750000
vt -3.000000 0.455000
vt -0.000000 0.455000
vt 3.000000 0.455000
vn 0.000000 1.000000 0.000000
vn 1.000000 0.000000 0.000000
vn -1.000000 0.000000 0.000000
vn 0.000000 0.000000 -1.000000
vn 0.000000 -1.000000 -0.000000
vn 0.000000 -0.000000 1.000000
usemtl Water
s 1
f 19/1/1 12/2/1 14/3/1 15/4/1
f 8/5/2 7/6/2 15/7/2 14/8/2
f 4/9/3 3/10/3 12/11/3 19/12/3
usemtl Grass
f 12/11/3 2/13/3 9/14/3 11/15/3
f 10/16/1 13/3/1 11/2/1 9/13/1
f 14/8/2 13/17/2 10/14/2 1/13/2
f 1/13/2 8/5/2 14/8/2
f 15/7/2 6/16/2 17/18/2 16/19/2
f 20/20/1 18/1/1 16/4/1 17/21/1
f 19/12/3 18/22/3 20/23/3 5/24/3
f 5/24/3 4/9/3 19/12/3
f 17/23/4 6/24/4 5/13/4 20/14/4
f 4/1/5 5/20/5 6/25/5 7/26/5
f 4/1/5 7/26/5 8/27/5 3/2/5
f 9/14/6 2/13/6 1/16/6 10/18/6
f 11/14/4 13/23/4 14/28/4 12/29/4
f 12/11/3 3/10/3 2/13/3
f 16/18/6 18/14/6 19/29/6 15/30/6
f 15/7/2 7/6/2 6/16/2
f 1/24/5 2/13/5 3/2/5 8/27/5
