# Blender v2.75 (sub 0) OBJ File: ''
# www.blender.org
mtllib roadTile_216.mtl
o Mesh1_Group1_Model.032
v 0.000000 1.650000 -2.250000
v 0.000000 1.650000 -2.625000
v 0.000000 0.000000 -2.625000
v 0.000000 0.000000 -2.250000
v 0.000000 1.555000 -2.250000
v 3.000000 0.550000 -2.250000
v 3.000000 0.550000 -2.625000
v 3.000000 0.000000 -2.250000
v 3.000000 0.000000 -2.625000
v 3.000000 0.455000 -2.250000
v 0.000000 0.000000 -3.000000
v 3.000000 0.000000 -3.000000
v 3.000000 0.000000 -0.750000
v 3.000000 0.000000 -0.375000
v 3.000000 0.000000 -0.000000
v 0.000000 0.000000 -0.000000
v 0.000000 0.000000 -0.375000
v 0.000000 0.000000 -0.750000
v 0.000000 1.650000 -3.000000
v 3.000000 0.550000 -3.000000
v 3.000000 0.455000 -0.750000
v 0.000000 1.555000 -0.750000
v 0.000000 1.650000 -0.375000
v 0.000000 1.650000 -0.750000
v 0.000000 1.650000 0.000000
v 3.000000 0.550000 -0.000000
v 3.000000 0.550000 -0.375000
v 3.000000 0.550000 -0.750000
vt 2.625000 0.000000
vt 2.625000 0.550000
vt 2.250000 0.455000
vt 2.250000 0.000000
vt -0.375000 0.000000
vt -0.375000 1.650000
vt -0.750000 1.555000
vt -0.750000 0.000000
vt 0.750000 0.455000
vt 0.375000 0.550000
vt 0.375000 0.000000
vt 0.750000 0.000000
vt -3.000000 0.455000
vt -0.000000 1.555000
vt -0.000000 1.650000
vt -3.000000 0.550000
vt 3.000000 0.455000
vt 3.000000 0.550000
vt -2.625000 1.650000
vt -2.250000 1.555000
vt -2.250000 1.650000
vt 2.250000 -2.627290
vt 2.625000 -2.627290
vt 2.625000 0.568020
vt 2.250000 0.568020
vt 2.250000 0.550000
vt -0.750000 1.650000
vt 0.750000 0.550000
vt 0.750000 0.568020
vt 0.375000 0.568020
vt 0.375000 -2.627290
vt 0.750000 -2.627290
vt -2.625000 0.000000
vt -2.250000 0.000000
vt 2.250000 0.535316
vt 0.750000 0.535316
vt 0.750000 -2.659990
vt 2.250000 -2.659990
vt 3.000000 0.568020
vt 3.000000 -2.627290
vt 3.000000 0.000000
vt -3.000000 -0.000000
vt -0.000000 -0.000000
vt 0.000000 -2.627290
vt 0.000000 0.568020
vt 0.000000 0.550000
vt -0.000000 2.625000
vt -3.000000 2.625000
vt -3.000000 2.250000
vt -0.000000 2.250000
vt -0.000000 0.750000
vt -3.000000 0.750000
vt -3.000000 0.375000
vt -0.000000 0.375000
vt 0.000000 3.000000
vt -3.000000 3.000000
vt -3.000000 1.650000
vn 1.000000 0.000000 0.000000
vn -1.000000 0.000000 0.000000
vn 0.000000 0.000000 -1.000000
vn 0.000000 0.000000 1.000000
vn 0.344300 0.938900 -0.000000
vn 0.000000 -1.000000 -0.000000
usemtl Stone.028
s 1
f 9/1/1 7/2/1 10/3/1 8/4/1
f 17/5/2 23/6/2 22/7/2 18/8/2
f 21/9/1 27/10/1 14/11/1 13/12/1
f 21/13/3 22/14/3 24/15/3 28/16/3
f 10/17/4 6/18/4 1/15/4 5/14/4
f 2/19/2 5/20/2 1/21/2
f 6/22/5 7/23/5 2/24/5 1/25/5
f 10/3/1 7/2/1 6/26/1
f 22/7/2 23/6/2 24/27/2
f 27/10/1 21/9/1 28/28/1
f 24/29/5 23/30/5 27/31/5 28/32/5
f 5/20/2 2/19/2 3/33/2 4/34/2
usemtl Water.003
f 13/12/1 8/4/1 10/3/1 21/9/1
f 5/35/5 22/36/5 21/37/5 10/38/5
f 4/34/2 18/8/2 22/7/2 5/20/2
usemtl Grass.017
f 19/39/5 2/24/5 7/23/5 20/40/5
f 20/18/1 7/2/1 9/1/1 12/41/1
f 12/42/3 11/43/3 19/15/3 20/16/3
f 26/44/5 27/31/5 23/30/5 25/45/5
f 15/43/1 14/11/1 27/10/1 26/46/1
f 25/15/4 16/43/4 15/41/4 26/18/4
f 3/47/6 9/48/6 8/49/6 4/50/6
f 18/51/6 13/52/6 14/53/6 17/54/6
f 16/43/6 17/54/6 14/53/6 15/42/6
f 9/48/6 3/47/6 11/55/6 12/56/6
f 4/50/6 8/49/6 13/52/6 18/51/6
f 11/42/2 3/33/2 2/19/2 19/57/2
f 25/15/2 23/6/2 17/5/2 16/43/2
