# Blender v2.75 (sub 0) OBJ File: ''
# www.blender.org
mtllib roadTile_073.mtl
o Mesh1_Group1_Model.174
v 0.750000 0.600000 0.000000
v 0.769249 0.600000 -0.293684
v 0.769249 0.630000 -0.293684
v 0.750000 0.630000 0.000000
v 3.000000 0.600000 0.000000
v 3.000000 0.600000 -2.250000
v 2.706320 0.600000 -2.230750
v 2.417660 0.600000 -2.173330
v 2.138960 0.600000 -2.078730
v 1.875000 0.600000 -1.948560
v 1.630290 0.600000 -1.785050
v 1.409010 0.600000 -1.590990
v 1.214950 0.600000 -1.369710
v 1.051440 0.600000 -1.125000
v 0.921271 0.600000 -0.861038
v 0.826667 0.600000 -0.582343
v 3.000000 0.300000 -0.000000
v 3.000000 0.300000 -2.250000
v 0.750000 0.300000 0.000000
v 0.000000 0.630000 0.000000
v 0.000000 0.000000 -0.000000
v 3.000000 0.000000 -0.000000
v 0.826667 0.630000 -0.582343
v 0.921271 0.630000 -0.861038
v 1.051440 0.630000 -1.125000
v 1.214950 0.630000 -1.369710
v 1.409010 0.630000 -1.590990
v 1.630290 0.630000 -1.785050
v 1.875000 0.630000 -1.948560
v 2.138960 0.630000 -2.078730
v 2.417660 0.630000 -2.173330
v 2.706320 0.630000 -2.230750
v 3.000000 0.630000 -2.250000
v 3.000000 0.630000 -3.000000
v 0.000000 0.630000 -3.000000
v 3.000000 0.000000 -3.000000
v 0.000000 0.000000 -3.000000
vt 0.750000 0.300000
vt 0.750000 0.600000
vt 0.000000 0.630000
vt 0.000000 -0.000000
vt 1.214950 1.369710
vt 1.409010 1.590990
vt 0.000000 3.000000
vt 0.817161 0.600000
vt 1.111480 0.600000
vt 1.111480 0.630000
vt 0.817161 0.630000
vt 1.179710 0.600000
vt 1.474020 0.600000
vt 1.474020 0.630000
vt 1.179710 0.630000
vt 1.519550 0.600000
vt 1.813870 0.600000
vt 1.813870 0.630000
vt 1.519550 0.630000
vt 1.830880 0.600000
vt 2.125190 0.600000
vt 2.125190 0.630000
vt 1.830880 0.630000
vt 2.108360 0.600000
vt 2.402680 0.600000
vt 2.402680 0.630000
vt 2.108360 0.630000
vt 2.347250 0.600000
vt 2.641570 0.600000
vt 2.641570 0.630000
vt 2.347250 0.630000
vt 2.543460 0.600000
vt 2.837780 0.600000
vt 2.837780 0.630000
vt 2.543460 0.630000
vt 2.693630 0.600000
vt 2.987950 0.600000
vt 2.987950 0.630000
vt 2.693630 0.630000
vt 2.795200 0.600000
vt 3.089510 0.600000
vt 3.089510 0.630000
vt 2.795200 0.630000
vt 2.846420 0.600000
vt 3.140730 0.600000
vt 3.140730 0.630000
vt 2.846420 0.630000
vt 2.250000 0.300000
vt 3.000000 -0.000000
vt 3.000000 0.630000
vt 2.250000 0.600000
vt -3.000000 0.630000
vt -3.000000 0.000000
vt 3.000000 0.300000
vt 0.438114 0.600000
vt 0.732428 0.600000
vt 0.732428 0.630000
vt 0.438114 0.630000
vt 0.750000 0.630000
vt 2.138960 2.078730
vt 3.000000 3.000000
vt 0.769249 0.293684
vt 0.750000 -0.000000
vt 2.706320 2.230750
vt 3.000000 2.250000
vt 0.826667 0.582343
vt 2.417660 2.173330
vt 0.921271 0.861038
vt 1.875000 1.948560
vt 1.051440 1.125000
vt 1.630290 1.785050
vt 2.250000 0.630000
vt -3.000000 3.000000
vt 0.000000 0.300000
vt 0.049052 0.600000
vt 0.343366 0.600000
vt 0.343366 0.630000
vt 0.049052 0.630000
vt 0.000000 0.600000
vt 3.000000 0.600000
vn -0.000000 -0.000000 1.000000
vn 0.000000 1.000000 -0.000000
vn 0.965900 0.000000 0.258800
vn 0.923900 0.000000 0.382700
vn 0.866000 0.000000 0.500000
vn 0.793400 0.000000 0.608800
vn 0.707100 0.000000 0.707100
vn 0.608800 0.000000 0.793400
vn 0.500000 0.000000 0.866000
vn 0.382700 0.000000 0.923900
vn 0.258800 0.000000 0.965900
vn 0.130500 0.000000 0.991400
vn 0.065400 0.000000 0.997900
vn 1.000000 0.000000 0.000000
vn 0.000000 0.000000 -1.000000
vn -1.000000 0.000000 0.000000
vn 0.991400 0.000000 0.130500
vn 0.000000 -1.000000 -0.000000
vn 0.997900 0.000000 0.065400
usemtl Stone
s 1
f 19/1/1 1/2/1 20/3/1 21/4/1
f 26/5/2 27/6/2 35/7/2
f 16/8/3 15/9/4 24/10/4 23/11/3
f 15/12/4 14/13/5 25/14/5 24/15/4
f 14/16/5 13/17/6 26/18/6 25/19/5
f 13/20/6 12/21/7 27/22/7 26/23/6
f 12/24/7 11/25/8 28/26/8 27/27/7
f 11/28/8 10/29/9 29/30/9 28/31/8
f 10/32/9 9/33/10 30/34/10 29/35/9
f 9/36/10 8/37/11 31/38/11 30/39/10
f 8/40/11 7/41/12 32/42/12 31/43/11
f 7/44/12 6/45/13 33/46/13 32/47/12
f 18/48/14 36/49/14 34/50/14 6/51/14
f 34/52/15 36/53/15 37/4/15 35/3/15
f 37/53/16 21/4/16 20/3/16 35/52/16
f 19/1/1 22/49/1 17/54/1
f 2/55/17 16/56/3 23/57/3 3/58/17
f 20/3/1 1/2/1 4/59/1
f 21/4/1 22/49/1 19/1/1
f 30/60/2 34/61/2 35/7/2
f 3/62/2 20/4/2 4/63/2
f 32/64/2 33/65/2 34/61/2
f 23/66/2 20/4/2 3/62/2
f 31/67/2 32/64/2 34/61/2
f 24/68/2 20/4/2 23/66/2
f 30/60/2 31/67/2 34/61/2
f 35/7/2 20/4/2 24/68/2
f 29/69/2 30/60/2 35/7/2
f 35/7/2 24/68/2 25/70/2
f 28/71/2 29/69/2 35/7/2
f 35/7/2 25/70/2 26/5/2
f 27/6/2 28/71/2 35/7/2
f 34/50/14 33/72/14 6/51/14
f 18/48/14 22/4/14 36/49/14
f 37/7/18 36/73/18 22/53/18 21/4/18
f 18/48/14 17/74/14 22/4/14
f 1/75/19 2/76/17 3/77/17 4/78/19
usemtl Asphalt
f 5/79/14 17/74/14 18/48/14 6/51/14
f 5/49/2 11/71/2 12/6/2
f 1/2/1 19/1/1 17/54/1 5/80/1
f 2/62/2 1/63/2 5/49/2
f 5/49/2 16/66/2 2/62/2
f 5/49/2 14/70/2 15/68/2
f 5/49/2 12/6/2 13/5/2
f 5/49/2 10/69/2 11/71/2
f 5/49/2 8/67/2 9/60/2
f 5/49/2 6/65/2 7/64/2
f 15/68/2 16/66/2 5/49/2
f 5/49/2 13/5/2 14/70/2
f 5/49/2 9/60/2 10/69/2
f 8/67/2 5/49/2 7/64/2
