# Blender v2.75 (sub 0) OBJ File: ''
# www.blender.org
mtllib roadTile_285.mtl
o Mesh1_Group1_Model.045
v 0.000000 0.000000 0.000000
v 0.000000 0.000000 -3.000000
v 3.000000 0.000000 -3.000000
v 3.000000 0.000000 -0.000000
v 0.000000 0.600000 -1.703930
v 0.000000 0.300000 -1.703930
v 0.000000 0.300000 -3.000000
v 0.000000 0.630000 0.000000
v 0.000000 0.630000 -1.703930
v 0.000000 0.600000 -3.000000
v 0.754448 0.600000 -3.000000
v 0.754448 0.300000 -3.000000
v 0.754448 0.630000 -3.000000
v 3.000000 0.630000 -3.000000
v 1.125000 0.630000 -2.752400
v 1.125000 0.600000 -2.752400
v 3.000000 0.630000 -2.250000
v 1.564940 0.630000 -2.535450
v 2.029430 0.630000 -2.377780
v 2.510530 0.630000 -2.282080
v 3.000000 0.600000 -2.250000
v 3.000000 0.300000 -2.250000
v 3.000000 0.300000 -0.750000
v 3.000000 0.600000 -0.750000
v 3.000000 0.630000 -0.750000
v 3.000000 0.630000 0.000000
v 2.510530 0.600000 -2.282080
v 2.029430 0.600000 -2.377780
v 1.564940 0.600000 -2.535450
v 0.375000 0.600000 -1.453370
v 0.990912 0.600000 -1.149630
v 1.641200 0.600000 -0.928889
v 2.314740 0.600000 -0.794914
v 0.375000 0.630000 -1.453370
v 2.314740 0.630000 -0.794914
v 1.641200 0.630000 -0.928889
v 0.990912 0.630000 -1.149630
vt 0.000000 0.630000
vt -1.703930 0.600000
vt -1.703930 0.300000
vt 0.000000 0.000000
vt -3.000000 0.000000
vt -0.754448 0.300000
vt -0.754448 0.600000
vt -3.000000 0.630000
vt 0.750000 0.300000
vt 0.750000 0.600000
vt 3.000000 3.000000
vt 1.125000 2.752400
vt 1.564940 2.535450
vt 3.000000 0.000000
vt 2.017080 0.630000
vt 1.526550 0.630000
vt 1.526550 0.600000
vt 2.017080 0.600000
vt 1.157420 0.630000
vt 0.666892 0.630000
vt 0.666892 0.600000
vt 1.157420 0.600000
vt 0.282148 0.630000
vt -0.208376 0.630000
vt -0.208376 0.600000
vt 0.282148 0.600000
vt 3.000000 0.630000
vt 1.641200 0.928889
vt -2.257790 0.630000
vt -2.944520 0.630000
vt -2.944520 0.600000
vt -2.257790 0.600000
vt -1.428450 0.630000
vt -2.115180 0.630000
vt -2.115180 0.600000
vt -1.428450 0.600000
vt -0.568787 0.630000
vt -1.255520 0.630000
vt -1.255520 0.600000
vt -0.568787 0.600000
vt 0.306480 0.630000
vt -0.380253 0.630000
vt -0.380253 0.600000
vt 0.306480 0.600000
vt -1.703930 0.630000
vt -3.000000 0.300000
vt -0.593751 0.630000
vt -1.039410 0.630000
vt -1.039410 0.600000
vt -0.593751 0.600000
vt -0.754448 0.630000
vt -0.000000 0.300000
vt 2.510530 2.282080
vt 3.000000 2.250000
vt 2.029430 2.377780
vt 0.754448 3.000000
vt 2.250000 0.600000
vt 2.250000 0.630000
vt 2.250000 0.300000
vt 2.846420 0.630000
vt 2.355900 0.630000
vt 2.355900 0.600000
vt 2.846420 0.600000
vt 0.750000 0.630000
vt 0.946655 0.630000
vt 0.495646 0.630000
vt 0.495646 0.600000
vt 0.946655 0.600000
vt 3.000000 0.750000
vt 2.314740 0.794914
vt 0.375000 1.453370
vt 0.000000 1.703930
vt 0.990912 1.149630
vt -0.000000 3.000000
vt -3.000000 3.000000
vt -0.000000 0.600000
vt -3.000000 0.600000
vn -1.000000 -0.000000 0.000000
vn 0.000000 0.000000 -1.000000
vn 1.000000 0.000000 0.000000
vn 0.000000 1.000000 0.000000
vn -0.130500 0.000000 0.991400
vn -0.258800 0.000000 0.965900
vn -0.382700 0.000000 0.923900
vn -0.500000 0.000000 0.866000
vn 0.000000 -0.000000 1.000000
vn 0.130500 0.000000 -0.991400
vn 0.065400 0.000000 -0.997900
vn 0.258800 0.000000 -0.965900
vn 0.382700 0.000000 -0.923900
vn 0.500000 0.000000 -0.866000
vn -0.555600 0.000000 0.831500
vn -0.065400 0.000000 0.997900
vn 0.555600 0.000000 -0.831500
vn 0.000000 -1.000000 -0.000000
usemtl Stone
s 1
f 8/1/1 5/2/1 6/3/1 1/4/1
f 6/3/1 2/5/1 1/4/1
f 12/6/2 11/7/2 14/8/2 3/5/2
f 3/5/2 2/4/2 12/6/2
f 23/9/3 24/10/3 26/1/3 4/4/3
f 14/11/4 15/12/4 18/13/4
f 3/14/3 23/9/3 4/4/3
f 20/15/5 19/16/6 28/17/6 27/18/5
f 19/19/6 18/20/7 29/21/7 28/22/6
f 18/23/7 15/24/8 16/25/8 29/26/7
f 8/1/9 1/4/9 4/14/9 26/27/9
f 8/4/4 26/14/4 36/28/4
f 35/29/10 25/30/11 24/31/11 33/32/10
f 36/33/12 35/34/10 33/35/10 32/36/12
f 37/37/13 36/38/12 32/39/12 31/40/13
f 34/41/14 37/42/13 31/43/13 30/44/14
f 8/1/1 9/45/1 5/2/1
f 6/3/1 7/46/1 2/5/1
f 15/47/8 13/48/15 11/49/15 16/50/8
f 14/8/2 11/7/2 13/51/2
f 2/4/2 7/52/2 12/6/2
f 14/11/4 20/53/4 17/54/4
f 14/11/4 18/13/4 19/55/4
f 14/11/4 13/56/4 15/12/4
f 19/55/4 20/53/4 14/11/4
f 21/57/3 14/27/3 17/58/3
f 3/14/3 14/27/3 21/57/3 22/59/3
f 17/60/16 20/61/5 27/62/5 21/63/16
f 24/10/3 25/64/3 26/1/3
f 23/9/3 3/14/3 22/59/3
f 9/65/17 34/66/14 30/67/14 5/68/17
f 26/14/4 25/69/4 35/70/4
f 34/71/4 9/72/4 8/4/4
f 26/14/4 35/70/4 36/28/4
f 37/73/4 34/71/4 8/4/4
f 8/4/4 36/28/4 37/73/4
f 1/4/18 2/74/18 3/75/18 4/5/18
usemtl Asphalt
f 11/7/2 12/6/2 7/52/2 10/76/2
f 27/53/4 33/70/4 24/69/4 21/54/4
f 21/57/3 24/10/3 23/9/3 22/59/3
f 10/77/1 7/46/1 6/3/1 5/2/1
f 32/28/4 33/70/4 27/53/4 28/55/4
f 5/72/4 11/56/4 10/74/4
f 5/72/4 30/71/4 16/12/4 11/56/4
f 29/13/4 31/73/4 32/28/4 28/55/4
f 29/13/4 16/12/4 30/71/4 31/73/4
