# Blender v2.75 (sub 0) OBJ File: ''
# www.blender.org
mtllib roadTile_104.mtl
o Mesh1_Group1_Model.220
v 3.000000 0.600000 -3.000000
v 0.000000 0.600000 -3.000000
v 0.000000 0.600000 -2.062500
v 3.000000 0.600000 -2.062500
v 0.000000 0.300000 -3.000000
v 3.000000 0.300000 -3.000000
v 0.000000 0.300000 0.000000
v 0.000000 0.600000 0.000000
v 0.000000 0.600000 -0.937500
v 0.000000 0.570000 -0.937500
v 0.000000 0.570000 -1.125000
v 0.000000 0.600000 -1.125000
v 0.000000 0.600000 -1.875000
v 0.000000 0.570000 -1.875000
v 0.000000 0.570000 -2.062500
v 3.000000 0.300000 0.000000
v 3.000000 0.600000 0.000000
v 3.000000 0.000000 0.000000
v 0.000000 0.000000 -0.000000
v 3.000000 0.000000 -3.000000
v 0.000000 0.000000 -3.000000
v 3.000000 0.570000 -2.062500
v 3.000000 0.570000 -1.875000
v 3.000000 0.600000 -1.875000
v 3.000000 0.600000 -1.125000
v 3.000000 0.570000 -1.125000
v 3.000000 0.570000 -0.937500
v 3.000000 0.600000 -0.937500
vt 0.000000 0.000000
vt 118.110001 0.000000
vt 118.110001 118.110001
vt 0.000000 118.110001
vt 3.000000 0.000000
vt 3.000000 0.300000
vt 0.000000 0.300000
vt -3.000000 0.300000
vt -3.000000 -0.000000
vt -0.000000 3.000000
vt -3.000000 3.000000
vt 0.000000 1.875000
vt 3.000000 1.875000
vt 3.000000 2.062500
vt 0.000000 2.062500
vt 0.000000 0.600000
vt -3.000000 0.600000
vt -3.000000 0.570000
vt 0.000000 0.570000
vt 3.000000 0.600000
vt 3.000000 0.570000
vt 0.000000 1.125000
vt 0.000000 0.937500
vt 3.000000 0.937500
vt 3.000000 1.125000
vt -2.062500 0.570000
vt -2.062500 0.600000
vt -1.875000 0.570000
vt 0.937500 0.570000
vt 0.937500 0.600000
vt 1.125000 0.570000
vt -1.125000 0.570000
vt -1.125000 0.600000
vt -1.875000 0.600000
vt -0.937500 0.600000
vt -0.937500 0.570000
vt 1.875000 0.570000
vt 1.875000 0.600000
vt 1.125000 0.600000
vt 2.062500 0.600000
vt 2.062500 0.570000
vt 3.000000 3.000000
vn 0.000000 1.000000 0.000000
vn -0.000000 -0.000000 1.000000
vn 1.000000 0.000000 0.000000
vn 0.000000 0.000000 -1.000000
vn -1.000000 0.000000 0.000000
vn -0.000000 -1.000000 -0.000000
usemtl FrontColor.007
s 1
f 7/1/1 16/2/1 6/3/1 5/4/1
usemtl Stone.190
f 18/5/2 16/6/2 7/7/2 19/1/2
f 20/5/3 6/6/3 16/7/3 18/1/3
f 21/1/4 5/7/4 6/8/4 20/9/4
f 19/1/5 7/7/5 5/8/5 21/9/5
f 21/10/6 20/11/6 18/9/6 19/1/6
usemtl Grey_Asphalt.017
f 14/12/1 23/13/1 22/14/1 15/15/1
f 13/16/4 24/17/4 23/18/4 14/19/4
f 25/20/2 12/16/2 11/19/2 26/21/2
f 11/22/1 10/23/1 27/24/1 26/25/1
f 9/16/4 28/17/4 27/18/4 10/19/4
f 22/21/2 4/20/2 3/16/2 15/19/2
usemtl Asphalt.159
f 5/7/4 2/16/4 1/17/4 6/8/4
f 2/17/5 5/8/5 15/26/5 3/27/5
f 5/8/5 7/7/5 14/28/5
f 8/16/2 7/7/2 16/6/2 17/20/2
f 17/16/3 16/7/3 27/29/3 28/30/3
f 16/7/3 6/6/3 26/31/3
f 13/12/1 12/22/1 25/25/1 24/13/1
f 8/1/1 17/5/1 28/24/1 9/23/1
f 11/32/5 12/33/5 13/34/5 14/28/5
f 8/16/5 9/35/5 10/36/5 7/7/5
f 14/28/5 15/26/5 5/8/5
f 7/7/5 11/32/5 14/28/5
f 11/32/5 7/7/5 10/36/5
f 23/37/3 24/38/3 25/39/3 26/31/3
f 1/20/3 4/40/3 22/41/3 6/6/3
f 26/31/3 27/29/3 16/7/3
f 6/6/3 23/37/3 26/31/3
f 23/37/3 6/6/3 22/41/3
f 1/42/1 2/10/1 3/15/1 4/14/1
