# Blender v2.75 (sub 0) OBJ File: ''
# www.blender.org
mtllib roadTile_062.mtl
o Mesh1_Group1_Model.145
v 3.000000 0.630000 0.000000
v 3.000000 0.000000 0.000000
v 3.000000 0.000000 -3.000000
v 3.000000 0.630000 -3.000000
v 3.000000 0.630000 -2.250000
v 3.000000 0.600000 -2.250000
v 3.000000 0.300000 -2.250000
v 3.000000 0.300000 -0.750001
v 3.000000 0.600000 -0.750001
v 3.000000 0.630000 -0.750001
v 0.000000 0.000000 -0.000000
v 0.000000 0.630000 -0.000000
v 0.000000 0.000000 -3.000000
v 0.000000 0.630000 -3.000000
v 0.750000 0.630000 -0.750001
v 0.750000 0.630000 -2.250000
v 0.750000 0.600000 -0.750001
v 0.750000 0.600000 -2.250000
vt 0.750001 0.300000
vt 3.000000 0.000000
vt 2.250000 0.300000
vt -3.000000 3.000000
vt -3.000000 0.000000
vt -0.000000 0.000000
vt -0.000000 3.000000
vt -0.000000 0.630000
vt -3.000000 0.630000
vt -0.750000 0.600000
vt -0.750000 0.630000
vt -3.000000 0.600000
vt 0.750000 0.750001
vt 0.750000 2.250000
vt 0.750001 0.600000
vt 2.250000 0.600000
vt 2.250000 0.630000
vt 0.750001 0.630000
vt 3.000000 0.630000
vt 3.000000 0.600000
vt 3.000000 0.750001
vt 3.000000 3.000000
vt 3.000000 2.250000
vn 1.000000 -0.000000 0.000000
vn 0.000000 -1.000000 -0.000000
vn -1.000000 0.000000 -0.000000
vn 0.000000 0.000000 -1.000000
vn -0.000000 1.000000 0.000000
vn 0.000000 0.000000 1.000000
usemtl Stone
s 1
f 8/1/1 3/2/1 7/3/1
f 3/4/2 2/5/2 11/6/2 13/7/2
f 13/5/3 11/6/3 12/8/3 14/9/3
f 17/10/4 15/11/4 10/9/4 9/12/4
f 15/13/5 16/14/5 14/7/5
f 17/15/1 18/16/1 16/17/1 15/18/1
f 5/19/6 16/18/6 18/15/6 6/20/6
f 3/5/4 13/6/4 14/8/4 4/9/4
f 9/15/1 10/18/1 1/8/1
f 1/8/1 2/6/1 8/1/1 9/15/1
f 11/6/6 2/2/6 1/19/6 12/8/6
f 4/19/1 5/17/1 6/16/1
f 3/2/1 8/1/1 2/6/1
f 15/13/5 1/2/5 10/21/5
f 16/14/5 4/22/5 14/7/5
f 12/6/5 1/2/5 15/13/5
f 16/14/5 5/23/5 4/22/5
f 14/7/5 12/6/5 15/13/5
f 3/2/1 4/19/1 6/16/1 7/3/1
usemtl Asphalt
f 6/23/5 18/14/5 17/13/5 9/21/5
f 9/15/1 8/1/1 7/3/1 6/16/1
