# Blender v2.75 (sub 0) OBJ File: ''
# www.blender.org
mtllib roadTile_112.mtl
o Mesh1_Group1_Model.034
v 0.228286 0.630000 -2.702490
v 0.265165 0.630000 -2.734830
v 0.265165 0.000000 -2.734830
v 0.228286 0.000000 -2.702490
v 0.750000 0.630000 -3.000000
v 0.375000 0.630000 -3.000000
v 0.371792 0.630000 -2.951050
v 0.362222 0.630000 -2.902940
v 0.346455 0.630000 -2.856490
v 0.324760 0.630000 -2.812500
v 0.297508 0.630000 -2.771710
v 0.187500 0.630000 -2.675240
v 0.143506 0.630000 -2.653550
v 0.097057 0.630000 -2.637780
v 0.048947 0.630000 -2.628210
v 0.000000 0.630000 -2.625000
v 0.000000 0.630000 -2.250000
v 0.097895 0.630000 -2.256420
v 0.194114 0.630000 -2.275560
v 0.287013 0.630000 -2.307090
v 0.375000 0.630000 -2.350480
v 0.456571 0.630000 -2.404980
v 0.530330 0.630000 -2.469670
v 0.595015 0.630000 -2.543430
v 0.649519 0.630000 -2.625000
v 0.692910 0.630000 -2.712990
v 0.724444 0.630000 -2.805890
v 0.743584 0.630000 -2.902110
v 3.000000 0.000000 -3.000000
v 0.375000 0.000000 -3.000000
v 0.750000 0.600000 -3.000000
v 0.750000 0.300000 -3.000000
v 3.000000 0.300000 -3.000000
v 3.000000 0.000000 -0.000000
v 0.000000 0.000000 0.000000
v 0.000000 0.000000 -2.625000
v 0.048947 0.000000 -2.628210
v 0.097057 0.000000 -2.637780
v 0.143506 0.000000 -2.653550
v 0.187500 0.000000 -2.675240
v 0.297508 0.000000 -2.771710
v 0.324760 0.000000 -2.812500
v 0.346455 0.000000 -2.856490
v 0.362222 0.000000 -2.902940
v 0.371792 0.000000 -2.951050
v 3.000000 0.300000 0.000000
v 0.000000 0.300000 0.000000
v 3.000000 0.600000 0.000000
v 3.000000 0.600000 -3.000000
v 0.000000 0.600000 0.000000
v 0.000000 0.600000 -2.250000
v 0.000000 0.300000 -2.250000
v 0.097895 0.600000 -2.256420
v 0.743584 0.600000 -2.902110
v 0.724444 0.600000 -2.805890
v 0.692910 0.600000 -2.712990
v 0.649519 0.600000 -2.625000
v 0.595015 0.600000 -2.543430
v 0.530330 0.600000 -2.469670
v 0.456571 0.600000 -2.404980
v 0.375000 0.600000 -2.350480
v 0.287013 0.600000 -2.307090
v 0.194114 0.600000 -2.275560
vt 0.750000 3.000000
vt 0.375000 3.000000
vt 0.371792 2.951050
vt 0.743584 2.902110
vt -3.000000 0.000000
vt -0.000000 0.000000
vt -0.228286 2.702490
vt 3.000000 0.000000
vt 3.000000 0.300000
vt 0.000000 0.300000
vt -2.625000 0.630000
vt -2.625000 0.000000
vt -2.250000 0.300000
vt -2.250000 0.600000
vt -0.560745 0.630000
vt -0.609797 0.630000
vt -0.609797 -0.000000
vt -0.560745 0.000000
vt -0.939792 0.630000
vt -0.988845 0.630000
vt -0.988845 -0.000000
vt -0.939792 -0.000000
vt -1.302340 0.630000
vt -1.351390 0.630000
vt -1.351390 -0.000000
vt -1.302340 -0.000000
vt -1.642180 0.630000
vt -1.691240 0.630000
vt -1.691240 -0.000000
vt -1.642180 -0.000000
vt 0.147157 0.600000
vt 0.245262 0.600000
vt 0.245262 0.630000
vt 0.147157 0.630000
vt 2.944520 0.600000
vt 3.042630 0.600000
vt 3.042630 0.630000
vt 2.944520 0.630000
vt 2.893300 0.600000
vt 2.991410 0.600000
vt 2.991410 0.630000
vt 2.893300 0.630000
vt 2.791740 0.600000
vt 2.889840 0.600000
vt 2.889840 0.630000
vt 2.791740 0.630000
vt 2.641570 0.600000
vt 2.739670 0.600000
vt 2.739670 0.630000
vt 2.641570 0.630000
vt 2.445360 0.600000
vt 2.543460 0.600000
vt 2.543460 0.630000
vt 2.445360 0.630000
vt 2.206470 0.600000
vt 2.304570 0.600000
vt 2.304570 0.630000
vt 2.206470 0.630000
vt 1.928990 0.600000
vt 2.027090 0.600000
vt 2.027090 0.630000
vt 1.928990 0.630000
vt 1.617660 0.600000
vt 1.715760 0.600000
vt 1.715760 0.630000
vt 1.617660 0.630000
vt 1.277810 0.600000
vt 1.375920 0.600000
vt 1.375920 0.630000
vt 1.277810 0.630000
vt 0.915266 0.600000
vt 1.013370 0.600000
vt 1.013370 0.630000
vt 0.915266 0.630000
vt 0.536219 0.600000
vt 0.634323 0.600000
vt 0.634323 0.630000
vt 0.536219 0.630000
vt -2.230990 0.630000
vt -2.280050 0.630000
vt -2.280050 -0.000000
vt -2.230990 -0.000000
vt -2.469880 0.630000
vt -2.518940 0.630000
vt -2.518940 -0.000000
vt -2.469880 -0.000000
vt -2.666090 0.630000
vt -2.715140 0.630000
vt -2.715140 -0.000000
vt -2.666090 -0.000000
vt -2.816260 0.630000
vt -2.865320 0.630000
vt -2.865320 -0.000000
vt -2.816260 -0.000000
vt -2.917830 0.630000
vt -2.966880 0.630000
vt -2.966880 -0.000000
vt -2.917830 -0.000000
vt -2.969050 0.630000
vt -3.018100 0.630000
vt -3.018100 0.000000
vt -2.969050 0.000000
vt 0.724444 2.805890
vt 0.362222 2.902940
vt 0.346455 2.856490
vt 0.692910 2.712990
vt 0.649519 2.625000
vt 0.324760 2.812500
vt 0.297508 2.771710
vt 0.595015 2.543430
vt 0.265165 2.734830
vt 0.228286 2.702490
vt 0.456571 2.404980
vt 0.530330 2.469670
vt 0.187500 2.675240
vt 0.375000 2.350480
vt 0.194114 2.275560
vt 0.287013 2.307090
vt 0.143506 2.653550
vt 0.097057 2.637780
vt 0.097895 2.256420
vt 0.048947 2.628210
vt 0.000000 2.625000
vt -0.000000 2.250000
vt -0.375000 -0.000000
vt -0.375000 0.630000
vt -0.750000 0.600000
vt -0.750000 0.300000
vt -3.000000 0.300000
vt -0.750000 0.630000
vt -0.297508 2.771710
vt -3.000000 3.000000
vt -0.048947 2.628210
vt -0.371792 2.951050
vt -0.375000 3.000000
vt -0.097057 2.637780
vt -0.362222 2.902940
vt -0.143506 2.653550
vt -0.346455 2.856490
vt -0.187500 2.675240
vt -0.324760 2.812500
vt -0.265165 2.734830
vt -2.250000 0.630000
vt -0.171683 0.630000
vt -0.220736 0.630000
vt -0.220736 0.000000
vt -0.171683 0.000000
vt -1.953510 0.630000
vt -2.002560 0.630000
vt -2.002560 -0.000000
vt -1.953510 -0.000000
vt 0.000000 0.600000
vt 3.000000 0.600000
vt -3.000000 0.600000
vt 3.000000 3.000000
vn 0.000000 1.000000 0.000000
vn -0.000000 -1.000000 -0.000000
vn 1.000000 0.000000 0.000000
vn -1.000000 -0.000000 -0.000000
vn -0.130500 0.000000 -0.991400
vn -0.258800 0.000000 -0.965900
vn -0.382700 0.000000 -0.923900
vn -0.499900 0.000000 -0.866100
vn -0.608700 0.000000 -0.793400
vn 0.065400 0.000000 0.997900
vn 0.130500 0.000000 0.991400
vn 0.991400 0.000000 0.130500
vn 0.997900 0.000000 0.065400
vn 0.965900 0.000000 0.258800
vn 0.923900 0.000000 0.382700
vn 0.866000 0.000000 0.500000
vn 0.793400 0.000000 0.608800
vn 0.707100 0.000000 0.707100
vn 0.608800 0.000000 0.793400
vn 0.500000 0.000000 0.866000
vn 0.382700 0.000000 0.923900
vn 0.258800 0.000000 0.965900
vn -0.707100 0.000000 -0.707100
vn -0.793400 0.000000 -0.608700
vn -0.866000 0.000000 -0.500000
vn -0.923900 0.000000 -0.382700
vn -0.965900 0.000000 -0.258800
vn -0.991400 0.000000 -0.130500
vn -0.997900 0.000000 -0.065400
vn 0.000000 0.000000 -1.000000
vn 0.000000 -0.000000 1.000000
vn -0.065400 0.000000 -0.997900
usemtl Stone.030
s 1
f 5/1/1 6/2/1 7/3/1 28/4/1
f 34/5/2 35/6/2 4/7/2
f 29/8/3 33/9/3 46/10/3 34/6/3
f 16/11/4 36/12/4 52/13/4 51/14/4
f 15/15/5 14/16/6 38/17/6 37/18/5
f 14/19/6 13/20/7 39/21/7 38/22/6
f 13/23/7 12/24/8 40/25/8 39/26/7
f 12/27/8 1/28/9 4/29/9 40/30/8
f 51/31/10 53/32/11 18/33/11 17/34/10
f 54/35/12 31/36/13 5/37/13 28/38/12
f 55/39/14 54/40/12 28/41/12 27/42/14
f 56/43/15 55/44/14 27/45/14 26/46/15
f 57/47/16 56/48/15 26/49/15 25/50/16
f 58/51/17 57/52/16 25/53/16 24/54/17
f 59/55/18 58/56/17 24/57/17 23/58/18
f 60/59/19 59/60/18 23/61/18 22/62/19
f 61/63/20 60/64/19 22/65/19 21/66/20
f 62/67/21 61/68/20 21/69/20 20/70/21
f 63/71/22 62/72/21 20/73/21 19/74/22
f 53/75/11 63/76/22 19/77/22 18/78/11
f 2/79/23 11/80/24 41/81/24 3/82/23
f 11/83/24 10/84/25 42/85/25 41/86/24
f 10/87/25 9/88/26 43/89/26 42/90/25
f 9/91/26 8/92/27 44/93/27 43/94/26
f 8/95/27 7/96/28 45/97/28 44/98/27
f 7/99/28 6/100/29 30/101/29 45/102/28
f 27/103/1 8/104/1 9/105/1 26/106/1
f 25/107/1 10/108/1 11/109/1 24/110/1
f 2/111/1 1/112/1 22/113/1 23/114/1
f 22/113/1 1/112/1 12/115/1 21/116/1
f 19/117/1 20/118/1 13/119/1 14/120/1
f 18/121/1 15/122/1 16/123/1 17/124/1
f 27/103/1 28/4/1 7/3/1 8/104/1
f 18/121/1 19/117/1 14/120/1 15/122/1
f 25/107/1 26/106/1 9/105/1 10/108/1
f 20/118/1 21/116/1 12/115/1 13/119/1
f 2/111/1 23/114/1 24/110/1 11/109/1
f 30/125/30 6/126/30 31/127/30 32/128/30
f 32/128/30 33/129/30 29/5/30
f 34/8/31 46/9/31 47/10/31 35/6/31
f 31/127/30 6/126/30 5/130/30
f 32/128/30 29/5/30 30/125/30
f 41/131/2 29/132/2 34/5/2
f 35/6/2 36/123/2 37/133/2
f 45/134/2 30/135/2 29/132/2
f 35/6/2 37/133/2 38/136/2
f 44/137/2 45/134/2 29/132/2
f 35/6/2 38/136/2 39/138/2
f 43/139/2 44/137/2 29/132/2
f 35/6/2 39/138/2 40/140/2
f 42/141/2 43/139/2 29/132/2
f 35/6/2 40/140/2 4/7/2
f 41/131/2 42/141/2 29/132/2
f 34/5/2 4/7/2 3/142/2
f 3/142/2 41/131/2 34/5/2
f 51/14/4 17/143/4 16/11/4
f 35/6/4 47/10/4 52/13/4
f 16/144/32 15/145/5 37/146/5 36/147/32
f 36/12/4 35/6/4 52/13/4
f 1/148/9 2/149/23 3/150/23 4/151/9
usemtl Asphalt.026
f 48/152/3 46/10/3 33/9/3 49/153/3
f 50/152/31 47/10/31 46/9/31 48/153/31
f 51/14/4 52/13/4 47/10/4 50/152/4
f 49/154/30 33/129/30 32/128/30 31/127/30
f 48/8/1 59/114/1 60/113/1
f 58/110/1 48/8/1 49/155/1
f 53/121/1 51/124/1 50/6/1
f 49/155/1 31/1/1 54/4/1
f 63/117/1 53/121/1 50/6/1
f 49/155/1 54/4/1 55/103/1
f 62/118/1 63/117/1 50/6/1
f 49/155/1 55/103/1 56/106/1
f 61/116/1 62/118/1 50/6/1
f 49/155/1 56/106/1 57/107/1
f 60/113/1 61/116/1 50/6/1
f 49/155/1 57/107/1 58/110/1
f 48/8/1 60/113/1 50/6/1
f 48/8/1 58/110/1 59/114/1
