# Blender v2.75 (sub 0) OBJ File: ''
# www.blender.org
mtllib roadTile_211.mtl
o Mesh1_Group1_Model.028
v 3.000000 1.700000 -0.375000
v 0.000000 1.700000 -0.375000
v 0.000000 1.730000 -0.375000
v 3.000000 1.730000 -0.375000
v 3.000000 1.700000 -1.875000
v 0.000000 1.700000 -1.875000
v 3.000000 1.730000 -1.875000
v 0.000000 1.730000 -1.875000
v 3.000000 1.730000 0.000000
v 3.000000 0.000000 -0.000000
v 3.000000 0.000000 -2.250000
v 3.000000 1.730000 -2.250000
v 3.000000 1.400000 -1.875000
v 3.000000 1.400000 -0.375000
v 0.000000 1.730000 0.000000
v 0.000000 1.100000 0.000000
v 2.370000 0.000000 -0.000000
v 0.000000 1.730000 -2.250000
v 0.000000 1.100000 -2.250000
v 0.000000 1.400000 -0.375000
v 0.000000 1.400000 -1.875000
v 2.370000 0.000000 -2.250000
vt 0.000000 1.700000
vt 3.000000 1.700000
vt 3.000000 1.730000
vt 0.000000 1.730000
vt 0.000000 0.000000
vt 2.250000 0.000000
vt 1.875000 1.400000
vt 0.375000 1.400000
vt -1.875000 1.400000
vt 0.000000 1.100000
vt -0.375000 1.400000
vt -3.000000 0.000000
vt -2.370000 0.000000
vt -2.370000 2.250000
vt -3.000000 2.250000
vt 3.000000 1.875000
vt 3.000000 2.250000
vt 0.000000 2.250000
vt 0.000000 1.875000
vt 0.000000 0.375000
vt 3.000000 0.000000
vt 3.000000 0.375000
vt 0.375000 1.700000
vt 0.375000 1.730000
vt 2.250000 1.730000
vt 1.875000 1.700000
vt 1.875000 1.730000
vt 2.370000 -0.000000
vt -0.375000 1.700000
vt -1.875000 1.700000
vt -1.875000 1.730000
vt -2.250000 1.730000
vt -2.250000 1.100000
vt -3.000000 1.730000
vt -0.375000 1.730000
vt -2.250000 0.463099
vt -2.250000 -2.149730
vt -0.000000 -2.149730
vt 0.000000 0.463099
vt -3.000000 1.700000
vn 0.000000 0.000000 1.000000
vn 1.000000 -0.000000 0.000000
vn -1.000000 0.000000 -0.000000
vn 0.000000 -1.000000 -0.000000
vn 0.000000 1.000000 0.000000
vn 0.000000 0.000000 -1.000000
vn -0.421000 -0.907100 -0.000000
usemtl Stone
s 1
f 6/1/1 5/2/1 7/3/1 8/4/1
f 10/5/2 11/6/2 13/7/2 14/8/2
f 21/9/3 16/10/3 20/11/3
f 10/12/4 17/13/4 22/14/4 11/15/4
f 7/16/5 12/17/5 18/18/5 8/19/5
f 3/20/5 15/5/5 9/21/5 4/22/5
f 1/23/2 4/24/2 9/4/2
f 12/25/2 5/26/2 13/7/2
f 14/8/2 1/23/2 9/4/2
f 12/25/2 7/27/2 5/26/2
f 14/8/2 9/4/2 10/5/2
f 11/6/2 12/25/2 13/7/2
f 16/10/1 17/28/1 9/3/1 15/4/1
f 16/10/3 15/4/3 2/29/3 20/11/3
f 9/3/1 17/28/1 10/21/1
f 6/30/3 8/31/3 18/32/3
f 18/32/3 19/33/3 21/9/3 6/30/3
f 22/13/6 19/10/6 18/4/6 12/34/6
f 15/4/3 3/35/3 2/29/3
f 16/10/3 21/9/3 19/33/3
f 12/34/6 11/12/6 22/13/6
f 19/36/7 22/37/7 17/38/7 16/39/7
f 1/40/6 2/1/6 3/4/6 4/34/6
usemtl Asphalt
f 5/16/5 6/19/5 2/20/5 1/22/5
f 6/30/3 21/9/3 20/11/3 2/29/3
f 1/23/2 14/8/2 13/7/2 5/26/2
