# Blender v2.75 (sub 0) OBJ File: ''
# www.blender.org
mtllib roadTile_175.mtl
o Mesh1_Group1_Model.068
v 2.866730 0.321734 -0.750000
v 2.905980 0.276986 -0.750000
v 2.905980 0.276986 -2.250000
v 2.866730 0.321734 -2.250000
v 2.604390 0.451107 -0.750000
v 2.545000 0.455000 -0.750000
v 0.000000 0.455000 -0.750000
v 0.000000 0.550000 -0.750000
v 3.000000 0.550000 -0.750000
v 3.000000 0.000000 -0.750000
v 2.996110 0.059389 -0.750000
v 2.984500 0.117763 -0.750000
v 2.965370 0.174121 -0.750000
v 2.939040 0.227500 -0.750000
v 2.821990 0.360976 -0.750000
v 2.772500 0.394042 -0.750000
v 2.719120 0.420365 -0.750000
v 2.662760 0.439496 -0.750000
v 2.604390 0.451107 -2.250000
v 2.545000 0.455000 -2.250000
v 2.662760 0.439496 -2.250000
v 2.719120 0.420365 -2.250000
v 2.772500 0.394042 -2.250000
v 2.821990 0.360976 -2.250000
v 0.000000 0.455000 -2.250000
v 2.939040 0.227500 -2.250000
v 2.965370 0.174121 -2.250000
v 2.984500 0.117763 -2.250000
v 2.996110 0.059389 -2.250000
v 3.000000 0.000000 -2.250000
v 3.000000 0.550000 -2.250000
v 0.000000 0.550000 -2.250000
v 0.000000 0.000000 -2.250000
v 0.000000 0.000000 -0.750000
v 0.000000 0.000000 0.000000
v 3.000000 0.000000 -0.000000
v 0.000000 0.550000 0.000000
v 3.000000 0.550000 0.000000
v 0.000000 0.000000 -3.000000
v 3.000000 0.000000 -3.000000
v 0.000000 0.550000 -3.000000
v 3.000000 0.550000 -3.000000
vt 0.750000 -2.509790
vt 0.750000 -2.569310
vt 2.250000 -2.569310
vt 2.250000 -2.509790
vt 0.750000 -2.466340
vt 0.750000 -2.525860
vt 2.250000 -2.525860
vt 2.250000 -2.466340
vt 0.750000 -2.380180
vt 0.750000 -2.439700
vt 2.250000 -2.439700
vt 2.250000 -2.380180
vt 0.750000 -2.252780
vt 0.750000 -2.312300
vt 2.250000 -2.312300
vt 2.250000 -2.252780
vt 0.750000 -2.086330
vt 0.750000 -2.145850
vt 2.250000 -2.145850
vt 2.250000 -2.086330
vt 0.750000 -1.883670
vt 0.750000 -1.943190
vt 2.250000 -1.943190
vt 2.250000 -1.883670
vt 0.000000 0.750000
vt 2.545000 0.750000
vt 2.545000 2.250000
vt 0.000000 2.250000
vt -2.250000 0.000000
vt -0.750000 0.000000
vt -0.750000 0.455000
vt -2.250000 0.455000
vt 0.750000 -0.136693
vt 0.750000 -0.196209
vt 2.250000 -0.196209
vt 2.250000 -0.136693
vt 0.750000 -0.466746
vt 0.750000 -0.526263
vt 2.250000 -0.526263
vt 2.250000 -0.466746
vt 0.750000 -0.788305
vt 0.750000 -0.847822
vt 2.250000 -0.847822
vt 2.250000 -0.788305
vt 0.750000 -1.095870
vt 0.750000 -1.155380
vt 2.250000 -1.155380
vt 2.250000 -1.095870
vt 0.750000 -1.384170
vt 0.750000 -1.443680
vt 2.250000 -1.443680
vt 2.250000 -1.384170
vt 0.750000 -1.648280
vt 0.750000 -1.707790
vt 2.250000 -1.707790
vt 2.250000 -1.648280
vt -3.000000 0.550000
vt -2.821990 0.360976
vt -2.772500 0.394042
vt 2.821990 0.360976
vt 2.866730 0.321734
vt 3.000000 0.550000
vt -0.000000 -0.000000
vt -3.000000 0.750000
vt -3.000000 0.000000
vt 0.750000 0.000000
vt 0.750000 0.550000
vt 0.000000 0.550000
vt 3.000000 0.000000
vt 3.000000 0.750000
vt -3.000000 2.250000
vt -0.000000 3.000000
vt -3.000000 3.000000
vt 2.250000 0.550000
vt 2.250000 0.000000
vt -2.996110 0.059389
vt -2.545000 0.455000
vt -0.000000 0.455000
vt -2.984500 0.117763
vt -2.965370 0.174121
vt -2.604390 0.451107
vt -2.939040 0.227500
vt -2.662760 0.439496
vt -2.905980 0.276986
vt -2.719120 0.420365
vt -2.866730 0.321734
vt 2.545000 0.455000
vt 2.996110 0.059389
vt 2.984500 0.117763
vt 2.604390 0.451107
vt 2.965370 0.174121
vt 2.662760 0.439496
vt 2.939040 0.227500
vt 2.719120 0.420365
vt 2.905980 0.276986
vt 2.772500 0.394042
vt -0.750000 0.550000
vt 3.000000 2.250000
vt 3.000000 3.000000
vt -2.250000 0.550000
vn 0.032700 0.999500 0.000000
vn 0.130500 0.991400 0.000000
vn 0.258800 0.965900 0.000000
vn 0.382700 0.923900 0.000000
vn 0.500000 0.866000 0.000000
vn 0.608800 0.793300 0.000000
vn 0.707100 0.707100 0.000000
vn 0.000000 1.000000 0.000000
vn -1.000000 0.000000 0.000000
vn 0.991400 0.130500 0.000000
vn 0.997900 0.065400 0.000000
vn 0.965900 0.258800 0.000000
vn 0.923900 0.382700 0.000000
vn 0.866000 0.500000 0.000000
vn 0.793400 0.608800 0.000000
vn -0.000000 0.000000 -1.000000
vn -0.000000 0.000000 1.000000
vn 0.000000 -1.000000 -0.000000
vn 1.000000 0.000000 0.000000
usemtl Water
s 1
f 6/1/1 5/2/2 19/3/2 20/4/1
f 5/5/2 18/6/3 21/7/3 19/8/2
f 18/9/3 17/10/4 22/11/4 21/12/3
f 17/13/4 16/14/5 23/15/5 22/16/4
f 16/17/5 15/18/6 24/19/6 23/20/5
f 15/21/6 1/22/7 4/23/7 24/24/6
f 7/25/8 6/26/1 20/27/1 25/28/8
f 33/29/9 34/30/9 7/31/9 25/32/9
f 11/33/10 10/34/11 30/35/11 29/36/10
f 12/37/12 11/38/10 29/39/10 28/40/12
f 13/41/13 12/42/12 28/43/12 27/44/13
f 14/45/14 13/46/13 27/47/13 26/48/14
f 2/49/15 14/50/14 26/51/14 3/52/15
f 1/53/7 2/54/15 3/55/15 4/56/7
usemtl Grass
f 9/57/16 15/58/16 16/59/16
f 24/60/17 4/61/17 31/62/17
f 35/63/18 34/25/18 10/64/18 36/65/18
f 36/63/19 10/66/19 9/67/19 38/68/19
f 38/69/8 9/70/8 8/25/8 37/63/8
f 30/71/18 33/28/18 39/72/18 40/73/18
f 39/65/9 33/29/9 25/32/9 41/57/9
f 31/74/19 30/75/19 40/69/19 42/62/19
f 42/57/16 40/65/16 39/63/16 41/68/16
f 9/57/16 10/65/16 11/76/16
f 6/77/16 7/78/16 8/68/16
f 9/57/16 11/76/16 12/79/16
f 6/77/16 8/68/16 9/57/16
f 9/57/16 12/79/16 13/80/16
f 5/81/16 6/77/16 9/57/16
f 9/57/16 13/80/16 14/82/16
f 18/83/16 5/81/16 9/57/16
f 9/57/16 14/82/16 2/84/16
f 17/85/16 18/83/16 9/57/16
f 9/57/16 2/84/16 1/86/16
f 16/59/16 17/85/16 9/57/16
f 9/57/16 1/86/16 15/58/16
f 20/87/17 32/68/17 25/78/17
f 29/88/17 30/69/17 31/62/17
f 31/62/17 32/68/17 20/87/17
f 28/89/17 29/88/17 31/62/17
f 31/62/17 20/87/17 19/90/17
f 27/91/17 28/89/17 31/62/17
f 31/62/17 19/90/17 21/92/17
f 26/93/17 27/91/17 31/62/17
f 31/62/17 21/92/17 22/94/17
f 3/95/17 26/93/17 31/62/17
f 31/62/17 22/94/17 23/96/17
f 4/61/17 3/95/17 31/62/17
f 31/62/17 23/96/17 24/60/17
f 10/64/18 34/25/18 33/28/18 30/71/18
f 37/68/9 7/31/9 34/30/9 35/63/9
f 7/31/9 37/68/9 8/97/9
f 37/68/17 35/63/17 36/69/17 38/62/17
f 41/72/8 32/28/8 31/98/8 42/99/8
f 41/57/9 25/32/9 32/100/9
