# Blender v2.75 (sub 0) OBJ File: ''
# www.blender.org
mtllib roadTile_294.mtl
o Mesh1_Group1_Model.192
v 0.375000 0.630000 -3.000000
v 0.375000 0.630000 0.000000
v 0.375000 0.600000 0.000000
v 0.375000 0.600000 -3.000000
v 0.000000 0.630000 -3.000000
v 0.000000 0.630000 0.000000
v 2.250000 0.000000 -3.000000
v 0.000000 0.000000 -3.000000
v 0.375000 0.300000 -3.000000
v 1.875000 0.300000 -3.000000
v 1.875000 0.600000 -3.000000
v 1.875000 0.630000 -3.000000
v 2.250000 0.630000 -3.000000
v 2.250000 0.000000 -0.000000
v 0.000000 0.000000 -0.000000
v 2.250000 0.000000 -2.625000
v 2.625000 0.000000 -2.625000
v 2.625000 0.000000 -0.375000
v 2.250000 0.000000 -0.375000
v 2.250000 0.630000 0.000000
v 1.875000 0.630000 0.000000
v 1.875000 0.600000 0.000000
v 1.875000 0.300000 0.000000
v 0.375000 0.300000 0.000000
v 2.250000 0.630000 -0.375000
v 2.625000 0.630000 -0.375000
v 2.625000 0.630000 -0.750000
v 1.875000 0.630000 -0.750000
v 2.625000 0.630000 -2.625000
v 2.625000 0.630000 -2.250000
v 2.625000 0.600000 -2.250000
v 2.625000 0.300000 -2.250000
v 2.625000 0.300000 -0.750000
v 2.625000 0.600000 -0.750000
v 2.250000 0.630000 -2.625000
v 1.875000 0.630000 -2.250000
v 1.875000 0.600000 -2.250000
v 1.875000 0.600000 -0.750000
vt 0.375000 3.000000
vt 0.000000 3.000000
vt -0.000000 0.000000
vt 0.375000 0.000000
vt -1.875000 0.300000
vt -1.875000 0.600000
vt -2.250000 0.630000
vt -2.250000 0.000000
vt -0.375000 0.300000
vt 2.250000 0.000000
vt 1.875000 0.300000
vt 0.375000 0.630000
vt 0.000000 0.630000
vt 2.625000 0.630000
vt 2.250000 0.630000
vt 2.625000 0.000000
vt 2.250000 0.375000
vt 2.625000 0.375000
vt 2.625000 0.750000
vt 2.250000 0.600000
vt 2.250000 0.300000
vt 3.000000 0.630000
vt 3.000000 -0.000000
vt 2.250000 2.625000
vt 2.250000 3.000000
vt 1.875000 3.000000
vt -3.000000 0.600000
vt -2.250000 0.600000
vt -3.000000 0.630000
vt -0.750000 0.600000
vt -0.000000 0.600000
vt -0.750000 0.630000
vt -2.625000 0.600000
vt -1.875000 0.630000
vt -2.625000 0.630000
vt 1.875000 0.600000
vt 2.625000 0.600000
vt 1.875000 0.630000
vt -0.375000 0.600000
vt -2.250000 2.625000
vt -2.625000 2.625000
vt -2.625000 0.375000
vt -2.250000 0.375000
vt -0.375000 0.630000
vt -2.250000 3.000000
vt 0.375000 0.300000
vt 0.375000 0.600000
vt -3.000000 0.000000
vt 1.875000 0.000000
vt 1.875000 0.750000
vt 0.750000 0.600000
vt 0.750000 0.630000
vt 0.750000 0.300000
vt -2.625000 0.000000
vt 2.625000 2.250000
vt 2.625000 2.625000
vt 1.875000 2.250000
vt 3.000000 0.600000
vn 0.000000 1.000000 0.000000
vn 0.000000 0.000000 -1.000000
vn -0.000000 -0.000000 1.000000
vn 1.000000 0.000000 0.000000
vn -1.000000 0.000000 0.000000
vn -0.000000 -1.000000 -0.000000
usemtl Stone
s 1
f 1/1/1 5/2/1 6/3/1 2/4/1
f 10/5/2 11/6/2 13/7/2 7/8/2
f 7/8/2 8/3/2 9/9/2
f 15/3/3 14/10/3 23/11/3
f 25/12/4 20/13/4 14/3/4 19/4/4
f 26/14/3 25/15/3 19/10/3 18/16/3
f 25/17/1 26/18/1 27/19/1
f 17/16/4 29/14/4 31/20/4 32/21/4
f 18/4/4 17/16/4 32/21/4
f 13/22/4 35/14/4 16/16/4 7/23/4
f 35/24/1 13/25/1 12/26/1
f 11/27/5 37/28/5 36/7/5 12/29/5
f 38/30/5 22/31/5 21/13/5 28/32/5
f 34/33/2 38/6/2 28/34/2 27/35/2
f 37/36/3 31/37/3 30/14/3 36/38/3
f 8/3/2 5/13/2 4/39/2 9/9/2
f 13/7/2 11/6/2 12/34/2
f 16/40/6 17/41/6 18/42/6 19/43/6
f 5/13/2 1/44/2 4/39/2
f 9/9/2 10/5/2 7/8/2
f 16/40/6 19/43/6 15/3/6 8/2/6
f 19/43/6 14/8/6 15/3/6
f 16/40/6 8/2/6 7/45/6
f 6/13/3 15/3/3 24/46/3 3/47/3
f 3/47/3 2/12/3 6/13/3
f 20/15/3 21/38/3 22/36/3
f 14/10/3 20/15/3 22/36/3 23/11/3
f 6/13/5 5/29/5 8/48/5 15/3/5
f 23/11/3 24/46/3 15/3/3
f 25/17/1 21/49/1 20/10/1
f 25/17/1 27/19/1 28/50/1
f 28/50/1 21/49/1 25/17/1
f 34/51/4 27/52/4 26/12/4
f 26/12/4 18/4/4 33/53/4 34/51/4
f 35/7/2 29/35/2 17/54/2 16/8/2
f 29/14/4 30/15/4 31/20/4
f 32/21/4 33/53/4 18/4/4
f 35/24/1 30/55/1 29/56/1
f 35/24/1 12/26/1 36/57/1
f 36/57/1 30/55/1 35/24/1
f 1/22/4 2/13/4 3/31/4 4/58/4
usemtl Asphalt
f 38/50/1 34/19/1 31/55/1 37/57/1
f 34/51/4 33/53/4 32/21/4 31/20/4
f 11/6/2 10/5/2 9/9/2 4/39/2
f 37/57/1 11/26/1 4/1/1
f 3/4/1 38/50/1 37/57/1 4/1/1
f 3/4/1 22/49/1 38/50/1
f 3/47/3 24/46/3 23/11/3 22/36/3
