# Blender v2.75 (sub 0) OBJ File: ''
# www.blender.org
mtllib roadTile_208.mtl
o Mesh1_Group1_Model.234
v 3.000000 1.730000 -1.875000
v 3.000000 1.730000 -2.250000
v 0.000000 1.730000 -2.250000
v 0.000000 1.730000 -1.875000
v 3.000000 1.730000 0.000000
v 3.000000 0.000000 -0.000000
v 3.000000 0.000000 -2.250000
v 3.000000 1.700000 -1.875000
v 3.000000 1.400000 -1.875000
v 3.000000 1.400000 -0.375000
v 3.000000 1.700000 -0.375000
v 3.000000 1.730000 -0.375000
v 0.000000 1.730000 0.000000
v 0.000000 1.100000 0.000000
v 1.270000 1.100000 0.000000
v 1.413580 1.090590 0.000000
v 1.554700 1.062520 0.000000
v 1.690950 1.016270 0.000000
v 1.820000 0.952628 0.000000
v 1.939640 0.872689 0.000000
v 2.047820 0.777817 0.000000
v 2.142690 0.669638 0.000000
v 2.222630 0.550000 0.000000
v 2.286270 0.420952 0.000000
v 2.332520 0.284701 0.000000
v 2.360590 0.143579 0.000000
v 2.370000 0.000000 -0.000000
v 0.000000 1.100000 -2.250000
v 0.000000 1.730000 -0.375000
v 0.000000 1.700000 -0.375000
v 0.000000 1.400000 -0.375000
v 0.000000 1.400000 -1.875000
v 0.000000 1.700000 -1.875000
v 2.370000 0.000000 -2.250000
v 2.360590 0.143579 -2.250000
v 2.332520 0.284701 -2.250000
v 2.286270 0.420952 -2.250000
v 2.222630 0.550000 -2.250000
v 2.142690 0.669638 -2.250000
v 2.047820 0.777817 -2.250000
v 1.939640 0.872689 -2.250000
v 1.820000 0.952628 -2.250000
v 1.690950 1.016270 -2.250000
v 1.554700 1.062520 -2.250000
v 1.413580 1.090590 -2.250000
v 1.270000 1.100000 -2.250000
vt 0.000000 0.000000
vt 2.250000 0.000000
vt 1.875000 1.400000
vt 0.375000 1.400000
vt 1.939640 0.872689
vt 2.047820 0.777817
vt 3.000000 1.730000
vt -1.875000 1.400000
vt 0.000000 1.100000
vt -0.375000 1.400000
vt -3.000000 1.730000
vt -3.000000 -0.000000
vt -2.286270 0.420952
vt -2.250000 -0.011118
vt -2.250000 -0.155005
vt -0.000000 -0.155005
vt -0.000000 -0.011118
vt -2.250000 -0.175821
vt -2.250000 -0.319708
vt -0.000000 -0.319708
vt -0.000000 -0.175821
vt -2.250000 -0.336285
vt -2.250000 -0.480172
vt -0.000000 -0.480172
vt -0.000000 -0.336285
vt -2.250000 -0.489763
vt -2.250000 -0.633650
vt -0.000000 -0.633650
vt -0.000000 -0.489763
vt -2.250000 -0.633631
vt -2.250000 -0.777518
vt -0.000000 -0.777518
vt -0.000000 -0.633631
vt -2.250000 -0.765426
vt -2.250000 -0.909313
vt -0.000000 -0.909313
vt -0.000000 -0.765426
vt -2.250000 -0.882893
vt -2.250000 -1.026780
vt -0.000000 -1.026780
vt -0.000000 -0.882893
vt -2.250000 -0.984023
vt -2.250000 -1.127910
vt -0.000000 -1.127910
vt -0.000000 -0.984023
vt -2.250000 -1.067080
vt -2.250000 -1.210970
vt -0.000000 -1.210970
vt -0.000000 -1.067080
vt -2.250000 -1.130660
vt -2.250000 -1.274540
vt -0.000000 -1.274540
vt -0.000000 -1.130660
vt -2.250000 -1.173650
vt -2.250000 -1.317540
vt -0.000000 -1.317540
vt -0.000000 -1.173650
vt -2.250000 -1.195340
vt -2.250000 -1.339220
vt -0.000000 -1.339220
vt -0.000000 -1.195340
vt -0.000000 2.250000
vt -1.270000 2.250000
vt -1.270000 0.000000
vt 0.000000 0.375000
vt 3.000000 0.000000
vt 3.000000 0.375000
vt -3.000000 1.700000
vt -0.000000 1.700000
vt -0.000000 1.730000
vt 3.000000 1.700000
vt 0.375000 1.700000
vt 0.375000 1.730000
vt 2.250000 1.730000
vt 1.875000 1.700000
vt 1.875000 1.730000
vt -0.375000 1.700000
vt 2.286270 0.420952
vt 1.270000 1.100000
vt 2.360590 0.143579
vt 2.370000 -0.000000
vt 1.413580 1.090590
vt 2.332520 0.284701
vt 1.554700 1.062520
vt 2.222630 0.550000
vt 1.690950 1.016270
vt 2.142690 0.669638
vt 1.820000 0.952628
vt -1.875000 1.700000
vt -1.875000 1.730000
vt -2.250000 1.730000
vt -2.250000 1.100000
vt -2.370000 0.000000
vt -2.370000 2.250000
vt -3.000000 2.250000
vt -0.375000 1.730000
vt -1.270000 1.100000
vt -2.360590 0.143579
vt -1.413580 1.090590
vt -2.332520 0.284701
vt -1.554700 1.062520
vt -2.222630 0.550000
vt -1.690950 1.016270
vt -2.142690 0.669638
vt -1.820000 0.952628
vt -2.047820 0.777817
vt -1.939640 0.872689
vt 3.000000 1.875000
vt 3.000000 2.250000
vt 0.000000 1.875000
vn 1.000000 -0.000000 0.000000
vn 0.000000 -0.000000 1.000000
vn -1.000000 -0.000000 -0.000000
vn 0.000000 0.000000 -1.000000
vn -0.991400 -0.130500 -0.000000
vn -0.997900 -0.065400 -0.000000
vn -0.965900 -0.258800 -0.000000
vn -0.923900 -0.382700 -0.000000
vn -0.866000 -0.500000 -0.000000
vn -0.793400 -0.608800 -0.000000
vn -0.707100 -0.707100 -0.000000
vn -0.608800 -0.793400 -0.000000
vn -0.500000 -0.866000 -0.000000
vn -0.382700 -0.923900 -0.000000
vn -0.258800 -0.965900 -0.000000
vn -0.130500 -0.991400 -0.000000
vn -0.065400 -0.997900 -0.000000
vn 0.000000 -1.000000 -0.000000
vn 0.000000 1.000000 0.000000
usemtl Stone.202
s 1
f 6/1/1 7/2/1 9/3/1 10/4/1
f 20/5/2 21/6/2 5/7/2
f 32/8/3 14/9/3 31/10/3
f 2/11/4 7/12/4 37/13/4
f 35/14/5 34/15/6 27/16/6 26/17/5
f 36/18/7 35/19/5 26/20/5 25/21/7
f 37/22/8 36/23/7 25/24/7 24/25/8
f 38/26/9 37/27/8 24/28/8 23/29/9
f 39/30/10 38/31/9 23/32/9 22/33/10
f 40/34/11 39/35/10 22/36/10 21/37/11
f 41/38/12 40/39/11 21/40/11 20/41/12
f 42/42/13 41/43/12 20/44/12 19/45/13
f 43/46/14 42/47/13 19/48/13 18/49/14
f 44/50/15 43/51/14 18/52/14 17/53/15
f 45/54/16 44/55/15 17/56/15 16/57/16
f 46/58/17 45/59/16 16/60/16 15/61/17
f 28/62/18 46/63/18 15/64/18 14/1/18
f 29/65/19 13/1/19 5/66/19 12/67/19
f 11/68/4 30/69/4 29/70/4 12/11/4
f 33/69/2 8/71/2 1/7/2 4/70/2
f 11/72/1 12/73/1 5/70/1
f 2/74/1 8/75/1 9/3/1
f 10/4/1 11/72/1 5/70/1
f 2/74/1 1/76/1 8/75/1
f 10/4/1 5/70/1 6/1/1
f 7/2/1 2/74/1 9/3/1
f 14/9/3 13/70/3 30/77/3 31/10/3
f 24/78/2 6/66/2 5/7/2
f 15/79/2 13/70/2 14/9/2
f 26/80/2 27/81/2 6/66/2
f 16/82/2 13/70/2 15/79/2
f 25/83/2 26/80/2 6/66/2
f 5/7/2 13/70/2 16/82/2
f 24/78/2 25/83/2 6/66/2
f 5/7/2 16/82/2 17/84/2
f 23/85/2 24/78/2 5/7/2
f 5/7/2 17/84/2 18/86/2
f 22/87/2 23/85/2 5/7/2
f 5/7/2 18/86/2 19/88/2
f 21/6/2 22/87/2 5/7/2
f 5/7/2 19/88/2 20/5/2
f 33/89/3 4/90/3 3/91/3
f 3/91/3 28/92/3 32/8/3 33/89/3
f 6/12/18 27/93/18 34/94/18 7/95/18
f 13/70/3 29/96/3 30/77/3
f 14/9/3 32/8/3 28/92/3
f 46/97/4 28/9/4 3/70/4
f 7/12/4 34/93/4 35/98/4
f 45/99/4 46/97/4 3/70/4
f 7/12/4 35/98/4 36/100/4
f 2/11/4 45/99/4 3/70/4
f 7/12/4 36/100/4 37/13/4
f 2/11/4 44/101/4 45/99/4
f 2/11/4 37/13/4 38/102/4
f 43/103/4 44/101/4 2/11/4
f 2/11/4 38/102/4 39/104/4
f 42/105/4 43/103/4 2/11/4
f 2/11/4 39/104/4 40/106/4
f 41/107/4 42/105/4 2/11/4
f 2/11/4 40/106/4 41/107/4
f 1/108/19 2/109/19 3/62/19 4/110/19
usemtl Asphalt.169
f 8/108/19 33/110/19 30/65/19 11/67/19
f 33/89/3 32/8/3 31/10/3 30/77/3
f 11/72/1 10/4/1 9/3/1 8/75/1
