# Blender v2.75 (sub 0) OBJ File: ''
# www.blender.org
mtllib roadTile_266.mtl
o Mesh1_Group1_Model.171
v 3.000000 0.000000 -0.000000
v 3.000000 0.000000 -3.000000
v 3.000000 0.630000 -3.000000
v 3.000000 0.630000 -1.875000
v 3.000000 0.600000 -1.875000
v 3.000000 0.300000 -1.875000
v 3.000000 0.300000 -1.125000
v 3.000000 0.600000 -1.125000
v 3.000000 0.630000 -1.125000
v 3.000000 0.630000 0.000000
v 0.000000 0.000000 -3.000000
v 0.000000 0.000000 -0.000000
v 1.125000 0.630000 -3.000000
v 1.125000 0.600000 -3.000000
v 1.125000 0.315000 -3.000000
v 1.875000 0.315000 -3.000000
v 1.875000 0.600000 -3.000000
v 1.875000 0.630000 -3.000000
v 0.000000 0.630000 -3.000000
v 1.125000 0.630000 -1.875000
v 1.125000 0.600000 -1.875000
v 0.000000 0.630000 -1.875000
v 0.000000 0.600000 -1.875000
v 0.000000 0.630000 0.000000
v 0.000000 0.630000 -1.125000
v 0.000000 0.600000 -1.125000
v 0.000000 0.300000 -1.125000
v 0.000000 0.300000 -1.875000
v 1.875000 0.630000 0.000000
v 1.875000 0.600000 0.000000
v 1.875000 0.315000 0.000000
v 1.125000 0.315000 0.000000
v 1.125000 0.600000 0.000000
v 1.125000 0.630000 0.000000
v 1.875000 0.630000 -1.125000
v 1.875000 0.600000 -1.125000
v 1.875000 0.600000 -1.875000
v 1.125000 0.600000 -1.125000
v 1.875000 0.630000 -1.875000
v 1.125000 0.630000 -1.125000
vt 0.000000 0.000000
vt 3.000000 0.000000
vt 1.875000 0.300000
vt -1.875000 0.315000
vt -1.875000 0.600000
vt -3.000000 0.630000
vt -3.000000 -0.000000
vt -1.125000 0.315000
vt 0.000000 1.875000
vt 1.125000 1.875000
vt 1.125000 3.000000
vt 0.000000 3.000000
vt 1.125000 0.630000
vt 0.000000 0.630000
vt 0.000000 0.600000
vt 1.125000 0.600000
vt -1.875000 0.300000
vt -1.125000 0.300000
vt 1.875000 0.315000
vt 1.125000 0.315000
vt 3.000000 1.125000
vt 1.875000 1.125000
vt 1.875000 0.000000
vt -1.875000 0.630000
vt -3.000000 0.600000
vt 3.000000 3.000000
vt 1.875000 3.000000
vt 1.875000 1.875000
vt 3.000000 1.875000
vt -1.125000 0.630000
vt -1.125000 0.600000
vt 1.125000 0.000000
vt 1.125000 1.125000
vt 0.000000 1.125000
vt 3.000000 0.630000
vt 1.875000 0.600000
vt -3.000000 3.000000
vt 1.875000 0.630000
vt 1.125000 0.300000
vt 3.000000 0.600000
vn 1.000000 0.000000 0.000000
vn 0.000000 0.000000 -1.000000
vn 0.000000 1.000000 0.000000
vn 0.000000 0.000000 1.000000
vn -1.000000 0.000000 0.000000
vn 0.000000 -1.000000 -0.000000
usemtl Stone
s 1
f 1/1/1 2/2/1 6/3/1
f 16/4/2 17/5/2 3/6/2 2/7/2
f 15/8/2 16/4/2 2/7/2
f 22/9/3 20/10/3 13/11/3 19/12/3
f 20/13/4 22/14/4 23/15/4 21/16/4
f 28/17/5 23/5/5 19/6/5 11/7/5
f 28/17/5 12/1/5 27/18/5
f 31/19/4 32/20/4 12/1/4
f 9/21/3 35/22/3 29/23/3 10/2/3
f 35/24/2 9/6/2 8/25/2 36/5/2
f 3/26/3 18/27/3 39/28/3 4/29/3
f 39/24/5 18/6/5 17/25/5 37/5/5
f 25/14/2 40/30/2 38/31/2 26/15/2
f 24/1/3 34/32/3 40/33/3 25/34/3
f 40/13/1 34/14/1 33/15/1 38/16/1
f 2/2/1 3/35/1 5/36/1 6/3/1
f 10/14/1 8/16/1 9/13/1
f 11/12/6 2/37/6 1/7/6 12/1/6
f 3/35/1 4/38/1 5/36/1
f 6/3/1 7/39/1 1/1/1
f 14/31/2 19/14/2 13/30/2
f 11/1/2 19/14/2 14/31/2 15/8/2
f 13/35/1 20/38/1 21/36/1 14/40/1
f 17/5/2 18/24/2 3/6/2
f 2/7/2 11/1/2 15/8/2
f 12/1/5 24/14/5 26/31/5 27/18/5
f 19/6/5 23/5/5 22/24/5
f 32/20/4 33/16/4 24/14/4 12/1/4
f 24/14/5 25/30/5 26/31/5
f 12/1/5 28/17/5 11/7/5
f 30/36/4 10/35/4 29/38/4
f 1/2/4 10/35/4 30/36/4 31/19/4
f 29/14/5 35/30/5 36/31/5 30/15/5
f 33/16/4 34/13/4 24/14/4
f 12/1/4 1/2/4 31/19/4
f 4/35/4 39/38/4 37/36/4 5/40/4
f 7/39/1 8/16/1 10/14/1 1/1/1
usemtl Asphalt
f 5/29/3 37/28/3 36/22/3 8/21/3
f 14/31/2 17/5/2 16/4/2 15/8/2
f 26/31/5 23/5/5 28/17/5 27/18/5
f 30/36/4 33/16/4 32/20/4 31/19/4
f 5/36/1 8/16/1 7/39/1 6/3/1
f 38/33/3 33/32/3 30/23/3 36/22/3
f 21/10/3 23/9/3 26/34/3 38/33/3
f 14/11/3 21/10/3 37/28/3 17/27/3
f 37/28/3 21/10/3 38/33/3 36/22/3
