# Blender v2.75 (sub 0) OBJ File: ''
# www.blender.org
mtllib roadTile_152.mtl
o Mesh1_Group1_Model.166
v 0.000000 1.650000 -3.000000
v 0.000000 0.000000 -3.000000
v 0.000000 0.000000 -0.000000
v 0.000000 1.650000 0.000000
v 3.000000 0.000000 -3.000000
v 3.000000 0.550000 -3.000000
v 3.000000 0.000000 -0.000000
v 3.000000 0.550000 -0.000000
vt -3.000000 -0.000000
vt -0.000000 -0.000000
vt -0.000000 1.650000
vt -3.000000 0.550000
vt 0.000000 3.000000
vt -3.000000 3.000000
vt 0.000000 0.550000
vt 3.000000 0.000000
vt 3.000000 0.550000
vt 3.000000 -2.627290
vt 3.000000 0.568020
vt -0.000000 0.568020
vt 0.000000 -2.627290
vt -3.000000 1.650000
vn 0.000000 0.000000 -1.000000
vn 0.000000 -1.000000 -0.000000
vn 1.000000 0.000000 0.000000
vn 0.000000 -0.000000 1.000000
vn 0.344300 0.938900 0.000000
vn -1.000000 0.000000 0.000000
usemtl Grass.066
s 1
f 5/1/1 2/2/1 1/3/1 6/4/1
f 3/2/2 2/5/2 5/6/2 7/1/2
f 8/7/3 7/2/3 5/8/3 6/9/3
f 4/3/4 3/2/4 7/8/4 8/9/4
f 6/10/5 1/11/5 4/12/5 8/13/5
f 1/14/6 2/1/6 3/2/6 4/3/6
