# Blender v2.75 (sub 0) OBJ File: ''
# www.blender.org
mtllib roadTile_013.mtl
o Mesh1_Group1_Model.102
v 3.000000 0.455000 -0.750000
v 3.000000 0.300000 -0.750000
v 3.000000 0.300000 -2.250000
v 3.000000 0.455000 -2.250000
v 3.000000 0.000000 -3.000000
v 3.000000 0.550000 -3.000000
v 3.000000 0.550000 -2.250000
v 3.000000 0.550000 -0.750000
v 3.000000 0.550000 0.000000
v 3.000000 0.000000 -0.000000
v 0.750000 0.455000 -3.000000
v 0.750000 0.300000 -3.000000
v 2.250000 0.300000 -3.000000
v 2.250000 0.455000 -3.000000
v 2.250000 0.550000 -3.000000
v 0.000000 0.000000 -3.000000
v 0.000000 0.550000 -3.000000
v 0.750000 0.550000 -3.000000
v 0.937500 0.455000 -0.750000
v 0.750000 0.455000 0.000000
v 2.250000 0.455000 0.000000
v 2.390440 0.455000 -0.614148
v 2.475230 0.455000 -2.472520
v 0.562500 0.455000 -2.250000
v 0.937500 0.550000 -0.750000
v 0.750000 0.550000 0.000000
v 0.562500 0.550000 -2.250000
v 0.000000 0.550000 0.000000
v 0.000000 0.000000 0.000000
v 2.250000 0.550000 0.000000
v 2.250000 0.300000 0.000000
v 0.750000 0.300000 0.000000
v 2.390440 0.550000 -0.614148
v 2.475230 0.550000 -2.472520
vt 0.937500 0.750000
vt 2.390440 0.614148
vt 2.475230 2.472520
vt 0.562500 2.250000
vt 0.500230 0.455000
vt 2.046390 0.455000
vt 2.046390 0.550000
vt 0.500230 0.550000
vt 2.319250 0.455000
vt 3.092330 0.455000
vt 3.092330 0.550000
vt 2.319250 0.550000
vt -3.091310 0.455000
vt -2.466790 0.455000
vt -2.466790 0.550000
vt -3.091310 0.550000
vt -1.131560 0.455000
vt -0.501558 0.455000
vt -0.501558 0.550000
vt -1.131560 0.550000
vt 0.750000 0.455000
vt 0.750000 0.300000
vt 2.250000 0.300000
vt 2.250000 0.455000
vt 1.313590 0.455000
vt 1.883590 0.455000
vt 1.883590 0.550000
vt 1.313590 0.550000
vt -1.875460 0.455000
vt -1.301910 0.455000
vt -1.301910 0.550000
vt -1.875460 0.550000
vt -2.250000 0.455000
vt -2.250000 0.300000
vt -0.750000 0.300000
vt -0.750000 0.455000
vt 2.250000 3.000000
vt 0.750000 3.000000
vt 3.000000 0.750000
vt 3.000000 2.250000
vt 0.750000 0.000000
vt 2.250000 0.000000
vt 0.181902 0.455000
vt 0.954984 0.455000
vt 0.954984 0.550000
vt 0.181902 0.550000
vt 0.000000 0.550000
vt 0.000000 0.000000
vt 3.000000 0.000000
vt -3.000000 0.000000
vt -3.000000 0.550000
vt 0.000000 3.000000
vt -3.000000 3.000000
vt 3.000000 3.000000
vt 3.000000 0.550000
vt 2.250000 0.550000
vt 0.750000 0.550000
vt -0.750000 0.550000
vt -2.250000 0.550000
vn -0.000000 1.000000 0.000000
vn 0.970100 0.000000 -0.242500
vn 0.970100 0.000000 0.242500
vn -0.217500 0.000000 -0.976100
vn -0.974800 0.000000 -0.222900
vn -0.000000 -0.000000 1.000000
vn -0.390400 0.000000 0.920700
vn -0.919700 0.000000 0.392700
vn -0.000000 0.000000 -1.000000
vn 1.000000 0.000000 0.000000
vn -1.000000 0.000000 -0.000000
vn -0.000000 -1.000000 -0.000000
usemtl Alternate_Dirt.005
s 1
f 19/1/1 22/2/1 23/3/1 24/4/1
f 19/5/2 24/6/2 27/7/2 25/8/2
f 24/9/3 11/10/3 18/11/3 27/12/3
f 1/13/4 22/14/4 33/15/4 8/16/4
f 22/17/5 21/18/5 30/19/5 33/20/5
f 20/21/6 32/22/6 31/23/6 21/24/6
f 23/25/7 4/26/7 7/27/7 34/28/7
f 14/29/8 23/30/8 34/31/8 15/32/8
f 14/33/9 13/34/9 12/35/9 11/36/9
f 23/3/1 14/37/1 11/38/1 24/4/1
f 22/2/1 1/39/1 4/40/1 23/3/1
f 19/1/1 20/41/1 21/42/1 22/2/1
f 20/43/3 19/44/3 25/45/3 26/46/3
f 1/21/10 2/22/10 3/23/10 4/24/10
usemtl Grass.045
f 2/22/10 1/21/10 9/47/10 10/48/10
f 5/49/10 3/23/10 2/22/10
f 16/48/9 13/34/9 5/50/9
f 16/50/11 29/48/11 28/47/11 17/51/11
f 28/48/1 27/4/1 17/52/1
f 10/50/12 29/48/12 16/52/12 5/53/12
f 32/22/6 20/21/6 28/47/6 29/48/6
f 29/48/6 10/49/6 31/23/6
f 6/54/1 15/37/1 34/3/1
f 5/49/10 6/55/10 4/24/10 3/23/10
f 4/24/10 6/55/10 7/56/10
f 1/21/10 8/57/10 9/47/10
f 13/34/9 14/33/9 6/51/9 5/50/9
f 2/22/10 10/48/10 5/49/10
f 17/47/9 18/58/9 11/36/9
f 16/48/9 17/47/9 11/36/9 12/35/9
f 14/33/9 15/59/9 6/51/9
f 13/34/9 16/48/9 12/35/9
f 25/1/1 28/48/1 26/41/1
f 27/4/1 18/38/1 17/52/1
f 28/48/1 25/1/1 27/4/1
f 10/49/6 9/55/6 21/24/6 31/23/6
f 28/47/6 20/21/6 26/57/6
f 30/42/1 9/49/1 8/39/1 33/2/1
f 9/55/6 30/56/6 21/24/6
f 31/23/6 32/22/6 29/48/6
f 7/40/1 6/54/1 34/3/1
