# Blender v2.75 (sub 0) OBJ File: ''
# www.blender.org
mtllib roadTile_075.mtl
o Mesh1_Group1_Model.098
v 0.000000 0.630000 0.000000
v 0.000000 0.000000 0.000000
v 3.000000 0.000000 -0.000000
v 3.000000 0.630000 0.000000
v 0.000000 0.000000 -3.000000
v 0.000000 0.630000 -0.750000
v 0.000000 0.600000 -0.750000
v 0.000000 0.300000 -0.750000
v 0.000000 0.300000 -2.250000
v 0.000000 0.600000 -2.250000
v 0.000000 0.630000 -2.250000
v 0.000000 0.630000 -3.000000
v 3.000000 0.000000 -3.000000
v 3.000000 0.630000 -3.000000
v 3.000000 0.600000 -2.250000
v 3.000000 0.300000 -2.250000
v 3.000000 0.300000 -0.750000
v 3.000000 0.600000 -0.750000
v 3.000000 0.630000 -0.750000
v 3.000000 0.630000 -2.250000
v 1.875000 0.600000 -0.750000
v 1.875000 0.600000 -0.937500
v 1.875000 0.600000 -1.312500
v 1.875000 0.600000 -1.500000
v 1.875000 0.600000 -1.875000
v 1.875000 0.600000 -2.062500
v 1.125000 0.600000 -2.062500
v 1.125000 0.600000 -1.687500
v 1.125000 0.600000 -0.750000
v 1.125000 0.600000 -0.937500
v 1.875000 0.600000 -1.125000
v 1.125000 0.600000 -1.125000
v 1.125000 0.600000 -1.312500
v 1.125000 0.600000 -1.500000
v 1.875000 0.600000 -1.687500
v 1.125000 0.600000 -1.875000
vt -2.250000 0.300000
vt -2.250000 0.600000
vt -3.000000 0.630000
vt -3.000000 -0.000000
vt 0.000000 -0.000000
vt -0.750000 0.300000
vt -0.000000 0.630000
vt 0.750000 0.300000
vt 0.750000 0.600000
vt 3.000000 -0.000000
vt -1.125000 0.600000
vt 3.000000 0.630000
vt 0.000000 0.750000
vt 3.000000 0.750000
vt 0.000000 0.600000
vt 3.000000 0.600000
vt -0.000000 3.000000
vt 0.000000 2.250000
vt 3.000000 2.250000
vt 3.000000 3.000000
vt -0.750000 0.600000
vt -2.250000 0.630000
vt -3.000000 3.000000
vt -0.750000 0.630000
vt 2.250000 0.630000
vt 2.250000 0.600000
vt 2.250000 0.300000
vt 0.750000 0.630000
vt -1.875000 0.600000
vt -3.000000 0.600000
vt 1.875000 0.750000
vt 1.875000 0.937500
vt 1.125000 0.937500
vt 1.125000 0.750000
vt 1.875000 1.125000
vt 1.875000 1.312500
vt 1.125000 1.312500
vt 1.125000 1.125000
vt 1.875000 1.500000
vt 1.875000 1.687500
vt 1.125000 1.687500
vt 1.125000 1.500000
vt 1.875000 1.875000
vt 1.875000 2.062500
vt 1.125000 2.062500
vt 1.125000 1.875000
vn -1.000000 -0.000000 0.000000
vn 0.000000 0.000000 -1.000000
vn 1.000000 0.000000 0.000000
vn 0.000000 -0.000000 1.000000
vn 0.000000 1.000000 0.000000
vn 0.000000 -1.000000 -0.000000
vn -0.000100 1.000000 -0.010000
vn 0.711600 0.399900 0.577700
vn -0.000100 0.999900 0.014100
vn -0.707100 0.500200 0.499700
vn 0.692100 0.510400 0.510400
vn 0.987000 0.118900 -0.108500
usemtl Stone.085
s 1
f 9/1/1 10/2/1 12/3/1 5/4/1
f 5/4/1 2/5/1 8/6/1
f 14/3/2 13/4/2 5/5/2 12/7/2
f 17/8/3 18/9/3 4/7/3 3/5/3
f 13/10/3 17/8/3 3/5/3
f 19/3/2 29/11/2 6/7/2
f 1/7/4 2/5/4 3/10/4 4/12/4
f 6/13/5 1/5/5 4/10/5 19/14/5
f 11/7/4 10/15/4 15/16/4 20/12/4
f 12/17/5 11/18/5 20/19/5 14/20/5
f 2/5/1 1/7/1 7/21/1 8/6/1
f 12/3/1 10/2/1 11/22/1
f 3/4/6 2/5/6 5/17/6 13/23/6
f 1/7/1 6/24/1 7/21/1
f 8/6/1 9/1/1 5/4/1
f 14/12/3 20/25/3 15/26/3
f 13/10/3 14/12/3 15/26/3 16/27/3
f 18/9/3 19/28/3 4/7/3
f 17/8/3 13/10/3 16/27/3
f 21/29/2 19/3/2 18/30/2
f 29/11/2 7/15/2 6/7/2
f 19/3/2 21/29/2 29/11/2
usemtl White
f 21/31/5 22/32/5 30/33/7 29/34/5
f 31/35/8 23/36/5 33/37/9 32/38/10
f 24/39/5 35/40/11 28/41/5 34/42/10
f 25/43/5 26/44/5 27/45/5 36/46/12
usemtl Asphalt.071
f 10/2/1 9/1/1 8/6/1 7/21/1
f 15/19/5 21/31/5 18/14/5
f 15/19/5 22/32/5 21/31/5
f 15/19/5 23/36/5 22/32/5
f 15/19/5 24/39/5 23/36/5
f 15/19/5 25/43/5 24/39/5
f 15/19/5 26/44/5 25/43/5
f 15/19/5 27/45/5 26/44/5
f 10/18/5 27/45/5 15/19/5
f 36/46/12 28/41/5 35/40/11 25/43/5
f 28/41/5 7/13/5 29/34/5
f 31/35/8 22/32/5 23/36/5
f 7/13/5 28/41/5 27/45/5 10/18/5
f 25/43/5 35/40/11 24/39/5
f 31/35/8 32/38/10 30/33/7 22/32/5
f 28/41/5 36/46/12 27/45/5
f 28/41/5 33/37/9 34/42/10
f 28/41/5 30/33/7 33/37/9
f 28/41/5 29/34/5 30/33/7
f 33/37/9 30/33/7 32/38/10
f 18/9/3 17/8/3 16/27/3 15/26/3
f 24/39/5 34/42/10 33/37/9 23/36/5
