# Blender v2.75 (sub 0) OBJ File: ''
# www.blender.org
mtllib roadTile_159.mtl
o Mesh1_Group1_Model.164
v 0.692910 0.550000 -0.287013
v 0.724444 0.550000 -0.194114
v 0.724444 0.455000 -0.194114
v 0.692910 0.455000 -0.287013
v 0.000000 0.550000 0.000000
v 0.750000 0.550000 0.000000
v 0.743584 0.550000 -0.097895
v 0.649519 0.550000 -0.375000
v 0.595015 0.550000 -0.456571
v 0.530330 0.550000 -0.530330
v 0.456571 0.550000 -0.595015
v 0.375000 0.550000 -0.649519
v 0.287013 0.550000 -0.692910
v 0.194114 0.550000 -0.724444
v 0.097895 0.550000 -0.743584
v 0.000000 0.550000 -0.750000
v 0.000000 0.000000 0.000000
v 0.750000 0.000000 -0.000000
v 0.750000 0.455000 0.000000
v 0.000000 0.000000 -0.750000
v 0.000000 0.000000 -3.000000
v 3.000000 0.000000 -3.000000
v 3.000000 0.000000 -0.000000
v 0.000000 0.455000 -0.750000
v 0.000000 0.455000 -3.000000
v 3.000000 0.455000 -3.000000
v 0.097895 0.455000 -0.743584
v 0.194114 0.455000 -0.724444
v 0.287013 0.455000 -0.692910
v 0.375000 0.455000 -0.649519
v 0.456571 0.455000 -0.595015
v 0.530330 0.455000 -0.530330
v 0.595015 0.455000 -0.456571
v 0.649519 0.455000 -0.375000
v 0.743584 0.455000 -0.097895
v 3.000000 0.455000 0.000000
vt -0.000000 -0.000000
vt -0.000000 0.455000
vt -3.000000 0.455000
vt -3.000000 -0.000000
vt 3.000000 3.000000
vt 0.000000 3.000000
vt 0.456571 0.595015
vt 3.000000 0.000000
vt 3.000000 0.455000
vt 0.750000 0.455000
vt 0.750000 0.000000
vt -0.750000 0.455000
vt -0.750000 0.000000
vt 0.595015 0.456571
vt 0.000000 0.750000
vt 0.097895 0.743584
vt 0.743584 0.097895
vt 0.194114 0.724444
vt 0.724444 0.194114
vt 0.287013 0.692910
vt 0.692910 0.287013
vt 0.375000 0.649519
vt 0.649519 0.375000
vt 0.530330 0.530330
vt 0.000000 0.550000
vt -3.000000 3.000000
vt 0.049052 0.550000
vt -0.049052 0.550000
vt -0.049052 0.455000
vt 0.049052 0.455000
vt 0.750000 0.550000
vt -0.750000 0.550000
vn 0.000000 0.000000 -1.000000
vn 0.000000 1.000000 0.000000
vn 1.000000 0.000000 0.000000
vn 0.000000 -0.000000 1.000000
vn -1.000000 -0.000000 -0.000000
vn -0.000000 -1.000000 -0.000000
vn 0.065400 0.000000 -0.997900
vn 0.130500 0.000000 -0.991400
vn 0.258800 0.000000 -0.965900
vn 0.382700 0.000000 -0.923900
vn 0.500000 0.000000 -0.866000
vn 0.608800 0.000000 -0.793400
vn 0.707100 0.000000 -0.707100
vn 0.793400 0.000000 -0.608800
vn 0.866000 0.000000 -0.500000
vn 0.923900 0.000000 -0.382700
vn 0.965900 0.000000 -0.258800
vn 0.991400 0.000000 -0.130500
vn 0.997900 0.000000 -0.065400
usemtl Water.019
s 1
f 21/1/1 25/2/1 26/3/1 22/4/1
f 26/5/2 25/6/2 31/7/2
f 36/2/3 23/1/3 22/8/3 26/9/3
f 19/10/4 18/11/4 23/8/4 36/9/4
f 24/12/5 25/3/5 21/4/5 20/13/5
f 33/14/2 36/8/2 26/5/2
f 25/6/2 24/15/2 27/16/2
f 35/17/2 19/11/2 36/8/2
f 25/6/2 27/16/2 28/18/2
f 3/19/2 35/17/2 36/8/2
f 25/6/2 28/18/2 29/20/2
f 4/21/2 3/19/2 36/8/2
f 25/6/2 29/20/2 30/22/2
f 34/23/2 4/21/2 36/8/2
f 25/6/2 30/22/2 31/7/2
f 33/14/2 34/23/2 36/8/2
f 26/5/2 31/7/2 32/24/2
f 32/24/2 33/14/2 26/5/2
usemtl Grass.065
f 17/1/4 18/11/4 19/10/4 5/25/4
f 5/1/2 9/14/2 10/24/2
f 18/13/6 20/15/6 22/26/6
f 16/27/7 15/28/8 27/29/8 24/30/7
f 15/27/8 14/28/9 28/29/9 27/30/8
f 14/27/9 13/28/10 29/29/10 28/30/9
f 13/27/10 12/28/11 30/29/11 29/30/10
f 12/27/11 11/28/12 31/29/12 30/30/11
f 11/27/12 10/28/13 32/29/13 31/30/12
f 10/27/13 9/28/14 33/29/14 32/30/13
f 9/27/14 8/28/15 34/29/15 33/30/14
f 8/27/15 1/28/16 4/29/16 34/30/15
f 2/27/17 7/28/18 35/29/18 3/30/17
f 7/27/18 6/28/19 19/29/19 35/30/18
f 15/16/2 16/15/2 5/1/2
f 5/1/2 14/18/2 15/16/2
f 5/1/2 12/22/2 13/20/2
f 5/1/2 10/24/2 11/7/2
f 5/1/2 8/23/2 9/14/2
f 5/1/2 2/19/2 1/21/2
f 5/1/2 6/11/2 7/17/2
f 13/20/2 14/18/2 5/1/2
f 5/1/2 11/7/2 12/22/2
f 5/1/2 1/21/2 8/23/2
f 2/19/2 5/1/2 7/17/2
f 24/12/5 20/13/5 17/1/5 5/25/5
f 5/25/4 19/10/4 6/31/4
f 22/26/6 23/4/6 18/13/6
f 20/15/6 21/6/6 22/26/6
f 18/13/6 17/1/6 20/15/6
f 5/25/5 16/32/5 24/12/5
f 1/27/16 2/28/17 3/29/17 4/30/16
