# Blender v2.75 (sub 0) OBJ File: ''
# www.blender.org
mtllib roadTile_213.mtl
o Mesh1_Group1_Model.298
v 0.000000 1.730000 0.000000
v 0.000000 1.100000 0.000000
v 0.000000 0.000000 -0.000000
v 3.000000 0.000000 -0.000000
v 3.000000 1.730000 0.000000
v 0.000000 1.730000 -2.250000
v 0.000000 1.100000 -2.250000
v 0.000000 1.730000 -0.375000
v 0.000000 1.700000 -0.375000
v 0.000000 1.400000 -0.375000
v 0.000000 1.400000 -1.875000
v 0.000000 1.700000 -1.875000
v 0.000000 1.730000 -1.875000
v 0.000000 0.000000 -2.250000
v 3.000000 1.730000 -2.250000
v 3.000000 0.000000 -2.250000
v 3.000000 1.730000 -1.875000
v 3.000000 1.700000 -1.875000
v 3.000000 1.400000 -1.875000
v 3.000000 1.400000 -0.375000
v 3.000000 1.700000 -0.375000
v 3.000000 1.730000 -0.375000
vt -1.875000 1.400000
vt 0.000000 1.100000
vt -0.375000 1.400000
vt -3.000000 0.000000
vt 0.000000 0.000000
vt -0.000000 2.250000
vt -3.000000 2.250000
vt 2.250000 -0.000000
vt 1.875000 1.400000
vt 0.375000 1.400000
vt 0.000000 1.700000
vt 3.000000 1.700000
vt 3.000000 1.730000
vt 0.000000 1.730000
vt -3.000000 1.700000
vt -3.000000 1.730000
vt 0.000000 0.375000
vt 3.000000 0.000000
vt 3.000000 0.375000
vt -0.375000 1.700000
vt -1.875000 1.700000
vt -1.875000 1.730000
vt -2.250000 1.730000
vt -2.250000 1.100000
vt -0.375000 1.730000
vt -2.250000 0.000000
vt 0.375000 1.700000
vt 0.375000 1.730000
vt 2.250000 1.730000
vt 1.875000 1.700000
vt 1.875000 1.730000
vt 3.000000 1.875000
vt 3.000000 2.250000
vt 0.000000 1.875000
vn -1.000000 -0.000000 -0.000000
vn -0.000000 -1.000000 -0.000000
vn 1.000000 -0.000000 0.000000
vn 0.000000 0.000000 1.000000
vn 0.000000 0.000000 -1.000000
vn 0.000000 1.000000 0.000000
usemtl Stone.255
s 1
f 11/1/1 2/2/1 10/3/1
f 4/4/2 3/5/2 14/6/2 16/7/2
f 4/5/3 16/8/3 19/9/3 20/10/3
f 12/11/4 18/12/4 17/13/4 13/14/4
f 21/15/5 9/11/5 8/14/5 22/16/5
f 8/17/6 1/5/6 5/18/6 22/19/6
f 2/2/4 5/13/4 1/14/4
f 2/2/1 1/14/1 9/20/1 10/3/1
f 12/21/1 13/22/1 6/23/1
f 6/23/1 7/24/1 11/1/1 12/21/1
f 7/2/5 15/16/5 16/4/5 14/5/5
f 1/14/1 8/25/1 9/20/1
f 2/2/1 11/1/1 7/24/1
f 3/5/1 2/2/1 7/24/1 14/26/1
f 7/2/5 6/14/5 15/16/5
f 21/27/3 22/28/3 5/14/3
f 15/29/3 18/30/3 19/9/3
f 20/10/3 21/27/3 5/14/3
f 15/29/3 17/31/3 18/30/3
f 20/10/3 5/14/3 4/5/3
f 16/8/3 15/29/3 19/9/3
f 17/32/6 15/33/6 6/6/6 13/34/6
f 5/13/4 2/2/4 3/5/4 4/18/4
usemtl Asphalt.209
f 18/32/6 12/34/6 9/17/6 21/19/6
f 12/21/1 11/1/1 10/3/1 9/20/1
f 21/27/3 20/10/3 19/9/3 18/30/3
