# Blender v2.75 (sub 0) OBJ File: ''
# www.blender.org
mtllib roadTile_038.mtl
o Mesh1_Group1_Model.077
v 0.750000 0.600000 -0.750001
v 0.750000 0.600000 -2.250000
v 0.750000 0.630000 -2.250000
v 0.750000 0.630000 -0.750001
v 3.000000 0.600000 -2.250000
v 3.000000 0.600000 -0.750001
v 3.000000 0.630000 -2.250000
v 3.000000 0.630000 -2.625000
v 0.375000 0.630000 -2.625000
v 0.375000 0.630000 -0.375000
v 3.000000 0.630000 -0.375000
v 3.000000 0.630000 -0.750001
v 3.000000 0.000000 -0.375000
v 3.000000 0.000000 -2.625000
v 3.000000 0.550000 -2.625000
v 3.000000 0.300000 -2.250000
v 3.000000 0.300000 -0.750001
v 3.000000 0.550000 -0.375000
v 3.000000 0.000000 0.000000
v 0.000000 0.000000 -0.000000
v 0.000000 0.000000 -3.000000
v 3.000000 0.000000 -3.000000
v 3.000000 0.550000 0.000000
v 0.375000 0.550000 -0.375000
v 0.375000 0.550000 -2.625000
v 3.000000 0.550000 -3.000000
v 0.000000 0.550000 -3.000000
v 0.000000 0.550000 -0.000000
vt 3.000000 0.630000
vt 0.750000 0.630000
vt 0.750000 0.600000
vt 3.000000 0.600000
vt 0.750001 0.300000
vt 0.375000 0.550000
vt 0.375000 -0.000000
vt 0.750000 0.750001
vt 0.750000 2.250000
vt 0.375000 2.625000
vt 2.625000 -0.000000
vt 2.250000 0.300000
vt 0.375000 0.630000
vt 3.000000 0.550000
vt -0.375000 0.630000
vt -2.625000 0.630000
vt -2.625000 0.550000
vt -0.375000 0.550000
vt -3.000000 0.630000
vt -3.000000 0.550000
vt -0.750000 0.600000
vt -0.750000 0.630000
vt -3.000000 0.600000
vt 3.000000 0.375000
vt 3.000000 0.750001
vt 3.000000 2.625000
vt 0.375000 0.375000
vt 3.000000 2.250000
vt 2.625000 0.550000
vt 2.250000 0.600000
vt 2.625000 0.630000
vt 2.250000 0.630000
vt 0.000000 3.000000
vt 3.000000 -0.000000
vt -3.000000 0.000000
vt 0.000000 0.000000
vt 0.000000 0.550000
vt -3.000000 2.625000
vt -3.000000 0.375000
vt -3.000000 3.000000
vt 3.000000 3.000000
vn 0.000000 0.000000 1.000000
vn 1.000000 -0.000000 0.000000
vn -0.000000 1.000000 0.000000
vn -1.000000 0.000000 0.000000
vn 0.000000 0.000000 -1.000000
vn 0.000000 -1.000000 -0.000000
usemtl Stone
s 1
f 7/1/1 3/2/1 2/3/1 5/4/1
f 17/5/2 6/3/2 18/6/2 13/7/2
f 4/8/3 3/9/3 9/10/3
f 17/5/2 14/11/2 16/12/2
f 11/1/1 10/13/1 24/6/1 18/14/1
f 10/15/4 9/16/4 25/17/4 24/18/4
f 9/15/5 8/19/5 15/20/5 25/18/5
f 1/21/5 4/22/5 12/19/5 6/23/5
f 11/24/3 12/25/3 4/8/3
f 3/9/3 8/26/3 9/10/3
f 10/27/3 11/24/3 4/8/3
f 3/9/3 7/28/3 8/26/3
f 9/10/3 10/27/3 4/8/3
f 18/6/2 6/3/2 12/2/2 11/13/2
f 14/11/2 15/29/2 5/30/2 16/12/2
f 8/31/2 7/32/2 5/30/2 15/29/2
f 14/11/2 17/5/2 13/7/2
f 1/3/2 2/30/2 3/32/2 4/2/2
usemtl Grass
f 24/27/3 25/10/3 27/33/3
f 26/14/2 15/29/2 14/11/2 22/34/2
f 22/35/5 21/36/5 27/37/5 26/20/5
f 21/35/4 20/36/4 28/37/4 27/20/4
f 20/36/1 19/34/1 23/14/1 28/37/1
f 20/36/6 21/33/6 14/38/6 13/39/6
f 19/36/2 13/7/2 18/6/2 23/37/2
f 14/38/6 21/33/6 22/40/6
f 13/39/6 19/35/6 20/36/6
f 24/27/3 23/34/3 18/24/3
f 25/10/3 26/41/3 27/33/3
f 28/36/3 23/34/3 24/27/3
f 25/10/3 15/26/3 26/41/3
f 27/33/3 28/36/3 24/27/3
usemtl Asphalt
f 5/28/3 2/9/3 1/8/3 6/25/3
f 6/3/2 17/5/2 16/12/2 5/30/2
