# Blender v2.75 (sub 0) OBJ File: ''
# www.blender.org
mtllib roadTile_230.mtl
o Mesh1_Group1_Model.235
v 0.000000 1.730000 -0.375000
v 0.000000 1.730000 0.000000
v 3.000000 1.730000 0.000000
v 3.000000 1.730000 -0.375000
v 0.000000 1.730000 -2.250000
v 0.000000 0.000000 -2.250000
v 0.000000 0.000000 0.000000
v 0.000000 0.600000 -0.375000
v 0.000000 0.300000 -0.375000
v 0.000000 0.300000 -1.875000
v 0.000000 0.600000 -1.875000
v 0.000000 1.730000 -1.875000
v 3.000000 1.730000 -2.250000
v 3.000000 0.000000 -2.250000
v 3.000000 1.730000 -1.875000
v 3.000000 0.000000 -0.000000
v 3.000000 0.600000 -1.875000
v 3.000000 0.300000 -1.875000
v 3.000000 0.300000 -0.375000
v 3.000000 0.600000 -0.375000
vt -0.000000 1.730000
vt -3.000000 1.730000
vt -3.000000 0.000000
vt -0.000000 0.000000
vt -2.250000 0.000000
vt -0.375000 0.300000
vt 3.000000 1.875000
vt 3.000000 2.250000
vt 0.000000 2.250000
vt 0.000000 1.875000
vt -3.000000 2.250000
vt 2.250000 0.000000
vt 1.875000 0.300000
vt 3.000000 1.730000
vt 3.000000 -0.000000
vt 0.000000 0.600000
vt 3.000000 0.600000
vt -3.000000 0.600000
vt -1.875000 0.600000
vt -1.875000 1.730000
vt -2.250000 1.730000
vt -0.375000 0.600000
vt -0.375000 1.730000
vt -1.875000 0.300000
vt 0.375000 0.600000
vt 0.375000 1.730000
vt 1.875000 0.600000
vt 0.375000 0.300000
vt 2.250000 1.730000
vt 1.875000 1.730000
vt 0.000000 0.375000
vt 3.000000 0.375000
vn 0.000000 0.000000 -1.000000
vn -1.000000 -0.000000 -0.000000
vn 0.000000 1.000000 0.000000
vn 0.000000 -1.000000 -0.000000
vn 1.000000 -0.000000 0.000000
vn 0.000000 -0.000000 1.000000
usemtl Stone.203
s 1
f 5/1/1 13/2/1 14/3/1 6/4/1
f 6/5/2 7/4/2 9/6/2
f 15/7/3 13/8/3 5/9/3 12/10/3
f 14/11/4 16/3/4 7/4/4 6/9/4
f 16/4/5 14/12/5 18/13/5
f 3/14/6 2/1/6 7/4/6 16/15/6
f 11/16/6 17/17/6 15/14/6 12/1/6
f 20/18/1 8/16/1 1/1/1 4/2/1
f 11/19/2 12/20/2 5/21/2
f 7/4/2 8/22/2 9/6/2
f 6/5/2 11/19/2 5/21/2
f 2/1/2 1/23/2 8/22/2
f 10/24/2 11/19/2 6/5/2
f 7/4/2 2/1/2 8/22/2
f 9/6/2 10/24/2 6/5/2
f 20/25/5 3/1/5 16/4/5
f 3/1/5 20/25/5 4/26/5
f 14/12/5 17/27/5 18/13/5
f 19/28/5 20/25/5 16/4/5
f 13/29/5 15/30/5 17/27/5
f 18/13/5 19/28/5 16/4/5
f 14/12/5 13/29/5 17/27/5
f 1/31/3 2/4/3 3/15/3 4/32/3
usemtl Asphalt.170
f 17/7/3 11/10/3 8/31/3 20/32/3
f 11/19/2 10/24/2 9/6/2 8/22/2
f 20/25/5 19/28/5 18/13/5 17/27/5
