# Blender v2.75 (sub 0) OBJ File: ''
# www.blender.org
mtllib roadTile_271.mtl
o Mesh1_Group1_Model.146
v 3.000000 0.600000 -1.125000
v 3.000000 0.300000 -1.125000
v 3.000000 0.300000 -1.875000
v 3.000000 0.600000 -1.875000
v 3.000000 0.000000 0.000000
v 3.000000 0.000000 -3.000000
v 3.000000 0.630000 -3.000000
v 3.000000 0.630000 -1.875000
v 3.000000 0.630000 -1.125000
v 3.000000 0.630000 0.000000
v 0.000000 0.000000 -3.000000
v 0.000000 0.000000 -0.000000
v 0.000000 0.630000 -3.000000
v 0.000000 0.630000 0.000000
v 0.000000 0.630000 -1.125000
v 0.000000 0.600000 -1.125000
v 0.000000 0.300000 -1.125000
v 0.000000 0.300000 -1.875000
v 0.000000 0.600000 -1.875000
v 0.000000 0.630000 -1.875000
vt 1.125000 0.300000
vt 1.125000 0.600000
vt 0.000000 0.630000
vt 0.000000 0.000000
vt 3.000000 0.000000
vt 1.875000 0.300000
vt -3.000000 0.630000
vt -3.000000 -0.000000
vt -1.875000 0.300000
vt -1.875000 0.600000
vt -1.125000 0.300000
vt 3.000000 1.125000
vt 0.000000 1.125000
vt -3.000000 0.600000
vt -0.000000 0.600000
vt 3.000000 0.600000
vt 3.000000 0.630000
vt 0.000000 3.000000
vt 0.000000 1.875000
vt 3.000000 1.875000
vt 3.000000 3.000000
vt 1.875000 0.600000
vt 1.125000 0.630000
vt -3.000000 3.000000
vt 1.875000 0.630000
vt -1.125000 0.600000
vt -1.875000 0.630000
vt -1.125000 0.630000
vn 1.000000 0.000000 0.000000
vn 0.000000 0.000000 -1.000000
vn -1.000000 -0.000000 -0.000000
vn 0.000000 1.000000 0.000000
vn 0.000000 0.000000 1.000000
vn 0.000000 -1.000000 -0.000000
usemtl Stone.128
s 1
f 2/1/1 1/2/1 10/3/1 5/4/1
f 5/4/1 6/5/1 3/6/1
f 7/7/2 6/8/2 11/4/2 13/3/2
f 18/9/3 19/10/3 13/7/3 11/8/3
f 18/9/3 12/4/3 17/11/3
f 10/5/4 9/12/4 15/13/4 14/4/4
f 1/14/2 16/15/2 15/3/2 9/7/2
f 19/15/5 4/16/5 8/17/5 20/3/5
f 13/18/4 20/19/4 8/20/4 7/21/4
f 6/5/1 7/17/1 4/22/1 3/6/1
f 10/3/1 1/2/1 9/23/1
f 11/18/6 6/24/6 5/8/6 12/4/6
f 7/17/1 8/25/1 4/22/1
f 3/6/1 2/1/1 5/4/1
f 12/4/3 14/3/3 16/26/3 17/11/3
f 13/7/3 19/10/3 20/27/3
f 14/3/5 12/4/5 5/5/5 10/17/5
f 14/3/3 15/28/3 16/26/3
f 12/4/3 18/9/3 11/8/3
usemtl Asphalt.108
f 16/13/4 1/12/4 4/20/4 19/19/4
f 19/10/3 18/9/3 17/11/3 16/26/3
f 1/2/1 2/1/1 3/6/1 4/22/1
