# Blender v2.75 (sub 0) OBJ File: ''
# www.blender.org
mtllib roadTile_284.mtl
o Mesh1_Group1_Model.262
v 1.143840 0.550000 -1.143840
v 1.402000 0.550000 -0.917448
v 1.402000 0.630000 -0.917448
v 1.143840 0.630000 -1.143840
v 3.000000 0.550000 0.000000
v 3.000000 0.550000 -0.375000
v 2.657370 0.550000 -0.397457
v 2.320600 0.550000 -0.464445
v 1.995460 0.550000 -0.574816
v 1.687500 0.550000 -0.726683
v 0.917447 0.550000 -1.402000
v 0.726683 0.550000 -1.687500
v 0.574816 0.550000 -1.995460
v 0.464445 0.550000 -2.320600
v 0.397457 0.550000 -2.657370
v 0.375000 0.550000 -3.000000
v 0.000000 0.550000 -3.000000
v 0.000000 0.550000 0.000000
v 3.000000 0.000000 0.000000
v 3.000000 0.000000 -0.375000
v 0.000000 0.000000 -0.000000
v 0.000000 0.000000 -3.000000
v 0.375000 0.000000 -3.000000
v 0.750000 0.000000 -3.000000
v 1.875000 0.000000 -3.000000
v 3.000000 0.000000 -3.000000
v 3.000000 0.000000 -1.875000
v 3.000000 0.000000 -0.750000
v 0.375000 0.630000 -3.000000
v 0.750000 0.630000 -3.000000
v 0.750000 0.455000 -3.000000
v 0.397457 0.630000 -2.657370
v 0.464445 0.630000 -2.320600
v 0.574816 0.630000 -1.995460
v 0.726683 0.630000 -1.687500
v 0.917447 0.630000 -1.402000
v 1.687500 0.630000 -0.726683
v 1.995460 0.630000 -0.574816
v 2.320600 0.630000 -0.464445
v 2.657370 0.630000 -0.397457
v 3.000000 0.630000 -0.375000
v 3.000000 0.630000 -0.750000
v 2.706320 0.630000 -0.769249
v 2.417660 0.630000 -0.826667
v 2.138960 0.630000 -0.921271
v 1.875000 0.630000 -1.051440
v 1.630290 0.630000 -1.214950
v 1.409010 0.630000 -1.409010
v 1.214950 0.630000 -1.630290
v 1.051440 0.630000 -1.875000
v 0.921271 0.630000 -2.138960
v 0.826667 0.630000 -2.417660
v 0.769249 0.630000 -2.706320
v 3.000000 0.455000 -0.750000
v 3.000000 0.455000 -1.875000
v 3.000000 0.455000 -3.000000
v 1.875000 0.455000 -3.000000
v 1.884620 0.455000 -2.853160
v 1.913330 0.455000 -2.708830
v 1.960640 0.455000 -2.569480
v 2.025720 0.455000 -2.437500
v 2.107480 0.455000 -2.315140
v 2.204500 0.455000 -2.204500
v 2.315140 0.455000 -2.107480
v 2.437500 0.455000 -2.025720
v 2.569480 0.455000 -1.960640
v 2.708830 0.455000 -1.913330
v 2.853160 0.455000 -1.884620
v 0.769249 0.455000 -2.706320
v 0.826667 0.455000 -2.417660
v 0.921271 0.455000 -2.138960
v 1.051440 0.455000 -1.875000
v 1.214950 0.455000 -1.630290
v 1.409010 0.455000 -1.409010
v 1.630290 0.455000 -1.214950
v 1.875000 0.455000 -1.051440
v 2.138960 0.455000 -0.921271
v 2.417660 0.455000 -0.826667
v 2.706320 0.455000 -0.769249
vt -0.375000 0.000000
vt -0.375000 0.550000
vt -0.750000 0.455000
vt -0.750000 0.000000
vt -2.528770 0.550000
vt -2.185400 0.550000
vt -2.185400 0.630000
vt -2.528770 0.630000
vt -2.048160 0.550000
vt -1.704790 0.550000
vt -1.704790 0.630000
vt -2.048160 0.630000
vt -1.535440 0.550000
vt -1.192070 0.550000
vt -1.192070 0.630000
vt -1.535440 0.630000
vt -0.999381 0.550000
vt -0.656015 0.550000
vt -0.656015 0.630000
vt -0.999381 0.630000
vt -0.449165 0.550000
vt -0.105799 0.550000
vt -0.105799 0.630000
vt -0.449165 0.630000
vt 2.657370 0.397457
vt 3.000000 0.375000
vt 3.000000 0.750000
vt 2.706320 0.769249
vt 1.192070 0.550000
vt 1.535440 0.550000
vt 1.535440 0.630000
vt 1.192070 0.630000
vt 1.704790 0.550000
vt 2.048160 0.550000
vt 2.048160 0.630000
vt 1.704790 0.630000
vt 2.185400 0.550000
vt 2.528770 0.550000
vt 2.528770 0.630000
vt 2.185400 0.630000
vt 2.625680 0.550000
vt 2.969050 0.550000
vt 2.969050 0.630000
vt 2.625680 0.630000
vt 0.375000 0.550000
vt 0.750000 0.455000
vt 0.750000 0.630000
vt 0.375000 0.630000
vt 2.504240 0.455000
vt 2.504240 0.630000
vt 2.209930 0.630000
vt 2.209930 0.455000
vt 2.023630 0.455000
vt 2.023630 0.630000
vt 1.729310 0.630000
vt 1.729310 0.455000
vt 1.510910 0.455000
vt 1.510910 0.630000
vt 1.216600 0.630000
vt 1.216600 0.455000
vt 0.974855 0.455000
vt 0.974855 0.630000
vt 0.680541 0.630000
vt 0.680541 0.455000
vt 0.424639 0.455000
vt 0.424639 0.630000
vt 0.130325 0.630000
vt 0.130325 0.455000
vt -0.130325 0.455000
vt -0.130325 0.630000
vt -0.424639 0.630000
vt -0.424639 0.455000
vt -0.680541 0.455000
vt -0.680541 0.630000
vt -0.974855 0.630000
vt -0.974855 0.455000
vt -1.216600 0.455000
vt -1.216600 0.630000
vt -1.510910 0.630000
vt -1.510910 0.455000
vt -1.729310 0.455000
vt -1.729310 0.630000
vt -2.023630 0.630000
vt -2.023630 0.455000
vt -2.209930 0.455000
vt -2.209930 0.630000
vt -2.504240 0.630000
vt -2.504240 0.455000
vt -2.650210 0.455000
vt -2.650210 0.630000
vt -2.944520 0.630000
vt -2.944520 0.455000
vt -0.375000 0.630000
vt -0.750000 0.630000
vt -2.969050 0.550000
vt -2.625680 0.550000
vt -2.625680 0.630000
vt -2.969050 0.630000
vt 0.397457 2.657370
vt 0.769249 2.706320
vt 0.750000 3.000000
vt 0.375000 3.000000
vt 2.320600 0.464445
vt 2.417660 0.826667
vt 1.995460 0.574816
vt 2.138960 0.921271
vt 0.464445 2.320600
vt 0.826667 2.417660
vt 1.875000 1.051440
vt 1.687500 0.726683
vt 0.574816 1.995460
vt 0.921271 2.138960
vt 1.630290 1.214950
vt 1.402000 0.917448
vt 0.726683 1.687500
vt 1.051440 1.875000
vt 1.409010 1.409010
vt 1.143840 1.143840
vt 0.917447 1.402000
vt 1.214950 1.630290
vt 0.656015 0.550000
vt 0.999381 0.550000
vt 0.999381 0.630000
vt 0.656015 0.630000
vt 0.375000 0.000000
vt 0.750000 0.000000
vt 2.944520 0.455000
vt 2.944520 0.630000
vt 2.650210 0.630000
vt 2.650210 0.455000
vt 0.105799 0.550000
vt 0.449165 0.550000
vt 0.449165 0.630000
vt 0.105799 0.630000
vt -1.875000 0.455000
vt -1.875000 -0.000000
vt 3.000000 1.875000
vt 2.853160 1.884620
vt 1.875000 0.000000
vt 1.875000 0.455000
vt 2.708830 1.913330
vt 2.569480 1.960640
vt 2.437500 2.025720
vt 2.315140 2.107480
vt 2.204500 2.204500
vt 2.107480 2.315140
vt 2.025720 2.437500
vt 1.960640 2.569480
vt 1.913330 2.708830
vt 1.884620 2.853160
vt 1.875000 3.000000
vt 0.000000 0.000000
vt 0.000000 0.550000
vt -3.000000 0.750000
vt -0.750000 3.000000
vt -1.875000 3.000000
vt -3.000000 0.550000
vt -3.000000 0.000000
vt 0.000000 3.000000
vt 3.000000 -0.000000
vt -3.000000 0.375000
vt -3.000000 3.000000
vt -3.000000 1.875000
vt 3.000000 0.550000
vt -0.375000 3.000000
vt 3.000000 0.455000
vt -3.000000 0.455000
vt 3.000000 3.000000
vn 0.000000 0.000000 -1.000000
vn -0.991400 0.000000 0.130500
vn -0.965900 0.000000 0.258800
vn -0.923900 0.000000 0.382700
vn -0.866000 0.000000 0.500000
vn -0.793400 0.000000 0.608800
vn -0.707100 0.000000 0.707100
vn -0.000000 1.000000 0.000000
vn -0.500000 0.000000 0.866000
vn -0.382700 0.000000 0.923900
vn -0.258800 0.000000 0.965900
vn -0.130500 0.000000 0.991400
vn -0.065400 0.000000 0.997900
vn 1.000000 0.000000 0.000000
vn 0.991400 0.000000 -0.130500
vn 0.965900 0.000000 -0.258800
vn 0.923900 0.000000 -0.382700
vn 0.866000 0.000000 -0.500000
vn 0.793400 0.000000 -0.608800
vn 0.707100 0.000000 -0.707100
vn 0.608800 0.000000 -0.793400
vn 0.500000 0.000000 -0.866000
vn 0.382700 0.000000 -0.923900
vn 0.258800 0.000000 -0.965900
vn 0.130500 0.000000 -0.991400
vn 0.065400 0.000000 -0.997900
vn -0.997900 0.000000 0.065400
vn -0.608800 0.000000 0.793400
vn 0.997900 0.000000 -0.065400
vn 0.000000 -1.000000 -0.000000
vn -1.000000 0.000000 -0.000000
vn -0.000000 -0.000000 1.000000
usemtl Stone
s 1
f 23/1/1 16/2/1 31/3/1 24/4/1
f 15/5/2 14/6/3 33/7/3 32/8/2
f 14/9/3 13/10/4 34/11/4 33/12/3
f 13/13/4 12/14/5 35/15/5 34/16/4
f 12/17/5 11/18/6 36/19/6 35/20/5
f 11/21/6 1/22/7 4/23/7 36/24/6
f 40/25/8 41/26/8 42/27/8 43/28/8
f 10/29/9 9/30/10 38/31/10 37/32/9
f 9/33/10 8/34/11 39/35/11 38/36/10
f 8/37/11 7/38/12 40/39/12 39/40/11
f 7/41/12 6/42/13 41/43/13 40/44/12
f 6/45/14 54/46/14 42/47/14 41/48/14
f 69/49/15 53/50/15 52/51/16 70/52/16
f 70/53/16 52/54/16 51/55/17 71/56/17
f 71/57/17 51/58/17 50/59/18 72/60/18
f 72/61/18 50/62/18 49/63/19 73/64/19
f 73/65/19 49/66/19 48/67/20 74/68/20
f 74/69/20 48/70/20 47/71/21 75/72/21
f 75/73/21 47/74/21 46/75/22 76/76/22
f 76/77/22 46/78/22 45/79/23 77/80/23
f 77/81/23 45/82/23 44/83/24 78/84/24
f 78/85/24 44/86/24 43/87/25 79/88/25
f 79/89/25 43/90/25 42/91/26 54/92/26
f 31/3/1 16/2/1 29/93/1 30/94/1
f 16/95/27 15/96/2 32/97/2 29/98/27
f 32/99/8 53/100/8 30/101/8 29/102/8
f 39/103/8 40/25/8 43/28/8 44/104/8
f 38/105/8 39/103/8 44/104/8 45/106/8
f 32/99/8 33/107/8 52/108/8 53/100/8
f 46/109/8 37/110/8 38/105/8 45/106/8
f 34/111/8 51/112/8 52/108/8 33/107/8
f 47/113/8 3/114/8 37/110/8 46/109/8
f 34/111/8 35/115/8 50/116/8 51/112/8
f 48/117/8 4/118/8 3/114/8 47/113/8
f 35/115/8 36/119/8 49/120/8 50/116/8
f 48/117/8 49/120/8 36/119/8 4/118/8
f 2/121/28 10/122/9 37/123/9 3/124/28
f 54/46/14 6/45/14 20/125/14 28/126/14
f 31/127/29 30/128/29 53/129/15 69/130/15
f 1/131/7 2/132/28 3/133/28 4/134/7
usemtl Sand
f 24/4/1 31/3/1 57/135/1 25/136/1
f 54/27/8 55/137/8 68/138/8 79/28/8
f 28/126/14 27/139/14 55/140/14 54/46/14
f 67/141/8 66/142/8 77/106/8 78/104/8
f 65/143/8 64/144/8 75/113/8 76/109/8
f 63/145/8 62/146/8 73/120/8 74/117/8
f 73/120/8 62/146/8 61/147/8 72/116/8
f 71/112/8 60/148/8 59/149/8 70/108/8
f 69/100/8 58/150/8 57/151/8 31/101/8
f 78/104/8 79/28/8 68/138/8 67/141/8
f 69/100/8 70/108/8 59/149/8 58/150/8
f 65/143/8 76/109/8 77/106/8 66/142/8
f 71/112/8 72/116/8 61/147/8 60/148/8
f 63/145/8 74/117/8 75/113/8 64/144/8
usemtl Grass
f 19/152/14 20/125/14 6/45/14 5/153/14
f 2/114/8 1/118/8 18/152/8
f 28/154/30 21/152/30 24/155/30 25/156/30
f 18/153/31 17/157/31 22/158/31 21/152/31
f 17/153/1 16/2/1 23/1/1 22/152/1
f 14/107/8 17/159/8 18/152/8
f 7/25/8 5/160/8 6/26/8
f 15/99/8 16/102/8 17/159/8
f 8/103/8 5/160/8 7/25/8
f 14/107/8 15/99/8 17/159/8
f 18/152/8 5/160/8 8/103/8
f 13/111/8 14/107/8 18/152/8
f 18/152/8 8/103/8 9/105/8
f 12/115/8 13/111/8 18/152/8
f 18/152/8 9/105/8 10/110/8
f 11/119/8 12/115/8 18/152/8
f 18/152/8 10/110/8 2/114/8
f 1/118/8 11/119/8 18/152/8
f 21/152/30 28/154/30 20/161/30
f 25/156/30 26/162/30 27/163/30
f 18/153/32 21/152/32 19/160/32 5/164/32
f 21/152/30 22/159/30 23/165/30
f 20/161/30 19/158/30 21/152/30
f 25/156/30 27/163/30 28/154/30
f 21/152/30 23/165/30 24/155/30
usemtl Water
f 56/166/14 55/140/14 27/139/14 26/160/14
f 26/158/1 25/136/1 57/135/1 56/167/1
f 56/168/8 62/146/8 63/145/8
f 68/138/8 55/137/8 56/168/8
f 56/168/8 67/141/8 68/138/8
f 56/168/8 65/143/8 66/142/8
f 56/168/8 63/145/8 64/144/8
f 56/168/8 61/147/8 62/146/8
f 56/168/8 59/149/8 60/148/8
f 56/168/8 57/151/8 58/150/8
f 66/142/8 67/141/8 56/168/8
f 56/168/8 64/144/8 65/143/8
f 56/168/8 60/148/8 61/147/8
f 59/149/8 56/168/8 58/150/8
