# Blender v2.75 (sub 0) OBJ File: ''
# www.blender.org
mtllib roadTile_039.mtl
o Mesh1_Group1_Model.140
v 0.000000 0.000000 -3.000000
v 0.000000 0.000000 -2.598840
v 0.000000 0.550000 -2.598840
v 0.000000 0.630000 -2.598840
v 0.000000 0.630000 -3.000000
v 0.401164 0.000000 -0.000000
v 0.000000 0.000000 -0.000000
v 0.000000 0.000000 -0.401164
v 0.401164 0.000000 -3.000000
v 2.598840 0.000000 -3.000000
v 3.000000 0.000000 -3.000000
v 3.000000 0.000000 -2.598840
v 3.000000 0.000000 -0.401164
v 3.000000 0.000000 -0.000000
v 2.598840 0.000000 -0.000000
v 0.401164 0.550000 0.000000
v 0.401164 0.630000 0.000000
v 0.000000 0.630000 0.000000
v 2.598840 0.550000 0.000000
v 2.598840 0.630000 0.000000
v 3.000000 0.630000 0.000000
v 2.825830 0.630000 -0.174175
v 2.825830 0.550000 -0.174175
v 3.000000 0.630000 -0.401164
v 3.000000 0.550000 -0.401164
v 3.000000 0.550000 -2.598840
v 3.000000 0.630000 -2.598840
v 3.000000 0.630000 -3.000000
v 2.825830 0.630000 -2.825830
v 2.825830 0.550000 -2.825830
v 2.598840 0.630000 -3.000000
v 2.598840 0.550000 -3.000000
v 0.401164 0.550000 -3.000000
v 0.174175 0.550000 -2.825830
v 0.000000 0.550000 -0.401164
v 0.174175 0.550000 -0.174175
v 0.174175 0.630000 -2.825830
v 0.401164 0.630000 -3.000000
v 0.000000 0.630000 -0.401164
v 0.174175 0.630000 -0.174175
vt 3.000000 0.630000
vt 2.598840 0.550000
vt 2.598840 0.000000
vt 3.000000 0.000000
vt 0.000000 0.000000
vt 0.401164 0.000000
vt 0.401164 0.550000
vt 0.000000 0.630000
vt 3.000000 0.401164
vt 2.825830 0.174175
vt -2.598840 0.550000
vt -3.000000 0.630000
vt -3.000000 0.000000
vt -2.598840 0.000000
vt 3.000000 3.000000
vt 2.598840 3.000000
vt 2.825830 2.825830
vt -0.401164 0.550000
vt -0.401164 0.000000
vt 0.000000 3.000000
vt 0.000000 2.598840
vt 0.174175 2.825830
vt -0.401164 0.630000
vt -0.032151 0.630000
vt -0.318265 0.630000
vt -0.318265 0.550000
vt -0.032151 0.550000
vt 0.174175 0.174175
vt -1.858440 0.630000
vt -2.144550 0.630000
vt -2.144550 0.550000
vt -1.858440 0.550000
vt 0.521624 0.630000
vt 0.235511 0.630000
vt 0.235511 0.550000
vt 0.521624 0.550000
vt -2.598840 0.630000
vt 0.401164 0.630000
vt 2.598840 0.630000
vt -2.061800 0.630000
vt -2.347910 0.630000
vt -2.347910 0.550000
vt -2.061800 0.550000
vt -0.235511 0.630000
vt -0.521624 0.630000
vt -0.521624 0.550000
vt -0.235511 0.550000
vt 3.000000 2.598840
vt 2.347910 0.630000
vt 2.061800 0.630000
vt 2.061800 0.550000
vt 2.347910 0.550000
vt 0.401164 3.000000
vt 2.144550 0.630000
vt 1.858440 0.630000
vt 1.858440 0.550000
vt 2.144550 0.550000
vt 0.318265 0.630000
vt 0.032151 0.630000
vt 0.032151 0.550000
vt 0.318265 0.550000
vt 0.000000 0.401164
vt -0.401164 3.000000
vt -3.000000 2.598840
vt -3.000000 0.401164
vt -2.598840 3.000000
vt -3.000000 3.000000
vn 0.000000 -0.000000 1.000000
vn 1.000000 0.000000 0.000000
vn 0.000000 1.000000 0.000000
vn 0.000000 0.000000 -1.000000
vn -1.000000 0.000000 -0.000000
vn 0.707100 0.000000 -0.707100
vn 0.608800 0.000000 -0.793400
vn -0.707100 0.000000 -0.707100
vn -0.793400 0.000000 -0.608800
vn -0.707100 0.000000 0.707100
vn -0.608700 0.000000 0.793400
vn -0.608800 0.000000 -0.793400
vn -0.793400 0.000000 0.608700
vn 0.707100 0.000000 0.707100
vn 0.793400 0.000000 0.608800
vn 0.608800 0.000000 0.793400
vn 0.793400 0.000000 -0.608800
vn 0.000000 -1.000000 -0.000000
usemtl Stone.123
s 1
f 21/1/1 19/2/1 15/3/1 14/4/1
f 14/5/2 13/6/2 25/7/2 21/8/2
f 21/4/3 24/9/3 22/10/3
f 28/1/2 26/2/2 12/3/2 11/4/2
f 32/11/4 28/12/4 11/13/4 10/14/4
f 28/15/3 31/16/3 29/17/3
f 33/18/4 9/19/4 1/5/4 5/8/4
f 5/20/3 4/21/3 37/22/3
f 5/8/4 38/23/4 33/18/4
f 18/8/5 35/18/5 8/19/5 7/5/5
f 40/24/6 17/25/7 16/26/7 36/27/6
f 18/5/3 17/6/3 40/28/3
f 22/29/8 24/30/9 25/31/9 23/32/8
f 29/33/10 31/34/11 32/35/11 30/36/10
f 5/12/5 3/11/5 4/37/5
f 7/5/1 6/6/1 16/7/1 18/8/1
f 18/8/1 16/7/1 17/38/1
f 19/2/1 21/1/1 20/39/1
f 20/40/12 22/41/8 23/42/8 19/43/12
f 20/3/3 21/4/3 22/10/3
f 21/8/2 25/7/2 24/38/2
f 26/2/2 28/1/2 27/39/2
f 27/44/13 29/45/10 30/46/10 26/47/13
f 27/48/3 28/15/3 29/17/3
f 28/12/4 32/11/4 31/37/4
f 37/49/14 4/50/15 3/51/15 34/52/14
f 38/53/3 5/20/3 37/22/3
f 38/54/16 37/55/14 34/56/14 33/57/16
f 35/18/5 18/8/5 39/23/5
f 39/58/17 40/59/6 36/60/6 35/61/17
f 39/62/3 18/5/3 40/28/3
f 1/13/5 2/14/5 3/11/5 5/12/5
usemtl Grass.056
f 6/19/18 8/62/18 9/63/18
f 33/53/3 16/6/3 25/9/3 26/48/3
f 2/14/5 8/19/5 35/18/5 3/11/5
f 9/63/18 12/64/18 13/65/18 6/19/18
f 13/65/18 15/14/18 6/19/18
f 15/14/18 13/65/18 14/13/18
f 10/66/18 11/67/18 12/64/18
f 12/64/18 9/63/18 10/66/18
f 9/63/18 2/21/18 1/20/18
f 6/19/18 7/5/18 8/62/18
f 9/63/18 8/62/18 2/21/18
f 6/6/1 15/3/1 19/2/1 16/7/1
f 13/6/2 12/3/2 26/2/2 25/7/2
f 33/18/4 32/11/4 10/14/4 9/19/4
f 3/21/3 33/53/3 34/22/3
f 26/48/3 30/17/3 32/16/3
f 25/9/3 19/3/3 23/10/3
f 35/62/3 36/28/3 16/6/3
f 33/53/3 3/21/3 35/62/3
f 26/48/3 32/16/3 33/53/3
f 16/6/3 19/3/3 25/9/3
f 33/53/3 35/62/3 16/6/3
