# Blender v2.75 (sub 0) OBJ File: ''
# www.blender.org
mtllib roadTile_117.mtl
o Mesh1_Group1_Model.040
v 2.625000 0.600000 0.000000
v 2.625000 0.600000 -3.000000
v 0.375000 0.600000 -3.000000
v 0.375000 0.600000 0.000000
v 2.625000 0.300000 0.000000
v 2.625000 0.300000 -3.000000
v 0.375000 0.300000 0.000000
v 0.000000 1.730000 0.000000
v 0.000000 0.000000 -0.000000
v 2.625000 0.000000 0.000000
v 0.375000 1.730000 0.000000
v 0.000000 1.730000 -3.000000
v 0.000000 0.000000 -3.000000
v 0.375000 1.730000 -3.000000
v 2.625000 0.000000 -3.000000
v 0.375000 0.300000 -3.000000
vt -0.000000 1.730000
vt -3.000000 1.730000
vt -3.000000 0.000000
vt -0.000000 0.000000
vt 0.375000 0.600000
vt 0.375000 0.300000
vt 0.375000 3.000000
vt 0.000000 3.000000
vt 0.375000 0.000000
vt -2.625000 3.000000
vt -2.625000 -0.000000
vt -0.375000 0.600000
vt 3.000000 0.000000
vt 3.000000 0.300000
vt 0.000000 0.300000
vt 3.000000 1.730000
vt 0.000000 0.600000
vt 3.000000 0.600000
vt 0.375000 1.730000
vt 2.625000 0.000000
vt 2.625000 0.300000
vt -0.375000 0.300000
vt -2.625000 0.300000
vt -0.375000 1.730000
vt 2.625000 0.600000
vt -2.625000 0.600000
vt 2.625000 3.000000
vn -1.000000 0.000000 -0.000000
vn -0.000000 -0.000000 1.000000
vn 0.000000 1.000000 0.000000
vn -0.000000 -1.000000 -0.000000
vn 0.000000 0.000000 -1.000000
vn 1.000000 0.000000 0.000000
usemtl Stone
s 1
f 8/1/1 12/2/1 13/3/1 9/4/1
f 4/5/2 9/4/2 7/6/2
f 14/7/3 12/8/3 8/4/3 11/9/3
f 15/10/4 10/11/4 9/4/4 13/8/4
f 13/4/5 12/1/5 3/12/5
f 15/13/6 6/14/6 5/15/6 10/4/6
f 14/16/6 11/1/6 4/17/6 3/18/6
f 4/5/2 11/19/2 8/1/2
f 10/20/2 5/21/2 7/6/2
f 9/4/2 4/5/2 8/1/2
f 9/4/2 10/20/2 7/6/2
f 16/22/5 6/23/5 15/11/5
f 13/4/5 3/12/5 16/22/5
f 3/12/5 12/1/5 14/24/5
f 16/22/5 15/11/5 13/4/5
usemtl Asphalt
f 1/17/6 5/15/6 6/14/6 2/18/6
f 4/5/2 7/6/2 5/21/2 1/25/2
f 2/26/5 6/23/5 16/22/5 3/12/5
f 1/20/3 2/27/3 3/7/3 4/9/3
