# Blender v2.75 (sub 0) OBJ File: ''
# www.blender.org
mtllib roadTile_225.mtl
o Mesh1_Group1_Model.148
v 0.000000 1.730000 -0.375000
v 0.000000 1.730000 -1.875000
v 0.000000 1.400000 -1.875000
v 0.000000 1.400000 -0.375000
v 3.000000 0.600000 -0.375000
v 3.000000 0.600000 -1.875000
v 3.000000 1.730000 -0.375000
v 3.000000 0.000000 -0.000000
v 3.000000 0.000000 -2.250000
v 3.000000 1.730000 -2.250000
v 3.000000 1.730000 -1.875000
v 3.000000 0.300000 -1.875000
v 3.000000 0.300000 -0.375000
v 3.000000 1.730000 0.000000
v 0.000000 0.000000 0.000000
v 0.000000 0.000000 -2.250000
v 0.000000 1.730000 0.000000
v 0.000000 1.730000 -2.250000
vt -3.000000 2.250000
vt -3.000000 0.000000
vt 0.000000 -0.000000
vt -0.000000 2.250000
vt -3.000000 1.730000
vt -3.000000 0.600000
vt -0.000000 1.730000
vt 2.250000 0.000000
vt 1.875000 0.300000
vt 3.000000 1.730000
vt 3.000000 0.000000
vt 0.000000 0.375000
vt 3.000000 0.375000
vt -2.250000 0.000000
vt -0.375000 1.400000
vt -1.875000 1.400000
vt 3.000000 0.600000
vt 0.375000 0.600000
vt 0.375000 1.730000
vt 1.875000 0.600000
vt 0.375000 0.300000
vt 2.250000 1.730000
vt 1.875000 1.730000
vt -2.250000 1.730000
vt -0.375000 1.730000
vt -1.875000 1.730000
vt 3.000000 1.875000
vt 3.000000 2.250000
vt 0.000000 1.875000
vt 0.375000 0.609809
vt 0.375000 -2.595950
vt 1.875000 -2.595950
vt 1.875000 0.609809
vn 0.000000 -1.000000 -0.000000
vn 0.000000 0.000000 -1.000000
vn 1.000000 -0.000000 0.000000
vn 0.000000 -0.000000 1.000000
vn 0.000000 1.000000 0.000000
vn -1.000000 0.000000 0.000000
vn 0.352500 0.935800 0.000000
usemtl Stone
s 1
f 9/1/1 8/2/1 15/3/1 16/4/1
f 7/5/2 5/6/2 1/7/2
f 8/3/3 9/8/3 12/9/3
f 14/10/4 17/7/4 15/3/4 8/11/4
f 1/12/5 17/3/5 14/11/5 7/13/5
f 16/14/6 15/3/6 4/15/6 3/16/6
f 18/7/2 10/5/2 9/2/2 16/3/2
f 11/10/4 2/7/4 6/17/4
f 5/18/3 14/7/3 8/3/3
f 14/7/3 5/18/3 7/19/3
f 9/8/3 6/20/3 12/9/3
f 13/21/3 5/18/3 8/3/3
f 10/22/3 11/23/3 6/20/3
f 12/9/3 13/21/3 8/3/3
f 9/8/3 10/22/3 6/20/3
f 3/16/6 18/24/6 16/14/6
f 17/7/6 1/25/6 4/15/6
f 3/16/6 2/26/6 18/24/6
f 15/3/6 17/7/6 4/15/6
f 11/27/5 10/28/5 18/4/5 2/29/5
usemtl Asphalt
f 1/30/7 5/31/7 6/32/7 2/33/7
f 5/18/3 13/21/3 12/9/3 6/20/3
f 1/25/6 2/26/6 3/16/6 4/15/6
