# Blender v2.75 (sub 0) OBJ File: ''
# www.blender.org
mtllib roadTile_157.mtl
o Mesh1_Group1_Model.277
v 0.769249 0.550000 -2.706320
v 0.750000 0.550000 -3.000000
v 0.000000 0.550000 -3.000000
v 0.000000 0.550000 0.000000
v 3.000000 0.550000 0.000000
v 3.000000 0.550000 -0.750000
v 2.706320 0.550000 -0.769249
v 2.417660 0.550000 -0.826667
v 2.138960 0.550000 -0.921271
v 1.875000 0.550000 -1.051440
v 1.630290 0.550000 -1.214950
v 1.409010 0.550000 -1.409010
v 1.214950 0.550000 -1.630290
v 1.051440 0.550000 -1.875000
v 0.921271 0.550000 -2.138960
v 0.826667 0.550000 -2.417660
v 0.769249 0.455000 -2.706320
v 0.750000 0.455000 -3.000000
v 3.000000 0.455000 -0.750000
v 3.000000 0.455000 -1.875000
v 2.853160 0.455000 -1.884620
v 2.708830 0.455000 -1.913330
v 2.569480 0.455000 -1.960640
v 2.437500 0.455000 -2.025720
v 2.315140 0.455000 -2.107480
v 2.204500 0.455000 -2.204500
v 2.107480 0.455000 -2.315140
v 2.025720 0.455000 -2.437500
v 1.960640 0.455000 -2.569480
v 1.913330 0.455000 -2.708830
v 1.884620 0.455000 -2.853160
v 1.875000 0.455000 -3.000000
v 0.826667 0.455000 -2.417660
v 0.921271 0.455000 -2.138960
v 1.051440 0.455000 -1.875000
v 1.214950 0.455000 -1.630290
v 1.409010 0.455000 -1.409010
v 1.630290 0.455000 -1.214950
v 1.875000 0.455000 -1.051440
v 2.138960 0.455000 -0.921271
v 2.417660 0.455000 -0.826667
v 2.706320 0.455000 -0.769249
v 3.000000 0.000000 -0.750000
v 3.000000 0.000000 -1.875000
v 3.000000 0.000000 0.000000
v 0.000000 0.000000 -0.000000
v 0.000000 0.000000 -3.000000
v 0.750000 0.000000 -3.000000
v 1.875000 0.000000 -3.000000
v 3.000000 0.000000 -3.000000
v 3.000000 0.455000 -3.000000
vt 3.000000 0.750000
vt 3.000000 1.875000
vt 2.853160 1.884620
vt 2.706320 0.769249
vt 2.708830 1.913330
vt 2.569480 1.960640
vt 2.138960 0.921271
vt 2.417660 0.826667
vt 2.437500 2.025720
vt 2.315140 2.107480
vt 1.630290 1.214950
vt 1.875000 1.051440
vt 2.204500 2.204500
vt 2.107480 2.315140
vt 1.214950 1.630290
vt 1.409010 1.409010
vt 2.025720 2.437500
vt 1.051440 1.875000
vt 0.921271 2.138960
vt 1.960640 2.569480
vt 1.913330 2.708830
vt 0.826667 2.417660
vt 0.769249 2.706320
vt 1.884620 2.853160
vt 1.875000 3.000000
vt 0.750000 3.000000
vt 0.750000 0.000000
vt 1.875000 0.000000
vt 1.875000 0.455000
vt 0.750000 0.455000
vt -0.750000 0.455000
vt -1.875000 0.455000
vt -1.875000 -0.000000
vt -0.750000 -0.000000
vt -3.000000 -0.000000
vt -3.000000 0.455000
vt 3.000000 0.455000
vt 3.000000 0.000000
vt 3.000000 3.000000
vt 0.000000 0.000000
vt -3.000000 0.750000
vt -0.750000 3.000000
vt -1.875000 3.000000
vt -2.504240 0.455000
vt -2.209930 0.455000
vt -2.209930 0.550000
vt -2.504240 0.550000
vt -2.023630 0.455000
vt -1.729310 0.455000
vt -1.729310 0.550000
vt -2.023630 0.550000
vt -1.510910 0.455000
vt -1.216600 0.455000
vt -1.216600 0.550000
vt -1.510910 0.550000
vt -0.974855 0.455000
vt -0.680541 0.455000
vt -0.680541 0.550000
vt -0.974855 0.550000
vt -0.424639 0.455000
vt -0.130325 0.455000
vt -0.130325 0.550000
vt -0.424639 0.550000
vt 0.130325 0.455000
vt 0.424639 0.455000
vt 0.424639 0.550000
vt 0.130325 0.550000
vt 0.680541 0.455000
vt 0.974855 0.455000
vt 0.974855 0.550000
vt 0.680541 0.550000
vt 1.216600 0.455000
vt 1.510910 0.455000
vt 1.510910 0.550000
vt 1.216600 0.550000
vt 1.729310 0.455000
vt 2.023630 0.455000
vt 2.023630 0.550000
vt 1.729310 0.550000
vt 2.209930 0.455000
vt 2.504240 0.455000
vt 2.504240 0.550000
vt 2.209930 0.550000
vt -0.000000 0.550000
vt 3.000000 0.550000
vt -3.000000 0.550000
vt 0.000000 3.000000
vt -3.000000 1.875000
vt -3.000000 3.000000
vt -2.944520 0.455000
vt -2.650210 0.455000
vt -2.650210 0.550000
vt -2.944520 0.550000
vt 0.750000 0.550000
vt -0.750000 0.550000
vt 2.650210 0.455000
vt 2.944520 0.455000
vt 2.944520 0.550000
vt 2.650210 0.550000
vn -0.000000 1.000000 0.000000
vn 1.000000 0.000000 0.000000
vn 0.000000 0.000000 -1.000000
vn 0.000000 -1.000000 -0.000000
vn 0.130500 0.000000 -0.991400
vn 0.258800 0.000000 -0.965900
vn 0.382700 0.000000 -0.923900
vn 0.500000 0.000000 -0.866000
vn 0.608800 0.000000 -0.793400
vn 0.707100 0.000000 -0.707100
vn 0.793400 0.000000 -0.608800
vn 0.866000 0.000000 -0.500000
vn 0.923900 0.000000 -0.382700
vn 0.965900 0.000000 -0.258800
vn 0.991400 0.000000 -0.130500
vn -0.000000 -0.000000 1.000000
vn -1.000000 0.000000 -0.000000
vn 0.065400 0.000000 -0.997900
vn 0.997900 0.000000 -0.065400
usemtl Sand
s 1
f 19/1/1 20/2/1 21/3/1 42/4/1
f 22/5/1 23/6/1 40/7/1 41/8/1
f 24/9/1 25/10/1 38/11/1 39/12/1
f 26/13/1 27/14/1 36/15/1 37/16/1
f 36/15/1 27/14/1 28/17/1 35/18/1
f 34/19/1 29/20/1 30/21/1 33/22/1
f 17/23/1 31/24/1 32/25/1 18/26/1
f 41/8/1 42/4/1 21/3/1 22/5/1
f 17/23/1 33/22/1 30/21/1 31/24/1
f 24/9/1 39/12/1 40/7/1 23/6/1
f 34/19/1 35/18/1 28/17/1 29/20/1
f 26/13/1 37/16/1 38/11/1 25/10/1
f 43/27/2 44/28/2 20/29/2 19/30/2
f 18/31/3 32/32/3 49/33/3 48/34/3
usemtl Water
f 50/35/3 49/33/3 32/32/3 51/36/3
f 51/37/2 20/29/2 44/28/2 50/38/2
f 51/39/1 27/14/1 26/13/1
f 21/3/1 20/2/1 51/39/1
f 51/39/1 22/5/1 21/3/1
f 51/39/1 24/9/1 23/6/1
f 51/39/1 26/13/1 25/10/1
f 51/39/1 28/17/1 27/14/1
f 51/39/1 30/21/1 29/20/1
f 51/39/1 32/25/1 31/24/1
f 23/6/1 22/5/1 51/39/1
f 51/39/1 25/10/1 24/9/1
f 51/39/1 29/20/1 28/17/1
f 30/21/1 51/39/1 31/24/1
usemtl Grass
f 13/15/1 4/40/1 12/16/1
f 43/41/4 46/40/4 48/42/4 49/43/4
f 42/44/5 41/45/6 8/46/6 7/47/5
f 41/48/6 40/49/7 9/50/7 8/51/6
f 40/52/7 39/53/8 10/54/8 9/55/7
f 39/56/8 38/57/9 11/58/9 10/59/8
f 38/60/9 37/61/10 12/62/10 11/63/9
f 37/64/10 36/65/11 13/66/11 12/67/10
f 36/68/11 35/69/12 14/70/12 13/71/11
f 35/72/12 34/73/13 15/74/13 14/75/12
f 34/76/13 33/77/14 16/78/14 15/79/13
f 33/80/14 17/81/15 1/82/15 16/83/14
f 4/84/16 46/40/16 45/38/16 5/85/16
f 4/84/17 3/86/17 47/35/17 46/40/17
f 18/31/3 48/34/3 47/40/3 3/84/3
f 5/38/1 6/1/1 7/4/1
f 1/23/1 2/26/1 3/87/1
f 5/38/1 7/4/1 8/8/1
f 16/22/1 1/23/1 3/87/1
f 5/38/1 8/8/1 9/7/1
f 15/19/1 16/22/1 3/87/1
f 4/40/1 9/7/1 10/12/1
f 4/40/1 15/19/1 3/87/1
f 4/40/1 10/12/1 11/11/1
f 4/40/1 14/18/1 15/19/1
f 4/40/1 11/11/1 12/16/1
f 4/40/1 13/15/1 14/18/1
f 4/40/1 5/38/1 9/7/1
f 49/43/4 44/88/4 43/41/4
f 44/88/4 49/43/4 50/89/4
f 46/40/4 47/87/4 48/42/4
f 43/41/4 45/35/4 46/40/4
f 45/40/2 43/27/2 19/30/2 5/84/2
f 19/90/18 42/91/5 7/92/5 6/93/18
f 5/84/2 19/30/2 6/94/2
f 3/84/3 2/95/3 18/31/3
f 17/96/15 18/97/19 2/98/19 1/99/15
