# Blender v2.75 (sub 0) OBJ File: ''
# www.blender.org
mtllib roadTile_129.mtl
o Mesh1_Group1_Model.050
v 3.000000 0.000000 0.000000
v 3.000000 0.300000 0.000000
v 0.000000 0.300000 0.000000
v 0.000000 0.000000 -0.000000
v 3.000000 0.300000 -3.000000
v 3.000000 0.000000 -3.000000
v 3.000000 0.600000 -3.000000
v 3.000000 0.600000 0.000000
v 0.000000 0.600000 0.000000
v 0.000000 0.600000 -3.000000
v 0.000000 0.300000 -3.000000
v 0.000000 0.000000 -3.000000
vt 3.000000 0.300000
vt 0.000000 0.300000
vt 0.000000 0.000000
vt 3.000000 0.000000
vt -3.000000 0.300000
vt -3.000000 -0.000000
vt -3.000000 3.000000
vt -0.000000 3.000000
vt -118.110001 118.110001
vt -118.110001 -0.000000
vt -0.000000 118.110001
vt 3.000000 0.600000
vt 0.000000 0.600000
vt 3.000000 3.000000
vt -3.000000 0.600000
vn 1.000000 0.000000 0.000000
vn -1.000000 0.000000 -0.000000
vn 0.000000 0.000000 -1.000000
vn 0.000000 -1.000000 -0.000000
vn -0.000000 -0.000000 1.000000
vn 0.000000 1.000000 0.000000
usemtl Stone
s 1
f 5/1/1 2/2/1 1/3/1 6/4/1
f 4/3/2 3/2/2 11/5/2 12/6/2
f 12/3/3 11/2/3 5/5/3 6/6/3
f 6/7/4 1/6/4 4/3/4 12/8/4
f 1/4/5 2/1/5 3/2/5 4/3/5
usemtl FrontColor
f 5/9/4 2/10/4 3/3/4 11/11/4
usemtl Asphalt
f 7/12/1 8/13/1 2/2/1 5/1/1
f 9/3/6 8/4/6 7/14/6 10/8/6
f 9/13/5 3/2/5 2/1/5 8/12/5
f 10/15/2 11/5/2 3/2/2 9/13/2
f 5/5/3 11/2/3 10/13/3 7/15/3
