# Blender v2.75 (sub 0) OBJ File: ''
# www.blender.org
mtllib roadTile_147.mtl
o Mesh1_Group1_Model.104
v 0.754448 0.000000 0.000000
v 0.754448 0.600000 0.000000
v 0.000000 0.600000 0.000000
v 0.000000 0.000000 0.000000
v 1.468970 0.630000 0.000000
v 0.754448 0.630000 0.000000
v 1.468970 0.000000 -0.000000
v 1.468970 0.550000 0.000000
v 1.312500 0.630000 -0.077164
v 0.945430 0.630000 -0.322432
v 0.613515 0.630000 -0.613515
v 0.322432 0.630000 -0.945430
v 0.077164 0.630000 -1.312500
v 0.000000 0.630000 -1.468970
v 0.000000 0.630000 -0.754448
v 0.024925 0.630000 -0.717145
v 0.348350 0.630000 -0.348350
v 0.717145 0.630000 -0.024925
v 1.312500 0.550000 -0.077164
v 0.000000 0.550000 -3.000000
v 0.000000 0.550000 -1.468970
v 0.077164 0.550000 -1.312500
v 0.322432 0.550000 -0.945430
v 0.613515 0.550000 -0.613515
v 0.945430 0.550000 -0.322432
v 3.000000 0.550000 0.000000
v 3.000000 0.550000 -3.000000
v 0.000000 0.000000 -1.468970
v 0.000000 0.000000 -3.000000
v 0.000000 0.000000 -0.754448
v 0.000000 0.600000 -0.754448
v 3.000000 0.000000 -3.000000
v 3.000000 0.000000 -0.000000
v 0.024925 0.600000 -0.717145
v 0.717145 0.600000 -0.024925
v 0.348350 0.600000 -0.348350
vt 1.468970 0.550000
vt 0.754448 0.600000
vt 0.754448 0.000000
vt 1.468970 0.000000
vt -1.468970 0.630000
vt -1.468970 0.550000
vt -0.754448 0.600000
vt -0.754448 0.630000
vt 1.048430 0.630000
vt 0.606963 0.630000
vt 0.606963 0.550000
vt 1.048430 0.550000
vt 0.498218 0.630000
vt 0.056746 0.630000
vt 0.056746 0.550000
vt 0.498218 0.550000
vt -0.056746 0.630000
vt -0.498218 0.630000
vt -0.498218 0.550000
vt -0.056746 0.550000
vt -0.606963 0.630000
vt -1.048430 0.630000
vt -1.048430 0.550000
vt -0.606963 0.550000
vt -0.582436 0.630000
vt -0.627300 0.630000
vt -0.627300 0.600000
vt -0.582436 0.600000
vt -0.032220 0.630000
vt -0.522744 0.630000
vt -0.522744 0.600000
vt -0.032220 0.600000
vt 0.522744 0.630000
vt 0.032220 0.630000
vt 0.032220 0.600000
vt 0.522744 0.600000
vt 0.627300 0.630000
vt 0.582436 0.630000
vt 0.582436 0.600000
vt 0.627300 0.600000
vt 1.468970 0.630000
vt 0.754448 0.630000
vt 0.024925 0.717145
vt 0.348350 0.348350
vt 0.613515 0.613515
vt 0.322432 0.945430
vt 0.945430 0.322432
vt 0.717145 0.024925
vt 0.077164 1.312500
vt 0.000000 1.468970
vt 0.000000 0.754448
vt 1.312500 0.077164
vt -1.143020 0.630000
vt -1.317480 0.630000
vt -1.317480 0.550000
vt -1.143020 0.550000
vt -1.468970 0.000000
vt -0.754448 -0.000000
vt 1.317480 0.630000
vt 1.143020 0.630000
vt 1.143020 0.550000
vt 1.317480 0.550000
vt -3.000000 0.550000
vt -3.000000 0.000000
vt 3.000000 3.000000
vt -3.000000 3.000000
vt -0.000000 0.000000
vt -0.000000 0.550000
vt 3.000000 0.550000
vt 3.000000 0.000000
vt 0.000000 3.000000
vt 0.000000 0.600000
vn 0.000000 -0.000000 1.000000
vn -1.000000 0.000000 0.000000
vn 0.866000 0.000000 -0.500000
vn 0.793400 0.000000 -0.608800
vn 0.707100 0.000000 -0.707100
vn 0.608800 -0.000000 -0.793400
vn 0.500000 -0.000000 -0.866000
vn -0.793400 0.000000 0.608800
vn -0.831500 0.000000 0.555600
vn -0.707100 0.000000 0.707100
vn -0.608800 0.000000 0.793400
vn -0.555600 0.000000 0.831500
vn 0.000000 1.000000 -0.000000
vn 0.442300 0.000000 -0.896900
vn 0.896900 0.000000 -0.442300
vn -0.000000 -1.000000 -0.000000
vn 0.000000 0.000000 -1.000000
vn 1.000000 0.000000 0.000000
usemtl Stone.090
s 1
f 8/1/1 2/2/1 1/3/1 7/4/1
f 14/5/2 21/6/2 31/7/2 15/8/2
f 13/9/3 12/10/4 23/11/4 22/12/3
f 12/13/4 11/14/5 24/15/5 23/16/4
f 11/17/5 10/18/6 25/19/6 24/20/5
f 10/21/6 9/22/7 19/23/7 25/24/6
f 16/25/8 15/26/9 31/27/9 34/28/8
f 17/29/10 16/30/8 34/31/8 36/32/10
f 18/33/11 17/34/10 36/35/10 35/36/11
f 6/37/12 18/38/11 35/39/11 2/40/12
f 2/2/1 8/1/1 5/41/1 6/42/1
f 16/43/13 17/44/13 11/45/13 12/46/13
f 10/47/13 18/48/13 6/3/13
f 17/44/13 18/48/13 10/47/13 11/45/13
f 13/49/13 14/50/13 15/51/13
f 6/3/13 5/4/13 9/52/13
f 12/46/13 13/49/13 15/51/13
f 6/3/13 9/52/13 10/47/13
f 16/43/13 12/46/13 15/51/13
f 9/53/7 5/54/14 8/55/14 19/56/7
f 31/7/2 21/6/2 28/57/2 30/58/2
f 14/59/15 13/60/3 22/61/3 21/62/15
usemtl Grass.046
f 28/57/2 21/6/2 20/63/2 29/64/2
f 27/65/13 22/49/13 23/46/13
f 7/57/16 28/50/16 32/66/16
f 32/64/17 29/67/17 20/68/17 27/63/17
f 27/69/18 26/68/18 33/67/18 32/70/18
f 26/69/1 8/1/1 7/4/1 33/70/1
f 21/50/13 27/65/13 20/71/13
f 27/65/13 8/4/13 26/70/13
f 27/65/13 25/47/13 19/52/13
f 27/65/13 23/46/13 24/45/13
f 27/65/13 21/50/13 22/49/13
f 19/52/13 8/4/13 27/65/13
f 27/65/13 24/45/13 25/47/13
f 32/66/16 33/64/16 7/57/16
f 30/51/16 1/58/16 4/67/16
f 7/57/16 30/51/16 28/50/16
f 28/50/16 29/71/16 32/66/16
f 30/51/16 7/57/16 1/58/16
usemtl Asphalt.076
f 4/67/2 3/72/2 31/7/2 30/58/2
f 34/43/13 3/67/13 36/44/13
f 3/67/13 2/3/13 35/48/13
f 34/43/13 31/51/13 3/67/13
f 3/67/13 35/48/13 36/44/13
f 1/3/1 2/2/1 3/72/1 4/67/1
