# Blender v2.75 (sub 0) OBJ File: ''
# www.blender.org
mtllib roadTile_274.mtl
o Mesh1_Group1_Model.085
v 1.125000 1.650000 -1.406250
v 1.125000 0.000000 -1.406250
v 1.125000 0.000000 -0.843750
v 1.125000 1.650000 -0.843750
v 1.875000 0.000000 -1.406250
v 1.875000 1.650000 -1.406250
v 1.875000 0.000000 -0.843750
v 1.875000 1.650000 -0.843750
v 3.000000 1.650000 -2.250000
v 0.000000 1.650000 -2.250000
v 0.000000 1.650000 0.000000
v 3.000000 1.650000 0.000000
v 3.000000 2.280000 -2.250000
v 3.000000 2.280000 -1.875000
v 3.000000 2.250000 -1.875000
v 3.000000 1.950000 -1.875000
v 3.000000 1.950000 -0.375000
v 3.000000 2.250000 -0.375000
v 3.000000 2.280000 -0.375000
v 3.000000 2.280000 0.000000
v 0.000000 2.280000 -2.250000
v 0.000000 2.280000 0.000000
v 0.000000 2.280000 -0.375000
v 0.000000 2.250000 -0.375000
v 0.000000 1.950000 -0.375000
v 0.000000 1.950000 -1.875000
v 0.000000 2.250000 -1.875000
v 0.000000 2.280000 -1.875000
vt -1.875000 -0.000000
vt -1.125000 -0.000000
vt -1.125000 1.650000
vt -1.875000 1.650000
vt -1.125000 0.843750
vt -1.125000 1.406250
vt -1.875000 1.406250
vt -1.875000 0.843750
vt 0.843750 1.650000
vt 0.843750 0.000000
vt 1.406250 0.000000
vt 1.406250 1.650000
vt 1.125000 0.000000
vt 1.875000 0.000000
vt 1.875000 1.650000
vt 1.125000 1.650000
vt 0.375000 1.950000
vt 0.375000 2.250000
vt 0.000000 2.280000
vt 0.000000 1.650000
vt -3.000000 2.250000
vt -0.000000 2.250000
vt -3.000000 0.000000
vt -0.000000 -0.000000
vt -1.406250 1.650000
vt -1.406250 0.000000
vt -0.843750 0.000000
vt -0.843750 1.650000
vt 2.250000 1.650000
vt 1.875000 1.950000
vt -1.875000 1.950000
vt -1.875000 2.250000
vt -2.250000 2.280000
vt -2.250000 1.650000
vt -0.375000 1.950000
vt 0.000000 0.375000
vt 3.000000 0.000000
vt 3.000000 0.375000
vt -3.000000 2.280000
vt 3.000000 2.250000
vt 3.000000 2.280000
vt 3.000000 1.875000
vt 0.000000 1.875000
vt 2.250000 2.280000
vt 1.875000 2.250000
vt 0.375000 2.280000
vt -3.000000 1.650000
vt 1.875000 2.280000
vt -0.375000 2.250000
vt -1.875000 2.280000
vt 3.000000 1.650000
vt -0.375000 2.280000
vn 0.000000 0.000000 -1.000000
vn 0.000000 -1.000000 -0.000000
vn 1.000000 0.000000 0.000000
vn 0.000000 -0.000000 1.000000
vn -1.000000 -0.000000 0.000000
vn 0.000000 1.000000 0.000000
usemtl Stone
s 1
f 5/1/1 2/2/1 1/3/1 6/4/1
f 3/5/2 2/6/2 5/7/2 7/8/2
f 8/9/3 7/10/3 5/11/3 6/12/3
f 3/13/4 7/14/4 8/15/4 4/16/4
f 1/6/2 6/7/2 8/8/2 4/5/2
f 17/17/3 18/18/3 20/19/3 12/20/3
f 1/6/2 9/21/2 6/7/2
f 1/6/2 10/22/2 9/21/2
f 6/7/2 9/21/2 12/23/2 8/8/2
f 4/5/2 12/23/2 11/24/2
f 12/23/2 4/5/2 8/8/2
f 1/25/5 2/26/5 3/27/5 4/28/5
f 17/17/3 9/29/3 16/30/3
f 26/31/5 27/32/5 21/33/5 10/34/5
f 26/31/5 11/20/5 25/35/5
f 23/36/6 22/24/6 20/37/6 19/38/6
f 18/21/1 24/22/1 23/19/1 19/39/1
f 27/22/4 15/40/4 14/41/4 28/19/4
f 14/42/6 13/40/6 21/22/6 28/43/6
f 9/29/3 13/44/3 15/45/3 16/30/3
f 20/19/3 18/18/3 19/46/3
f 13/39/1 9/47/1 10/20/1 21/19/1
f 13/44/3 14/48/3 15/45/3
f 9/29/3 17/17/3 12/20/3
f 11/20/5 22/19/5 24/49/5 25/35/5
f 21/33/5 27/32/5 28/50/5
f 20/41/4 22/19/4 11/20/4 12/51/4
f 22/19/5 23/52/5 24/49/5
f 11/20/5 26/31/5 10/34/5
f 1/6/2 4/5/2 11/24/2 10/22/2
usemtl Asphalt
f 24/36/6 18/38/6 15/42/6 27/43/6
f 18/18/3 17/17/3 16/30/3 15/45/3
f 26/31/5 25/35/5 24/49/5 27/32/5
