# Blender v2.75 (sub 0) OBJ File: ''
# www.blender.org
mtllib roadTile_180.mtl
o Mesh1_Group1_Model.100
v 0.591492 0.883120 -0.750000
v 0.591492 0.883120 -0.375000
v 0.591492 0.000000 -0.375000
v 0.591492 0.000000 -0.750000
v 0.000000 1.100000 -2.250000
v 0.591492 0.883120 -2.250000
v 0.591492 0.883120 -2.625000
v 0.591492 0.883120 -3.000000
v 3.000000 0.000000 -3.000000
v 3.000000 0.000000 -2.625000
v 3.000000 0.000000 -0.375000
v 3.000000 0.000000 -0.000000
v 0.591492 0.883120 0.000000
v 0.000000 1.100000 -0.750000
v 0.000000 0.000000 -2.250000
v 0.591492 0.000000 -2.250000
v 0.000000 0.000000 -0.750000
v 0.000000 0.000000 -0.375000
v 0.000000 1.650000 -0.375000
v 0.000000 1.730000 -0.375000
v 0.000000 1.730000 -0.750000
v 0.000000 1.700000 -0.750000
v 0.000000 1.400000 -0.750000
v 0.000000 1.400000 -2.250000
v 0.000000 1.700000 -2.250000
v 0.000000 1.730000 -2.250000
v 0.000000 1.730000 -2.625000
v 0.000000 1.650000 -2.625000
v 0.000000 0.000000 -2.625000
v 0.591492 0.000000 -0.000000
v 0.000000 0.000000 -0.000000
v 3.000000 0.550000 0.000000
v 0.000000 1.650000 0.000000
v 3.000000 0.550000 -0.375000
v 3.000000 0.550000 -2.625000
v 3.000000 0.630000 -2.625000
v 3.000000 0.630000 -2.250000
v 3.000000 0.600000 -2.250000
v 3.000000 0.300000 -2.250000
v 3.000000 0.300000 -0.750000
v 3.000000 0.600000 -0.750000
v 3.000000 0.630000 -0.750000
v 3.000000 0.630000 -0.375000
v 3.000000 0.550000 -3.000000
v 0.000000 0.000000 -3.000000
v 0.000000 1.650000 -3.000000
v 0.591492 0.000000 -3.000000
v 0.591492 0.000000 -2.625000
vt -0.375000 1.730000
vt -0.750000 1.730000
vt -0.750000 1.700000
vt -0.375000 1.650000
vt 0.750000 0.300000
vt 0.750000 0.600000
vt 0.375000 0.550000
vt 0.375000 0.000000
vt 2.625000 0.000000
vt 2.250000 0.300000
vt 0.000000 1.730000
vt -3.000000 0.630000
vt -3.000000 0.550000
vt 0.000000 1.650000
vt 2.250000 -2.599750
vt 2.625000 -2.599750
vt 2.625000 0.595561
vt 2.250000 0.595561
vt 0.000000 1.700000
vt 3.000000 0.600000
vt 3.000000 0.630000
vt -3.000000 0.600000
vt 0.750000 0.595561
vt 0.375000 0.595561
vt 0.375000 -2.599750
vt 0.750000 -2.599750
vt 3.000000 0.550000
vt 2.250000 0.000000
vt 2.625000 0.883120
vt 2.250000 0.883120
vt 0.591492 0.000000
vt 0.591492 0.883120
vt 0.000000 1.100000
vt 0.000000 0.000000
vt -2.625000 0.000000
vt -2.250000 0.000000
vt -2.250000 1.100000
vt -0.750000 1.100000
vt -0.750000 0.000000
vt -0.375000 0.000000
vt -2.625000 1.650000
vt -2.250000 1.400000
vt -2.250000 1.700000
vt -2.250000 1.730000
vt -2.625000 1.730000
vt -0.750000 1.400000
vt -0.591492 0.883120
vt -0.591492 0.000000
vt 0.750000 0.630000
vt 0.375000 0.630000
vt 2.625000 0.550000
vt 2.250000 0.600000
vt 2.625000 0.630000
vt 2.250000 0.630000
vt 0.750000 0.883120
vt 0.375000 0.883120
vt 0.750000 0.000000
vt -2.250000 0.378680
vt -2.250000 -0.251320
vt -0.750000 -0.251320
vt -0.750000 0.378680
vt -2.625000 -0.251320
vt -2.625000 -2.816630
vt 0.000000 0.883120
vt -0.000000 0.550000
vt -3.000000 1.650000
vt -3.000000 0.000000
vt 3.000000 -2.627290
vt 3.000000 0.568020
vt 2.625000 0.568020
vt 2.625000 -2.627290
vt 0.000000 0.568020
vt 0.000000 -2.627290
vt 0.375000 -2.627290
vt 0.375000 0.568020
vt -0.591492 3.000000
vt -0.591492 2.625000
vt -0.000000 2.625000
vt -0.000000 3.000000
vt -0.375000 -0.251320
vt -0.375000 -2.816630
vt -0.000000 -2.816630
vt -0.000000 -0.251320
vt -3.000000 -0.251320
vt -3.000000 -2.816630
vt -0.000000 0.375000
vt -0.591492 0.375000
vt -0.591492 0.750000
vt -0.000000 0.750000
vt 3.000000 0.000000
vt -0.591492 2.250000
vt -0.000000 2.250000
vt 3.000000 0.883120
vt 2.250000 -2.610080
vt 2.250000 0.585233
vt 0.750000 0.585233
vt 0.750000 -2.610080
vn -1.000000 0.000000 -0.000000
vn 1.000000 -0.000000 0.000000
vn -0.000000 0.000000 -1.000000
vn 0.344300 0.938900 -0.000000
vn 0.000000 0.000000 1.000000
vn -0.344300 -0.938900 -0.000000
vn 0.000000 -1.000000 -0.000000
usemtl Stone
s 1
f 20/1/1 21/2/1 22/3/1 19/4/1
f 40/5/2 41/6/2 34/7/2 11/8/2
f 11/8/2 10/9/2 39/10/2
f 27/11/3 36/12/3 35/13/3 28/14/3
f 37/15/4 36/16/4 27/17/4 26/18/4
f 26/11/5 25/19/5 38/20/5 37/21/5
f 41/22/3 22/19/3 21/11/3 42/12/3
f 21/23/4 20/24/4 43/25/4 42/26/4
f 20/11/5 19/14/5 34/27/5 43/21/5
f 16/28/2 48/9/2 7/29/2 6/30/2
f 16/31/5 6/32/5 5/33/5 15/34/5
f 29/35/1 15/36/1 5/37/1
f 14/38/1 17/39/1 18/40/1
f 28/41/1 29/35/1 5/37/1
f 14/38/1 18/40/1 19/4/1
f 24/42/1 28/41/1 5/37/1
f 28/41/1 25/43/1 26/44/1 27/45/1
f 23/46/1 24/42/1 5/37/1 14/38/1
f 19/4/1 22/3/1 23/46/1
f 24/42/1 25/43/1 28/41/1
f 14/38/1 19/4/1 23/46/1
f 14/33/3 1/47/3 4/48/3 17/34/3
f 34/7/2 41/6/2 42/49/2 43/50/2
f 10/9/2 35/51/2 38/52/2 39/10/2
f 36/53/2 37/54/2 38/52/2 35/51/2
f 39/10/2 40/5/2 11/8/2
f 1/55/2 2/56/2 3/8/2 4/57/2
usemtl Grass
f 5/58/6 6/59/6 1/60/6 14/61/6
f 6/59/6 7/62/6 10/63/6
f 30/34/2 3/8/2 2/56/2 13/64/2
f 11/8/2 34/7/2 32/65/2 12/34/2
f 32/27/5 33/14/5 13/32/5
f 29/35/1 28/41/1 46/66/1 45/67/1
f 46/14/3 44/13/3 8/47/3
f 44/68/4 46/69/4 28/70/4 35/71/4
f 33/72/4 32/73/4 34/74/4 19/75/4
f 31/34/1 33/14/1 19/4/1 18/40/1
f 47/76/7 48/77/7 29/78/7 45/79/7
f 2/80/6 11/81/6 12/82/6 13/83/6
f 11/81/6 2/80/6 1/60/6
f 11/81/6 1/60/6 6/59/6 10/63/6
f 10/63/6 7/62/6 8/84/6 9/85/6
f 18/86/7 3/87/7 30/48/7 31/34/7
f 4/88/7 3/87/7 18/86/7 17/89/7
f 31/34/5 30/31/5 13/32/5
f 13/32/5 12/90/5 32/27/5
f 33/14/5 31/34/5 13/32/5
f 9/90/2 44/27/2 35/51/2 10/9/2
f 8/47/3 47/48/3 45/34/3
f 44/13/3 9/67/3 8/47/3
f 8/47/3 45/34/3 46/14/3
f 29/78/7 48/77/7 16/91/7 15/92/7
f 8/93/2 7/29/2 48/9/2 47/90/2
usemtl Asphalt
f 38/94/4 25/95/4 22/96/4 41/97/4
f 22/3/1 25/43/1 24/42/1 23/46/1
f 38/52/2 41/6/2 40/5/2 39/10/2
