# Blender v2.76 (sub 0) OBJ File: ''
# www.blender.org
mtllib roadTile_210.mtl
o roadTile_210
v 0.375001 1.722500 0.000000
v 0.375001 1.730000 -0.375000
v 0.375001 0.000000 -0.375000
v 0.375001 0.000000 0.000000
v 0.375001 1.730000 -2.250000
v 0.375001 1.730000 -0.750000
v 0.000001 1.730000 -0.750000
v 0.000001 1.722500 -0.375000
v 0.750001 1.722500 0.000000
v 0.750001 1.730000 -3.000000
v 0.375001 1.730000 -3.000000
v 0.375001 1.730000 -2.625000
v 0.000001 1.730000 -2.625000
v 0.000001 1.730000 -2.250000
v 0.375001 1.400000 -0.750000
v 0.375001 1.400000 -2.250000
v 2.625000 1.400000 -0.750000
v 2.625000 1.730000 -0.750000
v 3.000000 1.730000 -0.750000
v 3.000000 0.600000 -0.750000
v 0.000001 0.600000 -0.750000
v 2.625000 1.400000 -2.250000
v 2.625000 1.730000 -2.250000
v 3.000000 0.600000 -2.250000
v 3.000000 1.730000 -2.250000
v 0.000001 0.600000 -2.250000
v 3.000000 1.722500 -0.375000
v 3.000000 0.000000 -0.375000
v 3.000000 0.000000 -2.625000
v 3.000000 1.730000 -2.625000
v 3.000000 0.300000 -2.250000
v 3.000000 0.300000 -0.750000
v 2.625000 0.000000 -0.375000
v 2.625000 1.730000 -0.375000
v 2.625000 1.730000 -2.625000
v 2.625000 1.730000 -3.000000
v 2.250000 1.730000 -3.000000
v 2.250000 1.722500 0.000000
v 2.625000 1.722500 0.000000
v 2.625000 0.000000 -2.625000
v 2.625000 0.000000 -3.000000
v 0.375001 0.000000 -3.000000
v 0.750001 1.700000 -3.000000
v 0.750001 1.400000 -3.000000
v 2.250000 1.400000 -3.000000
v 2.250000 1.700000 -3.000000
v 0.375001 0.000000 -2.625000
v 0.000001 0.000000 -2.625000
v 0.000001 0.000000 -0.375000
v 0.000001 0.300000 -0.750000
v 0.000001 0.300000 -2.250000
v 0.750001 1.722500 0.000000
v 2.625000 0.000000 0.000000
v 2.250000 1.722500 0.000000
v 2.250000 1.400000 0.000000
v 0.750001 1.400000 0.000000
vn 0.000000 1.000000 0.000000
vn 0.010000 0.999900 0.001300
vn 0.006700 1.000000 0.006700
vn 0.008500 0.999900 0.010700
vn 0.000000 0.000000 -1.000000
vn 0.000000 0.000000 1.000000
vn 1.000000 -0.000000 0.000000
vn -0.006700 1.000000 0.006700
vn 0.020000 0.999600 0.020000
vn 0.010000 0.999900 0.010000
vn -0.003400 1.000000 0.001300
vn -0.001500 1.000000 0.000700
vn -1.000000 0.000000 0.000000
vn 0.006400 0.000000 1.000000
vn -0.006400 0.000000 1.000000
vn 0.000000 -1.000000 -0.000000
vn -0.010000 0.999900 0.010000
vn 0.001600 1.000000 0.000300
vn 0.000000 0.999800 0.020000
vn -0.008400 0.999900 0.010300
vn -0.013300 0.999900 0.000000
vn -0.020000 0.999600 0.020000
vn 0.000000 1.000000 -0.007500
usemtl Stone
s 1
f 13//1 14//1 5//1
f 6//2 2//3 9//4
f 20//5 21//5 15//5
f 22//6 16//6 26//6
f 28//7 29//7 31//7
f 34//8 27//9 19//10
f 23//11 35//1 37//12
f 35//7 40//7 41//7
f 44//5 45//5 41//5
f 48//5 13//5 12//5
f 3//6 2//6 8//6
f 48//13 49//13 50//13
f 10//7 9//6 52//14
f 53//6 55//6 56//6
f 37//13 46//13 54//15
f 17//16 15//16 16//16
f 2//3 6//2 7//17
f 10//18 11//1 12//1
f 6//13 5//13 16//13
f 10//18 5//1 6//2
f 5//1 10//18 12//1
f 2//3 1//19 9//4
f 9//4 10//18 6//2
f 7//5 6//5 15//5
f 17//5 18//5 19//5
f 21//5 7//5 15//5
f 17//5 19//5 20//5
f 23//7 18//7 17//7
f 16//6 14//6 26//6
f 22//6 25//6 23//6
f 16//6 5//6 14//6
f 24//6 25//6 22//6
f 33//6 28//6 27//6
f 20//7 19//7 27//7
f 29//7 24//7 31//7
f 28//7 20//7 27//7
f 30//7 25//7 24//7
f 32//7 20//7 28//7
f 29//7 30//7 24//7
f 31//7 32//7 28//7
f 35//1 23//11 25//1
f 38//20 39//19 34//8
f 40//5 35//5 30//5
f 38//20 18//21 23//11
f 18//21 38//20 34//8
f 35//1 36//1 37//12
f 37//12 38//20 23//11
f 45//5 36//5 41//5
f 43//5 11//5 10//5
f 46//5 37//5 36//5
f 44//5 11//5 43//5
f 45//5 46//5 36//5
f 42//5 11//5 44//5
f 12//13 11//13 42//13
f 26//13 13//13 48//13
f 13//13 26//13 14//13
f 49//13 21//13 50//13
f 51//13 26//13 48//13
f 8//13 7//13 21//13
f 50//13 51//13 48//13
f 49//13 8//13 21//13
f 56//6 1//6 4//6
f 54//6 39//6 38//6
f 52//6 9//6 1//6
f 55//6 39//6 54//6
f 56//6 52//6 1//6
f 53//6 39//6 55//6
f 33//7 34//7 39//7
f 1//13 2//13 3//13
f 12//1 13//1 5//1
f 17//5 20//5 15//5
f 24//6 22//6 26//6
f 18//21 34//8 19//10
f 36//7 35//7 41//7
f 42//5 44//5 41//5
f 47//5 48//5 12//5
f 49//6 3//6 8//6
f 43//7 10//7 52//14
f 4//6 53//6 56//6
f 38//6 37//13 54//15
f 22//16 17//16 16//16
f 8//22 2//3 7//17
f 15//13 6//13 16//13
f 22//7 23//7 17//7
f 34//6 33//6 27//6
f 30//1 35//1 25//1
f 29//5 40//5 30//5
f 47//13 12//13 42//13
f 53//7 33//7 39//7
f 4//13 1//13 3//13
usemtl Asphalt
f 51//13 50//13 21//13
f 26//1 21//1 20//1
f 32//7 31//7 24//7
f 43//23 52//23 54//23
f 46//5 45//5 44//5
f 52//6 56//6 55//6
f 26//13 51//13 21//13
f 24//1 26//1 20//1
f 20//7 32//7 24//7
f 46//23 43//23 54//23
f 43//5 46//5 44//5
f 54//6 52//6 55//6
