# Blender v2.75 (sub 0) OBJ File: ''
# www.blender.org
mtllib roadTile_194.mtl
o Mesh1_Group1_Model.108
v 2.250000 1.700000 0.000000
v 0.750000 1.700000 0.000000
v 0.750000 1.400000 0.000000
v 2.250000 1.400000 0.000000
v 2.250000 1.700000 -3.000000
v 0.750000 1.700000 -3.000000
v 2.250000 1.400000 -3.000000
v 0.750000 1.400000 -3.000000
v 0.750000 1.730000 -3.000000
v 2.250000 1.730000 -3.000000
v 2.625000 1.730000 -3.000000
v 2.625000 1.650000 -3.000000
v 2.625000 1.100000 -3.000000
v 0.375000 1.100000 -3.000000
v 0.375000 1.650000 -3.000000
v 0.375000 1.730000 -3.000000
v 0.750000 1.730000 0.000000
v 0.375000 1.730000 -2.250000
v 0.375000 1.730000 -0.750000
v 0.000000 1.730000 -0.750000
v 0.000000 1.730000 -0.375000
v 0.375000 1.730000 -0.375000
v 0.375000 1.730000 0.000000
v 0.375000 1.730000 -2.625000
v 0.000000 1.730000 -2.625000
v 0.000000 1.730000 -2.250000
v 0.375000 1.400000 -0.750000
v 0.375000 1.400000 -2.250000
v 2.625000 1.400000 -0.750000
v 2.625000 1.730000 -0.750000
v 3.000000 1.730000 -0.750000
v 3.000000 0.600000 -0.750000
v 0.000000 0.600000 -0.750000
v 2.625000 1.400000 -2.250000
v 2.625000 1.730000 -2.250000
v 3.000000 0.600000 -2.250000
v 3.000000 1.730000 -2.250000
v 0.000000 0.600000 -2.250000
v 3.000000 1.650000 -0.375000
v 3.000000 0.000000 -0.375000
v 3.000000 0.000000 -2.625000
v 3.000000 1.650000 -2.625000
v 3.000000 1.730000 -2.625000
v 3.000000 0.300000 -2.250000
v 3.000000 0.300000 -0.750000
v 3.000000 1.730000 -0.375000
v 3.000000 0.000000 -0.000000
v 3.000000 1.650000 0.000000
v 0.000000 0.000000 -0.000000
v 0.000000 0.000000 -0.375000
v 0.000000 0.000000 -2.625000
v 0.000000 0.000000 -3.000000
v 3.000000 0.000000 -3.000000
v 2.625000 1.650000 0.000000
v 2.625000 1.100000 0.000000
v 0.375000 1.100000 0.000000
v 0.375000 1.650000 0.000000
v 0.000000 1.650000 0.000000
v 2.625000 1.650000 -0.375000
v 2.625000 1.730000 -0.375000
v 2.625000 1.730000 -2.625000
v 2.250000 1.730000 0.000000
v 2.625000 1.730000 0.000000
v 2.625000 1.650000 -2.625000
v 3.000000 1.650000 -3.000000
v 0.000000 1.650000 -3.000000
v 0.000000 1.650000 -2.625000
v 0.375000 1.650000 -2.625000
v 0.000000 1.650000 -0.375000
v 0.000000 0.300000 -0.750000
v 0.000000 0.300000 -2.250000
v 0.375000 1.650000 -0.375000
vt -0.750000 1.700000
vt -0.375000 1.650000
vt -0.375000 1.730000
vt -0.750000 1.730000
vt -0.375000 1.100000
vt -2.250000 1.400000
vt -2.625000 1.100000
vt 0.375000 2.625000
vt -0.000000 2.625000
vt -0.000000 2.250000
vt 0.375000 2.250000
vt 0.375000 0.750000
vt 0.375000 0.375000
vt 0.750000 0.000000
vt -2.625000 1.400000
vt -3.000000 0.600000
vt -0.000000 0.600000
vt -0.375000 1.400000
vt 3.000000 0.600000
vt 2.625000 1.400000
vt 0.375000 1.400000
vt 0.375000 -0.000000
vt 2.625000 -0.000000
vt 2.250000 0.300000
vt 2.625000 1.650000
vt 3.000000 1.650000
vt 3.000000 1.730000
vt 2.625000 1.730000
vt 2.625000 0.375000
vt 3.000000 0.375000
vt 3.000000 0.750000
vt 2.625000 0.750000
vt 2.625000 2.250000
vt 2.625000 2.625000
vt 2.250000 3.000000
vt -2.625000 0.000000
vt -0.375000 0.000000
vt -0.750000 0.300000
vt -0.000000 1.730000
vt -0.000000 1.650000
vt 0.375000 1.650000
vt 0.375000 1.730000
vt 2.250000 1.700000
vt 2.250000 1.730000
vt 2.625000 1.100000
vt 0.750000 1.400000
vt 0.375000 1.100000
vt -2.625000 1.650000
vt -2.625000 1.730000
vt -3.000000 1.730000
vt -3.000000 1.650000
vt -2.625000 2.250000
vt -2.625000 0.750000
vt -0.375000 0.750000
vt -0.375000 2.250000
vt -2.250000 1.700000
vt -2.250000 1.730000
vt -0.750000 1.400000
vt 3.000000 1.700000
vt -0.000000 1.700000
vt -0.000000 0.375000
vt -0.000000 0.750000
vt 0.750000 3.000000
vt 0.375000 3.000000
vt 2.250000 1.400000
vt 0.750000 1.730000
vt 0.750000 0.600000
vt 2.250000 0.600000
vt 0.750000 0.300000
vt 3.000000 2.625000
vt 3.000000 2.250000
vt 2.250000 0.000000
vt 2.625000 3.000000
vt -2.250000 0.600000
vt -0.750000 0.600000
vt -2.250000 0.300000
vt 0.750000 1.700000
vt -3.000000 1.700000
vt -3.000000 0.375000
vt -3.000000 0.000000
vt -0.000000 0.000000
vt 3.000000 3.000000
vt 3.000000 0.000000
vt 0.000000 3.000000
vt -3.000000 3.000000
vt -3.000000 2.625000
vn 0.000000 0.000000 -1.000000
vn 0.000000 1.000000 0.000000
vn 0.000000 0.000000 1.000000
vn 1.000000 0.000000 0.000000
vn -1.000000 0.000000 0.000000
vn 0.000000 -1.000000 -0.000000
usemtl Stone
s 1
f 6/1/1 15/2/1 16/3/1 9/4/1
f 14/5/1 7/6/1 13/7/1
f 24/8/2 25/9/2 26/10/2 18/11/2
f 19/12/2 22/13/2 17/14/2
f 29/15/1 32/16/1 33/17/1 27/18/1
f 36/19/3 34/20/3 28/21/3 38/17/3
f 40/22/4 41/23/4 44/24/4
f 59/25/3 39/26/3 46/27/3 60/28/3
f 60/29/2 46/30/2 31/31/2 30/32/2
f 35/33/2 61/34/2 10/35/2
f 11/27/4 61/28/4 64/25/4 12/26/4
f 51/36/5 50/37/5 70/38/5
f 23/39/5 22/3/5 72/2/5 57/40/5
f 69/40/3 72/41/3 22/42/3 21/39/3
f 1/43/3 54/25/3 63/28/3 62/44/3
f 55/45/3 3/46/3 56/47/3
f 59/41/4 60/42/4 63/39/4 54/40/4
f 68/2/1 67/40/1 25/39/1 24/3/1
f 68/48/5 24/49/5 16/50/5 15/51/5
f 34/52/6 29/53/6 27/54/6 28/55/6
f 5/56/1 10/57/1 11/49/1 12/48/1
f 7/6/1 5/56/1 12/48/1 13/7/1
f 14/5/1 15/2/1 6/1/1 8/58/1
f 6/59/4 9/27/4 17/39/4 2/60/4
f 7/6/1 14/5/1 8/58/1
f 21/61/2 22/13/2 19/12/2 20/62/2
f 9/63/2 16/64/2 24/8/2
f 27/58/5 19/4/5 18/57/5 28/6/5
f 9/63/2 18/11/2 19/12/2
f 18/11/2 9/63/2 24/8/2
f 22/13/2 23/22/2 17/14/2
f 17/14/2 9/63/2 19/12/2
f 20/39/1 19/3/1 27/18/1
f 29/15/1 30/49/1 31/50/1
f 33/17/1 20/39/1 27/18/1
f 29/15/1 31/50/1 32/16/1
f 34/65/4 35/44/4 30/66/4 29/46/4
f 28/21/3 26/39/3 38/17/3
f 34/20/3 37/27/3 35/28/3
f 28/21/3 18/42/3 26/39/3
f 36/19/3 37/27/3 34/20/3
f 31/66/4 46/42/4 39/41/4
f 39/41/4 32/67/4 31/66/4
f 41/23/4 36/68/4 44/24/4
f 40/22/4 32/67/4 39/41/4
f 42/25/4 37/44/4 36/68/4
f 45/69/4 32/67/4 40/22/4
f 42/25/4 43/28/4 37/44/4
f 44/24/4 45/69/4 40/22/4
f 41/23/4 42/25/4 36/68/4
f 43/70/2 61/34/2 35/33/2 37/71/2
f 62/72/2 63/23/2 60/29/2
f 42/51/1 64/48/1 61/49/1 43/50/1
f 62/72/2 30/32/2 35/33/2
f 30/32/2 62/72/2 60/29/2
f 61/34/2 11/73/2 10/35/2
f 10/35/2 62/72/2 35/33/2
f 38/74/5 67/48/5 51/36/5
f 67/48/5 26/57/5 25/49/5
f 50/37/5 33/75/5 70/38/5
f 67/48/5 38/74/5 26/57/5
f 69/2/5 20/4/5 33/75/5
f 71/76/5 38/74/5 51/36/5
f 69/2/5 21/3/5 20/4/5
f 70/38/5 71/76/5 51/36/5
f 50/37/5 69/2/5 33/75/5
f 3/46/3 2/77/3 57/41/3 56/47/3
f 2/77/3 17/66/3 23/42/3 57/41/3
f 55/45/3 54/25/3 1/43/3 4/65/3
f 10/50/5 5/78/5 1/60/5 62/39/5
f 3/46/3 55/45/3 4/65/3
usemtl Grass
f 50/61/6 40/79/6 47/80/6 49/81/6
f 12/73/2 64/34/2 42/70/2 65/82/2
f 65/26/4 42/25/4 41/23/4 53/83/4
f 14/5/1 13/7/1 53/80/1 52/81/1
f 52/80/5 51/36/5 67/48/5 66/51/5
f 58/40/5 69/2/5 50/37/5 49/81/5
f 57/22/2 72/13/2 69/61/2 58/81/2
f 47/81/4 40/22/4 39/41/4 48/40/4
f 51/9/6 52/84/6 53/85/6 41/86/6
f 40/79/6 50/61/6 51/9/6 41/86/6
f 55/45/3 56/47/3 49/81/3 47/83/3
f 56/47/3 58/40/3 49/81/3
f 55/45/3 48/26/3 54/25/3
f 56/47/3 57/41/3 58/40/3
f 47/83/3 48/26/3 55/45/3
f 48/83/2 39/30/2 59/29/2 54/23/2
f 13/7/1 65/51/1 53/80/1
f 14/5/1 66/40/1 15/2/1
f 13/7/1 12/48/1 65/51/1
f 52/81/1 66/40/1 14/5/1
f 66/84/2 67/9/2 68/8/2 15/64/2
usemtl Asphalt
f 5/35/2 6/63/2 2/14/2 1/72/2
f 6/1/1 5/56/1 7/6/1 8/58/1
f 38/74/5 71/76/5 70/38/5 33/75/5
f 38/10/2 33/62/2 32/31/2 36/71/2
f 32/67/4 45/69/4 44/24/4 36/68/4
f 1/43/3 2/77/3 3/46/3 4/65/3
