# Blender v2.75 (sub 0) OBJ File: ''
# www.blender.org
mtllib roadTile_160.mtl
o Mesh1_Group1_Model.264
v 3.000000 0.550000 -3.000000
v 3.000000 0.000000 -3.000000
v 0.000000 0.000000 -3.000000
v 0.000000 0.550000 -3.000000
v 3.000000 0.550000 -2.437500
v 3.000000 0.000000 -2.437500
v 0.000000 0.550000 -2.437500
v 0.000000 0.000000 -2.437500
v 3.000000 0.000000 -0.562500
v 3.000000 0.000000 0.000000
v 0.000000 0.000000 0.000000
v 0.000000 0.000000 -0.562500
v 3.000000 0.630000 -2.437500
v 3.000000 0.630000 -1.875000
v 3.000000 0.600000 -1.875000
v 3.000000 0.300000 -1.875000
v 3.000000 0.300000 -1.125000
v 3.000000 0.600000 -1.125000
v 3.000000 0.630000 -1.125000
v 3.000000 0.630000 -0.562500
v 3.000000 0.550000 -0.562500
v 0.000000 0.630000 -2.437500
v 0.000000 0.630000 -1.875000
v 0.000000 0.550000 -0.562500
v 0.000000 0.630000 -0.562500
v 0.000000 0.630000 -1.125000
v 0.000000 0.600000 -1.125000
v 0.000000 0.300000 -1.125000
v 0.000000 0.300000 -1.875000
v 0.000000 0.600000 -1.875000
v 0.000000 0.550000 0.000000
v 3.000000 0.550000 0.000000
vt 0.562500 0.000000
vt 2.437500 0.000000
vt 1.875000 0.300000
vt 3.000000 1.875000
vt 3.000000 2.437500
vt 0.000000 2.437500
vt 0.000000 1.875000
vt -1.875000 0.300000
vt -1.875000 0.600000
vt -2.437500 0.550000
vt -2.437500 0.000000
vt -0.562500 0.000000
vt -1.125000 0.300000
vt 3.000000 0.630000
vt 0.000000 0.630000
vt 0.000000 0.550000
vt 3.000000 0.550000
vt 0.000000 1.125000
vt 0.000000 0.562500
vt 3.000000 0.562500
vt 3.000000 1.125000
vt -3.000000 0.600000
vt -0.000000 0.600000
vt -3.000000 0.630000
vt 3.000000 0.600000
vt 1.125000 0.300000
vt 1.125000 0.600000
vt 0.562500 0.550000
vt 1.125000 0.630000
vt 0.562500 0.630000
vt 2.437500 0.550000
vt 1.875000 0.600000
vt 2.437500 0.630000
vt 1.875000 0.630000
vt -3.000000 0.550000
vt -1.875000 0.630000
vt -2.437500 0.630000
vt -0.562500 0.550000
vt -1.125000 0.600000
vt -0.562500 0.630000
vt -1.125000 0.630000
vt 3.000000 0.000000
vt 0.000000 3.000000
vt 3.000000 3.000000
vt -3.000000 0.000000
vt -3.000000 3.000000
vt -3.000000 2.437500
vt 0.000000 0.000000
vt -3.000000 0.562500
vn 1.000000 0.000000 0.000000
vn 0.000000 1.000000 0.000000
vn -1.000000 -0.000000 -0.000000
vn 0.000000 0.000000 1.000000
vn 0.000000 0.000000 -1.000000
vn 0.000000 -1.000000 -0.000000
usemtl Stone
s 1
f 9/1/1 6/2/1 16/3/1
f 14/4/2 13/5/2 22/6/2 23/7/2
f 29/8/3 30/9/3 7/10/3 8/11/3
f 8/11/3 12/12/3 28/13/3
f 20/14/4 25/15/4 24/16/4 21/17/4
f 26/18/2 25/19/2 20/20/2 19/21/2
f 18/22/5 27/23/5 26/15/5 19/24/5
f 30/23/4 15/25/4 14/14/4 23/15/4
f 17/26/1 18/27/1 21/28/1 9/1/1
f 21/28/1 18/27/1 19/29/1 20/30/1
f 6/2/1 5/31/1 15/32/1 16/3/1
f 13/33/1 14/34/1 15/32/1 5/31/1
f 22/15/5 13/24/5 5/35/5 7/16/5
f 16/3/1 17/26/1 9/1/1
f 7/10/3 30/9/3 23/36/3 22/37/3
f 12/12/3 24/38/3 27/39/3 28/13/3
f 25/40/3 26/41/3 27/39/3 24/38/3
f 28/13/3 29/8/3 8/11/3
usemtl Grass
f 1/17/1 5/31/1 6/2/1 2/42/1
f 4/43/2 7/6/2 5/5/2 1/44/2
f 3/45/3 8/11/3 7/10/3 4/35/3
f 3/43/6 2/46/6 6/47/6 8/6/6
f 32/42/2 21/20/2 24/19/2 31/48/2
f 10/48/1 9/1/1 21/28/1 32/16/1
f 31/16/4 11/48/4 10/42/4 32/17/4
f 12/19/6 9/49/6 10/45/6 11/48/6
f 6/47/6 9/49/6 12/19/6 8/6/6
f 31/16/3 24/38/3 12/12/3 11/48/3
f 1/35/5 2/45/5 3/48/5 4/16/5
usemtl Asphalt
f 27/18/2 18/21/2 15/4/2 30/7/2
f 18/27/1 17/26/1 16/3/1 15/32/1
f 30/9/3 29/8/3 28/13/3 27/39/3
