# Blender v2.75 (sub 0) OBJ File: ''
# www.blender.org
mtllib roadTile_255.mtl
o Mesh1_Group1_Model.133
v 3.000000 0.630000 -1.875000
v 3.000000 0.630000 -2.250000
v 0.000000 1.730000 -2.250000
v 0.000000 1.730000 -1.875000
v 3.000000 0.630000 0.000000
v 3.000000 0.000000 -0.000000
v 3.000000 0.000000 -2.250000
v 3.000000 0.600000 -1.875000
v 3.000000 0.300000 -1.875000
v 3.000000 0.300000 -0.375000
v 3.000000 0.600000 -0.375000
v 3.000000 0.630000 -0.375000
v 0.000000 1.730000 0.000000
v 0.000000 1.100000 0.000000
v 1.500000 0.000000 -0.000000
v 0.000000 1.730000 -0.375000
v 0.000000 1.100000 -2.250000
v 0.000000 1.700000 -0.375000
v 0.000000 1.400000 -0.375000
v 0.000000 1.400000 -1.875000
v 0.000000 1.700000 -1.875000
v 1.500000 0.000000 -2.250000
vt 2.250000 0.000000
vt 2.250000 0.630000
vt 1.875000 0.600000
vt 1.875000 0.300000
vt 0.000000 -0.000000
vt 3.000000 0.630000
vt 0.000000 1.730000
vt 1.500000 0.000000
vt 0.000000 1.100000
vt -0.375000 1.700000
vt -0.375000 1.400000
vt -1.875000 1.400000
vt -3.000000 0.630000
vt -3.000000 0.000000
vt -1.500000 0.000000
vt -0.000000 -1.209610
vt 0.000000 0.650500
vt -2.250000 0.650500
vt -2.250000 -1.209610
vt -3.000000 0.600000
vt -0.000000 1.700000
vt 3.000000 0.600000
vt 0.375000 0.600000
vt 0.375000 0.630000
vt 0.000000 0.630000
vt 0.375000 0.300000
vt 0.375000 0.595561
vt 0.000000 0.595561
vt 0.000000 -2.599750
vt 0.375000 -2.599750
vt 1.875000 0.630000
vt 3.000000 -0.000000
vt -1.875000 1.700000
vt -1.875000 1.730000
vt -2.250000 1.730000
vt -2.250000 1.100000
vt -1.500000 2.250000
vt -3.000000 2.250000
vt -0.375000 1.730000
vt 1.875000 -2.599750
vt 2.250000 -2.599750
vt 2.250000 0.595561
vt 1.875000 0.595561
vt 1.875000 -2.610080
vt 1.875000 0.585233
vt 0.375000 0.585233
vt 0.375000 -2.610080
vn 1.000000 0.000000 0.000000
vn 0.000000 -0.000000 1.000000
vn -1.000000 -0.000000 -0.000000
vn -0.000000 0.000000 -1.000000
vn -0.591400 -0.806400 -0.000000
vn 0.344300 0.938900 0.000000
vn -0.000000 -1.000000 -0.000000
usemtl Stone.117
s 1
f 7/1/1 2/2/1 8/3/1 9/4/1
f 6/5/1 7/1/1 9/4/1
f 5/6/2 13/7/2 15/8/2
f 14/9/3 13/7/3 18/10/3 19/11/3
f 20/12/3 14/9/3 19/11/3
f 2/13/4 7/14/4 22/15/4
f 15/16/5 14/17/5 17/18/5 22/19/5
f 11/20/4 18/21/4 16/7/4 12/13/4
f 4/7/2 21/21/2 8/22/2 1/6/2
f 11/23/1 12/24/1 5/25/1
f 5/25/1 6/5/1 10/26/1 11/23/1
f 16/27/6 13/28/6 5/29/6 12/30/6
f 2/2/1 1/31/1 8/3/1
f 9/4/1 10/26/1 6/5/1
f 15/8/2 6/32/2 5/6/2
f 13/7/2 14/9/2 15/8/2
f 21/33/3 4/34/3 3/35/3
f 3/35/3 17/36/3 20/12/3 21/33/3
f 15/15/7 22/37/7 7/38/7 6/14/7
f 13/7/3 16/39/3 18/10/3
f 14/9/3 20/12/3 17/36/3
f 22/15/4 3/7/4 2/13/4
f 3/7/4 22/15/4 17/9/4
f 1/40/6 2/41/6 3/42/6 4/43/6
usemtl Asphalt.099
f 8/44/6 21/45/6 18/46/6 11/47/6
f 18/10/3 21/33/3 20/12/3 19/11/3
f 8/3/1 11/23/1 10/26/1 9/4/1
