# Blender v2.75 (sub 0) OBJ File: ''
# www.blender.org
mtllib roadTile_053.mtl
o Mesh1_Group1_Model.198
v 3.000000 0.600000 -3.000000
v 3.000000 0.600000 -1.703930
v 3.000000 0.300000 -1.703930
v 3.000000 0.300000 -3.000000
v 0.000000 0.600000 -3.000000
v 0.000000 0.600000 -0.750000
v 0.685263 0.600000 -0.794914
v 1.358800 0.600000 -0.928889
v 2.009090 0.600000 -1.149630
v 2.625000 0.600000 -1.453370
v 0.000000 0.300000 -3.000000
v 0.000000 0.300000 -0.750000
v 0.000000 0.000000 -3.000000
v 3.000000 0.000000 -3.000000
v 0.000000 0.000000 -0.375000
v 0.000000 0.550000 -0.375000
v 0.000000 0.630000 -0.375000
v 0.000000 0.630000 -0.750000
v 3.000000 0.000000 -0.000000
v 0.000000 0.000000 0.000000
v 3.000000 0.000000 -1.253890
v 0.000000 0.550000 0.000000
v 3.000000 0.550000 0.000000
v 3.000000 0.550000 -1.253890
v 2.812500 0.550000 -1.128610
v 2.152590 0.550000 -0.803178
v 1.455860 0.550000 -0.566667
v 0.734210 0.550000 -0.423123
v 3.000000 0.630000 -1.703930
v 3.000000 0.630000 -1.253890
v 2.625000 0.630000 -1.453370
v 2.009090 0.630000 -1.149630
v 1.358800 0.630000 -0.928889
v 0.685263 0.630000 -0.794914
v 0.734210 0.630000 -0.423123
v 1.455860 0.630000 -0.566667
v 2.152590 0.630000 -0.803178
v 2.812500 0.630000 -1.128610
vt -0.000000 0.000000
vt -0.000000 0.300000
vt -3.000000 0.300000
vt -3.000000 0.000000
vt -0.375000 0.000000
vt -0.375000 0.550000
vt -0.750000 0.600000
vt -0.750000 0.300000
vt 1.703930 0.300000
vt 1.703930 0.600000
vt 1.253890 0.550000
vt 1.253890 -0.000000
vt -2.997100 0.600000
vt -2.310370 0.600000
vt -2.310370 0.630000
vt -2.997100 0.630000
vt -2.272000 0.600000
vt -1.585270 0.600000
vt -1.585270 0.630000
vt -2.272000 0.630000
vt -1.513910 0.600000
vt -0.827176 0.600000
vt -0.827176 0.630000
vt -1.513910 0.630000
vt -0.735785 0.600000
vt -0.049052 0.600000
vt -0.049052 0.630000
vt -0.735785 0.630000
vt 2.625000 1.453370
vt 2.812500 1.128610
vt 3.000000 1.253890
vt 3.000000 1.703930
vt 1.538430 0.550000
vt 1.538430 0.630000
vt 0.802649 0.630000
vt 0.802649 0.550000
vt 2.296530 0.550000
vt 2.296530 0.630000
vt 1.560740 0.630000
vt 1.560740 0.550000
vt 3.021620 0.550000
vt 3.021620 0.630000
vt 2.285840 0.630000
vt 2.285840 0.550000
vt 3.191030 0.550000
vt 3.191030 0.630000
vt 2.965530 0.630000
vt 2.965530 0.550000
vt -0.375000 0.630000
vt -0.750000 0.630000
vt 1.703930 0.630000
vt 1.253890 0.630000
vt -3.441060 0.600000
vt -2.990050 0.600000
vt -2.990050 0.630000
vt -3.441060 0.630000
vt 3.000000 -0.000000
vt 3.000000 0.300000
vt 0.734210 0.423123
vt 0.685263 0.794914
vt -0.000000 0.750000
vt 0.000000 0.375000
vt 2.152590 0.803178
vt 2.009090 1.149630
vt 1.358800 0.928889
vt 1.455860 0.566667
vt 0.760311 0.550000
vt 0.760311 0.630000
vt 0.024526 0.630000
vt 0.024526 0.550000
vt 0.000000 0.550000
vt -3.000000 1.253890
vt -0.000000 3.000000
vt -3.000000 3.000000
vt 3.000000 0.550000
vt -3.000000 0.600000
vt -0.000000 0.600000
vt 3.000000 3.000000
vt 3.000000 0.600000
vn 0.000000 0.000000 -1.000000
vn -1.000000 -0.000000 0.000000
vn 1.000000 0.000000 0.000000
vn -0.500000 0.000000 -0.866000
vn -0.382700 0.000000 -0.923900
vn -0.258800 0.000000 -0.965900
vn -0.130500 0.000000 -0.991400
vn -0.065400 0.000000 -0.997900
vn 0.000000 1.000000 0.000000
vn 0.258800 0.000000 0.965900
vn 0.130500 0.000000 0.991400
vn 0.382700 0.000000 0.923900
vn 0.500000 0.000000 0.866000
vn 0.555600 0.000000 0.831500
vn -0.555600 0.000000 -0.831500
vn 0.065400 0.000000 0.997900
vn 0.000000 -1.000000 -0.000000
vn 0.000000 -0.000000 1.000000
usemtl Stone.169
s 1
f 13/1/1 11/2/1 4/3/1 14/4/1
f 15/5/2 16/6/2 6/7/2 12/8/2
f 3/9/3 2/10/3 24/11/3 21/12/3
f 10/13/4 9/14/5 32/15/5 31/16/4
f 9/17/5 8/18/6 33/19/6 32/20/5
f 8/21/6 7/22/7 34/23/7 33/24/6
f 7/25/7 6/26/8 18/27/8 34/28/7
f 31/29/9 38/30/9 30/31/9 29/32/9
f 27/33/10 36/34/10 35/35/11 28/36/11
f 26/37/12 37/38/12 36/39/10 27/40/10
f 25/41/13 38/42/13 37/43/12 26/44/12
f 24/45/14 30/46/14 38/47/13 25/48/13
f 12/8/2 11/3/2 13/4/2
f 6/7/2 16/6/2 17/49/2 18/50/2
f 12/8/2 13/4/2 15/5/2
f 24/11/3 2/10/3 29/51/3 30/52/3
f 2/53/15 10/54/4 31/55/4 29/56/15
f 14/57/3 4/58/3 3/9/3
f 21/12/3 14/57/3 3/9/3
f 35/59/9 34/60/9 18/61/9 17/62/9
f 37/63/9 38/30/9 31/29/9 32/64/9
f 33/65/9 36/66/9 37/63/9 32/64/9
f 35/59/9 36/66/9 33/65/9 34/60/9
f 28/67/11 35/68/11 17/69/16 16/70/16
usemtl Grass.082
f 22/71/2 16/6/2 15/5/2 20/1/2
f 21/12/3 24/11/3 23/71/3 19/1/3
f 23/57/9 26/63/9 27/66/9
f 19/4/17 20/1/17 15/62/17 21/72/17
f 21/72/17 15/62/17 13/73/17 14/74/17
f 22/71/18 20/1/18 19/57/18 23/75/18
f 28/59/9 22/1/9 23/57/9
f 23/57/9 24/31/9 25/30/9
f 28/59/9 16/62/9 22/1/9
f 23/57/9 25/30/9 26/63/9
f 27/66/9 28/59/9 23/57/9
usemtl Asphalt.140
f 5/76/2 11/3/2 12/8/2 6/7/2
f 5/73/9 7/60/9 8/65/9
f 1/76/1 4/3/1 11/2/1 5/77/1
f 9/64/9 1/78/9 5/73/9
f 1/78/9 10/29/9 2/32/9
f 5/73/9 8/65/9 9/64/9
f 5/73/9 6/61/9 7/60/9
f 9/64/9 10/29/9 1/78/9
f 1/79/3 2/10/3 3/9/3 4/58/3
