# Blender v2.75 (sub 0) OBJ File: ''
# www.blender.org
mtllib roadTile_060.mtl
o Mesh1_Group1_Model.225
v 0.000000 0.600000 0.000000
v 0.000000 0.300000 0.000000
v 2.250000 0.300000 0.000000
v 2.250000 0.600000 0.000000
v 0.000000 0.600000 -3.000000
v 0.000000 0.300000 -3.000000
v 2.250000 0.600000 -3.000000
v 2.250000 0.300000 -3.000000
v 2.250000 0.630000 -3.000000
v 3.000000 0.630000 -3.000000
v 3.000000 0.000000 -3.000000
v 0.000000 0.000000 -3.000000
v 2.250000 0.600000 -2.250000
v 2.250000 0.630000 -2.250000
v 2.250000 0.600000 -0.750000
v 3.000000 0.600000 -0.750000
v 3.000000 0.600000 -2.250000
v 2.250000 0.630000 0.000000
v 2.250000 0.630000 -0.750000
v 0.000000 0.000000 0.000000
v 3.000000 0.000000 -0.000000
v 3.000000 0.630000 0.000000
v 3.000000 0.630000 -2.250000
v 3.000000 0.300000 -2.250000
v 3.000000 0.300000 -0.750000
v 3.000000 0.630000 -0.750000
vt -2.250000 0.300000
vt -2.250000 0.600000
vt -3.000000 0.630000
vt -3.000000 0.000000
vt 2.250000 0.300000
vt 3.000000 0.000000
vt 3.000000 0.630000
vt 2.250000 0.600000
vt -0.000000 3.000000
vt -3.000000 3.000000
vt 0.000000 0.000000
vt 0.750000 0.300000
vt 0.750000 0.600000
vt 0.000000 0.630000
vt 3.000000 0.600000
vt 2.250000 0.630000
vt -3.000000 0.600000
vt -2.250000 0.630000
vt 2.250000 0.000000
vt 3.000000 0.750000
vt 2.250000 0.750000
vt -0.000000 0.300000
vt -0.750000 0.600000
vt 0.000000 0.600000
vt -0.750000 0.630000
vt -3.000000 0.300000
vt 0.750000 0.630000
vt 3.000000 2.250000
vt 3.000000 3.000000
vt 2.250000 3.000000
vt 2.250000 2.250000
vn 0.000000 0.000000 -1.000000
vn 0.000000 -0.000000 1.000000
vn 0.000000 -1.000000 -0.000000
vn 1.000000 0.000000 0.000000
vn 0.000000 1.000000 0.000000
vn -1.000000 0.000000 0.000000
usemtl Stone.194
s 1
f 8/1/1 7/2/1 10/3/1 11/4/1
f 3/5/2 21/6/2 22/7/2 4/8/2
f 12/9/3 11/10/3 21/4/3 20/11/3
f 25/12/4 16/13/4 22/14/4 21/11/4
f 11/6/4 24/5/4 25/12/4
f 13/8/2 17/15/2 23/7/2 14/16/2
f 16/17/1 15/2/1 19/18/1 26/3/1
f 18/19/5 22/6/5 26/20/5 19/21/5
f 8/1/1 12/11/1 6/22/1
f 7/17/6 13/2/6 14/18/6 9/3/6
f 10/3/1 7/2/1 9/18/1
f 11/4/1 12/11/1 8/1/1
f 15/23/6 4/24/6 18/14/6 19/25/6
f 22/7/2 18/16/2 4/8/2
f 3/5/2 20/11/2 21/6/2
f 20/11/6 2/22/6 6/26/6 12/4/6
f 3/5/2 2/22/2 20/11/2
f 11/6/4 10/7/4 17/8/4 24/5/4
f 17/8/4 10/7/4 23/16/4
f 16/13/4 26/27/4 22/14/4
f 23/28/5 10/29/5 9/30/5 14/31/5
f 25/12/4 21/11/4 11/6/4
usemtl Asphalt.161
f 5/17/6 6/26/6 2/22/6 1/24/6
f 7/2/1 8/1/1 6/22/1 5/24/1
f 15/21/5 16/20/5 17/28/5 13/31/5
f 16/13/4 25/12/4 24/5/4 17/8/4
f 13/31/5 5/9/5 1/11/5 15/21/5
f 1/11/5 4/19/5 15/21/5
f 13/31/5 7/30/5 5/9/5
f 1/24/2 2/22/2 3/5/2 4/8/2
