# Blender v2.75 (sub 0) OBJ File: ''
# www.blender.org
mtllib roadTile_084.mtl
o Mesh1_Group1_Model.092
v 3.000000 0.300000 0.000000
v 0.750000 0.300000 0.000000
v 0.750000 0.600000 0.000000
v 0.750000 1.730000 0.000000
v 0.000000 1.730000 0.000000
v 0.000000 0.000000 -0.000000
v 3.000000 0.000000 0.000000
v 3.000000 0.600000 0.000000
v 3.000000 0.300000 -3.000000
v 3.000000 0.600000 -3.000000
v 3.000000 0.000000 -3.000000
v 0.750000 0.600000 -3.000000
v 0.750000 0.300000 -3.000000
v 0.000000 0.000000 -3.000000
v 0.000000 1.730000 -3.000000
v 0.750000 1.730000 -3.000000
vt 0.750000 0.300000
vt 0.750000 0.600000
vt -0.000000 0.000000
vt 3.000000 0.000000
vt 3.000000 0.300000
vt 0.000000 0.300000
vt 0.000000 1.730000
vt -0.750000 1.730000
vt -0.750000 0.600000
vt -0.750000 0.300000
vt 3.000000 1.730000
vt 0.000000 0.600000
vt 3.000000 0.600000
vt 0.750000 0.000000
vt 0.750000 3.000000
vt 0.000000 3.000000
vt -3.000000 0.000000
vt -3.000000 1.730000
vt -3.000000 3.000000
vt -3.000000 0.300000
vt 0.750000 1.730000
vt 3.000000 3.000000
vt -3.000000 0.600000
vn -0.000000 -0.000000 1.000000
vn 1.000000 0.000000 0.000000
vn 0.000000 0.000000 -1.000000
vn 0.000000 1.000000 0.000000
vn -1.000000 0.000000 -0.000000
vn -0.000000 -1.000000 -0.000000
usemtl Stone
s 1
f 2/1/1 3/2/1 6/3/1
f 11/4/2 9/5/2 1/6/2 7/3/2
f 14/3/3 15/7/3 16/8/3 12/9/3
f 12/9/3 13/10/3 14/3/3
f 16/11/2 4/7/2 3/12/2 12/13/2
f 5/3/4 4/14/4 16/15/4 15/16/4
f 14/17/5 6/3/5 5/7/5 15/18/5
f 11/19/6 7/17/6 6/3/6 14/16/6
f 2/1/1 7/4/1 1/5/1
f 6/3/1 7/4/1 2/1/1
f 13/10/3 11/17/3 14/3/3
f 13/10/3 9/20/3 11/17/3
f 3/2/1 4/21/1 5/7/1 6/3/1
usemtl Asphalt
f 8/12/2 1/6/2 9/5/2 10/13/2
f 8/4/4 10/22/4 12/15/4 3/14/4
f 3/2/1 2/1/1 1/5/1 8/13/1
f 10/23/3 9/20/3 13/10/3 12/9/3
