# Blender v2.75 (sub 0) OBJ File: ''
# www.blender.org
mtllib roadTile_259.mtl
o Mesh1_Group1_Model.207
v 3.000000 1.385560 -1.741110
v 3.000000 1.410000 -1.500000
v 0.000000 1.410000 -1.500000
v 0.000000 1.385560 -1.741110
v 3.000000 1.650000 -3.000000
v 3.000000 1.385560 -1.258890
v 3.000000 1.650000 0.000000
v 3.000000 1.313220 -1.027600
v 3.000000 1.195930 -0.815525
v 3.000000 1.038460 -0.631311
v 3.000000 0.847222 -0.482450
v 3.000000 0.000000 -0.000000
v 0.000000 1.650000 0.000000
v 0.000000 0.000000 -0.000000
v 0.000000 0.847222 -0.482450
v 0.000000 1.038460 -0.631311
v 0.000000 1.195930 -0.815525
v 0.000000 1.313220 -1.027600
v 0.000000 1.385560 -1.258890
v 0.000000 1.650000 -3.000000
v 0.000000 0.000000 -3.000000
v 3.000000 0.000000 -3.000000
v 0.000000 0.630000 -2.625000
v 0.000000 0.300000 -2.250000
v 0.000000 0.300000 -0.750000
v 0.000000 0.630000 -0.375000
v 3.000000 0.630000 -0.375000
v 3.000000 0.300000 -0.750000
v 3.000000 0.300000 -2.250000
v 3.000000 0.600000 -2.250000
v 3.000000 0.630000 -2.625000
v 3.000000 0.847222 -2.517550
v 3.000000 1.038460 -2.368690
v 3.000000 1.139910 -2.250000
v 3.000000 1.195930 -2.184480
v 3.000000 1.275000 -2.041500
v 3.000000 1.313220 -1.972400
v 0.000000 1.313220 -1.972400
v 3.000000 1.275000 -0.958498
v 0.000000 1.275000 -0.958498
v 3.000000 1.139910 -0.750000
v 0.000000 1.139910 -0.750000
v 0.000000 1.275000 -2.041500
v 0.000000 1.195930 -2.184480
v 0.000000 1.139910 -2.250000
v 0.000000 1.038460 -2.368690
v 0.000000 0.847222 -2.517550
v 3.000000 0.630000 -2.250000
v 0.000000 0.630000 -2.250000
v 0.000000 0.600000 -2.250000
v 0.000000 0.600000 -0.750000
v 3.000000 0.600000 -0.750000
v 3.000000 0.630000 -0.750000
v 0.000000 0.630000 -0.750000
vt 0.000000 1.650000
vt 0.000000 -0.000000
vt 3.000000 -0.000000
vt 3.000000 1.650000
vt 1.500000 1.410000
vt 1.741110 1.385560
vt 1.258890 1.385560
vt 1.027600 1.313220
vt 0.815525 1.195930
vt 0.631311 1.038460
vt 0.482450 0.847222
vt 3.000000 3.000000
vt -0.000000 3.000000
vt -0.482450 0.847222
vt -0.631311 1.038460
vt -0.815525 1.195930
vt -1.027600 1.313220
vt -1.258890 1.385560
vt -3.000000 1.650000
vt -3.000000 -0.000000
vt -3.000000 0.973302
vt -3.000000 0.730957
vt -0.000000 0.730957
vt -0.000000 0.973302
vt -2.625000 0.630000
vt -2.250000 0.300000
vt -0.750000 0.300000
vt -0.375000 0.630000
vt -3.000000 3.000000
vt 0.375000 0.630000
vt 0.750000 0.300000
vt 3.000000 -1.490490
vt 3.000000 -1.248150
vt 0.000000 -1.248150
vt 0.000000 -1.490490
vt 2.250000 0.300000
vt 2.250000 0.600000
vt 2.625000 0.630000
vt 2.517550 0.847222
vt 2.368690 1.038460
vt 2.250000 1.139910
vt 2.184480 1.195930
vt 2.041500 1.275000
vt 1.972400 1.313220
vt -3.000000 1.634570
vt -3.000000 1.392230
vt 0.000000 1.392230
vt 0.000000 1.634570
vt -1.741110 1.385560
vt -1.972400 1.313220
vt -1.500000 1.410000
vt -3.000000 1.615080
vt -3.000000 1.372740
vt 0.000000 1.372740
vt 0.000000 1.615080
vt -3.000000 1.534800
vt -3.000000 1.455840
vt -0.000000 1.455840
vt -0.000000 1.534800
vt -3.000000 1.292450
vt -0.000000 1.292450
vt 0.958498 1.275000
vt -3.000000 1.396980
vt -3.000000 1.310780
vt -0.000000 1.310780
vt -0.000000 1.396980
vt -3.000000 1.154640
vt -0.000000 1.154640
vt 0.750000 1.139910
vt -3.000000 1.207240
vt -3.000000 0.964897
vt -0.000000 0.964897
vt -0.000000 1.207240
vt 3.000000 -0.599168
vt 3.000000 -0.356823
vt 0.000000 -0.356823
vt 0.000000 -0.599168
vt -0.750000 1.139910
vt -0.958498 1.275000
vt -2.041500 1.275000
vt -2.184480 1.195930
vt -2.250000 1.139910
vt -2.368690 1.038460
vt -2.517550 0.847222
vt 3.000000 -0.877864
vt 3.000000 -0.635520
vt 0.000000 -0.635520
vt 0.000000 -0.877864
vt 3.000000 -1.125770
vt 3.000000 -0.969623
vt 0.000000 -0.969623
vt 0.000000 -1.125770
vt 3.000000 -0.883421
vt 0.000000 -0.883421
vt 3.000000 -1.332780
vt 3.000000 -1.169400
vt 0.000000 -1.169400
vt 0.000000 -1.332780
vt 3.000000 -1.090440
vt 0.000000 -1.090440
vt 3.000000 2.250000
vt 3.000000 2.625000
vt 0.000000 2.625000
vt 0.000000 2.250000
vt 3.000000 0.599997
vt 3.000000 0.629997
vt 0.000000 0.629997
vt 0.000000 0.599997
vt 2.250000 0.630000
vt -2.250000 0.600000
vt -2.250000 0.630000
vt -3.000000 0.629999
vt -3.000000 0.599999
vt 0.750000 0.600000
vt 0.750000 0.630000
vt 3.000000 0.375000
vt 3.000000 0.750000
vt 0.000000 0.750000
vt 0.000000 0.375000
vt -0.750000 0.630000
vt -0.750000 0.600000
vt 3.000000 -1.592470
vt 3.000000 -1.350130
vt 0.000000 -1.350130
vt 0.000000 -1.592470
vn 0.000000 -0.000000 1.000000
vn 1.000000 -0.000000 0.000000
vn 0.000000 1.000000 0.000000
vn -1.000000 0.000000 0.000000
vn 0.000000 0.000000 -1.000000
vn 0.000000 -0.531500 -0.847000
vn 0.000000 -0.443400 -0.896300
vn 0.000000 -1.000000 -0.000000
vn 0.000000 -0.919400 0.393300
vn 0.000000 -0.979700 0.200700
vn 0.000000 -0.979700 -0.200700
vn 0.000000 -0.919400 -0.393300
vn 0.000000 -0.875100 -0.484000
vn 0.000000 -0.821800 -0.569800
vn 0.000000 -0.760100 -0.649800
vn 0.000000 -0.690700 -0.723100
vn 0.000000 -0.443400 0.896300
vn 0.000000 -0.531500 0.847000
vn 0.000000 -0.690700 0.723100
vn 0.000000 -0.760100 0.649800
vn 0.000000 -0.821800 0.569800
vn 0.000000 -0.875100 0.484000
usemtl Stone
s 1
f 13/1/1 14/2/1 12/3/1 7/4/1
f 5/4/2 2/5/2 1/6/2
f 5/4/2 6/7/2 2/5/2
f 7/1/2 6/7/2 5/4/2
f 6/7/2 7/1/2 8/8/2
f 8/8/2 7/1/2 9/9/2
f 9/9/2 7/1/2 10/10/2
f 10/10/2 7/1/2 11/11/2
f 11/11/2 7/1/2 12/2/2
f 7/3/3 5/12/3 20/13/3 13/2/3
f 13/1/4 15/14/4 14/2/4
f 15/14/4 13/1/4 16/15/4
f 16/15/4 13/1/4 17/16/4
f 17/16/4 13/1/4 18/17/4
f 18/17/4 13/1/4 19/18/4
f 19/18/4 13/1/4 20/19/4
f 21/2/5 20/1/5 5/19/5 22/20/5
f 11/21/6 27/22/7 26/23/7 15/24/6
f 21/20/4 23/25/4 20/19/4
f 21/20/4 24/26/4 23/25/4
f 21/20/4 25/27/4 24/26/4
f 14/2/4 25/27/4 21/20/4
f 25/27/4 14/2/4 26/28/4
f 14/2/4 15/14/4 26/28/4
f 14/2/8 21/13/8 22/29/8 12/20/8
f 11/11/2 12/2/2 27/30/2
f 12/2/2 28/31/2 27/30/2
f 28/31/2 12/2/2 22/3/2
f 37/32/9 1/33/10 4/34/10 38/35/9
f 28/31/2 22/3/2 29/36/2
f 29/36/2 22/3/2 30/37/2
f 30/37/2 22/3/2 31/38/2
f 5/4/2 31/38/2 22/3/2
f 5/4/2 32/39/2 31/38/2
f 5/4/2 33/40/2 32/39/2
f 5/4/2 34/41/2 33/40/2
f 5/4/2 35/42/2 34/41/2
f 5/4/2 36/43/2 35/42/2
f 5/4/2 37/44/2 36/43/2
f 5/4/2 1/6/2 37/44/2
f 2/45/8 6/46/11 19/47/11 3/48/8
f 4/49/4 20/19/4 38/50/4
f 3/51/4 20/19/4 4/49/4
f 19/18/4 20/19/4 3/51/4
f 6/52/11 8/53/12 18/54/12 19/55/11
f 8/56/12 39/57/13 40/58/13 18/59/12
f 39/57/13 9/60/14 17/61/14 40/58/13
f 8/8/2 9/9/2 39/62/2
f 9/63/14 41/64/15 42/65/15 17/66/14
f 41/64/15 10/67/16 16/68/16 42/65/15
f 9/9/2 10/10/2 41/69/2
f 10/70/16 11/71/6 15/72/6 16/73/16
f 31/74/17 32/75/18 47/76/18 23/77/17
f 16/15/4 17/16/4 42/78/4
f 17/16/4 18/17/4 40/79/4
f 38/50/4 20/19/4 43/80/4
f 43/80/4 20/19/4 44/81/4
f 44/81/4 20/19/4 45/82/4
f 45/82/4 20/19/4 46/83/4
f 46/83/4 20/19/4 47/84/4
f 47/84/4 20/19/4 23/25/4
f 32/85/18 33/86/19 46/87/19 47/88/18
f 33/89/19 34/90/20 45/91/20 46/92/19
f 34/90/20 35/93/21 44/94/21 45/91/20
f 35/95/21 36/96/22 43/97/22 44/98/21
f 36/96/22 37/99/9 38/100/9 43/97/22
f 48/101/3 31/102/3 23/103/3 49/104/3
f 30/105/1 48/106/1 49/107/1 50/108/1
f 31/38/2 48/109/2 30/37/2
f 23/25/4 50/110/4 49/111/4
f 50/110/4 23/25/4 24/26/4
f 53/112/5 52/113/5 51/108/5 54/107/5
f 52/114/2 53/115/2 28/31/2
f 27/116/3 53/117/3 54/118/3 26/119/3
f 25/27/4 54/120/4 51/121/4
f 25/27/4 26/28/4 54/120/4
f 27/30/2 28/31/2 53/115/2
f 1/122/10 2/123/8 3/124/8 4/125/10
usemtl Asphalt
f 51/121/4 50/110/4 24/26/4 25/27/4
f 52/117/3 30/101/3 50/104/3 51/118/3
f 30/37/2 52/114/2 28/31/2 29/36/2
