# Blender v2.75 (sub 0) OBJ File: ''
# www.blender.org
mtllib roadTile_236.mtl
o Mesh1_Group1_Model.241
v 2.340000 1.260000 -2.250000
v 2.340000 1.260000 -3.000000
v 0.000000 1.260000 -3.000000
v 0.000000 1.260000 -2.250000
v 3.000000 0.600000 -2.250000
v 3.000000 0.600000 -3.000000
v 0.000000 0.600000 -2.250000
v 0.000000 0.600000 -0.750000
v 3.000000 0.600000 -0.750000
v 0.000000 0.300000 -2.250000
v 0.000000 0.300000 -0.750000
v 0.000000 0.000000 -3.000000
v 0.000000 0.000000 0.000000
v 0.000000 1.260000 0.000000
v 0.000000 1.260000 -0.750000
v 3.000000 0.000000 -3.000000
v 3.000000 0.000000 -0.000000
v 3.000000 0.600000 0.000000
v 3.000000 0.300000 -2.250000
v 3.000000 0.300000 -0.750000
v 2.340000 1.260000 -0.750000
v 2.340000 1.260000 0.000000
vt 2.250000 -0.763675
vt 2.250000 -1.697060
vt 3.000000 -1.697060
vt 3.000000 -0.763675
vt 0.000000 0.600000
vt 3.000000 0.600000
vt 2.340000 1.260000
vt -3.000000 0.000000
vt -2.250000 0.600000
vt -2.250000 1.260000
vt -3.000000 1.260000
vt 0.000000 0.000000
vt -0.750000 0.300000
vt 3.000000 0.000000
vt 2.250000 0.600000
vt 2.250000 0.300000
vt 0.750000 0.300000
vt 2.340000 0.000000
vt 2.340000 0.750000
vt 0.000000 0.750000
vt -2.340000 1.260000
vt -3.000000 0.600000
vt 0.000000 1.260000
vt -0.750000 1.260000
vt -0.750000 0.600000
vt -2.250000 0.300000
vt -0.000000 3.000000
vt -3.000000 3.000000
vt 0.750000 0.600000
vt 0.750000 -1.697060
vt 0.750000 -0.763675
vt 0.000000 -0.763675
vt 0.000000 -1.697060
vt 2.340000 2.250000
vt 2.340000 3.000000
vt 0.000000 2.250000
vt 3.000000 2.250000
vt 3.000000 0.750000
vn 0.707100 0.707100 0.000000
vn 0.000000 0.000000 1.000000
vn -1.000000 -0.000000 -0.000000
vn 1.000000 0.000000 0.000000
vn 0.000000 1.000000 0.000000
vn 0.000000 0.000000 -1.000000
vn 0.000000 -1.000000 -0.000000
usemtl Stone
s 1
f 1/1/1 5/2/1 6/3/1 2/4/1
f 7/5/2 5/6/2 1/7/2
f 12/8/3 7/9/3 4/10/3 3/11/3
f 12/8/3 13/12/3 11/13/3
f 16/14/4 6/6/4 5/15/4 19/16/4
f 17/12/4 16/14/4 20/17/4
f 14/12/5 22/18/5 21/19/5 15/20/5
f 21/21/6 9/22/6 8/5/6
f 13/12/2 17/14/2 22/7/2 14/23/2
f 4/23/2 7/5/2 1/7/2
f 13/12/3 14/23/3 15/24/3 8/25/3
f 13/12/3 8/25/3 11/13/3
f 16/8/6 12/12/6 3/23/6 2/21/6
f 10/26/3 7/9/3 12/8/3
f 11/13/3 10/26/3 12/8/3
f 2/21/6 6/22/6 16/8/6
f 13/12/7 12/27/7 16/28/7 17/8/7
f 18/5/4 17/12/4 20/17/4 9/29/4
f 9/30/1 21/31/1 22/32/1 18/33/1
f 16/14/4 19/16/4 20/17/4
f 15/23/6 21/21/6 8/5/6
f 17/14/2 18/6/2 22/7/2
f 1/34/5 2/35/5 3/27/5 4/36/5
usemtl Asphalt
f 5/37/5 7/36/5 8/20/5 9/38/5
f 7/9/3 10/26/3 11/13/3 8/25/3
f 9/29/4 20/17/4 19/16/4 5/15/4
