# Blender v2.75 (sub 0) OBJ File: ''
# www.blender.org
mtllib roadTile_243.mtl
o Mesh1_Group1_Model.267
v 3.000000 0.455000 -0.750000
v 3.000000 0.000000 -0.750000
v 3.000000 0.000000 -3.000000
v 3.000000 0.455000 -3.000000
v 3.000000 0.630000 -0.375000
v 3.000000 0.550000 -0.375000
v 3.000000 0.000000 -0.375000
v 3.000000 0.630000 -0.750000
v 2.657370 0.630000 -0.397457
v 2.657370 0.550000 -0.397457
v 0.750000 0.630000 -3.000000
v 0.375000 0.630000 -3.000000
v 0.397457 0.630000 -2.657370
v 0.464445 0.630000 -2.320600
v 0.574816 0.630000 -1.995460
v 0.726683 0.630000 -1.687500
v 0.917447 0.630000 -1.402000
v 1.143840 0.630000 -1.143840
v 1.402000 0.630000 -0.917447
v 1.687500 0.630000 -0.726683
v 1.995460 0.630000 -0.574816
v 2.320600 0.630000 -0.464445
v 2.706320 0.630000 -0.769249
v 2.417660 0.630000 -0.826667
v 2.138960 0.630000 -0.921271
v 1.875000 0.630000 -1.051440
v 1.630290 0.630000 -1.214950
v 1.409010 0.630000 -1.409010
v 1.214950 0.630000 -1.630290
v 1.051440 0.630000 -1.875000
v 0.921271 0.630000 -2.138960
v 0.826667 0.630000 -2.417660
v 0.769249 0.630000 -2.706320
v 0.750000 0.000000 -3.000000
v 0.375000 0.000000 -3.000000
v 0.375000 0.550000 -3.000000
v 0.750000 0.455000 -3.000000
v 3.000000 0.000000 0.000000
v 0.000000 0.000000 -0.000000
v 0.000000 0.000000 -3.000000
v 3.000000 0.550000 0.000000
v 2.320600 0.550000 -0.464445
v 1.995460 0.550000 -0.574816
v 1.687500 0.550000 -0.726683
v 1.402000 0.550000 -0.917447
v 1.143840 0.550000 -1.143840
v 0.917447 0.550000 -1.402000
v 0.726683 0.550000 -1.687500
v 0.574816 0.550000 -1.995460
v 0.464445 0.550000 -2.320600
v 0.397457 0.550000 -2.657370
v 0.000000 0.550000 -3.000000
v 0.000000 0.550000 0.000000
v 0.769249 0.455000 -2.706320
v 0.826667 0.455000 -2.417660
v 0.921271 0.455000 -2.138960
v 1.051440 0.455000 -1.875000
v 1.214950 0.455000 -1.630290
v 1.409010 0.455000 -1.409010
v 1.630290 0.455000 -1.214950
v 1.875000 0.455000 -1.051440
v 2.138960 0.455000 -0.921271
v 2.417660 0.455000 -0.826667
v 2.706320 0.455000 -0.769249
vt -3.000000 0.455000
vt -3.000000 0.000000
vt -0.750000 0.000000
vt -0.750000 0.455000
vt 3.000000 3.000000
vt 1.214950 1.630290
vt 1.409010 1.409010
vt 2.706320 0.769249
vt 3.000000 0.750000
vt 2.417660 0.826667
vt 1.875000 1.051440
vt 2.138960 0.921271
vt 1.630290 1.214950
vt 1.051440 1.875000
vt 0.826667 2.417660
vt 0.921271 2.138960
vt 0.750000 3.000000
vt 0.769249 2.706320
vt 0.750000 0.455000
vt 0.750000 0.000000
vt 3.000000 0.000000
vt 3.000000 0.455000
vt 0.375000 0.550000
vt 0.750000 0.630000
vt 0.375000 0.630000
vt 2.657370 0.397457
vt 3.000000 0.375000
vt 2.528770 0.550000
vt 2.528770 0.630000
vt 2.185400 0.630000
vt 2.185400 0.550000
vt 2.048160 0.550000
vt 2.048160 0.630000
vt 1.704790 0.630000
vt 1.704790 0.550000
vt 1.535440 0.550000
vt 1.535440 0.630000
vt 1.192070 0.630000
vt 1.192070 0.550000
vt 0.999381 0.550000
vt 0.999381 0.630000
vt 0.656015 0.630000
vt 0.656015 0.550000
vt 0.449165 0.550000
vt 0.449165 0.630000
vt 0.105799 0.630000
vt 0.105799 0.550000
vt -0.105799 0.550000
vt -0.105799 0.630000
vt -0.449165 0.630000
vt -0.449165 0.550000
vt -0.656015 0.550000
vt -0.656015 0.630000
vt -0.999381 0.630000
vt -0.999381 0.550000
vt -1.192070 0.550000
vt -1.192070 0.630000
vt -1.535440 0.630000
vt -1.535440 0.550000
vt -1.704790 0.550000
vt -1.704790 0.630000
vt -2.048160 0.630000
vt -2.048160 0.550000
vt -2.185400 0.550000
vt -2.185400 0.630000
vt -2.528770 0.630000
vt -2.528770 0.550000
vt -2.625680 0.550000
vt -2.625680 0.630000
vt -2.969050 0.630000
vt -2.969050 0.550000
vt 2.650210 0.455000
vt 2.944520 0.455000
vt 2.944520 0.630000
vt 2.650210 0.630000
vt 2.209930 0.455000
vt 2.504240 0.455000
vt 2.504240 0.630000
vt 2.209930 0.630000
vt 1.729310 0.455000
vt 2.023630 0.455000
vt 2.023630 0.630000
vt 1.729310 0.630000
vt 1.216600 0.455000
vt 1.510910 0.455000
vt 1.510910 0.630000
vt 1.216600 0.630000
vt 0.680541 0.455000
vt 0.974855 0.455000
vt 0.974855 0.630000
vt 0.680541 0.630000
vt 0.130325 0.455000
vt 0.424639 0.455000
vt 0.424639 0.630000
vt 0.130325 0.630000
vt -0.424639 0.455000
vt -0.130325 0.455000
vt -0.130325 0.630000
vt -0.424639 0.630000
vt -0.974855 0.455000
vt -0.680541 0.455000
vt -0.680541 0.630000
vt -0.974855 0.630000
vt -1.510910 0.455000
vt -1.216600 0.455000
vt -1.216600 0.630000
vt -1.510910 0.630000
vt -2.023630 0.455000
vt -1.729310 0.455000
vt -1.729310 0.630000
vt -2.023630 0.630000
vt -2.504240 0.455000
vt -2.209930 0.455000
vt -2.209930 0.630000
vt -2.504240 0.630000
vt -2.944520 0.455000
vt -2.650210 0.455000
vt -2.650210 0.630000
vt -2.944520 0.630000
vt 0.375000 0.000000
vt 2.969050 0.550000
vt 2.969050 0.630000
vt 2.625680 0.630000
vt 2.625680 0.550000
vt 0.397457 2.657370
vt 0.375000 3.000000
vt 2.320600 0.464445
vt 1.995460 0.574816
vt 0.464445 2.320600
vt 1.687500 0.726683
vt 0.574816 1.995460
vt 1.402000 0.917447
vt 0.726683 1.687500
vt 1.143840 1.143840
vt 0.917447 1.402000
vt -0.375000 0.000000
vt -0.375000 0.550000
vt -0.375000 0.630000
vt -0.750000 0.630000
vt -0.750000 3.000000
vt -0.000000 0.000000
vt -0.375000 3.000000
vt 0.000000 0.550000
vt -3.000000 0.550000
vt 3.000000 0.550000
vt -3.000000 3.000000
vt -3.000000 0.750000
vt -3.000000 0.375000
vt -0.000000 3.000000
vn 0.000000 0.000000 -1.000000
vn 0.000000 1.000000 0.000000
vn 1.000000 0.000000 0.000000
vn -0.130500 0.000000 0.991400
vn -0.258800 0.000000 0.965900
vn -0.382700 0.000000 0.923900
vn -0.500000 0.000000 0.866000
vn -0.608800 0.000000 0.793400
vn -0.707100 0.000000 0.707100
vn -0.793400 0.000000 0.608800
vn -0.866000 0.000000 0.500000
vn -0.923900 0.000000 0.382700
vn -0.965900 0.000000 0.258800
vn -0.991400 0.000000 0.130500
vn -0.997900 0.000000 0.065400
vn 0.991400 0.000000 -0.130500
vn 0.997900 0.000000 -0.065400
vn 0.965900 0.000000 -0.258800
vn 0.923900 0.000000 -0.382700
vn 0.866000 0.000000 -0.500000
vn 0.793400 0.000000 -0.608800
vn 0.707100 0.000000 -0.707100
vn 0.608800 0.000000 -0.793400
vn 0.500000 0.000000 -0.866000
vn 0.382700 0.000000 -0.923900
vn 0.258800 0.000000 -0.965900
vn 0.130500 0.000000 -0.991400
vn 0.065400 0.000000 -0.997900
vn -0.065400 0.000000 0.997900
vn 0.000000 -1.000000 -0.000000
vn -1.000000 0.000000 -0.000000
vn -0.000000 -0.000000 1.000000
usemtl Water.041
s 1
f 4/1/1 3/2/1 34/3/1 37/4/1
f 4/5/2 58/6/2 59/7/2
f 64/8/2 1/9/2 4/5/2
f 4/5/2 63/10/2 64/8/2
f 4/5/2 61/11/2 62/12/2
f 4/5/2 59/7/2 60/13/2
f 4/5/2 57/14/2 58/6/2
f 4/5/2 55/15/2 56/16/2
f 4/5/2 37/17/2 54/18/2
f 62/12/2 63/10/2 4/5/2
f 4/5/2 60/13/2 61/11/2
f 4/5/2 56/16/2 57/14/2
f 55/15/2 4/5/2 54/18/2
f 1/19/3 2/20/3 3/21/3 4/22/3
usemtl Stone.231
f 6/23/3 1/19/3 8/24/3 5/25/3
f 9/26/2 5/27/2 8/9/2 23/8/2
f 10/28/4 9/29/4 22/30/5 42/31/5
f 42/32/5 22/33/5 21/34/6 43/35/6
f 43/36/6 21/37/6 20/38/7 44/39/7
f 44/40/7 20/41/7 19/42/8 45/43/8
f 45/44/8 19/45/8 18/46/9 46/47/9
f 46/48/9 18/49/9 17/50/10 47/51/10
f 47/52/10 17/53/10 16/54/11 48/55/11
f 48/56/11 16/57/11 15/58/12 49/59/12
f 49/60/12 15/61/12 14/62/13 50/63/13
f 50/64/13 14/65/13 13/66/14 51/67/14
f 51/68/14 13/69/14 12/70/15 36/71/15
f 54/72/16 37/73/17 11/74/17 33/75/16
f 55/76/18 54/77/16 33/78/16 32/79/18
f 56/80/19 55/81/18 32/82/18 31/83/19
f 57/84/20 56/85/19 31/86/19 30/87/20
f 58/88/21 57/89/20 30/90/20 29/91/21
f 59/92/22 58/93/21 29/94/21 28/95/22
f 60/96/23 59/97/22 28/98/22 27/99/23
f 61/100/24 60/101/23 27/102/23 26/103/24
f 62/104/25 61/105/24 26/106/24 25/107/25
f 63/108/26 62/109/25 25/110/25 24/111/26
f 64/112/27 63/113/26 24/114/26 23/115/27
f 1/116/28 64/117/27 23/118/27 8/119/28
f 1/19/3 6/23/3 7/120/3 2/20/3
f 6/121/29 5/122/29 9/123/4 10/124/4
f 13/125/2 33/18/2 11/17/2 12/126/2
f 22/127/2 9/26/2 23/8/2 24/10/2
f 21/128/2 22/127/2 24/10/2 25/12/2
f 13/125/2 14/129/2 32/15/2 33/18/2
f 26/11/2 20/130/2 21/128/2 25/12/2
f 15/131/2 31/16/2 32/15/2 14/129/2
f 27/13/2 19/132/2 20/130/2 26/11/2
f 15/131/2 16/133/2 30/14/2 31/16/2
f 28/7/2 18/134/2 19/132/2 27/13/2
f 16/133/2 17/135/2 29/6/2 30/14/2
f 28/7/2 29/6/2 17/135/2 18/134/2
f 35/136/1 36/137/1 37/4/1 34/3/1
f 37/4/1 36/137/1 12/138/1 11/139/1
usemtl Grass.112
f 34/140/30 39/141/30 35/142/30
f 45/132/2 46/134/2 53/141/2
f 52/143/1 36/137/1 35/136/1 40/141/1
f 39/141/31 53/143/31 52/144/31 40/2/31
f 53/143/32 39/141/32 38/21/32 41/145/32
f 39/141/30 34/140/30 3/146/30 2/147/30
f 39/141/30 2/147/30 7/148/30
f 38/141/3 7/120/3 6/23/3 41/143/3
f 39/141/30 40/149/30 35/142/30
f 7/148/30 38/2/30 39/141/30
f 50/129/2 52/149/2 53/141/2
f 10/26/2 41/21/2 6/27/2
f 51/125/2 36/126/2 52/149/2
f 42/127/2 41/21/2 10/26/2
f 50/129/2 51/125/2 52/149/2
f 53/141/2 41/21/2 42/127/2
f 49/131/2 50/129/2 53/141/2
f 53/141/2 42/127/2 43/128/2
f 48/133/2 49/131/2 53/141/2
f 53/141/2 43/128/2 44/130/2
f 47/135/2 48/133/2 53/141/2
f 53/141/2 44/130/2 45/132/2
f 46/134/2 47/135/2 53/141/2
