# Blender v2.75 (sub 0) OBJ File: ''
# www.blender.org
mtllib roadTile_300.mtl
o Mesh1_Group1_Model.208
v 0.187500 0.630000 -0.753607
v 0.000000 0.630000 -0.878891
v 0.000000 0.000000 -0.878891
v 0.187500 0.000000 -0.753607
v 0.000000 0.630000 -1.328930
v 0.847406 0.630000 -0.428178
v 1.544140 0.630000 -0.191667
v 2.265790 0.630000 -0.048123
v 3.000000 0.630000 0.000000
v 3.000000 0.630000 -0.375000
v 2.314740 0.630000 -0.419914
v 1.641200 0.630000 -0.553889
v 0.990912 0.630000 -0.774632
v 0.375000 0.630000 -1.078370
v 0.000000 0.600000 -1.328930
v 0.000000 0.300000 -1.328930
v 0.000000 0.300000 -2.625000
v 0.000000 0.000000 -2.625000
v 0.000000 0.600000 -2.625000
v 0.754448 0.600000 -2.625000
v 0.754448 0.300000 -2.625000
v 1.468970 0.000000 -2.625000
v 0.754448 0.630000 -2.625000
v 1.468970 0.630000 -2.625000
v 3.000000 0.000000 -2.250000
v 3.000000 0.000000 -0.000000
v 2.265790 0.000000 -0.048123
v 1.544140 0.000000 -0.191667
v 0.847406 0.000000 -0.428178
v 1.708440 0.000000 -2.506910
v 2.126490 0.000000 -2.365000
v 2.559470 0.000000 -2.278870
v 3.000000 0.630000 -2.250000
v 3.000000 0.630000 -1.875000
v 3.000000 0.600000 -1.875000
v 3.000000 0.300000 -1.875000
v 3.000000 0.300000 -0.375000
v 3.000000 0.600000 -0.375000
v 2.559470 0.630000 -2.278870
v 2.126490 0.630000 -2.365000
v 1.708440 0.630000 -2.506910
v 1.125000 0.630000 -2.377400
v 1.564940 0.630000 -2.160450
v 2.029430 0.630000 -2.002780
v 2.510530 0.630000 -1.907080
v 1.125000 0.600000 -2.377400
v 0.375000 0.600000 -1.078370
v 0.990912 0.600000 -0.774632
v 1.641200 0.600000 -0.553889
v 2.314740 0.600000 -0.419914
v 2.510530 0.600000 -1.907080
v 2.029430 0.600000 -2.002780
v 1.564940 0.600000 -2.160450
vt 2.314740 0.419914
vt 2.265790 0.048123
vt 3.000000 0.000000
vt 3.000000 0.375000
vt -0.754448 0.300000
vt -0.754448 0.600000
vt -1.468970 0.630000
vt -1.468970 -0.000000
vt -0.000000 0.000000
vt 2.250000 0.000000
vt 1.875000 0.300000
vt 2.212870 0.630000
vt 1.477080 0.630000
vt 1.477080 -0.000000
vt 2.212870 -0.000000
vt 1.400590 0.630000
vt 0.664801 0.630000
vt 0.664801 -0.000000
vt 1.400590 -0.000000
vt 0.570637 0.630000
vt -0.165148 0.630000
vt -0.165148 -0.000000
vt 0.570637 -0.000000
vt -2.404950 0.630000
vt -2.846420 0.630000
vt -2.846420 -0.000000
vt -2.404950 -0.000000
vt 3.000000 2.250000
vt 2.559470 2.278870
vt 2.510530 1.907080
vt 3.000000 1.875000
vt -0.811958 0.630000
vt -1.253430 0.630000
vt -1.253430 0.000000
vt -0.811958 0.000000
vt -0.156475 0.630000
vt -0.423480 0.630000
vt -0.423480 -0.000000
vt -0.156475 -0.000000
vt -0.385412 0.630000
vt -0.831072 0.630000
vt -0.831072 0.600000
vt -0.385412 0.600000
vt 0.140622 0.630000
vt -0.546111 0.630000
vt -0.546111 0.600000
vt 0.140622 0.600000
vt -0.689327 0.630000
vt -1.376060 0.630000
vt -1.376060 0.600000
vt -0.689327 0.600000
vt -1.501610 0.630000
vt -2.188340 0.630000
vt -2.188340 0.600000
vt -1.501610 0.600000
vt -2.282320 0.630000
vt -2.969050 0.630000
vt -2.969050 0.600000
vt -2.282320 0.600000
vt 2.870950 0.630000
vt 2.380420 0.630000
vt 2.380420 0.600000
vt 2.870950 0.600000
vt 2.090230 0.630000
vt 1.599710 0.630000
vt 1.599710 0.600000
vt 2.090230 0.600000
vt 1.277960 0.630000
vt 0.787432 0.630000
vt 0.787432 0.600000
vt 1.277960 0.600000
vt 0.448006 0.630000
vt -0.042517 0.630000
vt -0.042517 0.600000
vt 0.448006 0.600000
vt 0.187500 0.753607
vt 0.375000 1.078370
vt 0.000000 1.328930
vt 0.000000 0.878891
vt 1.544140 0.191667
vt 1.641200 0.553889
vt 0.990912 0.774632
vt 0.847406 0.428178
vt -1.328930 0.300000
vt -0.878891 -0.000000
vt -0.878891 0.630000
vt -1.328930 0.600000
vt -1.328930 0.630000
vt -2.625000 0.000000
vt -2.625000 0.300000
vt -0.847406 0.428178
vt -0.187500 0.753607
vt -1.468970 2.625000
vt -1.708440 2.506910
vt -0.754448 0.630000
vt -0.000000 0.300000
vt -2.265790 0.048123
vt -2.559470 2.278870
vt -3.000000 2.250000
vt -3.000000 0.000000
vt -2.126490 2.365000
vt -1.544140 0.191667
vt -0.000000 2.625000
vt 2.250000 0.630000
vt 1.875000 0.600000
vt 0.375000 0.600000
vt 0.375000 0.630000
vt -0.000000 0.630000
vt 0.375000 0.300000
vt 2.993580 0.630000
vt 2.257790 0.630000
vt 2.257790 -0.000000
vt 2.993580 -0.000000
vt 1.875000 0.630000
vt 2.126490 2.365000
vt 1.708440 2.506910
vt 1.564940 2.160450
vt 2.029430 2.002780
vt 1.468970 2.625000
vt 1.125000 2.377400
vt 0.754448 2.625000
vt -1.624240 0.630000
vt -2.065710 0.630000
vt -2.065710 0.000000
vt -1.624240 0.000000
vt 0.738316 0.630000
vt 0.287307 0.630000
vt 0.287307 0.600000
vt 0.738316 0.600000
vt -0.262781 0.630000
vt -0.488285 0.630000
vt -0.488285 -0.000000
vt -0.262781 -0.000000
vt -0.000000 0.600000
vt -2.625000 0.600000
vn 0.000000 1.000000 -0.000000
vn 0.000000 0.000000 -1.000000
vn 1.000000 0.000000 0.000000
vn -0.130500 -0.000000 0.991400
vn -0.258800 -0.000000 0.965900
vn -0.382700 -0.000000 0.923900
vn -0.500000 -0.000000 0.866000
vn 0.130500 0.000000 -0.991400
vn 0.065400 0.000000 -0.997900
vn 0.382700 0.000000 -0.923900
vn 0.258800 0.000000 -0.965900
vn 0.442300 0.000000 -0.896900
vn -0.555600 0.000000 0.831500
vn 0.500000 0.000000 -0.866000
vn -0.065400 0.000000 0.997900
vn -1.000000 -0.000000 0.000000
vn -0.000000 -1.000000 -0.000000
vn 0.555600 0.000000 -0.831500
usemtl Stone
s 1
f 11/1/1 8/2/1 9/3/1 10/4/1
f 21/5/2 20/6/2 24/7/2 22/8/2
f 22/8/2 18/9/2 21/5/2
f 26/9/3 25/10/3 36/11/3
f 8/12/4 7/13/5 28/14/5 27/15/4
f 7/16/5 6/17/6 29/18/6 28/19/5
f 6/20/6 1/21/7 4/22/7 29/23/6
f 39/24/8 33/25/9 25/26/9 32/27/8
f 33/28/1 39/29/1 45/30/1 34/31/1
f 41/32/10 40/33/11 31/34/11 30/35/10
f 24/36/12 41/37/10 30/38/10 22/39/12
f 42/40/7 23/41/13 20/42/13 46/43/7
f 14/44/14 13/45/10 48/46/10 47/47/14
f 13/48/10 12/49/11 49/50/11 48/51/10
f 12/52/11 11/53/8 50/54/8 49/55/11
f 11/56/8 10/57/9 38/58/9 50/59/8
f 34/60/15 45/61/4 51/62/4 35/63/15
f 45/64/4 44/65/5 52/66/5 51/67/4
f 44/68/5 43/69/6 53/70/6 52/71/5
f 43/72/6 42/73/7 46/74/7 53/75/6
f 1/76/1 14/77/1 5/78/1 2/79/1
f 7/80/1 8/2/1 11/1/1 12/81/1
f 13/82/1 6/83/1 7/80/1 12/81/1
f 1/76/1 6/83/1 13/82/1 14/77/1
f 16/84/16 3/85/16 2/86/16 15/87/16
f 2/86/16 5/88/16 15/87/16
f 16/84/16 18/89/16 3/85/16
f 16/84/16 17/90/16 18/89/16
f 29/91/17 4/92/17 22/93/17 30/94/17
f 24/7/2 20/6/2 23/95/2
f 18/9/2 17/96/2 21/5/2
f 27/97/17 32/98/17 25/99/17 26/100/17
f 31/101/17 28/102/17 29/91/17 30/94/17
f 27/97/17 28/102/17 31/101/17 32/98/17
f 22/93/17 4/92/17 3/79/17 18/103/17
f 25/10/3 33/104/3 35/105/3 36/11/3
f 38/106/3 10/107/3 9/108/3
f 9/108/3 26/9/3 37/109/3 38/106/3
f 9/110/15 8/111/4 27/112/4 26/113/15
f 33/104/3 34/114/3 35/105/3
f 36/11/3 37/109/3 26/9/3
f 40/115/1 41/116/1 43/117/1 44/118/1
f 43/117/1 41/116/1 24/119/1 42/120/1
f 24/119/1 23/121/1 42/120/1
f 44/118/1 45/30/1 39/29/1 40/115/1
f 40/122/11 39/123/8 32/124/8 31/125/11
f 5/126/18 14/127/14 47/128/14 15/129/18
f 1/130/7 2/131/13 3/132/13 4/133/7
usemtl Asphalt
f 20/6/2 21/5/2 17/96/2 19/134/2
f 51/30/1 50/1/1 38/4/1 35/31/1
f 35/105/3 38/106/3 37/109/3 36/11/3
f 19/135/16 17/90/16 16/84/16 15/87/16
f 49/81/1 50/1/1 51/30/1 52/118/1
f 15/78/1 20/121/1 19/103/1
f 15/78/1 47/77/1 46/120/1 20/121/1
f 53/117/1 48/82/1 49/81/1 52/118/1
f 53/117/1 46/120/1 47/77/1 48/82/1
