# Blender v2.75 (sub 0) OBJ File: ''
# www.blender.org
mtllib roadTile_009.mtl
o Mesh1_Group1_Model.269
v 2.974330 1.650000 -2.608420
v 2.897780 1.650000 -2.223540
v 2.897780 0.000000 -2.223540
v 2.974330 0.000000 -2.608420
v 0.000000 1.650000 -3.000000
v 0.000000 1.650000 0.000000
v 0.391579 1.650000 -0.025665
v 0.776457 1.650000 -0.102223
v 1.148050 1.650000 -0.228361
v 1.500000 1.650000 -0.401924
v 1.826280 1.650000 -0.619940
v 2.121320 1.650000 -0.878680
v 2.380060 1.650000 -1.173720
v 2.598080 1.650000 -1.500000
v 2.771640 1.650000 -1.851950
v 3.000000 1.650000 -3.000000
v 0.000000 0.000000 -3.000000
v 0.000000 0.000000 0.000000
v 3.000000 0.000000 -3.000000
v 2.771640 0.000000 -1.851950
v 2.598080 0.000000 -1.500000
v 2.380060 0.000000 -1.173720
v 2.121320 0.000000 -0.878680
v 1.826280 0.000000 -0.619940
v 1.500000 0.000000 -0.401924
v 1.148050 0.000000 -0.228361
v 0.776457 0.000000 -0.102223
v 0.391579 0.000000 -0.025665
vt -3.000000 0.000000
vt 0.000000 0.000000
vt 0.000000 1.650000
vt -3.000000 1.650000
vt 0.000000 3.000000
vt 1.826280 0.619940
vt 2.121320 0.878680
vt -2.380060 1.173720
vt -2.121320 0.878680
vt 3.189790 1.650000
vt 2.797370 1.650000
vt 2.797370 0.000000
vt 3.189790 0.000000
vt 3.037000 1.650000
vt 2.644580 1.650000
vt 2.644580 0.000000
vt 3.037000 0.000000
vt 2.886830 1.650000
vt 2.494410 1.650000
vt 2.494410 0.000000
vt 2.886830 0.000000
vt 2.690620 1.650000
vt 2.298200 1.650000
vt 2.298200 0.000000
vt 2.690620 0.000000
vt 2.451730 1.650000
vt 2.059310 1.650000
vt 2.059310 0.000000
vt 2.451730 0.000000
vt 2.174250 1.650000
vt 1.781830 1.650000
vt 1.781830 0.000000
vt 2.174250 0.000000
vt 1.862920 1.650000
vt 1.470500 1.650000
vt 1.470500 0.000000
vt 1.862920 0.000000
vt 1.523080 1.650000
vt 1.130660 1.650000
vt 1.130660 0.000000
vt 1.523080 0.000000
vt 1.160530 1.650000
vt 0.768109 1.650000
vt 0.768109 0.000000
vt 1.160530 0.000000
vt 0.781480 1.650000
vt 0.389062 1.650000
vt 0.389062 0.000000
vt 0.781480 0.000000
vt 0.392419 1.650000
vt 0.392419 0.000000
vt 2.974330 2.608420
vt 3.000000 3.000000
vt 2.897780 2.223540
vt 2.598080 1.500000
vt 2.771640 1.851950
vt 2.380060 1.173720
vt 1.500000 0.401924
vt 0.776457 0.102223
vt 1.148050 0.228361
vt 0.391579 0.025665
vt -0.391579 0.025665
vt -0.776457 0.102223
vt -1.500000 0.401924
vt -1.148050 0.228361
vt -1.826280 0.619940
vt -2.598080 1.500000
vt -2.897780 2.223540
vt -2.771640 1.851950
vt -3.000000 3.000000
vt -2.974330 2.608420
vt 3.138570 1.650000
vt 2.746150 1.650000
vt 2.746150 0.000000
vt 3.138570 0.000000
vn -1.000000 0.000000 -0.000000
vn -0.000000 1.000000 0.000000
vn 0.000000 0.000000 -1.000000
vn 0.000000 -1.000000 -0.000000
vn 0.997900 0.000000 0.065400
vn 0.991400 0.000000 0.130500
vn 0.965900 0.000000 0.258800
vn 0.923900 -0.000000 0.382700
vn 0.866000 -0.000000 0.500000
vn 0.793400 -0.000000 0.608800
vn 0.707100 -0.000000 0.707100
vn 0.608800 -0.000000 0.793400
vn 0.500000 -0.000000 0.866000
vn 0.382700 -0.000000 0.923900
vn 0.258800 -0.000000 0.965900
vn 0.130500 -0.000000 0.991400
vn 0.065400 -0.000000 0.997900
usemtl Stone
s 1
f 17/1/1 18/2/1 6/3/1 5/4/1
f 5/5/2 11/6/2 12/7/2
f 17/2/3 5/3/3 16/4/3 19/1/3
f 17/5/4 22/8/4 23/9/4
f 16/10/5 1/11/6 4/12/6 19/13/5
f 2/14/7 15/15/8 20/16/8 3/17/7
f 15/18/8 14/19/9 21/20/9 20/21/8
f 14/22/9 13/23/10 22/24/10 21/25/9
f 13/26/10 12/27/11 23/28/11 22/29/10
f 12/30/11 11/31/12 24/32/12 23/33/11
f 11/34/12 10/35/13 25/36/13 24/37/12
f 10/38/13 9/39/14 26/40/14 25/41/13
f 9/42/14 8/43/15 27/44/15 26/45/14
f 8/46/15 7/47/16 28/48/16 27/49/15
f 7/50/16 6/3/17 18/2/17 28/51/16
f 1/52/2 16/53/2 5/5/2
f 5/5/2 2/54/2 1/52/2
f 5/5/2 14/55/2 15/56/2
f 5/5/2 12/7/2 13/57/2
f 5/5/2 10/58/2 11/6/2
f 5/5/2 8/59/2 9/60/2
f 5/5/2 6/2/2 7/61/2
f 15/56/2 2/54/2 5/5/2
f 5/5/2 13/57/2 14/55/2
f 5/5/2 9/60/2 10/58/2
f 8/59/2 5/5/2 7/61/2
f 28/62/4 18/2/4 17/5/4
f 17/5/4 27/63/4 28/62/4
f 17/5/4 25/64/4 26/65/4
f 17/5/4 23/9/4 24/66/4
f 17/5/4 21/67/4 22/8/4
f 17/5/4 3/68/4 20/69/4
f 17/5/4 19/70/4 4/71/4
f 26/65/4 27/63/4 17/5/4
f 17/5/4 24/66/4 25/64/4
f 17/5/4 20/69/4 21/67/4
f 3/68/4 17/5/4 4/71/4
f 1/72/6 2/73/7 3/74/7 4/75/6
