# Blender v2.75 (sub 0) OBJ File: ''
# www.blender.org
mtllib roadTile_087.mtl
o Mesh1_Group1_Model.221
v 0.000000 0.630000 0.000000
v 0.937500 0.630000 0.000000
v 0.937500 0.630000 -0.937500
v 0.000000 0.630000 -0.937500
v 0.000000 0.000000 0.000000
v 3.000000 0.000000 -0.000000
v 3.000000 0.630000 0.000000
v 2.062500 0.630000 0.000000
v 2.062500 0.570000 0.000000
v 1.875000 0.570000 0.000000
v 1.875000 0.630000 0.000000
v 1.125000 0.630000 0.000000
v 1.125000 0.570000 0.000000
v 0.937500 0.570000 0.000000
v 0.000000 0.000000 -3.000000
v 0.000000 0.570000 -0.937500
v 0.000000 0.570000 -1.125000
v 0.000000 0.630000 -1.125000
v 0.000000 0.630000 -1.875000
v 0.000000 0.570000 -1.875000
v 0.000000 0.570000 -2.062500
v 0.000000 0.630000 -2.062500
v 0.000000 0.630000 -3.000000
v 3.000000 0.000000 -3.000000
v 3.000000 0.630000 -3.000000
v 0.937500 0.630000 -3.000000
v 0.937500 0.570000 -3.000000
v 1.125000 0.570000 -3.000000
v 1.125000 0.630000 -3.000000
v 1.875000 0.630000 -3.000000
v 1.875000 0.570000 -3.000000
v 2.062500 0.570000 -3.000000
v 2.062500 0.630000 -3.000000
v 3.000000 0.630000 -2.062500
v 3.000000 0.570000 -2.062500
v 3.000000 0.570000 -1.875000
v 3.000000 0.630000 -1.875000
v 3.000000 0.630000 -1.125000
v 3.000000 0.570000 -1.125000
v 3.000000 0.570000 -0.937500
v 3.000000 0.630000 -0.937500
v 2.062500 0.630000 -2.062500
v 2.062500 0.570000 -2.062500
v 2.062500 0.570000 -0.937500
v 1.875000 0.570000 -1.125000
v 1.875000 0.570000 -0.937500
v 1.125000 0.570000 -1.125000
v 1.125000 0.570000 -0.937500
v 1.125000 0.570000 -1.875000
v 1.125000 0.630000 -1.125000
v 1.125000 0.630000 -1.875000
v 1.875000 0.630000 -1.125000
v 1.875000 0.630000 -1.875000
v 1.875000 0.570000 -1.875000
v 1.875000 0.570000 -2.062500
v 1.125000 0.570000 -2.062500
v 1.125000 0.630000 -2.062500
v 1.875000 0.630000 -2.062500
v 0.937500 0.570000 -1.125000
v 0.937500 0.570000 -0.937500
v 0.937500 0.630000 -1.125000
v 0.937500 0.630000 -1.875000
v 0.937500 0.570000 -1.875000
v 0.937500 0.570000 -2.062500
v 0.937500 0.630000 -2.062500
v 1.125000 0.630000 -0.937500
v 1.875000 0.630000 -0.937500
v 2.062500 0.630000 -0.937500
v 2.062500 0.570000 -1.125000
v 2.062500 0.570000 -1.875000
v 2.062500 0.630000 -1.125000
v 2.062500 0.630000 -1.875000
vt 0.000000 0.630000
vt 0.000000 0.000000
vt 0.937500 0.570000
vt 0.937500 0.630000
vt 3.000000 0.000000
vt 1.125000 0.570000
vt -3.000000 0.000000
vt -1.875000 0.570000
vt -3.000000 0.630000
vt -2.062500 0.570000
vt -2.062500 0.630000
vt 1.125000 1.125000
vt 1.875000 1.125000
vt 1.875000 1.875000
vt 1.125000 1.875000
vt 1.125000 2.062500
vt 1.875000 2.062500
vt 1.875000 3.000000
vt 1.125000 3.000000
vt 0.000000 1.125000
vt 0.937500 1.125000
vt 0.937500 1.875000
vt 0.000000 1.875000
vt 0.937500 0.000000
vt 0.937500 0.937500
vt 0.000000 0.937500
vt 0.000000 2.062500
vt 0.937500 2.062500
vt 0.937500 3.000000
vt 0.000000 3.000000
vt 1.125000 0.000000
vt 1.875000 0.000000
vt 1.875000 0.937500
vt 1.125000 0.937500
vt 3.000000 0.937500
vt 2.062500 0.937500
vt 2.062500 -0.000000
vt 3.000000 1.875000
vt 2.062500 1.875000
vt 2.062500 1.125000
vt 3.000000 1.125000
vt 1.875000 0.570000
vt 1.875000 0.630000
vt 1.125000 0.630000
vt 3.000000 0.630000
vt 2.062500 0.630000
vt 2.062500 0.570000
vt -1.125000 0.570000
vt -1.125000 0.630000
vt -1.875000 0.630000
vt -0.937500 0.630000
vt -0.937500 0.570000
vt -3.000000 3.000000
vt 3.000000 3.000000
vt 2.062500 3.000000
vt 2.062500 2.062500
vt 3.000000 2.062500
vt -3.000000 0.570000
vt 3.000000 0.570000
vt -0.000000 0.570000
vn 0.000000 -0.000000 1.000000
vn -1.000000 -0.000000 0.000000
vn 0.000000 0.000000 -1.000000
vn 1.000000 0.000000 0.000000
vn 0.000000 1.000000 0.000000
vn 0.000000 -1.000000 -0.000000
vn -0.545500 0.272800 -0.792400
vn 0.008900 -0.004500 -1.000000
vn 0.220800 0.110500 -0.969000
vn -0.003600 0.001800 -1.000000
vn 0.400000 0.200000 -0.894400
vn -0.611200 0.305500 -0.730200
vn 0.000000 0.999200 -0.039900
vn 0.456900 0.228400 -0.859700
vn 0.213300 0.106700 -0.971100
vn -0.607600 0.303800 -0.733800
vn 0.000000 0.999500 -0.032000
usemtl Stone.191
s 1
f 1/1/1 5/2/1 14/3/1 2/4/1
f 5/2/1 6/5/1 13/6/1
f 15/7/2 5/2/2 20/8/2
f 25/9/3 24/7/3 32/10/3 33/11/3
f 24/7/3 15/2/3 31/8/3
f 6/2/4 24/5/4 39/6/4
f 50/12/5 52/13/5 53/14/5 51/15/5
f 57/16/5 58/17/5 30/18/5 29/19/5
f 18/20/5 61/21/5 62/22/5 19/23/5
f 1/2/5 2/24/5 3/25/5 4/26/5
f 22/27/5 65/28/5 26/29/5 23/30/5
f 12/31/5 11/32/5 67/33/5 66/34/5
f 41/35/5 68/36/5 8/37/5 7/5/5
f 37/38/5 72/39/5 71/40/5 38/41/5
f 10/42/1 11/43/1 12/44/1 13/6/1
f 7/45/1 8/46/1 9/47/1 6/5/1
f 13/6/1 14/3/1 5/2/1
f 21/10/2 22/11/2 23/9/2 15/7/2
f 6/5/1 10/42/1 13/6/1
f 10/42/1 6/5/1 9/47/1
f 17/48/2 18/49/2 19/50/2 20/8/2
f 1/1/2 4/51/2 16/52/2 5/2/2
f 20/8/2 21/10/2 15/7/2
f 6/7/6 5/2/6 15/30/6 24/53/6
f 5/2/2 17/48/2 20/8/2
f 17/48/2 5/2/2 16/52/2
f 28/48/3 29/49/3 30/50/3 31/8/3
f 23/1/3 26/51/3 27/52/3 15/2/3
f 31/8/3 32/10/3 24/7/3
f 40/3/4 41/4/4 7/1/4 6/2/4
f 15/2/3 28/48/3 31/8/3
f 28/48/3 15/2/3 27/52/3
f 36/42/4 37/43/4 38/44/4 39/6/4
f 25/45/4 34/46/4 35/47/4 24/5/4
f 39/6/4 40/3/4 6/2/4
f 25/54/5 33/55/5 42/56/5 34/57/5
f 24/5/4 36/42/4 39/6/4
f 36/42/4 24/5/4 35/47/4
usemtl Grey_Asphalt.018
f 42/11/2 33/9/2 32/58/2 43/10/2
f 50/49/2 51/50/2 49/8/2 47/48/2
f 32/55/5 44/36/7 43/56/8
f 32/55/5 9/37/5 44/36/7
f 45/13/5 9/37/5 32/55/5
f 45/13/5 10/32/5 9/37/5
f 45/13/5 46/33/9 10/32/5
f 56/16/10 49/15/11 54/14/12 55/17/5
f 48/34/7 47/12/13 49/15/11
f 52/43/1 50/44/1 47/6/1 45/42/1
f 53/43/4 52/44/4 45/6/4 54/42/4
f 57/11/2 29/9/2 28/58/2 56/10/2
f 55/17/5 54/14/12 45/13/5
f 43/56/8 70/39/14 36/38/5 35/57/5
f 56/16/10 48/34/7 49/15/11
f 48/34/7 56/16/10 28/19/5
f 58/43/1 57/44/1 56/6/1 55/42/1
f 30/45/4 58/46/4 55/47/4 31/59/4
f 4/1/3 3/51/3 60/52/3 16/60/3
f 55/17/5 32/55/5 31/18/5
f 32/55/5 55/17/5 45/13/5
f 28/19/5 13/31/5 48/34/7
f 59/21/5 13/31/5 28/19/5
f 59/21/5 14/24/5 13/31/5
f 59/21/5 60/25/15 14/24/5
f 47/12/13 48/34/7 46/33/9 45/13/5
f 3/4/4 2/1/4 14/60/4 60/3/4
f 61/4/1 18/1/1 17/60/1 59/3/1
f 62/43/4 61/44/4 59/6/4 63/42/4
f 19/1/3 62/51/3 63/52/3 20/60/3
f 64/28/5 63/22/16 59/21/5
f 65/4/1 22/1/1 21/60/1 64/3/1
f 26/45/4 65/46/4 64/47/4 27/59/4
f 12/1/2 66/51/2 48/52/2 13/60/2
f 64/28/5 28/19/5 27/29/5
f 28/19/5 64/28/5 59/21/5
f 67/4/4 11/1/4 10/60/4 46/3/4
f 66/49/3 67/50/3 46/8/3 48/48/3
f 51/49/3 53/50/3 54/8/3 49/48/3
f 8/1/2 68/51/2 44/52/2 9/60/2
f 68/11/3 41/9/3 40/58/3 44/10/3
f 71/49/2 72/50/2 70/8/2 69/48/2
f 17/20/5 16/26/5 60/25/15 59/21/5
f 44/36/7 69/40/17 70/39/14
f 72/11/3 37/9/3 36/58/3 70/10/3
f 34/45/1 42/46/1 43/47/1 35/59/1
f 21/27/5 20/23/5 63/22/16 64/28/5
f 70/39/14 43/56/8 44/36/7
f 38/45/1 71/46/1 69/47/1 39/59/1
f 40/35/5 39/41/5 69/40/17 44/36/7
