# Blender v2.75 (sub 0) OBJ File: ''
# www.blender.org
mtllib roadTile_235.mtl
o Mesh1_Group1_Model.181
v 3.000000 0.000000 -0.750000
v 3.000000 0.000000 -2.250000
v 3.000000 0.455000 -2.250000
v 3.000000 0.455000 -0.750000
v 2.625000 0.000000 -3.000000
v 3.000000 0.000000 -3.000000
v 3.000000 0.000000 -2.625000
v 3.000000 0.000000 -0.375000
v 3.000000 0.000000 -0.000000
v 0.000000 0.000000 0.000000
v 0.000000 0.000000 -3.000000
v 0.375000 0.000000 -3.000000
v 0.750000 0.000000 -3.000000
v 2.250000 0.000000 -3.000000
v 2.625000 0.550000 -3.000000
v 3.000000 0.550000 -3.000000
v 2.625000 0.630000 -3.000000
v 2.250000 0.455000 -3.000000
v 2.250000 0.630000 -3.000000
v 2.628210 0.550000 -2.951050
v 2.628210 0.630000 -2.951050
v 2.637780 0.550000 -2.902940
v 2.653550 0.550000 -2.856490
v 2.675240 0.550000 -2.812500
v 2.702490 0.550000 -2.771710
v 2.734830 0.550000 -2.734830
v 2.771710 0.550000 -2.702490
v 2.812500 0.550000 -2.675240
v 2.856490 0.550000 -2.653550
v 2.902940 0.550000 -2.637780
v 2.951050 0.550000 -2.628210
v 3.000000 0.550000 -2.625000
v 2.637780 0.630000 -2.902940
v 3.000000 0.630000 -2.250000
v 3.000000 0.630000 -2.625000
v 2.951050 0.630000 -2.628210
v 2.902940 0.630000 -2.637780
v 2.856490 0.630000 -2.653550
v 2.812500 0.630000 -2.675240
v 2.771710 0.630000 -2.702490
v 2.734830 0.630000 -2.734830
v 2.702490 0.630000 -2.771710
v 2.675240 0.630000 -2.812500
v 2.653550 0.630000 -2.856490
v 2.259150 0.630000 -2.903140
v 2.280370 0.630000 -2.808190
v 2.313320 0.630000 -2.716650
v 2.357480 0.630000 -2.629960
v 2.412170 0.630000 -2.549490
v 2.476510 0.630000 -2.476510
v 2.549490 0.630000 -2.412170
v 2.629960 0.630000 -2.357480
v 2.716650 0.630000 -2.313320
v 2.808190 0.630000 -2.280370
v 2.903140 0.630000 -2.259150
v 2.903140 0.455000 -2.259150
v 2.808190 0.455000 -2.280370
v 2.716650 0.455000 -2.313320
v 2.629960 0.455000 -2.357480
v 2.549490 0.455000 -2.412170
v 2.476510 0.455000 -2.476510
v 2.412170 0.455000 -2.549490
v 2.357480 0.455000 -2.629960
v 2.313320 0.455000 -2.716650
v 2.280370 0.455000 -2.808190
v 2.259150 0.455000 -2.903140
v 0.750000 0.455000 -3.000000
v 0.756827 0.455000 -2.701910
v 0.804783 0.455000 -2.407630
v 0.892946 0.455000 -2.122790
v 1.019630 0.455000 -1.852870
v 1.182390 0.455000 -1.603050
v 1.378120 0.455000 -1.378120
v 1.603050 0.455000 -1.182390
v 1.852870 0.455000 -1.019630
v 2.122790 0.455000 -0.892946
v 2.407630 0.455000 -0.804783
v 2.701910 0.455000 -0.756827
v 0.375000 0.550000 -3.000000
v 0.375000 0.630000 -3.000000
v 0.750000 0.630000 -3.000000
v 0.000000 0.550000 -3.000000
v 3.000000 0.550000 0.000000
v 3.000000 0.550000 -0.375000
v 2.657370 0.550000 -0.397457
v 2.320600 0.550000 -0.464445
v 1.995460 0.550000 -0.574816
v 1.687500 0.550000 -0.726683
v 1.402000 0.550000 -0.917447
v 1.143840 0.550000 -1.143840
v 0.917447 0.550000 -1.402000
v 0.726683 0.550000 -1.687500
v 0.574816 0.550000 -1.995460
v 0.464445 0.550000 -2.320600
v 0.397457 0.550000 -2.657370
v 0.000000 0.550000 0.000000
v 3.000000 0.630000 -0.375000
v 3.000000 0.630000 -0.750000
v 2.657370 0.630000 -0.397457
v 0.397457 0.630000 -2.657370
v 0.464445 0.630000 -2.320600
v 0.574816 0.630000 -1.995460
v 0.726683 0.630000 -1.687500
v 0.917447 0.630000 -1.402000
v 1.143840 0.630000 -1.143840
v 1.402000 0.630000 -0.917447
v 1.687500 0.630000 -0.726683
v 1.995460 0.630000 -0.574816
v 2.320600 0.630000 -0.464445
v 2.701910 0.630000 -0.756827
v 2.407630 0.630000 -0.804783
v 2.122790 0.630000 -0.892946
v 1.852870 0.630000 -1.019630
v 1.603050 0.630000 -1.182390
v 1.378120 0.630000 -1.378120
v 1.182390 0.630000 -1.603050
v 1.019630 0.630000 -1.852870
v 0.892946 0.630000 -2.122790
v 0.804783 0.630000 -2.407630
v 0.756827 0.630000 -2.701910
vt 2.903140 2.259150
vt 2.701910 0.756827
vt 3.000000 0.750000
vt 3.000000 2.250000
vt 0.756827 2.701910
vt 2.259150 2.903140
vt 2.250000 3.000000
vt 0.750000 3.000000
vt 2.808190 2.280370
vt 2.407630 0.804783
vt 2.716650 2.313320
vt 2.122790 0.892946
vt 0.804783 2.407630
vt 2.280370 2.808190
vt 2.629960 2.357480
vt 1.852870 1.019630
vt 2.549490 2.412170
vt 1.603050 1.182390
vt 0.892946 2.122790
vt 2.313320 2.716650
vt 2.476510 2.476510
vt 1.378120 1.378120
vt 2.357480 2.629960
vt 1.019630 1.852870
vt 2.412170 2.549490
vt 1.182390 1.603050
vt -2.250000 0.000000
vt -0.750000 0.000000
vt -0.750000 0.455000
vt -2.250000 0.455000
vt 0.750000 0.000000
vt 2.250000 0.000000
vt 2.250000 0.455000
vt 0.750000 0.455000
vt -2.250000 0.630000
vt -2.625000 0.630000
vt -2.625000 0.550000
vt 2.332560 0.550000
vt 2.381610 0.550000
vt 2.381610 0.630000
vt 2.332560 0.630000
vt 3.000000 2.625000
vt 2.951050 2.628210
vt -2.821890 0.550000
vt -2.772840 0.550000
vt -2.772840 0.630000
vt -2.821890 0.630000
vt -2.381610 0.550000
vt -2.332560 0.550000
vt -2.332560 0.630000
vt -2.381610 0.630000
vt -1.901000 0.550000
vt -1.851950 0.550000
vt -1.851950 0.630000
vt -1.901000 0.630000
vt -1.388280 0.550000
vt -1.339230 0.550000
vt -1.339230 0.630000
vt -1.388280 0.630000
vt -0.852224 0.550000
vt -0.803172 0.550000
vt -0.803172 0.630000
vt -0.852224 0.630000
vt -0.302008 0.550000
vt -0.252956 0.550000
vt -0.252956 0.630000
vt -0.302008 0.630000
vt 0.252956 0.550000
vt 0.302008 0.550000
vt 0.302008 0.630000
vt 0.252956 0.630000
vt 0.803172 0.550000
vt 0.852224 0.550000
vt 0.852224 0.630000
vt 0.803172 0.630000
vt 1.339230 0.550000
vt 1.388280 0.550000
vt 1.388280 0.630000
vt 1.339230 0.630000
vt 1.851950 0.550000
vt 1.901000 0.550000
vt 1.901000 0.630000
vt 1.851950 0.630000
vt 2.677860 0.630000
vt 2.677860 0.455000
vt 2.775150 0.455000
vt 2.775150 0.630000
vt 2.243300 0.630000
vt 2.243300 0.455000
vt 2.340590 0.455000
vt 2.340590 0.630000
vt 1.772590 0.630000
vt 1.772590 0.455000
vt 1.869890 0.455000
vt 1.869890 0.630000
vt 1.273160 0.630000
vt 1.273160 0.455000
vt 1.370450 0.455000
vt 1.370450 0.630000
vt 0.752869 0.630000
vt 0.752869 0.455000
vt 0.850161 0.455000
vt 0.850161 0.630000
vt 0.219938 0.630000
vt 0.219938 0.455000
vt 0.317230 0.455000
vt 0.317230 0.630000
vt -0.317230 0.630000
vt -0.317230 0.455000
vt -0.219938 0.455000
vt -0.219938 0.630000
vt -0.850161 0.630000
vt -0.850161 0.455000
vt -0.752869 0.455000
vt -0.752869 0.630000
vt -1.370450 0.630000
vt -1.370450 0.455000
vt -1.273160 0.455000
vt -1.273160 0.630000
vt -1.869890 0.630000
vt -1.869890 0.455000
vt -1.772590 0.455000
vt -1.772590 0.630000
vt -2.340590 0.630000
vt -2.340590 0.455000
vt -2.243300 0.455000
vt -2.243300 0.630000
vt -2.775150 0.630000
vt -2.775150 0.455000
vt -2.677860 0.455000
vt -2.677860 0.630000
vt -0.375000 0.000000
vt -0.375000 0.550000
vt 0.375000 0.550000
vt 0.750000 0.630000
vt 0.375000 0.630000
vt 2.657370 0.397457
vt 3.000000 0.375000
vt -2.528770 0.550000
vt -2.185400 0.550000
vt -2.185400 0.630000
vt -2.528770 0.630000
vt -2.048160 0.550000
vt -1.704790 0.550000
vt -1.704790 0.630000
vt -2.048160 0.630000
vt -1.535440 0.550000
vt -1.192070 0.550000
vt -1.192070 0.630000
vt -1.535440 0.630000
vt -0.999381 0.550000
vt -0.656015 0.550000
vt -0.656015 0.630000
vt -0.999381 0.630000
vt -0.449165 0.550000
vt -0.105799 0.550000
vt -0.105799 0.630000
vt -0.449165 0.630000
vt 0.105799 0.550000
vt 0.449165 0.550000
vt 0.449165 0.630000
vt 0.105799 0.630000
vt 0.656015 0.550000
vt 0.999381 0.550000
vt 0.999381 0.630000
vt 0.656015 0.630000
vt 1.192070 0.550000
vt 1.535440 0.550000
vt 1.535440 0.630000
vt 1.192070 0.630000
vt 1.704790 0.550000
vt 2.048160 0.550000
vt 2.048160 0.630000
vt 1.704790 0.630000
vt 2.185400 0.550000
vt 2.528770 0.550000
vt 2.528770 0.630000
vt 2.185400 0.630000
vt -2.982040 0.455000
vt -2.683870 0.455000
vt -2.683870 0.630000
vt -2.982040 0.630000
vt -2.545010 0.455000
vt -2.246840 0.455000
vt -2.246840 0.630000
vt -2.545010 0.630000
vt -2.062010 0.455000
vt -1.763840 0.455000
vt -1.763840 0.630000
vt -2.062010 0.630000
vt -1.542300 0.455000
vt -1.244130 0.455000
vt -1.244130 0.630000
vt -1.542300 0.630000
vt -0.995851 0.455000
vt -0.697684 0.455000
vt -0.697684 0.630000
vt -0.995851 0.630000
vt -0.433156 0.455000
vt -0.134989 0.455000
vt -0.134989 0.630000
vt -0.433156 0.630000
vt 0.134989 0.455000
vt 0.433156 0.455000
vt 0.433156 0.630000
vt 0.134989 0.630000
vt 0.697684 0.455000
vt 0.995851 0.455000
vt 0.995851 0.630000
vt 0.697684 0.630000
vt 1.244130 0.455000
vt 1.542300 0.455000
vt 1.542300 0.630000
vt 1.244130 0.630000
vt 1.763840 0.455000
vt 2.062010 0.455000
vt 2.062010 0.630000
vt 1.763840 0.630000
vt 2.246840 0.455000
vt 2.545010 0.455000
vt 2.545010 0.630000
vt 2.246840 0.630000
vt 2.683870 0.455000
vt 2.982040 0.455000
vt 2.982040 0.630000
vt 2.683870 0.630000
vt -2.625000 0.000000
vt 2.772840 0.550000
vt 2.821890 0.550000
vt 2.821890 0.630000
vt 2.772840 0.630000
vt 2.902940 2.637780
vt 2.856490 2.653550
vt 2.812500 2.675240
vt 2.771710 2.702490
vt 2.734830 2.734830
vt 2.702490 2.771710
vt 2.675240 2.812500
vt 2.653550 2.856490
vt 2.637780 2.902940
vt 2.628210 2.951050
vt 2.625000 3.000000
vt 2.625000 0.000000
vt 2.625000 0.550000
vt 2.625000 0.630000
vt 2.250000 0.630000
vt -0.375000 0.630000
vt -0.750000 0.630000
vt 0.375000 0.000000
vt 2.625680 0.550000
vt 2.969050 0.550000
vt 2.969050 0.630000
vt 2.625680 0.630000
vt 0.397457 2.657370
vt 0.375000 3.000000
vt 2.320600 0.464445
vt 1.995460 0.574816
vt 0.464445 2.320600
vt 1.687500 0.726683
vt 0.574816 1.995460
vt 1.402000 0.917447
vt 0.726683 1.687500
vt 1.143840 1.143840
vt 0.917447 1.402000
vt -2.969050 0.550000
vt -2.625680 0.550000
vt -2.625680 0.630000
vt -2.969050 0.630000
vt -3.000000 0.750000
vt -0.000000 -0.000000
vt -0.750000 3.000000
vt -2.250000 3.000000
vt 3.000000 3.000000
vt 0.000000 0.550000
vt 3.000000 0.000000
vt 3.000000 0.550000
vt -3.000000 0.000000
vt -3.000000 0.550000
vt -3.000000 2.250000
vt -2.625000 3.000000
vt -0.375000 3.000000
vt -0.000000 3.000000
vt -3.000000 0.375000
vt -3.000000 3.000000
vt -3.000000 2.625000
vn -0.000000 1.000000 0.000000
vn -0.000000 0.000000 -1.000000
vn 1.000000 0.000000 0.000000
vn 0.965900 0.000000 -0.258800
vn 0.991400 0.000000 -0.130500
vn 0.065400 0.000000 -0.997900
vn 0.130500 0.000000 -0.991400
vn 0.258800 0.000000 -0.965900
vn 0.382700 0.000000 -0.923900
vn 0.499900 0.000000 -0.866100
vn 0.608700 0.000000 -0.793400
vn 0.707100 0.000000 -0.707100
vn 0.793400 0.000000 -0.608700
vn 0.866100 0.000000 -0.499900
vn 0.923900 0.000000 -0.382700
vn -0.156400 0.000000 0.987700
vn -0.094000 0.000000 0.995600
vn -0.278900 0.000000 0.960300
vn -0.397100 0.000000 0.917800
vn -0.509000 0.000000 0.860800
vn -0.612900 0.000000 0.790100
vn -0.707100 0.000000 0.707100
vn -0.790100 0.000000 0.612900
vn -0.860800 0.000000 0.509000
vn -0.917800 0.000000 0.397100
vn -0.960300 0.000000 0.278900
vn -0.987700 0.000000 0.156400
vn -0.995600 0.000000 0.094000
vn -0.991400 0.000000 0.130500
vn -0.965900 0.000000 0.258800
vn -0.923900 0.000000 0.382700
vn -0.866000 0.000000 0.500000
vn -0.793400 0.000000 0.608800
vn -0.608800 0.000000 0.793400
vn -0.500000 0.000000 0.866000
vn -0.382700 0.000000 0.923900
vn -0.258800 0.000000 0.965900
vn -0.130500 0.000000 0.991400
vn 0.022900 0.000000 -0.999700
vn 0.092100 0.000000 -0.995800
vn 0.228800 0.000000 -0.973500
vn 0.361100 0.000000 -0.932500
vn 0.486500 0.000000 -0.873700
vn 0.602600 0.000000 -0.798000
vn 0.798000 0.000000 -0.602600
vn 0.873700 0.000000 -0.486500
vn 0.932500 0.000000 -0.361100
vn 0.973500 0.000000 -0.228800
vn 0.995800 0.000000 -0.092100
vn 0.999700 0.000000 -0.022900
vn 0.997900 0.000000 -0.065400
vn -0.065400 0.000000 0.997900
vn -0.997900 0.000000 0.065400
vn 0.000000 -1.000000 -0.000000
vn 0.000000 -0.000000 1.000000
vn -1.000000 0.000000 0.000000
usemtl Water.024
s 1
f 56/1/1 78/2/1 4/3/1 3/4/1
f 68/5/1 66/6/1 18/7/1 67/8/1
f 57/9/1 77/10/1 78/2/1 56/1/1
f 58/11/1 76/12/1 77/10/1 57/9/1
f 68/5/1 69/13/1 65/14/1 66/6/1
f 59/15/1 75/16/1 76/12/1 58/11/1
f 60/17/1 74/18/1 75/16/1 59/15/1
f 69/13/1 70/19/1 64/20/1 65/14/1
f 61/21/1 73/22/1 74/18/1 60/17/1
f 63/23/1 64/20/1 70/19/1 71/24/1
f 62/25/1 63/23/1 71/24/1 72/26/1
f 61/21/1 62/25/1 72/26/1 73/22/1
f 14/27/2 13/28/2 67/29/2 18/30/2
f 1/31/3 2/32/3 3/33/3 4/34/3
usemtl Stone.154
f 18/30/2 19/35/2 17/36/2 15/37/2
f 22/38/4 20/39/5 21/40/5 33/41/4
f 35/42/1 36/43/1 55/1/1 34/4/1
f 32/44/6 31/45/7 36/46/7 35/47/6
f 31/48/7 30/49/8 37/50/8 36/51/7
f 30/52/8 29/53/9 38/54/9 37/55/8
f 29/56/9 28/57/10 39/58/10 38/59/9
f 28/60/10 27/61/11 40/62/11 39/63/10
f 27/64/11 26/65/12 41/66/12 40/67/11
f 26/68/12 25/69/13 42/70/13 41/71/12
f 25/72/13 24/73/14 43/74/14 42/75/13
f 24/76/14 23/77/15 44/78/15 43/79/14
f 23/80/15 22/81/4 33/82/4 44/83/15
f 55/84/16 56/85/16 3/86/17 34/87/17
f 54/88/18 57/89/18 56/90/16 55/91/16
f 53/92/19 58/93/19 57/94/18 54/95/18
f 52/96/20 59/97/20 58/98/19 53/99/19
f 51/100/21 60/101/21 59/102/20 52/103/20
f 50/104/22 61/105/22 60/106/21 51/107/21
f 49/108/23 62/109/23 61/110/22 50/111/22
f 48/112/24 63/113/24 62/114/23 49/115/23
f 47/116/25 64/117/25 63/118/24 48/119/24
f 46/120/26 65/121/26 64/122/25 47/123/25
f 45/124/27 66/125/27 65/126/26 46/127/26
f 19/128/28 18/129/28 66/130/27 45/131/27
f 12/132/2 79/133/2 67/29/2 13/28/2
f 84/134/3 4/34/3 98/135/3 97/136/3
f 99/137/1 97/138/1 98/3/1 110/2/1
f 95/139/29 94/140/30 101/141/30 100/142/29
f 94/143/30 93/144/31 102/145/31 101/146/30
f 93/147/31 92/148/32 103/149/32 102/150/31
f 92/151/32 91/152/33 104/153/33 103/154/32
f 91/155/33 90/156/22 105/157/22 104/158/33
f 90/159/22 89/160/34 106/161/34 105/162/22
f 89/163/34 88/164/35 107/165/35 106/166/34
f 88/167/35 87/168/36 108/169/36 107/170/35
f 87/171/36 86/172/37 109/173/37 108/174/36
f 86/175/37 85/176/38 99/177/38 109/178/37
f 4/179/39 78/180/40 110/181/40 98/182/39
f 78/183/40 77/184/41 111/185/41 110/186/40
f 77/187/41 76/188/42 112/189/42 111/190/41
f 76/191/42 75/192/43 113/193/43 112/194/42
f 75/195/43 74/196/44 114/197/44 113/198/43
f 74/199/44 73/200/12 115/201/12 114/202/44
f 73/203/12 72/204/45 116/205/45 115/206/12
f 72/207/45 71/208/46 117/209/46 116/210/45
f 71/211/46 70/212/47 118/213/47 117/214/46
f 70/215/47 69/216/48 119/217/48 118/218/47
f 69/219/48 68/220/49 120/221/49 119/222/48
f 68/223/49 67/224/50 81/225/50 120/226/49
f 15/37/2 5/227/2 14/27/2 18/30/2
f 20/228/5 15/229/51 17/230/51 21/231/5
f 37/232/1 38/233/1 53/11/1 54/9/1
f 39/234/1 40/235/1 51/17/1 52/15/1
f 49/25/1 50/21/1 41/236/1 42/237/1
f 49/25/1 42/237/1 43/238/1 48/23/1
f 47/20/1 44/239/1 33/240/1 46/14/1
f 45/6/1 21/241/1 17/242/1 19/7/1
f 54/9/1 55/1/1 36/43/1 37/232/1
f 46/14/1 33/240/1 21/241/1 45/6/1
f 52/15/1 53/11/1 38/233/1 39/234/1
f 43/238/1 44/239/1 47/20/1 48/23/1
f 50/21/1 51/17/1 40/235/1 41/236/1
f 7/243/3 32/244/3 3/33/3 2/32/3
f 3/33/3 32/244/3 35/245/3 34/246/3
f 67/29/2 79/133/2 80/247/2 81/248/2
f 4/34/3 84/134/3 8/249/3 1/31/3
f 85/250/38 84/251/52 97/252/52 99/253/38
f 100/254/1 120/5/1 81/8/1 80/255/1
f 109/256/1 99/137/1 110/2/1 111/10/1
f 112/12/1 108/257/1 109/256/1 111/10/1
f 100/254/1 101/258/1 119/13/1 120/5/1
f 107/259/1 108/257/1 112/12/1 113/16/1
f 101/258/1 102/260/1 118/19/1 119/13/1
f 106/261/1 107/259/1 113/16/1 114/18/1
f 117/24/1 118/19/1 102/260/1 103/262/1
f 105/263/1 106/261/1 114/18/1 115/22/1
f 104/264/1 116/26/1 117/24/1 103/262/1
f 116/26/1 104/264/1 105/263/1 115/22/1
f 79/265/53 95/266/29 100/267/29 80/268/53
usemtl Grass.073
f 1/269/54 10/270/54 13/271/54 14/272/54
f 16/273/1 25/237/1 26/236/1
f 9/270/3 8/249/3 84/134/3 83/274/3
f 89/261/1 90/263/1 96/270/1
f 10/270/55 9/275/55 83/276/55 96/274/55
f 11/277/56 10/270/56 96/274/56 82/278/56
f 2/279/54 14/272/54 5/280/54
f 10/270/54 12/281/54 13/271/54
f 12/281/54 10/270/54 11/282/54
f 10/270/54 8/283/54 9/277/54
f 14/272/54 2/279/54 1/269/54
f 5/280/54 6/284/54 7/285/54
f 6/277/2 5/227/2 15/37/2 16/278/2
f 1/269/54 8/283/54 10/270/54
f 5/280/54 7/285/54 2/279/54
f 31/43/1 32/42/1 16/273/1
f 16/273/1 30/232/1 31/43/1
f 16/273/1 28/234/1 29/233/1
f 16/273/1 26/236/1 27/235/1
f 16/273/1 24/238/1 25/237/1
f 16/273/1 22/240/1 23/239/1
f 16/273/1 15/242/1 20/241/1
f 29/233/1 30/232/1 16/273/1
f 16/273/1 27/235/1 28/234/1
f 16/273/1 23/239/1 24/238/1
f 22/240/1 16/273/1 20/241/1
f 16/276/3 32/244/3 7/243/3 6/275/3
f 82/274/2 79/133/2 12/132/2 11/270/2
f 94/258/1 82/282/1 96/270/1
f 85/137/1 83/275/1 84/138/1
f 95/254/1 79/255/1 82/282/1
f 86/256/1 83/275/1 85/137/1
f 94/258/1 95/254/1 82/282/1
f 96/270/1 83/275/1 86/256/1
f 93/260/1 94/258/1 96/270/1
f 96/270/1 86/256/1 87/257/1
f 92/262/1 93/260/1 96/270/1
f 96/270/1 87/257/1 88/259/1
f 91/264/1 92/262/1 96/270/1
f 96/270/1 88/259/1 89/261/1
f 90/263/1 91/264/1 96/270/1
