# Blender v2.75 (sub 0) OBJ File: ''
# www.blender.org
mtllib roadTile_118.mtl
o Mesh1_Group1_Model.126
v 2.625000 0.600000 0.000000
v 2.625000 0.600000 -3.000000
v 0.375000 0.600000 -3.000000
v 0.375000 0.600000 0.000000
v 2.625000 0.300000 0.000000
v 2.625000 0.300000 -3.000000
v 0.375000 0.300000 0.000000
v 0.000000 1.730000 0.000000
v 0.000000 0.000000 -0.000000
v 2.625000 0.000000 0.000000
v 0.375000 1.730000 0.000000
v 0.000000 0.630000 -3.000000
v 0.000000 0.000000 -3.000000
v 0.375000 0.630000 -3.000000
v 0.375000 0.300000 -3.000000
v 2.625000 0.000000 -3.000000
vt -0.000000 1.730000
vt -3.000000 0.630000
vt -3.000000 0.000000
vt -0.000000 0.000000
vt 0.375000 0.600000
vt 0.375000 0.300000
vt 0.000000 -2.599750
vt -0.000000 0.595561
vt -0.375000 0.595561
vt -0.375000 -2.599750
vt 3.000000 0.600000
vt 3.000000 0.630000
vt 0.000000 0.600000
vt -0.375000 0.300000
vt 0.000000 0.630000
vt -0.375000 0.600000
vt 3.000000 0.000000
vt 3.000000 0.300000
vt 0.000000 0.300000
vt -0.000000 3.000000
vt -2.625000 3.000000
vt -2.625000 -0.000000
vt 0.375000 1.730000
vt 2.625000 0.000000
vt 2.625000 0.300000
vt -0.375000 0.630000
vt -2.625000 0.300000
vt 2.625000 0.600000
vt -2.625000 0.600000
vt 2.625000 3.000000
vt 0.375000 3.000000
vt 0.375000 0.000000
vn -1.000000 0.000000 -0.000000
vn -0.000000 -0.000000 1.000000
vn 0.000000 0.938900 -0.344300
vn 1.000000 0.000000 0.000000
vn 0.000000 0.000000 -1.000000
vn -0.000000 -1.000000 -0.000000
vn 0.000000 1.000000 0.000000
usemtl Stone
s 1
f 8/1/1 12/2/1 13/3/1 9/4/1
f 4/5/2 9/4/2 7/6/2
f 12/7/3 8/8/3 11/9/3 14/10/3
f 3/11/4 14/12/4 11/1/4 4/13/4
f 15/14/5 13/4/5 12/15/5 3/16/5
f 16/17/4 6/18/4 5/19/4 10/4/4
f 9/4/6 13/20/6 16/21/6 10/22/6
f 4/5/2 11/23/2 8/1/2
f 10/24/2 5/25/2 7/6/2
f 9/4/2 4/5/2 8/1/2
f 9/4/2 10/24/2 7/6/2
f 15/14/5 16/22/5 13/4/5
f 3/16/5 12/15/5 14/26/5
f 15/14/5 6/27/5 16/22/5
usemtl Asphalt
f 1/13/4 5/19/4 6/18/4 2/11/4
f 4/5/2 7/6/2 5/25/2 1/28/2
f 2/29/5 6/27/5 15/14/5 3/16/5
f 1/24/7 2/30/7 3/31/7 4/32/7
