# Blender v2.75 (sub 0) OBJ File: ''
# www.blender.org
mtllib roadTile_228.mtl
o Mesh1_Group1_Model.060
v 3.000000 1.260000 0.000000
v 0.000000 1.260000 0.000000
v 0.000000 0.000000 0.000000
v 3.000000 0.000000 -0.000000
v 0.000000 1.260000 -0.375000
v 3.000000 1.260000 -0.375000
v 0.000000 0.000000 -2.250000
v 0.000000 0.600000 -0.375000
v 0.000000 0.300000 -0.375000
v 0.000000 0.300000 -1.875000
v 0.000000 0.600000 -1.875000
v 0.000000 1.260000 -1.875000
v 0.000000 1.260000 -2.250000
v 3.000000 0.000000 -2.250000
v 3.000000 1.260000 -2.250000
v 3.000000 1.260000 -1.875000
v 3.000000 0.600000 -1.875000
v 3.000000 0.300000 -1.875000
v 3.000000 0.300000 -0.375000
v 3.000000 0.600000 -0.375000
vt 0.000000 0.375000
vt 0.000000 0.000000
vt 3.000000 0.000000
vt 3.000000 0.375000
vt -3.000000 2.250000
vt -3.000000 0.000000
vt -0.000000 2.250000
vt -2.250000 0.000000
vt -0.375000 0.300000
vt -0.000000 1.260000
vt -3.000000 1.260000
vt 2.250000 0.000000
vt 1.875000 0.300000
vt 3.000000 1.875000
vt 3.000000 2.250000
vt 0.000000 1.875000
vt 0.000000 0.600000
vt 3.000000 0.600000
vt 3.000000 1.260000
vt -3.000000 0.600000
vt -1.875000 0.600000
vt -2.250000 1.260000
vt -1.875000 1.260000
vt -0.375000 0.600000
vt -1.875000 0.300000
vt -0.375000 1.260000
vt 0.375000 0.600000
vt 0.375000 1.260000
vt 1.875000 0.600000
vt 0.375000 0.300000
vt 2.250000 1.260000
vt 1.875000 1.260000
vn 0.000000 1.000000 0.000000
vn 0.000000 -1.000000 -0.000000
vn -1.000000 -0.000000 -0.000000
vn 0.000000 0.000000 -1.000000
vn 1.000000 -0.000000 0.000000
vn 0.000000 0.000000 1.000000
usemtl Stone
s 1
f 5/1/1 2/2/1 1/3/1 6/4/1
f 14/5/2 4/6/2 3/2/2 7/7/2
f 7/8/3 3/2/3 9/9/3
f 13/10/4 15/11/4 14/6/4 7/2/4
f 4/2/5 14/12/5 18/13/5
f 16/14/1 15/15/1 13/7/1 12/16/1
f 11/17/6 17/18/6 16/19/6 12/10/6
f 20/20/4 8/17/4 5/10/4 6/11/4
f 11/21/3 13/22/3 7/8/3
f 13/22/3 11/21/3 12/23/3
f 3/2/3 8/24/3 9/9/3
f 10/25/3 11/21/3 7/8/3
f 2/10/3 5/26/3 8/24/3
f 9/9/3 10/25/3 7/8/3
f 3/2/3 2/10/3 8/24/3
f 20/27/5 1/10/5 4/2/5
f 1/10/5 20/27/5 6/28/5
f 14/12/5 17/29/5 18/13/5
f 19/30/5 20/27/5 4/2/5
f 15/31/5 16/32/5 17/29/5
f 18/13/5 19/30/5 4/2/5
f 14/12/5 15/31/5 17/29/5
f 1/19/6 2/10/6 3/2/6 4/3/6
usemtl Asphalt
f 17/14/1 11/16/1 8/1/1 20/4/1
f 11/21/3 10/25/3 9/9/3 8/24/3
f 20/27/5 19/30/5 18/13/5 17/29/5
