# Blender v2.75 (sub 0) OBJ File: ''
# www.blender.org
mtllib roadTile_257.mtl
o Mesh1_Group1_Model.061
v 3.000000 0.600000 -2.250000
v 0.000000 0.600000 -2.250000
v 0.000000 0.600000 -0.750000
v 3.000000 0.600000 -0.750000
v 3.000000 0.630000 -2.250000
v 1.500000 0.630000 -2.250000
v 0.000000 1.650000 -2.250000
v 3.000000 0.630000 -3.000000
v 1.500000 0.630000 -3.000000
v 0.000000 0.000000 -3.000000
v 0.000000 1.650000 -3.000000
v 3.000000 0.000000 -3.000000
v 0.000000 1.650000 0.000000
v 0.000000 1.650000 -0.750000
v 0.000000 0.300000 -0.750000
v 0.000000 0.300000 -2.250000
v 0.000000 0.000000 0.000000
v 1.500000 0.630000 0.000000
v 1.500000 0.630000 -0.750000
v 3.000000 0.630000 0.000000
v 3.000000 0.000000 -0.000000
v 3.000000 0.630000 -0.750000
v 3.000000 0.300000 -2.250000
v 3.000000 0.300000 -0.750000
vt 3.000000 3.000000
vt 1.500000 3.000000
vt 1.500000 2.250000
vt 3.000000 2.250000
vt 3.000000 0.600000
vt 1.500000 0.630000
vt 0.000000 0.600000
vt -2.250000 0.600000
vt -2.250000 1.650000
vt -3.000000 1.650000
vt -3.000000 0.000000
vt -1.500000 0.630000
vt -3.000000 0.630000
vt -0.750000 0.300000
vt -2.250000 0.300000
vt -0.000000 0.000000
vt 3.000000 0.750000
vt 1.500000 0.750000
vt 1.500000 0.000000
vt 3.000000 0.000000
vt 3.000000 0.630000
vt 2.250000 0.600000
vt 2.250000 0.300000
vt -3.000000 0.600000
vt 3.000000 -0.886134
vt 3.000000 0.927812
vt 2.250000 0.927812
vt 2.250000 -0.886134
vt 0.000000 1.650000
vt -0.750000 1.650000
vt -0.750000 0.600000
vt 0.000000 0.927812
vt -0.000000 -0.886134
vt 0.750000 -0.886134
vt 0.750000 0.927812
vt 0.750000 0.600000
vt 0.750000 0.630000
vt 0.000000 0.630000
vt 0.750000 0.300000
vt -0.000000 3.000000
vt -3.000000 3.000000
vt 2.250000 0.630000
vt 0.000000 2.250000
vt 0.000000 0.750000
vn 0.000000 1.000000 0.000000
vn 0.000000 0.000000 1.000000
vn -1.000000 0.000000 -0.000000
vn 0.000000 0.000000 -1.000000
vn 1.000000 0.000000 0.000000
vn 0.562300 0.826900 0.000000
vn 0.000000 -1.000000 -0.000000
usemtl Stone
s 1
f 8/1/1 9/2/1 6/3/1 5/4/1
f 1/5/2 6/6/2 2/7/2
f 2/8/3 7/9/3 11/10/3 10/11/3
f 12/11/4 9/12/4 8/13/4
f 15/14/3 16/15/3 17/16/3
f 22/17/1 19/18/1 18/19/1 20/20/1
f 21/20/2 18/6/2 17/16/2
f 12/20/5 8/21/5 1/22/5 23/23/5
f 19/12/4 22/13/4 4/24/4
f 21/16/5 12/20/5 23/23/5
f 9/25/6 11/26/6 7/27/6 6/28/6
f 6/6/2 1/5/2 5/21/2
f 6/6/2 7/29/2 2/7/2
f 9/12/4 12/11/4 10/16/4
f 10/16/4 11/29/4 9/12/4
f 17/16/3 13/29/3 14/30/3 3/31/3
f 13/32/6 18/33/6 19/34/6 14/35/6
f 16/15/3 2/8/3 10/11/3
f 17/16/3 3/31/3 15/14/3
f 16/15/3 10/11/3 17/16/3
f 18/6/2 21/20/2 20/21/2
f 18/6/2 13/29/2 17/16/2
f 19/12/4 4/24/4 3/7/4
f 3/7/4 14/29/4 19/12/4
f 4/36/5 22/37/5 20/38/5
f 20/38/5 21/16/5 24/39/5 4/36/5
f 17/16/7 10/40/7 12/41/7 21/11/7
f 8/21/5 5/42/5 1/22/5
f 23/23/5 24/39/5 21/16/5
usemtl Asphalt
f 4/36/5 24/39/5 23/23/5 1/22/5
f 2/8/3 16/15/3 15/14/3 3/31/3
f 1/4/1 2/43/1 3/44/1 4/17/1
