# Blender v2.75 (sub 0) OBJ File: ''
# www.blender.org
mtllib roadTile_044.mtl
o Mesh1_Group1_Model.076
v 3.000000 1.730000 -0.375000
v 3.000000 1.650000 -0.375000
v 3.000000 0.000000 -0.375000
v 3.000000 0.000000 -3.000000
v 3.000000 0.300000 -3.000000
v 3.000000 0.300000 -0.750000
v 3.000000 0.600000 -0.750000
v 3.000000 1.730000 -0.750000
v 2.657370 1.730000 -0.397457
v 2.657370 1.650000 -0.397457
v 0.750000 1.730000 -3.000000
v 0.375000 1.730000 -3.000000
v 0.397457 1.730000 -2.657370
v 0.464445 1.730000 -2.320600
v 0.574816 1.730000 -1.995460
v 0.726683 1.730000 -1.687500
v 0.917447 1.730000 -1.402000
v 1.143840 1.730000 -1.143840
v 1.402000 1.730000 -0.917447
v 1.687500 1.730000 -0.726683
v 1.995460 1.730000 -0.574816
v 2.320600 1.730000 -0.464445
v 2.706320 1.730000 -0.769249
v 2.417660 1.730000 -0.826667
v 2.138960 1.730000 -0.921271
v 1.875000 1.730000 -1.051440
v 1.630290 1.730000 -1.214950
v 1.409010 1.730000 -1.409010
v 1.214950 1.730000 -1.630290
v 1.051440 1.730000 -1.875000
v 0.921271 1.730000 -2.138960
v 0.826667 1.730000 -2.417660
v 0.769249 1.730000 -2.706320
v 0.375000 0.000000 -3.000000
v 0.375000 1.650000 -3.000000
v 0.750000 0.600000 -3.000000
v 0.750000 0.300000 -3.000000
v 0.000000 0.000000 0.000000
v 0.000000 0.000000 -3.000000
v 3.000000 0.000000 -0.000000
v 0.000000 1.650000 -3.000000
v 0.000000 1.650000 0.000000
v 3.000000 1.650000 0.000000
v 2.320600 1.650000 -0.464445
v 1.995460 1.650000 -0.574816
v 1.687500 1.650000 -0.726683
v 1.402000 1.650000 -0.917447
v 1.143840 1.650000 -1.143840
v 0.917447 1.650000 -1.402000
v 0.726683 1.650000 -1.687500
v 0.574816 1.650000 -1.995460
v 0.464445 1.650000 -2.320600
v 0.397457 1.650000 -2.657370
v 0.769249 0.600000 -2.706320
v 3.000000 0.600000 -3.000000
v 0.826667 0.600000 -2.417660
v 0.921271 0.600000 -2.138960
v 1.051440 0.600000 -1.875000
v 1.214950 0.600000 -1.630290
v 1.409010 0.600000 -1.409010
v 1.630290 0.600000 -1.214950
v 1.875000 0.600000 -1.051440
v 2.138960 0.600000 -0.921271
v 2.417660 0.600000 -0.826667
v 2.706320 0.600000 -0.769249
vt 0.750000 0.600000
vt 0.375000 0.000000
vt 0.750000 0.300000
vt 2.657370 0.397457
vt 3.000000 0.375000
vt 3.000000 0.750000
vt 2.706320 0.769249
vt -0.375000 -0.000000
vt -0.375000 1.650000
vt -0.750000 0.600000
vt 2.528770 1.650000
vt 2.528770 1.730000
vt 2.185400 1.730000
vt 2.185400 1.650000
vt 2.048160 1.650000
vt 2.048160 1.730000
vt 1.704790 1.730000
vt 1.704790 1.650000
vt 1.535440 1.650000
vt 1.535440 1.730000
vt 1.192070 1.730000
vt 1.192070 1.650000
vt 0.999381 1.650000
vt 0.999381 1.730000
vt 0.656015 1.730000
vt 0.656015 1.650000
vt 0.449165 1.650000
vt 0.449165 1.730000
vt 0.105799 1.730000
vt 0.105799 1.650000
vt -0.105799 1.650000
vt -0.105799 1.730000
vt -0.449165 1.730000
vt -0.449165 1.650000
vt -0.656015 1.650000
vt -0.656015 1.730000
vt -0.999381 1.730000
vt -0.999381 1.650000
vt -1.192070 1.650000
vt -1.192070 1.730000
vt -1.535440 1.730000
vt -1.535440 1.650000
vt -1.704790 1.650000
vt -1.704790 1.730000
vt -2.048160 1.730000
vt -2.048160 1.650000
vt -2.185400 1.650000
vt -2.185400 1.730000
vt -2.528770 1.730000
vt -2.528770 1.650000
vt -2.625680 1.650000
vt -2.625680 1.730000
vt -2.969050 1.730000
vt -2.969050 1.650000
vt 2.650210 0.600000
vt 2.944520 0.600000
vt 2.944520 1.730000
vt 2.650210 1.730000
vt 2.209930 0.600000
vt 2.504240 0.600000
vt 2.504240 1.730000
vt 2.209930 1.730000
vt 1.729310 0.600000
vt 2.023630 0.600000
vt 2.023630 1.730000
vt 1.729310 1.730000
vt 1.216600 0.600000
vt 1.510910 0.600000
vt 1.510910 1.730000
vt 1.216600 1.730000
vt 0.680541 0.600000
vt 0.974855 0.600000
vt 0.974855 1.730000
vt 0.680541 1.730000
vt 0.130325 0.600000
vt 0.424639 0.600000
vt 0.424639 1.730000
vt 0.130325 1.730000
vt -0.424639 0.600000
vt -0.130325 0.600000
vt -0.130325 1.730000
vt -0.424639 1.730000
vt -0.974855 0.600000
vt -0.680541 0.600000
vt -0.680541 1.730000
vt -0.974855 1.730000
vt -1.510910 0.600000
vt -1.216600 0.600000
vt -1.216600 1.730000
vt -1.510910 1.730000
vt -2.023630 0.600000
vt -1.729310 0.600000
vt -1.729310 1.730000
vt -2.023630 1.730000
vt -2.504240 0.600000
vt -2.209930 0.600000
vt -2.209930 1.730000
vt -2.504240 1.730000
vt -2.944520 0.600000
vt -2.650210 0.600000
vt -2.650210 1.730000
vt -2.944520 1.730000
vt 0.375000 1.650000
vt 0.750000 1.730000
vt 0.375000 1.730000
vt 3.000000 0.000000
vt 3.000000 0.300000
vt 0.397457 2.657370
vt 0.769249 2.706320
vt 0.750000 3.000000
vt 0.375000 3.000000
vt 2.320600 0.464445
vt 2.417660 0.826667
vt 1.995460 0.574816
vt 2.138960 0.921271
vt 0.464445 2.320600
vt 0.826667 2.417660
vt 1.875000 1.051440
vt 1.687500 0.726683
vt 0.574816 1.995460
vt 0.921271 2.138960
vt 1.630290 1.214950
vt 1.402000 0.917447
vt 0.726683 1.687500
vt 1.051440 1.875000
vt 1.409010 1.409010
vt 1.143840 1.143840
vt 0.917447 1.402000
vt 1.214950 1.630290
vt -0.750000 0.300000
vt -3.000000 0.300000
vt -3.000000 -0.000000
vt -0.375000 1.730000
vt -0.750000 1.730000
vt 2.969050 1.650000
vt 2.969050 1.730000
vt 2.625680 1.730000
vt 2.625680 1.650000
vt -0.000000 1.650000
vt -0.000000 -0.000000
vt 3.000000 1.650000
vt -0.375000 3.000000
vt -3.000000 3.000000
vt -3.000000 0.375000
vt -3.000000 1.650000
vt -0.000000 3.000000
vt -3.000000 0.600000
vt 3.000000 3.000000
vt 3.000000 0.600000
vn 1.000000 -0.000000 0.000000
vn 0.000000 1.000000 -0.000000
vn -0.000000 0.000000 -1.000000
vn -0.130500 -0.000000 0.991400
vn -0.258800 -0.000000 0.965900
vn -0.382700 0.000000 0.923900
vn -0.500000 0.000000 0.866000
vn -0.608800 0.000000 0.793400
vn -0.707100 0.000000 0.707100
vn -0.793400 0.000000 0.608800
vn -0.866000 0.000000 0.500000
vn -0.923900 0.000000 0.382700
vn -0.965900 0.000000 0.258800
vn -0.991400 0.000000 0.130500
vn -0.997900 0.000000 0.065400
vn 0.991400 0.000000 -0.130500
vn 0.997900 0.000000 -0.065400
vn 0.965900 0.000000 -0.258800
vn 0.923900 0.000000 -0.382700
vn 0.866000 0.000000 -0.500000
vn 0.793400 0.000000 -0.608800
vn 0.707100 0.000000 -0.707100
vn 0.608800 0.000000 -0.793400
vn 0.500000 0.000000 -0.866000
vn 0.382700 0.000000 -0.923900
vn 0.258800 0.000000 -0.965900
vn 0.130500 0.000000 -0.991400
vn 0.065400 0.000000 -0.997900
vn -0.065400 -0.000000 0.997900
vn 0.000000 -0.000000 1.000000
vn -0.000000 -1.000000 -0.000000
vn -1.000000 0.000000 -0.000000
usemtl Stone
s 1
f 7/1/1 3/2/1 6/3/1
f 9/4/2 1/5/2 8/6/2 23/7/2
f 34/8/3 35/9/3 36/10/3
f 10/11/4 9/12/4 22/13/5 44/14/5
f 44/15/5 22/16/5 21/17/6 45/18/6
f 45/19/6 21/20/6 20/21/7 46/22/7
f 46/23/7 20/24/7 19/25/8 47/26/8
f 47/27/8 19/28/8 18/29/9 48/30/9
f 48/31/9 18/32/9 17/33/10 49/34/10
f 49/35/10 17/36/10 16/37/11 50/38/11
f 50/39/11 16/40/11 15/41/12 51/42/12
f 51/43/12 15/44/12 14/45/13 52/46/13
f 52/47/13 14/48/13 13/49/14 53/50/14
f 53/51/14 13/52/14 12/53/15 35/54/15
f 54/55/16 36/56/17 11/57/17 33/58/16
f 56/59/18 54/60/16 33/61/16 32/62/18
f 57/63/19 56/64/18 32/65/18 31/66/19
f 58/67/20 57/68/19 31/69/19 30/70/20
f 59/71/21 58/72/20 30/73/20 29/74/21
f 60/75/22 59/76/21 29/77/21 28/78/22
f 61/79/23 60/80/22 28/81/22 27/82/23
f 62/83/24 61/84/23 27/85/23 26/86/24
f 63/87/25 62/88/24 26/89/24 25/90/25
f 64/91/26 63/92/25 25/93/25 24/94/26
f 65/95/27 64/96/26 24/97/26 23/98/27
f 7/99/28 65/100/27 23/101/27 8/102/28
f 2/103/1 8/104/1 1/105/1
f 4/106/1 5/107/1 6/3/1
f 2/103/1 7/1/1 8/104/1
f 7/1/1 2/103/1 3/2/1
f 3/2/1 4/106/1 6/3/1
f 13/108/2 33/109/2 11/110/2 12/111/2
f 22/112/2 9/4/2 23/7/2 24/113/2
f 21/114/2 22/112/2 24/113/2 25/115/2
f 13/108/2 14/116/2 32/117/2 33/109/2
f 26/118/2 20/119/2 21/114/2 25/115/2
f 15/120/2 31/121/2 32/117/2 14/116/2
f 27/122/2 19/123/2 20/119/2 26/118/2
f 15/120/2 16/124/2 30/125/2 31/121/2
f 28/126/2 18/127/2 19/123/2 27/122/2
f 16/124/2 17/128/2 29/129/2 30/125/2
f 28/126/2 29/129/2 17/128/2 18/127/2
f 37/130/3 5/131/3 4/132/3
f 34/8/3 36/10/3 37/130/3
f 35/9/3 12/133/3 11/134/3
f 37/130/3 4/132/3 34/8/3
f 36/10/3 35/9/3 11/134/3
f 2/135/29 1/136/29 9/137/4 10/138/4
usemtl Grass
f 41/139/3 35/9/3 34/8/3 39/140/3
f 40/140/1 3/2/1 2/103/1 43/139/1
f 47/123/2 48/127/2 42/140/2
f 38/140/30 40/106/30 43/141/30 42/139/30
f 38/140/31 34/142/31 4/143/31 3/144/31
f 3/144/31 40/132/31 38/140/31
f 41/145/32 39/132/32 38/140/32 42/139/32
f 38/140/31 39/146/31 34/142/31
f 52/116/2 41/146/2 42/140/2
f 10/4/2 43/106/2 2/5/2
f 53/108/2 35/111/2 41/146/2
f 44/112/2 43/106/2 10/4/2
f 52/116/2 53/108/2 41/146/2
f 42/140/2 43/106/2 44/112/2
f 51/120/2 52/116/2 42/140/2
f 42/140/2 44/112/2 45/114/2
f 50/124/2 51/120/2 42/140/2
f 42/140/2 45/114/2 46/119/2
f 49/128/2 50/124/2 42/140/2
f 42/140/2 46/119/2 47/123/2
f 48/127/2 49/128/2 42/140/2
usemtl Asphalt
f 55/147/3 5/131/3 37/130/3 36/10/3
f 55/148/2 59/129/2 60/126/2
f 7/1/1 6/3/1 5/107/1 55/149/1
f 65/7/2 7/6/2 55/148/2
f 55/148/2 64/113/2 65/7/2
f 55/148/2 62/118/2 63/115/2
f 55/148/2 60/126/2 61/122/2
f 55/148/2 58/125/2 59/129/2
f 55/148/2 56/117/2 57/121/2
f 55/148/2 36/110/2 54/109/2
f 63/115/2 64/113/2 55/148/2
f 55/148/2 61/122/2 62/118/2
f 55/148/2 57/121/2 58/125/2
f 56/117/2 55/148/2 54/109/2
