# Blender v2.75 (sub 0) OBJ File: ''
# www.blender.org
mtllib roadTile_045.mtl
o Mesh1_Group1_Model.057
v 0.750000 1.730000 -0.750000
v 0.750000 0.600000 -0.750000
v 0.750000 0.600000 -3.000000
v 0.750000 1.730000 -3.000000
v 3.000000 0.600000 -0.750000
v 3.000000 1.730000 -0.750000
v 3.000000 0.600000 -3.000000
v 3.000000 0.300000 -3.000000
v 0.750000 0.300000 -3.000000
v 3.000000 0.300000 -0.750000
v 3.000000 1.730000 -0.375000
v 3.000000 1.650000 -0.375000
v 3.000000 0.000000 -0.375000
v 3.000000 0.000000 -3.000000
v 0.375000 1.730000 -3.000000
v 0.375000 1.730000 -0.375000
v 0.375000 0.000000 -3.000000
v 0.375000 1.650000 -3.000000
v 3.000000 0.000000 0.000000
v 0.000000 0.000000 -0.000000
v 0.000000 0.000000 -3.000000
v 3.000000 1.650000 0.000000
v 0.375000 1.650000 -0.375000
v 0.000000 1.650000 -3.000000
v 0.000000 1.650000 0.000000
vt -3.000000 0.600000
vt -0.750000 0.600000
vt -0.750000 1.730000
vt -3.000000 1.730000
vt 0.750000 0.600000
vt 0.375000 0.000000
vt 0.750000 0.300000
vt 0.375000 3.000000
vt 0.375000 0.375000
vt 0.750000 0.750000
vt -0.375000 0.000000
vt -0.375000 1.650000
vt 3.000000 1.730000
vt 0.375000 1.730000
vt 0.375000 1.650000
vt 3.000000 1.650000
vt -0.375000 1.730000
vt -3.000000 1.650000
vt 0.750000 1.730000
vt 3.000000 0.000000
vt 3.000000 0.300000
vt 3.000000 0.375000
vt 3.000000 0.750000
vt 0.750000 3.000000
vt -0.750000 0.300000
vt -3.000000 0.300000
vt -3.000000 0.000000
vt 3.000000 0.600000
vt -3.000000 0.375000
vt -0.000000 0.000000
vt -0.375000 3.000000
vt -3.000000 3.000000
vt 0.000000 3.000000
vt -0.000000 1.650000
vt 3.000000 3.000000
vn 0.000000 0.000000 -1.000000
vn 1.000000 -0.000000 0.000000
vn 0.000000 1.000000 0.000000
vn 0.000000 -0.000000 1.000000
vn -1.000000 0.000000 0.000000
vn 0.000000 -1.000000 -0.000000
usemtl Stone
s 1
f 5/1/1 2/2/1 1/3/1 6/4/1
f 5/5/2 13/6/2 10/7/2
f 15/8/3 16/9/3 1/10/3
f 17/11/1 18/12/1 3/2/1
f 11/13/4 16/14/4 23/15/4 12/16/4
f 16/17/5 15/4/5 18/18/5 23/12/5
f 11/14/2 12/15/2 6/19/2
f 14/20/2 8/21/2 10/7/2
f 5/5/2 12/15/2 13/6/2
f 13/6/2 14/20/2 10/7/2
f 12/15/2 5/5/2 6/19/2
f 11/22/3 6/23/3 1/10/3
f 1/10/3 4/24/3 15/8/3
f 16/9/3 11/22/3 1/10/3
f 9/25/1 8/26/1 14/27/1
f 17/11/1 3/2/1 9/25/1
f 18/12/1 15/17/1 4/3/1
f 9/25/1 14/27/1 17/11/1
f 3/2/1 18/12/1 4/3/1
f 1/19/2 2/5/2 3/28/2 4/13/2
usemtl Grass
f 13/29/6 20/30/6 17/31/6 14/32/6
f 23/9/3 18/8/3 24/33/3
f 24/34/1 18/12/1 17/11/1 21/30/1
f 20/30/5 25/34/5 24/18/5 21/27/5
f 25/34/4 20/30/4 19/20/4 22/16/4
f 19/30/2 13/6/2 12/15/2 22/34/2
f 20/30/6 21/33/6 17/31/6
f 13/29/6 19/27/6 20/30/6
f 23/9/3 22/20/3 12/22/3
f 23/9/3 24/33/3 25/30/3
f 25/30/3 22/20/3 23/9/3
usemtl Asphalt
f 7/35/3 3/24/3 2/10/3 5/23/3
f 7/1/1 8/26/1 9/25/1 3/2/1
f 5/5/2 10/7/2 8/21/2 7/28/2
