# Blender v2.75 (sub 0) OBJ File: ''
# www.blender.org
mtllib roadTile_076.mtl
o Mesh1_Group1_Model.281
v 3.000000 0.600000 -0.750001
v 3.000000 0.300000 -0.750001
v 3.000000 0.300000 -2.250000
v 3.000000 0.600000 -2.250000
v 3.000000 0.630000 0.000000
v 3.000000 0.000000 0.000000
v 3.000000 0.000000 -3.000000
v 3.000000 0.630000 -3.000000
v 3.000000 0.630000 -2.250000
v 3.000000 0.630000 -0.750001
v 0.000000 0.000000 -0.000000
v 0.000000 0.630000 -0.000000
v 0.000000 0.000000 -3.000000
v 0.000000 0.630000 -3.000000
v 1.305890 0.630000 -2.224440
v 1.500000 0.630000 -2.250000
v 1.500000 0.630000 -0.750001
v 1.305890 0.630000 -0.775556
v 1.125000 0.630000 -0.850481
v 0.969670 0.630000 -0.969670
v 0.850481 0.630000 -1.125000
v 0.775556 0.630000 -1.305890
v 0.750000 0.630000 -1.500000
v 0.775556 0.630000 -1.694110
v 0.850481 0.630000 -1.875000
v 0.969670 0.630000 -2.030330
v 1.125000 0.630000 -2.149520
v 1.305890 0.600000 -2.224440
v 1.500000 0.600000 -2.250000
v 1.305890 0.600000 -0.775556
v 1.500000 0.600000 -0.750001
v 1.125000 0.600000 -2.149520
v 0.969670 0.600000 -2.030330
v 0.850481 0.600000 -1.875000
v 0.775556 0.600000 -1.694110
v 0.750000 0.600000 -1.500000
v 0.775556 0.600000 -1.305890
v 0.850481 0.600000 -1.125000
v 0.969670 0.600000 -0.969670
v 1.125000 0.600000 -0.850481
vt 3.000000 -0.000000
vt 3.000000 0.630000
vt 2.250000 0.600000
vt 2.250000 0.300000
vt 0.750001 0.300000
vt -3.000000 3.000000
vt -3.000000 0.000000
vt -0.000000 0.000000
vt -0.000000 3.000000
vt -0.000000 0.630000
vt -3.000000 0.630000
vt 1.585060 0.600000
vt 1.780850 0.600000
vt 1.780850 0.630000
vt 1.585060 0.630000
vt 0.750000 1.500000
vt -0.909689 0.600000
vt -0.713899 0.600000
vt -0.713899 0.630000
vt -0.909689 0.630000
vt -0.374782 0.600000
vt -0.178993 0.600000
vt -0.178993 0.630000
vt -0.374782 0.630000
vt 0.178994 0.600000
vt 0.374783 0.600000
vt 0.374783 0.630000
vt 0.178994 0.630000
vt 0.713900 0.600000
vt 0.909689 0.600000
vt 0.909689 0.630000
vt 0.713900 0.630000
vt 1.193480 0.600000
vt 1.389270 0.600000
vt 1.389270 0.630000
vt 1.193480 0.630000
vt 1.861950 0.600000
vt 2.057740 0.600000
vt 2.057740 0.630000
vt 1.861950 0.630000
vt 2.005280 0.600000
vt 2.201070 0.600000
vt 2.201070 0.630000
vt 2.005280 0.630000
vt -3.000000 0.600000
vt -1.500000 0.600000
vt -1.500000 0.630000
vt 1.500000 0.600000
vt 3.000000 0.600000
vt 1.500000 0.630000
vt 0.750001 0.600000
vt 0.750001 0.630000
vt 2.250000 0.630000
vt 3.000000 0.750001
vt 1.500000 0.750001
vt 1.500000 2.250000
vt 3.000000 2.250000
vt 3.000000 3.000000
vt 1.305890 0.775556
vt 1.125000 0.850481
vt 1.305890 2.224440
vt 1.125000 2.149520
vt 0.969670 0.969670
vt 0.969670 2.030330
vt 0.850481 1.125000
vt 0.850481 1.875000
vt 0.775556 1.305890
vt 0.775556 1.694110
vt -1.389270 0.600000
vt -1.193480 0.600000
vt -1.193480 0.630000
vt -1.389270 0.630000
vn 1.000000 -0.000000 0.000000
vn 0.000000 -1.000000 -0.000000
vn -1.000000 0.000000 -0.000000
vn 0.258800 0.000000 0.965900
vn 0.065400 0.000000 0.997900
vn -0.000000 1.000000 0.000000
vn 0.258800 0.000000 -0.965900
vn 0.500000 0.000000 -0.866000
vn 0.707100 0.000000 -0.707100
vn 0.866000 0.000000 -0.500000
vn 0.965900 0.000000 -0.258800
vn 0.965900 0.000000 0.258800
vn 0.866000 0.000000 0.500000
vn 0.707100 0.000000 0.707100
vn 0.500000 0.000000 0.866000
vn 0.000000 0.000000 -1.000000
vn 0.065400 0.000000 -0.997900
vn 0.000000 0.000000 1.000000
usemtl Stone.244
s 1
f 7/1/1 8/2/1 4/3/1 3/4/1
f 2/5/1 7/1/1 3/4/1
f 7/6/2 6/7/2 11/8/2 13/9/2
f 13/7/3 11/8/3 12/10/3 14/11/3
f 28/12/4 29/13/5 16/14/5 15/15/4
f 14/9/6 12/8/6 23/16/6
f 30/17/7 40/18/8 19/19/8 18/20/7
f 40/21/8 39/22/9 20/23/9 19/24/8
f 39/25/9 38/26/10 21/27/10 20/28/9
f 38/29/10 37/30/11 22/31/11 21/32/10
f 37/33/11 36/34/1 23/35/1 22/36/11
f 36/12/1 35/13/12 24/14/12 23/15/1
f 35/37/12 34/38/13 25/39/13 24/40/12
f 34/41/13 33/42/14 26/43/14 25/44/13
f 33/41/14 32/42/15 27/43/15 26/44/14
f 32/37/15 28/38/4 15/39/4 27/40/15
f 1/45/16 31/46/17 17/47/17 10/11/16
f 29/48/5 4/49/18 9/2/18 16/50/5
f 7/7/16 13/8/16 14/10/16 8/11/16
f 1/51/1 10/52/1 5/10/1
f 5/10/1 6/8/1 2/5/1 1/51/1
f 11/8/18 6/1/18 5/2/18 12/10/18
f 8/2/1 9/53/1 4/3/1
f 7/1/1 2/5/1 6/8/1
f 5/1/6 10/54/6 17/55/6
f 16/56/6 9/57/6 8/58/6
f 12/8/6 17/55/6 18/59/6
f 14/9/6 16/56/6 8/58/6
f 12/8/6 18/59/6 19/60/6
f 14/9/6 15/61/6 16/56/6
f 12/8/6 5/1/6 17/55/6
f 27/62/6 15/61/6 14/9/6
f 12/8/6 19/60/6 20/63/6
f 26/64/6 27/62/6 14/9/6
f 12/8/6 20/63/6 21/65/6
f 25/66/6 26/64/6 14/9/6
f 12/8/6 21/65/6 22/67/6
f 24/68/6 25/66/6 14/9/6
f 12/8/6 22/67/6 23/16/6
f 23/16/6 24/68/6 14/9/6
f 31/69/17 30/70/7 18/71/7 17/72/17
usemtl Asphalt.200
f 28/61/6 30/59/6 31/55/6 29/56/6
f 37/67/6 28/61/6 35/68/6
f 39/63/6 40/60/6 30/59/6
f 37/67/6 38/65/6 39/63/6
f 35/68/6 36/16/6 37/67/6
f 28/61/6 34/66/6 35/68/6
f 28/61/6 32/62/6 33/64/6
f 4/57/6 29/56/6 31/55/6 1/54/6
f 30/59/6 37/67/6 39/63/6
f 28/61/6 33/64/6 34/66/6
f 28/61/6 37/67/6 30/59/6
f 1/51/1 2/5/1 3/4/1 4/3/1
