# Blender v2.75 (sub 0) OBJ File: ''
# www.blender.org
mtllib roadTile_002.mtl
o Mesh1_Group1_Model.111
v 0.000000 0.630000 0.000000
v 0.000000 0.000000 0.000000
v 3.000000 0.000000 -0.000000
v 3.000000 0.630000 0.000000
v 0.000000 0.000000 -3.000000
v 0.000000 0.630000 -3.000000
v 3.000000 0.000000 -3.000000
v 3.000000 0.630000 -3.000000
vt -3.000000 0.000000
vt 0.000000 0.000000
vt 0.000000 0.630000
vt -3.000000 0.630000
vt 0.000000 3.000000
vt -3.000000 3.000000
vt 3.000000 -0.000000
vt 3.000000 0.630000
vt 3.000000 3.000000
vn -1.000000 0.000000 0.000000
vn 0.000000 -1.000000 -0.000000
vn 0.000000 0.000000 -1.000000
vn 1.000000 0.000000 0.000000
vn 0.000000 1.000000 0.000000
vn 0.000000 -0.000000 1.000000
usemtl Stone.097
s 1
f 5/1/1 2/2/1 1/3/1 6/4/1
f 3/1/2 2/2/2 5/5/2 7/6/2
f 8/4/3 7/1/3 5/2/3 6/3/3
f 3/2/4 7/7/4 8/8/4 4/3/4
f 6/5/5 1/2/5 4/7/5 8/9/5
f 1/3/6 2/2/6 3/7/6 4/8/6
