# Blender v2.75 (sub 0) OBJ File: ''
# www.blender.org
mtllib roadTile_279.mtl
o Mesh1_Group1_Model.082
v 0.000000 0.630000 0.000000
v 0.000000 0.000000 0.000000
v 3.000000 0.000000 -0.000000
v 3.000000 0.630000 0.000000
v 2.250000 0.630000 0.000000
v 0.750000 0.630000 0.000000
v 0.000000 0.000000 -3.000000
v 0.000000 0.630000 -0.750000
v 0.000000 0.600000 -0.750000
v 0.000000 0.300000 -0.750000
v 0.000000 0.300000 -2.250000
v 0.000000 0.600000 -2.250000
v 0.000000 0.630000 -2.250000
v 0.000000 0.630000 -3.000000
v 3.000000 0.000000 -3.000000
v 3.000000 0.630000 -3.000000
v 0.750000 0.630000 -3.000000
v 2.250000 0.630000 -3.000000
v 3.000000 0.600000 -2.250000
v 3.000000 0.300000 -2.250000
v 3.000000 0.300000 -0.750000
v 3.000000 0.600000 -0.750000
v 3.000000 0.630000 -0.750000
v 3.000000 0.630000 -2.250000
v 2.250000 0.600000 -2.250000
v 0.750000 0.600000 -2.250000
v 0.750000 0.600000 -0.750000
v 2.250000 0.600000 -0.750000
v 2.250000 0.630000 -2.250000
v 0.750000 0.630000 -2.250000
v 0.750000 0.630000 -0.750000
v 2.250000 0.630000 -0.750000
vt 0.750000 0.630000
vt 0.000000 0.000000
vt 2.250000 0.630000
vt -3.000000 -0.000000
vt -0.750000 0.300000
vt 0.750000 0.300000
vt 0.750000 0.600000
vt 0.000000 0.630000
vt -2.250000 0.630000
vt -0.750000 0.630000
vt 3.000000 -0.000000
vt 3.000000 0.600000
vt 3.000000 0.630000
vt 2.250000 0.600000
vt -3.000000 0.630000
vt -2.250000 0.600000
vt 3.000000 3.000000
vt 2.250000 3.000000
vt 2.250000 2.250000
vt 3.000000 2.250000
vt 0.000000 2.250000
vt 0.750000 2.250000
vt 0.750000 3.000000
vt -0.000000 3.000000
vt 0.000000 0.600000
vt -0.750000 0.600000
vt 0.750000 0.000000
vt 0.750000 0.750000
vt 0.000000 0.750000
vt -2.250000 0.025180
vt -2.250000 -0.725420
vt -0.750000 -0.725420
vt -0.750000 0.025180
vt 3.000000 0.750000
vt 2.250000 0.750000
vt 2.250000 0.000000
vt -3.000000 0.600000
vt -3.000000 3.000000
vt -2.250000 0.300000
vt 2.250000 0.300000
vt 2.250000 2.272180
vt 2.250000 3.022780
vt 0.750000 3.022780
vt 0.750000 2.272180
vn 0.000000 -0.000000 1.000000
vn -1.000000 0.000000 0.000000
vn 1.000000 0.000000 0.000000
vn 0.000000 0.000000 -1.000000
vn 0.000000 1.000000 0.000000
vn 0.000000 0.999200 -0.040000
vn 0.000000 0.999800 -0.020000
vn 0.000000 -1.000000 -0.000000
vn 0.000000 0.999800 0.020000
vn 0.000000 0.999200 0.040000
usemtl Stone
s 1
f 6/1/1 2/2/1 5/3/1
f 7/4/2 2/2/2 10/5/2
f 21/6/3 22/7/3 4/8/3 3/2/3
f 18/9/4 15/4/4 17/10/4
f 15/11/3 21/6/3 3/2/3
f 19/12/1 24/13/1 29/3/1 25/14/1
f 18/15/2 25/16/2 29/9/2
f 16/17/5 18/18/5 29/19/5 24/20/5
f 13/21/5 30/22/5 17/23/5 14/24/5
f 26/14/3 17/13/3 30/3/3
f 12/25/1 26/7/1 30/1/1 13/8/1
f 8/8/4 31/10/4 27/26/4 9/25/4
f 1/2/5 6/27/5 31/28/5 8/29/5
f 5/30/6 28/31/7 27/32/7 6/33/6
f 6/8/3 27/7/3 31/1/3
f 23/34/5 32/35/5 5/36/5 4/11/5
f 28/26/2 5/8/2 32/10/2
f 22/37/4 28/16/4 32/9/4 23/15/4
f 2/2/1 6/1/1 1/8/1
f 3/11/1 4/13/1 5/3/1
f 5/3/1 2/2/1 3/11/1
f 2/2/2 1/8/2 9/26/2 10/5/2
f 14/15/2 12/16/2 13/9/2
f 3/4/8 2/2/8 7/24/8 15/38/8
f 1/8/2 8/10/2 9/26/2
f 10/5/2 11/39/2 7/4/2
f 15/4/4 18/9/4 16/15/4
f 7/2/4 14/8/4 17/10/4
f 17/10/4 15/4/4 7/2/4
f 16/13/3 24/3/3 19/14/3
f 15/11/3 16/13/3 19/14/3 20/40/3
f 22/7/3 23/1/3 4/8/3
f 21/6/3 15/11/3 20/40/3
f 25/41/9 18/42/10 17/43/10 26/44/9
f 11/39/2 12/16/2 14/15/2 7/4/2
usemtl Asphalt
f 25/19/9 28/35/7 22/34/5 19/20/5
f 12/16/2 11/39/2 10/5/2 9/26/2
f 22/7/3 21/6/3 20/40/3 19/14/3
f 27/28/7 26/22/9 12/21/5 9/29/5
f 25/19/9 26/22/9 27/28/7 28/35/7
