# Blender v2.75 (sub 0) OBJ File: ''
# www.blender.org
mtllib roadTile_086.mtl
o Mesh1_Group1_Model.110
v 3.000000 0.630000 -2.062500
v 2.877630 0.630000 -2.070520
v 2.877630 0.570000 -2.070520
v 3.000000 0.570000 -2.062500
v 3.000000 0.630000 -3.000000
v 2.062500 0.630000 -3.000000
v 2.070520 0.630000 -2.877630
v 2.094440 0.630000 -2.757360
v 2.133860 0.630000 -2.641230
v 2.188100 0.630000 -2.531250
v 2.256230 0.630000 -2.429290
v 2.337090 0.630000 -2.337090
v 2.429290 0.630000 -2.256230
v 2.531250 0.630000 -2.188100
v 2.641230 0.630000 -2.133860
v 2.757360 0.630000 -2.094440
v 3.000000 0.000000 -3.000000
v 0.000000 0.000000 -3.000000
v 0.000000 0.630000 -3.000000
v 0.937500 0.630000 -3.000000
v 0.937500 0.570000 -3.000000
v 1.125000 0.570000 -3.000000
v 1.125000 0.630000 -3.000000
v 1.875000 0.630000 -3.000000
v 1.875000 0.570000 -3.000000
v 2.062500 0.570000 -3.000000
v 3.000000 0.000000 -0.000000
v 3.000000 0.570000 -1.875000
v 3.000000 0.630000 -1.875000
v 3.000000 0.630000 -1.125000
v 3.000000 0.570000 -1.125000
v 3.000000 0.570000 -0.937500
v 3.000000 0.630000 -0.937500
v 3.000000 0.630000 0.000000
v 0.000000 0.000000 0.000000
v 0.000000 0.630000 0.000000
v 2.730790 0.630000 -0.955145
v 2.466190 0.630000 -1.007780
v 2.210720 0.630000 -1.094500
v 1.968750 0.630000 -1.213820
v 1.744430 0.630000 -1.363710
v 1.541590 0.630000 -1.541590
v 1.363710 0.630000 -1.744430
v 1.213820 0.630000 -1.968750
v 1.094500 0.630000 -2.210720
v 1.007780 0.630000 -2.466190
v 0.955145 0.630000 -2.730790
v 2.730790 0.570000 -0.955145
v 0.955145 0.570000 -2.730790
v 1.007780 0.570000 -2.466190
v 1.094500 0.570000 -2.210720
v 1.213820 0.570000 -1.968750
v 1.363710 0.570000 -1.744430
v 1.541590 0.570000 -1.541590
v 1.744430 0.570000 -1.363710
v 1.968750 0.570000 -1.213820
v 2.210720 0.570000 -1.094500
v 2.466190 0.570000 -1.007780
v 2.755260 0.570000 -1.141040
v 2.514710 0.570000 -1.188890
v 2.282470 0.570000 -1.267730
v 2.062500 0.570000 -1.376200
v 1.858570 0.570000 -1.512460
v 1.674170 0.570000 -1.674170
v 1.512460 0.570000 -1.858570
v 1.376200 0.570000 -2.062500
v 1.267730 0.570000 -2.282470
v 1.188890 0.570000 -2.514710
v 1.141040 0.570000 -2.755260
v 2.755260 0.630000 -1.141040
v 1.141040 0.630000 -2.755260
v 1.188890 0.630000 -2.514710
v 1.267730 0.630000 -2.282470
v 1.376200 0.630000 -2.062500
v 1.512460 0.630000 -1.858570
v 1.674170 0.630000 -1.674170
v 1.858570 0.630000 -1.512460
v 2.062500 0.630000 -1.376200
v 2.282470 0.630000 -1.267730
v 2.514710 0.630000 -1.188890
v 2.853160 0.630000 -1.884620
v 2.708830 0.630000 -1.913330
v 2.569480 0.630000 -1.960640
v 2.437500 0.630000 -2.025720
v 2.315140 0.630000 -2.107480
v 2.204500 0.630000 -2.204500
v 2.107480 0.630000 -2.315140
v 2.025720 0.630000 -2.437500
v 1.960640 0.630000 -2.569480
v 1.913330 0.630000 -2.708830
v 1.884620 0.630000 -2.853160
v 2.853160 0.570000 -1.884620
v 1.884620 0.570000 -2.853160
v 1.913330 0.570000 -2.708830
v 1.960640 0.570000 -2.569480
v 2.025720 0.570000 -2.437500
v 2.107480 0.570000 -2.315140
v 2.204500 0.570000 -2.204500
v 2.315140 0.570000 -2.107480
v 2.437500 0.570000 -2.025720
v 2.569480 0.570000 -1.960640
v 2.708830 0.570000 -1.913330
v 2.757360 0.570000 -2.094440
v 2.641230 0.570000 -2.133860
v 2.531250 0.570000 -2.188100
v 2.429290 0.570000 -2.256230
v 2.337090 0.570000 -2.337090
v 2.256230 0.570000 -2.429290
v 2.188100 0.570000 -2.531250
v 2.133860 0.570000 -2.641230
v 2.094440 0.570000 -2.757360
v 2.070520 0.570000 -2.877630
vt -3.000000 0.630000
vt -3.000000 0.000000
vt -2.062500 0.570000
vt -2.062500 0.630000
vt 3.000000 3.000000
vt 2.256230 2.429290
vt 2.337090 2.337090
vt -0.000000 0.000000
vt -1.875000 0.570000
vt 3.000000 -0.000000
vt 1.125000 0.570000
vt 0.000000 0.630000
vt 3.000000 0.630000
vt 1.541590 1.541590
vt 1.363710 1.744430
vt 2.853160 1.884620
vt 2.755260 1.141040
vt 3.000000 1.125000
vt 3.000000 1.875000
vt 2.877630 2.070520
vt 3.000000 2.062500
vt 2.757360 2.094440
vt 2.531250 2.188100
vt 2.641230 2.133860
vt 2.429290 2.256230
vt 2.188100 2.531250
vt 2.094440 2.757360
vt 2.133860 2.641230
vt 2.062500 3.000000
vt 2.070520 2.877630
vt -1.125000 0.570000
vt -1.125000 0.630000
vt -1.875000 0.630000
vt -0.937500 0.630000
vt -0.937500 0.570000
vt 0.937500 0.570000
vt 0.937500 0.630000
vt 1.875000 0.570000
vt 1.875000 0.630000
vt 1.125000 0.630000
vt 2.062500 0.630000
vt 2.062500 0.570000
vt 0.000000 3.000000
vt -3.000000 3.000000
vt 2.210720 1.094500
vt 0.955145 2.730790
vt 0.937500 3.000000
vt 3.000000 0.937500
vt 2.730790 0.955145
vt 1.007780 2.466190
vt 2.466190 1.007780
vt 1.094500 2.210720
vt 1.968750 1.213820
vt 1.213820 1.968750
vt 1.744430 1.363710
vt 1.141040 2.755260
vt 1.884620 2.853160
vt 1.875000 3.000000
vt 1.125000 3.000000
vt 2.708830 1.913330
vt 2.514710 1.188890
vt 2.282470 1.267730
vt 2.569480 1.960640
vt 1.188890 2.514710
vt 1.913330 2.708830
vt 2.437500 2.025720
vt 2.062500 1.376200
vt 1.267730 2.282470
vt 1.960640 2.569480
vt 1.858570 1.512460
vt 2.315140 2.107480
vt 2.204500 2.204500
vt 1.674170 1.674170
vt 1.376200 2.062500
vt 2.025720 2.437500
vt 2.107480 2.315140
vt 1.512460 1.858570
vt -2.662470 0.630000
vt -2.932260 0.630000
vt -2.932260 0.570000
vt -2.662470 0.570000
vt 2.491980 0.630000
vt 2.222190 0.630000
vt 2.222190 0.570000
vt 2.491980 0.570000
vt 2.011370 0.630000
vt 1.741580 0.630000
vt 1.741580 0.570000
vt 2.011370 0.570000
vt 1.498650 0.630000
vt 1.228860 0.630000
vt 1.228860 0.570000
vt 1.498650 0.570000
vt 0.962592 0.630000
vt 0.692804 0.630000
vt 0.692804 0.570000
vt 0.962592 0.570000
vt 0.412376 0.630000
vt 0.142588 0.630000
vt 0.142588 0.570000
vt 0.412376 0.570000
vt -0.142588 0.630000
vt -0.412376 0.630000
vt -0.412376 0.570000
vt -0.142588 0.570000
vt -0.692804 0.630000
vt -0.962592 0.630000
vt -0.962592 0.570000
vt -0.692804 0.570000
vt -1.228860 0.630000
vt -1.498650 0.630000
vt -1.498650 0.570000
vt -1.228860 0.570000
vt -1.741580 0.630000
vt -2.011370 0.630000
vt -2.011370 0.570000
vt -1.741580 0.570000
vt -2.222190 0.630000
vt -2.491980 0.630000
vt -2.491980 0.570000
vt -2.222190 0.570000
vt 2.920000 0.630000
vt 2.674740 0.630000
vt 2.674740 0.570000
vt 2.920000 0.570000
vt -2.234450 0.630000
vt -2.479720 0.630000
vt -2.479720 0.570000
vt -2.234450 0.570000
vt -1.753840 0.630000
vt -1.999100 0.630000
vt -1.999100 0.570000
vt -1.753840 0.570000
vt -1.241120 0.630000
vt -1.486380 0.630000
vt -1.486380 0.570000
vt -1.241120 0.570000
vt -0.705067 0.630000
vt -0.950329 0.630000
vt -0.950329 0.570000
vt -0.705067 0.570000
vt -0.154851 0.630000
vt -0.400113 0.630000
vt -0.400113 0.570000
vt -0.154851 0.570000
vt 0.400113 0.630000
vt 0.154851 0.630000
vt 0.154851 0.570000
vt 0.400113 0.570000
vt 0.950329 0.630000
vt 0.705067 0.630000
vt 0.705067 0.570000
vt 0.950329 0.570000
vt 1.486380 0.630000
vt 1.241120 0.630000
vt 1.241120 0.570000
vt 1.486380 0.570000
vt 1.999100 0.630000
vt 1.753840 0.630000
vt 1.753840 0.570000
vt 1.999100 0.570000
vt 2.479720 0.630000
vt 2.234450 0.630000
vt 2.234450 0.570000
vt 2.479720 0.570000
vt -2.723790 0.630000
vt -2.870950 0.630000
vt -2.870950 0.570000
vt -2.723790 0.570000
vt 2.430660 0.630000
vt 2.283510 0.630000
vt 2.283510 0.570000
vt 2.430660 0.570000
vt 1.950050 0.630000
vt 1.802890 0.630000
vt 1.802890 0.570000
vt 1.950050 0.570000
vt 1.437330 0.630000
vt 1.290170 0.630000
vt 1.290170 0.570000
vt 1.437330 0.570000
vt 0.901277 0.630000
vt 0.754120 0.630000
vt 0.754120 0.570000
vt 0.901277 0.570000
vt 0.351061 0.630000
vt 0.203903 0.630000
vt 0.203903 0.570000
vt 0.351061 0.570000
vt -0.203903 0.630000
vt -0.351061 0.630000
vt -0.351061 0.570000
vt -0.203903 0.570000
vt -0.754120 0.630000
vt -0.901277 0.630000
vt -0.901277 0.570000
vt -0.754120 0.570000
vt -1.290170 0.630000
vt -1.437330 0.630000
vt -1.437330 0.570000
vt -1.290170 0.570000
vt -1.802890 0.630000
vt -1.950050 0.630000
vt -1.950050 0.570000
vt -1.802890 0.570000
vt -2.283510 0.630000
vt -2.430660 0.630000
vt -2.430660 0.570000
vt -2.283510 0.570000
vt 2.418400 0.630000
vt 2.295770 0.630000
vt 2.295770 0.570000
vt 2.418400 0.570000
vt 1.937790 0.630000
vt 1.815160 0.630000
vt 1.815160 0.570000
vt 1.937790 0.570000
vt 1.425070 0.630000
vt 1.302440 0.630000
vt 1.302440 0.570000
vt 1.425070 0.570000
vt 0.889014 0.630000
vt 0.766383 0.630000
vt 0.766383 0.570000
vt 0.889014 0.570000
vt 0.338797 0.630000
vt 0.216167 0.630000
vt 0.216167 0.570000
vt 0.338797 0.570000
vt -0.216167 0.630000
vt -0.338797 0.630000
vt -0.338797 0.570000
vt -0.216167 0.570000
vt -0.766383 0.630000
vt -0.889014 0.630000
vt -0.889014 0.570000
vt -0.766383 0.570000
vt -1.302440 0.630000
vt -1.425070 0.630000
vt -1.425070 0.570000
vt -1.302440 0.570000
vt -1.815160 0.630000
vt -1.937790 0.630000
vt -1.937790 0.570000
vt -1.815160 0.570000
vt -2.295770 0.630000
vt -2.418400 0.630000
vt -2.418400 0.570000
vt -2.295770 0.570000
vt -2.736050 0.630000
vt -2.858680 0.630000
vt -2.858680 0.570000
vt -2.736050 0.570000
vt 2.932260 0.630000
vt 2.662470 0.630000
vt 2.662470 0.570000
vt 2.932260 0.570000
vt -2.674740 0.630000
vt -2.920000 0.630000
vt -2.920000 0.570000
vt -2.674740 0.570000
vt 2.870950 0.630000
vt 2.723790 0.630000
vt 2.723790 0.570000
vt 2.870950 0.570000
vt 2.858680 0.630000
vt 2.736050 0.630000
vt 2.736050 0.570000
vt 2.858680 0.570000
vn 0.000000 0.000000 -1.000000
vn 0.000000 1.000000 -0.000000
vn 1.000000 0.000000 0.000000
vn 0.000000 -0.000000 1.000000
vn -1.000000 0.000000 0.000000
vn 0.000000 -1.000000 -0.000000
vn 0.130500 0.000000 -0.991400
vn 0.065400 0.000000 -0.997900
vn 0.991400 0.000000 -0.130500
vn 0.965900 0.000000 -0.258800
vn 0.923900 0.000000 -0.382700
vn 0.866000 0.000000 -0.500000
vn 0.793400 0.000000 -0.608800
vn 0.707100 0.000000 -0.707100
vn 0.608800 0.000000 -0.793400
vn 0.500000 0.000000 -0.866000
vn 0.382700 0.000000 -0.923900
vn 0.258800 0.000000 -0.965900
vn -0.065400 0.000000 0.997900
vn -0.130500 0.000000 0.991400
vn -0.965900 0.000000 0.258800
vn -0.991400 0.000000 0.130500
vn -0.923900 0.000000 0.382700
vn -0.866000 0.000000 0.500000
vn -0.793400 0.000000 0.608800
vn -0.707100 0.000000 0.707100
vn -0.608800 0.000000 0.793400
vn -0.500000 0.000000 0.866000
vn -0.382700 0.000000 0.923900
vn -0.258800 0.000000 0.965900
vn 0.793400 0.000000 -0.608700
vn 0.608700 0.000000 -0.793400
vn -0.608800 0.000000 0.793300
vn -0.793300 0.000000 0.608800
vn -0.997900 0.000000 0.065400
vn 0.997900 0.000000 -0.065400
usemtl Stone.096
s 1
f 5/1/1 17/2/1 26/3/1 6/4/1
f 5/5/2 11/6/2 12/7/2
f 17/2/1 18/8/1 25/9/1
f 27/8/3 17/10/3 31/11/3
f 36/12/4 35/8/4 27/10/4 34/13/4
f 18/2/5 35/8/5 36/12/5 19/1/5
f 36/8/2 42/14/2 43/15/2
f 81/16/2 70/17/2 30/18/2 29/19/2
f 2/20/2 1/21/2 5/5/2
f 5/5/2 16/22/2 2/20/2
f 5/5/2 14/23/2 15/24/2
f 5/5/2 12/7/2 13/25/2
f 5/5/2 10/26/2 11/6/2
f 5/5/2 8/27/2 9/28/2
f 5/5/2 6/29/2 7/30/2
f 15/24/2 16/22/2 5/5/2
f 5/5/2 13/25/2 14/23/2
f 5/5/2 9/28/2 10/26/2
f 8/27/2 5/5/2 7/30/2
f 22/31/1 23/32/1 24/33/1 25/9/1
f 19/12/1 20/34/1 21/35/1 18/8/1
f 25/9/1 26/3/1 17/2/1
f 32/36/3 33/37/3 34/12/3 27/8/3
f 18/8/1 22/31/1 25/9/1
f 22/31/1 18/8/1 21/35/1
f 28/38/3 29/39/3 30/40/3 31/11/3
f 5/13/3 1/41/3 4/42/3 17/10/3
f 31/11/3 32/36/3 27/8/3
f 27/2/6 35/8/6 18/43/6 17/44/6
f 17/10/3 28/38/3 31/11/3
f 28/38/3 17/10/3 4/42/3
f 39/45/2 36/8/2 34/10/2
f 47/46/2 20/47/2 19/43/2
f 34/10/2 33/48/2 37/49/2
f 46/50/2 47/46/2 19/43/2
f 34/10/2 37/49/2 38/51/2
f 45/52/2 46/50/2 19/43/2
f 34/10/2 38/51/2 39/45/2
f 36/8/2 45/52/2 19/43/2
f 36/8/2 39/45/2 40/53/2
f 36/8/2 44/54/2 45/52/2
f 36/8/2 40/53/2 41/55/2
f 36/8/2 43/15/2 44/54/2
f 36/8/2 41/55/2 42/14/2
f 71/56/2 91/57/2 24/58/2 23/59/2
f 82/60/2 80/61/2 70/17/2 81/16/2
f 79/62/2 80/61/2 82/60/2 83/63/2
f 71/56/2 72/64/2 90/65/2 91/57/2
f 84/66/2 78/67/2 79/62/2 83/63/2
f 73/68/2 89/69/2 90/65/2 72/64/2
f 77/70/2 78/67/2 84/66/2 85/71/2
f 86/72/2 76/73/2 77/70/2 85/71/2
f 73/68/2 74/74/2 88/75/2 89/69/2
f 86/72/2 87/76/2 75/77/2 76/73/2
f 75/77/2 87/76/2 88/75/2 74/74/2
usemtl Grey_Asphalt.008
f 37/78/7 33/79/8 32/80/8 48/81/7
f 48/49/2 32/48/2 31/18/2 59/17/2
f 47/82/9 46/83/10 50/84/10 49/85/9
f 46/86/10 45/87/11 51/88/11 50/89/10
f 45/90/11 44/91/12 52/92/12 51/93/11
f 44/94/12 43/95/13 53/96/13 52/97/12
f 43/98/13 42/99/14 54/100/14 53/101/13
f 42/102/14 41/103/15 55/104/15 54/105/14
f 41/106/15 40/107/16 56/108/16 55/109/15
f 40/110/16 39/111/17 57/112/17 56/113/16
f 39/114/17 38/115/18 58/116/18 57/117/17
f 38/118/18 37/119/7 48/120/7 58/121/18
f 30/122/19 70/123/20 59/124/20 31/125/19
f 72/126/21 71/127/22 69/128/22 68/129/21
f 73/130/23 72/131/21 68/132/21 67/133/23
f 74/134/24 73/135/23 67/136/23 66/137/24
f 75/138/25 74/139/24 66/140/24 65/141/25
f 76/142/26 75/143/25 65/144/25 64/145/26
f 77/146/27 76/147/26 64/148/26 63/149/27
f 78/150/28 77/151/27 63/152/27 62/153/28
f 79/154/29 78/155/28 62/156/28 61/157/29
f 80/158/30 79/159/29 61/160/29 60/161/30
f 70/162/20 80/163/30 60/164/30 59/165/20
f 81/166/7 29/167/8 28/168/8 92/169/7
f 92/16/2 28/19/2 4/21/2 3/20/2
f 91/170/9 90/171/10 94/172/10 93/173/9
f 90/174/10 89/175/11 95/176/11 94/177/10
f 89/178/11 88/179/12 96/180/12 95/181/11
f 88/182/12 87/183/31 97/184/31 96/185/12
f 87/186/31 86/187/14 98/188/14 97/189/31
f 86/190/14 85/191/32 99/192/32 98/193/14
f 85/194/32 84/195/16 100/196/16 99/197/32
f 84/198/16 83/199/17 101/200/17 100/201/16
f 83/202/17 82/203/18 102/204/18 101/205/17
f 82/206/18 81/207/7 92/208/7 102/209/18
f 2/210/20 16/211/30 103/212/30 3/213/20
f 16/214/30 15/215/29 104/216/29 103/217/30
f 15/218/29 14/219/28 105/220/28 104/221/29
f 14/222/28 13/223/33 106/224/33 105/225/28
f 13/226/33 12/227/26 107/228/26 106/229/33
f 12/230/26 11/231/34 108/232/34 107/233/26
f 11/234/34 10/235/24 109/236/24 108/237/34
f 10/238/24 9/239/23 110/240/23 109/241/24
f 9/242/23 8/243/21 111/244/21 110/245/23
f 8/246/21 7/247/22 112/248/22 111/249/21
f 7/250/22 6/251/35 26/252/35 112/253/22
f 49/46/2 69/56/2 22/59/2 21/47/2
f 58/51/2 48/49/2 59/17/2 60/61/2
f 57/45/2 58/51/2 60/61/2 61/62/2
f 50/50/2 68/64/2 69/56/2 49/46/2
f 62/67/2 56/53/2 57/45/2 61/62/2
f 51/52/2 67/68/2 68/64/2 50/50/2
f 55/55/2 56/53/2 62/67/2 63/70/2
f 52/54/2 66/74/2 67/68/2 51/52/2
f 64/73/2 54/14/2 55/55/2 63/70/2
f 65/77/2 66/74/2 52/54/2 53/15/2
f 53/15/2 54/14/2 64/73/2 65/77/2
f 20/254/36 47/255/9 49/256/9 21/257/36
f 71/258/22 23/259/35 22/260/35 69/261/22
f 93/57/2 112/30/2 26/29/2 25/58/2
f 102/60/2 92/16/2 3/20/2 103/22/2
f 101/63/2 102/60/2 103/22/2 104/24/2
f 93/57/2 94/65/2 111/27/2 112/30/2
f 105/23/2 100/66/2 101/63/2 104/24/2
f 95/69/2 110/28/2 111/27/2 94/65/2
f 106/25/2 99/71/2 100/66/2 105/23/2
f 95/69/2 96/75/2 109/26/2 110/28/2
f 107/7/2 98/72/2 99/71/2 106/25/2
f 96/75/2 97/76/2 108/6/2 109/26/2
f 107/7/2 108/6/2 97/76/2 98/72/2
f 24/262/36 91/263/9 93/264/9 25/265/36
f 1/266/19 2/267/20 3/268/20 4/269/19
