# Blender v2.75 (sub 0) OBJ File: ''
# www.blender.org
mtllib roadTile_130.mtl
o Mesh1_Group1_Model.169
v 2.625000 0.600000 -0.375000
v 0.375000 0.600000 -0.375000
v 0.375000 0.630000 -0.375000
v 2.625000 0.630000 -0.375000
v 2.625000 0.600000 -2.625000
v 0.375000 0.600000 -2.625000
v 2.625000 0.300000 -2.625000
v 0.375000 0.300000 -2.625000
v 2.625000 0.300000 -0.375000
v 2.625000 0.630000 0.000000
v 2.625000 0.000000 0.000000
v 2.625000 0.000000 -2.625000
v 0.000000 0.630000 0.000000
v 0.000000 0.000000 -0.000000
v 0.375000 0.630000 -2.625000
v 0.000000 0.630000 -2.625000
v 0.000000 0.000000 -2.625000
vt 0.000000 0.630000
vt 0.000000 0.000000
vt 0.375000 0.300000
vt 0.375000 0.600000
vt -0.375000 0.600000
vt -0.375000 0.300000
vt 0.000000 2.625000
vt 0.375000 0.375000
vt -2.625000 0.630000
vt -2.625000 0.000000
vt 0.375000 0.630000
vt 2.625000 0.600000
vt 2.625000 0.630000
vt 2.625000 0.000000
vt 2.625000 0.300000
vt 2.625000 0.375000
vt 0.375000 2.625000
vt -2.625000 0.300000
vt -2.625000 2.625000
vt -0.375000 0.630000
vt -2.625000 0.600000
vt 2.625000 2.625000
vn 1.000000 -0.000000 0.000000
vn 0.000000 0.000000 -1.000000
vn 0.000000 1.000000 0.000000
vn -1.000000 0.000000 -0.000000
vn -0.000000 -0.000000 1.000000
vn 0.000000 -1.000000 -0.000000
usemtl Stone.148
s 1
f 10/1/1 11/2/1 9/3/1 1/4/1
f 17/2/2 16/1/2 6/5/2 8/6/2
f 16/7/3 13/2/3 3/8/3
f 13/1/4 16/9/4 17/10/4 14/2/4
f 3/11/1 2/4/1 6/12/1 15/13/1
f 1/4/1 4/11/1 10/1/1
f 12/14/1 7/15/1 9/3/1
f 10/13/5 13/1/5 14/2/5 11/14/5
f 11/2/1 12/14/1 9/3/1
f 10/14/3 4/16/3 3/8/3
f 3/8/3 15/17/3 16/7/3
f 13/2/3 10/14/3 3/8/3
f 8/6/2 7/18/2 12/10/2
f 12/19/6 11/10/6 14/2/6 17/7/6
f 6/5/2 16/1/2 15/20/2
f 8/6/2 12/10/2 17/2/2
f 1/21/2 2/5/2 3/20/2 4/9/2
usemtl Asphalt.127
f 5/22/3 6/17/3 2/8/3 1/16/3
f 5/21/2 7/18/2 8/6/2 6/5/2
f 1/4/1 9/3/1 7/15/1 5/12/1
