# Blender v2.75 (sub 0) OBJ File: ''
# www.blender.org
mtllib roadTile_222.mtl
o Mesh1_Group1_Model.199
v 3.000000 0.000000 -3.000000
v 3.000000 0.300000 -0.750000
v 3.000000 0.000000 -0.000000
v 3.000000 0.300000 -2.250000
v 3.000000 0.600000 -2.250000
v 3.000000 1.275000 -2.250000
v 3.000000 1.650000 -3.000000
v 3.000000 1.275000 -0.750000
v 3.000000 1.650000 0.000000
v 2.406570 0.630000 0.000000
v 0.000000 0.000000 -0.000000
v 0.593435 0.630000 0.000000
v 0.000000 1.650000 0.000000
v 0.593435 1.275000 0.000000
v 0.593435 0.630000 -0.750000
v 0.593435 1.275000 -0.750000
v 2.406570 0.630000 -0.750000
v 2.406570 1.275000 -0.750000
v 3.000000 0.600000 -0.750000
v 0.000000 0.600000 -0.750000
v 0.000000 1.275000 -0.750000
v 2.406570 1.275000 0.000000
v 0.000000 1.650000 -3.000000
v 0.593435 1.275000 -3.000000
v 0.593435 0.630000 -3.000000
v 0.000000 0.000000 -3.000000
v 2.406570 0.630000 -3.000000
v 0.593435 0.630000 -2.250000
v 2.406570 0.630000 -2.250000
v 0.000000 1.275000 -2.250000
v 0.000000 0.600000 -2.250000
v 2.406570 1.275000 -2.250000
v 0.593435 1.275000 -2.250000
v 0.000000 0.300000 -0.750000
v 0.000000 0.300000 -2.250000
v 2.406570 1.275000 -3.000000
vt 3.000000 -0.000000
vt 0.750000 0.300000
vt 0.000000 -0.000000
vt 2.250000 0.300000
vt 2.250000 0.600000
vt -0.750000 0.300000
vt -0.000000 1.650000
vt -0.750000 1.275000
vt 3.000000 1.650000
vt 0.750000 1.275000
vt 2.250000 1.275000
vt -3.000000 -0.000000
vt -2.250000 0.600000
vt -2.250000 1.275000
vt -3.000000 1.650000
vt 2.406570 0.630000
vt 0.593435 0.630000
vt 0.593435 1.275000
vt -0.000000 0.600000
vt -0.000000 1.275000
vt -0.593435 1.275000
vt -0.593435 0.630000
vt -2.406570 0.630000
vt -3.000000 0.600000
vt -0.750000 0.630000
vt -0.000000 0.630000
vt 3.000000 3.000000
vt -0.000000 3.000000
vt 2.406570 1.275000
vt 0.593435 2.250000
vt 2.406570 2.250000
vt 2.406570 3.000000
vt 0.593435 3.000000
vt 3.000000 0.600000
vt 0.750000 0.630000
vt -2.250000 0.300000
vt -3.000000 3.000000
vt 0.750000 0.600000
vt -0.750000 0.600000
vt -3.000000 0.750000
vt -2.406570 0.750000
vt -2.406570 2.250000
vt -3.000000 2.250000
vt -2.250000 0.630000
vt -3.000000 1.275000
vt -3.000000 0.630000
vt -2.406570 1.275000
vt 2.406570 0.750000
vt 0.593435 0.750000
vt 0.593435 0.000000
vt 2.406570 -0.000000
vt 3.000000 1.275000
vt -0.593435 2.250000
vt -0.593435 3.000000
vt -2.406570 3.000000
vt -0.593435 0.750000
vt -0.000000 0.750000
vt -0.000000 2.250000
vt -0.593435 0.000000
vt -2.406570 0.000000
vt 2.250000 0.630000
vt 3.000000 0.630000
vt 3.000000 0.750000
vt 3.000000 2.250000
vn 1.000000 0.000000 0.000000
vn 1.000000 0.000000 0.000100
vn -1.000000 0.000000 0.000100
vn -1.000000 -0.000000 0.000000
vn 0.000000 -0.000000 1.000000
vn 0.000000 0.000000 -1.000000
vn 0.000000 1.000000 0.000000
vn 0.000000 -1.000000 -0.000000
vn -0.640600 -0.076200 -0.764100
usemtl Stone
s 1
f 1/1/1 2/2/2 3/3/1
f 2/2/2 1/1/1 4/4/1
f 4/4/1 1/1/1 5/5/1
f 34/6/3 11/3/4 13/7/4 21/8/3
f 7/9/1 8/10/2 6/11/1
f 9/7/1 8/10/2 7/9/1
f 26/12/4 31/13/4 30/14/4 23/15/4
f 10/16/5 3/1/5 9/9/5
f 3/1/5 10/16/5 11/3/5
f 12/17/5 11/3/5 10/16/5
f 11/3/5 12/17/5 13/7/5
f 13/7/5 12/17/5 14/18/5
f 20/19/6 21/20/6 16/21/6 15/22/6
f 15/22/6 17/23/6 19/24/6
f 18/8/4 17/25/4 10/26/4 22/20/4
f 9/1/7 7/27/7 23/28/7 13/3/7
f 10/16/5 9/9/5 22/29/5
f 22/29/5 9/9/5 14/18/5
f 13/7/5 14/18/5 9/9/5
f 28/30/7 29/31/7 27/32/7 25/33/7
f 24/21/6 23/7/6 7/15/6
f 25/22/6 23/7/6 24/21/6
f 25/22/6 26/3/6 23/7/6
f 26/3/6 25/22/6 1/12/6
f 1/12/6 25/22/6 27/23/6
f 30/20/5 31/19/5 28/17/5 33/18/5
f 28/17/5 5/34/5 29/16/5
f 15/35/1 16/10/1 14/20/1 12/26/1
f 21/8/3 23/15/4 30/14/4
f 21/8/3 13/7/4 23/15/4
f 3/3/1 2/2/2 8/10/2 9/7/1
f 11/3/4 34/6/3 26/12/4
f 26/12/4 34/6/3 35/36/4
f 11/3/8 26/28/8 1/37/8 3/12/8
f 8/10/2 2/2/2 19/38/9
f 26/12/4 35/36/4 31/13/4
f 34/6/3 21/8/3 20/39/4
f 8/40/8 18/41/8 32/42/8 6/43/8
f 29/44/4 32/14/4 36/45/4 27/46/4
f 7/15/6 36/47/6 24/21/6
f 7/15/6 27/23/6 36/47/6
f 27/23/6 7/15/6 1/12/6
f 17/23/6 18/47/6 8/45/6 19/24/6
f 17/48/7 15/49/7 12/50/7 10/51/7
f 19/24/6 20/19/6 15/22/6
f 5/34/5 6/52/5 32/29/5 29/16/5
f 5/34/5 28/17/5 31/19/5
f 33/53/8 24/54/8 36/55/8 32/42/8
f 16/56/8 21/57/8 30/58/8 33/53/8
f 14/59/8 16/56/8 18/41/8 22/60/8
f 18/41/8 16/56/8 33/53/8 32/42/8
f 33/11/1 28/61/1 25/62/1 24/52/1
f 7/9/1 6/11/1 5/5/1 1/1/1
usemtl Asphalt
f 19/63/7 5/64/7 31/58/7 20/57/7
f 5/5/1 19/38/9 2/2/2 4/4/1
f 20/39/4 31/13/4 35/36/4 34/6/3
