# Blender v2.75 (sub 0) OBJ File: ''
# www.blender.org
mtllib roadTile_111.mtl
o Mesh1_Group1_Model.074
v 0.768845 0.600000 -1.856160
v 1.027000 0.600000 -2.082550
v 1.027000 0.000000 -2.082550
v 0.768845 0.000000 -1.856160
v 2.625000 0.600000 -2.250000
v 2.625000 0.600000 -2.625000
v 2.282370 0.600000 -2.602540
v 1.945600 0.600000 -2.535560
v 1.620460 0.600000 -2.425180
v 1.312500 0.600000 -2.273320
v 0.542447 0.600000 -1.598000
v 0.351683 0.600000 -1.312500
v 0.199816 0.600000 -1.004540
v 0.089445 0.600000 -0.679400
v 0.022457 0.600000 -0.342631
v 0.000000 0.600000 0.000000
v 0.375000 0.600000 0.000000
v 0.394249 0.600000 -0.293684
v 0.451667 0.600000 -0.582343
v 0.546271 0.600000 -0.861038
v 0.676443 0.600000 -1.125000
v 0.839955 0.600000 -1.369710
v 1.034010 0.600000 -1.590990
v 1.255290 0.600000 -1.785050
v 1.500000 0.600000 -1.948560
v 1.763960 0.600000 -2.078730
v 2.042660 0.600000 -2.173330
v 2.331320 0.600000 -2.230750
v 2.625000 0.000000 -0.000000
v 2.625000 0.000000 -2.625000
v 2.625000 0.300000 -2.250000
v 2.625000 0.300000 -0.000000
v 0.000000 0.000000 -0.000000
v 0.022457 0.000000 -0.342631
v 0.089445 0.000000 -0.679400
v 0.199816 0.000000 -1.004540
v 0.351683 0.000000 -1.312500
v 0.542447 0.000000 -1.598000
v 1.312500 0.000000 -2.273320
v 1.620460 0.000000 -2.425180
v 1.945600 0.000000 -2.535560
v 2.282370 0.000000 -2.602540
v 0.375000 0.300000 0.000000
v 2.625000 0.600000 0.000000
vt 0.022457 0.342631
vt 0.000000 0.000000
vt 0.375000 0.000000
vt 0.394249 0.293684
vt -2.625000 0.000000
vt -0.542447 1.598000
vt -0.768845 1.856160
vt 2.625000 -0.000000
vt 0.375000 0.300000
vt -0.340429 0.600000
vt -0.683795 0.600000
vt -0.683795 0.000000
vt -0.340429 0.000000
vt -0.672095 0.600000
vt -1.015460 0.600000
vt -1.015460 0.000000
vt -0.672095 0.000000
vt -0.989325 0.600000
vt -1.332690 0.600000
vt -1.332690 0.000000
vt -0.989325 0.000000
vt -1.286690 0.600000
vt -1.630060 0.600000
vt -1.630060 0.000000
vt -1.286690 0.000000
vt -1.559100 0.600000
vt -1.902470 0.600000
vt -1.902470 0.000000
vt -1.559100 0.000000
vt -2.010920 0.600000
vt -2.354290 0.600000
vt -2.354290 0.000000
vt -2.010920 0.000000
vt -2.182610 0.600000
vt -2.525970 0.600000
vt -2.525970 0.000000
vt -2.182610 0.000000
vt -2.314010 0.600000
vt -2.657370 0.600000
vt -2.657370 0.000000
vt -2.314010 0.000000
vt -2.402880 0.600000
vt -2.746240 0.600000
vt -2.746240 0.000000
vt -2.402880 0.000000
vt -2.447700 0.600000
vt -2.791060 0.600000
vt -2.791060 -0.000000
vt -2.447700 0.000000
vt 2.282370 2.602540
vt 2.331320 2.230750
vt 2.625000 2.250000
vt 2.625000 2.625000
vt 0.089445 0.679400
vt 0.451667 0.582343
vt 0.199816 1.004540
vt 0.546271 0.861038
vt 1.945600 2.535560
vt 2.042660 2.173330
vt 0.351683 1.312500
vt 0.676443 1.125000
vt 1.620460 2.425180
vt 1.763960 2.078730
vt 0.839955 1.369710
vt 0.542447 1.598000
vt 1.312500 2.273320
vt 1.500000 1.948560
vt 1.034010 1.590990
vt 0.768845 1.856160
vt 1.027000 2.082550
vt 1.255290 1.785050
vt 2.625000 0.600000
vt 2.250000 0.600000
vt 2.250000 0.300000
vt 0.000000 0.300000
vt 0.000000 0.600000
vt 0.375000 0.600000
vt -2.282370 2.602540
vt -2.625000 2.625000
vt -1.945600 2.535560
vt -1.312500 2.273320
vt -1.620460 2.425180
vt -1.027000 2.082550
vt -0.351683 1.312500
vt -0.089445 0.679400
vt -0.199816 1.004540
vt -0.022457 0.342631
vt -0.343366 0.600000
vt -0.343366 0.000000
vt 2.625000 0.300000
vt -1.801900 0.600000
vt -2.145260 0.600000
vt -2.145260 0.000000
vt -1.801900 0.000000
vn 0.000000 1.000000 -0.000000
vn -0.000000 -1.000000 -0.000000
vn -0.000000 -0.000000 1.000000
vn -0.991400 0.000000 -0.130500
vn -0.965900 0.000000 -0.258800
vn -0.923900 0.000000 -0.382700
vn -0.866000 0.000000 -0.500000
vn -0.793400 0.000000 -0.608800
vn -0.707100 0.000000 -0.707100
vn -0.608800 0.000000 -0.793400
vn -0.500000 0.000000 -0.866000
vn -0.382700 0.000000 -0.923900
vn -0.258800 0.000000 -0.965900
vn -0.130500 0.000000 -0.991400
vn -0.065400 0.000000 -0.997900
vn 1.000000 0.000000 0.000000
vn -0.997900 0.000000 -0.065400
usemtl Stone
s 1
f 15/1/1 16/2/1 17/3/1 18/4/1
f 29/5/2 38/6/2 4/7/2
f 33/2/3 29/8/3 43/9/3
f 15/10/4 14/11/5 35/12/5 34/13/4
f 14/14/5 13/15/6 36/16/6 35/17/5
f 13/18/6 12/19/7 37/20/7 36/21/6
f 12/22/7 11/23/8 38/24/8 37/25/7
f 11/26/8 1/27/9 4/28/9 38/29/8
f 2/30/10 10/31/11 39/32/11 3/33/10
f 10/34/11 9/35/12 40/36/12 39/37/11
f 9/38/12 8/39/13 41/40/13 40/41/12
f 8/42/13 7/43/14 42/44/14 41/45/13
f 7/46/14 6/47/15 30/48/15 42/49/14
f 7/50/1 28/51/1 5/52/1 6/53/1
f 14/54/1 15/1/1 18/4/1 19/55/1
f 13/56/1 14/54/1 19/55/1 20/57/1
f 7/50/1 8/58/1 27/59/1 28/51/1
f 12/60/1 13/56/1 20/57/1 21/61/1
f 9/62/1 26/63/1 27/59/1 8/58/1
f 22/64/1 11/65/1 12/60/1 21/61/1
f 9/62/1 10/66/1 25/67/1 26/63/1
f 23/68/1 1/69/1 11/65/1 22/64/1
f 10/66/1 2/70/1 24/71/1 25/67/1
f 23/68/1 24/71/1 2/70/1 1/69/1
f 30/8/16 6/72/16 5/73/16 31/74/16
f 31/74/16 32/75/16 29/2/16
f 16/76/3 33/2/3 43/9/3 17/77/3
f 31/74/16 29/2/16 30/8/16
f 42/78/2 30/79/2 29/5/2
f 29/5/2 41/80/2 42/78/2
f 29/5/2 39/81/2 40/82/2
f 29/5/2 4/7/2 3/83/2
f 29/5/2 37/84/2 38/6/2
f 29/5/2 35/85/2 36/86/2
f 29/5/2 33/2/2 34/87/2
f 40/82/2 41/80/2 29/5/2
f 29/5/2 3/83/2 39/81/2
f 29/5/2 36/86/2 37/84/2
f 35/85/2 29/5/2 34/87/2
f 33/2/17 16/76/17 15/88/4 34/89/4
f 29/8/3 32/90/3 43/9/3
f 1/91/9 2/92/10 3/93/10 4/94/9
usemtl Asphalt
f 17/77/3 43/9/3 32/90/3 44/72/3
f 44/76/16 32/75/16 31/74/16 5/73/16
f 44/8/1 24/71/1 23/68/1
f 18/4/1 17/3/1 44/8/1
f 44/8/1 19/55/1 18/4/1
f 44/8/1 21/61/1 20/57/1
f 44/8/1 23/68/1 22/64/1
f 44/8/1 25/67/1 24/71/1
f 44/8/1 27/59/1 26/63/1
f 44/8/1 5/52/1 28/51/1
f 20/57/1 19/55/1 44/8/1
f 44/8/1 22/64/1 21/61/1
f 44/8/1 26/63/1 25/67/1
f 27/59/1 44/8/1 28/51/1
