# Blender v2.75 (sub 0) OBJ File: ''
# www.blender.org
mtllib roadTile_267.mtl
o Mesh1_Group1_Model.279
v 0.000000 1.730000 -0.750000
v 0.000000 1.700000 -0.750000
v 0.000000 1.400000 -0.750000
v 0.000000 1.400000 -2.250000
v 0.000000 1.700000 -2.250000
v 0.000000 1.730000 -2.250000
v 0.000000 1.730000 -3.000000
v 0.000000 1.100000 -3.000000
v 0.000000 1.100000 0.000000
v 0.000000 1.730000 0.000000
v 3.000000 0.600000 -0.750000
v 3.000000 0.630000 -0.750000
v 3.000000 0.600000 -2.250000
v 3.000000 0.630000 -2.250000
v 3.000000 0.300000 -2.250000
v 3.000000 0.300000 -0.750000
v 3.000000 0.630000 0.000000
v 3.000000 0.000000 -0.000000
v 3.000000 0.000000 -3.000000
v 3.000000 0.630000 -3.000000
v 1.500000 0.550000 0.000000
v 1.500000 0.000000 -0.000000
v 1.500000 0.550000 -3.000000
v 1.500000 0.000000 -3.000000
vt -0.750000 1.400000
vt -2.250000 1.400000
vt -3.000000 1.100000
vt 0.000000 1.730000
vt 0.000000 1.700000
vt 3.000000 0.600000
vt 3.000000 0.630000
vt 0.750000 0.300000
vt 0.750000 0.600000
vt 0.000000 0.630000
vt 0.000000 0.000000
vt 3.000000 0.000000
vt 0.750000 0.595561
vt -0.000000 0.595561
vt -0.000000 -2.599750
vt 0.750000 -2.599750
vt 1.500000 0.550000
vt 1.500000 -0.000000
vt -3.000000 0.630000
vt -3.000000 0.000000
vt -1.500000 0.000000
vt -1.500000 0.550000
vt -3.000000 0.550000
vt -0.000000 0.550000
vt 2.250000 -2.599750
vt 3.000000 -2.599750
vt 3.000000 0.595561
vt 2.250000 0.595561
vt -0.750000 1.700000
vt -0.750000 1.730000
vt 0.000000 1.100000
vt -3.000000 0.600000
vt -2.250000 1.700000
vt -2.250000 1.730000
vt -3.000000 1.730000
vt 2.250000 0.600000
vt 2.250000 0.630000
vt 2.250000 0.300000
vt 0.750000 0.630000
vt -0.000000 0.378680
vt -3.000000 0.378680
vt -3.000000 -1.218970
vt -0.000000 -1.218970
vt -1.500000 3.000000
vt -3.000000 3.000000
vt 2.250000 -2.610080
vt 2.250000 0.585233
vt 0.750000 0.585233
vt 0.750000 -2.610080
vn -1.000000 -0.000000 0.000000
vn 0.000000 0.000000 1.000000
vn 1.000000 0.000000 0.000000
vn 0.344300 0.938900 0.000000
vn 0.000000 0.000000 -1.000000
vn -0.344300 -0.938900 -0.000000
vn 0.000000 -1.000000 -0.000000
usemtl Stone
s 1
f 3/1/1 4/2/1 8/3/1
f 6/4/2 5/5/2 13/6/2 14/7/2
f 16/8/3 11/9/3 17/10/3 18/11/3
f 19/12/3 16/8/3 18/11/3
f 1/13/4 10/14/4 17/15/4 12/16/4
f 21/17/2 22/18/2 18/12/2 17/7/2
f 20/19/5 19/20/5 24/21/5 23/22/5
f 23/23/1 24/20/1 22/11/1 21/24/1
f 14/25/4 20/26/4 7/27/4 6/28/4
f 2/29/1 10/4/1 1/30/1
f 9/31/1 10/4/1 2/29/1 3/1/1
f 11/32/5 2/5/5 1/4/5 12/19/5
f 5/33/1 6/34/1 7/35/1
f 8/3/1 9/31/1 3/1/1
f 13/36/3 20/7/3 14/37/3
f 19/12/3 20/7/3 13/36/3 15/38/3
f 11/9/3 12/39/3 17/10/3
f 16/8/3 19/12/3 15/38/3
f 21/17/2 10/4/2 9/31/2
f 9/40/6 8/41/6 23/42/6 21/43/6
f 17/7/2 10/4/2 21/17/2
f 23/22/5 7/4/5 20/19/5
f 24/44/7 19/45/7 18/20/7 22/21/7
f 23/22/5 8/31/5 7/4/5
f 4/2/1 5/33/1 7/35/1 8/3/1
usemtl Asphalt
f 13/46/4 5/47/4 2/48/4 11/49/4
f 2/29/1 5/33/1 4/2/1 3/1/1
f 13/36/3 11/9/3 16/8/3 15/38/3
