# Blender v2.75 (sub 0) OBJ File: ''
# www.blender.org
mtllib roadTile_260.mtl
o Mesh1_Group1_Model.055
v 3.000000 0.630000 -1.125000
v 1.875000 0.630000 -1.125000
v 1.875000 0.630000 0.000000
v 2.437500 0.630000 0.000000
v 2.437500 0.630000 -0.562500
v 3.000000 0.630000 -0.562500
v 3.000000 0.600000 -1.125000
v 1.875000 0.600000 -1.125000
v 3.000000 0.000000 -0.562500
v 3.000000 0.000000 -2.437500
v 3.000000 0.630000 -2.437500
v 3.000000 0.630000 -1.875000
v 3.000000 0.600000 -1.875000
v 3.000000 0.300000 -1.875000
v 3.000000 0.300000 -1.125000
v 0.562500 0.000000 -3.000000
v 2.437500 0.000000 -3.000000
v 2.437500 0.000000 -2.437500
v 2.437500 0.000000 -0.562500
v 2.437500 0.000000 -0.000000
v 0.562500 0.000000 -0.000000
v 0.562500 0.000000 -0.562500
v 0.000000 0.000000 -0.562500
v 0.000000 0.000000 -2.437500
v 0.562500 0.000000 -2.437500
v 0.562500 0.630000 -3.000000
v 1.125000 0.630000 -3.000000
v 1.125000 0.600000 -3.000000
v 1.125000 0.315000 -3.000000
v 1.875000 0.315000 -3.000000
v 1.875000 0.600000 -3.000000
v 1.875000 0.630000 -3.000000
v 2.437500 0.630000 -3.000000
v 0.562500 0.630000 -2.437500
v 0.000000 0.630000 -1.875000
v 1.125000 0.630000 -1.875000
v 0.000000 0.630000 -2.437500
v 0.000000 0.600000 -1.875000
v 1.125000 0.600000 -1.875000
v 0.000000 0.630000 -0.562500
v 0.000000 0.630000 -1.125000
v 0.000000 0.600000 -1.125000
v 0.000000 0.300000 -1.125000
v 0.000000 0.300000 -1.875000
v 0.562500 0.630000 -0.562500
v 1.125000 0.630000 0.000000
v 1.125000 0.630000 -1.125000
v 0.562500 0.630000 0.000000
v 1.125000 0.600000 0.000000
v 1.125000 0.600000 -1.125000
v 1.875000 0.600000 0.000000
v 1.875000 0.315000 0.000000
v 1.125000 0.315000 0.000000
v 1.875000 0.600000 -1.875000
v 1.875000 0.630000 -1.875000
v 2.437500 0.630000 -2.437500
vt 3.000000 1.125000
vt 1.875000 1.125000
vt 2.437500 0.562500
vt 1.125000 0.300000
vt 1.125000 0.600000
vt 0.562500 0.630000
vt 0.562500 0.000000
vt 2.437500 0.000000
vt 1.875000 0.300000
vt -2.437500 -0.000000
vt -0.562500 -0.000000
vt -1.125000 0.315000
vt 1.125000 0.630000
vt -0.000000 0.630000
vt -0.000000 0.600000
vt 1.125000 1.875000
vt 1.125000 3.000000
vt 0.562500 2.437500
vt -0.562500 0.630000
vt -1.125000 0.600000
vt -1.125000 0.300000
vt 0.000000 0.000000
vt 1.125000 1.125000
vt 0.000000 1.125000
vt 0.562500 0.562500
vt 2.437500 0.630000
vt 1.875000 0.600000
vt 1.875000 0.315000
vt 3.000000 0.630000
vt 3.000000 0.000000
vt -1.125000 0.630000
vt -2.437500 0.630000
vt -3.000000 0.630000
vt -3.000000 0.000000
vt 2.437500 2.437500
vt 2.437500 3.000000
vt 1.875000 3.000000
vt -1.875000 0.630000
vt -3.000000 0.600000
vt -1.875000 0.600000
vt 1.875000 0.630000
vt 3.000000 0.600000
vt 3.000000 0.562500
vt 1.875000 0.000000
vt -0.562500 0.562500
vt 0.000000 0.562500
vt 0.000000 2.437500
vt -0.562500 2.437500
vt -2.437500 3.000000
vt -2.437500 2.437500
vt -0.562500 3.000000
vt -3.000000 0.562500
vt -2.437500 0.562500
vt -3.000000 2.437500
vt -1.875000 0.315000
vt 0.000000 1.875000
vt 0.562500 3.000000
vt -1.875000 0.300000
vt 1.125000 0.000000
vt 1.125000 0.315000
vt 3.000000 1.875000
vt 3.000000 2.437500
vt 1.875000 1.875000
vn 0.000000 1.000000 0.000000
vn 1.000000 0.000000 0.000000
vn 0.000000 0.000000 -1.000000
vn 0.000000 0.000000 1.000000
vn -1.000000 0.000000 0.000000
vn 0.000000 -1.000000 -0.000000
usemtl Stone.047
s 1
f 1/1/1 2/2/1 5/3/1
f 15/4/2 7/5/2 6/6/2 9/7/2
f 9/7/2 10/8/2 14/9/2
f 17/10/3 16/11/3 29/12/3
f 36/13/4 35/14/4 38/15/4 39/5/4
f 36/16/1 27/17/1 34/18/1
f 23/11/5 40/19/5 42/20/5 43/21/5
f 24/10/5 23/11/5 43/21/5
f 45/6/4 40/14/4 23/22/4 22/7/4
f 47/13/2 46/14/2 49/15/2 50/5/2
f 47/23/1 41/24/1 45/25/1
f 20/8/4 4/26/4 51/27/4 52/28/4
f 21/7/4 20/8/4 52/28/4
f 5/6/2 4/14/2 20/22/2 19/7/2
f 6/29/4 5/26/4 19/8/4 9/30/4
f 3/14/5 2/31/5 8/20/5 51/15/5
f 56/32/3 11/33/3 10/34/3 18/10/3
f 56/35/1 33/36/1 32/37/1
f 33/29/2 56/26/2 18/8/2 17/30/2
f 55/38/5 32/33/5 31/39/5 54/40/5
f 27/29/2 36/41/2 39/27/2 28/42/2
f 41/14/3 47/31/3 50/20/3 42/15/3
f 5/3/1 6/43/1 1/1/1
f 3/44/1 4/8/1 5/3/1
f 5/3/1 2/2/1 3/44/1
f 10/8/2 11/26/2 13/27/2 14/9/2
f 6/6/2 7/5/2 1/13/2
f 22/45/6 23/46/6 24/47/6 25/48/6
f 11/26/2 12/41/2 13/27/2
f 14/9/2 15/4/2 9/7/2
f 17/49/6 18/50/6 25/48/6 16/51/6
f 9/52/6 19/53/6 18/50/6 10/54/6
f 19/53/6 20/10/6 21/11/6 22/45/6
f 18/50/6 19/53/6 22/45/6 25/48/6
f 30/55/3 31/40/3 33/32/3 17/10/3
f 16/11/3 26/19/3 28/20/3 29/12/3
f 33/32/3 31/40/3 32/38/3
f 34/32/5 26/33/5 16/34/5 25/10/5
f 26/19/3 27/31/3 28/20/3
f 29/12/3 30/55/3 17/10/3
f 34/18/1 37/47/1 35/56/1
f 27/17/1 26/57/1 34/18/1
f 34/18/1 35/56/1 36/16/1
f 38/40/5 35/38/5 37/32/5
f 37/32/5 24/10/5 44/58/5 38/40/5
f 37/14/3 34/19/3 25/11/3 24/22/3
f 40/19/5 41/31/5 42/20/5
f 43/21/5 44/58/5 24/10/5
f 45/25/1 48/7/1 46/59/1
f 41/24/1 40/46/1 45/25/1
f 45/25/1 46/59/1 47/23/1
f 49/5/4 46/13/4 48/6/4
f 48/6/4 21/7/4 53/60/4 49/5/4
f 48/14/5 45/19/5 22/11/5 21/22/5
f 4/26/4 3/41/4 51/27/4
f 52/28/4 53/60/4 21/7/4
f 12/29/4 55/41/4 54/27/4 13/42/4
f 56/35/1 12/61/1 11/62/1
f 56/35/1 32/37/1 55/63/1
f 55/63/1 12/61/1 56/35/1
f 2/38/3 1/33/3 7/39/3 8/40/3
usemtl Asphalt.041
f 13/61/1 54/63/1 8/2/1 7/1/1
f 28/20/3 31/40/3 30/55/3 29/12/3
f 42/20/5 38/40/5 44/58/5 43/21/5
f 51/27/4 49/5/4 53/60/4 52/28/4
f 13/27/2 7/5/2 15/4/2 14/9/2
f 50/23/1 49/59/1 51/44/1 8/2/1
f 39/16/1 38/56/1 42/24/1 50/23/1
f 28/17/1 39/16/1 54/63/1 31/37/1
f 54/63/1 39/16/1 50/23/1 8/2/1
