# Blender v2.75 (sub 0) OBJ File: ''
# www.blender.org
mtllib roadTile_097.mtl
o Mesh1_Group1_Model.087
v 0.000000 0.630000 -3.000000
v 0.000000 0.630000 -0.461802
v 0.215767 0.630000 -0.215767
v 0.461802 0.630000 0.000000
v 3.000000 0.630000 0.000000
v 3.000000 0.630000 -3.000000
v 0.000000 0.000000 -3.000000
v 0.000000 0.000000 0.000000
v 0.000000 0.630000 0.000000
v 0.000000 0.630000 -0.178038
v 0.000000 0.570000 -0.178038
v 0.000000 0.570000 -0.461802
v 3.000000 0.000000 -0.000000
v 3.000000 0.000000 -3.000000
v 0.461802 0.570000 0.000000
v 0.178038 0.570000 0.000000
v 0.178038 0.630000 0.000000
v 0.215767 0.570000 -0.215767
v 0.083185 0.570000 -0.083184
v 0.083185 0.630000 -0.083184
vt 3.000000 3.000000
vt 0.215767 0.215767
vt 0.461802 -0.000000
vt -0.461802 0.570000
vt 0.000000 0.000000
vt -0.178038 0.570000
vt 3.000000 0.630000
vt 0.461802 0.630000
vt 0.461802 0.570000
vt 3.000000 -0.000000
vt 0.178038 0.570000
vt -3.000000 0.630000
vt -3.000000 0.000000
vt -0.000000 0.630000
vt 0.178038 -0.000000
vt 0.083185 0.083185
vt 0.000000 0.461802
vt -0.000000 3.000000
vt -3.000000 3.000000
vt -0.178038 0.630000
vt 0.178038 0.630000
vt -0.000000 0.178038
vt -0.461802 0.630000
vt 0.347201 0.630000
vt 0.019957 0.630000
vt 0.019957 0.570000
vt 0.347201 0.570000
vt -0.019957 0.630000
vt -0.347201 0.630000
vt -0.347201 0.570000
vt -0.019957 0.570000
vt 0.133856 0.630000
vt 0.007694 0.630000
vt 0.007694 0.570000
vt 0.133856 0.570000
vt -0.007694 0.630000
vt -0.133856 0.630000
vt -0.133856 0.570000
vt -0.007694 0.570000
vn -0.000000 1.000000 0.000000
vn -1.000000 0.000000 0.000000
vn 0.000000 -0.000000 1.000000
vn 0.000000 0.000000 -1.000000
vn 0.000000 -1.000000 -0.000000
vn 1.000000 0.000000 0.000000
vn -0.659300 0.000000 0.751800
vn -0.707100 0.000000 0.707100
vn -0.751800 0.000000 0.659300
vn 0.751800 0.000000 -0.659300
vn 0.707100 0.000000 -0.707100
vn 0.659300 0.000000 -0.751800
usemtl Stone.076
s 1
f 6/1/1 3/2/1 4/3/1
f 12/4/2 8/5/2 11/6/2
f 5/7/3 4/8/3 15/9/3 13/10/3
f 15/9/3 16/11/3 8/5/3
f 6/12/4 14/13/4 7/5/4 1/14/4
f 9/5/1 17/15/1 20/16/1
f 2/17/1 6/1/1 1/18/1
f 6/1/1 4/3/1 5/10/1
f 6/1/1 2/17/1 3/2/1
f 13/13/5 8/5/5 7/18/5 14/19/5
f 9/14/2 10/20/2 11/6/2
f 8/5/2 9/14/2 11/6/2
f 8/5/2 12/4/2 7/13/2
f 16/11/3 9/14/3 8/5/3
f 13/5/6 14/10/6 6/7/6 5/14/6
f 16/11/3 17/21/3 9/14/3
f 8/5/3 13/10/3 15/9/3
f 10/22/1 9/5/1 20/16/1
f 12/4/2 2/23/2 1/12/2 7/13/2
usemtl Grey_Asphalt.005
f 4/24/7 3/25/8 18/26/8 15/27/7
f 3/28/8 2/29/9 12/30/9 18/31/8
f 10/32/10 20/33/11 19/34/11 11/35/10
f 11/22/1 19/16/1 18/2/1
f 20/36/11 17/37/12 16/38/12 19/39/11
f 16/15/1 15/3/1 18/2/1
f 18/2/1 12/17/1 11/22/1
f 18/2/1 19/16/1 16/15/1
