# Blender v2.75 (sub 0) OBJ File: ''
# www.blender.org
mtllib roadTile_007.mtl
o Mesh1_Group1_Model.255
v 0.000000 1.650000 -3.000000
v 0.000000 1.650000 0.000000
v 3.000000 1.650000 0.000000
v 3.000000 1.650000 -3.000000
v 0.000000 0.000000 -3.000000
v 0.000000 0.000000 0.000000
v 3.000000 0.000000 -0.000000
v 3.000000 0.000000 -3.000000
vt -3.000000 0.000000
vt 0.000000 0.000000
vt 0.000000 1.650000
vt -3.000000 1.650000
vt 0.000000 3.000000
vt -3.000000 3.000000
vt 3.000000 0.000000
vt 3.000000 1.650000
vt 3.000000 3.000000
vn -1.000000 0.000000 0.000000
vn 0.000000 -1.000000 -0.000000
vn 0.000000 -0.000000 1.000000
vn 1.000000 0.000000 0.000000
vn 0.000000 0.000000 -1.000000
vn 0.000000 1.000000 0.000000
usemtl Stone.219
s 1
f 5/1/1 6/2/1 2/3/1 1/4/1
f 7/1/2 6/2/2 5/5/2 8/6/2
f 2/3/3 6/2/3 7/7/3 3/8/3
f 7/2/4 8/7/4 4/8/4 3/3/4
f 4/4/5 8/1/5 5/2/5 1/3/5
f 1/5/6 2/2/6 3/7/6 4/9/6
