# Blender v2.75 (sub 0) OBJ File: ''
# www.blender.org
mtllib roadTile_295.mtl
o Mesh1_Group1_Model.015
v 3.000000 0.630000 -2.250000
v 2.625000 0.630000 -2.250000
v 2.625000 0.630000 -2.625000
v 2.250000 0.630000 -2.625000
v 2.250000 0.630000 -1.875000
v 3.000000 0.630000 -1.875000
v 3.000000 0.000000 -2.250000
v 2.625000 0.000000 -2.250000
v 3.000000 0.000000 -0.000000
v 3.000000 0.600000 -1.875000
v 3.000000 0.300000 -1.875000
v 3.000000 0.300000 -0.375000
v 3.000000 0.600000 -0.375000
v 3.000000 0.630000 -0.375000
v 3.000000 0.630000 0.000000
v 0.000000 0.000000 -0.000000
v 0.000000 0.000000 -2.250000
v 0.375000 0.000000 -2.250000
v 0.375000 0.000000 -2.625000
v 2.625000 0.000000 -2.625000
v 0.000000 0.630000 0.000000
v 0.000000 0.630000 -0.375000
v 0.000000 0.600000 -0.375000
v 0.000000 0.300000 -0.375000
v 0.000000 0.300000 -1.875000
v 0.000000 0.600000 -1.875000
v 0.000000 0.630000 -1.875000
v 0.000000 0.630000 -2.250000
v 2.250000 0.600000 -1.875000
v 0.750000 0.600000 -1.875000
v 0.750000 0.630000 -2.625000
v 0.375000 0.630000 -2.625000
v 0.375000 0.630000 -2.250000
v 0.750000 0.630000 -1.875000
vt 2.625000 2.250000
vt 2.625000 2.625000
vt 2.250000 2.625000
vt 0.375000 0.300000
vt 0.375000 0.600000
vt 0.000000 0.630000
vt 0.000000 -0.000000
vt 2.250000 -0.000000
vt 1.875000 0.300000
vt 0.000000 0.375000
vt 3.000000 0.000000
vt 3.000000 0.375000
vt -1.875000 0.300000
vt -1.875000 0.600000
vt -2.250000 0.630000
vt -2.250000 -0.000000
vt -0.375000 0.300000
vt 3.000000 0.600000
vt 3.000000 0.630000
vt 2.250000 0.630000
vt 2.250000 0.600000
vt 2.250000 1.897480
vt 2.250000 2.648080
vt 0.750000 2.648080
vt 0.750000 1.897480
vt -2.625000 0.630000
vt -1.875000 0.630000
vt -2.625000 -0.000000
vt -0.375000 -0.000000
vt -0.750000 0.630000
vt 0.000000 0.600000
vt 0.750000 0.600000
vt 0.750000 0.630000
vt 0.000000 1.875000
vt 0.750000 1.875000
vt 0.375000 2.250000
vt -0.375000 0.630000
vt 1.875000 0.600000
vt 2.625000 0.630000
vt 1.875000 0.630000
vt 2.625000 -0.000000
vt 3.000000 1.875000
vt 3.000000 2.250000
vt 2.250000 1.875000
vt 0.375000 0.630000
vt -0.375000 2.250000
vt -0.375000 2.625000
vt -2.625000 2.625000
vt -2.625000 2.250000
vt -3.000000 0.000000
vt -3.000000 2.250000
vt 0.000000 2.250000
vt -0.375000 0.600000
vt -3.000000 0.600000
vt -3.000000 0.630000
vt 0.750000 2.625000
vt 0.375000 2.625000
vn -0.000000 1.000000 0.000000
vn 1.000000 -0.000000 0.000000
vn -1.000000 -0.000000 0.000000
vn 0.000000 0.000000 1.000000
vn 0.000000 0.999800 0.020000
vn 0.000000 0.999200 0.040000
vn 0.000000 0.000000 -1.000000
vn -0.000000 -1.000000 -0.000000
usemtl Stone
s 1
f 2/1/1 3/2/1 4/3/1
f 12/4/2 13/5/2 15/6/2 9/7/2
f 9/7/2 7/8/2 11/9/2
f 22/10/1 21/7/1 15/11/1 14/12/1
f 25/13/3 26/14/3 28/15/3 17/16/3
f 17/16/3 16/7/3 24/17/3
f 10/18/4 6/19/4 5/20/4 29/21/4
f 29/22/5 4/23/6 31/24/6 30/25/5
f 4/26/3 29/14/3 5/27/3
f 20/28/7 19/29/7 31/30/7 4/15/7
f 26/31/4 30/32/4 34/33/4 27/6/4
f 27/34/1 34/35/1 33/36/1
f 28/6/7 33/37/7 18/29/7 17/7/7
f 30/38/2 31/39/2 34/40/2
f 3/39/2 2/20/2 8/8/2 20/41/2
f 2/1/1 6/42/1 1/43/1
f 2/1/1 4/3/1 5/44/1
f 5/44/1 6/42/1 2/1/1
f 7/8/2 1/20/2 10/38/2 11/9/2
f 15/6/2 13/5/2 14/45/2
f 18/46/8 19/47/8 20/48/8 8/49/8
f 1/20/2 6/40/2 10/38/2
f 11/9/2 12/4/2 9/7/2
f 18/46/8 8/49/8 9/50/8 16/7/8
f 8/49/8 7/51/8 9/50/8
f 18/46/8 16/7/8 17/52/8
f 15/19/4 21/6/4 16/7/4 9/11/4
f 16/7/3 21/6/3 23/53/3 24/17/3
f 28/15/3 26/14/3 27/27/3
f 13/54/7 23/31/7 22/6/7 14/55/7
f 21/6/3 22/37/3 23/53/3
f 24/17/3 25/13/3 17/16/3
f 4/15/7 3/26/7 20/28/7
f 33/15/3 32/26/3 19/28/3 18/16/3
f 31/30/7 19/29/7 32/37/7
f 33/36/1 28/52/1 27/34/1
f 31/56/1 32/57/1 33/36/1
f 33/36/1 34/35/1 31/56/1
f 2/26/7 1/55/7 7/50/7 8/28/7
usemtl Asphalt
f 23/10/1 13/12/1 29/44/5 30/35/5
f 26/14/3 25/13/3 24/17/3 23/53/3
f 30/35/5 26/34/1 23/10/1
f 13/5/2 12/4/2 11/9/2 10/38/2
f 29/44/5 13/12/1 10/42/1
