# Blender v2.75 (sub 0) OBJ File: ''
# www.blender.org
mtllib roadTile_247.mtl
o Mesh1_Group1_Model.024
v 0.000000 0.470000 0.000000
v 1.718180 0.470000 0.000000
v 3.000000 0.000000 -0.000000
v 3.000000 1.100000 0.000000
v 0.000000 1.100000 0.000000
v 0.000000 0.470000 -3.000000
v 1.718180 0.470000 -3.000000
v 0.000000 1.100000 -3.000000
v 0.000000 1.100000 -0.750000
v 0.000000 1.070000 -0.750000
v 0.000000 0.770000 -0.750000
v 0.000000 0.770000 -2.250000
v 0.000000 1.070000 -2.250000
v 0.000000 1.100000 -2.250000
v 3.000000 1.100000 -3.000000
v 3.000000 0.000000 -3.000000
v 3.000000 1.100000 -2.250000
v 3.000000 1.070000 -2.250000
v 3.000000 0.770000 -2.250000
v 3.000000 0.770000 -0.750000
v 3.000000 1.070000 -0.750000
v 3.000000 1.100000 -0.750000
vt 0.000000 1.100000
vt 1.718180 0.470000
vt 3.000000 1.100000
vt 0.000000 0.470000
vt -0.750000 1.070000
vt -0.750000 0.770000
vt -3.000000 0.470000
vt -1.718180 0.470000
vt 0.000000 0.000000
vt 3.000000 0.000000
vt 2.250000 0.770000
vt 3.000000 2.250000
vt 3.000000 3.000000
vt 0.000000 3.000000
vt 0.000000 2.250000
vt 0.000000 1.070000
vt 3.000000 1.070000
vt -3.000000 1.070000
vt -3.000000 1.100000
vt 0.000000 0.750000
vt 3.000000 0.750000
vt -2.250000 1.070000
vt -2.250000 1.100000
vt -2.250000 0.770000
vt -0.000000 -2.816630
vt -0.000000 -1.451360
vt -3.000000 -1.451360
vt -3.000000 -2.816630
vt -0.750000 1.100000
vt -3.000000 0.000000
vt 0.750000 0.770000
vt 0.750000 1.070000
vt 0.750000 1.100000
vt 2.250000 1.070000
vt 2.250000 1.100000
vt -1.718180 3.000000
vt -1.718180 0.000000
vn 0.000000 -0.000000 1.000000
vn -1.000000 0.000000 -0.000000
vn 0.000000 0.000000 -1.000000
vn 1.000000 0.000000 0.000000
vn 0.000000 1.000000 0.000000
vn -0.344300 -0.938900 -0.000000
vn 0.000000 -1.000000 -0.000000
usemtl Stone.020
s 1
f 5/1/1 2/2/1 4/3/1
f 1/4/2 5/1/2 10/5/2 11/6/2
f 6/7/2 1/4/2 11/6/2
f 8/1/3 7/8/3 6/4/3
f 3/9/4 16/10/4 19/11/4
f 17/12/5 15/13/5 8/14/5 14/15/5
f 13/16/1 18/17/1 17/3/1 14/1/1
f 21/18/3 10/16/3 9/1/3 22/19/3
f 9/20/5 5/9/5 4/10/5 22/21/5
f 2/2/1 5/1/1 1/4/1
f 2/2/1 3/10/1 4/3/1
f 13/22/2 14/23/2 8/19/2
f 8/19/2 6/7/2 12/24/2 13/22/2
f 3/25/6 2/26/6 7/27/6 16/28/6
f 5/1/2 9/29/2 10/5/2
f 11/6/2 12/24/2 6/7/2
f 7/8/3 8/1/3 15/19/3
f 15/19/3 16/30/3 7/8/3
f 20/31/4 4/1/4 3/9/4
f 4/1/4 21/32/4 22/33/4
f 15/3/4 18/34/4 19/11/4
f 20/31/4 21/32/4 4/1/4
f 15/3/4 17/35/4 18/34/4
f 19/11/4 20/31/4 3/9/4
f 16/10/4 15/3/4 19/11/4
f 1/9/7 6/14/7 7/36/7 2/37/7
usemtl Asphalt.018
f 18/12/5 13/15/5 10/20/5 21/21/5
f 13/22/2 12/24/2 11/6/2 10/5/2
f 21/32/4 20/31/4 19/11/4 18/34/4
