# Blender v2.75 (sub 0) OBJ File: ''
# www.blender.org
mtllib roadTile_188.mtl
o Mesh1_Group1_Model.230
v 3.000000 0.550000 -2.250000
v 2.625000 0.550000 -2.250000
v 2.625000 0.455000 -2.250000
v 3.000000 0.455000 -2.250000
v 3.000000 0.550000 -3.000000
v 2.625000 0.550000 -3.000000
v 3.000000 0.000000 -3.000000
v 2.625000 0.000000 -3.000000
v 3.000000 0.000000 -0.000000
v 2.625000 0.000000 -0.000000
v 3.000000 0.000000 -2.250000
v 3.000000 0.000000 -0.750000
v 3.000000 0.550000 0.000000
v 2.625000 0.550000 0.000000
v 3.000000 0.550000 -0.750000
v 2.625000 0.550000 -0.750000
v 3.000000 0.455000 -0.750000
v 2.625000 0.455000 -0.750000
v 2.625000 0.630000 0.000000
v 2.625000 0.630000 -3.000000
v 2.250000 0.630000 0.000000
v 2.250000 0.600000 0.000000
v 2.250000 0.300000 0.000000
v 0.750000 0.300000 0.000000
v 0.750000 0.600000 0.000000
v 0.750000 0.630000 0.000000
v 0.375000 0.630000 0.000000
v 0.375000 0.550000 0.000000
v 0.375000 0.000000 -0.000000
v 0.375000 0.000000 -3.000000
v 0.375000 0.550000 -3.000000
v 0.375000 0.630000 -3.000000
v 0.750000 0.630000 -3.000000
v 0.750000 0.600000 -3.000000
v 0.750000 0.300000 -3.000000
v 2.250000 0.300000 -3.000000
v 2.250000 0.600000 -3.000000
v 2.250000 0.630000 -3.000000
v 0.375000 0.550000 -0.750000
v 0.375000 0.455000 -0.750000
v 0.375000 0.455000 -2.250000
v 0.375000 0.550000 -2.250000
v 0.000000 0.000000 0.000000
v 0.000000 0.550000 0.000000
v 0.000000 0.000000 -3.000000
v 0.000000 0.000000 -0.750000
v 0.000000 0.000000 -2.250000
v 0.000000 0.550000 -3.000000
v 0.000000 0.550000 -2.250000
v 0.000000 0.455000 -2.250000
v 0.000000 0.455000 -0.750000
v 0.000000 0.550000 -0.750000
vt 3.000000 2.250000
vt 2.625000 2.250000
vt 2.625000 0.750000
vt 3.000000 0.750000
vt 0.000000 0.750000
vt 0.375000 0.750000
vt 0.375000 2.250000
vt 0.000000 2.250000
vt 0.750000 0.000000
vt 2.250000 0.000000
vt 2.250000 0.455000
vt 0.750000 0.455000
vt -2.250000 0.000000
vt -0.750000 0.000000
vt -0.750000 0.455000
vt -2.250000 0.455000
vt 0.750000 0.550000
vt 2.250000 0.550000
vt -0.000000 0.630000
vt 2.625000 0.000000
vt 2.250000 0.300000
vt 0.750000 0.300000
vt 3.000000 0.000000
vt -0.375000 0.000000
vt -0.750000 0.300000
vt -2.250000 0.300000
vt 0.000000 0.000000
vt -2.250000 0.550000
vt -0.750000 0.550000
vt -3.000000 0.630000
vt -0.000000 0.600000
vt 3.000000 0.600000
vt 3.000000 0.630000
vt -3.000000 0.600000
vt 2.625000 3.000000
vt 2.250000 3.000000
vt 0.750000 0.600000
vt 0.375000 0.550000
vt 0.375000 0.000000
vt 3.000000 0.550000
vt -0.000000 0.550000
vt 2.250000 0.600000
vt 2.625000 0.550000
vt 2.625000 0.630000
vt 2.250000 0.630000
vt 0.750000 0.630000
vt 0.375000 0.630000
vt -2.250000 0.600000
vt -2.250000 0.630000
vt -2.625000 0.630000
vt -2.625000 0.550000
vt -0.750000 0.600000
vt -0.375000 0.550000
vt -0.375000 0.630000
vt -0.750000 0.630000
vt -2.625000 0.000000
vt -3.000000 0.550000
vt -3.000000 0.000000
vt 0.750000 3.000000
vt 0.375000 3.000000
vt -0.375000 3.000000
vt -2.625000 3.000000
vt 3.000000 3.000000
vt -3.000000 0.750000
vt -3.000000 2.250000
vt -3.000000 0.455000
vt -2.625000 0.455000
vt -0.000000 3.000000
vt 0.000000 0.455000
vt 0.375000 0.455000
vt -0.375000 0.455000
vt -3.000000 3.000000
vt 2.625000 0.455000
vt 3.000000 0.455000
vn 0.000000 1.000000 0.000000
vn 1.000000 0.000000 0.000000
vn -1.000000 -0.000000 0.000000
vn 0.000000 -0.000000 1.000000
vn 0.000000 0.000000 -1.000000
vn 0.000000 -1.000000 -0.000000
usemtl Water.036
s 1
f 4/1/1 3/2/1 18/3/1 17/4/1
f 51/5/1 40/6/1 41/7/1 50/8/1
f 12/9/2 11/10/2 4/11/2 17/12/2
f 47/13/3 46/14/3 51/15/3 50/16/3
usemtl Stone.198
f 16/17/2 18/12/2 3/11/2 2/18/2
f 19/19/2 16/17/2 2/18/2
f 10/20/4 23/21/4 24/22/4
f 8/23/2 3/11/2 18/12/2
f 30/24/5 35/25/5 36/26/5
f 29/27/3 40/15/3 41/16/3
f 42/28/3 41/16/3 40/15/3 39/29/3
f 32/30/3 42/28/3 39/29/3
f 25/31/2 34/32/2 33/33/2 26/19/2
f 37/34/3 22/31/3 21/19/3 38/30/3
f 21/10/1 19/20/1 20/35/1 38/36/1
f 2/18/2 20/33/2 19/19/2
f 24/22/4 25/37/4 28/38/4 29/39/4
f 2/18/2 6/40/2 20/33/2
f 19/19/2 14/41/2 16/17/2
f 22/42/4 14/43/4 19/44/4 21/45/4
f 25/37/4 26/46/4 27/47/4 28/38/4
f 10/20/4 14/43/4 22/42/4 23/21/4
f 14/41/2 10/27/2 18/12/2 16/17/2
f 24/22/4 29/39/4 10/20/4
f 18/12/2 10/27/2 8/23/2
f 8/23/2 6/40/2 2/18/2 3/11/2
f 37/48/5 38/49/5 20/50/5 6/51/5
f 34/52/5 31/53/5 32/54/5 33/55/5
f 36/26/5 37/48/5 6/51/5 8/56/5
f 30/24/5 31/53/5 34/52/5 35/25/5
f 31/57/3 30/58/3 41/16/3 42/28/3
f 36/26/5 8/56/5 30/24/5
f 41/16/3 30/58/3 29/27/3
f 29/27/3 28/41/3 39/29/3 40/15/3
f 39/29/3 27/19/3 32/30/3
f 33/59/1 32/60/1 27/39/1 26/9/1
f 39/29/3 28/41/3 27/19/3
f 32/30/3 31/57/3 42/28/3
f 10/56/6 29/24/6 30/61/6 8/62/6
usemtl Grass.096
f 5/63/1 6/35/1 2/2/1 1/1/1
f 7/58/5 8/56/5 6/51/5 5/57/5
f 13/40/4 14/43/4 10/20/4 9/23/4
f 12/64/6 10/56/6 11/65/6
f 15/4/1 16/3/1 14/20/1 13/23/1
f 17/66/5 18/67/5 16/51/5 15/57/5
f 48/41/5 31/53/5 30/24/5 45/27/5
f 47/8/6 30/61/6 46/5/6
f 49/8/1 42/7/1 31/60/1 48/68/1
f 50/69/4 41/70/4 42/38/4 49/41/4
f 52/41/5 39/53/5 40/71/5 51/69/5
f 44/27/1 28/39/1 39/6/1 52/5/1
f 44/41/3 51/15/3 46/14/3 43/27/3
f 45/58/3 47/13/3 50/16/3 48/57/3
f 5/40/2 4/11/2 11/10/2 7/23/2
f 10/56/6 12/64/6 9/58/6
f 8/62/6 7/72/6 11/65/6
f 11/65/6 10/56/6 8/62/6
f 43/27/4 29/39/4 28/38/4 44/41/4
f 30/61/6 47/8/6 45/68/6
f 29/24/6 43/27/6 46/5/6
f 46/5/6 30/61/6 29/24/6
f 51/15/3 44/41/3 52/29/3
f 48/57/3 50/16/3 49/28/3
f 4/11/2 5/40/2 1/18/2
f 9/27/2 12/9/2 17/12/2 13/41/2
f 13/41/2 17/12/2 15/17/2
f 1/40/4 2/43/4 3/73/4 4/74/4
usemtl Asphalt.165
f 34/59/1 25/9/1 22/10/1 37/36/1
f 24/22/4 23/21/4 22/42/4 25/37/4
f 36/26/5 35/25/5 34/52/5 37/48/5
