# Blender v2.75 (sub 0) OBJ File: ''
# www.blender.org
mtllib roadTile_191.mtl
o Mesh1_Group1_Model.137
v 0.000000 0.000000 -2.625000
v 0.000000 0.000000 -0.375000
v 0.000000 1.650000 -0.375000
v 0.000000 1.730000 -0.375000
v 0.000000 1.730000 -0.750000
v 0.000000 0.600000 -0.750000
v 0.000000 0.300000 -0.750000
v 0.000000 0.300000 -2.250000
v 0.000000 0.600000 -2.250000
v 0.000000 1.730000 -2.250000
v 0.000000 1.730000 -2.625000
v 0.000000 1.650000 -2.625000
v 3.000000 0.000000 -0.000000
v 0.000000 0.000000 -0.000000
v 0.000000 0.000000 -3.000000
v 3.000000 0.000000 -3.000000
v 3.000000 0.000000 -2.625000
v 3.000000 0.000000 -0.375000
v 3.000000 0.550000 0.000000
v 0.000000 1.650000 0.000000
v 3.000000 0.550000 -0.375000
v 3.000000 0.550000 -2.625000
v 3.000000 0.630000 -2.625000
v 3.000000 0.630000 -2.250000
v 3.000000 0.600000 -2.250000
v 3.000000 0.300000 -2.250000
v 3.000000 0.300000 -0.750000
v 3.000000 0.600000 -0.750000
v 3.000000 0.630000 -0.750000
v 3.000000 0.630000 -0.375000
v 3.000000 0.550000 -3.000000
v 0.000000 1.650000 -3.000000
vt -2.625000 -0.000000
vt -0.375000 -0.000000
vt -0.750000 0.300000
vt 0.750000 0.300000
vt 0.750000 0.600000
vt 0.375000 0.550000
vt 0.375000 -0.000000
vt 2.625000 -0.000000
vt 2.250000 0.300000
vt -0.000000 1.730000
vt -3.000000 0.630000
vt -3.000000 0.550000
vt -0.000000 1.650000
vt 2.250000 -2.599750
vt 2.625000 -2.599750
vt 2.625000 0.595561
vt 2.250000 0.595561
vt 0.000000 0.600000
vt 3.000000 0.600000
vt 3.000000 0.630000
vt -3.000000 0.600000
vt 0.750000 0.595561
vt 0.375000 0.595561
vt 0.375000 -2.599750
vt 0.750000 -2.599750
vt 3.000000 0.550000
vt -2.250000 0.600000
vt -2.625000 1.650000
vt -2.250000 1.730000
vt -2.625000 1.730000
vt -0.750000 0.600000
vt -0.375000 1.650000
vt -0.750000 1.730000
vt -2.250000 0.300000
vt -0.375000 1.730000
vt 0.750000 0.630000
vt 0.375000 0.630000
vt 2.625000 0.550000
vt 2.250000 0.600000
vt 2.625000 0.630000
vt 2.250000 0.630000
vt 0.000000 -0.000000
vt 0.000000 0.550000
vt 3.000000 -2.627290
vt 3.000000 0.568020
vt 2.625000 0.568020
vt 2.625000 -2.627290
vt -3.000000 -0.000000
vt -3.000000 1.650000
vt 0.000000 -2.627290
vt 0.375000 -2.627290
vt 0.375000 0.568020
vt 0.000000 0.568020
vt -3.000000 2.625000
vt -0.000000 2.625000
vt -0.000000 3.000000
vt -3.000000 3.000000
vt -0.000000 0.375000
vt -3.000000 0.375000
vt 3.000000 -0.000000
vt 0.000000 0.750000
vt 3.000000 0.750000
vt 3.000000 2.250000
vt 0.000000 2.250000
vn -1.000000 -0.000000 -0.000000
vn 1.000000 -0.000000 0.000000
vn -0.000000 0.000000 -1.000000
vn 0.344300 0.938900 0.000000
vn 0.000000 0.000000 1.000000
vn 0.000000 -1.000000 -0.000000
vn 0.000000 1.000000 0.000000
usemtl Stone.120
s 1
f 1/1/1 2/2/1 7/3/1
f 27/4/2 28/5/2 21/6/2 18/7/2
f 18/7/2 17/8/2 26/9/2
f 11/10/3 23/11/3 22/12/3 12/13/3
f 24/14/4 23/15/4 11/16/4 10/17/4
f 10/10/5 9/18/5 25/19/5 24/20/5
f 5/10/3 29/11/3 28/21/3 6/18/3
f 5/22/4 4/23/4 30/24/4 29/25/4
f 4/10/5 3/13/5 21/26/5 30/20/5
f 9/27/1 12/28/1 1/1/1
f 12/28/1 10/29/1 11/30/1
f 2/2/1 6/31/1 7/3/1
f 12/28/1 9/27/1 10/29/1
f 3/32/1 5/33/1 6/31/1
f 8/34/1 9/27/1 1/1/1
f 3/32/1 4/35/1 5/33/1
f 7/3/1 8/34/1 1/1/1
f 2/2/1 3/32/1 6/31/1
f 21/6/2 28/5/2 29/36/2 30/37/2
f 17/8/2 22/38/2 25/39/2 26/9/2
f 23/40/2 24/41/2 25/39/2 22/38/2
f 26/9/2 27/4/2 18/7/2
usemtl Grass.055
f 13/42/2 18/7/2 21/6/2 19/43/2
f 31/44/4 32/45/4 12/46/4 22/47/4
f 16/48/3 15/42/3 32/13/3 31/12/3
f 15/48/1 1/1/1 12/28/1 32/49/1
f 19/50/4 21/51/4 3/52/4 20/53/4
f 20/13/1 3/32/1 2/2/1 14/42/1
f 17/54/6 1/55/6 15/56/6 16/57/6
f 2/58/6 1/55/6 17/54/6 18/59/6
f 13/60/5 19/26/5 20/13/5 14/42/5
f 31/26/2 22/38/2 17/8/2 16/60/2
f 13/48/6 14/42/6 2/58/6 18/59/6
usemtl Asphalt.101
f 6/61/7 28/62/7 25/63/7 9/64/7
f 25/39/2 28/5/2 27/4/2 26/9/2
f 6/31/1 9/27/1 8/34/1 7/3/1
