# Blender v2.75 (sub 0) OBJ File: ''
# www.blender.org
mtllib roadTile_272.mtl
o Mesh1_Group1_Model.185
v 3.000000 0.455000 0.000000
v 3.000000 0.000000 -0.000000
v 3.000000 0.000000 -3.000000
v 3.000000 0.455000 -3.000000
v 0.750000 0.455000 0.000000
v 0.750000 0.000000 -0.000000
v 0.375000 0.630000 0.000000
v 0.375000 0.550000 0.000000
v 0.375000 0.000000 -0.000000
v 0.750000 0.630000 0.000000
v 0.371792 0.550000 -0.048947
v 0.371792 0.630000 -0.048947
v 0.000000 0.550000 0.000000
v 0.362222 0.550000 -0.097057
v 0.346455 0.550000 -0.143506
v 0.324760 0.550000 -0.187500
v 0.297508 0.550000 -0.228286
v 0.265165 0.550000 -0.265165
v 0.228286 0.550000 -0.297508
v 0.187500 0.550000 -0.324760
v 0.143506 0.550000 -0.346455
v 0.097057 0.550000 -0.362222
v 0.048947 0.550000 -0.371792
v 0.000000 0.550000 -0.375000
v 0.000000 0.000000 0.000000
v 0.000000 0.000000 -0.375000
v 0.000000 0.000000 -0.750000
v 0.000000 0.000000 -3.000000
v 0.000000 0.630000 -0.375000
v 0.000000 0.630000 -0.750000
v 0.000000 0.455000 -0.750000
v 0.048947 0.630000 -0.371792
v 0.097057 0.630000 -0.362222
v 0.143506 0.630000 -0.346455
v 0.187500 0.630000 -0.324760
v 0.228286 0.630000 -0.297508
v 0.265165 0.630000 -0.265165
v 0.297508 0.630000 -0.228286
v 0.324760 0.630000 -0.187500
v 0.346455 0.630000 -0.143506
v 0.362222 0.630000 -0.097057
v 0.743584 0.630000 -0.097895
v 0.724444 0.630000 -0.194114
v 0.692910 0.630000 -0.287013
v 0.649519 0.630000 -0.375000
v 0.595015 0.630000 -0.456571
v 0.530330 0.630000 -0.530330
v 0.456571 0.630000 -0.595015
v 0.375000 0.630000 -0.649519
v 0.287013 0.630000 -0.692910
v 0.194114 0.630000 -0.724444
v 0.097895 0.630000 -0.743584
v 0.743584 0.455000 -0.097895
v 0.724444 0.455000 -0.194114
v 0.692910 0.455000 -0.287013
v 0.649519 0.455000 -0.375000
v 0.595015 0.455000 -0.456571
v 0.530330 0.455000 -0.530330
v 0.456571 0.455000 -0.595015
v 0.375000 0.455000 -0.649519
v 0.287013 0.455000 -0.692910
v 0.194114 0.455000 -0.724444
v 0.097895 0.455000 -0.743584
v 0.000000 0.455000 -3.000000
vt 0.750000 0.455000
vt 0.750000 0.000000
vt 3.000000 0.000000
vt 3.000000 0.455000
vt -0.000000 -0.000000
vt -0.000000 0.455000
vt -3.000000 0.455000
vt -3.000000 -0.000000
vt 3.000000 3.000000
vt 0.000000 3.000000
vt 0.456571 0.595015
vt -0.750000 0.455000
vt -0.750000 0.000000
vt 0.595015 0.456571
vt 0.000000 0.750000
vt 0.097895 0.743584
vt 0.743584 0.097895
vt 0.194114 0.724444
vt 0.724444 0.194114
vt 0.287013 0.692910
vt 0.692910 0.287013
vt 0.375000 0.649519
vt 0.649519 0.375000
vt 0.530330 0.530330
vt 0.375000 0.550000
vt 0.750000 0.630000
vt 0.375000 0.630000
vt -0.375000 0.000000
vt -0.375000 0.550000
vt -0.024526 0.550000
vt 0.024526 0.550000
vt 0.024526 0.630000
vt -0.024526 0.630000
vt 0.000000 0.375000
vt 0.048947 0.371792
vt 0.049052 0.455000
vt 0.049052 0.630000
vt -0.049052 0.630000
vt -0.049052 0.455000
vt 0.375000 0.000000
vt -0.375000 0.630000
vt -0.750000 0.630000
vt 0.097057 0.362222
vt 0.143506 0.346455
vt 0.187500 0.324760
vt 0.228286 0.297508
vt 0.265165 0.265165
vt 0.297508 0.228286
vt 0.324760 0.187500
vt 0.346455 0.143506
vt 0.362222 0.097057
vt 0.371792 0.048947
vt 0.000000 0.550000
vt -3.000000 3.000000
vn 0.000000 -0.000000 1.000000
vn 0.000000 0.000000 -1.000000
vn 0.000000 1.000000 0.000000
vn -1.000000 -0.000000 -0.000000
vn 1.000000 0.000000 0.000000
vn -0.130500 0.000000 0.991400
vn -0.258800 0.000000 0.965900
vn -0.382700 0.000000 0.923900
vn -0.500000 0.000000 0.866000
vn -0.608800 0.000000 0.793400
vn -0.707100 0.000000 0.707100
vn -0.793400 0.000000 0.608800
vn -0.866000 0.000000 0.500000
vn -0.923900 0.000000 0.382700
vn -0.965900 -0.000000 0.258800
vn -0.991400 -0.000000 0.130500
vn 0.965900 0.000000 -0.258800
vn 0.991400 -0.000000 -0.130500
vn 0.923900 0.000000 -0.382700
vn 0.866000 0.000000 -0.500000
vn 0.793400 0.000000 -0.608800
vn 0.707100 0.000000 -0.707100
vn 0.608800 0.000000 -0.793400
vn 0.500000 0.000000 -0.866000
vn 0.382700 0.000000 -0.923900
vn 0.258800 0.000000 -0.965900
vn 0.130500 0.000000 -0.991400
vn 0.065400 0.000000 -0.997900
vn -0.997900 0.000000 0.065400
vn -0.065400 0.000000 0.997900
vn 0.997900 -0.000000 -0.065400
vn -0.000000 -1.000000 -0.000000
usemtl Water.026
s 1
f 5/1/1 6/2/1 2/3/1 1/4/1
f 28/5/2 64/6/2 4/7/2 3/8/2
f 4/9/3 64/10/3 59/11/3
f 31/12/4 64/7/4 28/8/4 27/13/4
f 57/14/3 1/3/3 4/9/3
f 64/10/3 31/15/3 63/16/3
f 53/17/3 5/2/3 1/3/3
f 64/10/3 63/16/3 62/18/3
f 54/19/3 53/17/3 1/3/3
f 64/10/3 62/18/3 61/20/3
f 55/21/3 54/19/3 1/3/3
f 64/10/3 61/20/3 60/22/3
f 56/23/3 55/21/3 1/3/3
f 64/10/3 60/22/3 59/11/3
f 57/14/3 56/23/3 1/3/3
f 4/9/3 59/11/3 58/24/3
f 58/24/3 57/14/3 4/9/3
f 1/6/5 2/5/5 3/3/5 4/4/5
usemtl Stone.157
f 8/25/1 5/1/1 10/26/1 7/27/1
f 26/28/4 24/29/4 31/12/4 27/13/4
f 23/30/6 22/31/7 33/32/7 32/33/6
f 22/30/7 21/31/8 34/32/8 33/33/7
f 21/30/8 20/31/9 35/32/9 34/33/8
f 20/30/9 19/31/10 36/32/10 35/33/9
f 19/30/10 18/31/11 37/32/11 36/33/10
f 18/30/11 17/31/12 38/32/12 37/33/11
f 17/30/12 16/31/13 39/32/13 38/33/12
f 16/30/13 15/31/14 40/32/14 39/33/13
f 15/30/14 14/31/15 41/32/15 40/33/14
f 14/30/15 11/31/16 12/32/16 41/33/15
f 30/15/3 29/34/3 32/35/3 52/16/3
f 54/36/17 43/37/17 42/38/18 53/39/18
f 55/36/19 44/37/19 43/38/17 54/39/17
f 56/36/20 45/37/20 44/38/19 55/39/19
f 57/36/21 46/37/21 45/38/20 56/39/20
f 58/36/22 47/37/22 46/38/21 57/39/21
f 59/36/23 48/37/23 47/38/22 58/39/22
f 60/36/24 49/37/24 48/38/23 59/39/23
f 61/36/25 50/37/25 49/38/24 60/39/24
f 62/36/26 51/37/26 50/38/25 61/39/25
f 63/36/27 52/37/27 51/38/26 62/39/26
f 31/36/28 30/37/28 52/38/27 63/39/27
f 5/1/1 8/25/1 9/40/1 6/2/1
f 11/30/16 8/31/29 7/32/29 12/33/16
f 31/12/4 24/29/4 29/41/4 30/42/4
f 24/30/30 23/31/6 32/32/6 29/33/30
f 51/18/3 33/43/3 34/44/3 50/20/3
f 49/22/3 35/45/3 36/46/3 48/11/3
f 37/47/3 38/48/3 46/14/3 47/24/3
f 46/14/3 38/48/3 39/49/3 45/23/3
f 43/19/3 44/21/3 40/50/3 41/51/3
f 42/17/3 12/52/3 7/40/3 10/2/3
f 33/43/3 51/18/3 52/16/3 32/35/3
f 42/17/3 43/19/3 41/51/3 12/52/3
f 35/45/3 49/22/3 50/20/3 34/44/3
f 44/21/3 45/23/3 39/49/3 40/50/3
f 37/47/3 47/24/3 48/11/3 36/46/3
f 53/36/18 42/37/18 10/38/31 5/39/31
usemtl Grass.075
f 25/5/1 9/40/1 8/25/1 13/53/1
f 13/5/3 17/48/3 18/47/3
f 13/53/4 24/29/4 26/28/4 25/5/4
f 26/34/32 27/15/32 6/13/32
f 23/35/3 24/34/3 13/5/3
f 13/5/3 22/43/3 23/35/3
f 13/5/3 20/45/3 21/44/3
f 13/5/3 18/47/3 19/46/3
f 13/5/3 16/49/3 17/48/3
f 13/5/3 14/51/3 15/50/3
f 13/5/3 8/40/3 11/52/3
f 21/44/3 22/43/3 13/5/3
f 13/5/3 19/46/3 20/45/3
f 13/5/3 15/50/3 16/49/3
f 14/51/3 13/5/3 11/52/3
f 3/54/32 2/8/32 6/13/32
f 26/34/32 9/28/32 25/5/32
f 3/54/32 27/15/32 28/10/32
f 6/13/32 9/28/32 26/34/32
f 27/15/32 3/54/32 6/13/32
