# Blender v2.75 (sub 0) OBJ File: ''
# www.blender.org
mtllib roadTile_263.mtl
o Mesh1_Group1_Model.006
v 3.000000 0.000000 -0.750000
v 3.000000 0.000000 -2.250000
v 3.000000 1.650000 -2.250000
v 3.000000 1.650000 -0.750000
v 3.000000 0.000000 -0.000000
v 0.000000 0.000000 0.000000
v 0.000000 0.000000 -3.000000
v 3.000000 0.000000 -3.000000
v 3.000000 0.000000 -2.625000
v 3.000000 0.000000 -0.375000
v 0.000000 1.650000 0.000000
v 3.000000 1.650000 0.000000
v 0.000000 1.650000 -3.000000
v 3.000000 1.650000 -0.375000
v 3.000000 1.650000 -2.625000
v 3.000000 1.650000 -3.000000
vt 0.750000 0.000000
vt 2.250000 0.000000
vt 2.250000 1.650000
vt 0.750000 1.650000
vt 0.375000 1.650000
vt 0.375000 0.000000
vt 2.625000 0.000000
vt 2.625000 1.650000
vt -3.000000 0.750000
vt -0.000000 -0.000000
vt 0.000000 3.000000
vt -3.000000 2.250000
vt -3.000000 2.625000
vt -3.000000 0.000000
vt 0.000000 1.650000
vt -3.000000 1.650000
vt 3.000000 0.750000
vt 3.000000 2.250000
vt 3.000000 1.650000
vt 3.000000 0.000000
vt -3.000000 0.375000
vt -3.000000 3.000000
vt 3.000000 2.625000
vt 3.000000 3.000000
vt 3.000000 0.375000
vn 1.000000 0.000000 0.000000
vn 0.000000 -1.000000 -0.000000
vn -1.000000 -0.000000 0.000000
vn 0.000000 1.000000 0.000000
vn 0.000000 0.000000 -1.000000
vn 0.000000 -0.000000 1.000000
usemtl Water

s 1
f 1/1/1 2/2/1 3/3/1 4/4/1
usemtl Stone
f 4/4/1 14/5/1 10/6/1 1/1/1
f 2/2/1 9/7/1 15/8/1 3/3/1
usemtl Grass
f 1/9/2 6/10/2 7/11/2 2/12/2
f 2/12/2 7/11/2 9/13/2
f 7/14/3 6/10/3 11/15/3 13/16/3
f 13/11/4 11/10/4 4/17/4 3/18/4
f 16/19/1 15/8/1 9/7/1 8/20/1
f 16/16/5 8/14/5 7/10/5 13/15/5
f 6/10/2 10/21/2 5/14/2
f 11/15/6 6/10/6 5/20/6 12/19/6
f 7/11/2 8/22/2 9/13/2
f 6/10/2 1/9/2 10/21/2
f 15/23/4 16/24/4 13/11/4
f 13/11/4 3/18/4 15/23/4
f 11/10/4 14/25/4 4/17/4
f 14/25/4 11/10/4 12/20/4
f 5/10/1 10/6/1 14/5/1 12/15/1
