# Blender v2.75 (sub 0) OBJ File: ''
# www.blender.org
mtllib roadTile_029.mtl
o Mesh1_Group1_Model.135
v 0.000000 0.000000 -3.000000
v 0.000000 0.000000 0.000000
v 0.000000 0.550000 0.000000
v 0.000000 0.550000 -3.000000
v 3.000000 0.000000 -3.000000
v 2.974330 0.000000 -2.608420
v 2.897780 0.000000 -2.223540
v 2.771640 0.000000 -1.851950
v 2.598080 0.000000 -1.500000
v 2.380060 0.000000 -1.173720
v 2.121320 0.000000 -0.878680
v 1.826280 0.000000 -0.619940
v 1.500000 0.000000 -0.401924
v 1.148050 0.000000 -0.228361
v 0.776457 0.000000 -0.102223
v 0.391579 0.000000 -0.025665
v 3.000000 0.550000 -3.000000
v 0.391579 0.550000 -0.025665
v 0.776457 0.550000 -0.102223
v 1.148050 0.550000 -0.228361
v 1.500000 0.550000 -0.401924
v 1.826280 0.550000 -0.619940
v 2.121320 0.550000 -0.878680
v 2.380060 0.550000 -1.173720
v 2.598080 0.550000 -1.500000
v 2.771640 0.550000 -1.851950
v 2.897780 0.550000 -2.223540
v 2.974330 0.550000 -2.608420
vt 0.000000 0.000000
vt 0.000000 0.550000
vt -3.000000 0.550000
vt -3.000000 0.000000
vt -0.000000 3.000000
vt -2.380060 1.173720
vt -2.121320 0.878680
vt 0.392419 0.550000
vt 0.392419 0.000000
vt 1.826280 0.619940
vt 2.121320 0.878680
vt 0.781480 0.550000
vt 0.389062 0.550000
vt 0.389062 0.000000
vt 0.781480 0.000000
vt 1.160530 0.550000
vt 0.768109 0.550000
vt 0.768109 0.000000
vt 1.160530 0.000000
vt 1.523080 0.550000
vt 1.130660 0.550000
vt 1.130660 0.000000
vt 1.523080 0.000000
vt 1.862920 0.550000
vt 1.470500 0.550000
vt 1.470500 0.000000
vt 1.862920 0.000000
vt 2.174250 0.550000
vt 1.781830 0.550000
vt 1.781830 0.000000
vt 2.174250 0.000000
vt 2.451730 0.550000
vt 2.059310 0.550000
vt 2.059310 0.000000
vt 2.451730 0.000000
vt 2.690620 0.550000
vt 2.298200 0.550000
vt 2.298200 0.000000
vt 2.690620 0.000000
vt 2.886830 0.550000
vt 2.494410 0.550000
vt 2.494410 0.000000
vt 2.886830 0.000000
vt 3.037000 0.550000
vt 2.644580 0.550000
vt 2.644580 0.000000
vt 3.037000 0.000000
vt 3.138570 0.550000
vt 2.746150 0.550000
vt 2.746150 0.000000
vt 3.138570 0.000000
vt 3.189790 0.550000
vt 2.797370 0.550000
vt 2.797370 0.000000
vt 3.189790 0.000000
vt -0.391579 0.025665
vt -0.776457 0.102223
vt -1.500000 0.401924
vt -1.148050 0.228361
vt -1.826280 0.619940
vt -2.598080 1.500000
vt -2.897780 2.223540
vt -2.771640 1.851950
vt -3.000000 3.000000
vt -2.974330 2.608420
vt 2.974330 2.608420
vt 3.000000 3.000000
vt 2.897780 2.223540
vt 2.598080 1.500000
vt 2.771640 1.851950
vt 2.380060 1.173720
vt 1.500000 0.401924
vt 0.776457 0.102223
vt 1.148050 0.228361
vt 0.391579 0.025665
vn 0.000000 0.000000 -1.000000
vn 0.000000 -1.000000 -0.000000
vn 0.130500 -0.000000 0.991400
vn 0.065400 -0.000000 0.997900
vn -0.000000 1.000000 0.000000
vn 0.258800 -0.000000 0.965900
vn 0.382700 -0.000000 0.923900
vn 0.500000 -0.000000 0.866000
vn 0.608800 0.000000 0.793400
vn 0.707100 0.000000 0.707100
vn 0.793400 0.000000 0.608800
vn 0.866000 0.000000 0.500000
vn 0.923900 0.000000 0.382700
vn 0.965900 0.000000 0.258800
vn 0.991400 0.000000 0.130500
vn 0.997900 0.000000 0.065400
vn -1.000000 0.000000 -0.000000
usemtl Grass.054
s 1
f 1/1/1 4/2/1 17/3/1 5/4/1
f 1/5/2 10/6/2 11/7/2
f 18/8/3 3/2/4 2/1/4 16/9/3
f 4/5/5 22/10/5 23/11/5
f 19/12/6 18/13/3 16/14/3 15/15/6
f 20/16/7 19/17/6 15/18/6 14/19/7
f 21/20/8 20/21/7 14/22/7 13/23/8
f 22/24/9 21/25/8 13/26/8 12/27/9
f 23/28/10 22/29/9 12/30/9 11/31/10
f 24/32/11 23/33/10 11/34/10 10/35/11
f 25/36/12 24/37/11 10/38/11 9/39/12
f 26/40/13 25/41/12 9/42/12 8/43/13
f 27/44/14 26/45/13 8/46/13 7/47/14
f 28/48/15 27/49/14 7/50/14 6/51/15
f 17/52/16 28/53/15 6/54/15 5/55/16
f 16/56/2 2/1/2 1/5/2
f 1/5/2 15/57/2 16/56/2
f 1/5/2 13/58/2 14/59/2
f 1/5/2 11/7/2 12/60/2
f 1/5/2 9/61/2 10/6/2
f 1/5/2 7/62/2 8/63/2
f 1/5/2 5/64/2 6/65/2
f 14/59/2 15/57/2 1/5/2
f 1/5/2 12/60/2 13/58/2
f 1/5/2 8/63/2 9/61/2
f 7/62/2 1/5/2 6/65/2
f 28/66/5 17/67/5 4/5/5
f 4/5/5 27/68/5 28/66/5
f 4/5/5 25/69/5 26/70/5
f 4/5/5 23/11/5 24/71/5
f 4/5/5 21/72/5 22/10/5
f 4/5/5 19/73/5 20/74/5
f 4/5/5 3/1/5 18/75/5
f 26/70/5 27/68/5 4/5/5
f 4/5/5 24/71/5 25/69/5
f 4/5/5 20/74/5 21/72/5
f 19/73/5 4/5/5 18/75/5
f 1/4/17 2/1/17 3/2/17 4/3/17
